<svg xmlns="http://www.w3.org/2000/svg" xmlns:xlink="http://www.w3.org/1999/xlink" width="167.711" height="116" viewBox="0 0 167.711 116">
  <defs>
    <clipPath id="clip-path">
      <rect id="Rectángulo_460235" data-name="Rectángulo 460235" width="167.711" height="116" transform="translate(1141.711 717.037)" fill="#fff" stroke="#707070" stroke-width="1"/>
    </clipPath>
    <clipPath id="clip-path-2">
      <rect id="Rectángulo_460744" data-name="Rectángulo 460744" width="111.535" height="111.654" fill="none"/>
    </clipPath>
  </defs>
  <g id="Enmascarar_grupo_1178554" data-name="Enmascarar grupo 1178554" transform="translate(-1141.711 -717.037)" clip-path="url(#clip-path)">
    <g id="Grupo_1211020" data-name="Grupo 1211020" transform="translate(1172.216 719.37)">
      <g id="Grupo_1211019" data-name="Grupo 1211019" clip-path="url(#clip-path-2)">
        <path id="Trazado_1273381" data-name="Trazado 1273381" d="M71.456,68.435a27.181,27.181,0,0,1-14.64,18.838,26.851,26.851,0,0,1-26.38-1.562l-2.555,2.407,1.694,1.908-15.651,15.6a8.04,8.04,0,0,1-11.6-.13,8.148,8.148,0,0,1,.2-11.595L17.981,78.425l1.8,1.731,2.555-2.526a26.9,26.9,0,0,1,1.1-30.844l-15.381-.1C3.892,46.66.082,42.7.081,38.457L.073,15.748c0-5.029,4.5-8.566,9.317-8.575l9.286-.017a10.767,10.767,0,0,1,20.279-.021l10.08.094a8.9,8.9,0,0,1,8.581,9.113l0,12.573,11.318-.037a10.874,10.874,0,0,1,9.989-7.254,10.748,10.748,0,0,1,10.455,7.2l10.84.145c4.456.059,7.791,4.383,7.777,8.823l-.066,22.115c-.016,5.159-4.745,8.616-9.684,8.584l-2.35-.016-13.132,8.7-.006-8.731ZM36,10.809a7.186,7.186,0,1,0-7.186,7.186A7.185,7.185,0,0,0,36,10.809M31.1,39.644l-20.3-.088a26.946,26.946,0,0,1,.652-8.3A18.3,18.3,0,0,1,22.129,19.28a10.739,10.739,0,0,1-4.11-8.523l-8.922,0a5.606,5.606,0,0,0-5.516,5.3l.059,22A5.05,5.05,0,0,0,8.422,43.1l18.384.056Zm22.894-8.979-.016-14.622a5.455,5.455,0,0,0-4.987-5.256l-9.4-.024a10.613,10.613,0,0,1-4.125,8.527A17.94,17.94,0,0,1,46.779,36.066a19.9,19.9,0,0,1,3.751.547,8.9,8.9,0,0,1,3.465-5.949M30.473,35.94,29.343,21.7a2.29,2.29,0,0,0-1.039.017l-1.11,14.258ZM23.551,36l1.126-13.764A14.346,14.346,0,0,0,14.4,35.99Zm19.67-.105A14.4,14.4,0,0,0,33.009,22.27l1.023,13.8ZM86.377,32.4A7.182,7.182,0,1,0,79.2,39.584,7.182,7.182,0,0,0,86.377,32.4m-14.048,8.42a11.024,11.024,0,0,1-3.909-8.364l-9.178-.019a5.222,5.222,0,0,0-5.168,5.176A27.542,27.542,0,0,1,65.737,45.7a21.2,21.2,0,0,1,6.592-4.873M86.372,70.435,94.714,65c.836-.544,2.477-.153,3.478-.125,3.407.1,6.21-2.152,6.212-5.635l.015-21.713a5.475,5.475,0,0,0-4.874-5.091l-9.587,0a10.9,10.9,0,0,1-4.015,8.457C94.552,44.83,97.89,52.042,97.178,61.245l-25.155,0,.043,3.595,14.271,0ZM68.394,63A23.388,23.388,0,1,0,45.006,86.383,23.388,23.388,0,0,0,68.394,63m12.375-5.487L79.722,43.363c-.047-.311-1.029-.3-1.053,0L77.561,57.6Zm-6.741-.029.919-13.621a14.963,14.963,0,0,0-7.055,4.818,29.592,29.592,0,0,1,3.566,8.878,5.537,5.537,0,0,0,2.571-.075m19.573.056A14.355,14.355,0,0,0,83.348,43.872l1.07,13.738ZM24.569,80.589l-2.252,2.236L25.168,85.7l2.253-2.236Zm-13.118,22.4,13-13.015-6.438-6.442L5.081,96.456a4.542,4.542,0,0,0-.2,6.478,4.486,4.486,0,0,0,6.574.053" transform="translate(0 0)" fill="#050505"/>
        <path id="Trazado_1273382" data-name="Trazado 1273382" d="M232.607,136.293l-.036-5.6-14.271,0-.043-3.595,25.155,0c.711-9.2-2.626-16.415-11.234-20.352a10.894,10.894,0,0,0,4.015-8.457l9.587,0a5.475,5.475,0,0,1,4.874,5.091L250.64,125.1c0,3.483-2.8,5.731-6.213,5.635-1-.028-2.643-.419-3.478.125Zm14.472-34.424h-3.63v3.594h3.63Zm0,7.143h-3.63v3.6h3.63Z" transform="translate(-146.235 -65.858)" fill="#fff7df"/>
        <path id="Trazado_1273383" data-name="Trazado 1273383" d="M232.594,83.609a7.182,7.182,0,1,1-7.182-7.182,7.182,7.182,0,0,1,7.182,7.182" transform="translate(-146.217 -51.207)" fill="#f9e5a3"/>
        <path id="Trazado_1273384" data-name="Trazado 1273384" d="M182.122,106.684a21.21,21.21,0,0,0-6.592,4.873,27.539,27.539,0,0,0-11.663-8.081,5.222,5.222,0,0,1,5.168-5.176l9.177.019a11.024,11.024,0,0,0,3.91,8.364" transform="translate(-109.792 -65.862)" fill="#fff7df"/>
        <path id="Trazado_1273385" data-name="Trazado 1273385" d="M262.832,146.611l-9.183.076-1.069-13.738a14.354,14.354,0,0,1,10.253,13.662" transform="translate(-169.23 -89.077)" fill="#9ed1ff"/>
        <path id="Trazado_1273386" data-name="Trazado 1273386" d="M211.875,146.525a5.535,5.535,0,0,1-2.57.075,29.609,29.609,0,0,0-3.566-8.878,14.962,14.962,0,0,1,7.055-4.818Z" transform="translate(-137.847 -89.047)" fill="#9ed1ff"/>
        <path id="Trazado_1273387" data-name="Trazado 1273387" d="M238.249,145.087l-3.209.092,1.108-14.232c.024-.306,1.006-.316,1.053,0Z" transform="translate(-157.479 -87.579)" fill="#dfe2e6"/>
        <rect id="Rectángulo_460739" data-name="Rectángulo 460739" width="3.63" height="3.599" transform="translate(97.215 43.153)" fill="#050505"/>
        <rect id="Rectángulo_460740" data-name="Rectángulo 460740" width="3.63" height="3.594" transform="translate(97.215 36.011)" fill="#050505"/>
        <path id="Trazado_1273388" data-name="Trazado 1273388" d="M38.373,61.483,34.078,65l-18.384-.056a5.049,5.049,0,0,1-4.782-5.034l-.059-22a5.606,5.606,0,0,1,5.516-5.3l8.922,0a10.739,10.739,0,0,0,4.11,8.523A18.3,18.3,0,0,0,18.726,53.1a26.958,26.958,0,0,0-.652,8.3ZM18.03,36.224H14.452v3.63H18.03Zm0,7.26H14.452v3.606H18.03Z" transform="translate(-7.272 -21.84)" fill="#fff7df"/>
        <path id="Trazado_1273389" data-name="Trazado 1273389" d="M126,52.511a8.894,8.894,0,0,0-3.465,5.949,19.84,19.84,0,0,0-3.75-.547,17.941,17.941,0,0,0-11.315-16.777,10.615,10.615,0,0,0,4.125-8.528l9.4.025a5.456,5.456,0,0,1,4.987,5.256Z" transform="translate(-72.007 -21.848)" fill="#fff7df"/>
        <path id="Trazado_1273390" data-name="Trazado 1273390" d="M79.92,18.165a7.185,7.185,0,1,1-7.186-7.186,7.186,7.186,0,0,1,7.186,7.186" transform="translate(-43.918 -7.356)" fill="#f9e5a3"/>
        <path id="Trazado_1273391" data-name="Trazado 1273391" d="M52.789,81.139l-9.151-.007A14.346,14.346,0,0,1,53.915,67.375Z" transform="translate(-29.238 -45.142)" fill="#6cb9ff"/>
        <path id="Trazado_1273392" data-name="Trazado 1273392" d="M110.242,81.108l-9.189.18-1.023-13.8a14.4,14.4,0,0,1,10.212,13.622" transform="translate(-67.021 -45.216)" fill="#6cb9ff"/>
        <path id="Trazado_1273393" data-name="Trazado 1273393" d="M85.689,79.891l-3.279.033,1.11-14.257a2.291,2.291,0,0,1,1.039-.017Z" transform="translate(-55.215 -43.952)" fill="#dfe2e6"/>
        <rect id="Rectángulo_460741" data-name="Rectángulo 460741" width="3.578" height="3.63" transform="translate(7.179 14.385)" fill="#050505"/>
        <rect id="Rectángulo_460742" data-name="Rectángulo 460742" width="3.578" height="3.606" transform="translate(7.179 21.644)" fill="#050505"/>
        <path id="Trazado_1273394" data-name="Trazado 1273394" d="M245.031,272.483l-32.182-.021c-2.678,0-5.316-2.119-5.317-4.826l-.011-22.825a5.11,5.11,0,0,1,4.98-4.77l33.3.027a5.139,5.139,0,0,1,4.778,4.785l-.012,22.729c0,2.757-2.678,4.9-5.533,4.9m.184-3.643a1.925,1.925,0,0,0,1.829-1.954l0-21.325a1.954,1.954,0,0,0-1.957-1.977l-32.184.01a1.985,1.985,0,0,0-1.875,2.229l.031,21.136a1.838,1.838,0,0,0,1.842,1.869Z" transform="translate(-139.041 -160.829)" fill="#050505"/>
        <path id="Trazado_1273395" data-name="Trazado 1273395" d="M252.342,276.034l-32.31-.012a1.838,1.838,0,0,1-1.843-1.869l-.03-21.136a1.985,1.985,0,0,1,1.874-2.229l32.184-.01a1.955,1.955,0,0,1,1.957,1.977l0,21.325a1.925,1.925,0,0,1-1.829,1.954m-12.59-14.417-3.63.007v7.226h-3.594l-.021-3.6-3.574,0-.02,3.606-3.572-.012-.021-14.451-3.58-.006.041,18.064h28.783l.022-3.571-3.575-.025,0-10.853h-3.634v10.842l-3.629.011Z" transform="translate(-146.168 -168.023)" fill="#69d7e5"/>
        <path id="Trazado_1273396" data-name="Trazado 1273396" d="M247.025,268.935l0,7.233,3.629-.01V265.315h3.634l0,10.853,3.575.025-.022,3.571H229.054l-.041-18.064,3.58.006.02,14.451,3.572.012.02-3.606,3.574,0,.021,3.6H243.4v-7.226Z" transform="translate(-153.441 -175.341)" fill="#050505"/>
        <path id="Trazado_1273397" data-name="Trazado 1273397" d="M112.289,143.411A23.388,23.388,0,1,1,88.9,120.023a23.388,23.388,0,0,1,23.388,23.388m-3.6,0A19.786,19.786,0,1,0,88.9,163.2a19.787,19.787,0,0,0,19.787-19.787" transform="translate(-43.894 -80.416)" fill="#dfe2e6"/>
        <path id="Trazado_1273398" data-name="Trazado 1273398" d="M18.794,272.586a4.486,4.486,0,0,1-6.574-.053,4.542,4.542,0,0,1,.2-6.478L25.353,253.13l6.438,6.442Z" transform="translate(-7.344 -169.599)" fill="#ffb851"/>
        <rect id="Rectángulo_460743" data-name="Rectángulo 460743" width="3.174" height="4.047" transform="matrix(0.71, -0.705, 0.705, 0.71, 22.317, 82.825)" fill="#b1d97d"/>
        <path id="Trazado_1273399" data-name="Trazado 1273399" d="M116,150.717A19.786,19.786,0,1,1,96.213,130.93,19.786,19.786,0,0,1,116,150.717m-3.607,0A16.182,16.182,0,1,0,96.21,166.9a16.181,16.181,0,0,0,16.181-16.181" transform="translate(-51.206 -87.724)" fill="#050505"/>
        <path id="Trazado_1273400" data-name="Trazado 1273400" d="M119.706,158.039a16.182,16.182,0,1,1-16.181-16.181,16.181,16.181,0,0,1,16.181,16.181" transform="translate(-58.521 -95.046)" fill="#69d7e5"/>
      </g>
    </g>
  </g>
</svg>
