<svg xmlns="http://www.w3.org/2000/svg" xmlns:xlink="http://www.w3.org/1999/xlink" width="80" height="80" viewBox="0 0 80 80">
  <defs>
    <clipPath id="clip-path">
      <rect id="Rectángulo_460594" data-name="Rectángulo 460594" width="58" height="56.964" fill="#344866"/>
    </clipPath>
  </defs>
  <g id="Grupo_1210966" data-name="Grupo 1210966" transform="translate(-709.711 -1680.75)">
    <g id="Grupo_1119665" data-name="Grupo 1119665" transform="translate(533.822 -3840.25)">
      <rect id="Rectángulo_402006" data-name="Rectángulo 402006" width="80" height="80" rx="5" transform="translate(175.889 5521)" fill="#a4e7f0"/>
    </g>
    <g id="Grupo_1210973" data-name="Grupo 1210973" transform="translate(720.711 1692.75)">
      <g id="Grupo_1210972" data-name="Grupo 1210972" transform="translate(0 0)" clip-path="url(#clip-path)">
        <path id="Trazado_1273046" data-name="Trazado 1273046" d="M56.789,5.563h-46.7A5.27,5.27,0,0,0,5.043,0C2.22,0,0,2.559,0,5.785V48.509c.1,4.784,3.329,8.455,7.566,8.455H56.789A1.3,1.3,0,0,0,58,55.629V6.9a1.23,1.23,0,0,0-1.211-1.335M5.144,2.782A2.67,2.67,0,0,1,7.667,5.674V43.837a4.226,4.226,0,0,0-5.044,0V5.785a2.776,2.776,0,0,1,2.522-3m50.434,51.4H7.667c-2.824,0-4.943-2.448-5.044-5.785a2.775,2.775,0,0,1,2.522-2.782c1.312,0,2.421,1.447,2.522,3a1.308,1.308,0,0,0,1.311,1.335,1.331,1.331,0,0,0,1.211-1.447V8.122H55.579Z" transform="translate(0 0)" fill="#344866"/>
        <path id="Trazado_1273047" data-name="Trazado 1273047" d="M28.331,17.943l3.833,2.782a1.364,1.364,0,0,0,.705.222H49.311a4.013,4.013,0,0,0,3.834-4.116A4.044,4.044,0,0,0,49.311,12.6H32.869a1.734,1.734,0,0,0-.705.223l-3.833,2.781a1.507,1.507,0,0,0-.605,1.113,1.994,1.994,0,0,0,.605,1.224m22.19-1.224a1.308,1.308,0,0,1-1.311,1.335H47.9V15.273h1.312a1.49,1.49,0,0,1,1.311,1.447M33.173,15.384h12.2v2.781h-12.2l-1.916-1.334Z" transform="translate(0.013 1.304)" fill="#344866"/>
        <rect id="Rectángulo_460587" data-name="Rectángulo 460587" width="8.876" height="2.781" transform="translate(15.231 37.494)" fill="#344866"/>
        <rect id="Rectángulo_460588" data-name="Rectángulo 460588" width="13.819" height="2.781" transform="translate(12.71 33.377)" fill="#344866"/>
        <rect id="Rectángulo_460589" data-name="Rectángulo 460589" width="2.522" height="2.781" transform="translate(27.739 33.377)" fill="#344866"/>
        <rect id="Rectángulo_460590" data-name="Rectángulo 460590" width="2.522" height="2.781" transform="translate(21.485 47.285)" fill="#344866"/>
        <rect id="Rectángulo_460591" data-name="Rectángulo 460591" width="2.522" height="2.781" transform="translate(25.318 47.285)" fill="#344866"/>
        <rect id="Rectángulo_460592" data-name="Rectángulo 460592" width="17.652" height="2.781" transform="translate(12.71 41.721)" fill="#344866"/>
        <rect id="Rectángulo_460593" data-name="Rectángulo 460593" width="7.566" height="2.781" transform="translate(12.71 47.285)" fill="#344866"/>
        <path id="Trazado_1273048" data-name="Trazado 1273048" d="M51.73,25.205H42.853a1.409,1.409,0,0,0-1.311,1.446V28.1H36.5a1.41,1.41,0,0,0-1.312,1.448v12.46A1.409,1.409,0,0,0,36.5,43.452h5.043V44.9a1.408,1.408,0,0,0,1.311,1.446H51.73A1.408,1.408,0,0,0,53.04,44.9V39.336a1.409,1.409,0,0,0-1.311-1.447H42.853a1.409,1.409,0,0,0-1.311,1.447v1.446H37.809V31.1h3.833v1.446a1.409,1.409,0,0,0,1.312,1.447H51.73a1.409,1.409,0,0,0,1.311-1.447V26.985c0-1.224-.605-1.78-1.311-1.78M44.164,40.447h6.355v2.781H44.164Zm6.355-9.679H44.164V27.986h6.355Z" transform="translate(0.016 2.609)" fill="#344866"/>
        <path id="Trazado_1273049" data-name="Trazado 1273049" d="M14.217,24.445a1.225,1.225,0,0,0,1.211.891h7.061a1.314,1.314,0,0,0,1.21-.891,6.538,6.538,0,0,0,.2-3.115,7.354,7.354,0,0,0,1.413-4.339c0-3.782-2.824-7.009-6.254-7.009S12.7,13.1,12.7,16.991a7.36,7.36,0,0,0,1.412,4.339,5.475,5.475,0,0,0,.1,3.115m4.741-11.571A4.043,4.043,0,0,1,22.791,17.1a4.539,4.539,0,0,1-1.11,3,1.48,1.48,0,0,0-.3,1.557,3.527,3.527,0,0,1,.2,1H16.537a3.527,3.527,0,0,1,.2-1,1.478,1.478,0,0,0-.3-1.557,4.539,4.539,0,0,1-1.11-3,3.827,3.827,0,0,1,3.632-4.228" transform="translate(0.006 1.033)" fill="#344866"/>
      </g>
    </g>
  </g>
</svg>
