<svg xmlns="http://www.w3.org/2000/svg" xmlns:xlink="http://www.w3.org/1999/xlink" width="396" height="326.655" viewBox="0 0 396 326.655">
  <defs>
    <clipPath id="clip-path">
      <rect id="Rectángulo_459900" data-name="Rectángulo 459900" width="396" height="326.655" transform="translate(0 -65.568)" fill="#d5f4f8"/>
    </clipPath>
    <clipPath id="clip-path-2">
      <rect id="Rectángulo_459902" data-name="Rectángulo 459902" width="107.785" height="157.17" fill="none"/>
    </clipPath>
    <clipPath id="clip-path-3">
      <rect id="Rectángulo_459933" data-name="Rectángulo 459933" width="396" height="305.016" transform="translate(66.63)" fill="none"/>
    </clipPath>
  </defs>
  <g id="Grupo_1208892" data-name="Grupo 1208892" transform="translate(0 65.567)">
    <g id="Grupo_1208887" data-name="Grupo 1208887" transform="translate(0 0.001)">
      <g id="Grupo_1208886" data-name="Grupo 1208886" clip-path="url(#clip-path)">
        <path id="Trazado_1271624" data-name="Trazado 1271624" d="M16.41,265.751c18.432,44.943,57.014,59.163,102.557,59.163,79.539,0,72.053-17.911,109.87-26.527,56.67-12.353,136.923-7.547,163.271-86.471,17.3-63.84-26.41-134.253-65.486-169.972C202.35-65.127-69.259,41.159,16.41,265.751" transform="translate(0 -65.57)" fill="#fff7df"/>
      </g>
    </g>
    <g id="Grupo_1208889" data-name="Grupo 1208889" transform="translate(2.377 102.13)">
      <g id="Grupo_1208888" data-name="Grupo 1208888" clip-path="url(#clip-path-2)">
        <path id="Trazado_1271625" data-name="Trazado 1271625" d="M131.038,184.4c-7.372,116.3-49.648,138.879-49.648,138.879S63.459,277.753,131.038,184.4" transform="translate(-29.099 -164.317)" fill="#ffa727"/>
        <path id="Trazado_1271626" data-name="Trazado 1271626" d="M84.82,329.92l40.723-113.912-.6-.229L84.218,329.691Z" transform="translate(-30.78 -174.901)" fill="#25292b"/>
        <path id="Trazado_1271627" data-name="Trazado 1271627" d="M126.177,259.278l14.006-14.752-.459-.463-13,13.7-1.267-19.136-.64.045Z" transform="translate(-44.471 -182.606)" fill="#25292b"/>
        <path id="Trazado_1271628" data-name="Trazado 1271628" d="M94.285,348.487l14.006-14.753-.459-.463-13,13.7-1.267-19.136-.64.045Z" transform="translate(-33.715 -212.691)" fill="#25292b"/>
        <path id="Trazado_1271629" data-name="Trazado 1271629" d="M111.258,301.01l14.005-14.752-.459-.463-13,13.7-1.267-19.136-.641.045Z" transform="translate(-39.439 -196.68)" fill="#25292b"/>
        <path id="Trazado_1271630" data-name="Trazado 1271630" d="M7.5,184.4c7.372,116.3,49.648,138.879,49.648,138.879S75.075,277.753,7.5,184.4" transform="translate(-4.906 -164.317)" fill="#ffa727"/>
        <path id="Trazado_1271631" data-name="Trazado 1271631" d="M59.047,329.92l.6-.229L18.926,215.78l-.6.229Z" transform="translate(-8.557 -174.902)" fill="#25292b"/>
        <path id="Trazado_1271632" data-name="Trazado 1271632" d="M30.9,259.279l1.364-20.609-.64-.045L30.355,257.76l-13-13.7-.459.463Z" transform="translate(-8.074 -182.606)" fill="#25292b"/>
        <path id="Trazado_1271633" data-name="Trazado 1271633" d="M62.789,348.487l1.364-20.609-.64-.045-1.267,19.136-13-13.7-.459.463Z" transform="translate(-18.829 -212.691)" fill="#25292b"/>
        <path id="Trazado_1271634" data-name="Trazado 1271634" d="M45.816,301.01,47.18,280.4l-.64-.045-1.267,19.136-13-13.7-.459.463Z" transform="translate(-13.105 -196.68)" fill="#25292b"/>
        <path id="Trazado_1271635" data-name="Trazado 1271635" d="M75.178,170.578c-32.088,111.741,0,148.037,0,148.037s32.088-36.3,0-148.037" transform="translate(-22.921 -159.657)" fill="#ffbd29"/>
        <rect id="Rectángulo_459901" data-name="Rectángulo 459901" width="0.642" height="121.423" transform="translate(51.935 33.214)" fill="#25292b"/>
        <path id="Trazado_1271636" data-name="Trazado 1271636" d="M78.267,251.874l8.192-18.847-.585-.272-7.606,17.5-7.606-17.5-.585.272Z" transform="translate(-26.01 -180.626)" fill="#25292b"/>
        <path id="Trazado_1271637" data-name="Trazado 1271637" d="M78.267,346.964l8.192-18.847-.585-.272-7.606,17.5-7.606-17.5-.585.272Z" transform="translate(-26.01 -212.696)" fill="#25292b"/>
        <path id="Trazado_1271638" data-name="Trazado 1271638" d="M78.267,296.358l8.192-18.847-.585-.272-7.606,17.5-7.606-17.5-.585.272Z" transform="translate(-26.01 -195.629)" fill="#25292b"/>
      </g>
    </g>
    <g id="Grupo_1208891" data-name="Grupo 1208891" transform="translate(-66.63 -43.929)">
      <g id="Grupo_1208890" data-name="Grupo 1208890" clip-path="url(#clip-path-3)">
        <path id="Trazado_1271639" data-name="Trazado 1271639" d="M113.635,199.859l-3.545-6.322a.4.4,0,0,1,0-.389l3.545-6.321a.369.369,0,0,1,.649,0l3.538,6.321a.4.4,0,0,1,0,.387l-3.538,6.322a.369.369,0,0,1-.649,0m.324-12.064-3.111,5.548,3.111,5.548,3.106-5.548Z" transform="translate(-24.84 -42.132)" fill="#25292b"/>
        <path id="Trazado_1271640" data-name="Trazado 1271640" d="M125.048,190.69a2.137,2.137,0,1,1,2.136,2.206,2.174,2.174,0,0,1-2.136-2.206m.75,0a1.387,1.387,0,1,0,1.386-1.431,1.411,1.411,0,0,0-1.386,1.431" transform="translate(-28.228 -42.549)" fill="#25292b"/>
        <path id="Trazado_1271641" data-name="Trazado 1271641" d="M117.26,180.656a1.867,1.867,0,1,1,1.867,1.926,1.9,1.9,0,0,1-1.867-1.926m.75,0a1.117,1.117,0,1,0,1.116-1.151,1.136,1.136,0,0,0-1.116,1.151" transform="translate(-26.47 -40.347)" fill="#25292b"/>
        <path id="Trazado_1271642" data-name="Trazado 1271642" d="M128.3,182.593a1.382,1.382,0,1,1,1.381,1.426,1.407,1.407,0,0,1-1.381-1.426m.75,0a.632.632,0,1,0,.631-.653.643.643,0,0,0-.631.653" transform="translate(-28.962 -40.897)" fill="#25292b"/>
        <path id="Trazado_1271643" data-name="Trazado 1271643" d="M400.2,87.937,397.49,83.1a.4.4,0,0,1,0-.388l2.713-4.837a.369.369,0,0,1,.649,0l2.706,4.838a.4.4,0,0,1,0,.387l-2.706,4.837a.369.369,0,0,1-.649,0m.324-9.094-2.279,4.064,2.279,4.063,2.274-4.063Z" transform="translate(-89.718 -17.537)" fill="#25292b"/>
        <path id="Trazado_1271644" data-name="Trazado 1271644" d="M406.939,78.307a2.137,2.137,0,1,1,2.136,2.205,2.174,2.174,0,0,1-2.136-2.205m.751,0a1.386,1.386,0,1,0,1.385-1.432,1.41,1.41,0,0,0-1.385,1.432" transform="translate(-91.862 -17.18)" fill="#25292b"/>
        <path id="Trazado_1271645" data-name="Trazado 1271645" d="M399.152,71.7a1.867,1.867,0,1,1,1.867,1.926,1.9,1.9,0,0,1-1.867-1.926m.75,0a1.117,1.117,0,1,0,1.117-1.152A1.136,1.136,0,0,0,399.9,71.7" transform="translate(-90.104 -15.752)" fill="#25292b"/>
        <path id="Trazado_1271646" data-name="Trazado 1271646" d="M407.914,69.861a1.382,1.382,0,1,1,1.381,1.426,1.406,1.406,0,0,1-1.381-1.426m.75,0a.632.632,0,1,0,.631-.652.643.643,0,0,0-.631.652" transform="translate(-92.082 -15.449)" fill="#25292b"/>
        <path id="Trazado_1271647" data-name="Trazado 1271647" d="M551.358,373.226l-3.545-6.322a.4.4,0,0,1,0-.389l3.545-6.321a.37.37,0,0,1,.65,0l3.538,6.321a.4.4,0,0,1,0,.387l-3.538,6.322a.37.37,0,0,1-.65,0m.324-12.064-3.112,5.548,3.112,5.548,3.1-5.548Z" transform="translate(-123.652 -81.267)" fill="#25292b"/>
        <path id="Trazado_1271648" data-name="Trazado 1271648" d="M531.09,368.617a2.137,2.137,0,1,1,2.136,2.205,2.175,2.175,0,0,1-2.136-2.205m.75,0a1.387,1.387,0,1,0,1.386-1.432,1.411,1.411,0,0,0-1.386,1.432" transform="translate(-119.888 -82.714)" fill="#25292b"/>
        <path id="Trazado_1271649" data-name="Trazado 1271649" d="M554.734,354.023a1.867,1.867,0,1,1,1.867,1.926,1.9,1.9,0,0,1-1.867-1.926m.75,0a1.117,1.117,0,1,0,1.117-1.152,1.136,1.136,0,0,0-1.117,1.152" transform="translate(-125.225 -79.483)" fill="#25292b"/>
        <path id="Trazado_1271650" data-name="Trazado 1271650" d="M541.619,364.2A1.382,1.382,0,1,1,543,365.621a1.406,1.406,0,0,1-1.382-1.426m.75,0a.632.632,0,1,0,.632-.652.643.643,0,0,0-.632.652" transform="translate(-122.265 -81.892)" fill="#25292b"/>
        <path id="Trazado_1271651" data-name="Trazado 1271651" d="M541.772,354.339l-2.226-3.97a.4.4,0,0,1,0-.389l2.226-3.97a.37.37,0,0,1,.65,0l2.221,3.97a.4.4,0,0,1,0,.387l-2.221,3.97a.37.37,0,0,1-.65,0m.324-7.361-1.793,3.2,1.793,3.2,1.789-3.2Z" transform="translate(-121.786 -78.065)" fill="#25292b"/>
        <path id="Trazado_1271652" data-name="Trazado 1271652" d="M565.908,374.012a1.382,1.382,0,1,1,1.382,1.426,1.406,1.406,0,0,1-1.382-1.426m.75,0a.632.632,0,1,0,.632-.652.643.643,0,0,0-.632.652" transform="translate(-127.748 -84.108)" fill="#25292b"/>
        <path id="Trazado_1271653" data-name="Trazado 1271653" d="M143.073,177.821c1.7,21.863,28.155,13.087,40.737,21.98,7.907,5.781,14.124,15.574,24.553,16.462,10.056.794,16.894-9.592,26.953-8.811,10.922.436,21.346,8.01,32.428,4.963,5.595-1.595,10.972-6.1,11.745-12.349.75-6.078-3.525-10.569-6.038-15.555-7.122-18.193,24.823-15.191,1.582-45.039-4.172-5.561-3.154-12.4,1.712-17.057,6.3-8.241,6.475-21.46-5.634-23.49-9.135-2.671-16.49-9.045-24.642-13.767C228.252,72.9,201.2,82.638,195.72,104.739c-2.6,8.775,1.35,16.626-9.038,21.662-19.208,6.474-14.9,8.148-19.984,25.668-6.138,10.1-23.057,11.763-23.624,25.751" transform="translate(-32.297 -18.016)" fill="#644602"/>
        <path id="Trazado_1271654" data-name="Trazado 1271654" d="M210.794,148.6c1.815,7.17,6.187,11.637,12.644,10.7L217.6,184.134l-.667,2.826,10.987,11.645a16.849,16.849,0,0,0,12.336,5.4,17.179,17.179,0,0,0,15.682-10.274l-.878-3.647-1.267-5.242,1.058-.341a39.924,39.924,0,0,0,11.369-5.908A36.476,36.476,0,0,0,276.661,166.4a37.552,37.552,0,0,0,4.282-15.671l.818-16.422a22.9,22.9,0,0,0-3.1-7.456,30.132,30.132,0,0,0-12.171-10.569A34.356,34.356,0,0,1,261,123.153c-11.91,11.513-29.346,12.009-30.508,12.024l-.067.008v.093a.034.034,0,0,1-.03-.023,13.256,13.256,0,0,0-7.9-4.4,11.835,11.835,0,0,0-4.732.279c-6.892,1.874-8.924,9.756-6.967,17.46" transform="translate(-47.425 -26.249)" fill="#f2e9da"/>
        <path id="Trazado_1271655" data-name="Trazado 1271655" d="M290.5,160.7a3.844,3.844,0,0,0,2.506,4.735,3.713,3.713,0,0,0,4.311-3.051,3.843,3.843,0,0,0-2.506-4.735A3.712,3.712,0,0,0,290.5,160.7" transform="translate(-65.551 -35.568)" fill="#25292b"/>
        <path id="Trazado_1271656" data-name="Trazado 1271656" d="M263.74,154.09a3.844,3.844,0,0,0,2.506,4.735,3.713,3.713,0,0,0,4.311-3.051,3.843,3.843,0,0,0-2.506-4.735,3.712,3.712,0,0,0-4.311,3.051" transform="translate(-59.51 -34.076)" fill="#25292b"/>
        <path id="Trazado_1271657" data-name="Trazado 1271657" d="M293.763,150.047a8.2,8.2,0,0,1,7.278,3.329,1.158,1.158,0,0,1-.118,1.566,1.066,1.066,0,0,1-1.516-.122,7.406,7.406,0,0,0-.532-.66c-.094-.1-.19-.2-.288-.3l-.034-.031c-.053-.046-.106-.092-.16-.137a7.092,7.092,0,0,0-.676-.5c-.117-.077-.237-.149-.358-.22l-.058-.033c-.068-.035-.136-.068-.205-.1a7.2,7.2,0,0,0-.775-.313q-.2-.067-.4-.122c-.067-.019-.134-.036-.2-.052l0,0-.019,0a7.58,7.58,0,0,0-.825-.108c-.138-.009-.276-.015-.415-.015-.07,0-.139,0-.208,0h-.036l-.04,0a1.107,1.107,0,0,1-1.26-.88c-.077-.537.252-1.257.852-1.3" transform="translate(-66.119 -33.867)" fill="#25292b"/>
        <path id="Trazado_1271658" data-name="Trazado 1271658" d="M272.207,146.426a1.082,1.082,0,0,1-1.51.2l-.034-.022-.032-.017-.185-.1q-.186-.1-.377-.18a7.646,7.646,0,0,0-.783-.288l-.019-.006,0,0-.2-.048c-.136-.029-.273-.056-.41-.077a7.079,7.079,0,0,0-.828-.084c-.076,0-.152,0-.228-.005l-.067,0c-.139.007-.277.015-.415.029a6.858,6.858,0,0,0-.822.131c-.068.015-.135.031-.2.048l-.044.012c-.13.04-.259.083-.387.13a6.989,6.989,0,0,0-.763.341,1.078,1.078,0,0,1-1.406-.6,1.147,1.147,0,0,1,.581-1.452,8.082,8.082,0,0,1,7.949.434,1.148,1.148,0,0,1,.189,1.559" transform="translate(-59.46 -32.414)" fill="#25292b"/>
        <path id="Trazado_1271659" data-name="Trazado 1271659" d="M222.687,160.872a.388.388,0,0,0,.019-.773,6.257,6.257,0,0,1-5.312-3.917,6.6,6.6,0,0,1,1.212-6.621,4.2,4.2,0,0,1,2.839-1.48,2.511,2.511,0,0,1,2.489,1.535.376.376,0,0,0,.4.243.381.381,0,0,0,.321-.35,16.133,16.133,0,0,0-.228-5.164,7.212,7.212,0,0,0-2.8-4.358,3.639,3.639,0,0,0-2.972-.629,5.38,5.38,0,0,0-2.805,2.691.394.394,0,0,0,.115.534.369.369,0,0,0,.517-.118c.669-1.082,1.353-2.077,2.368-2.359a2.936,2.936,0,0,1,2.367.53,6.449,6.449,0,0,1,2.484,3.9,13.449,13.449,0,0,1,.286,3.788,3.426,3.426,0,0,0-2.567-1.015,4.876,4.876,0,0,0-3.359,1.723,7.321,7.321,0,0,0-1.361,7.441,6.939,6.939,0,0,0,5.97,4.4h.019" transform="translate(-48.713 -31.436)" fill="#25292b"/>
        <path id="Trazado_1271660" data-name="Trazado 1271660" d="M263.393,202.97q.224,0,.451-.012a15.806,15.806,0,0,0,7.047-2.622.4.4,0,0,0,.139-.529.369.369,0,0,0-.512-.143c-2.415,1.432-4.48,2.409-6.711,2.522a11.284,11.284,0,0,1-6.68-2.167,34.044,34.044,0,0,1-5.411-5,.367.367,0,0,0-.53-.01.4.4,0,0,0-.01.547,34.58,34.58,0,0,0,5.538,5.108,12.168,12.168,0,0,0,6.68,2.306" transform="translate(-56.676 -43.998)" fill="#25292b"/>
        <path id="Trazado_1271661" data-name="Trazado 1271661" d="M271.6,182.322a.379.379,0,0,0,.372-.352.383.383,0,0,0-.338-.421,5.615,5.615,0,0,1-3.716-1.964,5.973,5.973,0,0,1-1.376-4.07.382.382,0,0,0-.358-.4h-.017a.379.379,0,0,0-.374.37,6.764,6.764,0,0,0,1.559,4.612,6.363,6.363,0,0,0,4.212,2.227l.035,0" transform="translate(-59.999 -39.53)" fill="#25292b"/>
        <path id="Trazado_1271662" data-name="Trazado 1271662" d="M281.906,173.369a.363.363,0,0,0,.2-.061.391.391,0,0,0,.172-.324l.1-16.9a.381.381,0,0,0-.372-.389h0a.381.381,0,0,0-.376.385l-.094,16.3-6.776-3.135a.367.367,0,0,0-.495.2.391.391,0,0,0,.189.511l7.3,3.378a.368.368,0,0,0,.153.034" transform="translate(-61.905 -35.148)" fill="#25292b"/>
        <path id="Trazado_1271663" data-name="Trazado 1271663" d="M284.94,152.329c0-9.565,6.041-17.348,13.467-17.348s13.467,7.783,13.467,17.348-6.042,17.347-13.467,17.347-13.467-7.782-13.467-17.347m1.5,0c0,8.712,5.368,15.8,11.967,15.8s11.968-7.087,11.968-15.8-5.369-15.8-11.968-15.8-11.967,7.088-11.967,15.8" transform="translate(-64.322 -30.471)" fill="#ffbd29"/>
        <path id="Trazado_1271664" data-name="Trazado 1271664" d="M248.879,144.154c0-9.565,6.041-17.347,13.467-17.347s13.467,7.782,13.467,17.347S269.772,161.5,262.346,161.5s-13.467-7.782-13.467-17.347m1.5,0c0,8.712,5.368,15.8,11.967,15.8s11.968-7.087,11.968-15.8-5.37-15.8-11.968-15.8-11.967,7.087-11.967,15.8" transform="translate(-56.182 -28.626)" fill="#ffbd29"/>
        <path id="Trazado_1271665" data-name="Trazado 1271665" d="M247.049,143.482a.757.757,0,0,0,.735-.622.773.773,0,0,0-.588-.911l-10.824-2.242a.751.751,0,0,0-.883.607.774.774,0,0,0,.588.911l10.824,2.241a.691.691,0,0,0,.148.016" transform="translate(-53.156 -31.535)" fill="#ffbd29"/>
        <path id="Trazado_1271666" data-name="Trazado 1271666" d="M285.058,155.3a.759.759,0,0,0,.745-.692.768.768,0,0,0-.666-.852l-2.578-.285a.751.751,0,0,0-.825.687.769.769,0,0,0,.665.852l2.579.285a.716.716,0,0,0,.081,0" transform="translate(-63.597 -34.645)" fill="#ffbd29"/>
        <path id="Trazado_1271667" data-name="Trazado 1271667" d="M132.646,349.014h205.71V326.739l-54.724-15.826-9.712-65.433a36.353,36.353,0,0,0-23.271-29l-18.171-6.62.878,3.647a17.179,17.179,0,0,1-15.682,10.274,16.852,16.852,0,0,1-12.336-5.4l-10.987-11.645.667-2.826-47.187,1.835c-16.851,2.013-29.96,16.058-31.288,33.518l-6.434,84.572c-1.035,13.573,9.352,25.171,22.536,25.171" transform="translate(-24.84 -46.033)" fill="#ffd453"/>
        <path id="Trazado_1271668" data-name="Trazado 1271668" d="M257.938,214.335l3.085,135.5H229.2l-10.265-142.27Z" transform="translate(-49.422 -46.857)" fill="#f2e9da"/>
        <path id="Trazado_1271669" data-name="Trazado 1271669" d="M244.516,234.421a.371.371,0,0,0,.235-.085c9.515-7.891,13.4-19.873,13.434-19.994a.39.39,0,0,0-.24-.488.372.372,0,0,0-.473.248c-.036.117-3.805,11.739-13.014,19.482-1.767-.838-14.78-7.5-25.311-26.323a.37.37,0,0,0-.512-.142.394.394,0,0,0-.137.529c11.4,20.382,25.729,26.682,25.873,26.743a.371.371,0,0,0,.143.029" transform="translate(-49.313 -46.744)" fill="#25292b"/>
        <path id="Trazado_1271670" data-name="Trazado 1271670" d="M290.511,362.349a.379.379,0,0,0,.372-.35l3.336-35.961c.733-1.2,8.06-13.362,9.171-21.6,1.145-8.491-8.756-41.493-9.178-42.893a.371.371,0,0,0-.469-.255.39.39,0,0,0-.247.485c.1.341,10.273,34.237,9.151,42.556s-9.029,21.24-9.109,21.37a.4.4,0,0,0-.057.171l-3.345,36.053a.384.384,0,0,0,.338.423l.036,0" transform="translate(-65.495 -58.98)" fill="#25292b"/>
        <path id="Trazado_1271671" data-name="Trazado 1271671" d="M216.787,313.439a.366.366,0,0,0,.147-.031.392.392,0,0,0,.2-.508c-.21-.506-20.924-50.748-21.027-71.309-.1-20.5,10.849-36.5,10.96-36.656a.4.4,0,0,0-.085-.54.368.368,0,0,0-.524.088c-.111.161-11.2,16.349-11.1,37.113.1,20.716,20.878,71.1,21.087,71.608a.375.375,0,0,0,.345.235" transform="translate(-44.099 -46.124)" fill="#25292b"/>
        <path id="Trazado_1271672" data-name="Trazado 1271672" d="M274.945,314.142a.376.376,0,0,0,.355-.263c.109-.333,10.933-33.609,11.656-59.519.725-26-10.548-39.981-10.662-40.119a.368.368,0,0,0-.529-.044.4.4,0,0,0-.043.546c.112.136,11.2,13.913,10.483,39.595-.719,25.792-11.507,58.962-11.616,59.294a.39.39,0,0,0,.235.491.383.383,0,0,0,.12.02" transform="translate(-61.981 -48.333)" fill="#25292b"/>
        <path id="Trazado_1271673" data-name="Trazado 1271673" d="M229.5,350.667l38.047-2.475s6.883-1.093,9.277,3.229c0,0,8.5-2.421,11.988,1.614a8.217,8.217,0,0,1,10.111,3.767c3.961,6.35,11.049,20.017,11.049,20.017h-41.9s-3.544,4.3-18.242,4.3S231.2,376.27,231.2,376.27Z" transform="translate(-51.807 -78.574)" fill="#f2e9da"/>
        <path id="Trazado_1271674" data-name="Trazado 1271674" d="M229.39,351.055h.023l33.91-2.206a.382.382,0,0,0,.351-.41.356.356,0,0,0-.4-.362l-33.91,2.206a.388.388,0,0,0,.023.773" transform="translate(-51.698 -78.575)" fill="#25292b"/>
        <path id="Trazado_1271675" data-name="Trazado 1271675" d="M216.52,363.322h.029a.383.383,0,0,0,.346-.415l-2.413-33.444a.381.381,0,0,0-.345-.357l-50.555-4.083,8.7-58.995a.384.384,0,0,0-.314-.441.378.378,0,0,0-.427.324l-8.756,59.407a.392.392,0,0,0,.077.3.367.367,0,0,0,.264.145l50.637,4.09,2.389,33.113a.38.38,0,0,0,.373.358" transform="translate(-36.745 -59.953)" fill="#25292b"/>
        <path id="Trazado_1271676" data-name="Trazado 1271676" d="M216.148,380.831a.418.418,0,0,0,.069-.006.388.388,0,0,0,.3-.451l-5.7-31.981a.378.378,0,0,0-.437-.31.388.388,0,0,0-.3.451l5.7,31.981a.38.38,0,0,0,.369.317" transform="translate(-47.422 -78.576)" fill="#25292b"/>
        <path id="Trazado_1271677" data-name="Trazado 1271677" d="M254.624,385.833c12.572,0,17.6-3.631,18.412-4.295h14.919c.132.016,4.131.4,6.292-1.614a4.312,4.312,0,0,0,1.336-3.293,5.238,5.238,0,0,0-3.735-5.383l-27.809-3.987a.387.387,0,0,0-.1.767l27.78,3.981c.1.025,3.116.773,3.116,4.622a3.557,3.557,0,0,1-1.086,2.718c-1.913,1.789-5.715,1.421-5.752,1.418l-15.093,0a.369.369,0,0,0-.247.1c-.054.048-5.625,4.861-21.349,4.118a.364.364,0,0,0-.393.368.383.383,0,0,0,.358.4q1.757.084,3.354.082" transform="translate(-56.641 -82.905)" fill="#25292b"/>
        <path id="Trazado_1271678" data-name="Trazado 1271678" d="M309.013,378.071a.348.348,0,0,0,.088-.012.386.386,0,0,0,.276-.467l-.974-4.131a21.407,21.407,0,0,0-6.207-10.77L290.762,352a.368.368,0,0,0-.53.026.4.4,0,0,0,.026.547l11.433,10.693a20.642,20.642,0,0,1,5.983,10.38l.974,4.131a.376.376,0,0,0,.364.3" transform="translate(-65.495 -79.438)" fill="#25292b"/>
        <path id="Trazado_1271679" data-name="Trazado 1271679" d="M318.4,378.542a.36.36,0,0,0,.106-.016.389.389,0,0,0,.253-.481l-2.371-8.3a21.524,21.524,0,0,0-3.653-7.254l-6.447-8.362a.368.368,0,0,0-.527-.062.4.4,0,0,0-.06.544l6.446,8.362a20.715,20.715,0,0,1,3.521,6.991l2.372,8.3a.377.377,0,0,0,.359.277" transform="translate(-68.99 -79.909)" fill="#25292b"/>
        <rect id="Rectángulo_459903" data-name="Rectángulo 459903" width="168.208" height="6.027" transform="translate(216.607 298.245)" fill="#1e535a"/>
        <path id="Trazado_1271680" data-name="Trazado 1271680" d="M463.372,357.339H348l37.5-95.566H500.869Z" transform="translate(-78.556 -59.093)" fill="#1e535a"/>
        <path id="Trazado_1271681" data-name="Trazado 1271681" d="M355.782,358.586H464.294a.387.387,0,0,0,0-.774H356.344l37-91.694a.392.392,0,0,0-.2-.506.374.374,0,0,0-.491.209l-37.213,92.23a.4.4,0,0,0,.034.363.373.373,0,0,0,.312.173" transform="translate(-80.229 -59.953)" fill="#f2e9da"/>
        <path id="Trazado_1271682" data-name="Trazado 1271682" d="M60.893,391.592H467.1a.387.387,0,0,0,0-.774H60.893a.387.387,0,0,0,0,.774" transform="translate(-13.661 -88.224)" fill="#25292b"/>
        <path id="Trazado_1271683" data-name="Trazado 1271683" d="M66.341,76.248a10.511,10.511,0,0,0,1.453,5.342.218.218,0,0,0,.191.11h64.774a.213.213,0,0,0,.164-.073,14.707,14.707,0,0,0,3.789-9.846,14.95,14.95,0,0,0-11-14.317A18.005,18.005,0,0,0,90.819,53.42a13.107,13.107,0,0,0-1.764-.115A13.7,13.7,0,0,0,75.438,65.9a10.312,10.312,0,0,0-9.1,10.345m.444,0a9.858,9.858,0,0,1,8.883-9.91.227.227,0,0,0,.2-.211A13.224,13.224,0,0,1,90.935,53.9a.224.224,0,0,0,.244-.151,17.563,17.563,0,0,1,34.1,3.925.223.223,0,0,0,.164.2,14.5,14.5,0,0,1,10.82,13.913,14.231,14.231,0,0,1-3.607,9.46H68.109a10.037,10.037,0,0,1-1.323-4.994" transform="translate(17.919 18.858)" fill="#25292b"/>
        <path id="Trazado_1271684" data-name="Trazado 1271684" d="M331.095,70.48V67.563a.375.375,0,1,1,.75,0V70.48a.375.375,0,1,1-.75,0m0-7.563V58.272a.375.375,0,1,1,.75,0v4.646a.375.375,0,1,1-.75,0M212.123,54.624a.385.385,0,0,1-.34-.42.392.392,0,0,1,.407-.351c.311.029.626.043.975.043a10.076,10.076,0,0,0,3.309-.556.375.375,0,0,1,.475.243.39.39,0,0,1-.236.49,10.817,10.817,0,0,1-3.579.6q-.511,0-1.011-.046m42.61-.075a.385.385,0,0,1-.324-.433.378.378,0,0,1,.42-.335,10.135,10.135,0,0,0,4.3-.355.374.374,0,0,1,.466.261.39.39,0,0,1-.252.482,10.813,10.813,0,0,1-3.176.475,11.032,11.032,0,0,1-1.429-.094m42.584-.068a.387.387,0,0,1,.125-.763,10.366,10.366,0,0,0,4.31-.17.376.376,0,0,1,.454.282.389.389,0,0,1-.273.47,11.051,11.051,0,0,1-4.616.181m33.777-.855V48.98a.375.375,0,1,1,.75,0v4.646a.375.375,0,1,1-.75,0m-123.386-.411a11.235,11.235,0,0,1-3.479-3.143.4.4,0,0,1,.076-.542.369.369,0,0,1,.525.077,10.485,10.485,0,0,0,3.243,2.932.394.394,0,0,1,.145.527.373.373,0,0,1-.327.2.363.363,0,0,1-.183-.049m42.664-.249a11.416,11.416,0,0,1-3.36-3.274.4.4,0,0,1,.094-.54.369.369,0,0,1,.522.1,10.64,10.64,0,0,0,3.135,3.056.393.393,0,0,1,.124.532.37.37,0,0,1-.32.185.361.361,0,0,1-.2-.057m42.65-.249a11.46,11.46,0,0,1-3.23-3.412.394.394,0,0,1,.116-.534.369.369,0,0,1,.517.12,10.68,10.68,0,0,0,3.013,3.182.4.4,0,0,1,.1.537.371.371,0,0,1-.312.173.363.363,0,0,1-.208-.065m12.535-.586a.4.4,0,0,1,.064-.544,10.762,10.762,0,0,0,2.767-3.411.369.369,0,0,1,.507-.16.392.392,0,0,1,.155.523,11.364,11.364,0,0,1-2.966,3.658.366.366,0,0,1-.527-.066m-42.69-.291a.4.4,0,0,1,.041-.546,10.648,10.648,0,0,0,2.623-3.531.369.369,0,0,1,.5-.183.393.393,0,0,1,.177.516,11.423,11.423,0,0,1-2.812,3.786.363.363,0,0,1-.244.093.371.371,0,0,1-.285-.135m-42.707-.219a.4.4,0,0,1,.022-.547,10.654,10.654,0,0,0,2.5-3.623.374.374,0,0,1,.494-.2.394.394,0,0,1,.194.51,11.449,11.449,0,0,1-2.681,3.884.369.369,0,0,1-.254.1.374.374,0,0,1-.276-.125m-17.874-5.879a11.911,11.911,0,0,1-.277-2.557V41.032a.375.375,0,1,1,.75,0v2.154a11.173,11.173,0,0,0,.258,2.385.386.386,0,0,1-.283.463.342.342,0,0,1-.083.01.378.378,0,0,1-.365-.3m42.943-.455a11.945,11.945,0,0,1-.191-2.129V40.584a.375.375,0,1,1,.749,0v2.574a11.228,11.228,0,0,0,.178,1.988.387.387,0,0,1-.3.451.348.348,0,0,1-.07.006.377.377,0,0,1-.367-.316m42.953-.458a12.18,12.18,0,0,1-.116-1.672V40.136a.375.375,0,1,1,.749,0v3.022a11.343,11.343,0,0,0,.109,1.562.385.385,0,0,1-.317.438.436.436,0,0,1-.054,0,.38.38,0,0,1-.371-.332m42.912-.495V39.689a.375.375,0,1,1,.75,0v4.646a.375.375,0,1,1-.75,0m-21.175-.022a.385.385,0,0,1-.348-.413c.016-.245.025-.491.025-.741V39.28a.375.375,0,1,1,.75,0v3.877c0,.268-.009.532-.026.794a.381.381,0,0,1-.374.36h-.026M266.9,43.834a.381.381,0,0,1-.366-.4l0-4.637a.375.375,0,1,1,.75,0v4.357l0,.3a.38.38,0,0,1-.375.378Zm-43.359-.747V38.441a.375.375,0,1,1,.749,0v4.646a.375.375,0,1,1-.749,0m-21.531-6.7V31.741a.375.375,0,1,1,.75,0v4.646a.375.375,0,1,1-.75,0m43.029-.448V31.293a.375.375,0,1,1,.749,0v4.646a.375.375,0,1,1-.749,0m43.028-.448V30.845a.375.375,0,1,1,.749,0V35.49a.375.375,0,1,1-.749,0m43.028-.447V30.4a.375.375,0,1,1,.75,0v4.646a.375.375,0,1,1-.75,0m-21.5-.409V29.989a.375.375,0,1,1,.75,0v4.646a.375.375,0,1,1-.75,0m-43.059-.479V29.51a.375.375,0,1,1,.75,0v4.646a.375.375,0,1,1-.75,0m-43-.36V29.15a.375.375,0,1,1,.749,0V33.8a.375.375,0,1,1-.749,0m-43.06-.48V28.67a.375.375,0,1,1,.75,0v4.646a.375.375,0,1,1-.75,0M202.01,27.1V22.45a.375.375,0,1,1,.75,0V27.1a.375.375,0,1,1-.75,0m43.029-.448V22a.375.375,0,1,1,.749,0v4.646a.375.375,0,1,1-.749,0m43.028-.448V21.554a.375.375,0,1,1,.749,0V26.2a.375.375,0,1,1-.749,0m43.028-.447V21.107a.375.375,0,1,1,.75,0v4.646a.375.375,0,1,1-.75,0m-21.5-.409V20.7a.375.375,0,1,1,.75,0v4.646a.375.375,0,1,1-.75,0m-43.059-.479V20.219a.375.375,0,1,1,.75,0v4.646a.375.375,0,1,1-.75,0m-43-.36V19.859a.375.375,0,1,1,.749,0V24.5a.375.375,0,1,1-.749,0m-43.06-.48V19.379a.375.375,0,1,1,.75,0v4.646a.375.375,0,1,1-.75,0M202.01,17.8v-.339a10.953,10.953,0,0,0-.767-4.052.392.392,0,0,1,.205-.5.371.371,0,0,1,.489.211,11.768,11.768,0,0,1,.823,4.345V17.8a.375.375,0,1,1-.75,0m43.028-.444a10.913,10.913,0,0,0-.934-4.343.394.394,0,0,1,.185-.514.372.372,0,0,1,.5.192,11.7,11.7,0,0,1,1,4.657.381.381,0,0,1-.371.391h0a.381.381,0,0,1-.375-.383m43.018-.434a10.867,10.867,0,0,0-1.093-4.3.394.394,0,0,1,.166-.52.37.37,0,0,1,.5.171,11.638,11.638,0,0,1,1.171,4.616.381.381,0,0,1-.356.4h-.018a.38.38,0,0,1-.374-.369m43-.431a10.8,10.8,0,0,0-1.26-4.253.4.4,0,0,1,.146-.527.37.37,0,0,1,.51.15,11.627,11.627,0,0,1,1.352,4.563.384.384,0,0,1-.341.419l-.033,0a.38.38,0,0,1-.372-.354m-21.047-.055a.384.384,0,0,1-.326-.431A11.6,11.6,0,0,1,311.2,11.5a.369.369,0,0,1,.515-.131.394.394,0,0,1,.127.531,10.823,10.823,0,0,0-1.412,4.2.379.379,0,0,1-.372.339.319.319,0,0,1-.046,0M267,15.965a.386.386,0,0,1-.307-.446,11.571,11.571,0,0,1,1.7-4.437.368.368,0,0,1,.52-.108.394.394,0,0,1,.1.537,10.793,10.793,0,0,0-1.587,4.136.378.378,0,0,1-.369.323.352.352,0,0,1-.063-.005m-42.94-.356a.388.388,0,0,1-.293-.458,11.539,11.539,0,0,1,1.853-4.371.366.366,0,0,1,.523-.089.4.4,0,0,1,.086.54,10.755,10.755,0,0,0-1.727,4.077.378.378,0,0,1-.367.309.366.366,0,0,1-.076-.008m-42.973-.471a.39.39,0,0,1-.273-.47,11.534,11.534,0,0,1,2.035-4.286.367.367,0,0,1,.526-.066.4.4,0,0,1,.064.544,10.751,10.751,0,0,0-1.9,4,.378.378,0,0,1-.364.293.368.368,0,0,1-.091-.011m17.732-5.4a10.269,10.269,0,0,0-3.661-2.348.392.392,0,0,1-.226-.5.376.376,0,0,1,.481-.232,11.009,11.009,0,0,1,3.925,2.518.4.4,0,0,1,.012.547.367.367,0,0,1-.53.012m42.719-.293a10.206,10.206,0,0,0-3.749-2.194.39.39,0,0,1-.245-.485.376.376,0,0,1,.471-.252,10.943,10.943,0,0,1,4.021,2.353.4.4,0,0,1,.032.547.367.367,0,0,1-.53.033m42.73-.291a10.169,10.169,0,0,0-3.827-2.044.389.389,0,0,1-.263-.475.374.374,0,0,1,.461-.272,10.911,10.911,0,0,1,4.1,2.193.4.4,0,0,1,.053.545.372.372,0,0,1-.29.142.363.363,0,0,1-.238-.088m42.7-.266A10.123,10.123,0,0,0,323.062,7a.388.388,0,0,1-.281-.465.375.375,0,0,1,.45-.29,10.882,10.882,0,0,1,4.188,2.021.4.4,0,0,1,.073.543.369.369,0,0,1-.526.076m-12.7-.328a.394.394,0,0,1,.093-.539,10.827,10.827,0,0,1,4.256-1.86.374.374,0,0,1,.44.307.388.388,0,0,1-.3.454,10.09,10.09,0,0,0-3.97,1.734.367.367,0,0,1-.522-.1m-42.683-.28a.394.394,0,0,1,.115-.534,10.788,10.788,0,0,1,4.33-1.667.382.382,0,0,1,.426.327.387.387,0,0,1-.317.44A10.04,10.04,0,0,0,272.1,8.4a.366.366,0,0,1-.2.06.373.373,0,0,1-.317-.18M228.9,8.09a.394.394,0,0,1,.132-.53,10.777,10.777,0,0,1,4.385-1.509.388.388,0,0,1,.084.77,10.038,10.038,0,0,0-4.087,1.405.364.364,0,0,1-.19.053.372.372,0,0,1-.323-.19m-42.663-.249a.393.393,0,0,1,.156-.523,10.75,10.75,0,0,1,4.443-1.311.372.372,0,0,1,.4.36.385.385,0,0,1-.349.413A10.031,10.031,0,0,0,186.741,8a.361.361,0,0,1-.176.046.373.373,0,0,1-.331-.206" transform="translate(-40.742 -1.356)" fill="#25292b"/>
        <path id="Trazado_1271685" data-name="Trazado 1271685" d="M152.454,173.045V168.4a.375.375,0,1,1,.75,0v4.646a.375.375,0,1,1-.75,0m0-9.291v-4.646a.375.375,0,1,1,.75,0v4.646a.375.375,0,1,1-.75,0m0-9.291v-4.646a.375.375,0,1,1,.75,0v4.646a.375.375,0,1,1-.75,0m0-9.291v-4.646a.375.375,0,1,1,.75,0v4.646a.375.375,0,1,1-.75,0m0-9.291v-4.646a.375.375,0,1,1,.75,0v4.646a.375.375,0,1,1-.75,0" transform="translate(-34.415 -29.538)" fill="#25292b"/>
        <rect id="Rectángulo_459904" data-name="Rectángulo 459904" width="93.816" height="59.905" transform="translate(358.944 134.458)" fill="#f2e9da"/>
        <rect id="Rectángulo_459905" data-name="Rectángulo 459905" width="87.561" height="12.592" transform="translate(362.071 136.621)" fill="#ffb851"/>
        <path id="Trazado_1271686" data-name="Trazado 1271686" d="M488.106,187.615a.512.512,0,0,0,.327-.118l4.558-3.759a.552.552,0,0,0,0-.846l-4.5-3.711a.514.514,0,0,0-.737.085.554.554,0,0,0,.082.762l3.987,3.288-4.045,3.336a.553.553,0,0,0-.083.761.518.518,0,0,0,.41.2" transform="translate(-110.066 -40.422)" fill="#f2e9da"/>
        <path id="Trazado_1271687" data-name="Trazado 1271687" d="M477.761,187.615a.518.518,0,0,0,.41-.2.553.553,0,0,0-.083-.761l-4.045-3.336,3.987-3.288a.554.554,0,0,0,.082-.762.514.514,0,0,0-.737-.085l-4.5,3.711a.552.552,0,0,0,0,.846l4.558,3.759a.51.51,0,0,0,.327.118" transform="translate(-106.702 -40.422)" fill="#f2e9da"/>
        <path id="Trazado_1271688" data-name="Trazado 1271688" d="M484.118,188.317a.507.507,0,0,0,.225-.019.545.545,0,0,0,.348-.677l-2.821-9.467a.521.521,0,0,0-.656-.358.545.545,0,0,0-.348.677l2.821,9.467a.53.53,0,0,0,.43.378" transform="translate(-108.545 -40.131)" fill="#f2e9da"/>
        <rect id="Rectángulo_459906" data-name="Rectángulo 459906" width="47.071" height="3.982" transform="translate(402.561 157.929)" fill="#ffa727"/>
        <rect id="Rectángulo_459907" data-name="Rectángulo 459907" width="22.91" height="3.982" transform="translate(377.514 157.929)" fill="#ffbd29"/>
        <rect id="Rectángulo_459908" data-name="Rectángulo 459908" width="13.09" height="3.982" transform="translate(362.071 157.929)" fill="#1e535a"/>
        <path id="Trazado_1271689" data-name="Trazado 1271689" d="M467.482,219.633h32.072v-3.982H467.482" transform="translate(-105.529 -48.682)" fill="#ffa727"/>
        <rect id="Rectángulo_459909" data-name="Rectángulo 459909" width="22.91" height="3.982" transform="translate(396.162 166.97)" fill="#ffbd29"/>
        <path id="Trazado_1271690" data-name="Trazado 1271690" d="M572.382,215.652H544.294v3.982h28.089" transform="translate(-122.869 -48.682)" fill="#1e535a"/>
        <rect id="Rectángulo_459910" data-name="Rectángulo 459910" width="17.073" height="3.982" transform="translate(432.44 176.762)" fill="#ffbd29"/>
        <rect id="Rectángulo_459911" data-name="Rectángulo 459911" width="47.658" height="3.982" transform="translate(382.645 176.762)" fill="#ffa727"/>
        <rect id="Rectángulo_459912" data-name="Rectángulo 459912" width="18.339" height="3.982" transform="translate(361.953 176.762)" fill="#1e535a"/>
        <path id="Trazado_1271691" data-name="Trazado 1271691" d="M467.328,243.957H481.4v-3.982H467.328" transform="translate(-105.495 -54.173)" fill="#ffa727"/>
        <rect id="Rectángulo_459913" data-name="Rectángulo 459913" width="40.909" height="3.982" transform="translate(378.044 185.803)" fill="#ffbd29"/>
        <path id="Trazado_1271692" data-name="Trazado 1271692" d="M572.229,239.976H544.141v3.982h28.089" transform="translate(-122.834 -54.173)" fill="#1e535a"/>
        <rect id="Rectángulo_459914" data-name="Rectángulo 459914" width="93.816" height="119.683" transform="translate(259.393 74.68)" fill="#f2e9da"/>
        <rect id="Rectángulo_459915" data-name="Rectángulo 459915" width="87.561" height="12.592" transform="translate(262.521 76.842)" fill="#ffb851"/>
        <path id="Trazado_1271693" data-name="Trazado 1271693" d="M359.531,110.408a.51.51,0,0,0,.326-.118l4.558-3.759a.552.552,0,0,0,0-.846l-4.5-3.711a.514.514,0,0,0-.737.085.554.554,0,0,0,.082.762l3.987,3.288-4.045,3.336a.553.553,0,0,0-.083.761.518.518,0,0,0,.411.2" transform="translate(-81.042 -22.994)" fill="#f2e9da"/>
        <path id="Trazado_1271694" data-name="Trazado 1271694" d="M349.186,110.408a.518.518,0,0,0,.41-.2.553.553,0,0,0-.083-.761l-4.045-3.336,3.987-3.288a.554.554,0,0,0,.082-.762.514.514,0,0,0-.737-.085l-4.5,3.711a.552.552,0,0,0,0,.846l4.558,3.759a.51.51,0,0,0,.327.118" transform="translate(-77.678 -22.994)" fill="#f2e9da"/>
        <path id="Trazado_1271695" data-name="Trazado 1271695" d="M355.543,111.111a.507.507,0,0,0,.225-.019.545.545,0,0,0,.348-.677l-2.821-9.467a.521.521,0,0,0-.656-.358.545.545,0,0,0-.348.677l2.821,9.467a.532.532,0,0,0,.431.378" transform="translate(-79.521 -22.702)" fill="#f2e9da"/>
        <rect id="Rectángulo_459916" data-name="Rectángulo 459916" width="36.941" height="3.982" transform="translate(297.58 164.993)" fill="#ffbd29"/>
        <rect id="Rectángulo_459917" data-name="Rectángulo 459917" width="13.09" height="3.982" transform="translate(336.874 164.993)" fill="#1e535a"/>
        <path id="Trazado_1271696" data-name="Trazado 1271696" d="M442.8,201.423H410.727V205.4H442.8" transform="translate(-92.717 -45.47)" fill="#1e535a"/>
        <rect id="Rectángulo_459918" data-name="Rectángulo 459918" width="22.91" height="3.982" transform="translate(292.962 155.953)" fill="#ffbd29"/>
        <path id="Trazado_1271697" data-name="Trazado 1271697" d="M339.06,205.4h28.089v-3.982H339.06" transform="translate(-76.539 -45.47)" fill="#ffa727"/>
        <rect id="Rectángulo_459919" data-name="Rectángulo 459919" width="17.073" height="3.982" transform="translate(262.522 146.16)" fill="#ffbd29"/>
        <rect id="Rectángulo_459920" data-name="Rectángulo 459920" width="47.658" height="3.982" transform="translate(281.732 146.16)" fill="#ffa727"/>
        <rect id="Rectángulo_459921" data-name="Rectángulo 459921" width="18.339" height="3.982" transform="translate(331.743 146.16)" fill="#1e535a"/>
        <rect id="Rectángulo_459922" data-name="Rectángulo 459922" width="11.336" height="3.982" transform="translate(293.082 137.12)" fill="#ffbd29"/>
        <path id="Trazado_1271698" data-name="Trazado 1271698" d="M339.214,181.081H367.3V177.1H339.214" transform="translate(-76.574 -39.979)" fill="#1e535a"/>
        <rect id="Rectángulo_459923" data-name="Rectángulo 459923" width="42.134" height="3.982" transform="translate(262.283 126.025)" fill="#ffa727"/>
        <rect id="Rectángulo_459924" data-name="Rectángulo 459924" width="11.574" height="3.982" transform="translate(292.844 116.985)" fill="#1e535a"/>
        <path id="Trazado_1271699" data-name="Trazado 1271699" d="M338.844,155.075h28.089l.049-3.982H338.893" transform="translate(-76.49 -34.108)" fill="#ffbd29"/>
        <rect id="Rectángulo_459925" data-name="Rectángulo 459925" width="17.073" height="3.982" transform="translate(262.402 107.192)" fill="#ffbd29"/>
        <rect id="Rectángulo_459926" data-name="Rectángulo 459926" width="22.805" height="3.982" transform="translate(281.612 107.192)" fill="#ffa727"/>
        <rect id="Rectángulo_459927" data-name="Rectángulo 459927" width="11.455" height="3.982" transform="translate(292.962 98.151)" fill="#ffbd29"/>
        <path id="Trazado_1271700" data-name="Trazado 1271700" d="M339.06,130.751h28.089v-3.982H339.06" transform="translate(-76.539 -28.617)" fill="#1e535a"/>
        <path id="Trazado_1271701" data-name="Trazado 1271701" d="M443.078,237.947H411.006v3.982h32.072" transform="translate(-92.78 -53.715)" fill="#ffa727"/>
        <rect id="Rectángulo_459928" data-name="Rectángulo 459928" width="18.509" height="3.982" transform="translate(297.579 184.232)" fill="#1e535a"/>
        <rect id="Rectángulo_459929" data-name="Rectángulo 459929" width="18.339" height="3.982" transform="translate(331.959 174.439)" fill="#1e535a"/>
        <path id="Trazado_1271702" data-name="Trazado 1271702" d="M331.078,218.8v32.774a1.867,1.867,0,0,0,1.83,1.889h33.021a1.869,1.869,0,0,0,1.837-1.889V218.8a1.869,1.869,0,0,0-1.837-1.889H332.908a1.867,1.867,0,0,0-1.83,1.889" transform="translate(-74.737 -48.967)" fill="#ffb851"/>
        <path id="Trazado_1271703" data-name="Trazado 1271703" d="M384.34,229.281h32.078V225.3H384.34" transform="translate(-86.761 -50.86)" fill="#ffa727"/>
        <path id="Trazado_1271704" data-name="Trazado 1271704" d="M332.965,248.491V221.8a1.485,1.485,0,0,1,1.459-1.506h29.1a1.485,1.485,0,0,1,1.46,1.506v26.69a1.485,1.485,0,0,1-1.46,1.506h-29.1a1.485,1.485,0,0,1-1.459-1.506m1.459-27.422a.722.722,0,0,0-.709.732v26.69a.722.722,0,0,0,.709.732h29.1a.722.722,0,0,0,.709-.732V221.8a.722.722,0,0,0-.709-.732Z" transform="translate(-75.163 -49.73)" fill="#f2e9da"/>
        <path id="Trazado_1271705" data-name="Trazado 1271705" d="M360.311,245.2a.7.7,0,0,0,.5-.224l6.978-7.1a1.209,1.209,0,0,0,0-1.6L360.9,229.27a.694.694,0,0,0-1.129.161,1.22,1.22,0,0,0,.126,1.437l6.1,6.208-6.193,6.3a1.22,1.22,0,0,0-.126,1.437.75.75,0,0,0,.629.385" transform="translate(-81.155 -51.706)" fill="#f2e9da"/>
        <path id="Trazado_1271706" data-name="Trazado 1271706" d="M344.474,245.2a.75.75,0,0,0,.628-.385,1.22,1.22,0,0,0-.126-1.437l-6.193-6.3,6.1-6.208a1.221,1.221,0,0,0,.127-1.437.694.694,0,0,0-1.129-.161l-6.889,7.007a1.209,1.209,0,0,0,0,1.6l6.978,7.1a.7.7,0,0,0,.5.224" transform="translate(-76.005 -51.706)" fill="#f2e9da"/>
        <path id="Trazado_1271707" data-name="Trazado 1271707" d="M354.206,246.524a.634.634,0,0,0,.345-.036,1.094,1.094,0,0,0,.531-1.278l-4.318-17.877c-.13-.54-.58-.844-1-.677a1.1,1.1,0,0,0-.532,1.279l4.319,17.877a.889.889,0,0,0,.66.713" transform="translate(-78.826 -51.155)" fill="#f2e9da"/>
        <rect id="Rectángulo_459930" data-name="Rectángulo 459930" width="41.973" height="12.627" transform="translate(307.871 95.792)" fill="#ffbd29"/>
        <rect id="Rectángulo_459931" data-name="Rectángulo 459931" width="41.973" height="12.627" transform="translate(307.871 112.348)" fill="#ffbd29"/>
        <rect id="Rectángulo_459932" data-name="Rectángulo 459932" width="41.973" height="12.627" transform="translate(307.871 128.706)" fill="#ffbd29"/>
        <path id="Trazado_1271708" data-name="Trazado 1271708" d="M403.452,140.909h32.96v2.55h-32.96Zm32.211.774H404.2v1h31.461Z" transform="translate(-91.075 -31.81)" fill="#25292b"/>
        <path id="Trazado_1271709" data-name="Trazado 1271709" d="M403.452,162.354h32.96v2.55h-32.96Zm32.211.774H404.2v1h31.461Z" transform="translate(-91.075 -36.65)" fill="#25292b"/>
        <path id="Trazado_1271710" data-name="Trazado 1271710" d="M440.322,131.078a3.27,3.27,0,1,1,3.268,3.373,3.326,3.326,0,0,1-3.268-3.373m.75,0a2.519,2.519,0,1,0,2.518-2.6,2.563,2.563,0,0,0-2.518,2.6" transform="translate(-99.398 -28.829)" fill="#25292b"/>
        <path id="Trazado_1271711" data-name="Trazado 1271711" d="M440.322,151.647a3.27,3.27,0,1,1,3.268,3.373,3.326,3.326,0,0,1-3.268-3.373m.75,0a2.519,2.519,0,1,0,2.518-2.6,2.563,2.563,0,0,0-2.518,2.6" transform="translate(-99.398 -33.472)" fill="#25292b"/>
        <path id="Trazado_1271712" data-name="Trazado 1271712" d="M440.322,173.87a3.27,3.27,0,1,1,3.268,3.373,3.326,3.326,0,0,1-3.268-3.373m.75,0a2.519,2.519,0,1,0,2.518-2.6,2.563,2.563,0,0,0-2.518,2.6" transform="translate(-99.398 -38.489)" fill="#25292b"/>
        <path id="Trazado_1271713" data-name="Trazado 1271713" d="M419.621,131.631a1.434,1.434,0,1,0,1.433-1.48,1.457,1.457,0,0,0-1.433,1.48" transform="translate(-94.725 -29.381)" fill="#f2e9da"/>
        <path id="Trazado_1271714" data-name="Trazado 1271714" d="M401.434,131.631a1.434,1.434,0,1,0,1.433-1.48,1.457,1.457,0,0,0-1.433,1.48" transform="translate(-90.62 -29.381)" fill="#f2e9da"/>
        <path id="Trazado_1271715" data-name="Trazado 1271715" d="M410.24,131.631a1.434,1.434,0,1,0,1.433-1.48,1.457,1.457,0,0,0-1.433,1.48" transform="translate(-92.607 -29.381)" fill="#f2e9da"/>
        <path id="Trazado_1271716" data-name="Trazado 1271716" d="M419.621,152.828a1.434,1.434,0,1,0,1.433-1.48,1.457,1.457,0,0,0-1.433,1.48" transform="translate(-94.725 -34.166)" fill="#f2e9da"/>
        <path id="Trazado_1271717" data-name="Trazado 1271717" d="M401.434,152.828a1.434,1.434,0,1,0,1.433-1.48,1.457,1.457,0,0,0-1.433,1.48" transform="translate(-90.62 -34.166)" fill="#f2e9da"/>
        <path id="Trazado_1271718" data-name="Trazado 1271718" d="M410.24,152.828a1.434,1.434,0,1,0,1.433-1.48,1.457,1.457,0,0,0-1.433,1.48" transform="translate(-92.607 -34.166)" fill="#f2e9da"/>
        <path id="Trazado_1271719" data-name="Trazado 1271719" d="M419.621,174.423a1.434,1.434,0,1,0,1.433-1.48,1.457,1.457,0,0,0-1.433,1.48" transform="translate(-94.725 -39.041)" fill="#f2e9da"/>
        <path id="Trazado_1271720" data-name="Trazado 1271720" d="M401.434,174.423a1.434,1.434,0,1,0,1.433-1.48,1.457,1.457,0,0,0-1.433,1.48" transform="translate(-90.62 -39.041)" fill="#f2e9da"/>
        <path id="Trazado_1271721" data-name="Trazado 1271721" d="M410.24,174.423a1.434,1.434,0,1,0,1.433-1.48,1.457,1.457,0,0,0-1.433,1.48" transform="translate(-92.607 -39.041)" fill="#f2e9da"/>
      </g>
    </g>
  </g>
</svg>
