<svg id="Grupo_1210219" data-name="Grupo 1210219" xmlns="http://www.w3.org/2000/svg" xmlns:xlink="http://www.w3.org/1999/xlink" width="291.76" height="334.522" viewBox="0 0 291.76 334.522">
  <defs>
    <clipPath id="clip-path">
      <rect id="Rectángulo_460152" data-name="Rectángulo 460152" width="291.76" height="334.522" fill="none"/>
    </clipPath>
  </defs>
  <g id="Grupo_1210218" data-name="Grupo 1210218" clip-path="url(#clip-path)">
    <path id="Trazado_1272016" data-name="Trazado 1272016" d="M285.845,114.174q-1.343-6.669-2.935-13.218c-6.882-28.376-18.246-58.109-42.1-73.279-16.307-10.37-36.02-12.337-54.862-15.391C135.632,4.129,71.561-16.5,29.359,25.6-3.415,58.288-4.539,112.556,5.726,155.649,17.195,203.8,36.265,250.392,65.167,289.666c11.009,14.959,23.815,29.129,40.108,37.177,29.557,14.6,64.927,6.418,94.489-8.173,26.7-13.179,51.621-31.864,68.145-57.525,27.1-42.091,28.04-96.8,17.936-146.971" transform="translate(0 0)" fill="#ffe79e"/>
    <path id="Trazado_1272017" data-name="Trazado 1272017" d="M218.08,107.747H75.667a12.422,12.422,0,0,0-12.624,12.209V379.218a12.422,12.422,0,0,0,12.624,12.209H218.08A12.422,12.422,0,0,0,230.7,379.218V119.956a12.422,12.422,0,0,0-12.624-12.209" transform="translate(-32.284 -56.905)" fill="#6b6b82"/>
    <path id="Trazado_1272018" data-name="Trazado 1272018" d="M227.334,146.06H75.437a3.526,3.526,0,0,0-3.584,3.466v220.2a3.526,3.526,0,0,0,3.584,3.465h151.9a3.526,3.526,0,0,0,3.584-3.465v-220.2a3.526,3.526,0,0,0-3.584-3.466" transform="translate(-36.795 -77.139)" fill="#fff"/>
    <path id="Trazado_1272019" data-name="Trazado 1272019" d="M110.739,394.921H35.982a2.574,2.574,0,0,1-2.52-1.927L22.6,348.714a2.526,2.526,0,0,1,2.52-3.082H99.879a2.574,2.574,0,0,1,2.52,1.927l10.859,44.281a2.526,2.526,0,0,1-2.52,3.082" transform="translate(-11.539 -182.539)" fill="#6b6b82"/>
    <path id="Trazado_1272020" data-name="Trazado 1272020" d="M116.933,384.9H42.176a2.574,2.574,0,0,1-2.52-1.927L28.8,338.691a2.526,2.526,0,0,1,2.52-3.082h74.756a2.574,2.574,0,0,1,2.52,1.927l4.619,18.834,6.24,25.447a2.526,2.526,0,0,1-2.52,3.082" transform="translate(-14.711 -177.246)" fill="#b6b6ce"/>
    <path id="Trazado_1272021" data-name="Trazado 1272021" d="M114.363,355.264H54.681a.472.472,0,1,1,0-.944h59.682a.472.472,0,1,1,0,.944" transform="translate(-27.752 -187.128)" fill="#fff"/>
    <path id="Trazado_1272022" data-name="Trazado 1272022" d="M119.783,376.942H60.1a.472.472,0,1,1,0-.944h59.682a.472.472,0,1,1,0,.944" transform="translate(-30.527 -198.577)" fill="#fff"/>
    <path id="Trazado_1272023" data-name="Trazado 1272023" d="M125.2,398.62H65.52a.472.472,0,1,1,0-.944H125.2a.472.472,0,1,1,0,.944" transform="translate(-33.302 -210.026)" fill="#fff"/>
    <path id="Trazado_1272024" data-name="Trazado 1272024" d="M130.622,420.3H70.94a.472.472,0,1,1,0-.944h59.682a.472.472,0,1,1,0,.944" transform="translate(-36.078 -221.474)" fill="#fff"/>
    <path id="Trazado_1272025" data-name="Trazado 1272025" d="M261.428,386.033a.242.242,0,0,1-.237-.182L255,360.586H205.131a.236.236,0,1,1,0-.472h50.057a.242.242,0,0,1,.237.182l6.24,25.447a.235.235,0,0,1-.181.284.23.23,0,0,1-.056.007" transform="translate(-104.921 -190.188)" fill="#3b3638"/>
    <path id="Trazado_1272026" data-name="Trazado 1272026" d="M314.368,427.391a6.678,6.678,0,1,1,6.9-6.674,6.8,6.8,0,0,1-6.9,6.674m0-12.877a6.206,6.206,0,1,0,6.414,6.2,6.319,6.319,0,0,0-6.414-6.2" transform="translate(-157.452 -218.669)" fill="#3b3638"/>
    <path id="Trazado_1272027" data-name="Trazado 1272027" d="M316.854,429.061l-4.186-4.495L314,423.407l2.392,2.568,2.3-4.675,1.617.746Z" transform="translate(-160.115 -222.502)" fill="#76a38e"/>
    <path id="Trazado_1272028" data-name="Trazado 1272028" d="M259.2,539.022h74.757a2.574,2.574,0,0,0,2.52-1.927l10.859-44.281a2.526,2.526,0,0,0-2.52-3.082H270.055a2.574,2.574,0,0,0-2.52,1.927l-10.859,44.28a2.526,2.526,0,0,0,2.52,3.082" transform="translate(-131.406 -258.644)" fill="#6b6b82"/>
    <path id="Trazado_1272029" data-name="Trazado 1272029" d="M253,529H327.76a2.574,2.574,0,0,0,2.52-1.927l10.859-44.28a2.526,2.526,0,0,0-2.52-3.082H263.862a2.574,2.574,0,0,0-2.52,1.927l-4.619,18.834-6.24,25.447A2.526,2.526,0,0,0,253,529" transform="translate(-128.235 -253.35)" fill="#b6b6ce"/>
    <path id="Trazado_1272030" data-name="Trazado 1272030" d="M346.888,499.366H287.206a.472.472,0,1,1,0-.944h59.682a.472.472,0,1,1,0,.944" transform="translate(-146.827 -263.233)" fill="#fff"/>
    <path id="Trazado_1272031" data-name="Trazado 1272031" d="M341.468,521.044H281.786a.472.472,0,1,1,0-.944h59.682a.472.472,0,1,1,0,.944" transform="translate(-144.051 -274.682)" fill="#fff"/>
    <path id="Trazado_1272032" data-name="Trazado 1272032" d="M336.049,542.721H276.367a.472.472,0,1,1,0-.944h59.682a.472.472,0,1,1,0,.944" transform="translate(-141.276 -286.13)" fill="#fff"/>
    <path id="Trazado_1272033" data-name="Trazado 1272033" d="M330.63,564.4H270.948a.472.472,0,1,1,0-.944H330.63a.472.472,0,1,1,0,.944" transform="translate(-138.501 -297.578)" fill="#fff"/>
    <path id="Trazado_1272034" data-name="Trazado 1272034" d="M144.2,530.135a.226.226,0,0,1-.056-.007.235.235,0,0,1-.181-.284l6.24-25.447a.242.242,0,0,1,.237-.182H200.5a.236.236,0,1,1,0,.472H150.638l-6.2,25.265a.242.242,0,0,1-.237.182" transform="translate(-73.721 -266.293)" fill="#3b3638"/>
    <path id="Trazado_1272035" data-name="Trazado 1272035" d="M136.377,571.493a6.678,6.678,0,1,1,6.9-6.675,6.8,6.8,0,0,1-6.9,6.675m0-12.877a6.206,6.206,0,1,0,6.414,6.2,6.318,6.318,0,0,0-6.414-6.2" transform="translate(-66.303 -294.774)" fill="#3b3638"/>
    <path id="Trazado_1272036" data-name="Trazado 1272036" d="M139.145,572.554l-4.186-4.495,1.331-1.159,2.392,2.567,2.3-4.674,1.617.746Z" transform="translate(-69.111 -298.286)" fill="#76a38e"/>
    <path id="Trazado_1272037" data-name="Trazado 1272037" d="M259.2,250.819h74.757a2.574,2.574,0,0,0,2.52-1.927l10.859-44.281a2.526,2.526,0,0,0-2.52-3.082H270.055a2.574,2.574,0,0,0-2.52,1.927l-10.859,44.281a2.526,2.526,0,0,0,2.52,3.082" transform="translate(-131.406 -106.435)" fill="#6b6b82"/>
    <path id="Trazado_1272038" data-name="Trazado 1272038" d="M253,240.8H327.76a2.574,2.574,0,0,0,2.52-1.927l10.859-44.281a2.526,2.526,0,0,0-2.52-3.082H263.862a2.574,2.574,0,0,0-2.52,1.927l-4.619,18.834-6.24,25.447A2.526,2.526,0,0,0,253,240.8" transform="translate(-128.235 -101.141)" fill="#b6b6ce"/>
    <path id="Trazado_1272039" data-name="Trazado 1272039" d="M346.888,211.163H287.206a.472.472,0,1,1,0-.944h59.682a.472.472,0,1,1,0,.944" transform="translate(-146.827 -111.023)" fill="#fff"/>
    <path id="Trazado_1272040" data-name="Trazado 1272040" d="M341.468,232.841H281.786a.472.472,0,1,1,0-.944h59.682a.472.472,0,1,1,0,.944" transform="translate(-144.051 -122.472)" fill="#fff"/>
    <path id="Trazado_1272041" data-name="Trazado 1272041" d="M336.049,254.518H276.367a.472.472,0,1,1,0-.944h59.682a.472.472,0,1,1,0,.944" transform="translate(-141.276 -133.921)" fill="#fff"/>
    <path id="Trazado_1272042" data-name="Trazado 1272042" d="M330.63,276.195H270.948a.472.472,0,1,1,0-.944H330.63a.472.472,0,1,1,0,.944" transform="translate(-138.501 -145.369)" fill="#fff"/>
    <path id="Trazado_1272043" data-name="Trazado 1272043" d="M144.2,241.932a.255.255,0,0,1-.056-.006.235.235,0,0,1-.181-.284l6.24-25.447a.242.242,0,0,1,.237-.181H200.5a.236.236,0,1,1,0,.472H150.638l-6.2,25.265a.242.242,0,0,1-.237.181" transform="translate(-73.721 -114.084)" fill="#3b3638"/>
    <path id="Trazado_1272044" data-name="Trazado 1272044" d="M136.377,283.289a6.678,6.678,0,1,1,6.9-6.674,6.8,6.8,0,0,1-6.9,6.674m0-12.877a6.206,6.206,0,1,0,6.414,6.2,6.319,6.319,0,0,0-6.414-6.2" transform="translate(-66.303 -142.564)" fill="#3b3638"/>
    <path id="Trazado_1272045" data-name="Trazado 1272045" d="M143.833,278.091l-1.267-1.225-2.259,2.185-2.259-2.185-1.266,1.225,2.259,2.184-2.259,2.185,1.266,1.225,2.259-2.185,2.259,2.185,1.267-1.225-2.258-2.185Z" transform="translate(-70.046 -146.222)" fill="#ffbd63"/>
    <path id="Trazado_1272046" data-name="Trazado 1272046" d="M557.384,697.155c.125-1.259.154-7.792-1.681-10.523H546.13c-3.328,4.762-21.208,8.238-17.594,10.523Z" transform="translate(-270.414 -362.633)" fill="#3b3638"/>
    <path id="Trazado_1272047" data-name="Trazado 1272047" d="M503.384,697.155c.124-1.259.154-7.792-1.681-10.523H492.13c-3.328,4.762-21.208,8.238-17.594,10.523Z" transform="translate(-242.762 -362.633)" fill="#3b3638"/>
    <path id="Trazado_1272048" data-name="Trazado 1272048" d="M528.1,503.8s7.366,1.218,12.654,0c0,0,0-62.043-3.274-75.438s8.31-36.045,0-89.137l-40.544,1.7s-1.007,78.117-1.511,84.114S501.4,503.62,501.4,503.62s8.3.815,12.958.092l4.495-54.511Z" transform="translate(-253.688 -179.157)" fill="#6b6b82"/>
    <path id="Trazado_1272049" data-name="Trazado 1272049" d="M289.24,226.532a38.074,38.074,0,0,1-4.809-.306c-20.05-2.551-34.214-20.4-31.577-39.792S273.949,153.346,294,155.9s34.214,20.4,31.577,39.792c-2.425,17.827-18.223,30.845-36.335,30.845m-.047-65.279c-15.221,0-28.5,10.939-30.534,25.92-2.217,16.3,9.687,31.3,26.535,33.439s32.359-9.369,34.576-25.663-9.688-31.3-26.536-33.439a32.03,32.03,0,0,0-4.042-.257" transform="translate(-129.323 -82.172)" fill="#69d7e5"/>
    <path id="Trazado_1272075" data-name="Trazado 1272075" d="M0,0,5.719.087l.8,52.884L.8,52.884Z" transform="translate(186.023 129.908) rotate(-57.337)" fill="#69d7e5"/>
    <path id="Trazado_1272050" data-name="Trazado 1272050" d="M428.2,236.963s-4.659-4.384-6.044-4.932-5.037-2.679-6.107-2.74-.7,2.147,2.518,3.653a2.909,2.909,0,0,1,1.731,3.565l-1.467,5.982a42.873,42.873,0,0,0,7.562,1.569s2.051-3.809,1.806-7.1" transform="translate(-212.779 -121.096)" fill="#f59976"/>
    <path id="Trazado_1272051" data-name="Trazado 1272051" d="M437.977,289.631l-8.02-.723a3.012,3.012,0,0,0-1.483.241c-2.387,1.049-9.825,4.507-8.689,6.4,0,0,.186.449,1.13.449,0,0,.189,1.218,1.889,1.34a2.969,2.969,0,0,0,2.55,1.278,2.626,2.626,0,0,0,2.266.883c1.605-.061,7.4-2.1,7.4-2.1s2.613,1.644,4.25,1.035c2.277-.847-1.291-8.8-1.291-8.8" transform="translate(-214.91 -152.575)" fill="#f59976"/>
    <path id="Trazado_1272052" data-name="Trazado 1272052" d="M495.394,265.92s24.369,4.749,45.313,0c0,0,1.194-38.732,3.892-52.793s-1.011-22.832-11.433-23.012l-17.824-.05s-9.218-2.158-13.373,1.048-6.576,74.807-6.576,74.807" transform="translate(-253.688 -100.004)" fill="#b6b6ce"/>
    <path id="Trazado_1272053" data-name="Trazado 1272053" d="M549.789,156.561s1.03,10.882,4.315,16.235c0,0-10.063,6.315-17.824-.05a11.206,11.206,0,0,0,.862-7.9Z" transform="translate(-274.626 -82.685)" fill="#f59976"/>
    <path id="Trazado_1272054" data-name="Trazado 1272054" d="M512.661,126.428c-.314,9.442,2.57,16.444,9.072,17.12,7.845.815,16.652-6.869,16.966-16.31s-5.087-18.807-12.278-19.031-13.446,8.78-13.76,18.221" transform="translate(-262.519 -57.145)" fill="#f59976"/>
    <path id="Trazado_1272055" data-name="Trazado 1272055" d="M523.594,104.833s-1.442,13.93,15.968,19.367c0,0,14-21.446-7.816-26.675-14.082-3.375-16.737,16.624-16.737,16.624s3.262-6.79,8.585-9.317" transform="translate(-263.733 -51.304)" fill="#97614c"/>
    <path id="Trazado_1272056" data-name="Trazado 1272056" d="M556.5,136.865s10.969,1.941,17.98-6.509c0,0-4.432-20.968-16.145-27.5s3.294,27.566-1.835,34.007" transform="translate(-283.567 -53.886)" fill="#97614c"/>
    <path id="Trazado_1272057" data-name="Trazado 1272057" d="M556.747,148.821c-.723,2.18.022,4.36,1.665,4.869s3.56-.844,4.283-3.024-.022-4.36-1.665-4.869-3.56.844-4.283,3.024" transform="translate(-284.965 -76.943)" fill="#f59976"/>
    <path id="Trazado_1272058" data-name="Trazado 1272058" d="M542.872,141.643c-.14.656-1.462.946-2.954.648s-2.587-1.07-2.447-1.726,1.462-.946,2.954-.649,2.587,1.07,2.447,1.726" transform="translate(-275.23 -73.833)" fill="#97614c"/>
    <path id="Trazado_1272059" data-name="Trazado 1272059" d="M539.579,149.489c-.175.82-.756,1.4-1.3,1.288s-.841-.86-.666-1.68.756-1.4,1.3-1.288.84.86.665,1.68" transform="translate(-275.284 -78.056)" fill="#3b3638"/>
    <path id="Trazado_1272060" data-name="Trazado 1272060" d="M537.275,148.6c1.005-.987,1.543-1.428,2.751-.374.313.258.618.553.933.846a.11.11,0,0,0,.181-.11c-.4-1.264-2.128-2.976-3.367-1.642-.214.231-1.065,1.524-.5,1.28" transform="translate(-275.037 -77.548)" fill="#3b3638"/>
    <path id="Trazado_1272061" data-name="Trazado 1272061" d="M520.651,137.08c-.14.655-1.462.946-2.954.648s-2.587-1.07-2.448-1.726,1.463-.946,2.954-.649,2.587,1.07,2.447,1.726" transform="translate(-263.85 -71.423)" fill="#97614c"/>
    <path id="Trazado_1272062" data-name="Trazado 1272062" d="M517.358,144.926c-.175.82-.756,1.4-1.3,1.288s-.84-.86-.666-1.68.756-1.4,1.3-1.288.84.86.665,1.68" transform="translate(-263.904 -75.646)" fill="#3b3638"/>
    <path id="Trazado_1272063" data-name="Trazado 1272063" d="M515.055,144.04c1.005-.987,1.543-1.428,2.751-.374.313.258.618.553.933.846a.11.11,0,0,0,.181-.11c-.4-1.264-2.118-2.967-3.367-1.642-.2.215-1.065,1.524-.5,1.28" transform="translate(-263.659 -75.142)" fill="#3b3638"/>
    <path id="Trazado_1272064" data-name="Trazado 1272064" d="M527.068,165.8a3.8,3.8,0,0,1-4.177-.076,4.392,4.392,0,0,0-.7-.326.16.16,0,0,0-.2.091,2.853,2.853,0,0,0,4.863,1.166,2.3,2.3,0,0,0,.439-.677.146.146,0,0,0-.084-.191.164.164,0,0,0-.141.013" transform="translate(-267.309 -87.348)" fill="#db6f42"/>
    <path id="Trazado_1272065" data-name="Trazado 1272065" d="M526.62,144.632l-2.3,6.388c-.592,1.252,2.739,1.8,3.208.53.09-.243-.642-6.68-.617-6.9-.01-.139-.244-.154-.287-.018" transform="translate(-268.463 -76.335)" fill="#db6f42"/>
    <path id="Trazado_1272066" data-name="Trazado 1272066" d="M545.612,176.114a.245.245,0,0,1-.226-.146.235.235,0,0,1,.133-.308c.037-.014,3.7-1.49,4.732-3.444a.248.248,0,0,1,.328-.1.231.231,0,0,1,.106.317c-1.11,2.111-4.823,3.6-4.981,3.667a.257.257,0,0,1-.093.017" transform="translate(-279.28 -90.885)" fill="#db6f42"/>
    <path id="Trazado_1272067" data-name="Trazado 1272067" d="M517.424,240.338s-19.2,27.809-24.511,31.019c-5.026,3.038-38.148-2.194-38.148-2.194s-4.225-6.782-.429-11.745l26.963-.1s13.977-22.659,15.386-27.287Z" transform="translate(-231.852 -121.485)" fill="#b6b6ce"/>
    <path id="Trazado_1272068" data-name="Trazado 1272068" d="M524.29,472.2a.242.242,0,0,1-.238-.188c-.032-.147-3.162-14.825-3.97-22.25-1.261-11.584-5.6-40.7-6.9-49.354a10.306,10.306,0,0,0-2.475-5.286l-2.275-2.583a.231.231,0,0,1,.028-.333.25.25,0,0,1,.344.026l2.275,2.583a10.767,10.767,0,0,1,2.586,5.524c1.3,8.652,5.643,37.78,6.905,49.372.807,7.4,3.931,22.057,3.962,22.2a.236.236,0,0,1-.189.279.23.23,0,0,1-.05.005" transform="translate(-260.333 -207.106)" fill="#3b3638"/>
    <path id="Trazado_1272069" data-name="Trazado 1272069" d="M469.793,193.08l-16.986,28.632-15.856-5.346s-4.9,6.8-4.346,10.728c0,0,23.967,15.672,33.6,14.533s3.589-48.547,3.589-48.547" transform="translate(-221.512 -101.972)" fill="#b6b6ce"/>
    <path id="Trazado_1272070" data-name="Trazado 1272070" d="M509.872,287.064c-2.913,0-5.211-.092-5.441-.1a.239.239,0,0,1-.234-.246.243.243,0,0,1,.255-.226c.141.007,14.1.567,17.593-1.092,2.028-.963,8-9.67,12.8-16.667,3.641-5.308,6.786-9.893,7.873-10.689a.249.249,0,0,1,.342.046.23.23,0,0,1-.047.33c-1.021.748-4.295,5.521-7.761,10.574-5.083,7.411-10.845,15.81-12.991,16.83-2.17,1.031-7.982,1.242-12.389,1.242" transform="translate(-258.196 -136.255)" fill="#3b3638"/>
    <path id="Trazado_1272071" data-name="Trazado 1272071" d="M479.195,255.852a.24.24,0,0,1-.242-.21.238.238,0,0,1,.216-.26l18.517-1.936c5.272-8.092,15.135-23.8,15.135-25.953a.244.244,0,0,1,.488,0c0,2.842-14.649,25.344-15.273,26.3a.242.242,0,0,1-.18.109l-18.635,1.948h-.027" transform="translate(-245.268 -120.022)" fill="#3b3638"/>
    <path id="Trazado_1272072" data-name="Trazado 1272072" d="M559.711,208.96a.247.247,0,0,1-.149-.05.231.231,0,0,1-.044-.331c.315-.394,7.768-9.635,12.644-7.789a.235.235,0,0,1,.138.306.248.248,0,0,1-.317.134c-4.535-1.723-12,7.543-12.079,7.638a.247.247,0,0,1-.193.092" transform="translate(-286.5 -105.916)" fill="#3b3638"/>
    <path id="Trazado_1272073" data-name="Trazado 1272073" d="M495.072,246.98a.241.241,0,0,1-.244-.229,121.464,121.464,0,0,1,2.427-29.194.243.243,0,0,1,.293-.176.235.235,0,0,1,.182.284,121.1,121.1,0,0,0-2.414,29.072.24.24,0,0,1-.237.243Z" transform="translate(-253.366 -114.803)" fill="#3b3638"/>
    <path id="Trazado_1272074" data-name="Trazado 1272074" d="M477.69,255.954a.247.247,0,0,1-.136-.04l-2.172-1.407a.231.231,0,0,1-.067-.327.249.249,0,0,1,.338-.064l2.172,1.407a.23.23,0,0,1,.067.327.245.245,0,0,1-.2.1" transform="translate(-243.385 -134.185)" fill="#3b3638"/>
  </g>
</svg>
