<svg xmlns="http://www.w3.org/2000/svg" xmlns:xlink="http://www.w3.org/1999/xlink" width="500" height="277.827" viewBox="0 0 500 277.827">
  <defs>
    <clipPath id="clip-path">
      <rect id="Rectángulo_459985" data-name="Rectángulo 459985" width="500" height="277.827" transform="translate(-40.5)" fill="none"/>
    </clipPath>
  </defs>
  <g id="Grupo_1208931" data-name="Grupo 1208931" transform="translate(40.5)">
    <g id="Grupo_1208930" data-name="Grupo 1208930" clip-path="url(#clip-path)">
      <path id="Trazado_1271793" data-name="Trazado 1271793" d="M31.227,209.037c-3.124-7.727-5.093-16.447-6.711-24.391C16.777,146.645,4.1,108.3,6.335,68.779,9.748,8.385,56.116,1.564,100.354,4.375,186.41,9.843,272.687-2.79,358.832.581,393.464,1.936,428.554,6.024,460.7,20.256c14.872,6.584,29.588,15.931,37.958,30.965,14.462,25.977,5.635,60.086-8.18,86.487C451.3,212.587,376.237,259.58,298.629,273.1s-157.46-3.313-231.208-33.125c-10.7-4.324-21.725-9.236-29.27-18.625a48.782,48.782,0,0,1-6.924-12.312" transform="translate(465.575 277.827) rotate(180)" fill="#fff7df"/>
      <path id="Trazado_1271794" data-name="Trazado 1271794" d="M370.41,210.721H111.319a13.583,13.583,0,0,1-13.583-13.583V49.325a13.582,13.582,0,0,1,13.583-13.582H370.41a13.582,13.582,0,0,1,13.582,13.582V197.138a13.582,13.582,0,0,1-13.582,13.583" transform="translate(-57.138 -20.896)" fill="#fff"/>
      <path id="Trazado_1271795" data-name="Trazado 1271795" d="M370.118,210.636H111.026a13.806,13.806,0,0,1-13.79-13.79V49.033a13.806,13.806,0,0,1,13.79-13.79H370.118a13.806,13.806,0,0,1,13.79,13.79V196.846a13.806,13.806,0,0,1-13.79,13.79M111.026,35.658A13.39,13.39,0,0,0,97.651,49.033V196.846a13.39,13.39,0,0,0,13.375,13.375H370.118a13.39,13.39,0,0,0,13.375-13.375V49.033a13.39,13.39,0,0,0-13.375-13.375Z" transform="translate(-56.846 -20.604)" fill="#3b3638"/>
      <path id="Trazado_1271796" data-name="Trazado 1271796" d="M534.251,97.58c-.042.194-.091.393-.145.587L481.925,283.13a10.634,10.634,0,0,1-10.231,7.741H173.421a10.627,10.627,0,0,1-10.227-13.515L213.915,97.58l1.46-5.182A10.632,10.632,0,0,1,225.6,84.653H523.879A10.623,10.623,0,0,1,534.251,97.58" transform="translate(-95.168 -49.489)" fill="#cfe8ff"/>
      <path id="Trazado_1271797" data-name="Trazado 1271797" d="M234.806,183.277H531.389l-14.3,50.191L487.562,337.089H190.975Z" transform="translate(-111.647 -107.147)" fill="#fff"/>
      <path id="Trazado_1271798" data-name="Trazado 1271798" d="M439.387,338.558H314.1a7.151,7.151,0,0,1-6.87-9.136l36.905-127.73a7.151,7.151,0,0,1,6.87-5.166H476.289a7.151,7.151,0,0,1,6.87,9.136l-36.9,127.73a7.151,7.151,0,0,1-6.87,5.166" transform="translate(-179.442 -114.892)" fill="#f2f0f7"/>
      <path id="Trazado_1271799" data-name="Trazado 1271799" d="M904.69,337a.212.212,0,0,1-.057-.008.208.208,0,0,1-.142-.257l43.827-153.811a.205.205,0,0,1,.256-.143.208.208,0,0,1,.143.257L904.89,336.852a.208.208,0,0,1-.2.151" transform="translate(-528.775 -106.854)" fill="#3b3638"/>
      <path id="Trazado_1271800" data-name="Trazado 1271800" d="M885.24,337a.214.214,0,0,1-.057-.008.208.208,0,0,1-.142-.257l43.827-153.811a.208.208,0,1,1,.4.114L885.439,336.852a.208.208,0,0,1-.2.151" transform="translate(-517.404 -106.854)" fill="#3b3638"/>
      <path id="Trazado_1271801" data-name="Trazado 1271801" d="M319.243,147.643l-2.413,8.463a1.2,1.2,0,0,1-1.153.87H303.72a2.3,2.3,0,0,1-2.212-2.932l1.784-6.257a2.3,2.3,0,0,1,2.211-1.67H318.09a1.2,1.2,0,0,1,1.153,1.527" transform="translate(-176.214 -85.422)" fill="#fff"/>
      <path id="Trazado_1271802" data-name="Trazado 1271802" d="M623.059,149.048l-1.781,6.258a2.3,2.3,0,0,1-2.216,1.67H343.236a1.549,1.549,0,0,1-1.49-1.974l2.061-7.228a2.285,2.285,0,0,1,2.2-1.659H620.847a2.3,2.3,0,0,1,2.212,2.933" transform="translate(-199.755 -85.421)" fill="#b6b6ce"/>
      <path id="Trazado_1271803" data-name="Trazado 1271803" d="M606.209,97.58H285.872l1.46-5.182a10.632,10.632,0,0,1,10.228-7.745H595.837A10.623,10.623,0,0,1,606.209,97.58" transform="translate(-167.125 -49.489)" fill="#6b6b82"/>
      <path id="Trazado_1271804" data-name="Trazado 1271804" d="M1020.163,97.046a2.251,2.251,0,1,1-2.251-2.251,2.251,2.251,0,0,1,2.251,2.251" transform="translate(-593.771 -55.419)" fill="#fff"/>
      <path id="Trazado_1271805" data-name="Trazado 1271805" d="M996.708,97.046a2.251,2.251,0,1,1-2.251-2.251,2.251,2.251,0,0,1,2.251,2.251" transform="translate(-580.059 -55.419)" fill="#fff"/>
      <path id="Trazado_1271806" data-name="Trazado 1271806" d="M973.254,97.046A2.251,2.251,0,1,1,971,94.8a2.251,2.251,0,0,1,2.251,2.251" transform="translate(-566.348 -55.419)" fill="#fff"/>
      <path id="Trazado_1271807" data-name="Trazado 1271807" d="M321.342,153.842a3.906,3.906,0,1,0-5.589.846l-1.577,2.256a.191.191,0,0,0,.312.218l1.577-2.256a3.907,3.907,0,0,0,5.277-1.064m-5.22.65a3.524,3.524,0,1,1,4.908-.869,3.528,3.528,0,0,1-4.908.869" transform="translate(-183.652 -86.348)" fill="#3b3638"/>
      <path id="Trazado_1271808" data-name="Trazado 1271808" d="M321.212,150.266a3.069,3.069,0,1,0,.757,4.273,3.072,3.072,0,0,0-.757-4.273m-3.3,4.718a2.687,2.687,0,1,1,3.742-.663,2.69,2.69,0,0,1-3.742.663" transform="translate(-184.965 -87.525)" fill="#3b3638"/>
      <path id="Trazado_1271809" data-name="Trazado 1271809" d="M988.508,191.157h4.364a.863.863,0,0,1,.827,1.105l-2.114,7.206a.862.862,0,0,1-.827.62h-4.3a.863.863,0,0,1-.83-1.1l2.051-7.206a.862.862,0,0,1,.829-.626" transform="translate(-576.194 -111.753)" fill="#b6b6ce"/>
      <path id="Trazado_1271810" data-name="Trazado 1271810" d="M299.4,335.567h-32.48a.831.831,0,1,1,0-1.662H299.4a.831.831,0,1,1,0,1.662" transform="translate(-155.562 -195.206)" fill="#b6b6ce"/>
      <path id="Trazado_1271811" data-name="Trazado 1271811" d="M295.146,349.889h-32.48a.831.831,0,1,1,0-1.662h32.48a.831.831,0,0,1,0,1.662" transform="translate(-153.073 -203.579)" fill="#b6b6ce"/>
      <path id="Trazado_1271812" data-name="Trazado 1271812" d="M290.887,364.212H258.407a.831.831,0,1,1,0-1.662h32.481a.831.831,0,0,1,0,1.662" transform="translate(-150.583 -211.952)" fill="#b6b6ce"/>
      <path id="Trazado_1271813" data-name="Trazado 1271813" d="M286.63,378.534H254.15a.831.831,0,1,1,0-1.662h32.48a.831.831,0,0,1,0,1.662" transform="translate(-148.094 -220.325)" fill="#b6b6ce"/>
      <path id="Trazado_1271814" data-name="Trazado 1271814" d="M336.371,203.043H303.891a.831.831,0,1,1,0-1.662h32.481a.831.831,0,1,1,0,1.662" transform="translate(-177.174 -117.731)" fill="#b6b6ce"/>
      <path id="Trazado_1271815" data-name="Trazado 1271815" d="M332.114,217.366h-32.48a.831.831,0,0,1,0-1.662h32.48a.831.831,0,0,1,0,1.662" transform="translate(-174.685 -126.104)" fill="#b6b6ce"/>
      <path id="Trazado_1271816" data-name="Trazado 1271816" d="M327.855,231.688H295.375a.831.831,0,1,1,0-1.662h32.481a.831.831,0,1,1,0,1.662" transform="translate(-172.195 -134.477)" fill="#b6b6ce"/>
      <path id="Trazado_1271817" data-name="Trazado 1271817" d="M323.6,246.011h-32.48a.831.831,0,1,1,0-1.662H323.6a.831.831,0,1,1,0,1.662" transform="translate(-169.706 -142.85)" fill="#b6b6ce"/>
      <path id="Trazado_1271818" data-name="Trazado 1271818" d="M530.123,245.089H408.406a.845.845,0,1,1,0-1.69H530.123a.845.845,0,1,1,0,1.69" transform="translate(-238.267 -142.295)" fill="#fff"/>
      <path id="Trazado_1271819" data-name="Trazado 1271819" d="M525.865,259.91H404.148a.845.845,0,1,1,0-1.69H525.865a.845.845,0,1,1,0,1.69" transform="translate(-235.777 -150.96)" fill="#fff"/>
      <path id="Trazado_1271820" data-name="Trazado 1271820" d="M521.606,274.733H399.889a.845.845,0,1,1,0-1.69H521.606a.845.845,0,1,1,0,1.69" transform="translate(-233.288 -159.625)" fill="#fff"/>
      <path id="Trazado_1271821" data-name="Trazado 1271821" d="M518.029,289.555h-122.4a.845.845,0,1,1,0-1.69h122.4a.845.845,0,1,1,0,1.69" transform="translate(-230.799 -168.29)" fill="#fff"/>
      <path id="Trazado_1271822" data-name="Trazado 1271822" d="M513.125,302.562H390.269a.845.845,0,1,1,0-1.69H513.125a.845.845,0,1,1,0,1.69" transform="translate(-227.663 -175.895)" fill="#fff"/>
      <path id="Trazado_1271823" data-name="Trazado 1271823" d="M508.625,317.385H386.011a.845.845,0,1,1,0-1.69H508.625a.845.845,0,1,1,0,1.69" transform="translate(-225.174 -184.56)" fill="#fff"/>
      <path id="Trazado_1271824" data-name="Trazado 1271824" d="M504.247,332.206H381.753a.845.845,0,1,1,0-1.69H504.247a.845.845,0,1,1,0,1.69" transform="translate(-222.685 -193.225)" fill="#fff"/>
      <path id="Trazado_1271825" data-name="Trazado 1271825" d="M500.31,347.029H377.5a.845.845,0,1,1,0-1.69H500.31a.845.845,0,1,1,0,1.69" transform="translate(-220.196 -201.891)" fill="#fff"/>
      <path id="Trazado_1271826" data-name="Trazado 1271826" d="M495.568,360.036H372.133a.845.845,0,0,1,0-1.69H495.568a.845.845,0,1,1,0,1.69" transform="translate(-217.061 -209.495)" fill="#fff"/>
      <path id="Trazado_1271827" data-name="Trazado 1271827" d="M490.826,374.858H367.874a.845.845,0,1,1,0-1.69H490.826a.845.845,0,1,1,0,1.69" transform="translate(-214.571 -218.16)" fill="#fff"/>
      <path id="Trazado_1271828" data-name="Trazado 1271828" d="M486.73,389.68H363.617a.845.845,0,0,1,0-1.69H486.73a.845.845,0,1,1,0,1.69" transform="translate(-212.082 -226.825)" fill="#fff"/>
      <path id="Trazado_1271829" data-name="Trazado 1271829" d="M482.844,404.5H359.358a.845.845,0,1,1,0-1.69H482.844a.845.845,0,1,1,0,1.69" transform="translate(-209.592 -235.49)" fill="#fff"/>
      <path id="Trazado_1271830" data-name="Trazado 1271830" d="M478.054,417.51H354a.845.845,0,1,1,0-1.69H478.054a.845.845,0,1,1,0,1.69" transform="translate(-206.458 -243.095)" fill="#fff"/>
      <path id="Trazado_1271831" data-name="Trazado 1271831" d="M476.666,432.332H354.949a.845.845,0,1,1,0-1.69H476.666a.845.845,0,0,1,0,1.69" transform="translate(-207.015 -251.76)" fill="#fff"/>
      <path id="Trazado_1271832" data-name="Trazado 1271832" d="M469.615,447.154H345.48a.845.845,0,0,1,0-1.69H469.615a.845.845,0,1,1,0,1.69" transform="translate(-201.479 -260.425)" fill="#fff"/>
      <path id="Trazado_1271833" data-name="Trazado 1271833" d="M465.758,461.976H341.221a.845.845,0,1,1,0-1.69H465.758a.845.845,0,1,1,0,1.69" transform="translate(-198.989 -269.091)" fill="#fff"/>
      <path id="Trazado_1271834" data-name="Trazado 1271834" d="M106.285,348.451H23.75a6.577,6.577,0,0,1-6.512-5.656L.715,225.712l-.649-4.591a6.572,6.572,0,0,1,6.508-7.491H89.113a6.579,6.579,0,0,1,6.512,5.656l.906,6.426L112.8,340.955a6.576,6.576,0,0,1-6.512,7.5" transform="translate(0 -124.892)" fill="#b6b6ce"/>
      <path id="Trazado_1271835" data-name="Trazado 1271835" d="M125.251,313.3H36.945a7.036,7.036,0,0,1-6.967-6.052L12.3,181.976l-.694-4.912a7.032,7.032,0,0,1,6.963-8.016h88.309a7.039,7.039,0,0,1,6.967,6.052l.969,6.875,17.4,123.3a7.036,7.036,0,0,1-6.967,8.019" transform="translate(-6.744 -98.829)" fill="#fff"/>
      <path id="Trazado_1271836" data-name="Trazado 1271836" d="M122.415,237.167H38.2a2.479,2.479,0,0,1-2.455-2.135l-1.029-7.344a2.479,2.479,0,0,1,2.455-2.823H121.45a2.48,2.48,0,0,1,2.458,2.156l.965,7.344a2.479,2.479,0,0,1-2.458,2.8" transform="translate(-20.283 -131.46)" fill="#b6b6ce"/>
      <path id="Trazado_1271837" data-name="Trazado 1271837" d="M128.982,285.259H44.941a2.479,2.479,0,0,1-2.455-2.135l-1.029-7.34a2.479,2.479,0,0,1,2.455-2.823h84.1a2.479,2.479,0,0,1,2.458,2.156l.965,7.34a2.479,2.479,0,0,1-2.458,2.8" transform="translate(-24.223 -159.577)" fill="#b6b6ce"/>
      <path id="Trazado_1271838" data-name="Trazado 1271838" d="M135.549,333.349H51.68a2.479,2.479,0,0,1-2.455-2.135L48.2,323.87a2.479,2.479,0,0,1,2.455-2.823h83.932a2.48,2.48,0,0,1,2.458,2.156l.965,7.344a2.479,2.479,0,0,1-2.458,2.8" transform="translate(-28.162 -187.689)" fill="#b6b6ce"/>
      <path id="Trazado_1271839" data-name="Trazado 1271839" d="M142.115,381.444h-83.7a2.479,2.479,0,0,1-2.455-2.135l-1.029-7.344a2.479,2.479,0,0,1,2.455-2.823h83.758a2.479,2.479,0,0,1,2.458,2.155l.967,7.344a2.479,2.479,0,0,1-2.458,2.8" transform="translate(-32.101 -215.806)" fill="#b6b6ce"/>
      <path id="Trazado_1271840" data-name="Trazado 1271840" d="M148.679,429.54H65.157A2.479,2.479,0,0,1,62.7,427.4l-1.029-7.344a2.479,2.479,0,0,1,2.455-2.823h83.585a2.48,2.48,0,0,1,2.458,2.156l.965,7.344a2.479,2.479,0,0,1-2.458,2.8" transform="translate(-36.041 -243.924)" fill="#b6b6ce"/>
      <path id="Trazado_1271841" data-name="Trazado 1271841" d="M155.245,477.626H71.895a2.48,2.48,0,0,1-2.455-2.135l-1.029-7.344a2.479,2.479,0,0,1,2.455-2.823H154.28a2.48,2.48,0,0,1,2.458,2.157l.965,7.344a2.479,2.479,0,0,1-2.458,2.8" transform="translate(-39.98 -272.036)" fill="#b6b6ce"/>
      <path id="Trazado_1271842" data-name="Trazado 1271842" d="M114.814,181.976H12.3l-.694-4.912a7.032,7.032,0,0,1,6.963-8.016h88.31a7.039,7.039,0,0,1,6.967,6.052Z" transform="translate(-6.744 -98.829)" fill="#6b6b82"/>
      <path id="Trazado_1271843" data-name="Trazado 1271843" d="M234.762,180.61a2.842,2.842,0,1,1-2.842-2.842,2.842,2.842,0,0,1,2.842,2.842" transform="translate(-133.923 -103.926)" fill="#fff"/>
      <path id="Trazado_1271844" data-name="Trazado 1271844" d="M50.249,229.455H42.59a2.58,2.58,0,0,0-2.555,2.938l.466,3.328a2.581,2.581,0,0,0,2.555,2.222h7.659a2.58,2.58,0,0,0,2.555-2.938l-.466-3.328a2.58,2.58,0,0,0-2.555-2.222" transform="translate(-23.39 -134.143)" fill="#fff"/>
      <path id="Trazado_1271845" data-name="Trazado 1271845" d="M56.988,277.551H49.329a2.58,2.58,0,0,0-2.555,2.938l.466,3.324a2.58,2.58,0,0,0,2.555,2.222h7.658a2.58,2.58,0,0,0,2.555-2.938l-.466-3.325a2.58,2.58,0,0,0-2.555-2.222" transform="translate(-27.33 -162.261)" fill="#fff"/>
      <path id="Trazado_1271846" data-name="Trazado 1271846" d="M63.725,325.637H56.067a2.58,2.58,0,0,0-2.555,2.938l.466,3.328a2.581,2.581,0,0,0,2.555,2.222h7.659a2.58,2.58,0,0,0,2.555-2.938l-.466-3.328a2.58,2.58,0,0,0-2.555-2.222" transform="translate(-31.269 -190.373)" fill="#fff"/>
      <path id="Trazado_1271847" data-name="Trazado 1271847" d="M70.464,373.733H62.805a2.58,2.58,0,0,0-2.555,2.938L60.716,380a2.58,2.58,0,0,0,2.555,2.222h7.659a2.58,2.58,0,0,0,2.555-2.938l-.466-3.328a2.58,2.58,0,0,0-2.555-2.222" transform="translate(-35.208 -218.49)" fill="#fff"/>
      <path id="Trazado_1271848" data-name="Trazado 1271848" d="M77.2,421.829H69.543a2.58,2.58,0,0,0-2.555,2.938l.466,3.328a2.58,2.58,0,0,0,2.555,2.222h7.659a2.58,2.58,0,0,0,2.555-2.938l-.466-3.328a2.58,2.58,0,0,0-2.555-2.222" transform="translate(-39.147 -246.608)" fill="#fff"/>
      <path id="Trazado_1271849" data-name="Trazado 1271849" d="M73.726,472.853l.466,3.328a2.58,2.58,0,0,0,2.555,2.222h7.659a2.58,2.58,0,0,0,2.555-2.938l-.466-3.328a2.58,2.58,0,0,0-2.555-2.222H76.281a2.58,2.58,0,0,0-2.555,2.938" transform="translate(-43.087 -274.72)" fill="#fff"/>
      <path id="Trazado_1271850" data-name="Trazado 1271850" d="M52.066,238.352l-3.156-2.441.933-1.207,1.8,1.395L54,232.206l1.3.79Z" transform="translate(-28.594 -135.751)" fill="#69d7e5"/>
      <path id="Trazado_1271851" data-name="Trazado 1271851" d="M65.158,335.484,62,333.042l.933-1.206,1.8,1.395,2.356-3.893,1.3.79Z" transform="translate(-36.247 -192.536)" fill="#69d7e5"/>
      <path id="Trazado_1271852" data-name="Trazado 1271852" d="M71.9,383.579l-3.156-2.442.933-1.206,1.8,1.395,2.356-3.893,1.3.79Z" transform="translate(-40.187 -220.653)" fill="#69d7e5"/>
      <path id="Trazado_1271853" data-name="Trazado 1271853" d="M78.635,431.671l-3.156-2.442.933-1.207,1.8,1.395,2.356-3.893,1.3.79Z" transform="translate(-44.126 -248.768)" fill="#69d7e5"/>
      <rect id="Rectángulo_459981" data-name="Rectángulo 459981" width="7.306" height="1.525" transform="translate(23.155 121.576) rotate(-45)" fill="#ffd453"/>
      <rect id="Rectángulo_459982" data-name="Rectángulo 459982" width="1.525" height="7.306" transform="translate(23.155 117.489) rotate(-45)" fill="#ffd453"/>
      <rect id="Rectángulo_459983" data-name="Rectángulo 459983" width="7.306" height="1.525" transform="translate(34.135 201.483) rotate(-45)" fill="#ffd453"/>
      <rect id="Rectángulo_459984" data-name="Rectángulo 459984" width="1.525" height="7.306" transform="translate(34.135 197.395) rotate(-45)" fill="#ffd453"/>
      <path id="Trazado_1271854" data-name="Trazado 1271854" d="M352.318,570.852s9.886,9.292,100.045,9.292c87.675,0,100.045-9.292,100.045-9.292a15.147,15.147,0,0,0-4.091-9.973c-13.982-16.3-51.036-34.455-100.018-42.518-46.622-7.676-86.585,21.96-94.066,42.36a29.474,29.474,0,0,0-1.915,10.131" transform="translate(-205.971 -302.317)" fill="#b6b6ce"/>
      <path id="Trazado_1271855" data-name="Trazado 1271855" d="M352.318,632.215s9.886,9.292,100.045,9.292c87.675,0,100.045-9.292,100.045-9.292a15.147,15.147,0,0,0-4.091-9.973c-20.724,3.7-105.757,16.732-194.084-.158a29.474,29.474,0,0,0-1.915,10.131" transform="translate(-205.971 -363.68)" fill="#6b6b82"/>
      <path id="Trazado_1271856" data-name="Trazado 1271856" d="M713.963,565.609c-1.05,1.482-8.791,1.075-13.985-.895-6.753-2.562-11.24-7.739-9.9-10.576s8.229-2.785,14.758.3,10.938,8.6,9.125,11.166" transform="translate(-403.293 -322.747)" fill="#6b6b82"/>
      <path id="Trazado_1271857" data-name="Trazado 1271857" d="M685.134,567.765a.214.214,0,0,1-.13-.044c-.362-.277-36.694-27.7-79.765-34.368a.214.214,0,0,1,.065-.423c43.181,6.684,79.6,34.175,79.959,34.451a.214.214,0,0,1-.13.383" transform="translate(-353.727 -311.558)" fill="#6b6b82"/>
      <path id="Trazado_1271858" data-name="Trazado 1271858" d="M476.3,267.26c-4.874-1.321-8.948,2.294-11.056,6.355-2.819,5.432-.7,10.242-1.587,15.865-.647,4.1-2.138,9.193-.551,13.247,1.61,4.114,6.417,5.068,10.313,4.1,6.348-1.58,8.669-8.328,6.983-14.151-1.976-6.824-4.348-12.78-1.267-19.814a3.978,3.978,0,0,0-2.475-5.488c-.12-.043-.239-.08-.36-.113" transform="translate(-270.324 -156.082)" fill="#3b3638"/>
      <path id="Trazado_1271859" data-name="Trazado 1271859" d="M419.068,655.434c1.235-2.018.073-7.055-1.534-9.529H409.15c-2.914,4.311-18.51,7.459-15.346,9.529Z" transform="translate(-229.978 -377.606)" fill="#3b3638"/>
      <path id="Trazado_1271860" data-name="Trazado 1271860" d="M328.95,582.713c.937-.646,2.48-4.671,1.017-9.637l-8.319-1.036c-3.425,3.918-19.352,5.106-16.467,7.551Z" transform="translate(-178.211 -334.423)" fill="#3b3638"/>
      <path id="Trazado_1271861" data-name="Trazado 1271861" d="M344.047,270.1c-.551-.481-13.783-16.469-15.988-15.587s6.175,7.776,6.175,7.776-7.167,4.106-5.844,7.758,9.924,7.557,9.924,7.557Z" transform="translate(-191.572 -148.774)" fill="#ba6d50"/>
      <path id="Trazado_1271862" data-name="Trazado 1271862" d="M413.228,364.648c12.27,7.094,33.976,9.172,33.976,9.172s7.9,1.076,12.5-2.5c6.784-5.27-6.885-32.7-13.543-44.943a17.45,17.45,0,0,0-14.573-9.105c-1.24-.054-3.417-.489-4.769-.535-8.628-.292-16.961-1.179-16.961-1.179-30.974-5.488-53.037-27.819-53.037-27.819-3.523,3.145-7.086,9.706-7.086,9.706,7.939,11.318,49.294,38.92,49.294,38.92s8.22,22.824,14.2,28.282" transform="translate(-204.46 -168.217)" fill="#a4e7f0"/>
      <path id="Trazado_1271863" data-name="Trazado 1271863" d="M472.743,440.994h-32.27a1.483,1.483,0,0,1-1.443-1.14l-5.516-23.266a1.483,1.483,0,0,1,1.443-1.824h32.27a1.483,1.483,0,0,1,1.443,1.14l5.516,23.266a1.483,1.483,0,0,1-1.443,1.824" transform="translate(-253.415 -242.477)" fill="#b6b6ce"/>
      <path id="Trazado_1271864" data-name="Trazado 1271864" d="M435.133,496.008c-28,.662-52.276-15.544-52.276-15.544l-29.221,26.67a11.018,11.018,0,0,1-8.319-1.034s27.9-45.735,37.7-46.747,27.627,5.559,27.627,5.559c12.271,7.1,33.976,9.173,33.976,9.173,4.4,10.242,5.751,21.564-9.489,21.923" transform="translate(-201.878 -268.483)" fill="#6cb9ff"/>
      <path id="Trazado_1271865" data-name="Trazado 1271865" d="M420.3,551.274,412.461,494.1l6.545-10.064,44.353,25.618a131.847,131.847,0,0,1-31.3-1.479s.745,17.753-3.373,43.1c0,0-6.242,1.641-8.383,0" transform="translate(-241.131 -282.976)" fill="#6cb9ff"/>
      <path id="Trazado_1271866" data-name="Trazado 1271866" d="M486.979,524.536c-5.2,0-35.565-.7-53.459-16.411a.214.214,0,0,1,.282-.321c19.392,17.029,53.59,16.308,53.931,16.3a.214.214,0,1,1,.012.427c-.029,0-.294.007-.766.007" transform="translate(-253.4 -296.839)" fill="#3b3638"/>
      <path id="Trazado_1271867" data-name="Trazado 1271867" d="M379.378,532.422a.214.214,0,0,1-.143-.372l22.879-20.56a.214.214,0,0,1,.286.318l-22.879,20.56a.213.213,0,0,1-.143.055" transform="translate(-221.666 -298.993)" fill="#3b3638"/>
      <path id="Trazado_1271868" data-name="Trazado 1271868" d="M525.948,447.427c-1.158-.868-4.8-2.178-5.582-2.715s-.744,1.158.372,1.985a14.226,14.226,0,0,1,1.552,1.382c-4.858-1.594-10.849-3.406-11.468-2.867-.427.372,1.245,1.668,2.082,1.944,0,0-3.589-1.148-3.9-.524-.4.8,5.317,3.2,5.317,3.2s-4.13-1.17-4.239-.5c-.112.689,3.625,2.522,6.3,3.391,0,0-4.647-1.53-5.075-.62-.617,1.312,10.652,4.782,17.289,4.066.711-2.044,1.7-4.566.937-6.48,0,0-2.426-1.392-3.583-2.261" transform="translate(-297.558 -259.925)" fill="#ba6d50"/>
      <path id="Trazado_1271869" data-name="Trazado 1271869" d="M567.1,482.522a.206.206,0,0,1-.073-.013c-4.17-1.53-10.793-6.375-10.859-6.424a.214.214,0,1,1,.253-.344c.066.049,6.64,4.857,10.753,6.367a.214.214,0,0,1-.073.414" transform="translate(-325.095 -278.101)" fill="#3b3638"/>
      <path id="Trazado_1271870" data-name="Trazado 1271870" d="M581.055,459.391a.2.2,0,0,1-.054-.007c-.154-.039-15.388-3.962-17.154-3.962a.214.214,0,1,1,0-.427c1.819,0,16.631,3.814,17.26,3.976a.214.214,0,0,1-.053.421" transform="translate(-329.509 -265.997)" fill="#3b3638"/>
      <path id="Trazado_1271871" data-name="Trazado 1271871" d="M551.443,376.446a.213.213,0,0,1-.212-.189,6.894,6.894,0,0,1,4.19-7.254.214.214,0,0,1,.15.4,6.364,6.364,0,0,0-3.915,6.8.213.213,0,0,1-.187.237h-.025" transform="translate(-322.226 -215.718)" fill="#3b3638"/>
      <path id="Trazado_1271872" data-name="Trazado 1271872" d="M563.489,421.467a.213.213,0,0,1-.21-.176c-.486-2.753-8.094-19.38-8.171-19.547a.214.214,0,0,1,.389-.178c.314.687,7.708,16.845,8.2,19.651a.213.213,0,0,1-.173.248.186.186,0,0,1-.037,0" transform="translate(-324.513 -234.688)" fill="#3b3638"/>
      <path id="Trazado_1271873" data-name="Trazado 1271873" d="M465.14,395.456a.214.214,0,0,1-.2-.146l-3.045-9.118a.214.214,0,1,1,.4-.135l3.046,9.118a.214.214,0,0,1-.2.282" transform="translate(-270.023 -225.61)" fill="#3b3638"/>
      <path id="Trazado_1271874" data-name="Trazado 1271874" d="M494.33,332.835s-1.1,4.342,3.882,5.038c4.352.609,13.078-3.859,13.078-3.859-6.319-3.015-4.127-16.723-4.127-16.723l-11.577,10.184c.2,1.828-.113,4.142-1.256,5.36" transform="translate(-288.933 -185.494)" fill="#ba6d50"/>
      <path id="Trazado_1271875" data-name="Trazado 1271875" d="M474.3,288.525c.6,8.724,4.231,14.627,7.727,14.916,7.039.582,15.4-7.663,14.794-16.387s-5.4-13.392-11.826-12.948-11.3,5.7-10.695,14.42" transform="translate(-277.255 -160.229)" fill="#ba6d50"/>
      <path id="Trazado_1271876" data-name="Trazado 1271876" d="M505.137,299.611c-.063.616-1.214,1-2.57.864s-2.4-.752-2.341-1.369,1.214-1,2.57-.864,2.4.752,2.341,1.369" transform="translate(-292.438 -174.341)" fill="#3b3638"/>
      <path id="Trazado_1271877" data-name="Trazado 1271877" d="M504.774,308.692c-.079.771-.543,1.354-1.036,1.3s-.829-.717-.75-1.487.543-1.354,1.036-1.3.829.716.75,1.487" transform="translate(-294.048 -179.595)" fill="#3b3638"/>
      <path id="Trazado_1271878" data-name="Trazado 1271878" d="M501.806,307.876a3.047,3.047,0,0,1,1.133-1.027c.8-.158,1.546.68,2.188,1.126a.1.1,0,0,0,.155-.115,3.469,3.469,0,0,0-.7-1.006,1.583,1.583,0,0,0-2.456-.2c-.181.115-.807,1.495-.325,1.224" transform="translate(-293.259 -178.977)" fill="#3b3638"/>
      <path id="Trazado_1271879" data-name="Trazado 1271879" d="M480.95,297.126c-.063.616-1.214,1-2.57.864s-2.4-.752-2.341-1.369,1.214-1,2.57-.864,2.4.752,2.341,1.369" transform="translate(-278.298 -172.888)" fill="#3b3638"/>
      <path id="Trazado_1271880" data-name="Trazado 1271880" d="M479.692,306.115c-.079.771-.543,1.354-1.036,1.3s-.829-.716-.75-1.487.543-1.354,1.036-1.3.829.717.75,1.487" transform="translate(-279.385 -178.088)" fill="#3b3638"/>
      <path id="Trazado_1271881" data-name="Trazado 1271881" d="M476.723,305.3a3.046,3.046,0,0,1,1.133-1.026c.8-.158,1.547.68,2.188,1.126a.1.1,0,0,0,.155-.115,3.465,3.465,0,0,0-.7-1.006,1.583,1.583,0,0,0-2.456-.2c-.181.115-.806,1.495-.325,1.223" transform="translate(-278.595 -177.471)" fill="#3b3638"/>
      <path id="Trazado_1271882" data-name="Trazado 1271882" d="M489.494,327.282a3.311,3.311,0,0,1-3.727.307,3.837,3.837,0,0,0-.652-.237.141.141,0,0,0-.172.1,2.524,2.524,0,0,0,4.44.636,2.137,2.137,0,0,0,.327-.664.136.136,0,0,0-.093-.168.145.145,0,0,0-.124.025" transform="translate(-283.505 -191.317)" fill="#91563f"/>
      <path id="Trazado_1271883" data-name="Trazado 1271883" d="M488.874,303.855l-1.456,6.091c-.41,1.207,2.607,1.407,2.907.2.058-.233-1.2-6.095-1.194-6.3-.022-.127-.232-.12-.257.01" transform="translate(-284.93 -177.579)" fill="#91563f"/>
      <path id="Trazado_1271884" data-name="Trazado 1271884" d="M483.436,270.607c1.983,3.527,6.091,5.041,9.387,7.375,5.224,3.7,5.992,8.579,6,14.152.008,3.346-1.313,7.882,1.012,10.763,1.016,1.259,1.559,2.68,3.341,3.245,3.579,1.135,8.25-.3,11.007-2.536,3.276-2.661,7.134-7.193,4.888-10.205a38.712,38.712,0,0,1-5.182-8.755c-3.147-8.16-9.321-16.825-19.387-20.55a13.379,13.379,0,0,0-4.863-.861c-2.916.067-5.925,1.693-6.62,4.346a3.911,3.911,0,0,0,.412,3.025" transform="translate(-282.302 -153.89)" fill="#3b3638"/>
      <path id="Trazado_1271885" data-name="Trazado 1271885" d="M501.535,339.141a.214.214,0,0,1-.067-.417c.059-.022,3.82-1.541,5.393-3.138a.214.214,0,0,1,.3.3c-1.639,1.664-5.532,3.234-5.566,3.245a.214.214,0,0,1-.064.01" transform="translate(-293.08 -196.152)" fill="#91563f"/>
      <path id="Trazado_1271886" data-name="Trazado 1271886" d="M711.5,252.742l14.363-48.985a4.993,4.993,0,0,1,4.791-3.588h83.17a4.993,4.993,0,0,1,4.791,6.4l-14.364,48.985a4.992,4.992,0,0,1-4.791,3.588H716.289a4.992,4.992,0,0,1-4.791-6.4" transform="translate(-415.833 -117.023)" fill="#f2f0f7"/>
      <path id="Trazado_1271887" data-name="Trazado 1271887" d="M780.539,385.586l8.148-27.787a2.832,2.832,0,0,1,2.718-2.036h47.179a2.832,2.832,0,0,1,2.718,3.629l-8.148,27.787a2.833,2.833,0,0,1-2.718,2.036H783.257a2.833,2.833,0,0,1-2.718-3.63" transform="translate(-456.248 -207.985)" fill="#b6b6ce"/>
      <path id="Trazado_1271888" data-name="Trazado 1271888" d="M653.958,470.36l8.148-27.787a2.833,2.833,0,0,1,2.718-2.035H712a2.832,2.832,0,0,1,2.718,3.629l-8.148,27.787a2.833,2.833,0,0,1-2.718,2.035H656.676a2.832,2.832,0,0,1-2.718-3.629" transform="translate(-382.247 -257.546)" fill="#6b6b82"/>
      <path id="Trazado_1271889" data-name="Trazado 1271889" d="M833.516,246.258a17.687,17.687,0,1,1-17.687-17.687,17.687,17.687,0,0,1,17.688,17.687" transform="translate(-466.606 -133.626)" fill="#fff"/>
      <path id="Trazado_1271890" data-name="Trazado 1271890" d="M845.535,257.6l-16.676-9.628V267.23Z" transform="translate(-484.564 -144.97)" fill="#69d7e5"/>
      <path id="Trazado_1271891" data-name="Trazado 1271891" d="M850.878,371.3H806.472a.831.831,0,0,1,0-1.661h44.406a.831.831,0,1,1,0,1.661" transform="translate(-470.991 -216.095)" fill="#fff"/>
      <path id="Trazado_1271892" data-name="Trazado 1271892" d="M846.62,385.619H802.214a.831.831,0,0,1,0-1.662H846.62a.831.831,0,1,1,0,1.662" transform="translate(-468.501 -224.467)" fill="#fff"/>
      <path id="Trazado_1271893" data-name="Trazado 1271893" d="M842.362,399.942H797.956a.831.831,0,1,1,0-1.662h44.406a.831.831,0,1,1,0,1.662" transform="translate(-466.012 -232.841)" fill="#fff"/>
      <path id="Trazado_1271894" data-name="Trazado 1271894" d="M838.1,414.264H793.7a.831.831,0,0,1,0-1.662H838.1a.831.831,0,1,1,0,1.662" transform="translate(-463.523 -241.214)" fill="#fff"/>
      <path id="Trazado_1271895" data-name="Trazado 1271895" d="M723.435,458.982H679.029a.831.831,0,0,1,0-1.662h44.406a.831.831,0,0,1,0,1.662" transform="translate(-396.485 -267.357)" fill="#fff"/>
      <path id="Trazado_1271896" data-name="Trazado 1271896" d="M719.177,473.3H674.771a.831.831,0,1,1,0-1.662h44.406a.831.831,0,1,1,0,1.662" transform="translate(-393.996 -275.729)" fill="#fff"/>
      <path id="Trazado_1271897" data-name="Trazado 1271897" d="M714.919,487.627H670.513a.831.831,0,0,1,0-1.662h44.406a.831.831,0,0,1,0,1.662" transform="translate(-391.507 -284.103)" fill="#fff"/>
      <path id="Trazado_1271898" data-name="Trazado 1271898" d="M710.661,501.949H666.255a.831.831,0,1,1,0-1.662h44.406a.831.831,0,1,1,0,1.662" transform="translate(-389.017 -292.476)" fill="#fff"/>
      <path id="Trazado_1271899" data-name="Trazado 1271899" d="M722.8,391.131a12.024,12.024,0,1,1,12.024-12.024A12.037,12.037,0,0,1,722.8,391.131m0-23.621a11.6,11.6,0,1,0,11.6,11.6,11.61,11.61,0,0,0-11.6-11.6" transform="translate(-415.533 -214.603)" fill="#3b3638"/>
      <path id="Trazado_1271900" data-name="Trazado 1271900" d="M829.126,479.139a12.024,12.024,0,1,1,12.024-12.024,12.037,12.037,0,0,1-12.024,12.024m0-23.62a11.6,11.6,0,1,0,11.6,11.6,11.61,11.61,0,0,0-11.6-11.6" transform="translate(-477.691 -266.054)" fill="#3b3638"/>
      <path id="Trazado_1271901" data-name="Trazado 1271901" d="M729.632,394.685l-7.1-5.491,1.525-1.971L728.947,391l6.041-9.983,2.132,1.291Z" transform="translate(-422.405 -222.751)" fill="#69d7e5"/>
      <path id="Trazado_1271902" data-name="Trazado 1271902" d="M843.145,468.649l-1.763-1.762-5.362,5.362-5.362-5.362-1.762,1.762,5.362,5.362-5.362,5.362,1.762,1.762,5.362-5.362,5.362,5.362,1.763-1.762-5.362-5.362Z" transform="translate(-484.586 -272.949)" fill="#ffd453"/>
      <path id="Trazado_1271915" data-name="Trazado 1271915" d="M508.116,207.275l1.449-4.944a1.109,1.109,0,0,1,1.064-.8h5.743a1.109,1.109,0,0,1,1.064,1.421l-1.45,4.944a1.108,1.108,0,0,1-1.064.8H509.18a1.109,1.109,0,0,1-1.064-1.421" transform="translate(-297.026 -117.82)" fill="#6b6b82"/>
      <path id="Trazado_1271916" data-name="Trazado 1271916" d="M537.888,207.275l1.45-4.944a1.109,1.109,0,0,1,1.064-.8h5.743a1.109,1.109,0,0,1,1.064,1.421l-1.45,4.944a1.109,1.109,0,0,1-1.064.8h-5.743a1.109,1.109,0,0,1-1.064-1.421" transform="translate(-314.431 -117.82)" fill="#b6b6ce"/>
      <path id="Trazado_1271917" data-name="Trazado 1271917" d="M567.66,207.275l1.45-4.944a1.109,1.109,0,0,1,1.064-.8h5.743a1.109,1.109,0,0,1,1.064,1.421l-1.45,4.944a1.109,1.109,0,0,1-1.064.8h-5.743a1.109,1.109,0,0,1-1.064-1.421" transform="translate(-331.837 -117.82)" fill="#fff"/>
    </g>
  </g>
</svg>
