<svg xmlns="http://www.w3.org/2000/svg" xmlns:xlink="http://www.w3.org/1999/xlink" width="85" height="85" viewBox="0 0 85 85">
  <defs>
    <clipPath id="clip-path">
      <rect id="Rectángulo_459973" data-name="Rectángulo 459973" width="67.711" height="64.831" fill="#344866"/>
    </clipPath>
  </defs>
  <g id="Grupo_1208924" data-name="Grupo 1208924" transform="translate(-179.734 -5520.842)">
    <rect id="Rectángulo_402006" data-name="Rectángulo 402006" width="85" height="85" rx="5" transform="translate(179.734 5520.842)" fill="#69d7e5"/>
    <g id="Grupo_1208926" data-name="Grupo 1208926" transform="translate(188.734 5530.841)">
      <g id="Grupo_1208925" data-name="Grupo 1208925" transform="translate(0 0)" clip-path="url(#clip-path)">
        <path id="Trazado_1271786" data-name="Trazado 1271786" d="M67.711,11.088a5.76,5.76,0,1,0-11.515-.23H11.515A5.7,5.7,0,0,0,5.758,5.1,5.828,5.828,0,0,0,0,11.088V55.307a8.652,8.652,0,0,0,8.636,8.752H58.958a8.649,8.649,0,0,0,8.636-8.752c.116-.115.116-8.867.116-44.219M61.953,7.979a2.981,2.981,0,0,1,2.879,3.109V50.355a5.46,5.46,0,0,0-5.758,0V10.973a2.812,2.812,0,0,1,2.879-2.994m-56.2,0a2.878,2.878,0,0,1,2.879,2.994v39.5a5.229,5.229,0,0,0-5.758,0V11.088A2.981,2.981,0,0,1,5.758,7.979m53.317,53.2H8.636c-3.224,0-5.641-2.533-5.758-5.988a3.006,3.006,0,0,1,2.879-2.879,3.227,3.227,0,0,1,2.879,3.109,1.441,1.441,0,1,0,2.879-.115v-41.8H56.2v41.8a1.441,1.441,0,1,0,2.879.115,3.138,3.138,0,0,1,2.879-3.109,3.006,3.006,0,0,1,2.879,2.879c-.116,3.455-2.533,5.988-5.758,5.988" transform="translate(0 0.772)" fill="#344866"/>
        <rect id="Rectángulo_459970" data-name="Rectángulo 459970" width="28.788" height="2.879" transform="translate(15.892 44.679)" fill="#344866"/>
        <rect id="Rectángulo_459971" data-name="Rectángulo 459971" width="28.788" height="2.879" transform="translate(15.892 49.055)" fill="#344866"/>
        <rect id="Rectángulo_459972" data-name="Rectángulo 459972" width="35.926" height="2.879" transform="translate(15.892 53.316)" fill="#344866"/>
        <path id="Trazado_1271787" data-name="Trazado 1271787" d="M49.925,15.1H14a1.525,1.525,0,0,0-1.5,1.5V26.73A1.429,1.429,0,0,0,14,28.112H49.925a1.509,1.509,0,0,0,1.5-1.382V16.6a1.452,1.452,0,0,0-1.5-1.5M48.544,25.118H15.379V17.979H48.428Z" transform="translate(1.894 2.288)" fill="#344866"/>
        <path id="Trazado_1271788" data-name="Trazado 1271788" d="M22.98,37.452a1.523,1.523,0,0,0,1.5-1.5V30.2a1.523,1.523,0,0,0-1.5-1.5H14a1.525,1.525,0,0,0-1.5,1.5v5.758a1.525,1.525,0,0,0,1.5,1.5Zm-7.6-5.758h6.1v2.879h-6.1Z" transform="translate(1.894 4.348)" fill="#344866"/>
        <path id="Trazado_1271789" data-name="Trazado 1271789" d="M34.68,37.452a1.525,1.525,0,0,0,1.5-1.5V30.2a1.525,1.525,0,0,0-1.5-1.5H25.7a1.525,1.525,0,0,0-1.5,1.5v5.758a1.525,1.525,0,0,0,1.5,1.5Zm-7.6-5.758h6.1v2.879h-6.1Z" transform="translate(3.667 4.348)" fill="#344866"/>
        <path id="Trazado_1271790" data-name="Trazado 1271790" d="M46.379,28.8H37.4a1.524,1.524,0,0,0-1.5,1.5v5.758a1.524,1.524,0,0,0,1.5,1.5h8.982a1.525,1.525,0,0,0,1.5-1.5V30.3a1.525,1.525,0,0,0-1.5-1.5M45,34.558h-6.1V31.679H45Z" transform="translate(5.44 4.364)" fill="#344866"/>
        <path id="Trazado_1271791" data-name="Trazado 1271791" d="M15.2,10.133H48.246a1.524,1.524,0,0,0,1.5-1.5V1.5a1.524,1.524,0,0,0-1.5-1.5H15.2a1.525,1.525,0,0,0-1.5,1.5V8.636a1.523,1.523,0,0,0,1.5,1.5m1.5-7.139H46.864V7.255H43.985V5.873a1.5,1.5,0,1,0-2.993,0V7.255H39.5V5.873a1.5,1.5,0,0,0-3,0V7.255H35.12V5.873a1.525,1.525,0,0,0-1.5-1.5,1.428,1.428,0,0,0-1.381,1.5V7.255h-1.5V5.873a1.5,1.5,0,1,0-2.993,0V7.255h-1.5V5.873a1.5,1.5,0,0,0-3,0V7.255h-1.5V5.873a1.523,1.523,0,0,0-1.5-1.5,1.428,1.428,0,0,0-1.383,1.5V7.255H16Z" transform="translate(2.076 0)" fill="#344866"/>
      </g>
    </g>
  </g>
</svg>
