<svg xmlns="http://www.w3.org/2000/svg" xmlns:xlink="http://www.w3.org/1999/xlink" width="138.666" height="138.666" viewBox="0 0 138.666 138.666">
  <defs>
    <clipPath id="clip-path">
      <rect id="Rectángulo_454829" data-name="Rectángulo 454829" width="138.666" height="138.666" fill="#1e535a"/>
    </clipPath>
    <clipPath id="clip-path-2">
      <rect id="Rectángulo_459965" data-name="Rectángulo 459965" width="62.751" height="51.15" fill="#1e535a"/>
    </clipPath>
  </defs>
  <g id="Grupo_1208910" data-name="Grupo 1208910" transform="translate(-1481 -8562.5)">
    <g id="Grupo_1177591" data-name="Grupo 1177591" transform="translate(1481 8562.5)">
      <g id="Grupo_1177589" data-name="Grupo 1177589" transform="translate(0 0)">
        <g id="Grupo_1177587" data-name="Grupo 1177587" clip-path="url(#clip-path)">
          <path id="Trazado_997422" data-name="Trazado 997422" d="M133,61.375A63.752,63.752,0,0,0,118.6,28.2a7.332,7.332,0,0,0-10.316-9.877A63.658,63.658,0,0,0,75.329,5.445a7.333,7.333,0,0,0-14.243.289A63.745,63.745,0,0,0,29.463,19.253,7.336,7.336,0,0,0,19.282,29.5,63.693,63.693,0,0,0,5.94,61.313a7.338,7.338,0,0,0-.176,14.371A63.674,63.674,0,0,0,18.69,108.138a7.335,7.335,0,0,0,9.965,10.357,63.741,63.741,0,0,0,32.373,14.159,7.335,7.335,0,0,0,14.371.289,63.687,63.687,0,0,0,33.2-13.116,7.333,7.333,0,0,0,10.265-9.929,63.768,63.768,0,0,0,14.313-34.283A7.336,7.336,0,0,0,133,61.375M112.291,31.813a7.294,7.294,0,0,0,4.062-1.23,60.541,60.541,0,0,1,13.361,30.774,7.346,7.346,0,0,0-4.688,3.4l-18.748-7.03c.015-.2.029-.414.029-.626A7.336,7.336,0,0,0,103.2,51.1l8.2-19.348a7.946,7.946,0,0,0,.889.059m-3.963-1.167-8.15,19.22a7.26,7.26,0,0,0-8.08,4.666L58.18,46.719a7.137,7.137,0,0,0-.154-1.46L106.158,28.5a7.359,7.359,0,0,0,2.17,2.148M68.244,14.682A7.341,7.341,0,0,0,75.45,8.728,60.441,60.441,0,0,1,106.011,20.68a7.3,7.3,0,0,0-1.061,3.791,7.707,7.707,0,0,0,.07.97L56.647,42.283a7.363,7.363,0,0,0-1.328-1.328L68.006,14.671c.081,0,.157.011.238.011M61.1,9.017A7.343,7.343,0,0,0,64.8,13.822L52.358,39.582a7.362,7.362,0,0,0-1.515-.157,7.288,7.288,0,0,0-4.183,1.314L31.915,28.424a7.3,7.3,0,0,0-.249-6.756A60.489,60.489,0,0,1,61.1,9.017M14.5,66.923,45,51.194A7.314,7.314,0,0,0,50.784,54.1L61.236,87.512a7.461,7.461,0,0,0-1.618,1.79L14.412,70.466a7.292,7.292,0,0,0,.271-1.947,7.377,7.377,0,0,0-.179-1.6m7.2-35.231a7.336,7.336,0,0,0,8.194-.7L44.457,43.15a7.321,7.321,0,0,0-.809,5.072L13.1,63.974a7.339,7.339,0,0,0-3.886-2.547,60.462,60.462,0,0,1,12.49-29.734m3.037,73.258a7.319,7.319,0,0,0-3.645.973A60.409,60.409,0,0,1,9.047,75.651a7.348,7.348,0,0,0,3.81-2.3L58.513,92.376a7.871,7.871,0,0,0-.059.882,7.34,7.34,0,0,0,.439,2.481L31.282,108.969a7.34,7.34,0,0,0-6.54-4.018M61.17,129.385a60.549,60.549,0,0,1-30.206-13.215,7.264,7.264,0,0,0,1.12-3.879l0-.084,28.589-13.7a7.341,7.341,0,0,0,2.591,1.636l1.713,24.618a7.341,7.341,0,0,0-3.8,4.626M64.211,86.1l-10.229-32.7a7.351,7.351,0,0,0,3.488-3.488l34.192,7.872a7.3,7.3,0,0,0,1.167,3.338L69.379,86.853a7.25,7.25,0,0,0-5.167-.758m11.18,43.575a7.338,7.338,0,0,0-7.147-5.687l-.055,0-1.629-23.425a7.328,7.328,0,0,0,4.487-2.177l34.184,15.078c0,.066-.011.124-.011.19a7.3,7.3,0,0,0,1.087,3.828,60.437,60.437,0,0,1-30.916,12.19m30.664-19.411-33.3-14.69a7.3,7.3,0,0,0-.962-6.529L95.179,63.377a7.3,7.3,0,0,0,3.788,1.061,8.082,8.082,0,0,0,.9-.059l8.739,43.1a7.324,7.324,0,0,0-2.551,2.785m10.532-2.745a7.3,7.3,0,0,0-4.878-1.153l-8.743-43.114a7.37,7.37,0,0,0,2.313-2.415l18.737,7.026a6.508,6.508,0,0,0-.033.659,7.338,7.338,0,0,0,5.9,7.195,60.488,60.488,0,0,1-13.3,31.8" transform="translate(0 0.001)" fill="#1e535a"/>
        </g>
      </g>
    </g>
    <g id="Elipse_13614" data-name="Elipse 13614" transform="translate(1505 8586.596)" fill="#d5f4f8" stroke="#1e535a" stroke-width="3">
      <ellipse cx="45.113" cy="45.114" rx="45.113" ry="45.114" stroke="none"/>
      <ellipse cx="45.113" cy="45.114" rx="43.613" ry="43.614" fill="none"/>
    </g>
    <g id="Grupo_1208920" data-name="Grupo 1208920" transform="translate(1519.957 8603.135)">
      <path id="Trazado_1271779" data-name="Trazado 1271779" d="M25.982,49.238H0v6.245H25.982v2.094l9.036-5.217-9.036-5.217Z" transform="translate(0 -6.428)" fill="#1e535a"/>
      <g id="Grupo_1208919" data-name="Grupo 1208919" transform="translate(0 0)">
        <g id="Grupo_1208918" data-name="Grupo 1208918" clip-path="url(#clip-path-2)">
          <path id="Trazado_1271780" data-name="Trazado 1271780" d="M37.667,44.461A13.6,13.6,0,0,0,50.622,33.425l-2.879.1,6.237-9.5,6.525,9.789H57.531s1.151,14.97-17.849,18.9l2.879-4.222Z" transform="translate(-5.136 -3.276)" fill="#1e535a"/>
          <path id="Trazado_1271781" data-name="Trazado 1271781" d="M69.244,52.36l-9.036-5.217v2.1H55.524a19.73,19.73,0,0,1-7.908,6.244H60.207v2.1Z" transform="translate(-6.492 -6.428)" fill="#1e535a"/>
          <path id="Trazado_1271782" data-name="Trazado 1271782" d="M48.1,23.22A13.6,13.6,0,0,0,37.551,9.862l-.011,2.882L28.279,6.155,38.3,0l-.111,2.973s15-.592,18.225,18.542L52.306,18.48Z" transform="translate(-3.856 0)" fill="#1e535a"/>
          <path id="Trazado_1271783" data-name="Trazado 1271783" d="M27.8,10.853A13.6,13.6,0,0,0,14.461,21.417l2.881.007-6.574,9.27L4.6,20.678l2.974.107s-.614-15,18.515-18.252L23.057,6.649Z" transform="translate(-0.627 -0.346)" fill="#1e535a"/>
          <path id="Trazado_1271784" data-name="Trazado 1271784" d="M25.894,44.6C15.2,41.8,15.153,31.163,15.153,31.163l-3.968,5.22L6.927,33.392c1.189,5.7,3.253,9.664,5.595,12.419H25.894Z" transform="translate(-0.944 -4.249)" fill="#1e535a"/>
        </g>
      </g>
    </g>
  </g>
</svg>
