<svg id="Grupo_1208941" data-name="Grupo 1208941" xmlns="http://www.w3.org/2000/svg" xmlns:xlink="http://www.w3.org/1999/xlink" width="396" height="282.826" viewBox="0 0 396 282.826">
  <defs>
    <clipPath id="clip-path">
      <rect id="Rectángulo_460014" data-name="Rectángulo 460014" width="396" height="282.826" fill="none"/>
    </clipPath>
  </defs>
  <g id="Grupo_1208940" data-name="Grupo 1208940" clip-path="url(#clip-path)">
    <path id="Trazado_1271930" data-name="Trazado 1271930" d="M260.188,205.1a58.9,58.9,0,0,0,5.146,15.022c12.558,24.786,40.6,28.764,64.552,30.368l103.728,6.945c14.476.969,29.524,1.846,42.966-3.943,16.124-6.943,27.615-22.628,35.02-39.353s11.44-34.875,17.427-52.228c6.784-19.661,16.088-38.332,21.689-58.409s7.2-42.5-1.318-61.38C538.55,18.067,513.119,4.493,488.136,1.8S438.182,5.5,413.79,11.838c-33.74,8.77-68.871,18.283-95.1,42.475-20.913,19.29-34.167,46.2-44.942,73.3-8.967,22.555-18.719,51.977-13.562,77.484" transform="translate(-159.352 -0.692)" fill="#fff7df"/>
    <path id="Trazado_1271931" data-name="Trazado 1271931" d="M471.107,154.817l-2.464,18.534L449.8,315.179a8.582,8.582,0,0,1-8.316,7.676h-242.7c-5.1,0-9.027-4.8-8.312-10.169l18.512-139.334,2.695-20.3a6.072,6.072,0,0,1,5.883-5.429H465.225a6.194,6.194,0,0,1,5.883,7.194" transform="translate(-117.248 -87.379)" fill="#6b6b82"/>
    <path id="Trazado_1271932" data-name="Trazado 1271932" d="M446.9,128.926l-2.464,18.534L425.6,289.288a8.582,8.582,0,0,1-8.316,7.676H174.58c-5.1,0-9.027-4.8-8.312-10.168l18.512-139.335,2.695-20.3a6.072,6.072,0,0,1,5.883-5.429H441.022a6.194,6.194,0,0,1,5.883,7.194" transform="translate(-102.343 -72.054)" fill="#fff"/>
    <path id="Trazado_1271933" data-name="Trazado 1271933" d="M476.715,128.926l-2.464,18.534H214.59l2.695-20.3a6.072,6.072,0,0,1,5.883-5.429H470.832a6.194,6.194,0,0,1,5.883,7.194" transform="translate(-132.153 -72.054)" fill="#b6b6ce"/>
    <path id="Trazado_1271934" data-name="Trazado 1271934" d="M275.791,248.718H255.155a3.3,3.3,0,0,1-3.118-3.882l3.3-22.006A3.221,3.221,0,0,1,258.454,220H279.09a3.3,3.3,0,0,1,3.118,3.882l-3.3,22.006a3.222,3.222,0,0,1-3.118,2.827" transform="translate(-155.19 -130.221)" fill="#f2f0f7"/>
    <path id="Trazado_1271935" data-name="Trazado 1271935" d="M260.38,355.851H239.724a3.291,3.291,0,0,1-3.128-3.813l2.862-22.006a3.227,3.227,0,0,1,3.128-2.9h20.656a3.292,3.292,0,0,1,3.128,3.813l-2.862,22.007a3.227,3.227,0,0,1-3.128,2.9" transform="translate(-145.687 -193.634)" fill="#f2f0f7"/>
    <path id="Trazado_1271936" data-name="Trazado 1271936" d="M245.474,459.469H224.82a3.291,3.291,0,0,1-3.127-3.819l2.9-22.006a3.227,3.227,0,0,1,3.127-2.889h20.654a3.292,3.292,0,0,1,3.127,3.819l-2.9,22.007a3.227,3.227,0,0,1-3.127,2.889" transform="translate(-136.508 -254.966)" fill="#f2f0f7"/>
    <path id="Trazado_1271937" data-name="Trazado 1271937" d="M551.313,220H384.378a2.582,2.582,0,0,0-2.5,2.312l-.279,2.116c-.008.062-.01.122-.015.183l-2.771,21.678a2.634,2.634,0,0,0,2.5,3.057H548.248a2.582,2.582,0,0,0,2.5-2.311l.279-2.116c.008-.062.01-.122.015-.183l2.771-21.677a2.634,2.634,0,0,0-2.5-3.057" transform="translate(-233.272 -130.221)" fill="#b6b6ce"/>
    <path id="Trazado_1271938" data-name="Trazado 1271938" d="M535.882,327.136H368.947a2.582,2.582,0,0,0-2.5,2.312l-2.938,21.789c0,.024-.013.046-.016.071l-.279,2.116a2.634,2.634,0,0,0,2.5,3.057H532.649a2.582,2.582,0,0,0,2.5-2.311l2.939-21.79c0-.024.012-.046.015-.07l.279-2.116a2.634,2.634,0,0,0-2.5-3.057" transform="translate(-223.665 -193.634)" fill="#b6b6ce"/>
    <path id="Trazado_1271939" data-name="Trazado 1271939" d="M521.078,434.269H354.142a2.582,2.582,0,0,0-2.5,2.312l-.279,2.116c0,.009,0,.017,0,.026l-2.867,21.834a2.634,2.634,0,0,0,2.5,3.057H517.929a2.582,2.582,0,0,0,2.5-2.311l.279-2.116c0-.009,0-.018,0-.027l2.867-21.833a2.634,2.634,0,0,0-2.5-3.057" transform="translate(-214.599 -257.046)" fill="#b6b6ce"/>
    <path id="Trazado_1271940" data-name="Trazado 1271940" d="M847.168,143.458a6.37,6.37,0,1,1-6.358-6.754,6.566,6.566,0,0,1,6.358,6.754" transform="translate(-513.888 -80.916)" fill="#fff"/>
    <path id="Trazado_1271941" data-name="Trazado 1271941" d="M798.921,143.458a6.37,6.37,0,1,1-6.358-6.754,6.565,6.565,0,0,1,6.358,6.754" transform="translate(-484.177 -80.916)" fill="#fff"/>
    <path id="Trazado_1271942" data-name="Trazado 1271942" d="M750.674,143.458a6.37,6.37,0,1,1-6.358-6.754,6.565,6.565,0,0,1,6.358,6.754" transform="translate(-454.464 -80.916)" fill="#fff"/>
    <path id="Trazado_1271943" data-name="Trazado 1271943" d="M27.09,75.483C12.165,82.466,1.486,97.8.294,115.915l29.917,1.3a16.084,16.084,0,0,1,8.072-12.217Z" transform="translate(-0.181 -44.679)" fill="#6cb9ff"/>
    <path id="Trazado_1271944" data-name="Trazado 1271944" d="M61.568,214.508A14.768,14.768,0,0,1,51,209.166l-23.008,20.29a43.913,43.913,0,0,0,34.3,16.829c.61,0,1.217-.011,1.823-.037Z" transform="translate(-17.238 -123.806)" fill="#ffd453"/>
    <path id="Trazado_1271945" data-name="Trazado 1271945" d="M92.382,65.586A42.6,42.6,0,0,0,76.857,68.5L88.051,98.012a14.305,14.305,0,0,1,4.331-.667c8.369,0,15.154,7.208,15.154,16.1,0,8.134-5.678,14.858-13.053,15.941l2.536,31.665c22.7-2.465,40.416-22.838,40.416-47.606,0-26.431-20.173-47.857-45.053-47.857" transform="translate(-47.332 -38.821)" fill="#69d7e5"/>
    <path id="Trazado_1271946" data-name="Trazado 1271946" d="M29.924,183.188,0,181.892c0,.131,0,.262,0,.393a49.6,49.6,0,0,0,8.99,28.686L32.079,190.61a16.749,16.749,0,0,1-2.155-7.422" transform="translate(0 -107.663)" fill="#6b6b82"/>
    <path id="Trazado_1271947" data-name="Trazado 1271947" d="M178.129,54.311a.519.519,0,0,1-.424-.225.586.586,0,0,1,.107-.787L221.376,18.68a.5.5,0,0,1,.606-.02l35.424,24.6L304.913,5.134a.509.509,0,0,1,.741.11.585.585,0,0,1-.1.787l-47.8,38.364a.5.5,0,0,1-.608.022l-35.426-24.6L178.446,54.2a.506.506,0,0,1-.317.112" transform="translate(-109.373 -2.972)" fill="#3b3638"/>
    <path id="Trazado_1271948" data-name="Trazado 1271948" d="M177.5,120.99a2.462,2.462,0,1,1-2.457-2.611,2.537,2.537,0,0,1,2.457,2.611" transform="translate(-106.282 -70.069)" fill="#3b3638"/>
    <path id="Trazado_1271949" data-name="Trazado 1271949" d="M290.895,35.808a2.462,2.462,0,1,1-2.457-2.611,2.537,2.537,0,0,1,2.457,2.611" transform="translate(-176.118 -19.649)" fill="#3b3638"/>
    <path id="Trazado_1271950" data-name="Trazado 1271950" d="M290.895,35.808a2.462,2.462,0,1,1-2.457-2.611,2.537,2.537,0,0,1,2.457,2.611" transform="translate(-176.118 -19.649)" fill="#3b3638"/>
    <path id="Trazado_1271951" data-name="Trazado 1271951" d="M384.712,96.931a2.462,2.462,0,1,1-2.457-2.611,2.537,2.537,0,0,1,2.457,2.611" transform="translate(-233.894 -55.829)" fill="#3b3638"/>
    <path id="Trazado_1271952" data-name="Trazado 1271952" d="M508.353,2.611a2.462,2.462,0,1,1-4.915,0,2.462,2.462,0,1,1,4.915,0" transform="translate(-310.037)" fill="#3b3638"/>
    <path id="Trazado_1271953" data-name="Trazado 1271953" d="M65.516,312.275a58.818,58.818,0,0,1-23.662-4.553c-7.934-3.464-11.7-7.711-11.74-7.754a.213.213,0,0,1,.01-.288.183.183,0,0,1,.271.011c.037.042,3.764,4.236,11.628,7.664,7.261,3.166,19.635,6.307,37.347,3.3a.194.194,0,0,1,.22.169.2.2,0,0,1-.159.234,83.085,83.085,0,0,1-13.915,1.221" transform="translate(-18.514 -177.349)" fill="#3b3638"/>
    <path id="Trazado_1271954" data-name="Trazado 1271954" d="M547.235,674.1a1.97,1.97,0,0,1-.769-1.577c-.272-2.109.462-5.669.762-7.571a7.783,7.783,0,0,0-.088-3.807l6.233.262a7.79,7.79,0,0,0,1,2.675c2.591,4.138,6.414,4.254,9.729,4.67,2.014.255,3.664.513,3.975,1.772.818,3.334-20.339,3.844-20.843,3.578" transform="translate(-336.499 -391.335)" fill="#3b3638"/>
    <path id="Trazado_1271955" data-name="Trazado 1271955" d="M446.67,674.1a1.97,1.97,0,0,0,.769-1.577c.272-2.109-.462-5.669-.762-7.571a7.783,7.783,0,0,1,.088-3.807l-6.233.262a7.789,7.789,0,0,1-1,2.675c-2.591,4.138-6.414,4.254-9.729,4.67-2.014.255-3.664.513-3.975,1.772-.818,3.334,20.339,3.844,20.843,3.578" transform="translate(-262.227 -391.335)" fill="#3b3638"/>
    <path id="Trazado_1271956" data-name="Trazado 1271956" d="M457.455,471.807a11.529,11.529,0,0,0,10.921,0S479.8,432.891,481.2,421.243s20.966-82.509,20.966-82.509l-29.625-.15s-7.583,56.849-8.6,73.936c-.588,9.871-3.608,14.9-6.485,59.287" transform="translate(-281.719 -200.41)" fill="#1e535a"/>
    <path id="Trazado_1271957" data-name="Trazado 1271957" d="M543.293,471.332s5.6,2.1,9.695,0c0,0,11.1-57.24,9.985-70.894s4.722-41.674.391-63.357l-22.274.614s.431,55.861,1.317,63.206-.481,43.311.886,70.431" transform="translate(-333.224 -199.52)" fill="#1e535a"/>
    <path id="Trazado_1271958" data-name="Trazado 1271958" d="M631.88,93.642s5.835-9.025,6.347-10.144,3.728-2.537,5.065-3.572c3.273-2.534,4.615-2.933,5.165-2.835a.391.391,0,0,1,.239.6,48.957,48.957,0,0,1-4.954,5.531c-2.541,3.112-3.881,5.459-3.757,6.076.2.973,7.219-4.464,6.76-2.868s-5.113,6.739-6.073,8.423S636.1,97.5,636.1,97.5Z" transform="translate(-389.137 -45.623)" fill="#f59976"/>
    <path id="Trazado_1271959" data-name="Trazado 1271959" d="M710.423,124.888s9.524-4.183,10.662-4.483,3.111-3.345,4.344-4.519c3.015-2.873,3.661-4.184,3.685-4.776a.367.367,0,0,0-.5-.373,46.681,46.681,0,0,0-6.124,4c-3.394,1.992-5.834,2.9-6.376,2.638-.855-.406,5.613-6.571,4.049-6.427s-7.269,3.91-9.019,4.557-3.391,4.2-3.391,4.2Z" transform="translate(-435.861 -65.528)" fill="#f59976"/>
    <path id="Trazado_1271960" data-name="Trazado 1271960" d="M569.862,121.541l-1.478,1.236-17.139,21.542s-32.112-.363-30.274-5.792c.289-.858,32.559-17.384,40.706-21.546,1.181-.6,1.855-.944,1.855-.944s4.281,2.431,6.331,5.5" transform="translate(-320.788 -68.683)" fill="#69d7e5"/>
    <path id="Trazado_1271961" data-name="Trazado 1271961" d="M579.086,136.32s-.48.94-1.308,2.5c-3.552,6.65-17.939,25.22-22.07,27.857-3.181,2.03-16.928-1.015-16.928-1.015-2.885,15.45-5,35.264-3.6,51.6-16.928,4.447-42.436.044-42.436.044l6.006-60.523c.624-8.845,5.075-13.5,13.4-14.079l1.9-.131h13.592l3.058.495,23.7,3.825,19.4-17.522,1.421-1.285s3.2,4.661,3.851,8.239" transform="translate(-303.453 -75.812)" fill="#69d7e5"/>
    <path id="Trazado_1271962" data-name="Trazado 1271962" d="M561.372,164.077c-11,5.331-18.833.172-18.833.172l2.183-.667h13.592Z" transform="translate(-334.117 -96.825)" fill="#fff"/>
    <path id="Trazado_1271963" data-name="Trazado 1271963" d="M550.34,129.526s.273,10.43-2.116,13.9c0,0,7.508,2.562,13.592,0a5.789,5.789,0,0,1-.31-5.875Z" transform="translate(-337.618 -76.667)" fill="#f59976"/>
    <path id="Trazado_1271964" data-name="Trazado 1271964" d="M568.63,93.543c.391,8.545-1.888,14.927-7.239,15.632-6.455.851-13.823-5.979-14.214-14.524s4.193-14.711,10.117-15.017c4.9-.253,9.182,3.582,10.737,9.75a20.907,20.907,0,0,1,.6,4.159" transform="translate(-336.959 -47.129)" fill="#f59976"/>
    <path id="Trazado_1271965" data-name="Trazado 1271965" d="M480.49,137.012a10.046,10.046,0,0,0,2.568.229c5.365-.2,10.474-2.573,15.372-4.691,4.084-1.766,8.5-2.9,12.18-5.593,4.012-2.935,6.422-7.451,7.745-12.354,2.206-8.172,1.585-16.959,3.668-25.167.9-3.561,2.319-7.272,1.344-10.812a10.491,10.491,0,0,0-5.523-6.288,14.268,14.268,0,0,0-13.031.056c-3.889,2.132-5.636,6.626-6.452,10.967-.747,3.971-.962,8.112-2.479,11.827a16.821,16.821,0,0,1-6.149,7.6c-2.687,1.793-5.843,2.713-8.44,4.651a18,18,0,0,0-6.348,10.571,31.717,31.717,0,0,0-.459,12.127,9.315,9.315,0,0,0,2.32,4.91,7.389,7.389,0,0,0,3.683,1.964" transform="translate(-291.968 -41.9)" fill="#97614c"/>
    <path id="Trazado_1271966" data-name="Trazado 1271966" d="M554.538,67.244s-4.1-9.209-8.669-8.411-9.525,5.172-6.044,8.8,4.57,1.267,8.517-.387c4.253-1.782,6.2,0,6.2,0" transform="translate(-331.724 -34.795)" fill="#97614c"/>
    <path id="Trazado_1271967" data-name="Trazado 1271967" d="M551.7,83.72c-2.131,0-4.824-1.93-4.964-2.031a.212.212,0,0,1-.05-.283.185.185,0,0,1,.267-.054c.04.029,4.056,2.907,5.929,1.642A3,3,0,0,0,554,80.533c.063-.589.117-1.1.453-1.355a.983.983,0,0,1,.848-.108.205.205,0,0,1,.148.243.2.2,0,0,1-.228.157.65.65,0,0,0-.543.04c-.2.151-.243.577-.3,1.07a3.427,3.427,0,0,1-1.293,2.758,2.436,2.436,0,0,1-1.388.382" transform="translate(-336.651 -46.776)" fill="#3b3638"/>
    <path id="Trazado_1271968" data-name="Trazado 1271968" d="M99.326,397.5H53.791a5.126,5.126,0,0,0-4.974,4.717l-3.089,28.831a5.21,5.21,0,0,0,4.974,5.92H95.42a5.115,5.115,0,0,0,4.956-4.561l3.906-28.831a5.221,5.221,0,0,0-4.956-6.077" transform="translate(-28.141 -235.282)" fill="#b6b6ce"/>
    <path id="Trazado_1271969" data-name="Trazado 1271969" d="M81.948,391.986l-.234,1.718-3.673,27.114a5.113,5.113,0,0,1-4.956,4.563H28.369a5.212,5.212,0,0,1-4.974-5.921L26.152,393.7l.33-3.077a5.128,5.128,0,0,1,4.975-4.718H76.992a5.222,5.222,0,0,1,4.956,6.077" transform="translate(-14.387 -228.422)" fill="#f2f0f7"/>
    <path id="Trazado_1271970" data-name="Trazado 1271970" d="M116.085,438.078l-1.763-3.244,8.948-5.488-8.948-5.488,1.763-3.244,14.238,8.733Z" transform="translate(-70.404 -248.963)" fill="#6cb9ff"/>
    <path id="Trazado_1271971" data-name="Trazado 1271971" d="M52.468,438.078,38.23,429.345l14.238-8.733,1.763,3.244-8.948,5.488,8.948,5.488Z" transform="translate(-23.543 -248.963)" fill="#6cb9ff"/>
    <path id="Trazado_1271990" data-name="Trazado 1271990" d="M0,0,22.518-.565l-.093,3.578L-.093,3.578Z" transform="translate(30.784 189.48) rotate(-61.185)" fill="#6cb9ff"/>
    <path id="Trazado_1271972" data-name="Trazado 1271972" d="M86.422,391.986l-.234,1.718H30.626l.33-3.077a5.128,5.128,0,0,1,4.975-4.718H81.466a5.222,5.222,0,0,1,4.956,6.077" transform="translate(-18.861 -228.422)" fill="#6b6b82"/>
    <path id="Trazado_1271973" data-name="Trazado 1271973" d="M158.29,392.786a1.738,1.738,0,1,1-1.735-1.843,1.791,1.791,0,0,1,1.735,1.843" transform="translate(-95.344 -231.401)" fill="#fff"/>
    <path id="Trazado_1271974" data-name="Trazado 1271974" d="M762.433,350.155H669.506a7.331,7.331,0,0,0-7.1,7.542v29.242a7.332,7.332,0,0,0,7.1,7.543h30.379c-.746,6.02-8.455,11.406-8.455,11.406,10.473,0,17.323-7.9,19.849-11.406h51.154a7.332,7.332,0,0,0,7.1-7.543V357.7a7.332,7.332,0,0,0-7.1-7.542" transform="translate(-407.936 -207.259)" fill="#cfe8ff"/>
    <path id="Trazado_1271975" data-name="Trazado 1271975" d="M864.21,394.39H827.863a.2.2,0,0,1,0-.408H864.21a7.141,7.141,0,0,0,6.908-7.338V357.4a7.141,7.141,0,0,0-6.908-7.338h-6.922a.2.2,0,0,1,0-.408h6.922A7.538,7.538,0,0,1,871.5,357.4v29.242a7.539,7.539,0,0,1-7.292,7.746" transform="translate(-509.713 -206.963)" fill="#3b3638"/>
    <path id="Trazado_1271976" data-name="Trazado 1271976" d="M775.024,374.059H690.26a.832.832,0,0,1,0-1.66h84.763a.832.832,0,0,1,0,1.66" transform="translate(-424.609 -220.425)" fill="#fff"/>
    <path id="Trazado_1271977" data-name="Trazado 1271977" d="M775.024,389.543H690.26a.832.832,0,0,1,0-1.66h84.763a.832.832,0,0,1,0,1.66" transform="translate(-424.609 -229.59)" fill="#fff"/>
    <path id="Trazado_1271978" data-name="Trazado 1271978" d="M775.024,405.027H690.26a.832.832,0,0,1,0-1.66h84.763a.832.832,0,0,1,0,1.66" transform="translate(-424.609 -238.755)" fill="#fff"/>
    <path id="Trazado_1271979" data-name="Trazado 1271979" d="M775.024,420.511H690.26a.832.832,0,0,1,0-1.66h84.763a.832.832,0,0,1,0,1.66" transform="translate(-424.609 -247.92)" fill="#fff"/>
    <path id="Trazado_1271980" data-name="Trazado 1271980" d="M775.024,436H690.26a.832.832,0,0,1,0-1.66h84.763a.832.832,0,0,1,0,1.66" transform="translate(-424.609 -257.085)" fill="#fff"/>
    <path id="Trazado_1271981" data-name="Trazado 1271981" d="M164.975,474.629l-37.88,69.7a3.808,3.808,0,0,0,3.1,5.7h75.761a3.808,3.808,0,0,0,3.1-5.7l-37.88-69.7a3.478,3.478,0,0,0-6.2,0" transform="translate(-77.971 -279.81)" fill="#ffd453"/>
    <path id="Trazado_1271982" data-name="Trazado 1271982" d="M212.172,559.249H151.349a2.465,2.465,0,0,1-2.177-1.335,2.786,2.786,0,0,1,0-2.671l30.411-55.955a2.442,2.442,0,0,1,4.354,0l30.412,55.955a2.788,2.788,0,0,1,0,2.671,2.465,2.465,0,0,1-2.177,1.335m-62.335-3.6a1.934,1.934,0,0,0,0,1.854,1.712,1.712,0,0,0,1.512.927h60.823a1.711,1.711,0,0,0,1.511-.927,1.933,1.933,0,0,0,0-1.854L183.272,499.7a1.7,1.7,0,0,0-3.023,0Z" transform="translate(-91.656 -294.741)" fill="#3b3638"/>
    <path id="Trazado_1271983" data-name="Trazado 1271983" d="M228.732,566.059l2.977-20.69a4.667,4.667,0,1,0-9.128,0l2.977,20.69a1.593,1.593,0,0,0,3.173,0" transform="translate(-137.041 -319.466)" fill="#1e535a"/>
    <path id="Trazado_1271984" data-name="Trazado 1271984" d="M233.416,621.1a1.881,1.881,0,1,0-1.877,1.994,1.938,1.938,0,0,0,1.877-1.994" transform="translate(-141.434 -366.455)" fill="#1e535a"/>
    <path id="Trazado_1271985" data-name="Trazado 1271985" d="M283.374,251.312H270.405a.2.2,0,0,1,0-.408h12.969a3.457,3.457,0,0,0,3.34-2.96l2.933-17.093a.2.2,0,0,1,.224-.164.2.2,0,0,1,.154.238l-2.933,17.093a3.848,3.848,0,0,1-3.718,3.295" transform="translate(-166.408 -136.543)" fill="#3b3638"/>
    <path id="Trazado_1271986" data-name="Trazado 1271986" d="M267.374,358.713H254.405a.2.2,0,0,1,0-.408h12.969a3.457,3.457,0,0,0,3.34-2.96l2.933-17.093a.2.2,0,0,1,.224-.164.2.2,0,0,1,.154.237l-2.933,17.093a3.848,3.848,0,0,1-3.718,3.295" transform="translate(-156.555 -200.115)" fill="#3b3638"/>
    <path id="Trazado_1271987" data-name="Trazado 1271987" d="M264.41,462.14h-5.963a.2.2,0,0,1,0-.408h5.963a3.456,3.456,0,0,0,3.34-2.96l2.933-17.093a.2.2,0,0,1,.224-.164.2.2,0,0,1,.154.238l-2.933,17.093a3.848,3.848,0,0,1-3.718,3.295" transform="translate(-159.044 -261.334)" fill="#3b3638"/>
    <path id="Trazado_1271988" data-name="Trazado 1271988" d="M600.565,166.153l-.029,0-3.853-.622a.2.2,0,0,1-.161-.233.194.194,0,0,1,.219-.171l3.854.622a.2.2,0,0,1,.161.232.2.2,0,0,1-.19.173" transform="translate(-367.36 -97.737)" fill="#3b3638"/>
    <path id="Trazado_1271989" data-name="Trazado 1271989" d="M657.408,175.373h-1.735a.2.2,0,0,1,0-.408h1.735a.2.2,0,0,1,0,.408" transform="translate(-403.672 -103.563)" fill="#3b3638"/>
  </g>
</svg>
