<svg xmlns="http://www.w3.org/2000/svg" xmlns:xlink="http://www.w3.org/1999/xlink" width="84" height="84" viewBox="0 0 84 84">
  <defs>
    <clipPath id="clip-path">
      <rect id="Rectángulo_460012" data-name="Rectángulo 460012" width="56" height="56" fill="#344866"/>
    </clipPath>
  </defs>
  <g id="Grupo_1208936" data-name="Grupo 1208936" transform="translate(0.289 0.137)">
    <g id="Grupo_1119665" data-name="Grupo 1119665" transform="translate(-0.289 -0.137)">
      <rect id="Rectángulo_402006" data-name="Rectángulo 402006" width="84" height="84" rx="5" fill="#a4e7f0"/>
    </g>
    <g id="Grupo_1208939" data-name="Grupo 1208939" transform="translate(13.711 13.863)">
      <g id="Grupo_1208938" data-name="Grupo 1208938" transform="translate(0 0)" clip-path="url(#clip-path)">
        <path id="Trazado_1271921" data-name="Trazado 1271921" d="M6.585,17.579c-2.129-.316-6.42,1.068-6.5-1.835C-.078,10.31.038,6.239.1,1.5A1.97,1.97,0,0,1,1.55.141,53.852,53.852,0,0,1,9.072.123a2.02,2.02,0,0,1,.6.08,39.255,39.255,0,0,1,5.255,5l.021,10.677a2.022,2.022,0,0,1-1.78,1.695H8.294V20.22A1.1,1.1,0,0,0,9.4,21.1H25.139l1.878-1.6.086-1.92H22.4A1.946,1.946,0,0,1,20.6,15.9c.345-4.48-.445-9.526,0-13.935A1.764,1.764,0,0,1,22.245.146,53.334,53.334,0,0,1,29.764.121c.242.023.485-.017.683.162l5,4.925.024,10.841a1.982,1.982,0,0,1-1.784,1.531h-4.7l.086,1.92,1.879,1.6H46.685a1.1,1.1,0,0,0,1.109-.883V17.579H42.921a2.016,2.016,0,0,1-1.8-1.841c.314-4.392-.416-9.281-.007-13.612.1-1.018.47-1.825,1.647-1.98A53.171,53.171,0,0,1,50.283.121c.242.023.485-.017.683.162l5,4.763L56,15.9c-.319,2.652-4.564,1.391-6.5,1.682V20.54c0,.84-1.245,2.023-2.148,2.151L30.95,22.7l-.344.158c.078.8-1.622,1.335-1.622,1.443v9.124h15.9a1.809,1.809,0,0,0-1.492-1.884L31.638,31.5c-.825-.148-1.246-1.454.166-1.6,3.666-.373,8.039.263,11.782.019a3.671,3.671,0,0,1,3.171,3.434c.424.286,4.74-.093,5.731.077a1.743,1.743,0,0,1,1.214,2.24c-2.412,5.714-3.881,12.1-6.343,17.751A3.616,3.616,0,0,1,43.952,56l-31.424-.048a3.761,3.761,0,0,1-3.2-3.722c.411-7.15-.557-14.848-.009-21.933.133-1.726,1.012-3.56,3.039-3.877a64.726,64.726,0,0,1,9.364-.038,4.1,4.1,0,0,1,1.507.51c1.366.719,2.183,2.712,3.878,2.851V24.3a7.565,7.565,0,0,1-1.032-.554c-.381-.364-.463-.964-.934-1.047l-16.4-.01c-.786-.06-2.148-1.331-2.148-1.99ZM8.465,1.732H1.8V15.818H13.082v-9.6H10.09c-.494,0-1.625-.907-1.625-1.361Zm20.519,0H22.572l-.256.24V15.818H33.772v-9.6H30.78c-.649,0-1.8-.9-1.8-1.52ZM54.291,6.214H51.3c-.378,0-1.625-.82-1.625-1.2V1.972l-.256-.24H43.006V15.818H54.291ZM11.714,4.451,10.177,3.013l0,1.44Zm20.69,0L30.867,3.013l0,1.44Zm20.518,0L51.386,3.013l0,1.44ZM28.044,21.011a.934.934,0,1,0,0,1.867.934.934,0,1,0,0-1.867M11.2,29.183V49.753l5.175-14.285c.263-.672,1.684-2.043,2.434-2.043H27.1L27.1,31.511c-2.3.146-3.629-3.1-5.454-3.457A57,57,0,0,0,13.012,28c-.624.079-1.654.609-1.81,1.186m40.867,5.843H19.323c-.562,0-1.3.892-1.412,1.4L11.78,53.59c-.154.613,1.058.769,1.553.811H43.613a2.4,2.4,0,0,0,1.918-1.086Z" transform="translate(0 0)" fill="#344866"/>
        <path id="Trazado_1271922" data-name="Trazado 1271922" d="M21.539,7.346a36.226,36.226,0,0,1,4.911-.023c1.138.167,1.116,1.413.178,1.587a41.331,41.331,0,0,1-5.121,0,.7.7,0,0,1-.448-.22.876.876,0,0,1,.479-1.342" transform="translate(3.462 0.661)" fill="#344866"/>
        <path id="Trazado_1271923" data-name="Trazado 1271923" d="M21.535,10.573a42.7,42.7,0,0,1,5.09-.029.807.807,0,0,1,0,1.593,41.4,41.4,0,0,1-5.126,0,.811.811,0,0,1,.036-1.567" transform="translate(3.466 0.956)" fill="#344866"/>
        <path id="Trazado_1271924" data-name="Trazado 1271924" d="M3.944,10.575a32.019,32.019,0,0,1,5.053,0,.79.79,0,0,1,.034,1.56,39.9,39.9,0,0,1-5.121,0,.79.79,0,0,1,.034-1.56" transform="translate(0.54 0.956)" fill="#344866"/>
        <path id="Trazado_1271925" data-name="Trazado 1271925" d="M3.517,7.512a1.681,1.681,0,0,1,.892-.205,30.283,30.283,0,0,1,4.441.017A.8.8,0,0,1,9.029,8.91a40.076,40.076,0,0,1-5.12,0,.832.832,0,0,1-.392-1.4" transform="translate(0.543 0.66)" fill="#344866"/>
        <path id="Trazado_1271926" data-name="Trazado 1271926" d="M39.539,10.575a32.019,32.019,0,0,1,5.053,0,.79.79,0,0,1,.034,1.56,39.9,39.9,0,0,1-5.121,0,.79.79,0,0,1,.034-1.56" transform="translate(6.439 0.956)" fill="#344866"/>
        <path id="Trazado_1271927" data-name="Trazado 1271927" d="M39.112,7.512A1.681,1.681,0,0,1,40,7.307a30.283,30.283,0,0,1,4.441.017.8.8,0,0,1,.178,1.586,40.076,40.076,0,0,1-5.12,0,.832.832,0,0,1-.392-1.4" transform="translate(6.442 0.66)" fill="#344866"/>
        <path id="Trazado_1271928" data-name="Trazado 1271928" d="M32.178,45.968a32.019,32.019,0,0,1,5.053,0,.79.79,0,0,1,.034,1.56,39.894,39.894,0,0,1-5.121,0,.79.79,0,0,1,.034-1.56" transform="translate(5.219 4.185)" fill="#344866"/>
        <path id="Trazado_1271929" data-name="Trazado 1271929" d="M32.961,42.905a1.681,1.681,0,0,1,.892-.205,30.283,30.283,0,0,1,4.441.017.8.8,0,0,1,.178,1.586,40.075,40.075,0,0,1-5.12,0,.832.832,0,0,1-.392-1.4" transform="translate(5.423 3.89)" fill="#344866"/>
      </g>
    </g>
  </g>
</svg>
