<svg xmlns="http://www.w3.org/2000/svg" xmlns:xlink="http://www.w3.org/1999/xlink" width="85" height="85" viewBox="0 0 85 85">
  <defs>
    <clipPath id="clip-path">
      <rect id="Rectángulo_460982" data-name="Rectángulo 460982" width="67.458" height="67.342" fill="#344866"/>
    </clipPath>
  </defs>
  <g id="Grupo_1210332" data-name="Grupo 1210332" transform="translate(0.578 0.031)">
    <path id="Sustracción_110" data-name="Sustracción 110" d="M0,0H85V85H0Z" transform="translate(-0.578 -0.031)" fill="#69d7e5"/>
    <g id="Grupo_1211556" data-name="Grupo 1211556" transform="translate(8.421 8.969)">
      <g id="Grupo_1211555" data-name="Grupo 1211555" clip-path="url(#clip-path)">
        <path id="Trazado_1274918" data-name="Trazado 1274918" d="M39.619,34.618l-4.879,3.638-.038,4.6,2.79.018a1.316,1.316,0,0,1,1.3,1.3l-.007,5.571A1.3,1.3,0,0,1,37.5,51l-7.549,0a1.318,1.318,0,0,1-1.279-1.25l-.007-5.576a1.314,1.314,0,0,1,1.3-1.3l2.773-.019L32.75,38.3l-4.855-3.651-5.41,0-.014,8.2,2.66.023a1.412,1.412,0,0,1,1.428,1.484l-.025,5.409A1.342,1.342,0,0,1,25.162,51L17.8,51a1.352,1.352,0,0,1-1.41-1.416l0-5.219A1.459,1.459,0,0,1,18,42.859l2.5-.005L20.5,33.736a1.031,1.031,0,0,1,1.008-1.061l6.392,0,4.852-3.653L32.741,26.5l-4.5-.026A1.642,1.642,0,0,1,26.624,24.7l.011-6.787a1.528,1.528,0,0,1,1.4-1.529l1.6-.093-1.694-2.231c-3.444.792-7.693-1.017-7.439-4.131a3.581,3.581,0,0,1,1.7-2.7,7.4,7.4,0,0,1,8.265.29,3.331,3.331,0,0,1,1.313,3.038,3.793,3.793,0,0,1-1.96,2.726l2.364,3.071h3.1l2.359-3.076a3.706,3.706,0,0,1-1.977-2.864c-.234-3.152,3.9-4.938,7.54-4.077a3.727,3.727,0,0,0-.694-3.135,3.844,3.844,0,0,0-3.1-1.272L14.316,1.94l-.032,8.278a1.133,1.133,0,0,1-.851,1.1c-.352.079-1.116-.375-1.118-.816L12.3,2.336A2.3,2.3,0,0,1,14.547,0L39.988,0A11.163,11.163,0,0,1,47.63,2.975C49.2,4.416,50.614,5.851,52.078,7.4a11.468,11.468,0,0,1,3.067,7.839l.029,5.188,4.312.051A4.168,4.168,0,0,1,63.334,24.9V59.214l2.438.081c1.564.052,1.587,1.646,1.671,2.8.208,2.856-1.523,5.25-4.514,5.25L4.336,67.336c-2.9,0-4.514-2.565-4.321-5.219.087-1.2.106-2.764,1.679-2.821l2.43-.088L4.131,24.7a4.207,4.207,0,0,1,4-4.239l4.158-.039.012-5.529a1.056,1.056,0,0,1,.962-.978,1.036,1.036,0,0,1,1.021,1.162v40.08H53.17l0-39.7a3.5,3.5,0,0,0-3.185-3.637l-3.48.022a6.643,6.643,0,0,1-6.938,2.194l-1.758,2.259,1.41.063a1.611,1.611,0,0,1,1.611,1.764V24.7a1.641,1.641,0,0,1-1.612,1.773l-4.486.02-.03,2.524,4.86,3.656h6.387a1.03,1.03,0,0,1,1.009,1.062l-.009,9.112,2.684.023a1.412,1.412,0,0,1,1.432,1.485l0,5.228A1.35,1.35,0,0,1,49.655,51L42.3,51a1.342,1.342,0,0,1-1.371-1.238l-.026-5.4a1.459,1.459,0,0,1,1.609-1.5l2.475-.008,0-8.184ZM50.2,9.9l1.53.21a53.658,53.658,0,0,0-4.322-4.6A23.73,23.73,0,0,0,45.017,3.4a16.64,16.64,0,0,1,.247,1.976l.023,4.441Zm-20.357.233a1.953,1.953,0,0,0-.507-1.014C26.4,6.944,22.28,8.6,22.468,10.285a1.952,1.952,0,0,0,.733,1.11c2.992,1.887,6.781.239,6.639-1.264m14.3,1.318a3.664,3.664,0,0,1-.865-2.975c-2.568-1.144-6.127.4-5.627,1.979.562,1.772,4.385,2.429,6.493,1M28.6,24.509H38.862V18.324H28.6ZM61.36,59.237l-.01-34.673a2.308,2.308,0,0,0-2.411-2.171l-3.789.024.03,2.09,2.782.006a1.362,1.362,0,0,1,1.288,1.338l0,8.661a1.1,1.1,0,0,1-1.013.967c-.336.006-.97-.411-.97-.8l-.015-8.21-2.092.068,0,28.593,2.1.009V39.2a1,1,0,1,1,1.994-.023v16.57c0,.54-.473,1.382-1.149,1.382H9.359c-.678,0-1.149-.825-1.149-1.4V25.878A1.338,1.338,0,0,1,9.5,24.515l2.779-.012.029-2.084-3.77-.028A2.319,2.319,0,0,0,6.1,24.729l0,34.484,2.692.029a1.086,1.086,0,0,1,.836,1.021,1.164,1.164,0,0,1-1.049.956l-6.58,0,.033,1.875a2.317,2.317,0,0,0,2.322,2.287H63.1a2.313,2.313,0,0,0,2.32-2.288l.016-1.873-23.179,0a4.987,4.987,0,0,1-4.192,2.066L29,63.267a4.85,4.85,0,0,1-3.8-2.046l-11.835,0a1.177,1.177,0,0,1-1.146-.92c-.051-.329.378-1.053.787-1.054l12.864-.015L27,60.245a3.351,3.351,0,0,0,2.389,1.08l8.876-.008a2.614,2.614,0,0,0,2.155-1.087l1.185-1ZM12.3,26.48H10.2V55.163h2.1ZM33.765,36.567l3.791-2.913-3.838-2.906L29.9,33.672Zm-9.19,8.285H18.39V49h6.185Zm12.259,0H30.625V49h6.209Zm12.235,0H42.884V49h6.185Z" transform="translate(0 0)" fill="#344866"/>
      </g>
    </g>
  </g>
</svg>
