<svg xmlns="http://www.w3.org/2000/svg" xmlns:xlink="http://www.w3.org/1999/xlink" width="187.711" height="121.729" viewBox="0 0 187.711 121.729">
  <defs>
    <clipPath id="clip-path">
      <rect id="Rectángulo_460782" data-name="Rectángulo 460782" width="139.789" height="30.711" fill="none"/>
    </clipPath>
    <clipPath id="clip-path-2">
      <rect id="Rectángulo_460781" data-name="Rectángulo 460781" width="139.789" height="30.712" fill="none"/>
    </clipPath>
    <clipPath id="clip-path-3">
      <rect id="Rectángulo_460757" data-name="Rectángulo 460757" width="9.305" height="8.282" fill="none"/>
    </clipPath>
    <clipPath id="clip-path-4">
      <rect id="Rectángulo_460768" data-name="Rectángulo 460768" width="32.415" height="20.427" fill="none"/>
    </clipPath>
    <clipPath id="clip-path-5">
      <rect id="Rectángulo_460780" data-name="Rectángulo 460780" width="30.081" height="18.959" fill="none"/>
    </clipPath>
    <clipPath id="clip-path-6">
      <rect id="Rectángulo_460755" data-name="Rectángulo 460755" width="81.706" height="110" fill="none"/>
    </clipPath>
    <clipPath id="clip-path-8">
      <rect id="Rectángulo_460746" data-name="Rectángulo 460746" width="5.955" height="4.637" fill="none"/>
    </clipPath>
    <clipPath id="clip-path-9">
      <rect id="Rectángulo_460747" data-name="Rectángulo 460747" width="5.981" height="4.884" fill="none"/>
    </clipPath>
  </defs>
  <g id="Grupo_1211733" data-name="Grupo 1211733" transform="translate(-289.711 -768)">
    <g id="Grupo_1211022" data-name="Grupo 1211022" transform="translate(0.434 -8100.039)">
      <g id="Grupo_1204518" data-name="Grupo 1204518" transform="translate(289.277 8868.039)">
        <rect id="Rectángulo_455283" data-name="Rectángulo 455283" width="187.711" height="121.729" rx="19" fill="#9ed1ff"/>
      </g>
    </g>
    <g id="Grupo_1211032" data-name="Grupo 1211032" transform="translate(342.713 775.333)">
      <g id="Grupo_1211045" data-name="Grupo 1211045" transform="translate(-30.042 61.588)">
        <g id="Grupo_1211044" data-name="Grupo 1211044" clip-path="url(#clip-path)">
          <path id="Trazado_1273487" data-name="Trazado 1273487" d="M19.64,23.195H10.889v1.7h17.5v-1.7Z" transform="translate(2.731 5.817)" fill="#1a222b"/>
          <path id="Trazado_1273488" data-name="Trazado 1273488" d="M17.856,13.846H13.2V25.539h9.3V13.846Z" transform="translate(3.311 3.472)" fill="#1a222b"/>
          <path id="Trazado_1273489" data-name="Trazado 1273489" d="M14.96,23.195H6.207v1.7h17.5v-1.7Z" transform="translate(1.557 5.817)" fill="#2c3540"/>
          <path id="Trazado_1273490" data-name="Trazado 1273490" d="M14.745,13.846H10.093V25.539H19.4V13.846Z" transform="translate(2.531 3.472)" fill="#1a222b"/>
          <g id="Grupo_1211043" data-name="Grupo 1211043" transform="translate(0 0)">
            <g id="Grupo_1211042" data-name="Grupo 1211042" clip-path="url(#clip-path-2)">
              <g id="Grupo_1211035" data-name="Grupo 1211035" transform="translate(12.625 17.318)" opacity="0.5" style="mix-blend-mode: multiply;isolation: isolate">
                <g id="Grupo_1211034" data-name="Grupo 1211034">
                  <g id="Grupo_1211033" data-name="Grupo 1211033" clip-path="url(#clip-path-3)">
                    <rect id="Rectángulo_460756" data-name="Rectángulo 460756" width="9.305" height="8.281" transform="translate(0)" fill="#2c3540"/>
                  </g>
                </g>
              </g>
              <path id="Trazado_1273491" data-name="Trazado 1273491" d="M37.015.8V22.874a.805.805,0,0,1-.8.8H2.012a.807.807,0,0,1-.8-.8V.8a.806.806,0,0,1,.8-.8h34.2a.8.8,0,0,1,.8.8" transform="translate(0.303 0)" fill="#1a222b"/>
              <path id="Trazado_1273492" data-name="Trazado 1273492" d="M35.808.8V22.874a.806.806,0,0,1-.8.8H.8a.807.807,0,0,1-.8-.8V.8A.806.806,0,0,1,.8,0H35a.8.8,0,0,1,.8.8" transform="translate(0 0)" fill="#2c3540"/>
              <path id="Trazado_1273493" data-name="Trazado 1273493" d="M34.246,21.41a.8.8,0,0,1-.792.794H1.834a.8.8,0,0,1-.8-.794V1.771a.8.8,0,0,1,.8-.789h31.62a.793.793,0,0,1,.792.789Z" transform="translate(0.261 0.247)" fill="#e4e8ed"/>
              <path id="Trazado_1273494" data-name="Trazado 1273494" d="M20.451,1.644H1.951V21.211H32.879V1.644Z" transform="translate(0.489 0.413)" fill="#fff"/>
              <rect id="Rectángulo_460758" data-name="Rectángulo 460758" width="23.044" height="1.026" transform="translate(4.396 4.903)" fill="#2d4375"/>
              <rect id="Rectángulo_460759" data-name="Rectángulo 460759" width="23.044" height="1.024" transform="translate(4.396 15.032)" fill="#2d4375"/>
              <rect id="Rectángulo_460760" data-name="Rectángulo 460760" width="12.966" height="1.023" transform="translate(5.926 6.929)" fill="#2d4375"/>
              <rect id="Rectángulo_460761" data-name="Rectángulo 460761" width="20.719" height="1.027" transform="translate(5.926 8.953)" fill="#2d4375"/>
              <rect id="Rectángulo_460762" data-name="Rectángulo 460762" width="12.966" height="1.024" transform="translate(5.926 17.058)" fill="#2d4375"/>
              <rect id="Rectángulo_460763" data-name="Rectángulo 460763" width="20.719" height="1.026" transform="translate(5.926 19.082)" fill="#2d4375"/>
              <rect id="Rectángulo_460764" data-name="Rectángulo 460764" width="22.603" height="1.024" transform="translate(4.398 13.006)" fill="#2d4375"/>
              <rect id="Rectángulo_460765" data-name="Rectángulo 460765" width="27.016" height="1.024" transform="translate(4.385 10.981)" fill="#2d4375"/>
              <path id="Trazado_1273495" data-name="Trazado 1273495" d="M20.451,1.644H1.951V3.186H32.879V1.644Z" transform="translate(0.489 0.413)" fill="#17283d"/>
              <rect id="Rectángulo_460766" data-name="Rectángulo 460766" width="0.778" height="0.727" transform="translate(31.995 2.464)" fill="#fff"/>
              <rect id="Rectángulo_460767" data-name="Rectángulo 460767" width="0.779" height="0.727" transform="translate(30.363 2.464)" fill="#fff"/>
              <path id="Trazado_1273496" data-name="Trazado 1273496" d="M2.355,4.538l.422-.121-.422-.1V3.933l.856.3v.386l-.856.31Z" transform="translate(0.591 0.987)" fill="#cc2221"/>
              <path id="Trazado_1273497" data-name="Trazado 1273497" d="M2.355,9.4l.422-.121-.422-.1V8.79l.856.3v.388l-.856.31Z" transform="translate(0.591 2.205)" fill="#cc2221"/>
              <path id="Trazado_1273498" data-name="Trazado 1273498" d="M2.355,11.015l.422-.12-.422-.1v-.386l.856.3v.386l-.856.31Z" transform="translate(0.591 2.611)" fill="#cc2221"/>
              <path id="Trazado_1273499" data-name="Trazado 1273499" d="M3.516,6.158l.422-.121-.422-.1V5.553l.852.3v.386l-.852.31Z" transform="translate(0.882 1.393)" fill="#cc2221"/>
              <path id="Trazado_1273500" data-name="Trazado 1273500" d="M3.516,7.777l.422-.121-.422-.1V7.17l.852.3v.385l-.852.31Z" transform="translate(0.882 1.799)" fill="#cc2221"/>
              <path id="Trazado_1273501" data-name="Trazado 1273501" d="M2.355,12.636l.422-.121-.422-.1V12.03l.856.3v.388l-.856.31Z" transform="translate(0.591 3.017)" fill="#cc2221"/>
              <path id="Trazado_1273502" data-name="Trazado 1273502" d="M3.516,14.255l.422-.12-.422-.1v-.388l.852.3v.386l-.852.31Z" transform="translate(0.882 3.423)" fill="#cc2221"/>
              <path id="Trazado_1273503" data-name="Trazado 1273503" d="M3.516,15.874l.422-.121-.422-.1v-.386l.852.3v.386l-.852.309Z" transform="translate(0.882 3.829)" fill="#cc2221"/>
              <g id="Grupo_1211038" data-name="Grupo 1211038" transform="translate(1.3 1.229)" opacity="0.3" style="mix-blend-mode: screen;isolation: isolate">
                <g id="Grupo_1211037" data-name="Grupo 1211037">
                  <g id="Grupo_1211036" data-name="Grupo 1211036" clip-path="url(#clip-path-4)">
                    <path id="Trazado_1273504" data-name="Trazado 1273504" d="M1.039,21.41V1.771a.8.8,0,0,1,.8-.789h31.62Z" transform="translate(-1.039 -0.982)" fill="#fff"/>
                  </g>
                </g>
              </g>
              <path id="Trazado_1273505" data-name="Trazado 1273505" d="M118.425,4.776V25.26a.748.748,0,0,1-.747.743H85.935a.745.745,0,0,1-.743-.743V4.776a.747.747,0,0,1,.743-.744h31.743a.749.749,0,0,1,.747.744" transform="translate(21.364 1.012)" fill="#1a222b"/>
              <path id="Trazado_1273506" data-name="Trazado 1273506" d="M117.3,4.776V25.26a.746.746,0,0,1-.745.743H84.816a.745.745,0,0,1-.744-.743V4.776a.746.746,0,0,1,.744-.744h31.741a.747.747,0,0,1,.745.744" transform="translate(21.083 1.012)" fill="#2c3540"/>
              <rect id="Rectángulo_460769" data-name="Rectángulo 460769" width="30.817" height="19.695" rx="0.588" transform="translate(106.361 6.183)" fill="#e4e8ed"/>
              <path id="Trazado_1273507" data-name="Trazado 1273507" d="M102.486,6.018H86.132v17.3h27.339V6.018Z" transform="translate(21.6 1.51)" fill="#fff"/>
              <rect id="Rectángulo_460770" data-name="Rectángulo 460770" width="20.371" height="0.907" transform="translate(109.461 10.044)" fill="#2d4375"/>
              <rect id="Rectángulo_460771" data-name="Rectángulo 460771" width="20.371" height="0.908" transform="translate(109.461 18.997)" fill="#2d4375"/>
              <rect id="Rectángulo_460772" data-name="Rectángulo 460772" width="11.462" height="0.903" transform="translate(110.811 11.837)" fill="#2d4375"/>
              <rect id="Rectángulo_460773" data-name="Rectángulo 460773" width="18.318" height="0.907" transform="translate(110.81 13.625)" fill="#2d4375"/>
              <rect id="Rectángulo_460774" data-name="Rectángulo 460774" width="11.462" height="0.906" transform="translate(110.811 20.79)" fill="#2d4375"/>
              <rect id="Rectángulo_460775" data-name="Rectángulo 460775" width="18.318" height="0.906" transform="translate(110.81 22.58)" fill="#2d4375"/>
              <rect id="Rectángulo_460776" data-name="Rectángulo 460776" width="19.984" height="0.906" transform="translate(109.459 17.208)" fill="#2d4375"/>
              <rect id="Rectángulo_460777" data-name="Rectángulo 460777" width="23.884" height="0.906" transform="translate(109.449 15.417)" fill="#2d4375"/>
              <path id="Trazado_1273508" data-name="Trazado 1273508" d="M102.486,6.018H86.132V7.381h27.339V6.018Z" transform="translate(21.6 1.51)" fill="#17283d"/>
              <rect id="Rectángulo_460778" data-name="Rectángulo 460778" width="0.688" height="0.642" transform="translate(133.859 7.889)" fill="#fff"/>
              <rect id="Rectángulo_460779" data-name="Rectángulo 460779" width="0.688" height="0.642" transform="translate(132.416 7.889)" fill="#fff"/>
              <path id="Trazado_1273509" data-name="Trazado 1273509" d="M86.489,8.577l.373-.108-.373-.085V8.042l.753.263v.343l-.753.271Z" transform="translate(21.69 2.017)" fill="#cc2221"/>
              <path id="Trazado_1273510" data-name="Trazado 1273510" d="M86.489,12.873l.373-.106-.373-.088v-.343l.753.261v.344l-.753.275Z" transform="translate(21.69 3.094)" fill="#cc2221"/>
              <path id="Trazado_1273511" data-name="Trazado 1273511" d="M86.489,14.3l.373-.106-.373-.088v-.341l.753.261v.341l-.753.274Z" transform="translate(21.69 3.453)" fill="#cc2221"/>
              <path id="Trazado_1273512" data-name="Trazado 1273512" d="M87.514,10.01l.371-.108-.371-.086V9.473l.753.263v.341l-.753.274Z" transform="translate(21.946 2.376)" fill="#cc2221"/>
              <path id="Trazado_1273513" data-name="Trazado 1273513" d="M87.514,11.44l.371-.106-.371-.085V10.9l.753.264v.341l-.753.273Z" transform="translate(21.946 2.735)" fill="#cc2221"/>
              <path id="Trazado_1273514" data-name="Trazado 1273514" d="M86.489,15.735l.373-.106-.373-.086V15.2l.753.261V15.8l-.753.274Z" transform="translate(21.69 3.812)" fill="#cc2221"/>
              <path id="Trazado_1273515" data-name="Trazado 1273515" d="M87.514,17.167l.371-.108-.371-.085v-.343l.753.263v.341l-.753.274Z" transform="translate(21.946 4.171)" fill="#cc2221"/>
              <path id="Trazado_1273516" data-name="Trazado 1273516" d="M87.514,18.6l.371-.108-.371-.085v-.341l.753.261v.343l-.753.273Z" transform="translate(21.946 4.53)" fill="#cc2221"/>
              <g id="Grupo_1211041" data-name="Grupo 1211041" transform="translate(106.361 6.183)" opacity="0.3" style="mix-blend-mode: screen;isolation: isolate">
                <g id="Grupo_1211040" data-name="Grupo 1211040">
                  <g id="Grupo_1211039" data-name="Grupo 1211039" clip-path="url(#clip-path-5)">
                    <path id="Trazado_1273517" data-name="Trazado 1273517" d="M85.036,23.9V5.678a.736.736,0,0,1,.735-.735h29.346Z" transform="translate(-85.036 -4.943)" fill="#fff"/>
                  </g>
                </g>
              </g>
              <path id="Trazado_1273518" data-name="Trazado 1273518" d="M97.866,21.6H74.143v.432A3.266,3.266,0,0,0,77.41,25.3h40.52a3.265,3.265,0,0,0,3.265-3.265V21.6Z" transform="translate(18.593 5.417)" fill="#1a222b"/>
              <path id="Trazado_1273519" data-name="Trazado 1273519" d="M109.088,21.6v.429a3.265,3.265,0,0,1-3.265,3.265H77.157a3.266,3.266,0,0,1-3.266-3.265V21.6H88.744a1.283,1.283,0,0,0,1.288,1.278h2.924A1.275,1.275,0,0,0,94.234,21.6Z" transform="translate(18.53 5.417)" fill="#1a222b"/>
            </g>
          </g>
        </g>
      </g>
      <g id="Grupo_1211031" data-name="Grupo 1211031" clip-path="url(#clip-path-6)">
        <g id="Grupo_1211030" data-name="Grupo 1211030" transform="translate(0 0)">
          <g id="Grupo_1211029" data-name="Grupo 1211029" clip-path="url(#clip-path-6)">
            <path id="Trazado_1273401" data-name="Trazado 1273401" d="M39.013,37.4l.716,3.905,4.794-1.282L41.69,28.451A16.491,16.491,0,0,0,40.2,26.264c-.006-.009-.022-.017-.033-.028-.388-.332-3.7-1.349-5.355-2.009a5.772,5.772,0,0,1-.789-.369V20.295H28.853v3.563c-.882.563-5.536,1.839-6.177,2.406-.253.225-1.288,1.662-1.288,1.662L18.351,40.019l4.744,1.04.777-4.073a71.069,71.069,0,0,1-.012,7.355c-.42,4.642-1.132,9.769-1.132,9.769l17.738-.166s-.922-5.2-1.353-9.95c-.242-2.733-.076-5.46-.1-6.6" transform="translate(10.1 11.169)" fill="#d4a47d"/>
            <g id="Grupo_1211025" data-name="Grupo 1211025" transform="translate(38.953 31.464)" opacity="0.3" style="mix-blend-mode: multiply;isolation: isolate">
              <g id="Grupo_1211024" data-name="Grupo 1211024">
                <g id="Grupo_1211023" data-name="Grupo 1211023" clip-path="url(#clip-path-8)">
                  <path id="Trazado_1273402" data-name="Trazado 1273402" d="M31.08,24.227a7.539,7.539,0,0,1-.789.6.888.888,0,0,1-.2.1H28.368a12.372,12.372,0,0,1-2.175-1.761,10.244,10.244,0,0,1-1.068-2.564v-.312h5.166v3.563a5.772,5.772,0,0,0,.789.369" transform="translate(-25.125 -20.295)" fill="#a88f7b"/>
                </g>
              </g>
            </g>
            <path id="Trazado_1273403" data-name="Trazado 1273403" d="M36.5,33.031l.191,4.6L36.575,47.1l-2.313-.78-.8-8.735-1.141-4.039Z" transform="translate(17.785 18.179)" fill="#ffc89f"/>
            <path id="Trazado_1273404" data-name="Trazado 1273404" d="M34.044,44.241l-.028-.771s-.017-.051-.045-.144a1.57,1.57,0,0,0-.031-.344.723.723,0,0,0,.321-.141,4.539,4.539,0,0,0,.5-.553c.043-.048.078-.1.116-.149a.451.451,0,0,0,.118-.1c.152.2.3.394.445.6.037.057.081.119.121.181l-.278.423c-.019.535-.045,1.741-.045,1.741L34.674,46.1s-.178,1.006-.381,1.1c-.04.022-.146-.008-.248-.136a.946.946,0,0,1-.2-.744c.074-.243.26-.825.26-.825Z" transform="translate(18.617 23.134)" fill="#d4a47d"/>
            <path id="Trazado_1273405" data-name="Trazado 1273405" d="M33.6,46.036c-.161.02-.349-.121-.384-.411-.031-.2-.065-.563-.065-.563l-.1-.851c.082-.149.636-2.31.636-2.31l.383-.977,1.392.068c-.017.033.259,1.867-.239,2.2a9.2,9.2,0,0,0-1.332,1.321s0,.569.016.744c.053.6-.127.761-.31.781" transform="translate(18.19 22.523)" fill="#ffc89f"/>
            <path id="Trazado_1273406" data-name="Trazado 1273406" d="M34.373,41l.462.313.581.522.893,2.569-.836,2.129-1.112,1.135a.232.232,0,0,1-.326.047.234.234,0,0,1-.023-.33l1.014-1.811s.155-2.4-.726-2.079c-.532.186.085-2.462.071-2.495" transform="translate(18.688 22.567)" fill="#ffc89f"/>
            <path id="Trazado_1273407" data-name="Trazado 1273407" d="M22.422,62.439a11.512,11.512,0,0,0-.206,2.495,4.43,4.43,0,0,0,1.036,1.87,2.451,2.451,0,0,0,2.192.014,6.071,6.071,0,0,0,1.867-2.284,9.344,9.344,0,0,0,.211-2.095Z" transform="translate(12.213 34.364)" fill="#ccc"/>
            <path id="Trazado_1273408" data-name="Trazado 1273408" d="M22.463,62.049a11.344,11.344,0,0,0-.2,2.5,4.4,4.4,0,0,0,1.034,1.868,2.461,2.461,0,0,0,2.192.012,6.135,6.135,0,0,0,1.867-2.284,9.7,9.7,0,0,0,.211-2.1Z" transform="translate(12.237 34.149)" fill="#1c1c1f"/>
            <path id="Trazado_1273409" data-name="Trazado 1273409" d="M21.312,41.835c.02.394.07.788.1,1.175.124,1.85.164,3.71.287,5.563.121,1.809.2,3.625.426,5.428.037.265.076.533.115.8l.163,2.56.006,1.167c-.033.138-.067.278-.1.419a16.206,16.206,0,0,0-.326,3.143,73.592,73.592,0,0,0,.1,7.736c.04.667.1,1.335.178,2,.051.419.25,1.913.25,1.913s5.756.276,5.919.043a3.96,3.96,0,0,0,.281-1.654c.05-.685.081-1.364.082-2.051,0-1.429.14-2.85.153-4.279.014-1.384-.029-2.764-.057-4.144-.017-.684-.082-1.366-.118-2.043a10.024,10.024,0,0,0-.045-1.109l.048-.87.27-4.741c.239-1.464.353-7.642.726-9.2.15-.628.374-1.231.553-1.853Z" transform="translate(11.729 23.024)" fill="#15202e"/>
            <path id="Trazado_1273410" data-name="Trazado 1273410" d="M33.342,62.439a11.511,11.511,0,0,1,.2,2.495,4.411,4.411,0,0,1-1.034,1.87,2.451,2.451,0,0,1-2.192.014,6.039,6.039,0,0,1-1.865-2.284,9.8,9.8,0,0,1-.214-2.095Z" transform="translate(15.543 34.364)" fill="#ccc"/>
            <path id="Trazado_1273411" data-name="Trazado 1273411" d="M33.3,62.049a11.632,11.632,0,0,1,.2,2.5,4.435,4.435,0,0,1-1.034,1.868,2.454,2.454,0,0,1-2.189.012,6.076,6.076,0,0,1-1.867-2.284,9.587,9.587,0,0,1-.212-2.1Z" transform="translate(15.52 34.149)" fill="#1c1c1f"/>
            <path id="Trazado_1273412" data-name="Trazado 1273412" d="M27.2,41.889c.082.273.172.544.257.817H25.953v2.233h1.96c.237,2.4.349,6.725.544,7.921l.267,4.741.051.87c-.054.367-.033.763-.051,1.109-.031.678-.1,1.36-.113,2.042-.028,1.381-.071,2.761-.057,4.146.012,1.429.147,2.85.152,4.279,0,.687.037,1.366.079,2.051a3.965,3.965,0,0,0,.288,1.654c.158.233,5.916-.045,5.916-.045s.2-1.493.248-1.912c.084-.665.136-1.332.183-2a73.172,73.172,0,0,0,.1-7.736,16.111,16.111,0,0,0-.322-3.144c-.033-.14-.064-.279-.1-.419l.008-1.166.164-2.56c.039-.267.078-.535.112-.8.226-1.8.3-3.619.429-5.428.119-1.853.16-3.715.287-5.563.023-.358.068-.724.09-1.091Z" transform="translate(14.284 23.054)" fill="#15202e"/>
            <path id="Trazado_1273413" data-name="Trazado 1273413" d="M28.313,14.648c-4.039,0-4.285,3.262-4.285,6.164a8.885,8.885,0,0,0,1.246,3.946,12.533,12.533,0,0,0,2.181,1.763h1.716a11.791,11.791,0,0,0,1.87-1.473A8.686,8.686,0,0,0,32.6,20.812c0-2.9,0-6.164-4.284-6.164" transform="translate(13.224 8.061)" fill="#ffc89f"/>
            <path id="Trazado_1273414" data-name="Trazado 1273414" d="M29.71,14.845a7.2,7.2,0,0,0,.036,2.58,3.813,3.813,0,0,0-1.386-.056c-1,.105-2.281.628-3.271.233a.051.051,0,0,0-.065.068c.248.753,1.6.65,2.2.586a8.625,8.625,0,0,1,2.095-.073,1.572,1.572,0,0,1,.922.558c.036.062.07.119.107.183a4.694,4.694,0,0,1,.248,3.7c-.248.753-1.087,1.338-1.674,2.011a4.431,4.431,0,0,1-2.851,1.228,3.415,3.415,0,0,0,.839.553h1.716a11.791,11.791,0,0,0,1.87-1.473A8.686,8.686,0,0,0,32.051,20.7c0-2.372,0-4.988-2.341-5.859" transform="translate(13.77 8.17)" fill="#f0b990"/>
            <path id="Trazado_1273415" data-name="Trazado 1273415" d="M24.849,19.036c.147.626-.019,1.2-.364,1.274s-.741-.363-.887-.991.02-1.194.372-1.271.738.361.879.988" transform="translate(12.96 9.928)" fill="#ffc89f"/>
            <path id="Trazado_1273416" data-name="Trazado 1273416" d="M29.214,19.036c-.141.626.023,1.2.367,1.274s.738-.363.882-.991-.02-1.194-.367-1.271-.741.361-.882.988" transform="translate(16.05 9.928)" fill="#f0b990"/>
            <path id="Trazado_1273417" data-name="Trazado 1273417" d="M33.03,16.361c-.575-1.724-2.488-2.361-4.6-2.259-2.1-.1-4.012.535-4.589,2.259a12.858,12.858,0,0,0,.175,3.885c.109.392.479,2.246.611.907a12.97,12.97,0,0,1,.464-2.96,1.386,1.386,0,0,1,1.868-.626,2.323,2.323,0,0,0,1.471.291,2.337,2.337,0,0,0,1.477-.291,1.386,1.386,0,0,1,1.868.626,12.7,12.7,0,0,1,.459,2.96c.135,1.34.5-.515.615-.907a12.908,12.908,0,0,0,.175-3.885" transform="translate(13.074 7.755)" fill="#3b2c23"/>
            <path id="Trazado_1273418" data-name="Trazado 1273418" d="M32.633,15.832c-.871-1.358-3.139-2.521-6.043-1.95a2.684,2.684,0,0,0-2.04,1.505,1.487,1.487,0,0,0,.357,2.7,3.517,3.517,0,0,1,.549.236,2.96,2.96,0,0,0,1.191.07,15.924,15.924,0,0,1,4.079-.242,3.585,3.585,0,0,1,2.256,1.29c.037.05.33-2.549-.347-3.606" transform="translate(13.11 7.558)" fill="#3b2c23"/>
            <path id="Trazado_1273419" data-name="Trazado 1273419" d="M18.538,33.031l-.188,4.6.118,9.465,2.312-.78.8-8.735,1.143-4.039Z" transform="translate(10.1 18.179)" fill="#ffc89f"/>
            <path id="Trazado_1273420" data-name="Trazado 1273420" d="M20.06,44.241l.029-.771s.017-.051.042-.144a1.918,1.918,0,0,1,.031-.344.712.712,0,0,1-.318-.141,4.706,4.706,0,0,1-.5-.553,1.552,1.552,0,0,1-.112-.149.441.441,0,0,1-.121-.1c-.15.2-.3.394-.442.6-.04.057-.082.119-.124.181l.276.423c.02.535.045,1.741.045,1.741l.569,1.115s.175,1.006.38,1.1c.04.022.149-.008.248-.136a.952.952,0,0,0,.2-.744c-.076-.243-.262-.825-.262-.825Z" transform="translate(10.205 23.134)" fill="#d4a47d"/>
            <path id="Trazado_1273421" data-name="Trazado 1273421" d="M20.06,44.241l.029-.771s.017-.051.042-.144a1.918,1.918,0,0,1,.031-.344.712.712,0,0,1-.318-.141,4.706,4.706,0,0,1-.5-.553,1.552,1.552,0,0,1-.112-.149.441.441,0,0,1-.121-.1c-.15.2-.3.394-.442.6-.04.057-.082.119-.124.181l.276.423c.02.535.045,1.741.045,1.741l.569,1.115s.175,1.006.38,1.1c.04.022.149-.008.248-.136a.952.952,0,0,0,.2-.744c-.076-.243-.262-.825-.262-.825Z" transform="translate(10.205 23.134)" fill="#d4a47d"/>
            <path id="Trazado_1273422" data-name="Trazado 1273422" d="M39.013,36l.716,3.905,4.794-1.282L41.69,27.052A16.491,16.491,0,0,0,40.2,24.865a.213.213,0,0,0-.033-.028c-.386-.33-3.656-1.333-5.318-2-.064.1-1.169,2.236-2.755,2.467a3.534,3.534,0,0,1-2.462-.527,15.6,15.6,0,0,1-1.73-1.89c-1.668.628-4.712,1.524-5.222,1.978-.25.225-1.288,1.662-1.288,1.662L18.351,38.62,23.1,39.66l.777-4.073a70.181,70.181,0,0,1-.012,7.355c-.42,4.642-1.132,9.769-1.132,9.769l17.739-.166s-.924-5.2-1.355-9.95c-.242-2.733-.076-5.457-.1-6.6" transform="translate(10.1 12.568)" fill="#a4e7f0"/>
            <path id="Trazado_1273423" data-name="Trazado 1273423" d="M24.59,40.824a20.27,20.27,0,0,0-2.677-9.637,62.861,62.861,0,0,1-.008,7.125c.881.895,1.8,1.744,2.685,2.512" transform="translate(12.056 17.164)" fill="#2278ba"/>
            <path id="Trazado_1273424" data-name="Trazado 1273424" d="M37.453,32.351A2.74,2.74,0,0,0,37.42,33.5a2.74,2.74,0,0,1,.033-1.149c.008-.388.014-.718.006-.969l.078.429c.045-.388,0-.654-.369-.578-.755.087-1.175,1.428-1.344,2.436-.67,3.192-.755,6.383-3.189,8.651a11.075,11.075,0,0,1-3.608,2.6c-2.442.839-5.017,1.817-7.667,1.8-.112.859-.186,1.377-.186,1.377l17.739-.166s-.924-5.2-1.355-9.95a52.006,52.006,0,0,1-.105-5.629" transform="translate(11.653 17.182)" fill="#0b7885"/>
            <path id="Trazado_1273425" data-name="Trazado 1273425" d="M20.769,46.036c.161.02.349-.121.386-.411.025-.2.065-.563.065-.563l.095-.851c-.079-.149-.637-2.31-.637-2.31l-.378-.977-1.394.068c.016.033-.262,1.867.234,2.2a9.027,9.027,0,0,1,1.335,1.321s0,.569-.014.744c-.056.6.122.761.309.781" transform="translate(10.37 22.523)" fill="#ffc89f"/>
            <path id="Trazado_1273426" data-name="Trazado 1273426" d="M19.949,41l-.459.313-.583.522-.891,2.569.834,2.129,1.107,1.135a.229.229,0,1,0,.358-.284L19.3,45.578s-.153-2.4.73-2.079c.53.186-.09-2.462-.076-2.495" transform="translate(9.915 22.567)" fill="#ffc89f"/>
            <path id="Trazado_1273427" data-name="Trazado 1273427" d="M37.222,49.256a13.121,13.121,0,0,1-5.891.2c-.522,2,.394,4.6.2,7.428a49.979,49.979,0,0,0-.095,7.367c.082,1,.18,1.981.278,2.932h0c.019.166.037.327.051.493.006.059.012.124.02.184.465,4.293.978,7.741.983,8.6,0,.172-.127.895-.243,1.5a11.433,11.433,0,0,0,1.026,2.834L35.339,79.3a6.588,6.588,0,0,0,.234-1.758,3.176,3.176,0,0,1-.262-1.288c-.019-.935.5-4.26.98-8.394h0c.126-1.1.25-2.253.364-3.437a35.912,35.912,0,0,0-.051-7.265c-.3-2.927,1.171-5.772.614-7.9" transform="translate(17.154 27.108)" fill="#ffc89f"/>
            <path id="Trazado_1273428" data-name="Trazado 1273428" d="M41.432,49.452a13.144,13.144,0,0,1-5.891-.2c-.555,2.126.916,4.969.617,7.9a35.456,35.456,0,0,0-.053,7.263c.093.946.194,1.865.295,2.761h-.006c.5,4.443,1.081,8.084,1.064,9.07a3.022,3.022,0,0,1-.268,1.288,6.539,6.539,0,0,0,.24,1.76l1.789,1.491a11.42,11.42,0,0,0,1.023-2.834c-.115-.608-.242-1.332-.242-1.5,0-.9.577-4.665,1.051-9.271h0c.1-.952.2-1.927.282-2.932a48.961,48.961,0,0,0-.1-7.369c-.2-2.829.729-5.423.2-7.426" transform="translate(19.491 27.109)" fill="#ffc89f"/>
            <path id="Trazado_1273429" data-name="Trazado 1273429" d="M40.543,25.326a5.1,5.1,0,0,0-5.186-4.966v9.932a5.1,5.1,0,0,0,5.186-4.966" transform="translate(19.459 11.205)" fill="#7d4e24"/>
            <path id="Trazado_1273430" data-name="Trazado 1273430" d="M37.186,20.357a5.107,5.107,0,0,0-5.234,4.969,5.107,5.107,0,0,0,5.234,4.97c.014,0,.028,0,.045,0V20.36c-.017,0-.031,0-.045,0" transform="translate(17.585 11.203)" fill="#7d4e24"/>
            <path id="Trazado_1273431" data-name="Trazado 1273431" d="M32.381,33.332c-.054.209-.105.414-.158.62a2.431,2.431,0,0,0,.158-.62" transform="translate(17.734 18.344)" fill="#ffc89f"/>
            <path id="Trazado_1273432" data-name="Trazado 1273432" d="M31.73,34.388a1.9,1.9,0,0,0,.088-.3.272.272,0,0,1-.18.105c.033.064.059.132.091.194" transform="translate(17.413 18.761)" fill="#ffc89f"/>
            <path id="Trazado_1273433" data-name="Trazado 1273433" d="M34.769,29.12a4.675,4.675,0,0,0-3.288,1.088A4.348,4.348,0,0,0,30.4,31.532c-.017.029-.033.06-.05.093a7.657,7.657,0,0,0-.642,1.513,17.849,17.849,0,0,0-.46,3.164,15.444,15.444,0,0,0-.273,3.184c0,.592-.056,3.408-.133,3.941-.059.4-.107.8-.158,1.2a19.247,19.247,0,0,0-.685,2.7,4.5,4.5,0,0,0-.161,1.264c0,.194.157,6.639.157,6.639l1.786-.045,1.293-6.718a13.162,13.162,0,0,0,.563-2.265c0-.167.149-1.7.211-2.287a19.834,19.834,0,0,1,.353-2.239c.147-.7.924-5,1.079-5.7,0,0,.031.184.073.436a.131.131,0,0,1,.133.026c.242-.445.5-.873.741-1.319.121-.315.229-.631.329-.947a5.567,5.567,0,0,0-.349-.808.125.125,0,0,0-.033-.008A2.392,2.392,0,0,1,32.8,31.54a1.644,1.644,0,0,0-.288-.747.272.272,0,0,1-.036-.037,4.083,4.083,0,0,1,.792-.307,7.086,7.086,0,0,1,1.5-.164c.674-.033.642-1.088,0-1.164" transform="translate(15.32 16.014)" fill="#ffc89f"/>
            <path id="Trazado_1273434" data-name="Trazado 1273434" d="M29.167,48.507l.068-.707s.019-.048.05-.133a1.453,1.453,0,0,1,.048-.318.581.581,0,0,1-.288-.146,4.227,4.227,0,0,1-.433-.544.858.858,0,0,1-.1-.141.373.373,0,0,1-.1-.1c-.153.174-.3.347-.445.53-.042.05-.081.105-.127.158l.239.411c-.014.5-.057,1.611-.057,1.611l.465,1.068s.1.936.288,1.037c.04.017.141,0,.237-.118a.863.863,0,0,0,.222-.679c-.057-.22-.2-.777-.2-.777Z" transform="translate(15.32 25.546)" fill="#d4a47d"/>
            <path id="Trazado_1273435" data-name="Trazado 1273435" d="M29.727,50.194c.153.026.333-.093.384-.35.034-.194.088-.526.088-.526l.133-.78c-.062-.144-.453-2.172-.453-2.172l-.3-.926-1.3-.011c.014.029-.344,1.707.1,2.043a8.677,8.677,0,0,1,1.158,1.3s-.036.526-.054.688c-.087.543.07.71.237.736" transform="translate(15.499 25.003)" fill="#ffc89f"/>
            <path id="Trazado_1273436" data-name="Trazado 1273436" d="M29.293,45.481l-.442.27-.566.445-.969,2.327.653,2.019s.957,1.11.963,1.115a.211.211,0,1,0,.343-.247l-.84-1.736s-.008-2.222.788-1.881c.481.206.057-2.277.071-2.312" transform="translate(15.034 25.031)" fill="#ffc89f"/>
            <path id="Trazado_1273437" data-name="Trazado 1273437" d="M45.506,47.325a21.048,21.048,0,0,0-.691-2.7c-.053-.4-.1-.8-.158-1.2-.078-.532-.136-3.347-.133-3.939A15.337,15.337,0,0,0,44.25,36.3a18.036,18.036,0,0,0-.457-3.164,7.77,7.77,0,0,0-.643-1.515c-.019-.033-.034-.062-.054-.091a4.271,4.271,0,0,0-1.077-1.324,4.662,4.662,0,0,0-3.287-1.088c-.646.076-.674,1.132,0,1.164a7.014,7.014,0,0,1,1.493.164,3.99,3.99,0,0,1,.8.307.2.2,0,0,1-.037.036,1.736,1.736,0,0,0-.291.749,2.385,2.385,0,0,1-1.369,1.814l-.036.008a6.522,6.522,0,0,0-.549,1.518c-.228,1.036,1.482,1.093,1.482,1.095.149.7.936,5,1.079,5.7a21.045,21.045,0,0,1,.357,2.24c.062.588.206,2.119.206,2.285a12.306,12.306,0,0,0,.561,2.267l1.293,6.718,1.792.045s.152-6.446.152-6.639a4.847,4.847,0,0,0-.155-1.264" transform="translate(21.043 16.014)" fill="#ffc89f"/>
            <path id="Trazado_1273438" data-name="Trazado 1273438" d="M42.225,48.507l-.073-.707s-.014-.048-.045-.133a1.931,1.931,0,0,0-.045-.318.568.568,0,0,0,.284-.146,4.1,4.1,0,0,0,.433-.544.976.976,0,0,0,.1-.141.428.428,0,0,0,.1-.1c.15.174.3.347.437.53.047.05.084.105.129.158l-.234.411c.014.5.051,1.611.051,1.611L42.907,50.2s-.1.936-.288,1.037c-.034.017-.141,0-.236-.118a.852.852,0,0,1-.222-.679l.2-.777Z" transform="translate(23.149 25.546)" fill="#d4a47d"/>
            <path id="Trazado_1273439" data-name="Trazado 1273439" d="M41.9,50.194c-.144.026-.33-.093-.378-.35-.039-.194-.091-.526-.091-.526l-.133-.78c.059-.144.459-2.172.459-2.172l.3-.926,1.29-.011c-.012.029.343,1.707-.1,2.043a8.855,8.855,0,0,0-1.161,1.3s.031.526.054.688c.087.543-.073.71-.24.736" transform="translate(22.729 25.003)" fill="#ffc89f"/>
            <path id="Trazado_1273440" data-name="Trazado 1273440" d="M42.326,45.481l.44.27.575.445.966,2.327-.656,2.019-.964,1.115a.213.213,0,0,1-.295.056.217.217,0,0,1-.047-.3l.842-1.736s0-2.222-.786-1.881c-.482.206-.062-2.277-.076-2.312" transform="translate(23.208 25.031)" fill="#ffc89f"/>
            <path id="Trazado_1273441" data-name="Trazado 1273441" d="M36.05,70.324l.034.55,1.2.932,1.563.06s1.014-.62,1.344-.9l.034-.4-.265-1.274Z" transform="translate(19.841 38.135)" fill="#e4e8ed"/>
            <path id="Trazado_1273442" data-name="Trazado 1273442" d="M39.823,68.074c-.6-.715-1.22.394-1.865.22-.353-.095-.766-.563-1.046-.374a1.13,1.13,0,0,0-.313.6l-.549,2.6s1.034.86,1.046.86,1.581.084,1.581.084,1.326-.544,1.544-.7l-.109-2.738Z" transform="translate(19.84 37.331)" fill="#644602"/>
            <path id="Trazado_1273443" data-name="Trazado 1273443" d="M39.088,69.677a1.209,1.209,0,1,1-2.374,0v-.73a1.209,1.209,0,1,1,2.374,0Z" transform="translate(20.206 37.153)" fill="#88620c"/>
            <path id="Trazado_1273444" data-name="Trazado 1273444" d="M39.793,67.356c-.367-.144-.78.335-.981.572a2.839,2.839,0,0,0-.479.719,3.149,3.149,0,0,0-.47-.648c-.278-.313-.716-.766-1.174-.749-.541.012-.482.761-.381,1.116a1.133,1.133,0,0,0,.633.665,3.868,3.868,0,0,0,1.372.347.144.144,0,0,0,.14-.084,1.883,1.883,0,0,0,1.4-.777c.231-.3.4-.981-.064-1.163m-3.214.969c-.119-.27-.163-.941.295-.766a2.327,2.327,0,0,1,.885.743,2.247,2.247,0,0,1,.474.771,5.362,5.362,0,0,1-.963-.217.975.975,0,0,1-.691-.53m3.107.059a1.478,1.478,0,0,1-1.234.629V69a2.633,2.633,0,0,1,1.1-1.423.211.211,0,0,1,.305.13.727.727,0,0,1-.171.676" transform="translate(19.946 37.011)" fill="#e4e8ed"/>
            <path id="Trazado_1273445" data-name="Trazado 1273445" d="M36,70.324l-.034.55-1.2.932-1.558.06s-1.015-.62-1.346-.9l-.031-.4.26-1.274Z" transform="translate(17.519 38.135)" fill="#e4e8ed"/>
            <path id="Trazado_1273446" data-name="Trazado 1273446" d="M32.229,68.074c.6-.715,1.222.394,1.857.22.36-.095.775-.563,1.054-.374a1.154,1.154,0,0,1,.31.6l.55,2.6s-1.034.86-1.046.86-1.577.084-1.577.084-1.324-.544-1.546-.7l.1-2.738Z" transform="translate(17.519 37.331)" fill="#644602"/>
            <path id="Trazado_1273447" data-name="Trazado 1273447" d="M32.325,69.677a1.211,1.211,0,1,0,2.377,0v-.73a1.21,1.21,0,1,0-2.377,0Z" transform="translate(17.79 37.153)" fill="#88620c"/>
            <path id="Trazado_1273448" data-name="Trazado 1273448" d="M32.076,68.518a1.9,1.9,0,0,0,1.4.777.159.159,0,0,0,.147.084A3.926,3.926,0,0,0,35,69.032a1.127,1.127,0,0,0,.626-.665c.1-.355.158-1.1-.378-1.116-.457-.017-.9.436-1.175.749a3.042,3.042,0,0,0-.471.648,2.794,2.794,0,0,0-.474-.719c-.2-.237-.617-.716-.981-.572-.47.181-.3.867-.07,1.163m2.591.336a5.306,5.306,0,0,1-.966.217,3.189,3.189,0,0,1,1.363-1.513c.456-.174.412.5.29.766a.952.952,0,0,1-.687.53m-2.591-1.147a.213.213,0,0,1,.31-.129A2.619,2.619,0,0,1,33.482,69v.012a1.471,1.471,0,0,1-1.231-.629.738.738,0,0,1-.175-.676" transform="translate(17.528 37.011)" fill="#e4e8ed"/>
            <path id="Trazado_1273449" data-name="Trazado 1273449" d="M42.63,24.02H40.088l.05-.3-7.778.3C29.8,37.243,32.7,37.4,36.658,37.4c.119,0,1.2-.017,1.318-.02s.231.02.355.02c3.95,0,6.863-.161,4.3-13.384" transform="translate(17.277 13.053)" fill="#3b2c23"/>
            <path id="Trazado_1273450" data-name="Trazado 1273450" d="M38.466,29.442c.039.236.078.487.13.757H33.773c.053-.27.095-.521.13-.757A8.8,8.8,0,0,0,34,28.09v-.033a11.22,11.22,0,0,0-.231-1.994H38.6c-.082.42-.136.788-.177,1.133a7.987,7.987,0,0,0,.047,2.245" transform="translate(18.587 14.344)" fill="#d4a47d"/>
            <path id="Trazado_1273451" data-name="Trazado 1273451" d="M42.435,30.353c0,1.246-2.352,2.259-5.245,2.259s-5.246-1.012-5.246-2.259c0-.893,1.214-1.665,2.966-2.031a10.637,10.637,0,0,1,1.434-.2c.271-.017.555-.025.847-.025a11.363,11.363,0,0,1,2.282.222,8.33,8.33,0,0,1,1.152.326c1.109.411,1.811,1.026,1.811,1.705" transform="translate(17.581 15.465)" fill="#d4a47d"/>
            <g id="Grupo_1211028" data-name="Grupo 1211028" transform="translate(52.565 41.541)" opacity="0.3" style="mix-blend-mode: multiply;isolation: isolate">
              <g id="Grupo_1211027" data-name="Grupo 1211027">
                <g id="Grupo_1211026" data-name="Grupo 1211026" clip-path="url(#clip-path-9)">
                  <path id="Trazado_1273452" data-name="Trazado 1273452" d="M39.571,31.677c-.519.042-1.871-.9-3.129-1.881-.414-.321-.822-.656-1.177-.953-.691-.574-1.212-1.036-1.335-1.155-.012-.017-.025-.025-.025-.028a.079.079,0,0,0,.025,0c.31-.07,3.428-.78,4.415-.86a7.987,7.987,0,0,0,.047,2.245,8.209,8.209,0,0,1,1.152.326c.344,1.15.544,2.268.026,2.312" transform="translate(-33.905 -26.795)" fill="#a88f7b"/>
                </g>
              </g>
            </g>
            <path id="Trazado_1273453" data-name="Trazado 1273453" d="M40.12,26.823c0,2.546-1.578,4.611-3.535,4.611s-3.543-2.065-3.543-4.611.208-5.406,3.543-5.406c3.535,0,3.535,2.859,3.535,5.406" transform="translate(18.186 11.787)" fill="#ffc89f"/>
            <path id="Trazado_1273454" data-name="Trazado 1273454" d="M36.065,21.418a3.645,3.645,0,0,0-1.87.434,3.433,3.433,0,0,0,1.487,2.823c.952.588,1.908.836,2.543,1.767a2.408,2.408,0,0,1-.163,2.612.356.356,0,0,1-.026.036,3.777,3.777,0,0,1-1.167,1.49,2.7,2.7,0,0,1-2.791.008.459.459,0,0,0-.088-.036,3.016,3.016,0,0,0,2.076.881c1.957,0,3.535-2.065,3.535-4.609s0-5.406-3.535-5.406" transform="translate(18.706 11.787)" fill="#f0b990"/>
            <path id="Trazado_1273455" data-name="Trazado 1273455" d="M33.687,24.867c.119.533-.025,1.014-.315,1.085s-.629-.312-.75-.842.017-1.012.313-1.076.629.307.752.833" transform="translate(17.931 13.222)" fill="#ffc89f"/>
            <path id="Trazado_1273456" data-name="Trazado 1273456" d="M36.24,21.125c-1.693,1.721-2.708,1.848-1.629,2.473a15.544,15.544,0,0,1,4.916,3.561c.222.267.6-3.284-.36-4.794s-2.451-1.721-2.927-1.24" transform="translate(18.804 11.5)" fill="#7d4e24"/>
            <path id="Trazado_1273457" data-name="Trazado 1273457" d="M45.674,48.882h0c-.612-2.755-1.961-4.462-1.865-7.356a14.5,14.5,0,0,1,.332-3.583,1.754,1.754,0,0,1,.389-.6s1.271-5.338,1.074-7.13c-.138-1.257-4.206-1.854-4.206-1.854s-.081,2.65-.713,3.228a4.232,4.232,0,0,1-4.7,0c-.636-.578-.715-3.228-.715-3.228s-4.067.6-4.2,1.854c-.194,1.792,1.071,7.13,1.071,7.13a1.705,1.705,0,0,1,.394.6,14.325,14.325,0,0,1,.324,3.583c.1,2.895-1.248,4.6-1.854,7.356h0c-1.837,4.8-.307,19.539-.371,21.4H46.046c-.067-1.857,1.46-16.6-.372-21.4" transform="translate(16.567 15.607)" fill="#ffd453"/>
            <path id="Trazado_1273458" data-name="Trazado 1273458" d="M45.529,48.526h0c-.612-2.755-1.961-4.462-1.865-7.356A14.5,14.5,0,0,1,44,37.587a1.754,1.754,0,0,1,.389-.6s1.271-5.338,1.074-7.13c-.034-.327-.344-.615-.777-.853-.152,2.989-.35,6.017-1.724,8.685-.761,1.519-2.7,1.349-4.3,1.772-.588.167-2.47.29-2.05.543,1.1.845,2.9-.04,3.989,1.062,4.3,4.465,3.04,16.945,1.355,22.341a6.376,6.376,0,0,1-3.967,3.958c-2.4,1-5.008.738-7.622.5a20.557,20.557,0,0,1,.13,2.057H45.9c-.067-1.857,1.46-16.6-.372-21.4" transform="translate(16.712 15.962)" fill="#dcb337"/>
            <path id="Trazado_1273459" data-name="Trazado 1273459" d="M38.083,22.234c-.042-.546-.659-.747-1.078-.96a3.068,3.068,0,0,0-1.267-.287,2.744,2.744,0,0,0-1.84.6,6.385,6.385,0,0,0-1.584,3.191,26.343,26.343,0,0,0-.9,5.7,11.846,11.846,0,0,1-.164,1.409,8.677,8.677,0,0,0-.191,1.371,6.267,6.267,0,0,0,.037.9,5.8,5.8,0,0,0,.017.932,6.485,6.485,0,0,0,.4,1.766c.5,1.276,1.758,1.563,2.9,2.008.309.124,1.051-.509,1.009-.732-.091-.495-.282-.966-.394-1.454-.126-.536-.233-1.078-.338-1.622-.2-1.085-.336-2.177-.478-3.27a14.845,14.845,0,0,1-.147-3.274,6.983,6.983,0,0,1,.355-1.592c.084-.24.172-.476.27-.716.02-.043.039-.095.06-.14.011.045.026.084.039.126a.257.257,0,0,0,.436.054c.442-.623.488-1.411.984-2.006A5.323,5.323,0,0,1,37.393,23.1a.641.641,0,0,0,.2-.062c.014-.006.037-.022.059-.029.039-.023.082-.051.119-.078.019-.009.037-.014.062-.023a.14.14,0,0,0,.112-.153.755.755,0,0,0,.141-.516" transform="translate(17.09 11.55)" fill="#7d4e24"/>
            <path id="Trazado_1273460" data-name="Trazado 1273460" d="M42.1,33.26a8.861,8.861,0,0,0-.191-1.371,10.718,10.718,0,0,1-.164-1.409,26.062,26.062,0,0,0-.9-5.7,6.3,6.3,0,0,0-1.588-3.191,2.726,2.726,0,0,0-1.837-.6,3.045,3.045,0,0,0-1.27.287c-.417.212-1.039.414-1.071.96a.563.563,0,0,0,0,.163c.087.062.177.13.265.189a6.29,6.29,0,0,0,.893.518,6.919,6.919,0,0,1,1.829,1.259,3.148,3.148,0,0,1,.89,1.612c.065.408.1,2.158.132,2.535a15.045,15.045,0,0,1-.144,3.276c-.14,1.093-.282,2.184-.482,3.268-.1.546-.212,1.087-.335,1.623-.109.488-.305.96-.4,1.454-.042.223.7.854,1.009.73,1.146-.443,2.408-.73,2.9-2.008a6.357,6.357,0,0,0,.4-1.764,5.989,5.989,0,0,0,.022-.932,6.766,6.766,0,0,0,.036-.9" transform="translate(19.301 11.55)" fill="#7d4e24"/>
            <path id="Trazado_1273461" data-name="Trazado 1273461" d="M27.733,36.993l.191,4.629-.118,9.507L25.48,50.34l-.8-8.769-1.152-4.054Z" transform="translate(12.949 20.359)" fill="#ffc89f"/>
            <path id="Trazado_1273462" data-name="Trazado 1273462" d="M25.265,48.25l-.029-.766a1.32,1.32,0,0,0-.042-.149,2.12,2.12,0,0,0-.029-.349.665.665,0,0,0,.321-.138,5.048,5.048,0,0,0,.5-.561,1.649,1.649,0,0,0,.115-.143.573.573,0,0,0,.119-.109q.228.293.445.6c.04.057.081.121.121.178l-.278.429c-.017.54-.043,1.744-.043,1.744L25.9,50.117s-.175,1.011-.381,1.1c-.042.02-.152-.006-.251-.133a.943.943,0,0,1-.2-.75c.078-.243.267-.823.267-.823Z" transform="translate(13.784 25.336)" fill="#d4a47d"/>
            <path id="Trazado_1273463" data-name="Trazado 1273463" d="M24.814,50.057c-.158.017-.352-.127-.386-.414-.028-.209-.062-.571-.062-.571l-.095-.853c.076-.15.634-2.318.634-2.318l.38-.981,1.4.07c-.016.033.259,1.873-.24,2.2a9.51,9.51,0,0,0-1.34,1.326s0,.572.02.75c.051.6-.13.763-.315.786" transform="translate(13.358 24.722)" fill="#ffc89f"/>
            <path id="Trazado_1273464" data-name="Trazado 1273464" d="M25.594,45l.464.316.583.524.9,2.578L26.7,50.553S25.593,51.7,25.586,51.7a.225.225,0,0,1-.326.042.23.23,0,0,1-.029-.327l1.022-1.819s.152-2.409-.726-2.09c-.541.191.084-2.467.067-2.5" transform="translate(13.856 24.766)" fill="#ffc89f"/>
            <path id="Trazado_1273465" data-name="Trazado 1273465" d="M13.474,66.526a11.351,11.351,0,0,0-.206,2.5A4.377,4.377,0,0,0,14.311,70.9a2.438,2.438,0,0,0,2.2.014,6.153,6.153,0,0,0,1.876-2.293,10.029,10.029,0,0,0,.214-2.1Z" transform="translate(7.288 36.613)" fill="#ccc"/>
            <path id="Trazado_1273466" data-name="Trazado 1273466" d="M13.519,66.136a11.225,11.225,0,0,0-.208,2.5,4.376,4.376,0,0,0,1.036,1.879,2.456,2.456,0,0,0,2.2.012,6.125,6.125,0,0,0,1.874-2.291,9.618,9.618,0,0,0,.212-2.1Z" transform="translate(7.313 36.398)" fill="#1a222b"/>
            <path id="Trazado_1273467" data-name="Trazado 1273467" d="M12.485,45.835c.022.394.068.792.1,1.181.127,1.859.167,3.719.29,5.581.126,1.823.2,3.643.429,5.454.033.265.07.532.115.8l.163,2.566.008,1.177c-.037.14-.07.281-.105.423a16.026,16.026,0,0,0-.318,3.15,73.367,73.367,0,0,0,.095,7.769c.048.671.1,1.34.184,2.009.051.415.247,1.918.247,1.918s5.784.282,5.946.05a4.039,4.039,0,0,0,.284-1.664c.048-.7.081-1.371.082-2.062.008-1.434.143-2.862.155-4.3.011-1.383-.029-2.777-.065-4.163-.011-.682-.078-1.369-.11-2.054-.014-.336,0-.741-.045-1.107l.045-.874.273-4.758c.239-1.473.35-7.677.729-9.237.149-.634.375-1.242.555-1.864Z" transform="translate(6.871 25.225)" fill="#1e535a"/>
            <path id="Trazado_1273468" data-name="Trazado 1273468" d="M24.689,66.526a11.835,11.835,0,0,1,.2,2.5A4.352,4.352,0,0,1,23.854,70.9a2.451,2.451,0,0,1-2.2.014,6.081,6.081,0,0,1-1.87-2.293,9.714,9.714,0,0,1-.215-2.1Z" transform="translate(10.769 36.613)" fill="#ccc"/>
            <path id="Trazado_1273469" data-name="Trazado 1273469" d="M24.645,66.136a11.606,11.606,0,0,1,.208,2.5,4.449,4.449,0,0,1-1.04,1.879,2.459,2.459,0,0,1-2.2.012,6.1,6.1,0,0,1-1.87-2.291,9.693,9.693,0,0,1-.215-2.1Z" transform="translate(10.745 36.398)" fill="#1a222b"/>
            <path id="Trazado_1273470" data-name="Trazado 1273470" d="M17.953,45.891c.175.592.389,1.174.532,1.777.375,1.561.493,7.766.733,9.239l.268,4.758.048.874a10.912,10.912,0,0,0-.048,1.107c-.031.685-.1,1.372-.113,2.053-.033,1.388-.07,2.781-.062,4.164.014,1.434.149,2.862.153,4.295,0,.693.036,1.366.081,2.064a3.979,3.979,0,0,0,.287,1.662c.161.234,5.944-.048,5.944-.048s.194-1.5.251-1.918c.085-.67.138-1.338.18-2.009a73.783,73.783,0,0,0,.1-7.769,16.422,16.422,0,0,0-.324-3.152c-.034-.141-.064-.282-.1-.423l.008-1.175.164-2.566c.042-.268.079-.535.118-.8.226-1.812.3-3.632.423-5.454.122-1.862.169-3.722.3-5.581.019-.361.067-.729.09-1.1Z" transform="translate(9.881 25.256)" fill="#1e535a"/>
            <rect id="Rectángulo_460748" data-name="Rectángulo 460748" width="4.978" height="2.245" transform="translate(25.883 71.965)" fill="#17283d"/>
            <rect id="Rectángulo_460749" data-name="Rectángulo 460749" width="5.183" height="4.563" transform="translate(25.289 37.064)" fill="#d4a47d"/>
            <path id="Trazado_1273471" data-name="Trazado 1273471" d="M23.432,27.324,20.51,32.073l-6.155-3.343,2.1-1.366.932-.355V25.833h5.183v1.186Z" transform="translate(7.9 14.217)" fill="#d4a47d"/>
            <path id="Trazado_1273472" data-name="Trazado 1273472" d="M19.512,18.243c-4.051,0-4.3,3.27-4.3,6.191a8.917,8.917,0,0,0,1.253,3.957,12.338,12.338,0,0,0,2.188,1.766h1.726a12,12,0,0,0,1.874-1.476,8.7,8.7,0,0,0,1.564-4.246c0-2.921,0-6.191-4.3-6.191" transform="translate(8.37 10.04)" fill="#ffc89f"/>
            <path id="Trazado_1273473" data-name="Trazado 1273473" d="M16.239,23.17c.136.623-.025,1.2-.374,1.277s-.743-.363-.891-1,.028-1.2.374-1.279.744.371.891,1" transform="translate(8.215 12.197)" fill="#ffc89f"/>
            <path id="Trazado_1273474" data-name="Trazado 1273474" d="M20.194,23.17c-.141.623.023,1.2.371,1.277s.744-.363.887-1-.025-1.2-.372-1.279-.744.371-.885,1" transform="translate(11.086 12.197)" fill="#ffc89f"/>
            <path id="Trazado_1273475" data-name="Trazado 1273475" d="M9.695,36.993l-.186,4.629.113,9.507,2.326-.789.8-8.769,1.15-4.054Z" transform="translate(5.233 20.359)" fill="#ffc89f"/>
            <path id="Trazado_1273476" data-name="Trazado 1273476" d="M11.226,48.25l.031-.766s.014-.062.042-.149a1.612,1.612,0,0,1,.031-.349.648.648,0,0,1-.319-.138,4.5,4.5,0,0,1-.5-.561,1.436,1.436,0,0,1-.118-.143.719.719,0,0,1-.119-.109c-.152.2-.3.4-.447.6-.04.057-.078.121-.122.178l.281.429c.019.54.043,1.744.043,1.744l.575,1.126s.172,1.011.374,1.1c.048.02.15-.006.253-.133a.963.963,0,0,0,.2-.75l-.267-.823Z" transform="translate(5.339 25.336)" fill="#d4a47d"/>
            <path id="Trazado_1273477" data-name="Trazado 1273477" d="M11.932,50.057c.169.017.352-.127.394-.414.025-.209.064-.571.064-.571l.091-.853c-.078-.15-.64-2.318-.64-2.318l-.377-.981-1.4.07c.017.033-.26,1.873.236,2.2a9.51,9.51,0,0,1,1.34,1.326s0,.572-.012.75c-.059.6.124.763.305.786" transform="translate(5.505 24.722)" fill="#ffc89f"/>
            <path id="Trazado_1273478" data-name="Trazado 1273478" d="M11.114,45l-.464.316-.583.524-.9,2.578.84,2.133L11.123,51.7a.227.227,0,1,0,.353-.285l-1.015-1.819s-.161-2.409.726-2.09c.536.191-.085-2.467-.073-2.5" transform="translate(5.047 24.766)" fill="#ffc89f"/>
            <path id="Trazado_1273479" data-name="Trazado 1273479" d="M30.27,40l.719,3.926L35.8,42.637,32.958,31.024a16.45,16.45,0,0,0-1.5-2.194.159.159,0,0,0-.034-.031c-.388-.333-3.673-1.336-5.338-2-.068.1-1.178,2.239-2.77,2.471a3.562,3.562,0,0,1-2.47-.526,15.209,15.209,0,0,1-1.735-1.905c-1.684.637-4.733,1.538-5.245,2-.253.222-1.29,1.662-1.29,1.662L9.526,42.637l4.763,1.043.781-4.088a70.039,70.039,0,0,1-.014,7.387c-.415,4.656-1.133,9.812-1.133,9.812l17.809-.174s-.933-5.22-1.361-9.992c-.245-2.744-.073-5.482-.1-6.623" transform="translate(5.243 14.747)" fill="#fff"/>
            <path id="Trazado_1273480" data-name="Trazado 1273480" d="M15.79,44.854A20.458,20.458,0,0,0,13.1,35.175a63.529,63.529,0,0,1-.009,7.158c.885.9,1.8,1.75,2.695,2.521" transform="translate(7.207 19.359)" fill="#e4e8ed"/>
            <path id="Trazado_1273481" data-name="Trazado 1273481" d="M28.7,36.346a2.881,2.881,0,0,0-.036,1.155,2.881,2.881,0,0,1,.036-1.155c.009-.389.012-.719,0-.975l.078.431c.045-.386,0-.651-.369-.58-.76.087-1.18,1.433-1.353,2.446-.67,3.2-.757,6.408-3.2,8.684a11.1,11.1,0,0,1-3.628,2.611c-2.445.842-5.029,1.823-7.694,1.808-.109.864-.181,1.389-.181,1.389l17.809-.174s-.933-5.22-1.361-9.992a52.763,52.763,0,0,1-.105-5.648" transform="translate(6.804 19.378)" fill="#e4e8ed"/>
            <path id="Trazado_1273482" data-name="Trazado 1273482" d="M24.153,20.981a3.293,3.293,0,0,0-.116-.414.951.951,0,0,0-.267-.305c-.014-.011-.023-.014-.031-.022a1.305,1.305,0,0,1-.16-.231c-.054-.122-.1-.242-.146-.357a1.143,1.143,0,0,0-.526-.676,7.706,7.706,0,0,0-2.2-.8,3.9,3.9,0,0,0-1.629-.2c-.561.043-1.856.248-2,.955a1.644,1.644,0,0,0-1.226.647,6.719,6.719,0,0,0-.676,1,2.408,2.408,0,0,0-.122.414,19.676,19.676,0,0,0,.13,3.3c.109.4.282.242.465.614.2.33.364,1.122.457.9.017-.327-.138-1.708-.135-2.031,0-.006-.229-1.014-.278-1.3a2.926,2.926,0,0,1,.169-1.338,2.718,2.718,0,0,1,2.259-1.474,5.21,5.21,0,0,1,1.341.6,3.874,3.874,0,0,0,1.874.353c.383.088.771.121,1.155.186.278.047.62.037.828.256a.787.787,0,0,1,.2.346c.017.071.031.147.042.22a5.764,5.764,0,0,1-.27,1.634c-.122.578-.557,2.856-.2,3.352,0,0,.491-1.915.5-1.91.017.062.471-.074.58-.478a21.334,21.334,0,0,0-.006-3.229" transform="translate(8.255 9.881)" fill="#3b2c23"/>
            <path id="Trazado_1273483" data-name="Trazado 1273483" d="M40.855,81.7A40.851,40.851,0,1,1,81.707,40.85,40.9,40.9,0,0,1,40.855,81.7m0-78.214A37.363,37.363,0,1,0,78.219,40.85,37.408,37.408,0,0,0,40.855,3.488" transform="translate(0 0)" fill="#fff"/>
            <path id="Trazado_1273484" data-name="Trazado 1273484" d="M36.812,66.274A29.465,29.465,0,1,1,66.276,36.808,29.5,29.5,0,0,1,36.812,66.274m0-56.605A27.14,27.14,0,1,0,63.951,36.808,27.169,27.169,0,0,0,36.812,9.669" transform="translate(4.044 4.041)" fill="#fff"/>
            <rect id="Rectángulo_460750" data-name="Rectángulo 460750" width="3.488" height="5.271" transform="translate(39.111 12.547)" fill="#fff"/>
            <rect id="Rectángulo_460751" data-name="Rectángulo 460751" width="3.488" height="5.271" transform="translate(39.111 64.213)" fill="#fff"/>
            <rect id="Rectángulo_460752" data-name="Rectángulo 460752" width="5.27" height="3.488" transform="translate(64.052 39.271)" fill="#fff"/>
            <rect id="Rectángulo_460753" data-name="Rectángulo 460753" width="5.27" height="3.488" transform="translate(12.389 39.271)" fill="#fff"/>
            <path id="Trazado_1273485" data-name="Trazado 1273485" d="M35.792,21.494c-.088-.033-.177-.062-.268-.088a15.3,15.3,0,0,1,3.133,2.953A12.17,12.17,0,0,0,38,22.767a7.578,7.578,0,0,1,1.462,1.174,6.469,6.469,0,0,0-2.612-2.85c.434.456.874.912,1.316,1.367-.408-.256-.811-.512-1.22-.766.229.293.457.584.682.878a5.827,5.827,0,0,0-1.84-1.076" transform="translate(19.551 11.607)" fill="#7d4e24"/>
            <path id="Trazado_1273486" data-name="Trazado 1273486" d="M27.062,14.736c-.09-.034-.18-.062-.271-.091A15.277,15.277,0,0,1,29.924,17.6a12.493,12.493,0,0,0-.651-1.594,7.664,7.664,0,0,1,1.46,1.174,6.474,6.474,0,0,0-2.612-2.848c.44.454.878.912,1.318,1.366l-1.217-.764c.228.291.451.586.681.879a5.758,5.758,0,0,0-1.84-1.076" transform="translate(14.745 7.887)" fill="#59493e"/>
          </g>
        </g>
      </g>
    </g>
  </g>
</svg>
