<svg xmlns="http://www.w3.org/2000/svg" xmlns:xlink="http://www.w3.org/1999/xlink" width="225.956" height="443.375" viewBox="0 0 225.956 443.375">
  <defs>
    <clipPath id="clip-path">
      <path id="Trazado_194907" data-name="Trazado 194907" d="M0,128.033c0,41.257,34.067,74.7,76.093,74.7s76.093-33.443,76.093-74.7-34.069-74.7-76.093-74.7S0,86.778,0,128.033" transform="translate(0 -53.333)" fill="#69d7e5"/>
    </clipPath>
    <clipPath id="clip-path-2">
      <path id="Trazado_194907-2" data-name="Trazado 194907" d="M0,90.126A36.794,36.794,0,1,0,36.794,53.333,36.794,36.794,0,0,0,0,90.126" transform="translate(0 -53.333)" fill="#ffb851"/>
    </clipPath>
    <clipPath id="clip-path-3">
      <rect id="Rectángulo_46351" data-name="Rectángulo 46351" width="100.356" height="103.839" fill="none"/>
    </clipPath>
    <clipPath id="clip-path-4">
      <rect id="Rectángulo_460793" data-name="Rectángulo 460793" width="208" height="443.375" fill="none"/>
    </clipPath>
    <clipPath id="clip-path-5">
      <rect id="Rectángulo_460796" data-name="Rectángulo 460796" width="225.955" height="441.418" fill="none"/>
    </clipPath>
  </defs>
  <g id="conectada_01.375dd2a5" transform="translate(8.514 -19.446)">
    <g id="Grupo_155444" data-name="Grupo 155444" transform="translate(2.125 19.446)">
      <g id="Grupo_155253" data-name="Grupo 155253" transform="translate(3.723 157.729)">
        <path id="Trazado_196478" data-name="Trazado 196478" d="M317.764,146.944q-.285.295-.563.594a45.343,45.343,0,0,0-12.233,32.722l19-.662a26.633,26.633,0,1,1,53.234-1.862l19-.662a45.644,45.644,0,0,0-78.435-30.126" transform="translate(-304.936 -133.025)" fill="#69d7e5"/>
        <path id="Trazado_196479" data-name="Trazado 196479" d="M304.88,230.588a45.644,45.644,0,1,0,91.231-3.188l-19,.662a26.633,26.633,0,0,1-53.234,1.862Z" transform="translate(-304.849 -183.353)" fill="#1e535a"/>
      </g>
      <g id="Grupo_154313" data-name="Grupo 154313" transform="translate(63.131 279.894)">
        <g id="Grupo_152768" data-name="Grupo 152768" clip-path="url(#clip-path)">
          <path id="Trazado_194826" data-name="Trazado 194826" d="M4,55.3a1.986,1.986,0,0,0-2-1.965,1.967,1.967,0,1,0,0,3.932A1.986,1.986,0,0,0,4,55.3" transform="translate(0.004 -53.333)" fill="#69d7e5"/>
          <path id="Trazado_194827" data-name="Trazado 194827" d="M12.277,55.283a2,2,0,1,0-2,1.968,2,2,0,0,0,2-1.968" transform="translate(10.249 -53.318)" fill="#69d7e5"/>
          <path id="Trazado_194828" data-name="Trazado 194828" d="M20.55,55.283a2,2,0,1,0-2,1.968,2,2,0,0,0,2-1.968" transform="translate(20.5 -53.318)" fill="#69d7e5"/>
          <path id="Trazado_194829" data-name="Trazado 194829" d="M28.823,55.283a2,2,0,1,0-2,1.968,2,2,0,0,0,2-1.968" transform="translate(30.75 -53.318)" fill="#69d7e5"/>
          <path id="Trazado_194830" data-name="Trazado 194830" d="M37.1,55.283a2,2,0,1,0-2,1.968,2,2,0,0,0,2-1.968" transform="translate(40.999 -53.318)" fill="#69d7e5"/>
          <path id="Trazado_194831" data-name="Trazado 194831" d="M45.364,55.283a2,2,0,1,0-2,1.968,2,2,0,0,0,2-1.968" transform="translate(51.251 -53.318)" fill="#69d7e5"/>
          <path id="Trazado_194832" data-name="Trazado 194832" d="M53.64,55.283a2,2,0,1,0-2,1.968,2,2,0,0,0,2-1.968" transform="translate(61.499 -53.318)" fill="#69d7e5"/>
          <path id="Trazado_194833" data-name="Trazado 194833" d="M61.913,55.283a2,2,0,1,0-2,1.968,2,2,0,0,0,2-1.968" transform="translate(71.749 -53.318)" fill="#69d7e5"/>
          <path id="Trazado_194834" data-name="Trazado 194834" d="M70.186,55.283a2,2,0,1,0-2,1.967,2,2,0,0,0,2-1.967" transform="translate(82 -53.317)" fill="#69d7e5"/>
          <path id="Trazado_194835" data-name="Trazado 194835" d="M4.014,63.571a1.986,1.986,0,0,0-2-1.965,1.965,1.965,0,0,0,0,3.93,1.986,1.986,0,0,0,2-1.965" transform="translate(-0.008 -43.421)" fill="#69d7e5"/>
          <path id="Trazado_194836" data-name="Trazado 194836" d="M12.277,63.555a2,2,0,1,0-2,1.965,2,2,0,0,0,2-1.965" transform="translate(10.249 -43.406)" fill="#69d7e5"/>
          <path id="Trazado_194837" data-name="Trazado 194837" d="M20.55,63.555a2,2,0,1,0-2,1.965,2,2,0,0,0,2-1.965" transform="translate(20.5 -43.406)" fill="#69d7e5"/>
          <path id="Trazado_194838" data-name="Trazado 194838" d="M28.823,63.555a2,2,0,1,0-2,1.965,2,2,0,0,0,2-1.965" transform="translate(30.75 -43.406)" fill="#69d7e5"/>
          <path id="Trazado_194839" data-name="Trazado 194839" d="M37.1,63.555a2,2,0,1,0-2,1.965,2,2,0,0,0,2-1.965" transform="translate(40.999 -43.406)" fill="#69d7e5"/>
          <path id="Trazado_194840" data-name="Trazado 194840" d="M45.364,63.555a2,2,0,1,0-2,1.965,2,2,0,0,0,2-1.965" transform="translate(51.251 -43.406)" fill="#69d7e5"/>
          <path id="Trazado_194841" data-name="Trazado 194841" d="M53.64,63.555a2,2,0,1,0-2,1.965,2,2,0,0,0,2-1.965" transform="translate(61.499 -43.406)" fill="#69d7e5"/>
          <path id="Trazado_194842" data-name="Trazado 194842" d="M61.913,63.555a2,2,0,1,0-2,1.965,2,2,0,0,0,2-1.965" transform="translate(71.749 -43.406)" fill="#69d7e5"/>
          <path id="Trazado_194843" data-name="Trazado 194843" d="M70.186,63.555a2,2,0,1,0-2,1.965,2,2,0,0,0,2-1.965" transform="translate(82 -43.406)" fill="#69d7e5"/>
          <path id="Trazado_194844" data-name="Trazado 194844" d="M4.014,71.844a1.986,1.986,0,0,0-2-1.965,1.965,1.965,0,0,0,0,3.93,1.986,1.986,0,0,0,2-1.965" transform="translate(-0.008 -33.511)" fill="#69d7e5"/>
          <path id="Trazado_194845" data-name="Trazado 194845" d="M12.277,71.828a2,2,0,1,0-2,1.965,2,2,0,0,0,2-1.965" transform="translate(10.249 -33.495)" fill="#69d7e5"/>
          <path id="Trazado_194846" data-name="Trazado 194846" d="M20.55,71.828a2,2,0,1,0-2,1.965,2,2,0,0,0,2-1.965" transform="translate(20.5 -33.495)" fill="#69d7e5"/>
          <path id="Trazado_194847" data-name="Trazado 194847" d="M28.823,71.828a2,2,0,1,0-2,1.965,2,2,0,0,0,2-1.965" transform="translate(30.75 -33.495)" fill="#69d7e5"/>
          <path id="Trazado_194848" data-name="Trazado 194848" d="M37.1,71.828a2,2,0,1,0-2,1.965,2,2,0,0,0,2-1.965" transform="translate(40.999 -33.495)" fill="#69d7e5"/>
          <path id="Trazado_194849" data-name="Trazado 194849" d="M45.364,71.828a2,2,0,1,0-2,1.965,2,2,0,0,0,2-1.965" transform="translate(51.251 -33.495)" fill="#69d7e5"/>
          <path id="Trazado_194850" data-name="Trazado 194850" d="M53.64,71.828a2,2,0,1,0-2,1.965,2,2,0,0,0,2-1.965" transform="translate(61.499 -33.495)" fill="#69d7e5"/>
          <path id="Trazado_194851" data-name="Trazado 194851" d="M61.913,71.828a2,2,0,1,0-2,1.965,2,2,0,0,0,2-1.965" transform="translate(71.749 -33.495)" fill="#69d7e5"/>
          <path id="Trazado_194852" data-name="Trazado 194852" d="M70.186,71.828a2,2,0,1,0-2,1.965,2,2,0,0,0,2-1.965" transform="translate(82 -33.495)" fill="#69d7e5"/>
          <path id="Trazado_194853" data-name="Trazado 194853" d="M4.014,80.116a1.986,1.986,0,0,0-2-1.965,1.965,1.965,0,0,0,0,3.93,1.986,1.986,0,0,0,2-1.965" transform="translate(-0.008 -23.601)" fill="#69d7e5"/>
          <path id="Trazado_194854" data-name="Trazado 194854" d="M12.277,80.1a2,2,0,1,0-2,1.964,2,2,0,0,0,2-1.964" transform="translate(10.249 -23.585)" fill="#69d7e5"/>
          <path id="Trazado_194855" data-name="Trazado 194855" d="M20.55,80.1a2,2,0,1,0-2,1.964,2,2,0,0,0,2-1.964" transform="translate(20.5 -23.585)" fill="#69d7e5"/>
          <path id="Trazado_194856" data-name="Trazado 194856" d="M28.823,80.1a2,2,0,1,0-2,1.964,2,2,0,0,0,2-1.964" transform="translate(30.75 -23.585)" fill="#69d7e5"/>
          <path id="Trazado_194857" data-name="Trazado 194857" d="M37.1,80.1a2,2,0,1,0-2,1.964,2,2,0,0,0,2-1.964" transform="translate(40.999 -23.585)" fill="#69d7e5"/>
          <path id="Trazado_194858" data-name="Trazado 194858" d="M45.364,80.1a2,2,0,1,0-2,1.964,2,2,0,0,0,2-1.964" transform="translate(51.251 -23.585)" fill="#69d7e5"/>
          <path id="Trazado_194859" data-name="Trazado 194859" d="M53.64,80.1a2,2,0,1,0-2,1.964,2,2,0,0,0,2-1.964" transform="translate(61.499 -23.585)" fill="#69d7e5"/>
          <path id="Trazado_194860" data-name="Trazado 194860" d="M61.913,80.1a2,2,0,1,0-2,1.964,2,2,0,0,0,2-1.964" transform="translate(71.749 -23.585)" fill="#69d7e5"/>
          <path id="Trazado_194861" data-name="Trazado 194861" d="M70.186,80.1a2,2,0,1,0-2,1.964,2,2,0,0,0,2-1.964" transform="translate(82 -23.585)" fill="#69d7e5"/>
          <path id="Trazado_194862" data-name="Trazado 194862" d="M4,88.39a1.986,1.986,0,0,0-2-1.965,1.967,1.967,0,1,0,0,3.932A1.986,1.986,0,0,0,4,88.39" transform="translate(0.004 -13.689)" fill="#69d7e5"/>
          <path id="Trazado_194863" data-name="Trazado 194863" d="M12.277,88.375a2,2,0,1,0-2,1.967,2,2,0,0,0,2-1.967" transform="translate(10.249 -13.674)" fill="#69d7e5"/>
          <path id="Trazado_194864" data-name="Trazado 194864" d="M20.55,88.375a2,2,0,1,0-2,1.967,2,2,0,0,0,2-1.967" transform="translate(20.5 -13.674)" fill="#69d7e5"/>
          <path id="Trazado_194865" data-name="Trazado 194865" d="M28.823,88.375a2,2,0,1,0-2,1.967,2,2,0,0,0,2-1.967" transform="translate(30.75 -13.674)" fill="#69d7e5"/>
          <path id="Trazado_194866" data-name="Trazado 194866" d="M37.1,88.375a2,2,0,1,0-2,1.967,2,2,0,0,0,2-1.967" transform="translate(40.999 -13.674)" fill="#69d7e5"/>
          <path id="Trazado_194867" data-name="Trazado 194867" d="M45.364,88.375a2,2,0,1,0-2,1.967,2,2,0,0,0,2-1.967" transform="translate(51.251 -13.674)" fill="#69d7e5"/>
          <path id="Trazado_194868" data-name="Trazado 194868" d="M53.64,88.375a2,2,0,1,0-2,1.967,2,2,0,0,0,2-1.967" transform="translate(61.499 -13.674)" fill="#69d7e5"/>
          <path id="Trazado_194869" data-name="Trazado 194869" d="M61.913,88.375a2,2,0,1,0-2,1.967,2,2,0,0,0,2-1.967" transform="translate(71.749 -13.674)" fill="#69d7e5"/>
          <path id="Trazado_194870" data-name="Trazado 194870" d="M70.186,88.374a2,2,0,1,0-2,1.966,2,2,0,0,0,2-1.966" transform="translate(82 -13.674)" fill="#69d7e5"/>
          <path id="Trazado_194871" data-name="Trazado 194871" d="M4.014,96.663a1.986,1.986,0,0,0-2-1.963,1.965,1.965,0,0,0,0,3.93,1.986,1.986,0,0,0,2-1.965" transform="translate(-0.008 -3.778)" fill="#69d7e5"/>
          <path id="Trazado_194872" data-name="Trazado 194872" d="M12.277,96.646a2,2,0,1,0-2,1.965,2,2,0,0,0,2-1.965" transform="translate(10.249 -3.762)" fill="#69d7e5"/>
          <path id="Trazado_194873" data-name="Trazado 194873" d="M20.55,96.646a2,2,0,1,0-2,1.965,2,2,0,0,0,2-1.965" transform="translate(20.5 -3.762)" fill="#69d7e5"/>
          <path id="Trazado_194874" data-name="Trazado 194874" d="M28.823,96.646a2,2,0,1,0-2,1.965,2,2,0,0,0,2-1.965" transform="translate(30.75 -3.762)" fill="#69d7e5"/>
          <path id="Trazado_194875" data-name="Trazado 194875" d="M37.1,96.646a2,2,0,1,0-2,1.965,2,2,0,0,0,2-1.965" transform="translate(40.999 -3.762)" fill="#69d7e5"/>
          <path id="Trazado_194876" data-name="Trazado 194876" d="M45.364,96.646a2,2,0,1,0-2,1.965,2,2,0,0,0,2-1.965" transform="translate(51.251 -3.762)" fill="#69d7e5"/>
          <path id="Trazado_194877" data-name="Trazado 194877" d="M53.64,96.646a2,2,0,1,0-2,1.965,2,2,0,0,0,2-1.965" transform="translate(61.499 -3.762)" fill="#69d7e5"/>
          <path id="Trazado_194878" data-name="Trazado 194878" d="M61.913,96.646a2,2,0,1,0-2,1.965,2,2,0,0,0,2-1.965" transform="translate(71.749 -3.762)" fill="#69d7e5"/>
          <path id="Trazado_194879" data-name="Trazado 194879" d="M70.186,96.646a2,2,0,1,0-2,1.965,2,2,0,0,0,2-1.965" transform="translate(82 -3.762)" fill="#69d7e5"/>
          <path id="Trazado_194880" data-name="Trazado 194880" d="M4.014,104.934a1.986,1.986,0,0,0-2-1.965,1.965,1.965,0,1,0,0,3.93,1.986,1.986,0,0,0,2-1.965" transform="translate(-0.008 6.132)" fill="#69d7e5"/>
          <path id="Trazado_194881" data-name="Trazado 194881" d="M12.277,104.918a2,2,0,1,0-2,1.965,2,2,0,0,0,2-1.965" transform="translate(10.249 6.148)" fill="#69d7e5"/>
          <path id="Trazado_194882" data-name="Trazado 194882" d="M20.55,104.918a2,2,0,1,0-2,1.965,2,2,0,0,0,2-1.965" transform="translate(20.5 6.148)" fill="#69d7e5"/>
          <path id="Trazado_194883" data-name="Trazado 194883" d="M28.823,104.918a2,2,0,1,0-2,1.965,2,2,0,0,0,2-1.965" transform="translate(30.75 6.148)" fill="#69d7e5"/>
          <path id="Trazado_194884" data-name="Trazado 194884" d="M37.1,104.918a2,2,0,1,0-2,1.965,2,2,0,0,0,2-1.965" transform="translate(40.999 6.148)" fill="#69d7e5"/>
          <path id="Trazado_194885" data-name="Trazado 194885" d="M45.364,104.918a2,2,0,1,0-2,1.965,2,2,0,0,0,2-1.965" transform="translate(51.251 6.148)" fill="#69d7e5"/>
          <path id="Trazado_194886" data-name="Trazado 194886" d="M53.64,104.918a2,2,0,1,0-2,1.965,2,2,0,0,0,2-1.965" transform="translate(61.499 6.148)" fill="#69d7e5"/>
          <path id="Trazado_194887" data-name="Trazado 194887" d="M61.913,104.918a2,2,0,1,0-2,1.965,2,2,0,0,0,2-1.965" transform="translate(71.749 6.148)" fill="#69d7e5"/>
          <path id="Trazado_194888" data-name="Trazado 194888" d="M70.186,104.918a2,2,0,1,0-2,1.965,2,2,0,0,0,2-1.965" transform="translate(82 6.148)" fill="#69d7e5"/>
          <path id="Trazado_194889" data-name="Trazado 194889" d="M4.014,113.207a1.986,1.986,0,0,0-2-1.965,1.965,1.965,0,0,0,0,3.93,1.986,1.986,0,0,0,2-1.965" transform="translate(-0.008 16.043)" fill="#69d7e5"/>
          <path id="Trazado_194890" data-name="Trazado 194890" d="M12.277,113.191a2,2,0,1,0-2,1.965,2,2,0,0,0,2-1.965" transform="translate(10.249 16.059)" fill="#69d7e5"/>
          <path id="Trazado_194891" data-name="Trazado 194891" d="M20.55,113.191a2,2,0,1,0-2,1.965,2,2,0,0,0,2-1.965" transform="translate(20.5 16.059)" fill="#69d7e5"/>
          <path id="Trazado_194892" data-name="Trazado 194892" d="M28.823,113.191a2,2,0,1,0-2,1.965,2,2,0,0,0,2-1.965" transform="translate(30.75 16.059)" fill="#69d7e5"/>
          <path id="Trazado_194893" data-name="Trazado 194893" d="M37.1,113.191a2,2,0,1,0-2,1.965,2,2,0,0,0,2-1.965" transform="translate(40.999 16.059)" fill="#69d7e5"/>
          <path id="Trazado_194894" data-name="Trazado 194894" d="M45.364,113.191a2,2,0,1,0-2,1.965,2,2,0,0,0,2-1.965" transform="translate(51.251 16.059)" fill="#69d7e5"/>
          <path id="Trazado_194895" data-name="Trazado 194895" d="M53.64,113.191a2,2,0,1,0-2,1.965,2,2,0,0,0,2-1.965" transform="translate(61.499 16.059)" fill="#69d7e5"/>
          <path id="Trazado_194896" data-name="Trazado 194896" d="M61.913,113.191a2,2,0,1,0-2,1.965,2,2,0,0,0,2-1.965" transform="translate(71.749 16.059)" fill="#69d7e5"/>
          <path id="Trazado_194897" data-name="Trazado 194897" d="M70.186,113.191a2,2,0,1,0-2,1.965,2,2,0,0,0,2-1.965" transform="translate(82 16.059)" fill="#69d7e5"/>
          <path id="Trazado_194898" data-name="Trazado 194898" d="M4.014,121.479a1.986,1.986,0,0,0-2-1.965,1.965,1.965,0,0,0,0,3.93,1.986,1.986,0,0,0,2-1.965" transform="translate(-0.008 25.953)" fill="#69d7e5"/>
          <path id="Trazado_194899" data-name="Trazado 194899" d="M12.277,121.463a2,2,0,1,0-2,1.965,2,2,0,0,0,2-1.965" transform="translate(10.249 25.969)" fill="#69d7e5"/>
          <path id="Trazado_194900" data-name="Trazado 194900" d="M20.55,121.463a2,2,0,1,0-2,1.965,2,2,0,0,0,2-1.965" transform="translate(20.5 25.969)" fill="#69d7e5"/>
          <path id="Trazado_194901" data-name="Trazado 194901" d="M28.823,121.463a2,2,0,1,0-2,1.965,2,2,0,0,0,2-1.965" transform="translate(30.75 25.969)" fill="#69d7e5"/>
          <path id="Trazado_194902" data-name="Trazado 194902" d="M37.1,121.463a2,2,0,1,0-2,1.965,2,2,0,0,0,2-1.965" transform="translate(40.999 25.969)" fill="#69d7e5"/>
          <path id="Trazado_194903" data-name="Trazado 194903" d="M45.364,121.463a2,2,0,1,0-2,1.965,2,2,0,0,0,2-1.965" transform="translate(51.251 25.969)" fill="#69d7e5"/>
          <path id="Trazado_194904" data-name="Trazado 194904" d="M53.64,121.463a2,2,0,1,0-2,1.965,2,2,0,0,0,2-1.965" transform="translate(61.499 25.969)" fill="#69d7e5"/>
          <path id="Trazado_194905" data-name="Trazado 194905" d="M61.913,121.463a2,2,0,1,0-2,1.965,2,2,0,0,0,2-1.965" transform="translate(71.749 25.969)" fill="#69d7e5"/>
          <path id="Trazado_194906" data-name="Trazado 194906" d="M70.186,121.463a2,2,0,1,0-2,1.965,2,2,0,0,0,2-1.965" transform="translate(82 25.969)" fill="#69d7e5"/>
        </g>
      </g>
      <g id="Grupo_154805" data-name="Grupo 154805" transform="translate(128.437 0)">
        <g id="Grupo_152768-2" data-name="Grupo 152768" transform="translate(0)" clip-path="url(#clip-path-2)">
          <path id="Trazado_194826-2" data-name="Trazado 194826" d="M1.937,54.3a.968.968,0,1,0-.968.969.968.968,0,0,0,.968-.969" transform="translate(0 -53.333)" fill="#ffb851"/>
          <path id="Trazado_194827-2" data-name="Trazado 194827" d="M10.209,54.3a.968.968,0,1,0-.968.969.968.968,0,0,0,.968-.969" transform="translate(0.684 -53.333)" fill="#ffb851"/>
          <path id="Trazado_194828-2" data-name="Trazado 194828" d="M18.482,54.3a.968.968,0,1,0-.968.969.968.968,0,0,0,.968-.969" transform="translate(1.368 -53.333)" fill="#ffb851"/>
          <path id="Trazado_194829-2" data-name="Trazado 194829" d="M26.755,54.3a.968.968,0,1,0-.968.969.968.968,0,0,0,.968-.969" transform="translate(2.051 -53.333)" fill="#ffb851"/>
          <path id="Trazado_194830-2" data-name="Trazado 194830" d="M35.027,54.3a.968.968,0,1,0-.968.969.968.968,0,0,0,.968-.969" transform="translate(2.735 -53.333)" fill="#ffb851"/>
          <path id="Trazado_194831-2" data-name="Trazado 194831" d="M43.3,54.3a.968.968,0,1,0-.968.969A.968.968,0,0,0,43.3,54.3" transform="translate(3.42 -53.333)" fill="#ffb851"/>
          <path id="Trazado_194832-2" data-name="Trazado 194832" d="M51.572,54.3a.968.968,0,1,0-.968.969.968.968,0,0,0,.968-.969" transform="translate(4.103 -53.333)" fill="#ffb851"/>
          <path id="Trazado_194833-2" data-name="Trazado 194833" d="M59.845,54.3a.968.968,0,1,0-.968.969.968.968,0,0,0,.968-.969" transform="translate(4.786 -53.333)" fill="#ffb851"/>
          <path id="Trazado_194834-2" data-name="Trazado 194834" d="M68.118,54.3a.968.968,0,1,0-.968.969.968.968,0,0,0,.968-.969" transform="translate(5.47 -53.333)" fill="#ffb851"/>
          <path id="Trazado_194835-2" data-name="Trazado 194835" d="M1.937,62.574a.967.967,0,1,0-.283.685.968.968,0,0,0,.283-.685" transform="translate(0 -52.649)" fill="#ffb851"/>
          <path id="Trazado_194836-2" data-name="Trazado 194836" d="M10.209,62.574a.967.967,0,1,0-.283.685.968.968,0,0,0,.283-.685" transform="translate(0.684 -52.649)" fill="#ffb851"/>
          <path id="Trazado_194837-2" data-name="Trazado 194837" d="M18.482,62.574a.967.967,0,1,0-.283.685.968.968,0,0,0,.283-.685" transform="translate(1.368 -52.649)" fill="#ffb851"/>
          <path id="Trazado_194838-2" data-name="Trazado 194838" d="M26.755,62.574a.967.967,0,1,0-.283.685.968.968,0,0,0,.283-.685" transform="translate(2.051 -52.649)" fill="#ffb851"/>
          <path id="Trazado_194839-2" data-name="Trazado 194839" d="M35.027,62.574a.967.967,0,1,0-.283.685.968.968,0,0,0,.283-.685" transform="translate(2.735 -52.649)" fill="#ffb851"/>
          <path id="Trazado_194840-2" data-name="Trazado 194840" d="M43.3,62.574a.967.967,0,1,0-.283.685.968.968,0,0,0,.283-.685" transform="translate(3.42 -52.649)" fill="#ffb851"/>
          <path id="Trazado_194841-2" data-name="Trazado 194841" d="M51.572,62.574a.967.967,0,1,0-.283.685.968.968,0,0,0,.283-.685" transform="translate(4.103 -52.649)" fill="#ffb851"/>
          <path id="Trazado_194842-2" data-name="Trazado 194842" d="M59.845,62.574a.968.968,0,1,0-.968.968.968.968,0,0,0,.968-.968" transform="translate(4.786 -52.649)" fill="#ffb851"/>
          <path id="Trazado_194843-2" data-name="Trazado 194843" d="M68.118,62.574a.967.967,0,1,0-.283.685.968.968,0,0,0,.283-.685" transform="translate(5.47 -52.649)" fill="#ffb851"/>
          <path id="Trazado_194844-2" data-name="Trazado 194844" d="M1.937,70.847a.967.967,0,1,0-.283.685.968.968,0,0,0,.283-.685" transform="translate(0 -51.965)" fill="#ffb851"/>
          <path id="Trazado_194845-2" data-name="Trazado 194845" d="M10.209,70.847a.967.967,0,1,0-.283.685.968.968,0,0,0,.283-.685" transform="translate(0.684 -51.965)" fill="#ffb851"/>
          <path id="Trazado_194846-2" data-name="Trazado 194846" d="M18.482,70.847a.967.967,0,1,0-.283.685.968.968,0,0,0,.283-.685" transform="translate(1.368 -51.965)" fill="#ffb851"/>
          <path id="Trazado_194847-2" data-name="Trazado 194847" d="M26.755,70.847a.967.967,0,1,0-.283.685.968.968,0,0,0,.283-.685" transform="translate(2.051 -51.965)" fill="#ffb851"/>
          <path id="Trazado_194848-2" data-name="Trazado 194848" d="M35.027,70.847a.967.967,0,1,0-.283.685.968.968,0,0,0,.283-.685" transform="translate(2.735 -51.965)" fill="#ffb851"/>
          <path id="Trazado_194849-2" data-name="Trazado 194849" d="M43.3,70.847a.967.967,0,1,0-.283.685.968.968,0,0,0,.283-.685" transform="translate(3.42 -51.965)" fill="#ffb851"/>
          <path id="Trazado_194850-2" data-name="Trazado 194850" d="M51.572,70.847a.967.967,0,1,0-.283.685.968.968,0,0,0,.283-.685" transform="translate(4.103 -51.965)" fill="#ffb851"/>
          <path id="Trazado_194851-2" data-name="Trazado 194851" d="M59.845,70.847a.968.968,0,1,0-.968.968.968.968,0,0,0,.968-.968" transform="translate(4.786 -51.965)" fill="#ffb851"/>
          <path id="Trazado_194852-2" data-name="Trazado 194852" d="M68.118,70.847a.967.967,0,1,0-.283.685.968.968,0,0,0,.283-.685" transform="translate(5.47 -51.965)" fill="#ffb851"/>
          <path id="Trazado_194853-2" data-name="Trazado 194853" d="M1.937,79.119a.967.967,0,1,0-.283.685.968.968,0,0,0,.283-.685" transform="translate(0 -51.282)" fill="#ffb851"/>
          <path id="Trazado_194854-2" data-name="Trazado 194854" d="M10.209,79.119a.967.967,0,1,0-.283.685.968.968,0,0,0,.283-.685" transform="translate(0.684 -51.282)" fill="#ffb851"/>
          <path id="Trazado_194855-2" data-name="Trazado 194855" d="M18.482,79.119a.967.967,0,1,0-.283.685.968.968,0,0,0,.283-.685" transform="translate(1.368 -51.282)" fill="#ffb851"/>
          <path id="Trazado_194856-2" data-name="Trazado 194856" d="M26.755,79.119a.967.967,0,1,0-.283.685.968.968,0,0,0,.283-.685" transform="translate(2.051 -51.282)" fill="#ffb851"/>
          <path id="Trazado_194857-2" data-name="Trazado 194857" d="M35.027,79.119a.967.967,0,1,0-.283.685.968.968,0,0,0,.283-.685" transform="translate(2.735 -51.282)" fill="#ffb851"/>
          <path id="Trazado_194858-2" data-name="Trazado 194858" d="M43.3,79.119a.967.967,0,1,0-.283.685.968.968,0,0,0,.283-.685" transform="translate(3.42 -51.282)" fill="#ffb851"/>
          <path id="Trazado_194859-2" data-name="Trazado 194859" d="M51.572,79.119a.967.967,0,1,0-.283.685.968.968,0,0,0,.283-.685" transform="translate(4.103 -51.282)" fill="#ffb851"/>
          <path id="Trazado_194860-2" data-name="Trazado 194860" d="M59.845,79.119a.968.968,0,1,0-.968.968.968.968,0,0,0,.968-.968" transform="translate(4.786 -51.282)" fill="#ffb851"/>
          <path id="Trazado_194861-2" data-name="Trazado 194861" d="M68.118,79.119a.967.967,0,1,0-.283.685.968.968,0,0,0,.283-.685" transform="translate(5.47 -51.282)" fill="#ffb851"/>
          <path id="Trazado_194862-2" data-name="Trazado 194862" d="M1.937,87.392a.967.967,0,1,0-.283.685.968.968,0,0,0,.283-.685" transform="translate(0 -50.598)" fill="#ffb851"/>
          <path id="Trazado_194863-2" data-name="Trazado 194863" d="M10.209,87.392a.967.967,0,1,0-.283.685.968.968,0,0,0,.283-.685" transform="translate(0.684 -50.598)" fill="#ffb851"/>
          <path id="Trazado_194864-2" data-name="Trazado 194864" d="M18.482,87.392a.967.967,0,1,0-.283.685.968.968,0,0,0,.283-.685" transform="translate(1.368 -50.598)" fill="#ffb851"/>
          <path id="Trazado_194865-2" data-name="Trazado 194865" d="M26.755,87.392a.967.967,0,1,0-.283.685.968.968,0,0,0,.283-.685" transform="translate(2.051 -50.598)" fill="#ffb851"/>
          <path id="Trazado_194866-2" data-name="Trazado 194866" d="M35.027,87.392a.967.967,0,1,0-.283.685.968.968,0,0,0,.283-.685" transform="translate(2.735 -50.598)" fill="#ffb851"/>
          <path id="Trazado_194867-2" data-name="Trazado 194867" d="M43.3,87.392a.967.967,0,1,0-.283.685.968.968,0,0,0,.283-.685" transform="translate(3.42 -50.598)" fill="#ffb851"/>
          <path id="Trazado_194868-2" data-name="Trazado 194868" d="M51.572,87.392a.967.967,0,1,0-.283.685.968.968,0,0,0,.283-.685" transform="translate(4.103 -50.598)" fill="#ffb851"/>
          <path id="Trazado_194869-2" data-name="Trazado 194869" d="M59.845,87.392a.968.968,0,1,0-.968.969.968.968,0,0,0,.968-.969" transform="translate(4.786 -50.598)" fill="#ffb851"/>
          <path id="Trazado_194870-2" data-name="Trazado 194870" d="M68.118,87.392a.967.967,0,1,0-.283.685.968.968,0,0,0,.283-.685" transform="translate(5.47 -50.598)" fill="#ffb851"/>
          <path id="Trazado_194871-2" data-name="Trazado 194871" d="M1.937,95.665a.967.967,0,1,0-.283.685.968.968,0,0,0,.283-.685" transform="translate(0 -49.914)" fill="#ffb851"/>
          <path id="Trazado_194872-2" data-name="Trazado 194872" d="M10.209,95.665a.967.967,0,1,0-.283.685.968.968,0,0,0,.283-.685" transform="translate(0.684 -49.914)" fill="#ffb851"/>
          <path id="Trazado_194873-2" data-name="Trazado 194873" d="M18.482,95.665a.967.967,0,1,0-.283.685.968.968,0,0,0,.283-.685" transform="translate(1.368 -49.914)" fill="#ffb851"/>
          <path id="Trazado_194874-2" data-name="Trazado 194874" d="M26.755,95.665a.967.967,0,1,0-.283.685.968.968,0,0,0,.283-.685" transform="translate(2.051 -49.914)" fill="#ffb851"/>
          <path id="Trazado_194875-2" data-name="Trazado 194875" d="M35.027,95.665a.967.967,0,1,0-.283.685.968.968,0,0,0,.283-.685" transform="translate(2.735 -49.914)" fill="#ffb851"/>
          <path id="Trazado_194876-2" data-name="Trazado 194876" d="M43.3,95.665a.967.967,0,1,0-.283.685.968.968,0,0,0,.283-.685" transform="translate(3.42 -49.914)" fill="#ffb851"/>
          <path id="Trazado_194877-2" data-name="Trazado 194877" d="M51.572,95.665a.967.967,0,1,0-.283.685.968.968,0,0,0,.283-.685" transform="translate(4.103 -49.914)" fill="#ffb851"/>
          <path id="Trazado_194878-2" data-name="Trazado 194878" d="M59.845,95.665a.968.968,0,1,0-.968.968.968.968,0,0,0,.968-.968" transform="translate(4.786 -49.914)" fill="#ffb851"/>
          <path id="Trazado_194879-2" data-name="Trazado 194879" d="M68.118,95.665a.967.967,0,1,0-.283.685.968.968,0,0,0,.283-.685" transform="translate(5.47 -49.914)" fill="#ffb851"/>
          <path id="Trazado_194880-2" data-name="Trazado 194880" d="M1.937,103.937a.967.967,0,1,0-.283.685.968.968,0,0,0,.283-.685" transform="translate(0 -49.23)" fill="#ffb851"/>
          <path id="Trazado_194881-2" data-name="Trazado 194881" d="M10.209,103.937a.967.967,0,1,0-.283.685.968.968,0,0,0,.283-.685" transform="translate(0.684 -49.23)" fill="#ffb851"/>
          <path id="Trazado_194882-2" data-name="Trazado 194882" d="M18.482,103.937a.967.967,0,1,0-.283.685.968.968,0,0,0,.283-.685" transform="translate(1.368 -49.23)" fill="#ffb851"/>
          <path id="Trazado_194883-2" data-name="Trazado 194883" d="M26.755,103.937a.967.967,0,1,0-.283.685.968.968,0,0,0,.283-.685" transform="translate(2.051 -49.23)" fill="#ffb851"/>
          <path id="Trazado_194884-2" data-name="Trazado 194884" d="M35.027,103.937a.967.967,0,1,0-.283.685.968.968,0,0,0,.283-.685" transform="translate(2.735 -49.23)" fill="#ffb851"/>
          <path id="Trazado_194885-2" data-name="Trazado 194885" d="M43.3,103.937a.967.967,0,1,0-.283.685.968.968,0,0,0,.283-.685" transform="translate(3.42 -49.23)" fill="#ffb851"/>
          <path id="Trazado_194886-2" data-name="Trazado 194886" d="M51.572,103.937a.967.967,0,1,0-.283.685.968.968,0,0,0,.283-.685" transform="translate(4.103 -49.23)" fill="#ffb851"/>
          <path id="Trazado_194887-2" data-name="Trazado 194887" d="M59.845,103.937a.968.968,0,1,0-.968.968.968.968,0,0,0,.968-.968" transform="translate(4.786 -49.23)" fill="#ffb851"/>
          <path id="Trazado_194888-2" data-name="Trazado 194888" d="M68.118,103.937a.967.967,0,1,0-.283.685.968.968,0,0,0,.283-.685" transform="translate(5.47 -49.23)" fill="#ffb851"/>
          <path id="Trazado_194889-2" data-name="Trazado 194889" d="M1.937,112.21a.967.967,0,1,0-.283.685.968.968,0,0,0,.283-.685" transform="translate(0 -48.546)" fill="#ffb851"/>
          <path id="Trazado_194890-2" data-name="Trazado 194890" d="M10.209,112.21a.967.967,0,1,0-.283.685.968.968,0,0,0,.283-.685" transform="translate(0.684 -48.546)" fill="#ffb851"/>
          <path id="Trazado_194891-2" data-name="Trazado 194891" d="M18.482,112.21a.967.967,0,1,0-.283.685.968.968,0,0,0,.283-.685" transform="translate(1.368 -48.546)" fill="#ffb851"/>
          <path id="Trazado_194892-2" data-name="Trazado 194892" d="M26.755,112.21a.967.967,0,1,0-.283.685.968.968,0,0,0,.283-.685" transform="translate(2.051 -48.546)" fill="#ffb851"/>
          <path id="Trazado_194893-2" data-name="Trazado 194893" d="M35.027,112.21a.967.967,0,1,0-.283.685.968.968,0,0,0,.283-.685" transform="translate(2.735 -48.546)" fill="#ffb851"/>
          <path id="Trazado_194894-2" data-name="Trazado 194894" d="M43.3,112.21a.967.967,0,1,0-.283.685.968.968,0,0,0,.283-.685" transform="translate(3.42 -48.546)" fill="#ffb851"/>
          <path id="Trazado_194895-2" data-name="Trazado 194895" d="M51.572,112.21a.967.967,0,1,0-.283.685.968.968,0,0,0,.283-.685" transform="translate(4.103 -48.546)" fill="#ffb851"/>
          <path id="Trazado_194896-2" data-name="Trazado 194896" d="M59.845,112.21a.968.968,0,1,0-.968.968.968.968,0,0,0,.968-.968" transform="translate(4.786 -48.546)" fill="#ffb851"/>
          <path id="Trazado_194897-2" data-name="Trazado 194897" d="M68.118,112.21a.967.967,0,1,0-.283.685.968.968,0,0,0,.283-.685" transform="translate(5.47 -48.546)" fill="#ffb851"/>
          <path id="Trazado_194898-2" data-name="Trazado 194898" d="M1.937,120.482a.967.967,0,1,0-.283.685.968.968,0,0,0,.283-.685" transform="translate(0 -47.862)" fill="#ffb851"/>
          <path id="Trazado_194899-2" data-name="Trazado 194899" d="M10.209,120.482a.967.967,0,1,0-.283.685.968.968,0,0,0,.283-.685" transform="translate(0.684 -47.862)" fill="#ffb851"/>
          <path id="Trazado_194900-2" data-name="Trazado 194900" d="M18.482,120.482a.967.967,0,1,0-.283.685.968.968,0,0,0,.283-.685" transform="translate(1.368 -47.862)" fill="#ffb851"/>
          <path id="Trazado_194901-2" data-name="Trazado 194901" d="M26.755,120.482a.967.967,0,1,0-.283.685.968.968,0,0,0,.283-.685" transform="translate(2.051 -47.862)" fill="#ffb851"/>
          <path id="Trazado_194902-2" data-name="Trazado 194902" d="M35.027,120.482a.967.967,0,1,0-.283.685.968.968,0,0,0,.283-.685" transform="translate(2.735 -47.862)" fill="#ffb851"/>
          <path id="Trazado_194903-2" data-name="Trazado 194903" d="M43.3,120.482a.967.967,0,1,0-.283.685.968.968,0,0,0,.283-.685" transform="translate(3.42 -47.862)" fill="#ffb851"/>
          <path id="Trazado_194904-2" data-name="Trazado 194904" d="M51.572,120.482a.967.967,0,1,0-.283.685.968.968,0,0,0,.283-.685" transform="translate(4.103 -47.862)" fill="#ffb851"/>
          <path id="Trazado_194905-2" data-name="Trazado 194905" d="M59.845,120.482a.968.968,0,1,0-.968.968.968.968,0,0,0,.968-.968" transform="translate(4.786 -47.862)" fill="#ffb851"/>
          <path id="Trazado_194906-2" data-name="Trazado 194906" d="M68.118,120.482a.967.967,0,1,0-.283.685.968.968,0,0,0,.283-.685" transform="translate(5.47 -47.862)" fill="#ffb851"/>
        </g>
      </g>
      <g id="Grupo_155254" data-name="Grupo 155254" transform="translate(25.008 350.516)">
        <g id="Grupo_154318" data-name="Grupo 154318">
          <g id="Grupo_154315" data-name="Grupo 154315" transform="translate(28.475 8.305)">
            <path id="Trazado_195058" data-name="Trazado 195058" d="M13.806,225.392H49.044a1.324,1.324,0,0,0,0-2.642H13.806a1.324,1.324,0,1,0,0,2.642" transform="translate(-12.394 -222.747)" fill="#12263f"/>
            <path id="Trazado_195059" data-name="Trazado 195059" d="M83.763,225.392h8.9a1.324,1.324,0,0,0,0-2.642h-8.9a1.324,1.324,0,1,0,0,2.642" transform="translate(-41.23 -222.747)" fill="#12263f"/>
            <path id="Trazado_195064" data-name="Trazado 195064" d="M108.957,232.612H84.206a.928.928,0,1,0,0,1.856h24.754a.928.928,0,1,0,0-1.856" transform="translate(-41.586 -226.813)" fill="#12263f"/>
            <path id="Trazado_195065" data-name="Trazado 195065" d="M72.79,232.612H66.541a.928.928,0,1,0,0,1.856H72.79a.928.928,0,1,0,0-1.856" transform="translate(-34.305 -226.813)" fill="#12263f"/>
          </g>
          <g id="Grupo_154316" data-name="Grupo 154316">
            <path id="Trazado_195062" data-name="Trazado 195062" d="M155.13,1.333h-41.6c-.861,0-1.559.414-1.559.928s.7.928,1.559.928h41.6c.861,0,1.56-.414,1.56-.928s-.7-.928-1.56-.928" transform="translate(-84.847 -1.333)" fill="#12263f"/>
            <path id="Trazado_195063" data-name="Trazado 195063" d="M113.059,1.333H96.733c-1.34,0-2.424.414-2.424.928s1.084.928,2.424.928h16.327c1.34,0,2.424-.414,2.424-.928s-1.084-.928-2.424-.928" transform="translate(-94.309 -1.333)" fill="#12263f"/>
          </g>
        </g>
      </g>
      <g id="Grupo_154801" data-name="Grupo 154801" transform="translate(0 336.347)">
        <g id="Grupo_154721" data-name="Grupo 154721" clip-path="url(#clip-path-3)">
          <line id="Línea_1878" data-name="Línea 1878" x1="18.786" y2="88.552" transform="translate(53.163 25.619)" fill="none" stroke="#1e0b4a" stroke-linecap="round" stroke-linejoin="round" stroke-width="1.052"/>
          <path id="Trazado_196481" data-name="Trazado 196481" d="M235.891,273.673a7.057,7.057,0,1,1-7.057-7.057,7.057,7.057,0,0,1,7.057,7.057" transform="translate(-156.885 -248.053)" fill="#6cb9ff"/>
          <path id="Trazado_196482" data-name="Trazado 196482" d="M245.082,327.73c-7.82,22.506-32.449,34.392-32.449,34.392s-11.95-24.6-4.13-47.1,32.449-34.391,32.449-34.391,11.95,24.6,4.13,47.1" transform="translate(-152.686 -247.951)" fill="#12263f"/>
          <path id="Trazado_196483" data-name="Trazado 196483" d="M286.079,315.92c3.626,34.214-21.241,64.894-21.241,64.894s-30.744-24.788-34.369-59,21.242-64.894,21.242-64.894,30.743,24.788,34.368,59" transform="translate(-215.826 -248.125)" fill="#69d7e5"/>
          <path id="Trazado_196484" data-name="Trazado 196484" d="M297.356,321.172a12.892,12.892,0,1,1-12.892-12.892,12.892,12.892,0,0,1,12.892,12.892" transform="translate(-268.512 -247.748)" fill="#12263f"/>
          <line id="Línea_1879" data-name="Línea 1879" x2="12.682" y2="119.689" transform="translate(36.33 13)" fill="none" stroke="#1e0b4a" stroke-linecap="round" stroke-linejoin="round" stroke-width="1.052"/>
          <line id="Línea_1880" data-name="Línea 1880" y1="15.59" x2="24.239" transform="translate(43.93 69.135)" fill="none" stroke="#1e0b4a" stroke-linecap="round" stroke-linejoin="round" stroke-width="1.052"/>
          <line id="Línea_1881" data-name="Línea 1881" x1="20.831" y1="10.914" transform="translate(19.876 43.399)" fill="none" stroke="#1e0b4a" stroke-linecap="round" stroke-linejoin="round" stroke-width="1.052"/>
          <line id="Línea_1882" data-name="Línea 1882" x2="22.667" y2="46.491" transform="translate(15.951 73.424)" fill="none" stroke="#1e0b4a" stroke-linecap="round" stroke-linejoin="round" stroke-width="1.052"/>
        </g>
      </g>
      <g id="Grupo_155255" data-name="Grupo 155255" transform="translate(41.605 19.541)">
        <g id="Grupo_154317" data-name="Grupo 154317">
          <g id="Grupo_154315-2" data-name="Grupo 154315" transform="translate(26.477 4.57)">
            <path id="Trazado_195058-2" data-name="Trazado 195058" d="M13.725,225.2H46.392a1.224,1.224,0,1,0,0-2.449H13.725a1.224,1.224,0,1,0,0,2.449" transform="translate(-12.5 -222.751)" fill="#344866"/>
            <path id="Trazado_195059-2" data-name="Trazado 195059" d="M83.686,225.2h8.248a1.224,1.224,0,1,0,0-2.449H83.686a1.224,1.224,0,1,0,0,2.449" transform="translate(-44.338 -222.751)" fill="#344866"/>
            <path id="Trazado_195064-2" data-name="Trazado 195064" d="M107.081,232.612H84.133a.86.86,0,0,0,0,1.721h22.947a.86.86,0,0,0,0-1.721" transform="translate(-44.707 -227.238)" fill="#344866"/>
            <path id="Trazado_195065-2" data-name="Trazado 195065" d="M72.268,232.612h-5.8a.86.86,0,1,0,0,1.721h5.8a.86.86,0,0,0,0-1.721" transform="translate(-36.671 -227.238)" fill="#344866"/>
          </g>
          <g id="Grupo_154316-2" data-name="Grupo 154316">
            <path id="Trazado_195062-2" data-name="Trazado 195062" d="M151.979,1.333H113.412c-.8,0-1.445.385-1.445.86s.647.86,1.445.86h38.566c.8,0,1.446-.385,1.446-.86s-.648-.86-1.446-.86" transform="translate(-86.825 -1.333)" fill="#344866"/>
            <path id="Trazado_195063-2" data-name="Trazado 195063" d="M111.691,1.333H96.556c-1.241,0-2.247.385-2.247.86s1,.86,2.247.86h15.135c1.241,0,2.247-.385,2.247-.86s-1-.86-2.247-.86" transform="translate(-94.309 -1.333)" fill="#344866"/>
          </g>
        </g>
      </g>
      <g id="Grupo_155256" data-name="Grupo 155256" transform="translate(173.326 135.313)">
        <rect id="Rectángulo_45220" data-name="Rectángulo 45220" width="92.915" height="22.065" transform="translate(41.991) rotate(90)" fill="#ffd453"/>
        <rect id="Rectángulo_45221" data-name="Rectángulo 45221" width="2.858" height="2.858" transform="translate(0 20.047) rotate(-90)" fill="#a4e7f0"/>
        <rect id="Rectángulo_45222" data-name="Rectángulo 45222" width="2.858" height="2.858" transform="translate(0 26.119) rotate(-90)" fill="#a4e7f0"/>
        <rect id="Rectángulo_45223" data-name="Rectángulo 45223" width="2.858" height="2.858" transform="translate(0 32.191) rotate(-90)" fill="#a4e7f0"/>
        <rect id="Rectángulo_45224" data-name="Rectángulo 45224" width="2.857" height="2.858" transform="translate(0 38.264) rotate(-90)" fill="#a4e7f0"/>
        <rect id="Rectángulo_45225" data-name="Rectángulo 45225" width="2.858" height="2.858" transform="translate(0 44.336) rotate(-90)" fill="#a4e7f0"/>
        <rect id="Rectángulo_45226" data-name="Rectángulo 45226" width="2.857" height="2.858" transform="translate(0 50.408) rotate(-90)" fill="#a4e7f0"/>
        <rect id="Rectángulo_45227" data-name="Rectángulo 45227" width="2.858" height="2.858" transform="translate(0 56.481) rotate(-90)" fill="#a4e7f0"/>
        <rect id="Rectángulo_45228" data-name="Rectángulo 45228" width="2.857" height="2.858" transform="translate(0 62.553) rotate(-90)" fill="#a4e7f0"/>
        <rect id="Rectángulo_45229" data-name="Rectángulo 45229" width="2.858" height="2.858" transform="translate(0 68.626) rotate(-90)" fill="#a4e7f0"/>
        <rect id="Rectángulo_46135" data-name="Rectángulo 46135" width="2.858" height="2.858" transform="translate(0 86.842) rotate(-90)" fill="#a4e7f0"/>
        <rect id="Rectángulo_46159" data-name="Rectángulo 46159" width="2.858" height="2.858" transform="translate(0 105.06) rotate(-90)" fill="#a4e7f0"/>
        <rect id="Rectángulo_45230" data-name="Rectángulo 45230" width="2.858" height="2.858" transform="translate(0 74.697) rotate(-90)" fill="#a4e7f0"/>
        <rect id="Rectángulo_46125" data-name="Rectángulo 46125" width="2.858" height="2.858" transform="translate(0 92.915) rotate(-90)" fill="#a4e7f0"/>
        <rect id="Rectángulo_46160" data-name="Rectángulo 46160" width="2.858" height="2.858" transform="translate(0 111.132) rotate(-90)" fill="#a4e7f0"/>
        <rect id="Rectángulo_46168" data-name="Rectángulo 46168" width="2.858" height="2.858" transform="translate(0 123.276) rotate(-90)" fill="#a4e7f0"/>
        <rect id="Rectángulo_45231" data-name="Rectángulo 45231" width="2.858" height="2.858" transform="translate(0 80.77) rotate(-90)" fill="#a4e7f0"/>
        <rect id="Rectángulo_46123" data-name="Rectángulo 46123" width="2.858" height="2.858" transform="translate(0 98.987) rotate(-90)" fill="#a4e7f0"/>
        <rect id="Rectángulo_46161" data-name="Rectángulo 46161" width="2.858" height="2.858" transform="translate(0 117.204) rotate(-90)" fill="#a4e7f0"/>
        <rect id="Rectángulo_46162" data-name="Rectángulo 46162" width="2.858" height="2.858" transform="translate(0 129.348) rotate(-90)" fill="#a4e7f0"/>
        <rect id="Rectángulo_45232" data-name="Rectángulo 45232" width="2.858" height="2.858" transform="translate(6.073 20.047) rotate(-90)" fill="#a4e7f0"/>
        <rect id="Rectángulo_45233" data-name="Rectángulo 45233" width="2.858" height="2.858" transform="translate(6.073 26.119) rotate(-90)" fill="#a4e7f0"/>
        <rect id="Rectángulo_45234" data-name="Rectángulo 45234" width="2.858" height="2.858" transform="translate(6.073 32.191) rotate(-90)" fill="#a4e7f0"/>
        <rect id="Rectángulo_45235" data-name="Rectángulo 45235" width="2.857" height="2.858" transform="translate(6.073 38.264) rotate(-90)" fill="#a4e7f0"/>
        <rect id="Rectángulo_45236" data-name="Rectángulo 45236" width="2.858" height="2.858" transform="translate(6.073 44.336) rotate(-90)" fill="#a4e7f0"/>
        <rect id="Rectángulo_45237" data-name="Rectángulo 45237" width="2.857" height="2.858" transform="translate(6.073 50.408) rotate(-90)" fill="#a4e7f0"/>
        <rect id="Rectángulo_45238" data-name="Rectángulo 45238" width="2.858" height="2.858" transform="translate(6.073 56.481) rotate(-90)" fill="#a4e7f0"/>
        <rect id="Rectángulo_45239" data-name="Rectángulo 45239" width="2.857" height="2.858" transform="translate(6.073 62.553) rotate(-90)" fill="#a4e7f0"/>
        <rect id="Rectángulo_45240" data-name="Rectángulo 45240" width="2.858" height="2.858" transform="translate(6.073 68.626) rotate(-90)" fill="#a4e7f0"/>
        <rect id="Rectángulo_46136" data-name="Rectángulo 46136" width="2.858" height="2.858" transform="translate(6.073 86.842) rotate(-90)" fill="#a4e7f0"/>
        <rect id="Rectángulo_46156" data-name="Rectángulo 46156" width="2.858" height="2.858" transform="translate(6.073 105.06) rotate(-90)" fill="#a4e7f0"/>
        <rect id="Rectángulo_45241" data-name="Rectángulo 45241" width="2.858" height="2.858" transform="translate(6.073 74.697) rotate(-90)" fill="#a4e7f0"/>
        <rect id="Rectángulo_46126" data-name="Rectángulo 46126" width="2.858" height="2.858" transform="translate(6.073 92.915) rotate(-90)" fill="#a4e7f0"/>
        <rect id="Rectángulo_46157" data-name="Rectángulo 46157" width="2.858" height="2.858" transform="translate(6.073 111.132) rotate(-90)" fill="#a4e7f0"/>
        <rect id="Rectángulo_46169" data-name="Rectángulo 46169" width="2.858" height="2.858" transform="translate(6.073 123.276) rotate(-90)" fill="#a4e7f0"/>
        <rect id="Rectángulo_45242" data-name="Rectángulo 45242" width="2.858" height="2.858" transform="translate(6.073 80.77) rotate(-90)" fill="#a4e7f0"/>
        <rect id="Rectángulo_46124" data-name="Rectángulo 46124" width="2.858" height="2.858" transform="translate(6.073 98.987) rotate(-90)" fill="#a4e7f0"/>
        <rect id="Rectángulo_46158" data-name="Rectángulo 46158" width="2.858" height="2.858" transform="translate(6.073 117.204) rotate(-90)" fill="#a4e7f0"/>
        <rect id="Rectángulo_46163" data-name="Rectángulo 46163" width="2.858" height="2.858" transform="translate(6.073 129.348) rotate(-90)" fill="#a4e7f0"/>
        <rect id="Rectángulo_45243" data-name="Rectángulo 45243" width="2.858" height="2.858" transform="translate(11.179 20.047) rotate(-90)" fill="#a4e7f0"/>
        <rect id="Rectángulo_45244" data-name="Rectángulo 45244" width="2.858" height="2.858" transform="translate(11.179 26.119) rotate(-90)" fill="#a4e7f0"/>
        <rect id="Rectángulo_45245" data-name="Rectángulo 45245" width="2.858" height="2.858" transform="translate(11.179 32.191) rotate(-90)" fill="#a4e7f0"/>
        <rect id="Rectángulo_45246" data-name="Rectángulo 45246" width="2.857" height="2.858" transform="translate(11.179 38.264) rotate(-90)" fill="#a4e7f0"/>
        <rect id="Rectángulo_45247" data-name="Rectángulo 45247" width="2.858" height="2.858" transform="translate(11.179 44.336) rotate(-90)" fill="#a4e7f0"/>
        <rect id="Rectángulo_45248" data-name="Rectángulo 45248" width="2.857" height="2.858" transform="translate(11.179 50.408) rotate(-90)" fill="#a4e7f0"/>
        <rect id="Rectángulo_45249" data-name="Rectángulo 45249" width="2.858" height="2.858" transform="translate(11.179 56.481) rotate(-90)" fill="#a4e7f0"/>
        <rect id="Rectángulo_45250" data-name="Rectángulo 45250" width="2.857" height="2.858" transform="translate(11.179 62.553) rotate(-90)" fill="#a4e7f0"/>
        <rect id="Rectángulo_45251" data-name="Rectángulo 45251" width="2.858" height="2.858" transform="translate(11.179 68.626) rotate(-90)" fill="#a4e7f0"/>
        <rect id="Rectángulo_46137" data-name="Rectángulo 46137" width="2.858" height="2.858" transform="translate(11.179 86.842) rotate(-90)" fill="#a4e7f0"/>
        <rect id="Rectángulo_46146" data-name="Rectángulo 46146" width="2.858" height="2.858" transform="translate(11.179 105.06) rotate(-90)" fill="#a4e7f0"/>
        <rect id="Rectángulo_45252" data-name="Rectángulo 45252" width="2.858" height="2.858" transform="translate(11.179 74.697) rotate(-90)" fill="#a4e7f0"/>
        <rect id="Rectángulo_46127" data-name="Rectángulo 46127" width="2.858" height="2.858" transform="translate(11.179 92.915) rotate(-90)" fill="#a4e7f0"/>
        <rect id="Rectángulo_46147" data-name="Rectángulo 46147" width="2.858" height="2.858" transform="translate(11.179 111.132) rotate(-90)" fill="#a4e7f0"/>
        <rect id="Rectángulo_46170" data-name="Rectángulo 46170" width="2.858" height="2.858" transform="translate(11.179 123.276) rotate(-90)" fill="#a4e7f0"/>
        <rect id="Rectángulo_45253" data-name="Rectángulo 45253" width="2.858" height="2.858" transform="translate(11.179 80.77) rotate(-90)" fill="#a4e7f0"/>
        <rect id="Rectángulo_46128" data-name="Rectángulo 46128" width="2.858" height="2.858" transform="translate(11.179 98.987) rotate(-90)" fill="#a4e7f0"/>
        <rect id="Rectángulo_46148" data-name="Rectángulo 46148" width="2.858" height="2.858" transform="translate(11.179 117.204) rotate(-90)" fill="#a4e7f0"/>
        <rect id="Rectángulo_46164" data-name="Rectángulo 46164" width="2.858" height="2.858" transform="translate(11.179 129.348) rotate(-90)" fill="#a4e7f0"/>
        <rect id="Rectángulo_45221-2" data-name="Rectángulo 45221" width="2.858" height="2.858" transform="translate(16.301 20.047) rotate(-90)" fill="#a4e7f0"/>
        <rect id="Rectángulo_45222-2" data-name="Rectángulo 45222" width="2.858" height="2.858" transform="translate(16.301 26.119) rotate(-90)" fill="#a4e7f0"/>
        <rect id="Rectángulo_45223-2" data-name="Rectángulo 45223" width="2.858" height="2.858" transform="translate(16.301 32.191) rotate(-90)" fill="#a4e7f0"/>
        <rect id="Rectángulo_45224-2" data-name="Rectángulo 45224" width="2.857" height="2.858" transform="translate(16.301 38.264) rotate(-90)" fill="#a4e7f0"/>
        <rect id="Rectángulo_45225-2" data-name="Rectángulo 45225" width="2.858" height="2.858" transform="translate(16.301 44.336) rotate(-90)" fill="#a4e7f0"/>
        <rect id="Rectángulo_45226-2" data-name="Rectángulo 45226" width="2.857" height="2.858" transform="translate(16.301 50.408) rotate(-90)" fill="#a4e7f0"/>
        <rect id="Rectángulo_45227-2" data-name="Rectángulo 45227" width="2.858" height="2.858" transform="translate(16.301 56.481) rotate(-90)" fill="#a4e7f0"/>
        <rect id="Rectángulo_45228-2" data-name="Rectángulo 45228" width="2.857" height="2.858" transform="translate(16.301 62.553) rotate(-90)" fill="#a4e7f0"/>
        <rect id="Rectángulo_45229-2" data-name="Rectángulo 45229" width="2.858" height="2.858" transform="translate(16.301 68.626) rotate(-90)" fill="#a4e7f0"/>
        <rect id="Rectángulo_46138" data-name="Rectángulo 46138" width="2.858" height="2.858" transform="translate(16.301 86.842) rotate(-90)" fill="#a4e7f0"/>
        <rect id="Rectángulo_46149" data-name="Rectángulo 46149" width="2.858" height="2.858" transform="translate(16.301 105.06) rotate(-90)" fill="#a4e7f0"/>
        <rect id="Rectángulo_45230-2" data-name="Rectángulo 45230" width="2.858" height="2.858" transform="translate(16.301 74.697) rotate(-90)" fill="#a4e7f0"/>
        <rect id="Rectángulo_46129" data-name="Rectángulo 46129" width="2.858" height="2.858" transform="translate(16.301 92.915) rotate(-90)" fill="#a4e7f0"/>
        <rect id="Rectángulo_46150" data-name="Rectángulo 46150" width="2.858" height="2.858" transform="translate(16.301 111.132) rotate(-90)" fill="#a4e7f0"/>
        <rect id="Rectángulo_46171" data-name="Rectángulo 46171" width="2.858" height="2.858" transform="translate(16.301 123.276) rotate(-90)" fill="#a4e7f0"/>
        <rect id="Rectángulo_45231-2" data-name="Rectángulo 45231" width="2.858" height="2.858" transform="translate(16.301 80.77) rotate(-90)" fill="#a4e7f0"/>
        <rect id="Rectángulo_46130" data-name="Rectángulo 46130" width="2.858" height="2.858" transform="translate(16.301 98.987) rotate(-90)" fill="#a4e7f0"/>
        <rect id="Rectángulo_46151" data-name="Rectángulo 46151" width="2.858" height="2.858" transform="translate(16.301 117.204) rotate(-90)" fill="#a4e7f0"/>
        <rect id="Rectángulo_46165" data-name="Rectángulo 46165" width="2.858" height="2.858" transform="translate(16.301 129.348) rotate(-90)" fill="#a4e7f0"/>
        <rect id="Rectángulo_45232-2" data-name="Rectángulo 45232" width="2.858" height="2.858" transform="translate(21.891 20.047) rotate(-90)" fill="#a4e7f0"/>
        <rect id="Rectángulo_45233-2" data-name="Rectángulo 45233" width="2.858" height="2.858" transform="translate(21.891 26.119) rotate(-90)" fill="#a4e7f0"/>
        <rect id="Rectángulo_45234-2" data-name="Rectángulo 45234" width="2.858" height="2.858" transform="translate(21.891 32.191) rotate(-90)" fill="#a4e7f0"/>
        <rect id="Rectángulo_45235-2" data-name="Rectángulo 45235" width="2.857" height="2.858" transform="translate(21.891 38.264) rotate(-90)" fill="#a4e7f0"/>
        <rect id="Rectángulo_45236-2" data-name="Rectángulo 45236" width="2.858" height="2.858" transform="translate(21.891 44.336) rotate(-90)" fill="#a4e7f0"/>
        <rect id="Rectángulo_45237-2" data-name="Rectángulo 45237" width="2.857" height="2.858" transform="translate(21.891 50.408) rotate(-90)" fill="#a4e7f0"/>
        <rect id="Rectángulo_45238-2" data-name="Rectángulo 45238" width="2.858" height="2.858" transform="translate(21.891 56.481) rotate(-90)" fill="#a4e7f0"/>
        <rect id="Rectángulo_45239-2" data-name="Rectángulo 45239" width="2.857" height="2.858" transform="translate(21.891 62.553) rotate(-90)" fill="#a4e7f0"/>
        <rect id="Rectángulo_45240-2" data-name="Rectángulo 45240" width="2.858" height="2.858" transform="translate(21.891 68.626) rotate(-90)" fill="#a4e7f0"/>
        <rect id="Rectángulo_46139" data-name="Rectángulo 46139" width="2.858" height="2.858" transform="translate(21.891 86.842) rotate(-90)" fill="#a4e7f0"/>
        <rect id="Rectángulo_46152" data-name="Rectángulo 46152" width="2.858" height="2.858" transform="translate(21.891 105.06) rotate(-90)" fill="#a4e7f0"/>
        <rect id="Rectángulo_45241-2" data-name="Rectángulo 45241" width="2.858" height="2.858" transform="translate(21.891 74.697) rotate(-90)" fill="#a4e7f0"/>
        <rect id="Rectángulo_46131" data-name="Rectángulo 46131" width="2.858" height="2.858" transform="translate(21.891 92.915) rotate(-90)" fill="#a4e7f0"/>
        <rect id="Rectángulo_46153" data-name="Rectángulo 46153" width="2.858" height="2.858" transform="translate(21.891 111.132) rotate(-90)" fill="#a4e7f0"/>
        <rect id="Rectángulo_46172" data-name="Rectángulo 46172" width="2.858" height="2.858" transform="translate(21.891 123.276) rotate(-90)" fill="#a4e7f0"/>
        <rect id="Rectángulo_45242-2" data-name="Rectángulo 45242" width="2.858" height="2.858" transform="translate(21.891 80.77) rotate(-90)" fill="#a4e7f0"/>
        <rect id="Rectángulo_46132" data-name="Rectángulo 46132" width="2.858" height="2.858" transform="translate(21.891 98.987) rotate(-90)" fill="#a4e7f0"/>
        <rect id="Rectángulo_46154" data-name="Rectángulo 46154" width="2.858" height="2.858" transform="translate(21.891 117.204) rotate(-90)" fill="#a4e7f0"/>
        <rect id="Rectángulo_46166" data-name="Rectángulo 46166" width="2.858" height="2.858" transform="translate(21.891 129.348) rotate(-90)" fill="#a4e7f0"/>
        <rect id="Rectángulo_45243-2" data-name="Rectángulo 45243" width="2.858" height="2.858" transform="translate(27.48 20.047) rotate(-90)" fill="#a4e7f0"/>
        <rect id="Rectángulo_45244-2" data-name="Rectángulo 45244" width="2.858" height="2.858" transform="translate(27.48 26.119) rotate(-90)" fill="#a4e7f0"/>
        <rect id="Rectángulo_45245-2" data-name="Rectángulo 45245" width="2.858" height="2.858" transform="translate(27.48 32.191) rotate(-90)" fill="#a4e7f0"/>
        <rect id="Rectángulo_45246-2" data-name="Rectángulo 45246" width="2.857" height="2.858" transform="translate(27.48 38.264) rotate(-90)" fill="#a4e7f0"/>
        <rect id="Rectángulo_45247-2" data-name="Rectángulo 45247" width="2.858" height="2.858" transform="translate(27.48 44.336) rotate(-90)" fill="#a4e7f0"/>
        <rect id="Rectángulo_45248-2" data-name="Rectángulo 45248" width="2.857" height="2.858" transform="translate(27.48 50.408) rotate(-90)" fill="#a4e7f0"/>
        <rect id="Rectángulo_45249-2" data-name="Rectángulo 45249" width="2.858" height="2.858" transform="translate(27.48 56.481) rotate(-90)" fill="#a4e7f0"/>
        <rect id="Rectángulo_45250-2" data-name="Rectángulo 45250" width="2.857" height="2.858" transform="translate(27.48 62.553) rotate(-90)" fill="#a4e7f0"/>
        <rect id="Rectángulo_45251-2" data-name="Rectángulo 45251" width="2.858" height="2.858" transform="translate(27.48 68.626) rotate(-90)" fill="#a4e7f0"/>
        <rect id="Rectángulo_46140" data-name="Rectángulo 46140" width="2.858" height="2.858" transform="translate(27.48 86.842) rotate(-90)" fill="#a4e7f0"/>
        <rect id="Rectángulo_46144" data-name="Rectángulo 46144" width="2.858" height="2.858" transform="translate(27.48 105.06) rotate(-90)" fill="#a4e7f0"/>
        <rect id="Rectángulo_45252-2" data-name="Rectángulo 45252" width="2.858" height="2.858" transform="translate(27.48 74.697) rotate(-90)" fill="#a4e7f0"/>
        <rect id="Rectángulo_46133" data-name="Rectángulo 46133" width="2.858" height="2.858" transform="translate(27.48 92.915) rotate(-90)" fill="#a4e7f0"/>
        <rect id="Rectángulo_46145" data-name="Rectángulo 46145" width="2.858" height="2.858" transform="translate(27.48 111.132) rotate(-90)" fill="#a4e7f0"/>
        <rect id="Rectángulo_46173" data-name="Rectángulo 46173" width="2.858" height="2.858" transform="translate(27.48 123.276) rotate(-90)" fill="#a4e7f0"/>
        <rect id="Rectángulo_45253-2" data-name="Rectángulo 45253" width="2.858" height="2.858" transform="translate(27.48 80.77) rotate(-90)" fill="#a4e7f0"/>
        <rect id="Rectángulo_46134" data-name="Rectángulo 46134" width="2.858" height="2.858" transform="translate(27.48 98.987) rotate(-90)" fill="#a4e7f0"/>
        <rect id="Rectángulo_46155" data-name="Rectángulo 46155" width="2.858" height="2.858" transform="translate(27.48 117.204) rotate(-90)" fill="#a4e7f0"/>
        <rect id="Rectángulo_46167" data-name="Rectángulo 46167" width="2.858" height="2.858" transform="translate(27.48 129.348) rotate(-90)" fill="#a4e7f0"/>
      </g>
    </g>
    <g id="Grupo_1211062" data-name="Grupo 1211062" transform="translate(-59.514 19.447)">
      <g id="Grupo_1211061" data-name="Grupo 1211061" transform="translate(51 0)">
        <g id="Grupo_1211060" data-name="Grupo 1211060" clip-path="url(#clip-path-5)">
          <line id="Línea_3262" data-name="Línea 3262" x1="208" y1="3.001" transform="translate(18.166 439.917)" fill="none" stroke="#d9d8de" stroke-miterlimit="10" stroke-width="0.933"/>
          <path id="Trazado_1273546" data-name="Trazado 1273546" d="M121.294,33.046l45.813.343a3.777,3.777,0,0,0,3.7-3.851l.1-14.88a3.782,3.782,0,0,0-3.645-3.905l-45.813-.343a3.775,3.775,0,0,0-3.7,3.851l-.1,14.88a3.784,3.784,0,0,0,3.645,3.905" transform="translate(-113.056 14.064)" fill="#ffd453"/>
          <path id="Trazado_1273547" data-name="Trazado 1273547" d="M140.331,18.211l-5.214,10.514a1.737,1.737,0,0,1-3.107.094L125.917,18.1Z" transform="translate(-100.883 24.458)" fill="#ffd453"/>
          <path id="Trazado_1273548" data-name="Trazado 1273548" d="M122.981,16.6a2.109,2.109,0,1,0,2.121-2.208,2.168,2.168,0,0,0-2.121,2.208" transform="translate(-81.212 19.443)" fill="#fff"/>
          <path id="Trazado_1273549" data-name="Trazado 1273549" d="M128.667,16.56a2.111,2.111,0,1,0,2.123-2.21,2.173,2.173,0,0,0-2.123,2.21" transform="translate(-99.554 19.387)" fill="#fff"/>
          <path id="Trazado_1273550" data-name="Trazado 1273550" d="M134.354,16.519a2.109,2.109,0,1,0,2.121-2.208,2.171,2.171,0,0,0-2.121,2.208" transform="translate(-117.895 19.334)" fill="#fff"/>
          <path id="Trazado_1273551" data-name="Trazado 1273551" d="M88.074,199.337l3.392-33.6,19.624-.915-3.449,36.913-16.059-.12Z" transform="translate(12.574 222.681)" fill="#e2aa7d"/>
          <path id="Trazado_1273552" data-name="Trazado 1273552" d="M147.748,178.968s-17.009,7.476-24.791-4.812l-36.735,22.96,66.525.5Z" transform="translate(-24.961 235.287)"/>
          <rect id="Rectángulo_460794" data-name="Rectángulo 460794" width="66.529" height="6.665" transform="translate(127.74 439.538) rotate(-179.594)" fill="#fff"/>
          <path id="Trazado_1273553" data-name="Trazado 1273553" d="M124.644,77.819,109.651,298.081l-30.869-.23s1.311-136.665,13.593-222.04Z" transform="translate(19.7 102.422)" fill="#644602"/>
          <path id="Trazado_1273554" data-name="Trazado 1273554" d="M69.2,199.5l-.452-33.627,19.579-.915.438,36.942-16.059-.12Z" transform="translate(77.918 222.865)" fill="#e2aa7d"/>
          <path id="Trazado_1273555" data-name="Trazado 1273555" d="M126.869,179.115s-17.009,7.476-24.791-4.813l-36.735,22.96,66.525.5Z" transform="translate(42.383 235.486)"/>
          <rect id="Rectángulo_460795" data-name="Rectángulo 460795" width="66.529" height="6.665" transform="translate(174.206 439.885) rotate(-179.594)" fill="#fff"/>
          <path id="Trazado_1273556" data-name="Trazado 1273556" d="M64.318,78.512l12.656-.383-.049-1.013,47.744-.228c4.74,80.8-1.569,220.07-1.569,220.07l-35.2-.263L78.314,104.911Z" transform="translate(50.098 103.876)" fill="#644602"/>
          <path id="Trazado_1273557" data-name="Trazado 1273557" d="M95.949,207.681,94.556,98.213,83.28,88.546" transform="translate(38.385 119.627)" fill="none" stroke="#9d8542" stroke-miterlimit="10" stroke-width="1"/>
          <path id="Trazado_1273558" data-name="Trazado 1273558" d="M116.139,21.659s.454-16.293-22.786-17.4c-20.1-.962-22.726,7.784-24.524,13.758S91.477,40.248,91.477,40.248Z" transform="translate(50.566 5.649)" fill="#1f2326"/>
          <path id="Trazado_1273559" data-name="Trazado 1273559" d="M93.547,53.908,94.8,21.29,74.96,20.38l-1.242,31.5c-.238,5.788,4.032,8.412,9.509,8.664s10.081-.846,10.319-6.632" transform="translate(60.835 27.534)" fill="#e2aa7d"/>
          <path id="Trazado_1273560" data-name="Trazado 1273560" d="M94.651,22.282s2.782,19.4-20.926,24.07l.71-14.976Z" transform="translate(60.843 30.104)" fill="#d19869"/>
          <path id="Trazado_1273561" data-name="Trazado 1273561" d="M96.453,6.189S82.407,6.015,86.032,29.5L93,19.453Z" transform="translate(33.086 8.361)" fill="#0b0006"/>
          <path id="Trazado_1273562" data-name="Trazado 1273562" d="M99.347,22.5A7.084,7.084,0,0,1,92.1,29.453,7.175,7.175,0,0,1,85.513,21.8a7.084,7.084,0,0,1,7.248-6.957A7.175,7.175,0,0,1,99.347,22.5" transform="translate(30.026 20.036)" fill="#d19869"/>
          <path id="Trazado_1273563" data-name="Trazado 1273563" d="M90.465,58.352h0c-10.622-.538-19.007-7.747-18.5-18.97L72.985,17A8.635,8.635,0,0,1,81.8,8.548l21.814,1.107a8.745,8.745,0,0,1,8,9.308l-.875,19.222c-.51,11.224-11.316,20.621-20.274,20.167" transform="translate(47.934 11.535)" fill="#e2aa7d"/>
          <path id="Trazado_1273564" data-name="Trazado 1273564" d="M75.78,31.479h0S65.252,24.035,69.869,9.207l10.856.55s1.611-2.523,3.823.933-2.824,19.664-2.824,19.664Z" transform="translate(81.673 11.982)" fill="#0b0006"/>
          <path id="Trazado_1273565" data-name="Trazado 1273565" d="M106.974,35.332l-3.9-11.266s-25.795,3.369-32.126-4.319C64.869,12.365,69.832,1.285,74.984.133c4.026-.9,8.376,3.03,11.45,4.813s10.424.139,12.64.014,11.784-2.2,14.648,8.433c0,0,15.549,6.087-.572,33.707,0,0-6.307-4.063-6.176-11.767" transform="translate(47.541 0.001)" fill="#0b0006"/>
          <path id="Trazado_1273566" data-name="Trazado 1273566" d="M82.509,23.573a7.128,7.128,0,1,1-14.232-.3,7.128,7.128,0,1,1,14.232.3" transform="translate(85.212 21.484)" fill="#e2aa7d"/>
          <path id="Trazado_1273567" data-name="Trazado 1273567" d="M70.19,22.67s.1-5.45,5.021-4.488" transform="translate(88.253 24.411)" fill="none" stroke="#000" stroke-linecap="round" stroke-linejoin="round" stroke-width="0.448"/>
          <path id="Trazado_1273568" data-name="Trazado 1273568" d="M104.37,19.418s.692,14.953-2.466,19.292-4.789-.134-15.99-1.98S71.881,40.26,71.881,40.26s.514,15.065,15.2,15.811c11.4.576,23.069-2.236,20.857-21.533s4.068-23.962,4.068-23.962Z" transform="translate(47.695 14.288)" fill="#0b0006"/>
          <path id="Trazado_1273569" data-name="Trazado 1273569" d="M84.644,19.049l-.521,4.07,2.575.2" transform="translate(45.757 25.736)" fill="none" stroke="#000" stroke-linecap="round" stroke-linejoin="round" stroke-width="0.466"/>
          <path id="Trazado_1273570" data-name="Trazado 1273570" d="M82.261,14.371S78,13.825,77.895,15.723c0,0-.04,1.284,3.679,1.679s4.7.136,5.078-1.058-2.388-1.886-4.391-1.973" transform="translate(59.63 19.317)" fill="#0b0006"/>
          <path id="Trazado_1273571" data-name="Trazado 1273571" d="M89.509,14.1s3.541-.263,3.768,1.528c0,0,.125,1.213-2.971,1.368s-4.086-.31-4.344-1.3c-.294-1.114,1.869-1.636,3.547-1.6" transform="translate(35.148 19.034)" fill="#0b0006"/>
          <path id="Trazado_1273572" data-name="Trazado 1273572" d="M90.208,18.622a1.8,1.8,0,1,1-1.787-1.961,1.886,1.886,0,0,1,1.787,1.961" transform="translate(36.697 22.509)" fill="#0b0006"/>
          <path id="Trazado_1273573" data-name="Trazado 1273573" d="M83.139,18.634a1.8,1.8,0,1,1-1.787-1.961,1.886,1.886,0,0,1,1.787,1.961" transform="translate(59.498 22.526)" fill="#0b0006"/>
          <path id="Trazado_1273574" data-name="Trazado 1273574" d="M81.576,24.223s4.431,1.187,7.326-.962" transform="translate(49.223 31.426)" fill="none" stroke="#fff" stroke-linecap="round" stroke-linejoin="round" stroke-width="0.55"/>
          <path id="Trazado_1273575" data-name="Trazado 1273575" d="M167.824,42.524s3.917,9.552-15.464,57.694c0,0-9.69,20.675-14.223,21.26-7.426.962-38.035-1.46-53.659-25.652L105.507,76.4,128.8,90.835l13.967-37.294s8.2-24.886,25.056-11.017" transform="translate(-36.479 51.771)" fill="#fff7df"/>
          <path id="Trazado_1273576" data-name="Trazado 1273576" d="M105.45,35.339,132.8,47.508a5.883,5.883,0,0,1,3.191,6.063L126.5,139.908s-37.946,4.735-66.115-1.568L62.7,54.262a8.689,8.689,0,0,1,2.395-6.975L84.914,33.731Z" transform="translate(49.237 45.571)" fill="#fff7df"/>
          <path id="Trazado_1273577" data-name="Trazado 1273577" d="M94.428,35.515,79.776,41.844l-5.441-8.283Z" transform="translate(59.812 45.342)" fill="#e2aa7d"/>
          <path id="Trazado_1273578" data-name="Trazado 1273578" d="M98.73,35.569,95.351,49.892,83.632,41.844l-9.5,4.813,4.055-13.1" transform="translate(55.957 45.342)" fill="none" stroke="#d9d9d9" stroke-miterlimit="10" stroke-width="0.479"/>
          <path id="Trazado_1273579" data-name="Trazado 1273579" d="M86.418,37.085s-1.255,24.6-1.751,31.633c-2.323,32.933-3.748,68.114-3.748,68.114" transform="translate(53.169 50.103)" fill="none" stroke="#d9d9d9" stroke-miterlimit="10" stroke-width="0.479"/>
          <path id="Trazado_1273580" data-name="Trazado 1273580" d="M93.217,41.517s-5.524,20.39-2.7,48.5" transform="translate(26.798 56.09)" fill="none" stroke="#d9d9d9" stroke-miterlimit="10" stroke-width="0.479"/>
          <path id="Trazado_1273581" data-name="Trazado 1273581" d="M64.337,68.293S57.67,83.937,86.618,79.745l29.8,2.393-2.379-9.564L95.032,70.649,72.68,70.5Z" transform="translate(61.548 92.265)" fill="#e2aa7d"/>
          <path id="Trazado_1273582" data-name="Trazado 1273582" d="M74.831,39.925s13.2,4.237,29.062,51.8c0,0,5.986,18.3,2.971,21.78-4.938,5.7-33.433,14.266-60.331,7.462l3.124-14.75,26.478-5.363L63.067,64.714s-9.556-23.36,11.764-24.789" transform="translate(108.399 53.94)" fill="#fff7df"/>
          <path id="Trazado_1273583" data-name="Trazado 1273583" d="M84.547,90.239c-5.566-6.221-13.511-3.207-13.511-3.207L54.651,50.159" transform="translate(113.498 67.766)" fill="none" stroke="#d9d9d9" stroke-miterlimit="10" stroke-width="0.479"/>
          <path id="Trazado_1273584" data-name="Trazado 1273584" d="M85.927,77.631s-18.233-.6-21.616-3.233" transform="translate(90.621 100.513)" fill="none" stroke="#d9d9d9" stroke-miterlimit="10" stroke-width="0.479"/>
          <line id="Línea_3263" data-name="Línea 3263" y1="2.419" x2="11.944" transform="translate(166.462 156.04)" fill="none" stroke="#d9d9d9" stroke-miterlimit="10" stroke-width="0.479"/>
          <path id="Trazado_1273585" data-name="Trazado 1273585" d="M121.124,73.362l-52.7-.395.042-6.282,52.7.395a3.146,3.146,0,0,1-.042,6.282" transform="translate(43.288 90.093)" fill="#0b0006"/>
          <path id="Trazado_1273586" data-name="Trazado 1273586" d="M182.263,108.655l-69.838-.522a9.058,9.058,0,0,1-8.583-6.992L90.569,49.352c-1.173-4.577,2.11-9.077,6.6-9.044l64.143.48a5.985,5.985,0,0,1,5.684,4.7Z" transform="translate(-63.616 54.457)" fill="#0b0006"/>
          <path id="Trazado_1273587" data-name="Trazado 1273587" d="M123.137,58.935a6.617,6.617,0,1,1-6.561-7.03,6.794,6.794,0,0,1,6.561,7.03" transform="translate(-48.093 70.125)" fill="#fff"/>
        </g>
      </g>
    </g>
  </g>
</svg>
