<svg xmlns="http://www.w3.org/2000/svg" xmlns:xlink="http://www.w3.org/1999/xlink" width="500" height="317.359" viewBox="0 0 500 317.359">
  <defs>
    <clipPath id="clip-path">
      <rect id="Rectángulo_460815" data-name="Rectángulo 460815" width="471" height="314" transform="translate(-0.441 0.333)" fill="none"/>
    </clipPath>
  </defs>
  <g id="Grupo_1211083" data-name="Grupo 1211083" transform="translate(-1017.711 -1846)">
    <path id="Trazado_1272217" data-name="Trazado 1272217" d="M250,4.416C405.3-99.478,500,67.986,500,146.4s-18.939,140.45-250,141.988S0,224.823,0,146.4,94.7,108.31,250,4.416Z" transform="translate(1017.711 1874.605)" fill="#ffe79e"/>
    <g id="Grupo_1211086" data-name="Grupo 1211086" transform="translate(1032.863 1849.499)">
      <g id="Grupo_1211085" data-name="Grupo 1211085" transform="translate(0 -0.474)" clip-path="url(#clip-path)">
        <path id="Trazado_1273638" data-name="Trazado 1273638" d="M219.36,133.028c-.974,8.6,16.068,26.778,4.382,41.711-12.985-1.3-23.534-12.173-23.534-12.173l1.138-22.722Z" transform="translate(-74.523 -49.07)" fill="#344866"/>
        <path id="Trazado_1273639" data-name="Trazado 1273639" d="M209.514,79.586c-7.2-12.69-27.558-11.412-32.38-9.361-1.365.58-3.283,2.351-5.356,4.681v62.5H156.534c10.62,16.821,32.841,17.2,43.647,4.868-2.922-2.272-6.492-2.273-11.361-5.519-2.946-1.962-3.225-6.106-.579-17.419,16.77-2.015,18.819-12.678,19.2-20.7.232-4.826,4.565-8.155,2.07-19.05" transform="translate(-58.266 -25.207)" fill="#feacdc"/>
        <path id="Trazado_1273640" data-name="Trazado 1273640" d="M186.028,136.389c-.08.161-1.461,2.6-1.461,2.6,1.6,5.01,4.849,13.233,12.889,11.341.3-1.71.7-3.65,1.22-5.877-3.382-.124-8.463-1.517-12.648-8.061" transform="translate(-68.701 -50.321)"/>
        <path id="Trazado_1273641" data-name="Trazado 1273641" d="M204.338,111.956c-1.545-1.276.388-4.821,1.988-3.691s-.719,4.74-1.988,3.691" transform="translate(-75.849 -39.771)"/>
        <path id="Trazado_1273642" data-name="Trazado 1273642" d="M227.488,115.756c-1.544-1.281.389-4.823,1.991-3.693s-.723,4.742-1.991,3.693" transform="translate(-84.466 -41.185)"/>
        <path id="Trazado_1273643" data-name="Trazado 1273643" d="M218.046,117.992a.349.349,0,0,1-.052-.695,7.78,7.78,0,0,0,3.551-1.6c1.214-1.109,1.029-2.332.328-3.937-1.691-4.261-.193-8.517,3.9-11.12a4.81,4.81,0,0,1,4.339-.385,3.535,3.535,0,0,1,1.9,3.053.351.351,0,0,1-.309.386.347.347,0,0,1-.387-.309,2.885,2.885,0,0,0-1.51-2.5,4.131,4.131,0,0,0-3.66.345c-3.8,2.411-5.189,6.343-3.634,10.261.689,1.578,1.106,3.254-.527,4.743a8.481,8.481,0,0,1-3.892,1.75.512.512,0,0,1-.053,0" transform="translate(-81.033 -36.74)"/>
        <path id="Trazado_1273644" data-name="Trazado 1273644" d="M207.872,132.805h0c-3.012,0-4.407-3.407-5.047-6.265a.35.35,0,0,1,.573-.339,14.317,14.317,0,0,0,8.761,3.911.35.35,0,0,1,.195.616,7.373,7.373,0,0,1-4.48,2.077m-4.1-5.375c.606,2.088,1.817,4.676,4.1,4.676a5.938,5.938,0,0,0,3.37-1.391,14.55,14.55,0,0,1-7.467-3.285" transform="translate(-75.493 -46.497)"/>
        <path id="Trazado_1273645" data-name="Trazado 1273645" d="M209.388,99.66a.35.35,0,0,1-.331-.237,3.635,3.635,0,0,0-2.1-2.386c-2.34-.9-5.728.735-7.079,1.481a.35.35,0,0,1-.338-.612c1.783-.985,5.149-2.492,7.667-1.521a4.3,4.3,0,0,1,2.51,2.812.35.35,0,0,1-.33.463" transform="translate(-74.207 -35.314)"/>
        <path id="Trazado_1273646" data-name="Trazado 1273646" d="M210.273,108.057a.351.351,0,0,1-.242.432l-2.374.669a.364.364,0,0,1-.1.013.35.35,0,0,1-.095-.686" transform="translate(-77.13 -39.775)"/>
        <path id="Trazado_1273647" data-name="Trazado 1273647" d="M233.444,111.593a.35.35,0,0,1-.2.453l-2.19.853a.35.35,0,1,1-.254-.652" transform="translate(-85.827 -41.092)"/>
        <path id="Trazado_1273648" data-name="Trazado 1273648" d="M96.663,194.042a134.3,134.3,0,0,0-17.689,20.774c-2.921,4.544-7.14,9.9.163,23.37S103.97,273.4,106.241,276s6.151-14.513,6.151-14.513-10.42-26.41-13.991-34.037c7.476-9.279,16.442-20.427,16.442-20.427Z" transform="translate(-27.947 -71.781)" fill="#feacdc"/>
        <path id="Trazado_1273649" data-name="Trazado 1273649" d="M113.341,249.879a.349.349,0,0,1-.309-.185l-2.4-4.507a.35.35,0,1,1,.617-.329l2.4,4.507a.35.35,0,0,1-.144.473.354.354,0,0,1-.164.041" transform="translate(-41.164 -90.627)"/>
        <path id="Trazado_1273650" data-name="Trazado 1273650" d="M177.785,179.225c-2.952-1.377-7.354-3.651-9.646-6.062a2.195,2.195,0,0,0-2.068-.67c-4.047,1.73-7.338,3.128-11.627,2.434a30.379,30.379,0,0,1-14.249-6.018c-4.734,2-9.579,3.552-10.378,1.982-4.222-2.6-14.931-1.947-34.57,23.7,3.246,2.434,12.336,9.574,17.527,16.553a69.049,69.049,0,0,0,6.654-5.192c-.486,9.9-2.76,31.16-6.167,43.658s-17.853,44.957-10.874,65.731c14.606-7.629,69.463-28.4,69.463-28.4s-7.628-26.131-8.6-30.837,0-11.2,2.109-18.5,2.6-11.2,4.87-13.633,5.354-6,5.354-6l3.247,5.194c2.7-6.613,16.026-15.317,19.86-15.662-3.143-8.175-10.837-24.726-20.9-28.264" transform="translate(-35.453 -62.426)" fill="#6cb9ff"/>
        <path id="Trazado_1273651" data-name="Trazado 1273651" d="M177.75,178.714a40.543,40.543,0,0,1-8.529-5.032c-.963-.787-1.542-1.628-2.835-1.819a1.355,1.355,0,0,0-.7.118c-1.127.481-2.254.954-3.4,1.384-7.363,2.767-16.089-.2-22.05-4.914a.35.35,0,0,0-.34-.09,53.524,53.524,0,0,1-5.9,2.133,12.456,12.456,0,0,1-2.652.477c-.732.045-.982-.243-1.561-.593a7.351,7.351,0,0,0-2.316-.89,12.536,12.536,0,0,0-7.022.966A37.475,37.475,0,0,0,109.9,177.4a114.413,114.413,0,0,0-15.165,16.8.353.353,0,0,0,.126.478c6.334,4.763,12.609,10.076,17.4,16.428a.356.356,0,0,0,.478.126,56.92,56.92,0,0,0,6.725-5.248l-.6-.247c-.39,7.734-1.24,15.455-2.292,23.124a142.984,142.984,0,0,1-4.483,22.561c-4.34,14.142-9.827,27.859-11.633,42.657-.856,7.022-.844,14.358,1.38,21.139a.355.355,0,0,0,.514.209c9.882-5.14,20.432-9.132,30.752-13.288q16.278-6.555,32.675-12.807,2.974-1.14,5.952-2.271a.356.356,0,0,0,.244-.429c-2.676-9.169-5.369-18.34-7.8-27.576a29.068,29.068,0,0,1-1.168-7.4c-.023-5.265,1.427-10.445,2.841-15.47,1.022-3.629,1.591-7.761,3.546-11.044a29.741,29.741,0,0,1,3.6-4.159q1.32-1.486,2.62-2.989l-.549-.071q1.624,2.6,3.247,5.194c.125.2.5.255.6,0,1.77-4.124,5.692-7.3,9.2-9.923a50.726,50.726,0,0,1,5.629-3.646,13.578,13.578,0,0,1,4.731-1.92c.2-.024.428-.209.337-.443a90.229,90.229,0,0,0-8.148-16.354c-3.179-4.941-7.317-10.064-13-12.154-.424-.156-.606.52-.186.674,5.812,2.136,9.9,7.588,13.094,12.633a88.122,88.122,0,0,1,7.566,15.385l.338-.442c-3.708.435-7.435,3.291-10.352,5.4-3.738,2.7-7.944,6.089-9.81,10.439h.6q-1.622-2.6-3.247-5.194a.352.352,0,0,0-.549-.071c-1.959,2.267-4.18,4.392-5.987,6.777-1.959,2.585-2.507,6.308-3.317,9.357-2.053,7.732-4.763,15.758-2.783,23.789,2.4,9.756,5.353,19.4,8.163,29.042l.1.352.244-.431c-18.735,7.1-37.442,14.341-55.874,22.2-4.6,1.962-9.23,3.931-13.672,6.242l.514.209c-2.512-7.658-2.148-15.934-.966-23.8a152.746,152.746,0,0,1,5.956-23.765c1.9-5.918,4.134-11.744,5.816-17.73a166.844,166.844,0,0,0,4.361-23.929c.855-6.661,1.549-13.362,1.887-20.07a.353.353,0,0,0-.6-.247,55.534,55.534,0,0,1-6.583,5.138l.478.126c-4.871-6.456-11.215-11.838-17.652-16.679.041.159.083.319.125.479,5.38-7,11.216-13.943,18.293-19.3,3.3-2.5,7.267-4.956,11.512-5.221a7.972,7.972,0,0,1,3.467.527,10.827,10.827,0,0,1,1.329.883c1.162.657,3.082.028,4.243-.275a35.859,35.859,0,0,0,3.437-1.145c1.116-.416,2.033-1.122,3.085-.332a27.669,27.669,0,0,0,6.1,3.347c4.214,1.743,8.928,2.786,13.426,1.707a30.231,30.231,0,0,0,4.529-1.618c1.113-.464,1.882-.815,2.921.073.624.534,1.195,1.109,1.848,1.613a41.8,41.8,0,0,0,7.87,4.5c.406.191.761-.412.353-.6" transform="translate(-35.242 -62.216)" fill="#685aef"/>
        <path id="Trazado_1273652" data-name="Trazado 1273652" d="M183.634,181.048a20.617,20.617,0,0,0,9.6,1.1,18.885,18.885,0,0,0,8.36-2.755c.371-.251.022-.858-.353-.6a18.9,18.9,0,0,1-8.007,2.659,19.55,19.55,0,0,1-9.413-1.071c-.421-.163-.6.514-.186.674" transform="translate(-68.266 -66.08)"/>
        <path id="Trazado_1273653" data-name="Trazado 1273653" d="M137.079,130.153c-4.789,7.466-6.013,18.335,3.651,22.234,10.306,4.157,23.85-1.17,27.1-24.054s-1.924-37.082,6.257-56.444c3.894-1.137,15.205,1.414,25.725,12.82,2.126-2.311,1.928-18.588-19.335-23.943S149.331,75.944,144.463,93.8s-16.878,29.946-16.392,38.71c3.328-1.866,6.573-2.679,9.009-2.354" transform="translate(-47.666 -21.85)" fill="#344866"/>
        <path id="Trazado_1273654" data-name="Trazado 1273654" d="M126.23,284.288c-.377,1.942-.773,3.8-1.188,5.548,10.132,9.22,39.888,10.159,49.094,7.84a26.8,26.8,0,0,1-.017-5.649c-24.192,2.21-42.965-5.03-47.888-7.739" transform="translate(-46.544 -105.373)" fill="#2d2833"/>
        <path id="Trazado_1273655" data-name="Trazado 1273655" d="M161.675,298.89c-12.539,0-29.773-2.359-37.075-9a.348.348,0,0,1-.1-.34c.4-1.675.8-3.536,1.185-5.533a.349.349,0,0,1,.512-.239c5.1,2.8,19.73,8.108,38.626,8.108,3.021,0,6.069-.139,9.063-.412a.36.36,0,0,1,.279.1.349.349,0,0,1,.1.279,26.507,26.507,0,0,0,.016,5.575.352.352,0,0,1-.262.382,56.382,56.382,0,0,1-12.34,1.083m-36.452-9.384c7.242,6.406,24.125,8.685,36.452,8.685a57.709,57.709,0,0,0,11.871-.99,27.222,27.222,0,0,1-.018-5c-2.881.25-5.809.377-8.71.377-18.544,0-33.042-5.084-38.542-7.969-.346,1.751-.7,3.394-1.053,4.894" transform="translate(-46.337 -105.166)" fill="#2d2833"/>
        <path id="Trazado_1273656" data-name="Trazado 1273656" d="M171.067,303.619c-.128,0-.258-.005-.389-.018l-4.72-.429a4.276,4.276,0,0,1-3.866-4.642l.141-1.541a4.275,4.275,0,0,1,4.641-3.866l4.723.431a4.269,4.269,0,0,1,3.865,4.642l-.141,1.539a4.253,4.253,0,0,1-4.253,3.884m-4.585-8.566a2.309,2.309,0,0,0-2.31,2.112l-.141,1.541a2.322,2.322,0,0,0,2.1,2.526l4.721.431a2.3,2.3,0,0,0,2.524-2.1l.142-1.539a2.325,2.325,0,0,0-2.1-2.525l-4.721-.432c-.072-.007-.144-.009-.214-.009" transform="translate(-60.328 -108.655)" fill="#fe6868"/>
        <path id="Trazado_1273657" data-name="Trazado 1273657" d="M225.348,227.516c.341,4.544.261,8.787-2.387,12.726-.252.375.354.724.6.353,2.711-4.033,2.832-8.408,2.482-13.078-.033-.447-.733-.45-.7,0" transform="translate(-82.97 -84.116)"/>
        <path id="Trazado_1273658" data-name="Trazado 1273658" d="M123.929,230.742a.349.349,0,0,1-.224-.618l11.685-9.739a.35.35,0,0,1,.448.538l-11.686,9.738a.346.346,0,0,1-.223.081" transform="translate(-45.999 -81.557)"/>
        <path id="Trazado_1273659" data-name="Trazado 1273659" d="M137.825,173.007a.4.4,0,0,1-.054,0,.35.35,0,0,1-.292-.4c.532-3.429,3.078-7.6,5.124-10.948,1.423-2.329,2.652-4.34,2.746-5.342a.344.344,0,0,1,.381-.315.35.35,0,0,1,.315.381c-.109,1.163-1.316,3.139-2.844,5.641-2.014,3.3-4.52,7.4-5.03,10.69a.349.349,0,0,1-.345.3" transform="translate(-51.172 -57.62)"/>
        <path id="Trazado_1273660" data-name="Trazado 1273660" d="M311.889,264.761c4.027,2.772,16.468,7.6,20.941,10.65s8.5-10.651,6.713-11.814-15.751-11.188-15.751-11.188-10.739,6.355-11.9,12.352" transform="translate(-116.093 -93.507)" fill="#feacdc"/>
        <path id="Trazado_1273661" data-name="Trazado 1273661" d="M333.674,109.515c-6.69,2.122-9.953-.488-10.28-9.953-8.646,9.3-17.949-.816-17.3-10.278s4.566-14.357,7.178-27.9,14.512-26.006,24.965-27.573c13.053-1.958,17.947,5.872,17.947,5.872,8.322.328,16.114,6.347,18.113,20.886,2.937,21.374,17.293,32.305,9.952,43.075-11.91,10.441-36.221,16.8-50.579,5.872" transform="translate(-113.926 -12.022)" fill="#344866"/>
        <path id="Trazado_1273662" data-name="Trazado 1273662" d="M357.848,110.161c1.793,3.757,7.521,15.573,7.521,15.573-4.118,1.253-11.993,3.58-11.993,3.58,4.3,12.709,35.619,22.108,48.688-3.67-9.22-1.431-13.426-2.772-13.964-3.131S378.973,103,378.973,103Z" transform="translate(-131.536 -37.893)" fill="#feacdc"/>
        <path id="Trazado_1273663" data-name="Trazado 1273663" d="M365.084,120.793c.846,1.757,1.925,3.99,2.924,6.057,9.394,2.839,12.759-6.226,14.473-12.515-4.663,6.644-12.417,7.488-17.4,6.458" transform="translate(-135.894 -42.112)"/>
        <path id="Trazado_1273664" data-name="Trazado 1273664" d="M333.721,77.125C339.593,91.319,344,95.4,353.461,97.355s21.049-4.73,23.005-17.457-7.5-31.489-22.024-29.369-25.781,11.1-20.722,26.6" transform="translate(-123.761 -18.301)" fill="#feacdc"/>
        <path id="Trazado_1273665" data-name="Trazado 1273665" d="M348.414,255.973c-.555,6.963-1.2,15.441-1.432,16.737-.537,3.042-2.863,33.475-5.011,41.171,19.69,4.116,71.421,4.652,71.421,4.652.352-5.42-11-51.778-13.424-62.472-18.011,6.56-45.708,2.23-51.553-.088" transform="translate(-127.29 -94.834)" fill="#644602"/>
        <path id="Trazado_1273666" data-name="Trazado 1273666" d="M437.916,256.113c-2.107,2.264-14.476,16.477-14.476,16.477s2.79,3.437,4.189,5.254,5.48,3.713,5.48,3.713l19.557-18.013Z" transform="translate(-157.615 -94.886)" fill="#feacdc"/>
        <path id="Trazado_1273667" data-name="Trazado 1273667" d="M414.04,188.046c-5.549-11.635-13.6-29.177-18.614-35.979s-10.383-13.246-18.617-13.425c-10.382,13.6-37.591,16.111-46.182,3.043-7.339,2.327-17.183,6.8-24.344,21.3s-15.215,27.924-17.364,35.621,2.418,17.541,15.664,25.239c5.19-12.174,11.546-13.6,11.546-13.6-2.865-2.684-8.772-7.875-8.772-7.875,1.074-4.3,14.32-20.406,14.32-20.406,1.79,4.114,4.922,4.386,5.28,9.934.156,2.394-1.97,18.973,1.521,22.106,4.831,3.867,12.533,4.381,18.438,4.831,7.807.6,26.229.352,32.578-4.027,6.271-4.661.269-15.124.9-39.289,6.443,7.16,13.6,19.691,14.5,22.912s-8.592,14.321-8.592,14.321c.894,3.76,12.439,10.56,15.305,11.633,10.38-12.172,17.988-24.7,12.438-36.336" transform="translate(-107.354 -51.16)" fill="#ffb851"/>
        <path id="Trazado_1273668" data-name="Trazado 1273668" d="M414.154,187.629c-3.8-7.964-7.506-15.972-11.543-23.818-3.5-6.8-7.321-13.345-12.593-18.951a21.571,21.571,0,0,0-9.737-6.3c-1.009-.283-3.4-1.059-4.149-.1a24.235,24.235,0,0,1-3.622,3.666c-5.6,4.682-13.088,7.023-20.284,7.488-7.79.5-16.864-1.5-21.487-8.35a.355.355,0,0,0-.395-.161,39.878,39.878,0,0,0-15.75,9.052c-7.039,6.744-10.665,16.238-15.126,24.706-3.878,7.36-8.368,14.778-10.882,22.754-1.89,5.994.381,11.991,4.107,16.757a40.413,40.413,0,0,0,11.524,9.532.351.351,0,0,0,.479-.126c1.8-4.148,4.1-8.2,7.55-11.2a9.669,9.669,0,0,1,3.786-2.244.352.352,0,0,0,.155-.584c-2.8-2.611-5.671-5.143-8.542-7.673l-.216-.189c.249.218.168,0,.288-.313a13.737,13.737,0,0,1,.9-1.794c.793-1.408,1.7-2.752,2.62-4.082,3.267-4.74,6.841-9.289,10.494-13.736l-.549-.07a15.2,15.2,0,0,0,2.536,3.693,9.766,9.766,0,0,1,2.648,5.491,36.461,36.461,0,0,1-.257,6.553,77.734,77.734,0,0,0-.076,9.659c.145,2.146.368,4.669,1.731,6.428.971,1.252,2.9,2.021,4.313,2.617a28.857,28.857,0,0,0,6.262,1.707,84.1,84.1,0,0,0,10.951,1.047,97.238,97.238,0,0,0,21.574-1.241c3.271-.6,7.415-1.426,9.754-4.018,1.692-1.876,1.934-4.547,1.915-6.958-.032-4.058-.726-8.124-1.15-12.152a151.15,151.15,0,0,1-.836-19.446l-.6.247A92.568,92.568,0,0,1,392.748,194.6c1.009,1.954,2.064,3.627,1.24,5.8a31.061,31.061,0,0,1-4.3,7.019c-1.181,1.612-2.424,3.182-3.712,4.711-.8.955,1.278,2.9,1.879,3.511a39.61,39.61,0,0,0,7.088,5.369,37.646,37.646,0,0,0,6.382,3.467.339.339,0,0,0,.34-.091c8.291-9.764,18.655-23.376,12.493-36.759-.188-.409-.791-.053-.6.353,4.433,9.628-.325,19.573-5.879,27.6-1.616,2.333-3.381,4.562-5.187,6.75-.072.087-1.119,1.422-1.134,1.416-.232-.09-.457-.2-.682-.3-.611-.284-1.207-.6-1.8-.923a57.322,57.322,0,0,1-8.58-5.641,17.792,17.792,0,0,1-3.122-3.065c-.623-.824-.95-.885-.392-1.552q2.293-2.754,4.375-5.677a22.954,22.954,0,0,0,3.829-6.961c.492-1.832-.835-3.816-1.627-5.374a91.263,91.263,0,0,0-12.9-19.217.353.353,0,0,0-.6.247,189.56,189.56,0,0,0,1.516,25.536c.442,3.959,1.577,9.606-1.516,12.82-1.944,2.023-5.29,2.716-7.917,3.293a72.794,72.794,0,0,1-11.638,1.392,98.364,98.364,0,0,1-22.3-1.042,25.253,25.253,0,0,1-7.426-2.424,5.679,5.679,0,0,1-3.319-3.98c-.944-3.635-.691-7.666-.532-11.379.11-2.588.524-5.246.4-7.837a9.524,9.524,0,0,0-1.929-5.405,26.028,26.028,0,0,1-3.4-4.706.35.35,0,0,0-.549-.071q-3.5,4.257-6.813,8.663c-1.718,2.271-3.4,4.575-4.965,6.953a18.264,18.264,0,0,0-2.633,4.944.344.344,0,0,0,.09.34c2.951,2.594,5.9,5.194,8.772,7.875l.154-.584a10.328,10.328,0,0,0-3.867,2.233c-3.645,2.954-6.051,7.3-7.887,11.533l.478-.126C297.5,219.14,290.245,213,288.761,204.472c-.556-3.193.239-6.194,1.377-9.158a116.728,116.728,0,0,1,5.435-11.522c2.369-4.593,4.818-9.145,7.2-13.732,2.406-4.631,4.527-9.435,7.508-13.739a37.068,37.068,0,0,1,17.235-13.491c.607-.235,1.222-.451,1.836-.662.83-.284.871-.39,1.4.326a16.566,16.566,0,0,0,3.065,3.081,22.067,22.067,0,0,0,7.836,3.757c6.44,1.78,13.5,1.225,19.838-.684a35.089,35.089,0,0,0,9.159-4.276,28.3,28.3,0,0,0,3.559-2.8c.584-.536,1.13-1.114,1.659-1.7.262-.293.51-.6.757-.905.424-.527,1.983-.036,2.487.053,4.5.787,8.137,3.853,11.128,7.118a60.544,60.544,0,0,1,7.04,9.447c6.266,10.31,11.084,21.532,16.267,32.405.194.407.8.052.6-.353" transform="translate(-107.167 -50.92)" fill="#fe6868"/>
        <path id="Trazado_1273669" data-name="Trazado 1273669" d="M461.665,263.629a.336.336,0,0,1-.146-.033c-9.09-4.17-12.377-8.622-12.944-9.473a.35.35,0,0,1,.583-.387c.548.823,3.735,5.134,12.653,9.226a.349.349,0,0,1-.146.667" transform="translate(-166.95 -93.943)"/>
        <path id="Trazado_1273670" data-name="Trazado 1273670" d="M346,272.9c-2.328-.536-6.869.515-5.615,5.079-3.491.449-3.22,2.6-1.165,5.012-1.879,2.058-1.251,3.76,1.611,6.354s7.249,4.207,6.444.537c1.969-.269.984-3.937.358-4.654,3.132.985,3.6-1.656-1.768-7.832a20.318,20.318,0,0,0,.134-4.5" transform="translate(-125.704 -101.086)" fill="#feacdc"/>
        <path id="Trazado_1273671" data-name="Trazado 1273671" d="M325.392,79.426c.979,5.059,8.552,5.035,13.461-8,.979,6.69,15.337-3,17.784-15.745,1.47,12.727,9.056,20.315,11.178,20.8-3.752,14.36-2.669,31.456,15.345,25.206-2.283-23.332-7.515-46.09-11.755-50.006s-13.052-10.931-24.149-6.363-24.638,8.973-21.865,34.1" transform="translate(-120.983 -15.87)" fill="#344866"/>
        <path id="Trazado_1273672" data-name="Trazado 1273672" d="M401.99,134.117c5.373,2.369,9.82-1.7,12.557-5.872l-.64-.083a4.686,4.686,0,0,0,3.421,3.718.35.35,0,0,0,.185-.674,4,4,0,0,1-2.931-3.23c-.049-.324-.492-.309-.64-.084-2.5,3.806-6.612,7.821-11.6,5.621-.408-.18-.765.422-.352.6" transform="translate(-149.563 -47.097)"/>
        <path id="Trazado_1273673" data-name="Trazado 1273673" d="M362.912,104a12.576,12.576,0,0,1-1.66-.136,3.507,3.507,0,0,1-2.806-2.418,5.779,5.779,0,0,1-.424-2.232,9.872,9.872,0,0,0-.088-1.028,3.984,3.984,0,0,0-1.348-2.967A10.918,10.918,0,0,0,354.6,93.87a.35.35,0,1,1,.339-.611,11.6,11.6,0,0,1,2.1,1.429,4.658,4.658,0,0,1,1.585,3.4,10.38,10.38,0,0,1,.093,1.088,5.174,5.174,0,0,0,.368,1.991,2.846,2.846,0,0,0,2.276,2c1.23.166,2.638.286,3.555-.421a.35.35,0,0,1,.429.554,3.884,3.884,0,0,1-2.435.694" transform="translate(-131.926 -34.251)"/>
        <path id="Trazado_1273674" data-name="Trazado 1273674" d="M364.2,112.933a9.46,9.46,0,0,1-3.319-.574.349.349,0,0,1,.253-.651,8.771,8.771,0,0,0,4.924.313,8.36,8.36,0,0,0,2.645-1.239,15.659,15.659,0,0,0,1.085-1.168c.065-.087.135-.2.207-.322a2.053,2.053,0,0,1,.729-.834.35.35,0,1,1,.31.627,1.852,1.852,0,0,0-.441.57c-.085.141-.169.277-.252.388a15.535,15.535,0,0,1-1.132,1.22c-.01.01-.059.057-.069.065a8.961,8.961,0,0,1-2.883,1.363,8.217,8.217,0,0,1-2.057.242" transform="translate(-134.247 -39.911)"/>
        <path id="Trazado_1273675" data-name="Trazado 1273675" d="M376.527,96.185c-.706-.07-2.752-1.619-1.553-2.183.635-.282,1.622.422,1.975.846.424.423.847,1.2,0,1.338a2.282,2.282,0,0,1-1.763-.633c-.283-.283-.989-1.551-.072-1.48a2.929,2.929,0,0,1,1.057.775c.143.141.778.705.706.917-.141.632-1.552-.635-1.691-.846-.212-.282-.5-.846.139-.635a2.469,2.469,0,0,1,1.058.846c.284.282.352.776-.141.494-.283-.142-.422-.494-.564-.775" transform="translate(-139.438 -34.52)"/>
        <path id="Trazado_1273676" data-name="Trazado 1273676" d="M376.554,96.339c-.07,0-.141,0-.21-.009a.376.376,0,0,1-.06,0,1.021,1.021,0,0,1-.136-.024,2.657,2.657,0,0,1-1.416-.711,2.523,2.523,0,0,1-.357-.505,1.538,1.538,0,0,1-.315-.65.869.869,0,0,1,.558-.959c.834-.368,1.968.429,2.391.939a1.5,1.5,0,0,1,.534,1.356.839.839,0,0,1-.746.551,2.087,2.087,0,0,1-.244.013" transform="translate(-139.23 -34.315)"/>
        <path id="Trazado_1273677" data-name="Trazado 1273677" d="M349.587,100.55a1.819,1.819,0,0,1-1.222-.653c-.328-.244-1.06-1.3-.491-1.467.653-.246,1.468.814,1.8,1.223.245.49.407,1.141-.327,1.06a2.408,2.408,0,0,1-1.63-1.3c-.164-.245-.326-.654-.082-.817.244-.082.735.163.9.245.407.243,1.143.733,1.06,1.222a.439.439,0,0,1-.733.327" transform="translate(-129.35 -36.178)"/>
        <path id="Trazado_1273678" data-name="Trazado 1273678" d="M349.25,100.857a1.5,1.5,0,0,1-.153-.009,2.77,2.77,0,0,1-1.914-1.514,1.231,1.231,0,0,1-.221-.845.621.621,0,0,1,.266-.4c.012-.007.023-.014.035-.019a.649.649,0,0,1,.308-.188c.841-.319,1.713.775,2.131,1.3a.886.886,0,0,1,.072.1c.279.56.32.991.118,1.279a.729.729,0,0,1-.642.293m-1.334-2.036a2.021,2.021,0,0,0,.45.584,2.413,2.413,0,0,0,.649.5.091.091,0,0,0,.014-.055c.024-.169-.144-.476-.89-.921-.084-.043-.158-.078-.224-.105" transform="translate(-129.143 -35.966)"/>
        <path id="Trazado_1273679" data-name="Trazado 1273679" d="M373.095,84.108a.341.341,0,0,1-.157-.037c-2.4-1.2-4.861-2.106-6.636-.618a.349.349,0,0,1-.449-.535c2.367-1.989,5.767-.289,7.4.528a.349.349,0,0,1-.156.662" transform="translate(-136.133 -30.072)"/>
        <path id="Trazado_1273680" data-name="Trazado 1273680" d="M328.928,89.293a4.063,4.063,0,0,1-2.579-.874c-1.205-.957-1.152-2.048-1.1-3.2.013-.253.025-.516.025-.788a.35.35,0,0,1,.7,0c0,.284-.014.558-.026.822-.054,1.1-.093,1.888.832,2.622,1.746,1.386,4.248.585,5.834-.745a15.78,15.78,0,0,0,3.895-5.212c.8-1.6,1.5-3.279,2.185-4.9l.127-.306a.35.35,0,1,1,.645.27,1.784,1.784,0,0,0,.152,1.957,2.764,2.764,0,0,0,2.718.62c4.1-1.085,7.764-4.37,11.187-10.044a33.208,33.208,0,0,0,1.978-3.823,5.293,5.293,0,0,0,.456-2.47,7.95,7.95,0,0,1,.172-1.959.349.349,0,1,1,.678.167,7.449,7.449,0,0,0-.151,1.792,5.908,5.908,0,0,1-.521,2.766,33.732,33.732,0,0,1-2.012,3.888c-3.523,5.837-7.32,9.226-11.608,10.359a3.477,3.477,0,0,1-3.423-.837,2.143,2.143,0,0,1-.381-.619c-.493,1.159-1.009,2.326-1.578,3.458a16.445,16.445,0,0,1-4.069,5.434,6.73,6.73,0,0,1-4.14,1.632" transform="translate(-121.059 -22.254)"/>
        <path id="Trazado_1273681" data-name="Trazado 1273681" d="M387.209,83.156a5.943,5.943,0,0,1-3.937-1.805c-4.683-4.743-7.95-12.021-8.963-19.969a.35.35,0,0,1,.3-.392.357.357,0,0,1,.392.3c.993,7.8,4.189,14.93,8.766,19.565,1.078,1.091,2.913,1.942,4.327,1.456,1.356-.466,2.07-2.317,2.286-3.893a.349.349,0,1,1,.692.095c-.119.865-.667,3.743-2.752,4.46a3.416,3.416,0,0,1-1.113.18" transform="translate(-139.326 -22.255)"/>
        <path id="Trazado_1273682" data-name="Trazado 1273682" d="M349.493,285.612a.348.348,0,0,1-.2-.065c-.974-.7-1.858-1.46-2.714-2.2q-.394-.342-.8-.684a15.962,15.962,0,0,1-3.557-3.473,4.329,4.329,0,0,1-.4-4.064,3.179,3.179,0,0,1,2.376-2.192l2.445-.544a.349.349,0,1,1,.151.682l-2.418.537a2.472,2.472,0,0,0-1.9,1.753,3.623,3.623,0,0,0,.319,3.435,15.391,15.391,0,0,0,3.42,3.323c.281.239.547.47.812.7.882.762,1.715,1.482,2.663,2.158a.35.35,0,0,1-.2.635" transform="translate(-127.118 -100.942)"/>
        <path id="Trazado_1273683" data-name="Trazado 1273683" d="M340.067,279.692c-2.662,1.089-2.747,3.842-.981,5.932a39.574,39.574,0,0,0,4.955,4.423c.985.829,2.062,2.349,3.435,2.413.45.02.449-.679,0-.7-.857-.04-1.839-1.244-2.438-1.777-.984-.875-2.02-1.694-3.019-2.551-1.8-1.542-5.826-5.406-1.767-7.067.411-.168.232-.846-.186-.674" transform="translate(-125.772 -103.652)"/>
        <path id="Trazado_1273684" data-name="Trazado 1273684" d="M339.13,191.4a27.476,27.476,0,0,0-.431,7.207,11.7,11.7,0,0,0,2.613,5.547c.266.357.873.009.6-.353a11.721,11.721,0,0,1-2.587-5.8,25.008,25.008,0,0,1,.474-6.418c.066-.441-.608-.63-.674-.186" transform="translate(-126.035 -70.702)"/>
        <path id="Trazado_1273685" data-name="Trazado 1273685" d="M313.431,236.605c2.114,1.23,3.893,2.922,5.907,4.3.374.255.723-.351.353-.6-2.015-1.375-3.792-3.065-5.908-4.3a.35.35,0,0,0-.353.6" transform="translate(-116.604 -87.381)"/>
        <path id="Trazado_1273686" data-name="Trazado 1273686" d="M428.939,190.9c2.365,3.277,5.5,5.972,7.652,9.4.24.38.845.03.6-.353-2.159-3.429-5.286-6.12-7.652-9.4-.261-.362-.868-.013-.6.353" transform="translate(-159.638 -70.425)"/>
        <path id="Trazado_1273687" data-name="Trazado 1273687" d="M351.589,147.517c1.834,3.746,5.747,5.574,9.368,7.226a36.757,36.757,0,0,0,13.949,2.857c9.9.349,19.932-3.45,27.576-9.609.351-.283-.147-.775-.495-.494a42.4,42.4,0,0,1-26.439,9.417,37.014,37.014,0,0,1-13.25-2.352c-3.79-1.49-8.237-3.578-10.107-7.4-.2-.406-.8-.051-.6.353" transform="translate(-130.856 -54.265)"/>
        <path id="Trazado_1273688" data-name="Trazado 1273688" d="M355.075,270.788c13,3.507,26.809,5.186,40.1,2.328.441-.095.254-.77-.186-.675-13.172,2.833-26.857,1.146-39.732-2.328a.35.35,0,0,0-.186.675" transform="translate(-132.076 -100.092)"/>
        <path id="Trazado_1273689" data-name="Trazado 1273689" d="M377.307,275.3v32.6c0,3.675.341,7.372-.524,10.983-.1.439.569.625.675.186.775-3.241.6-6.531.552-9.835-.057-3.681,0-7.365,0-11.044V275.3a.35.35,0,0,0-.7,0" transform="translate(-140.245 -101.904)"/>
        <path id="Trazado_1273690" data-name="Trazado 1273690" d="M381.523,286.257a2.433,2.433,0,0,0,1.92,1.663c1.037.141,1.591-.695,1.6-1.645a1.787,1.787,0,0,0-3.523-.383c-.082.441.591.629.675.186a1.085,1.085,0,0,1,2.149.2c.1,1.655-1.829.788-2.149-.2-.138-.428-.813-.244-.675.186" transform="translate(-142.006 -105.459)"/>
        <path id="Trazado_1273691" data-name="Trazado 1273691" d="M380.165,269.776a2.434,2.434,0,0,0,1.92,1.663c1.037.141,1.592-.695,1.6-1.644a1.787,1.787,0,0,0-3.524-.385c-.083.441.591.628.675.186a1.086,1.086,0,0,1,2.15.2c.1,1.654-1.831.788-2.15-.2-.138-.427-.813-.245-.675.186" transform="translate(-141.5 -99.324)"/>
        <path id="Trazado_1273692" data-name="Trazado 1273692" d="M382.113,312.468a2.379,2.379,0,0,0,1.245,2.851,1.527,1.527,0,0,0,2.353-1.1,2.181,2.181,0,0,0-1.269-2.345,1.662,1.662,0,0,0-2.294.514c-.207.4.4.754.6.353.266-.518.868-.473,1.337-.263a1.545,1.545,0,0,1,.963,1.409c-.006.912-.743,1.178-1.447.771a1.65,1.65,0,0,1-.818-2c.163-.422-.513-.6-.674-.186" transform="translate(-142.182 -115.551)"/>
        <path id="Trazado_1273693" data-name="Trazado 1273693" d="M419.537,276.672a52.559,52.559,0,0,0,5.743,8.522,18.926,18.926,0,0,0,3.2,2.9,13.809,13.809,0,0,0,4.916,1.826.351.351,0,0,0,.186-.676,15.192,15.192,0,0,1-4.341-1.458,17.485,17.485,0,0,1-3.469-3.084,45.083,45.083,0,0,1-5.635-8.38.349.349,0,0,0-.6.352" transform="translate(-156.145 -102.343)"/>
        <path id="Trazado_1273694" data-name="Trazado 1273694" d="M355.26,281.461c2.785-.675,3.327-3.721,4.986-5.641.294-.339-.2-.836-.495-.495-1.536,1.775-2.128,4.843-4.678,5.46-.438.107-.252.781.186.675" transform="translate(-132.075 -101.995)"/>
        <path id="Trazado_1273695" data-name="Trazado 1273695" d="M544.88,326.355c-.163,4.058-2.272,19.477-1.949,23.208,14.283,5.033,69.3,28.566,69.3,28.566s-3.9-43.494-4.708-49.013-62.647-2.76-62.647-2.76" transform="translate(-202.081 -120.775)" fill="#fe6868"/>
        <path id="Trazado_1273696" data-name="Trazado 1273696" d="M544.3,326.14c-.175,3.845-.729,7.685-1.134,11.51s-1.1,7.849-.814,11.7a.362.362,0,0,0,.257.337c9.987,3.53,19.754,7.745,29.534,11.8q16.452,6.827,32.838,13.813,3.424,1.456,6.846,2.916c.217.094.552-.007.526-.3q-1.106-12.331-2.256-24.657c-.531-5.678-1.067-11.355-1.639-17.029-.19-1.888-.384-3.777-.6-5.664a4.281,4.281,0,0,0-.6-2.441c-1.566-1.713-5.3-1.8-7.392-2.053-4.872-.6-9.8-.753-14.7-.869-10.763-.251-21.539-.045-32.3.291-2.739.086-5.479.179-8.217.3-.45.019-.451.719,0,.7,6.518-.29,13.043-.463,19.567-.582,10.94-.2,21.97-.358,32.883.576,2.9.248,6.756.286,9.328,1.865.78.479.655,1.574.748,2.383.222,1.924.417,3.851.611,5.778,1.143,11.319,2.167,22.651,3.2,33.983q.336,3.71.671,7.421l.525-.3c-18.136-7.756-36.306-15.45-54.591-22.85q-4.516-1.828-9.054-3.6-1.737-.676-3.483-1.328-.778-.29-1.561-.573c-.657-.238-.47-.115-.473-.933C543,340.9,544.667,333.546,545,326.14c.02-.451-.68-.45-.7,0" transform="translate(-201.854 -120.56)" fill="#fe6868"/>
        <path id="Trazado_1273697" data-name="Trazado 1273697" d="M580.63,336.017c.012,6.029.314,12.055.17,18.085-.048,2.034-.738,4.6.606,6.334a4.678,4.678,0,0,0,2.279,1.094,22.9,22.9,0,0,0,2.694.913c3.685.691,1.622-5.656,1.455-7.256a186.626,186.626,0,0,1-.824-19.315.35.35,0,0,0-.7,0c.006,4.835.1,9.668.417,14.493a55.585,55.585,0,0,0,.6,6.269c.252,1.4,1.613,5.58-1.166,5.057a9.645,9.645,0,0,1-1.843-.677c-1.676-.69-2.985-.882-2.983-3.187,0-2.357.2-4.719.21-7.082.017-4.909-.2-9.818-.214-14.728a.35.35,0,0,0-.7,0" transform="translate(-216.107 -124.448)"/>
        <path id="Trazado_1273698" data-name="Trazado 1273698" d="M547.578,340.07a45.722,45.722,0,0,0,11.054,2.531c4.121.593,8.276.985,12.433,1.2,5.339.281,10.714.121,16.056.016,3.1-.061,6.206-.163,9.3-.466,3.443-.34,6.863-.805,10.33-.837a.35.35,0,0,0,0-.7c-6.335.057-12.617,1.146-18.962,1.289-5.332.119-10.692.252-16.025.032-4.17-.174-8.338-.584-12.472-1.145a46.289,46.289,0,0,1-11.526-2.6c-.416-.173-.6.5-.185.675" transform="translate(-203.736 -125.875)"/>
        <path id="Trazado_1273699" data-name="Trazado 1273699" d="M617.111,347.507c.608,4.856-.305,10.081,1.94,14.614,2.008,4.053,8.8,7.217,13.028,5.164.4-.2.051-.8-.353-.6-2.675,1.3-5.764.043-8.2-1.226a8.91,8.91,0,0,1-4.477-5.13c-1.445-4.065-.708-8.607-1.236-12.819-.056-.441-.756-.447-.7,0" transform="translate(-229.704 -128.781)"/>
        <path id="Trazado_1273700" data-name="Trazado 1273700" d="M552.99,343.628a16.642,16.642,0,0,1-.893,5.019c-.623,1.747-2.533,4.667-4.531,5.03-.443.08-.255.755.185.675,1.836-.335,3.1-2.332,4.058-3.737a12.933,12.933,0,0,0,1.88-6.987c.018-.452-.681-.449-.7,0" transform="translate(-203.724 -127.335)"/>
        <path id="Trazado_1273701" data-name="Trazado 1273701" d="M551.266,134.152c4.625-1.947,4.868-4.381,2.92-10.955-11.2,1.216-16.555-7.547-19.72-15.338s-10.711-19.232-6.084-28,28.4-26.616,43.982,8.2c5.113-2.516,11.118,9.413.4,14.526-1.458,0,.407,3.571,1.381,7.467s4.139,18.014,8.762,20.448c-2.434,12.173-22.4,15.581-31.647,3.652" transform="translate(-196.133 -24.653)" fill="#feacdc"/>
        <path id="Trazado_1273702" data-name="Trazado 1273702" d="M567.071,112.775c-1.792.634.609,4.5,2.313,3.774s-.244-4.5-2.313-3.774" transform="translate(-210.842 -41.497)"/>
        <path id="Trazado_1273703" data-name="Trazado 1273703" d="M544.965,118.593c-1.792.631.609,4.5,2.312,3.773s-.241-4.5-2.312-3.773" transform="translate(-202.614 -43.662)"/>
        <path id="Trazado_1273704" data-name="Trazado 1273704" d="M552.674,124.846a2.844,2.844,0,0,1-1.691-.467c-1.293-.918-1.242-2.924-1.194-4.863.01-.363.02-.726.02-1.077,0-2.654-2.177-6.091-6.467-10.216a.349.349,0,1,1,.484-.5c4.434,4.263,6.681,7.869,6.681,10.72,0,.357-.01.725-.019,1.095-.044,1.756-.09,3.572.9,4.275.769.546,2.2.431,4.244-.341a.35.35,0,1,1,.247.654,9.441,9.441,0,0,1-3.205.724" transform="translate(-202.206 -39.613)"/>
        <path id="Trazado_1273705" data-name="Trazado 1273705" d="M564.914,137.083a.35.35,0,0,1-.039-.7,9.636,9.636,0,0,0,6.459-4.008.35.35,0,0,1,.551.431,10.32,10.32,0,0,1-6.928,4.271.331.331,0,0,1-.043,0" transform="translate(-210.146 -48.778)"/>
        <path id="Trazado_1273706" data-name="Trazado 1273706" d="M555.224,103.6c-1.692-2.539,1.582-6.451,6.33-5.356s4.015,2.475,2.921,2.6a12.061,12.061,0,0,0-6.656,2.433c-1.947,1.583-2.352.691-2.6.326" transform="translate(-206.501 -36.052)" fill="#2b2630"/>
        <path id="Trazado_1273707" data-name="Trazado 1273707" d="M555.837,104.33a1.24,1.24,0,0,1-1.072-.68,3.206,3.206,0,0,1-.107-3.409c1.115-2.085,3.953-3.189,6.769-2.539,3.374.778,4.039,1.7,4,2.342a1.137,1.137,0,0,1-1.121.942l-.2.021a11.572,11.572,0,0,0-6.276,2.337,3.509,3.509,0,0,1-2,.986m3.894-6.126a5,5,0,0,0-4.456,2.367,2.5,2.5,0,0,0,.035,2.634l.044.068c.143.222.247.358.483.358a2.864,2.864,0,0,0,1.556-.83,12.219,12.219,0,0,1,6.644-2.489l.195-.02c.291-.033.493-.175.5-.288.013-.225-.583-.956-3.461-1.62a6.84,6.84,0,0,0-1.539-.18" transform="translate(-206.295 -35.852)" fill="#2b2630"/>
        <path id="Trazado_1273708" data-name="Trazado 1273708" d="M533.4,111.486c.243-1.54,4.138-3.731,7.708-2.677,1.056.082-1.784-2.516-3.975-3.164s-5.842,1.054-3.733,5.841" transform="translate(-198.309 -38.828)" fill="#2b2630"/>
        <path id="Trazado_1273709" data-name="Trazado 1273709" d="M533.19,111.628a.351.351,0,0,1-.32-.208c-1.079-2.45-.642-3.98-.087-4.833a3.808,3.808,0,0,1,3.191-1.632,3.666,3.666,0,0,1,1.048.147c1.718.508,4.574,2.585,4.448,3.446a.485.485,0,0,1-.526.4l-.073,0a.488.488,0,0,1-.072-.013,6.557,6.557,0,0,0-1.863-.262c-2.75,0-5.236,1.609-5.4,2.659a.35.35,0,0,1-.3.292.277.277,0,0,1-.045,0m2.784-5.974a3.119,3.119,0,0,0-2.6,1.315,3.888,3.888,0,0,0-.151,3.421,7.894,7.894,0,0,1,7.3-2.247,9.887,9.887,0,0,0-3.694-2.37,2.976,2.976,0,0,0-.849-.118" transform="translate(-198.101 -38.621)" fill="#2b2630"/>
        <path id="Trazado_1273710" data-name="Trazado 1273710" d="M510.29,72.782a9.275,9.275,0,0,0,11.414,3.6c1.46-.65,3.164-2.515,6.492-2.192s5.68-.648,9.332-3.569,8.277-3.571,10.955-.731,1.134,7.467,3.408,9.007,5.113.164,5.679,3.166.245,8.844,2.435,9.413,3-3.895,2.922-7.221,3.245-3.49,5.275-3.733.974-11.848-1.949-16.635-8.032-6.169-10.63-6.98S550,52.5,546.86,49.523c-1.911-1.813-6.411-2.191-9.493.244s-4.06,1.624-7.629,0-10.212.385-12.811,4.524a5.753,5.753,0,0,0,2.424,8.38c-6.248-.812-12.228,5.162-9.061,10.112" transform="translate(-189.617 -17.44)" fill="#344866"/>
        <path id="Trazado_1273711" data-name="Trazado 1273711" d="M569.372,143.861a.35.35,0,0,1-.006-.7,14.372,14.372,0,0,0,9.664-4.612c2.516-2.62,5.468-7.517,5.249-15.966a.349.349,0,0,1,.341-.358.354.354,0,0,1,.359.34c.225,8.69-2.836,13.752-5.444,16.468a15.091,15.091,0,0,1-10.156,4.826Z" transform="translate(-211.805 -45.049)"/>
        <path id="Trazado_1273712" data-name="Trazado 1273712" d="M569.95,148.02a.256.256,0,0,0-.016.035c.089-.008.174-.008.264-.018a21.007,21.007,0,0,1,1.143,5.991c10.221,6.008,14.924-9.725,13.3-19.868-3.6,10.919-10.858,13.356-14.694,13.86" transform="translate(-212.144 -49.492)"/>
        <path id="Trazado_1273713" data-name="Trazado 1273713" d="M544.615,169.088c2.111,3.084,5.845,5.516,13.47,5.03s13.958-6.33,14.77-7.954,3.083.976,9.414,1.788,17.691.487,24.019,11.523,6.658,30.675,3.735,46.418-4.707,24.342-13.309,24.342c0,14.771-.164,20.776-6.005,20.291s-23.373,1.945-37.005,1.3-24.83-1.463-25.967-6.494-.972-14.768-1.623-21.422c-11.2,5.357-18.828-.814-22.073-14.283s6.492-25.318,7.955-34.243,8.277-18.178,15.9-20.287a157.9,157.9,0,0,0,16.716-6.005" transform="translate(-187.372 -61.21)" fill="#69d7e5"/>
        <path id="Trazado_1273714" data-name="Trazado 1273714" d="M544.124,169.051c4.063,5.776,12.317,6.268,18.548,4.234a23.7,23.7,0,0,0,8.779-5.339,17.782,17.782,0,0,0,1.645-2.018c.5-.635,2.9.636,3.436.831,6.391,2.3,13.381,1.4,19.715,4.078,8.083,3.414,11.723,11.486,13.488,19.576,2.732,12.526,1.561,25.675-.8,38.148-.963,5.09-1.832,10.431-4.007,15.176-1.638,3.579-4.374,5.883-8.408,5.934a.356.356,0,0,0-.35.35c0,4.232.061,8.491-.326,12.711-.2,2.18-.488,5.256-2.443,6.651-1.656,1.181-4.564.488-6.467.542-3.826.111-7.648.444-11.464.709a214.628,214.628,0,0,1-28.839.249,67.251,67.251,0,0,1-12.984-1.746c-2.988-.8-5.414-2.022-5.987-5.232-1.184-6.634-.762-13.517-1.392-20.211a.356.356,0,0,0-.525-.3c-3.334,1.558-6.991,2.438-10.614,1.4-3.333-.951-5.791-3.642-7.523-6.519a30.141,30.141,0,0,1-4.008-12.745c-.374-4.572.749-9.12,2.259-13.4,1.361-3.855,3.156-7.537,4.646-11.341,1.427-3.644,1.81-7.531,3.237-11.167a27.536,27.536,0,0,1,8.644-11.636c3.593-2.767,8.246-3.54,12.441-5.015,3.3-1.159,6.562-2.421,9.773-3.795.414-.176.057-.779-.353-.6-2.489,1.063-5.016,2.04-7.552,2.981q-3.163,1.173-6.378,2.19a36.221,36.221,0,0,0-5.812,2.057c-7.474,3.839-11.616,12.147-13.18,20.025-.749,3.765-2.538,7.323-4.034,10.828a59.179,59.179,0,0,0-3.935,11.843c-1.443,7.413.344,16.247,5.082,22.254a13.173,13.173,0,0,0,7.527,4.975c3.451.754,7.015-.274,10.133-1.73l-.527-.3c.414,4.389.489,8.8.724,13.2.1,1.959.249,3.916.494,5.862a9.74,9.74,0,0,0,.91,3.656c1.186,2.083,4.01,2.931,6.156,3.5a65.228,65.228,0,0,0,12.184,1.625,207.528,207.528,0,0,0,28.9-.171c3.876-.262,7.752-.585,11.635-.732,2.036-.077,4.475.448,6.423-.26,2.2-.8,2.9-3.4,3.266-5.457.872-4.862.611-9.984.611-14.9-.116.118-.232.234-.349.35,5.483-.072,8.309-3.988,10.021-8.778a79.744,79.744,0,0,0,2.851-11.706c.871-4.5,1.643-9,2.087-13.568a85.487,85.487,0,0,0-1.3-27.087c-1.686-7.4-5.15-14.51-12.052-18.261-4.079-2.217-8.752-2.845-13.3-3.29a34.542,34.542,0,0,1-8.115-1.6c-1.048-.365-2.818-1.479-3.939-.8-.389.237-.6.819-.878,1.164a14.947,14.947,0,0,1-1.978,1.932,23.317,23.317,0,0,1-8.435,4.542c-5.637,1.68-13.154.9-16.761-4.223-.257-.367-.865-.017-.6.353" transform="translate(-187.182 -60.997)" fill="#685aef"/>
        <path id="Trazado_1273715" data-name="Trazado 1273715" d="M535.926,178.8c1.949-3.286,2.169-8.068.1-14.885s-3.043-10.346,2.315-12.781c.122-2.313,3.895-4.5,6.816-4.625,2.8-3.044,12.049.851,7.179,5.72.367,2.192-1.094,2.8-1.094,2.8,2.72,4.261,4.14,6.573,1.216,12.9a71.348,71.348,0,0,0-4.381,13.267s-6.916,1.618-12.151-2.4" transform="translate(-198.908 -53.69)" fill="#feacdc"/>
        <path id="Trazado_1273716" data-name="Trazado 1273716" d="M548.82,160.349a2.05,2.05,0,0,1-1.588-.619,3.193,3.193,0,0,1-.551-2.468,5.7,5.7,0,0,1-2.7.5.35.35,0,0,1-.32-.377.356.356,0,0,1,.378-.32,4.528,4.528,0,0,0,2.907-.809.35.35,0,0,1,.566.358c-.141.508-.373,1.973.242,2.644a1.779,1.779,0,0,0,1.711.326,2,2,0,0,0,1.73-1.539,5.747,5.747,0,0,0-1.885-4.985c-1.892-1.515-6.24-.868-9.11.684a.35.35,0,0,1-.333-.615c3.057-1.652,7.7-2.356,9.881-.615a6.357,6.357,0,0,1,2.126,5.7,2.673,2.673,0,0,1-2.28,2.057,4.219,4.219,0,0,1-.768.076" transform="translate(-200.883 -55.947)"/>
        <path id="Trazado_1273717" data-name="Trazado 1273717" d="M554.393,156.363a.349.349,0,0,1-.042-.7,2.3,2.3,0,0,0,1.508-.987,3.849,3.849,0,0,0-.013-3.261c-1.448-4.261-6.018-4.531-8.733-3.674a.35.35,0,1,1-.21-.667c2.979-.941,8-.62,9.607,4.116a4.471,4.471,0,0,1-.063,3.864,2.978,2.978,0,0,1-2.011,1.3.31.31,0,0,1-.043,0" transform="translate(-203.481 -54.142)"/>
        <path id="Trazado_1273718" data-name="Trazado 1273718" d="M558.521,152.328a.35.35,0,0,1-.206-.632c.1-.072,2.38-1.785.812-4.062a6.021,6.021,0,0,0-4.774-2.184,3.256,3.256,0,0,0-2.725,1.009.35.35,0,0,1-.573-.4,3.885,3.885,0,0,1,3.268-1.306h.033a6.739,6.739,0,0,1,5.347,2.487,3.565,3.565,0,0,1-.976,5.024.35.35,0,0,1-.205.067" transform="translate(-205.093 -53.433)"/>
        <path id="Trazado_1273719" data-name="Trazado 1273719" d="M552.21,168.116a.344.344,0,0,1-.267-.124c-1.628-1.924-4.326-3.121-6.152-2.725a.35.35,0,0,1-.148-.684c2.084-.451,5.025.817,6.834,2.957a.349.349,0,0,1-.041.493.345.345,0,0,1-.225.082" transform="translate(-203 -60.783)"/>
        <path id="Trazado_1273720" data-name="Trazado 1273720" d="M544.317,208.948c-5.154,0-8.088-1.107-10.8-2.76a.35.35,0,0,1,.363-.6c2.87,1.746,6,2.86,11.977,2.628a.329.329,0,0,1,.363.335.349.349,0,0,1-.336.363q-.815.033-1.564.032" transform="translate(-198.525 -76.061)"/>
        <path id="Trazado_1273721" data-name="Trazado 1273721" d="M559.653,271.322c-1.583.121-15.338-.853-18.258-.853-1.947,8.156-7.611,15.721-16.556,14.363-2.191,2.069.124,3.773,1.706,4.626s.852,2.555,2.555,4.017,3.775.121,5.113.487,2.92,1.948,6.209-2.07,6.692-6.695,11.077-5.721A57.622,57.622,0,0,1,558.19,288s-4.99-5.6,1.462-16.674" transform="translate(-195.024 -100.229)" fill="#feacdc"/>
        <path id="Trazado_1273722" data-name="Trazado 1273722" d="M604.674,288.81c-12.231,0-25.091-1.157-27.588-2.9a.348.348,0,0,1-.1-.1c-3.814-6.23-.477-14.746,1.492-17.083a.349.349,0,0,1,.274-.124c.133,0,13.267.224,18.023-1.322,2.944-.957,10.39-3.182,15.932-3.182a.35.35,0,0,1,0,.7c-5.442,0-12.8,2.2-15.716,3.147-4.624,1.5-16.448,1.385-18.08,1.36-1.824,2.329-4.815,10.345-1.367,16.075,4.008,2.577,37.015,4.284,47.838.888a.344.344,0,0,1,.437.228.347.347,0,0,1-.228.438c-4.19,1.316-12.4,1.878-20.918,1.878" transform="translate(-214.12 -97.857)"/>
        <path id="Trazado_1273723" data-name="Trazado 1273723" d="M626.766,253.2a.34.34,0,0,1-.147-.032.35.35,0,0,1-.17-.465c1.537-3.31,3.484-16.535,3.864-20.1a.359.359,0,0,1,.385-.31.348.348,0,0,1,.31.384c-.289,2.72-2.236,16.684-3.925,20.317a.349.349,0,0,1-.317.2" transform="translate(-233.168 -86.021)"/>
        <path id="Trazado_1273724" data-name="Trazado 1273724" d="M586.22,290.006a.345.345,0,0,1-.289-.154c-3.2-4.743-.072-15.827,1.076-18.008a.349.349,0,1,1,.618.325c-1.351,2.568-3.962,13.077-1.115,17.292a.349.349,0,0,1-.29.545" transform="translate(-217.577 -100.671)"/>
        <path id="Trazado_1273725" data-name="Trazado 1273725" d="M522.365,258.323a8.394,8.394,0,0,1-1.984-.21.35.35,0,1,1,.169-.679c2.354.588,7.344-.174,9.81-2.7,8.113-8.332,9.269-30.305,8.747-40.76a47.78,47.78,0,0,1,.67-9.683,11.851,11.851,0,0,0,.262-3.117c-6.859,1.475-9.994-.8-11.681-2.025a3.713,3.713,0,0,0-1.132-.672c-.444.145-1.423,2.9-2.287,5.327-1.443,4.057-3.419,9.614-6.249,13.994a34.892,34.892,0,0,0-5.787,20.983.351.351,0,0,1-.343.357h-.007a.35.35,0,0,1-.35-.343,35.549,35.549,0,0,1,5.9-21.377c2.786-4.311,4.747-9.823,6.178-13.848,1.5-4.226,2.156-5.93,3.06-5.783a3.837,3.837,0,0,1,1.428.8c1.719,1.247,4.6,3.336,11.22,1.886a.582.582,0,0,1,.559.211c.387.448.264,1.4-.078,3.714a47.273,47.273,0,0,0-.665,9.545c.063,1.247,1.406,30.654-8.943,41.283-2.1,2.155-5.769,3.1-8.5,3.1" transform="translate(-190.651 -73.171)"/>
        <path id="Trazado_1273726" data-name="Trazado 1273726" d="M581.109,181.157c-.25,0-.492-.005-.73-.014-6.574-.254-11.25-3.689-12.653-5.8a.35.35,0,0,1,.581-.389c1.425,2.139,6.12,5.254,12.1,5.486,4.782.186,11.952-1.443,18.862-10.254a.35.35,0,0,1,.551.433c-6.751,8.607-13.776,10.535-18.709,10.535" transform="translate(-211.3 -62.853)"/>
        <path id="Trazado_1273727" data-name="Trazado 1273727" d="M638.828,349.313c.063,2.685.482,5.41.771,8.083.3,2.769.331,5.534.527,8.309.417,5.907.65,11.769.65,17.691a.35.35,0,0,0,.7,0c0-5.7-.233-11.326-.6-17.009-.181-2.795-.213-5.589-.508-8.375-.3-2.878-.77-5.807-.838-8.7a.35.35,0,0,0-.7,0" transform="translate(-237.788 -129.451)"/>
        <path id="Trazado_1273728" data-name="Trazado 1273728" d="M458.643,413.419c0,49.676-91.994,89.947-205.479,89.947S47.685,463.095,47.685,413.419s92-89.95,205.479-89.95,205.479,40.272,205.479,89.95" transform="translate(-17.75 -119.957)" fill="#d5f4f8"/>
        <path id="Trazado_1273729" data-name="Trazado 1273729" d="M359.335,386.689a5.507,5.507,0,1,0-4.869,0,7.663,7.663,0,0,0-5.233,7.265v5.172h.026c.248,1.527,3.568,2.74,7.643,2.74s7.394-1.213,7.641-2.74h.028v-5.172a7.666,7.666,0,0,0-5.236-7.265" transform="translate(-129.994 -139.603)" fill="#ffb851"/>
        <path id="Trazado_1273730" data-name="Trazado 1273730" d="M397.475,349.333a5.507,5.507,0,1,0-4.87,0,7.666,7.666,0,0,0-5.233,7.268v5.172h.026c.248,1.528,3.57,2.739,7.641,2.739s7.4-1.211,7.643-2.739h.025V356.6a7.665,7.665,0,0,0-5.232-7.268" transform="translate(-144.19 -125.698)" fill="#69d7e5"/>
        <path id="Trazado_1273731" data-name="Trazado 1273731" d="M112.894,429.172l28.013,3.6c-.113-.147-.225-.294-.337-.443q-4.112,12.339-8.224,24.674c-.093.279.188.465.431.431l34.953-5.141-.43-.244q1.927,5.141,3.855,10.281c.157.417.833.235.674-.187l-3.855-10.28a.362.362,0,0,0-.43-.245l-34.953,5.141c.143.143.287.286.429.43q4.112-12.337,8.223-24.673a.354.354,0,0,0-.336-.442l-28.013-3.6c-.446-.058-.441.642,0,.7" transform="translate(-41.898 -159.041)"/>
        <path id="Trazado_1273732" data-name="Trazado 1273732" d="M108.649,426.568c0,2.486-3.222,4.5-7.2,4.5s-7.2-2.012-7.2-4.5,3.222-4.5,7.2-4.5,7.2,2.014,7.2,4.5" transform="translate(-35.085 -156.66)" fill="#feacdc"/>
        <path id="Trazado_1273733" data-name="Trazado 1273733" d="M161.749,432.134c0,1.686-2.187,3.053-4.884,3.053s-4.883-1.367-4.883-3.053,2.186-3.052,4.883-3.052,4.884,1.367,4.884,3.052" transform="translate(-56.572 -159.269)" fill="#2d2833"/>
        <path id="Trazado_1273734" data-name="Trazado 1273734" d="M144.677,468.941c0,2.485-3.222,4.5-7.2,4.5s-7.2-2.013-7.2-4.5,3.221-4.5,7.2-4.5,7.2,2.012,7.2,4.5" transform="translate(-48.495 -172.433)" fill="#69d7e5"/>
        <path id="Trazado_1273735" data-name="Trazado 1273735" d="M202.07,464.256c0,1.509-1.956,2.733-4.369,2.733s-4.37-1.224-4.37-2.733,1.956-2.731,4.37-2.731,4.369,1.224,4.369,2.731" transform="translate(-71.963 -171.345)" fill="#feacdc"/>
        <path id="Trazado_1273736" data-name="Trazado 1273736" d="M208.21,480.634c0,1.509-1.956,2.731-4.37,2.731s-4.371-1.222-4.371-2.731,1.957-2.729,4.371-2.729,4.37,1.222,4.37,2.729" transform="translate(-74.248 -177.442)" fill="#ffb851"/>
        <path id="Trazado_1273737" data-name="Trazado 1273737" d="M189.725,402.022q23.1-6.5,46.207-13c.385-.109-.335-.338-.183-.124l.5.705,2.458,3.44,8.145,11.4,12.38,17.332.4-.514-49.519-12.131-22.921-5.616c-.438-.107-.624.568-.186.676l49.519,12.13,22.921,5.616c.274.067.583-.25.395-.514q-11.772-16.481-23.543-32.96a.36.36,0,0,0-.395-.161q-23.1,6.5-46.207,13l-.154.044a.35.35,0,0,0,.185.675" transform="translate(-69.515 -144.087)"/>
        <path id="Trazado_1273738" data-name="Trazado 1273738" d="M261.008,360.222a6.146,6.146,0,1,0-5.431,0,8.553,8.553,0,0,0-5.843,8.11V374.1h.03c.276,1.7,3.982,3.057,8.529,3.057s8.251-1.352,8.529-3.057h.028v-5.771a8.552,8.552,0,0,0-5.841-8.11" transform="translate(-92.957 -129.3)" fill="#2d2833"/>
        <path id="Trazado_1273739" data-name="Trazado 1273739" d="M303.436,420.446a6.146,6.146,0,1,0-5.431,0,8.553,8.553,0,0,0-5.841,8.108v5.773h.026c.279,1.7,3.986,3.057,8.531,3.057s8.252-1.353,8.531-3.057h.027v-5.773a8.553,8.553,0,0,0-5.842-8.108" transform="translate(-108.751 -151.717)" fill="#69d7e5"/>
        <path id="Trazado_1273740" data-name="Trazado 1273740" d="M185.16,386.982a6.146,6.146,0,1,0-5.433,0,8.557,8.557,0,0,0-5.841,8.11v5.773h.028c.277,1.705,3.985,3.056,8.53,3.056s8.25-1.351,8.528-3.056H191v-5.773a8.555,8.555,0,0,0-5.839-8.11" transform="translate(-64.725 -139.261)" fill="#ffb851"/>
        <path id="Trazado_1273741" data-name="Trazado 1273741" d="M411.74,380.387a5.506,5.506,0,1,0-4.867,0,7.663,7.663,0,0,0-5.233,7.264v5.175h.024c.249,1.525,3.569,2.739,7.642,2.739s7.393-1.214,7.641-2.739h.025v-5.175a7.662,7.662,0,0,0-5.233-7.264" transform="translate(-149.501 -137.257)" fill="#2d2833"/>
        <path id="Trazado_1273742" data-name="Trazado 1273742" d="M495.987,406.226a4.226,4.226,0,0,1,3.714-.056l23.32,13.486c.966.558.868,1.49-.217,2.079l-18.35,9.958a4.23,4.23,0,0,1-3.716.055l-23.318-13.485c-.965-.557-.866-1.488.217-2.078Z" transform="translate(-177.461 -150.591)" fill="#ffb851"/>
        <path id="Trazado_1273743" data-name="Trazado 1273743" d="M502.1,438.87l-.037,0a.348.348,0,0,1-.311-.384l1.424-13.637a.562.562,0,0,0-.17-.44,2.692,2.692,0,0,0-1.951-.6l-24.465.368h-.006a.35.35,0,0,1-.005-.7l24.464-.368a3.257,3.257,0,0,1,2.48.831,1.246,1.246,0,0,1,.348.986l-1.425,13.635a.35.35,0,0,1-.347.313" transform="translate(-177.267 -157.043)"/>
        <path id="Trazado_1273744" data-name="Trazado 1273744" d="M508.55,417.214l-.038,0a.35.35,0,0,1-.311-.384l1.18-11.284a.35.35,0,0,1,.7.072L508.9,416.9a.349.349,0,0,1-.347.313" transform="translate(-189.165 -150.391)"/>
        <path id="Trazado_1273745" data-name="Trazado 1273745" d="M519.268,429.828a.35.35,0,0,1-.006-.7l19.737-.3H539a.349.349,0,0,1,.005.7l-19.735.3Z" transform="translate(-193.155 -159.176)"/>
        <path id="Trazado_1273746" data-name="Trazado 1273746" d="M514.567,367.625a3.025,3.025,0,0,1,2.658-.04l16.678,9.646c.69.4.621,1.064-.156,1.486l-13.123,7.123a3.026,3.026,0,0,1-2.657.04l-16.68-9.644c-.689-.4-.62-1.064.157-1.485Z" transform="translate(-186.415 -136.271)" fill="#69d7e5"/>
        <path id="Trazado_1273747" data-name="Trazado 1273747" d="M518.883,391.017l-.037,0a.35.35,0,0,1-.311-.384l1.018-9.754a.287.287,0,0,0-.1-.237,1.847,1.847,0,0,0-1.321-.4l-17.5.261h0a.35.35,0,0,1-.006-.7l17.5-.261a2.47,2.47,0,0,1,1.849.625.984.984,0,0,1,.275.782l-1.018,9.754a.35.35,0,0,1-.347.314" transform="translate(-186.219 -140.829)"/>
        <path id="Trazado_1273748" data-name="Trazado 1273748" d="M523.5,375.525l-.038,0a.349.349,0,0,1-.311-.384l.845-8.069a.349.349,0,1,1,.694.073l-.844,8.069a.35.35,0,0,1-.347.313" transform="translate(-194.728 -136.07)"/>
        <path id="Trazado_1273749" data-name="Trazado 1273749" d="M531.161,384.547a.349.349,0,0,1-.005-.7l14.114-.212h.006a.349.349,0,0,1,.005.7l-14.114.212Z" transform="translate(-197.582 -142.353)"/>
        <path id="Trazado_1273750" data-name="Trazado 1273750" d="M592.616,417.427a3.762,3.762,0,0,1,3.306-.048l20.739,11.99c.859.5.771,1.328-.194,1.85l-16.32,8.859a3.766,3.766,0,0,1-3.3.048L576.1,428.133c-.858-.5-.77-1.325.193-1.85Z" transform="translate(-214.221 -154.779)" fill="#feacdc"/>
        <path id="Trazado_1273751" data-name="Trazado 1273751" d="M598.032,446.479l-.037,0a.349.349,0,0,1-.311-.384l1.267-12.13a.453.453,0,0,0-.141-.362,2.351,2.351,0,0,0-1.647-.522h-.06l-21.756.325h-.006a.349.349,0,0,1-.005-.7l21.757-.325a2.962,2.962,0,0,1,2.236.75,1.141,1.141,0,0,1,.319.906l-1.268,12.129a.349.349,0,0,1-.347.313" transform="translate(-214.027 -160.496)"/>
        <path id="Trazado_1273752" data-name="Trazado 1273752" d="M603.77,427.215l-.038,0a.349.349,0,0,1-.311-.384l1.05-10.035a.35.35,0,0,1,.7.073l-1.05,10.034a.351.351,0,0,1-.347.314" transform="translate(-224.609 -154.578)"/>
        <path id="Trazado_1273753" data-name="Trazado 1273753" d="M613.3,438.431a.349.349,0,0,1-.006-.7l17.553-.262h.006a.35.35,0,0,1,.005.7l-17.553.261Z" transform="translate(-228.156 -162.392)"/>
        <path id="Trazado_1273754" data-name="Trazado 1273754" d="M449,430.7a99.933,99.933,0,0,1-25.628,3.537c-6.265.142-12.51-.257-18.771-.345v.7h.5a.35.35,0,0,0,0-.7h-.5a.35.35,0,0,0,0,.7c6.452.09,12.884.478,19.341.331a98.608,98.608,0,0,0,25.243-3.548A.35.35,0,0,0,449,430.7" transform="translate(-150.479 -159.866)"/>
        <path id="Trazado_1273755" data-name="Trazado 1273755" d="M461.837,439.2c-6.278,3.877-12.367,8.042-18.519,12.112-2.993,1.978-5.988,3.926-9.127,5.664a51.411,51.411,0,0,0-8,5.111c-.348.287.149.779.495.494a53.538,53.538,0,0,1,8.374-5.286c2.965-1.642,5.784-3.514,8.611-5.379,6.157-4.062,12.24-8.234,18.518-12.112.384-.236.032-.841-.352-.6" transform="translate(-158.596 -163.014)"/>
        <path id="Trazado_1273756" data-name="Trazado 1273756" d="M498.12,445.729c-4.674,6.427-5.519,18.937,1.873,23.779.379.249.728-.357.353-.6-7.069-4.632-6.054-16.729-1.622-22.823.266-.365-.342-.714-.6-.353" transform="translate(-184.074 -165.409)"/>
        <path id="Trazado_1273757" data-name="Trazado 1273757" d="M407.336,429.659l-8.589,2.434a.351.351,0,0,0-.209.514,44.434,44.434,0,0,0,5.493,6.656c.323.315.819-.18.494-.495a43.564,43.564,0,0,1-5.383-6.514c-.07.17-.14.342-.209.513l8.588-2.433a.35.35,0,0,0-.185-.675" transform="translate(-148.327 -159.479)"/>
        <path id="Trazado_1273758" data-name="Trazado 1273758" d="M423.89,476.394a25.21,25.21,0,0,1-6.127-.493.351.351,0,0,1-.152-.564,35.275,35.275,0,0,0,3.961-5.943.35.35,0,0,1,.62.323,36.7,36.7,0,0,1-3.69,5.654c3.094.632,11.715.142,11.807.136a.343.343,0,0,1,.369.328.349.349,0,0,1-.328.37c-.227.013-3.321.189-6.46.189" transform="translate(-155.413 -174.204)"/>
        <path id="Trazado_1273759" data-name="Trazado 1273759" d="M502.333,484.532a.271.271,0,0,1-.055-.005c-.329-.053-8.085-1.307-10.529-2.313a.349.349,0,0,1,.266-.646c2.065.85,8.351,1.931,9.984,2.2.088-1.468.541-4.644.562-4.794a.353.353,0,0,1,.4-.3.349.349,0,0,1,.3.395c-.006.04-.57,4-.57,5.1a.352.352,0,0,1-.35.35" transform="translate(-182.961 -177.731)"/>
        <path id="Trazado_1273760" data-name="Trazado 1273760" d="M229.269,245.948c2.761,5.355,26.375,36.6,37.572,50.231,5.905,7.187,7.627,10.225,8.6,16.392s1.3,10.71,3.895,15.092,4.22,6,5.518,4.87.813-3.571-.647-7.791-.328-6,2.433-3.733,9.736,7.792,14.119,10.064,7.629.488,3.571-2.76-3.409-2.6-3.409-2.6a11.363,11.363,0,0,0,1.3-8.6c-1.136-5.192-5.681-8.6-9.414-11.684s-13.146-19.314-17.691-27.754-25.337-44.713-26.8-46.822c-5.335.893-15.884,7.871-19.05,15.094" transform="translate(-85.34 -85.484)" fill="#feacdc"/>
        <path id="Trazado_1273761" data-name="Trazado 1273761" d="M329.641,368.366c2.9,2.878,5.767,5.768,8.765,8.521.331.3.827-.19.495-.494-2.993-2.749-5.872-5.65-8.765-8.522a.35.35,0,0,0-.495.495" transform="translate(-122.662 -136.447)"/>
        <path id="Trazado_1273762" data-name="Trazado 1273762" d="M335.449,364.693c2.6,2.1,5.256,5.045,5.619,8.518.046.443.746.448.7,0-.383-3.677-3.061-6.782-5.823-9.012-.348-.281-.846.211-.495.494" transform="translate(-124.818 -135.087)"/>
        <path id="Trazado_1273763" data-name="Trazado 1273763" d="M337.093,360.073a12.835,12.835,0,0,1,4.707,6.486c.142.426.818.244.674-.185a13.632,13.632,0,0,0-5.029-6.9c-.368-.262-.717.345-.353.6" transform="translate(-125.417 -133.333)"/>
      </g>
    </g>
  </g>
</svg>
