<svg xmlns="http://www.w3.org/2000/svg" xmlns:xlink="http://www.w3.org/1999/xlink" width="96" height="96" viewBox="0 0 96 96">
  <defs>
    <clipPath id="clip-path">
      <rect id="Rectángulo_454829" data-name="Rectángulo 454829" width="96" height="96" fill="#1e535a"/>
    </clipPath>
    <clipPath id="clip-path-2">
      <rect id="Rectángulo_460811" data-name="Rectángulo 460811" width="38.341" height="37.532" fill="#1e535a"/>
    </clipPath>
  </defs>
  <g id="Grupo_1210231" data-name="Grupo 1210231" transform="translate(-1481 -8562.5)">
    <g id="Grupo_1177591" data-name="Grupo 1177591" transform="translate(1481 8562.5)">
      <g id="Grupo_1177589" data-name="Grupo 1177589" transform="translate(0 0)">
        <g id="Grupo_1177587" data-name="Grupo 1177587" clip-path="url(#clip-path)">
          <path id="Trazado_997422" data-name="Trazado 997422" d="M92.081,42.491a44.136,44.136,0,0,0-9.97-22.967,5.076,5.076,0,0,0-7.142-6.838A44.071,44.071,0,0,0,52.151,3.77a5.077,5.077,0,0,0-9.861.2A44.132,44.132,0,0,0,20.4,13.329a5.079,5.079,0,0,0-7.048,7.1A44.1,44.1,0,0,0,4.112,42.448,5.08,5.08,0,0,0,3.99,52.4a44.082,44.082,0,0,0,8.949,22.468,5.078,5.078,0,0,0,6.9,7.17,44.128,44.128,0,0,0,22.412,9.8,5.078,5.078,0,0,0,9.949.2,44.091,44.091,0,0,0,22.985-9.08,5.077,5.077,0,0,0,7.107-6.874A44.147,44.147,0,0,0,92.2,52.349a5.078,5.078,0,0,0-.119-9.858M77.74,22.024a5.05,5.05,0,0,0,2.812-.851,41.913,41.913,0,0,1,9.25,21.3,5.086,5.086,0,0,0-3.246,2.351l-12.98-4.867c.01-.142.02-.286.02-.433a5.079,5.079,0,0,0-2.151-4.15l5.678-13.4a5.5,5.5,0,0,0,.616.041M75,21.216,69.354,34.523a5.026,5.026,0,0,0-5.594,3.23L40.279,32.344a4.941,4.941,0,0,0-.106-1.011l33.322-11.6A5.1,5.1,0,0,0,75,21.216M47.246,10.165a5.083,5.083,0,0,0,4.989-4.122,41.844,41.844,0,0,1,21.158,8.275,5.054,5.054,0,0,0-.735,2.625,5.335,5.335,0,0,0,.048.671L39.217,29.273a5.1,5.1,0,0,0-.92-.92l8.784-18.2c.056,0,.109.008.165.008M42.3,6.243A5.083,5.083,0,0,0,44.86,9.569L36.248,27.4a5.1,5.1,0,0,0-1.049-.109,5.045,5.045,0,0,0-2.9.91L22.1,19.678A5.052,5.052,0,0,0,21.923,15,41.877,41.877,0,0,1,42.3,6.243M10.041,46.332,31.153,35.442a5.064,5.064,0,0,0,4.006,2.014l7.236,23.129a5.166,5.166,0,0,0-1.12,1.239l-31.3-13.04a5.048,5.048,0,0,0,.187-1.348,5.107,5.107,0,0,0-.124-1.1m4.986-24.391a5.079,5.079,0,0,0,5.673-.484l10.079,8.417a5.068,5.068,0,0,0-.56,3.512L9.07,44.29A5.081,5.081,0,0,0,6.38,42.526a41.859,41.859,0,0,1,8.647-20.585m2.1,50.717a5.067,5.067,0,0,0-2.523.674A41.822,41.822,0,0,1,6.263,52.374,5.087,5.087,0,0,0,8.9,50.783l31.609,13.17a5.45,5.45,0,0,0-.041.611,5.081,5.081,0,0,0,.3,1.718L21.657,75.44a5.081,5.081,0,0,0-4.528-2.782M42.349,89.575a41.919,41.919,0,0,1-20.912-9.149,5.029,5.029,0,0,0,.775-2.686l0-.058L42,68.2A5.082,5.082,0,0,0,43.8,69.329l1.186,17.043a5.082,5.082,0,0,0-2.632,3.2m2.105-29.97-7.081-22.64a5.089,5.089,0,0,0,2.415-2.415L63.459,40a5.052,5.052,0,0,0,.808,2.311L48.032,60.13a5.019,5.019,0,0,0-3.577-.524m7.74,30.167a5.081,5.081,0,0,0-4.948-3.937l-.038,0L46.081,69.62a5.073,5.073,0,0,0,3.106-1.507L72.853,78.551c0,.046-.008.086-.008.132a5.057,5.057,0,0,0,.752,2.65,41.841,41.841,0,0,1-21.4,8.439M73.423,76.334,50.373,66.165a5.052,5.052,0,0,0-.666-4.52L65.893,43.877a5.052,5.052,0,0,0,2.622.735,5.594,5.594,0,0,0,.623-.041l6.05,29.836a5.071,5.071,0,0,0-1.766,1.928m7.292-1.9a5.051,5.051,0,0,0-3.377-.8L71.285,43.788a5.1,5.1,0,0,0,1.6-1.672L85.858,46.98a4.506,4.506,0,0,0-.023.456,5.08,5.08,0,0,0,4.084,4.981,41.876,41.876,0,0,1-9.2,22.017" transform="translate(0 0.001)" fill="#1e535a"/>
        </g>
      </g>
    </g>
    <g id="Elipse_13614" data-name="Elipse 13614" transform="translate(1497.965 8579)" fill="#d5f4f8" stroke="#1e535a" stroke-width="3">
      <ellipse cx="31.232" cy="31.233" rx="31.232" ry="31.233" stroke="none"/>
      <ellipse cx="31.232" cy="31.233" rx="29.732" ry="29.733" fill="none"/>
    </g>
    <g id="Grupo_1211076" data-name="Grupo 1211076" transform="translate(1512.465 8590.469)">
      <g id="Grupo_1211075" data-name="Grupo 1211075" clip-path="url(#clip-path-2)">
        <path id="Trazado_1273613" data-name="Trazado 1273613" d="M23.661,24.664,6.043,24.653a1.917,1.917,0,0,0-1.7,2.312L5.61,37.524l-2.754-.015A2.991,2.991,0,0,1,.069,33.75l1.71-8.63a3.05,3.05,0,0,1,2.269-2.458l5.21-1.391c.535-.143.873-.793,1.272-1.128a1.12,1.12,0,0,0,.414-1.323,7.14,7.14,0,0,1-3.121-5.155A2.7,2.7,0,0,1,6.075,12.1c-.415-1.006.051-1.725.343-2.562a27.177,27.177,0,0,0,.1-3.981A3.032,3.032,0,0,1,9.166,2.58,3.08,3.08,0,0,1,12.291,0l3.743,0a6.956,6.956,0,0,1,7.02,6.841l.033,2.7a2.677,2.677,0,0,1,.413,2.578,2.844,2.844,0,0,1-1.717,1.564,7.063,7.063,0,0,1-3.16,5.111,3.393,3.393,0,0,0,0,.923l1.521,1.513,5.513,1.477a2.853,2.853,0,0,1,2.1,2.206l1.784,9.068A2.926,2.926,0,0,1,26.809,37.5l-2.831.027,1.289-10.795a1.871,1.871,0,0,0-1.605-2.07M21.209,12.511a1.316,1.316,0,1,0-.454-2.574,1.022,1.022,0,0,1-.584-.029.813.813,0,0,1-.287-.522l-.015-1.109a1.375,1.375,0,0,0-1.529-1.288,28.336,28.336,0,0,1-7.151-.743c-.777-.175-1.169,2.025-1.38,3.185a.985.985,0,0,1-.31.518,1.021,1.021,0,0,1-.624.006,1.29,1.29,0,0,0-1.723,1.018,1.321,1.321,0,0,0,1.236,1.544.657.657,0,0,1,.616.6,5.789,5.789,0,0,0,11.574.018.665.665,0,0,1,.631-.62m-3.886,6.966a7.049,7.049,0,0,1-5.084.027,2.783,2.783,0,0,0,1.132,2.81,2.564,2.564,0,0,0,2.888-.029,2.766,2.766,0,0,0,1.064-2.809" transform="translate(0 0)" fill="#1e535a"/>
        <path id="Trazado_1273614" data-name="Trazado 1273614" d="M67.575,246.868l-15.909.01-1.295-10.744a.758.758,0,0,1,.61-.942H68.206a.709.709,0,0,1,.676.792Zm-6.607-5.843a1.349,1.349,0,1,0-1.349,1.349,1.349,1.349,0,0,0,1.349-1.349" transform="translate(-44.826 -209.347)" fill="#1e535a"/>
        <path id="Trazado_1273615" data-name="Trazado 1273615" d="M213.912,138.657l-1.645,1.636c-.146.145-.627.083-.819-.01l-1.328-.642a1.609,1.609,0,0,0-1.23.528c-.508,1.048-.484,2-1.11,1.934l-1.116-5.638a3.408,3.408,0,1,0-3.2-4.6l-3.84-1.014c.793-1.241.359-1.487-.243-2.718a.833.833,0,0,1,.128-.817l1.525-1.5c.426-.419,1.425.441,2.227.656a1.618,1.618,0,0,0,1.163-.511c.545-.934.361-2.02,1.318-2.019l1.911,0c1.263,0,.349,2.467,2.465,2.519.8-.217,1.739-1.061,2.156-.644l1.653,1.652c.139.139.048.615-.035.79l-.611,1.278a1.347,1.347,0,0,0,.531,1.311l1.483.535a.786.786,0,0,1,.466.6v2.129a.8.8,0,0,1-.462.608l-1.489.532a1.351,1.351,0,0,0-.531,1.31l.665,1.4a.936.936,0,0,1-.033.7" transform="translate(-177.421 -110.322)" fill="#1e535a"/>
      </g>
    </g>
  </g>
</svg>
