<svg xmlns="http://www.w3.org/2000/svg" xmlns:xlink="http://www.w3.org/1999/xlink" width="96" height="96" viewBox="0 0 96 96">
  <defs>
    <clipPath id="clip-path">
      <rect id="Rectángulo_454829" data-name="Rectángulo 454829" width="96" height="96" fill="#1e535a"/>
    </clipPath>
    <clipPath id="clip-path-2">
      <rect id="Rectángulo_460844" data-name="Rectángulo 460844" width="36" height="36.029" fill="#1e535a"/>
    </clipPath>
  </defs>
  <g id="Grupo_1211396" data-name="Grupo 1211396" transform="translate(-1481 -8562.5)">
    <g id="Grupo_1177591" data-name="Grupo 1177591" transform="translate(1481 8562.5)">
      <g id="Grupo_1177589" data-name="Grupo 1177589" transform="translate(0 0)">
        <g id="Grupo_1177587" data-name="Grupo 1177587" clip-path="url(#clip-path)">
          <path id="Trazado_997422" data-name="Trazado 997422" d="M92.081,42.491a44.136,44.136,0,0,0-9.97-22.967,5.076,5.076,0,0,0-7.142-6.838A44.071,44.071,0,0,0,52.151,3.77a5.077,5.077,0,0,0-9.861.2A44.132,44.132,0,0,0,20.4,13.329a5.079,5.079,0,0,0-7.048,7.1A44.1,44.1,0,0,0,4.112,42.448,5.08,5.08,0,0,0,3.99,52.4a44.082,44.082,0,0,0,8.949,22.468,5.078,5.078,0,0,0,6.9,7.17,44.128,44.128,0,0,0,22.412,9.8,5.078,5.078,0,0,0,9.949.2,44.091,44.091,0,0,0,22.985-9.08,5.077,5.077,0,0,0,7.107-6.874A44.147,44.147,0,0,0,92.2,52.349a5.078,5.078,0,0,0-.119-9.858M77.74,22.024a5.05,5.05,0,0,0,2.812-.851,41.913,41.913,0,0,1,9.25,21.3,5.086,5.086,0,0,0-3.246,2.351l-12.98-4.867c.01-.142.02-.286.02-.433a5.079,5.079,0,0,0-2.151-4.15l5.678-13.4a5.5,5.5,0,0,0,.616.041M75,21.216,69.354,34.523a5.026,5.026,0,0,0-5.594,3.23L40.279,32.344a4.941,4.941,0,0,0-.106-1.011l33.322-11.6A5.1,5.1,0,0,0,75,21.216M47.246,10.165a5.083,5.083,0,0,0,4.989-4.122,41.844,41.844,0,0,1,21.158,8.275,5.054,5.054,0,0,0-.735,2.625,5.335,5.335,0,0,0,.048.671L39.217,29.273a5.1,5.1,0,0,0-.92-.92l8.784-18.2c.056,0,.109.008.165.008M42.3,6.243A5.083,5.083,0,0,0,44.86,9.569L36.248,27.4a5.1,5.1,0,0,0-1.049-.109,5.045,5.045,0,0,0-2.9.91L22.1,19.678A5.052,5.052,0,0,0,21.923,15,41.877,41.877,0,0,1,42.3,6.243M10.041,46.332,31.153,35.442a5.064,5.064,0,0,0,4.006,2.014l7.236,23.129a5.166,5.166,0,0,0-1.12,1.239l-31.3-13.04a5.048,5.048,0,0,0,.187-1.348,5.107,5.107,0,0,0-.124-1.1m4.986-24.391a5.079,5.079,0,0,0,5.673-.484l10.079,8.417a5.068,5.068,0,0,0-.56,3.512L9.07,44.29A5.081,5.081,0,0,0,6.38,42.526a41.859,41.859,0,0,1,8.647-20.585m2.1,50.717a5.067,5.067,0,0,0-2.523.674A41.822,41.822,0,0,1,6.263,52.374,5.087,5.087,0,0,0,8.9,50.783l31.609,13.17a5.45,5.45,0,0,0-.041.611,5.081,5.081,0,0,0,.3,1.718L21.657,75.44a5.081,5.081,0,0,0-4.528-2.782M42.349,89.575a41.919,41.919,0,0,1-20.912-9.149,5.029,5.029,0,0,0,.775-2.686l0-.058L42,68.2A5.082,5.082,0,0,0,43.8,69.329l1.186,17.043a5.082,5.082,0,0,0-2.632,3.2m2.105-29.97-7.081-22.64a5.089,5.089,0,0,0,2.415-2.415L63.459,40a5.052,5.052,0,0,0,.808,2.311L48.032,60.13a5.019,5.019,0,0,0-3.577-.524m7.74,30.167a5.081,5.081,0,0,0-4.948-3.937l-.038,0L46.081,69.62a5.073,5.073,0,0,0,3.106-1.507L72.853,78.551c0,.046-.008.086-.008.132a5.057,5.057,0,0,0,.752,2.65,41.841,41.841,0,0,1-21.4,8.439M73.423,76.334,50.373,66.165a5.052,5.052,0,0,0-.666-4.52L65.893,43.877a5.052,5.052,0,0,0,2.622.735,5.594,5.594,0,0,0,.623-.041l6.05,29.836a5.071,5.071,0,0,0-1.766,1.928m7.292-1.9a5.051,5.051,0,0,0-3.377-.8L71.285,43.788a5.1,5.1,0,0,0,1.6-1.672L85.858,46.98a4.506,4.506,0,0,0-.023.456,5.08,5.08,0,0,0,4.084,4.981,41.876,41.876,0,0,1-9.2,22.017" transform="translate(0 0.001)" fill="#1e535a"/>
        </g>
      </g>
    </g>
    <g id="Elipse_13614" data-name="Elipse 13614" transform="translate(1497.965 8579.5)" fill="#d5f4f8" stroke="#1e535a" stroke-width="3">
      <ellipse cx="31.232" cy="31.233" rx="31.232" ry="31.233" stroke="none"/>
      <ellipse cx="31.232" cy="31.233" rx="29.732" ry="29.733" fill="none"/>
    </g>
    <g id="Grupo_1211427" data-name="Grupo 1211427" transform="translate(1510.965 8592.5)">
      <g id="Grupo_1211426" data-name="Grupo 1211426" clip-path="url(#clip-path-2)">
        <path id="Trazado_1274506" data-name="Trazado 1274506" d="M64.23,121.192v22.434c0,.328-.677.984-1.078.882l-21.152,0a1.168,1.168,0,0,1-.977-.776V120.986c.215-.023.623.206.774.206Zm-17.6,7.484a1.216,1.216,0,0,0,1.2.205,26.373,26.373,0,0,0,2.559-2.494,1.05,1.05,0,0,0-1.4-1.5c-.363.192-1.517,1.565-1.629,1.565-.669-1.155-2.494-.622-2.068.73a9.419,9.419,0,0,0,1.337,1.5m6.735-2.821a1.05,1.05,0,0,0,.087,2.035c1.653.261,3.938-.178,5.661,0a1.054,1.054,0,0,0,.1-2.052Zm-6.3,6c-.427-.277-.7-.482-1.223-.225a1.038,1.038,0,0,0-.385,1.574,8.463,8.463,0,0,0,1.621,1.474,1.272,1.272,0,0,0,1.112-.288,16.212,16.212,0,0,0,2.24-2.4,1.04,1.04,0,0,0-1.565-1.256c-.382.24-1.047,1.207-1.349,1.34s-.35-.153-.451-.219m5.854-.008a1.069,1.069,0,0,0,.644,1.812,35.616,35.616,0,0,0,5.448,0,1.043,1.043,0,0,0,.21-2.047c-1.811.154-4.012-.226-5.774-.011a.927.927,0,0,0-.528.246m-3.779,4.525c-.5.116-1.2,1.215-1.687,1.509-.325-.006-.472-.347-.73-.476a1.052,1.052,0,0,0-1.356,1.459,13.7,13.7,0,0,0,1.56,1.533,1.191,1.191,0,0,0,1.2-.186,20.817,20.817,0,0,0,2.194-2.241,1.04,1.04,0,0,0-1.186-1.6m3.779,1.251a1.074,1.074,0,0,0,.641,1.815,36.492,36.492,0,0,0,5.451,0,1.043,1.043,0,0,0,.21-2.047c-1.811.154-4.012-.226-5.774-.011a.927.927,0,0,0-.528.246" transform="translate(-36.791 -108.505)" fill="#1e535a"/>
        <path id="Trazado_1274507" data-name="Trazado 1274507" d="M72.847,10.521a3.671,3.671,0,0,0,.21-.976c.132-1.907.217-6.8-.441-8.437C72.457.713,72.189.388,72.022,0H91.465a3.339,3.339,0,0,1,2.6,2.554c.311,2.154-.178,4.877.029,7.092.073.273-.481.874-.673.874Z" transform="translate(-64.593)" fill="#1e535a"/>
        <path id="Trazado_1274508" data-name="Trazado 1274508" d="M294.314,122.121h-6.292V109.073c.923-1.48,1.342-4.017,2.227-5.405a1.055,1.055,0,0,1,1.852.088c.893,1.566,1.358,3.881,2.212,5.524Z" transform="translate(-258.314 -92.518)" fill="#1e535a"/>
        <path id="Trazado_1274509" data-name="Trazado 1274509" d="M6.088,2.1H3.148A1.3,1.3,0,0,0,2.065,3.188V27.478C1.2,27.528.173,27.56,0,26.5L.015,2.891A3.142,3.142,0,0,1,6.088,2.1" transform="translate(0 -0.042)" fill="#1e535a"/>
        <path id="Trazado_1274510" data-name="Trazado 1274510" d="M294.314,307v2.321a2.771,2.771,0,0,1-1.475,1.825,6.376,6.376,0,0,1-3.413-.032c-.524-.226-1.4-1.124-1.4-1.69V307Z" transform="translate(-258.314 -275.334)" fill="#1e535a"/>
        <path id="Trazado_1274511" data-name="Trazado 1274511" d="M43.085,41v5.621a1.5,1.5,0,0,1-.542.592c-.555.226-1.521-.049-1.521-.7V41Z" transform="translate(-36.791 -36.771)" fill="#1e535a"/>
      </g>
    </g>
  </g>
</svg>
