<svg xmlns="http://www.w3.org/2000/svg" xmlns:xlink="http://www.w3.org/1999/xlink" width="69" height="69" viewBox="0 0 69 69">
  <defs>
    <clipPath id="clip-path">
      <rect id="Rectángulo_460819" data-name="Rectángulo 460819" width="43.897" height="44" fill="#fff"/>
    </clipPath>
  </defs>
  <g id="Grupo_1211376" data-name="Grupo 1211376" transform="translate(-273.711 -1370)">
    <circle id="Elipse_13700" data-name="Elipse 13700" cx="34.5" cy="34.5" r="34.5" transform="translate(273.711 1370)" fill="#1e535a"/>
    <g id="Grupo_1211391" data-name="Grupo 1211391" transform="translate(286.711 1383)">
      <g id="Grupo_1211390" data-name="Grupo 1211390" clip-path="url(#clip-path)">
        <path id="Trazado_1274467" data-name="Trazado 1274467" d="M15.973,36.964,14.827,33.92a18.739,18.739,0,0,1-4.663-1.932l-3,1.317L3.643,29.79l1.322-3.027a17.261,17.261,0,0,1-1.923-4.626L0,20.974l0-4.992,3.06-1.2a16.017,16.017,0,0,1,1.914-4.6L3.647,7.183l3.539-3.55,2.98,1.318a17.08,17.08,0,0,1,4.622-1.9L15.964.008,20.98,0l1.177,3.025a16.824,16.824,0,0,1,4.626,1.942l3.006-1.344L33.33,7.156l-1.338,2.989a15.508,15.508,0,0,1,1.879,4.6l3.083,1.219.011,2.958-1.823,1.8a12.825,12.825,0,0,0-6.939-1.1,9.8,9.8,0,1,0-10.719,8.586,12.941,12.941,0,0,0,.05,8.733Z" fill="#fff"/>
        <path id="Trazado_1274468" data-name="Trazado 1274468" d="M151.233,159.876a8.872,8.872,0,1,0,3.488,3.515l1.558.278a2.075,2.075,0,0,0,1.34-.3,11.488,11.488,0,1,1-6.35-6.4,2.012,2.012,0,0,0-.288,1.571Z" transform="translate(-117.227 -135.143)" fill="#fff"/>
        <path id="Trazado_1274469" data-name="Trazado 1274469" d="M174.88,189.533a4.759,4.759,0,1,0,3.062,3.115l2-1.991a7.382,7.382,0,0,1-11.712,8.69,7.389,7.389,0,0,1,8.61-11.818Z" transform="translate(-143.691 -161.566)" fill="#fff"/>
        <path id="Trazado_1274470" data-name="Trazado 1274470" d="M214,140.67l-4.461,4.507-2.661-.59-4.251,4.243a3.3,3.3,0,0,1-.831,4.344,3.274,3.274,0,1,1-.233-5.383l4.253-4.254-.583-2.692,4.463-4.431a12.674,12.674,0,0,1,.691,2.523l.913-.858a.978.978,0,0,1,.963.039.855.855,0,0,1,.068.993l-.866.9Z" transform="translate(-170.099 -118.062)" fill="#fff"/>
        <path id="Trazado_1274471" data-name="Trazado 1274471" d="M103.942,115.526l-3.144-3.133a.854.854,0,0,1-.211-.949c.135-.276.8-.508,1.031-.278l2.746,2.718,4.778-5.907a.909.909,0,0,1,1-.161.826.826,0,0,1,.227.982l-5.409,6.688a.727.727,0,0,1-1.013.04" transform="translate(-86.996 -93.241)" fill="#fff"/>
      </g>
    </g>
  </g>
</svg>
