<svg xmlns="http://www.w3.org/2000/svg" xmlns:xlink="http://www.w3.org/1999/xlink" width="96" height="96" viewBox="0 0 96 96">
  <defs>
    <clipPath id="clip-path">
      <rect id="Rectángulo_454829" data-name="Rectángulo 454829" width="96" height="96" fill="#1e535a"/>
    </clipPath>
    <clipPath id="clip-path-2">
      <rect id="Rectángulo_460842" data-name="Rectángulo 460842" width="36" height="35.984" fill="#1e535a"/>
    </clipPath>
  </defs>
  <g id="Grupo_1211398" data-name="Grupo 1211398" transform="translate(-1481 -8562.5)">
    <g id="Grupo_1177591" data-name="Grupo 1177591" transform="translate(1481 8562.5)">
      <g id="Grupo_1177589" data-name="Grupo 1177589" transform="translate(0 0)">
        <g id="Grupo_1177587" data-name="Grupo 1177587" clip-path="url(#clip-path)">
          <path id="Trazado_997422" data-name="Trazado 997422" d="M92.081,42.491a44.136,44.136,0,0,0-9.97-22.967,5.076,5.076,0,0,0-7.142-6.838A44.071,44.071,0,0,0,52.151,3.77a5.077,5.077,0,0,0-9.861.2A44.132,44.132,0,0,0,20.4,13.329a5.079,5.079,0,0,0-7.048,7.1A44.1,44.1,0,0,0,4.112,42.448,5.08,5.08,0,0,0,3.99,52.4a44.082,44.082,0,0,0,8.949,22.468,5.078,5.078,0,0,0,6.9,7.17,44.128,44.128,0,0,0,22.412,9.8,5.078,5.078,0,0,0,9.949.2,44.091,44.091,0,0,0,22.985-9.08,5.077,5.077,0,0,0,7.107-6.874A44.147,44.147,0,0,0,92.2,52.349a5.078,5.078,0,0,0-.119-9.858M77.74,22.024a5.05,5.05,0,0,0,2.812-.851,41.913,41.913,0,0,1,9.25,21.3,5.086,5.086,0,0,0-3.246,2.351l-12.98-4.867c.01-.142.02-.286.02-.433a5.079,5.079,0,0,0-2.151-4.15l5.678-13.4a5.5,5.5,0,0,0,.616.041M75,21.216,69.354,34.523a5.026,5.026,0,0,0-5.594,3.23L40.279,32.344a4.941,4.941,0,0,0-.106-1.011l33.322-11.6A5.1,5.1,0,0,0,75,21.216M47.246,10.165a5.083,5.083,0,0,0,4.989-4.122,41.844,41.844,0,0,1,21.158,8.275,5.054,5.054,0,0,0-.735,2.625,5.335,5.335,0,0,0,.048.671L39.217,29.273a5.1,5.1,0,0,0-.92-.92l8.784-18.2c.056,0,.109.008.165.008M42.3,6.243A5.083,5.083,0,0,0,44.86,9.569L36.248,27.4a5.1,5.1,0,0,0-1.049-.109,5.045,5.045,0,0,0-2.9.91L22.1,19.678A5.052,5.052,0,0,0,21.923,15,41.877,41.877,0,0,1,42.3,6.243M10.041,46.332,31.153,35.442a5.064,5.064,0,0,0,4.006,2.014l7.236,23.129a5.166,5.166,0,0,0-1.12,1.239l-31.3-13.04a5.048,5.048,0,0,0,.187-1.348,5.107,5.107,0,0,0-.124-1.1m4.986-24.391a5.079,5.079,0,0,0,5.673-.484l10.079,8.417a5.068,5.068,0,0,0-.56,3.512L9.07,44.29A5.081,5.081,0,0,0,6.38,42.526a41.859,41.859,0,0,1,8.647-20.585m2.1,50.717a5.067,5.067,0,0,0-2.523.674A41.822,41.822,0,0,1,6.263,52.374,5.087,5.087,0,0,0,8.9,50.783l31.609,13.17a5.45,5.45,0,0,0-.041.611,5.081,5.081,0,0,0,.3,1.718L21.657,75.44a5.081,5.081,0,0,0-4.528-2.782M42.349,89.575a41.919,41.919,0,0,1-20.912-9.149,5.029,5.029,0,0,0,.775-2.686l0-.058L42,68.2A5.082,5.082,0,0,0,43.8,69.329l1.186,17.043a5.082,5.082,0,0,0-2.632,3.2m2.105-29.97-7.081-22.64a5.089,5.089,0,0,0,2.415-2.415L63.459,40a5.052,5.052,0,0,0,.808,2.311L48.032,60.13a5.019,5.019,0,0,0-3.577-.524m7.74,30.167a5.081,5.081,0,0,0-4.948-3.937l-.038,0L46.081,69.62a5.073,5.073,0,0,0,3.106-1.507L72.853,78.551c0,.046-.008.086-.008.132a5.057,5.057,0,0,0,.752,2.65,41.841,41.841,0,0,1-21.4,8.439M73.423,76.334,50.373,66.165a5.052,5.052,0,0,0-.666-4.52L65.893,43.877a5.052,5.052,0,0,0,2.622.735,5.594,5.594,0,0,0,.623-.041l6.05,29.836a5.071,5.071,0,0,0-1.766,1.928m7.292-1.9a5.051,5.051,0,0,0-3.377-.8L71.285,43.788a5.1,5.1,0,0,0,1.6-1.672L85.858,46.98a4.506,4.506,0,0,0-.023.456,5.08,5.08,0,0,0,4.084,4.981,41.876,41.876,0,0,1-9.2,22.017" transform="translate(0 0.001)" fill="#1e535a"/>
        </g>
      </g>
    </g>
    <g id="Elipse_13614" data-name="Elipse 13614" transform="translate(1497.965 8579.5)" fill="#d5f4f8" stroke="#1e535a" stroke-width="3">
      <ellipse cx="31.232" cy="31.233" rx="31.232" ry="31.233" stroke="none"/>
      <ellipse cx="31.232" cy="31.233" rx="29.732" ry="29.733" fill="none"/>
    </g>
    <g id="Grupo_1211423" data-name="Grupo 1211423" transform="translate(1510.965 8592.5)">
      <g id="Grupo_1211422" data-name="Grupo 1211422" clip-path="url(#clip-path-2)">
        <path id="Trazado_1274482" data-name="Trazado 1274482" d="M26.17,14.146l5.63,0a13.169,13.169,0,0,0-.927,2.539c-.362.026-.858.02-1.216.079a1.914,1.914,0,0,0-1.439,2.491l-2.7.011a.657.657,0,0,0-.6.657l0,5.088a.691.691,0,0,0,.6.7l6.681-.032c.435,0,.466-.829.427-1.212a12.614,12.614,0,0,0,2.894,2.527l-2.94.023a.615.615,0,0,0-.58.566l0,2.007H21.7L21.7,0H48.715l-.007,13.76a10.2,10.2,0,0,0-3.852-3.647l0-6.928a.661.661,0,0,0-.576-.606l-5.22,0c-.257,0-.64.227-.641.53L38.4,9.166a11.57,11.57,0,0,0-2.881,1.1h-9.3a.672.672,0,0,0-.683.643.693.693,0,0,0,.68.653l7.559,0-1.154,1.293-6.529.011a.655.655,0,0,0-.56.639.717.717,0,0,0,.628.642m3.978-10.29c.315,0,.592-.494.557-.721-.038-.244-.309-.563-.563-.562l-2.769.008a.687.687,0,0,0-.55.649c.012.222.349.632.594.631Zm5.095,0a.749.749,0,0,0,.608-.721.723.723,0,0,0-.771-.574l-2.731.047c-.214,0-.4.536-.348.734s.372.53.6.528Zm-.052,2.552a.739.739,0,0,0,.662-.57c.039-.218-.23-.709-.5-.709L26.143,5.12a.693.693,0,0,0-.592.7.706.706,0,0,0,.666.581ZM29,8.943c.3,0,.475-.614.378-.818a.843.843,0,0,0-.663-.442l-2.5.005A.647.647,0,1,0,26.2,8.981Zm6.469,0c.26,0,.461-.609.357-.8a.944.944,0,0,0-.626-.46l-3.9.01a.681.681,0,0,0-.593.733.711.711,0,0,0,.687.555Z" transform="translate(-19.143)" fill="#1e535a"/>
        <path id="Trazado_1274483" data-name="Trazado 1274483" d="M24.991,266.929H1.664a1.857,1.857,0,0,1-1.641-1.658L0,261.824H24.412v3.327a4.946,4.946,0,0,0,.58,1.778" transform="translate(0 -230.947)" fill="#1e535a"/>
        <path id="Trazado_1274484" data-name="Trazado 1274484" d="M142.3,114.688a5.786,5.786,0,1,1-5.786-5.786,5.786,5.786,0,0,1,5.786,5.786m-5.178,2.7.046-.875a2.333,2.333,0,0,0,1.184-1.181h.68a.64.64,0,0,0,.687-.693c-.027-.426-.368-.625-.83-.572a1.86,1.86,0,0,1-.561-.087,2.372,2.372,0,0,0-1.156-1.109l-.022-.671a.638.638,0,0,0-1.259-.206l-.065.887a1.991,1.991,0,0,0-1.134,1.165l-.638.015c-.4.009-.712.189-.753.574a.653.653,0,0,0,.624.686l.766.026a2.305,2.305,0,0,0,1.129,1.16l.038.677a.772.772,0,0,0,.511.7.648.648,0,0,0,.753-.5" transform="translate(-115.31 -96.059)" fill="#1e535a"/>
        <path id="Trazado_1274485" data-name="Trazado 1274485" d="M198.254,234.2l-.034-4.071a.655.655,0,0,0-.687-.612l-1.954,0,.054-1.461a12.7,12.7,0,0,0,3.332-1.39l2.2,2.188a2.356,2.356,0,0,0-.356.529.925.925,0,0,0,.231.635l1.056,1.063-.015,2.924a1.914,1.914,0,0,1-1.8,1.909,1.852,1.852,0,0,1-2.026-1.72" transform="translate(-172.515 -199.941)" fill="#1e535a"/>
        <path id="Trazado_1274486" data-name="Trazado 1274486" d="M256.512,236.834l-3.55-3.5,2.305-2.31,3.477,3.519a1.643,1.643,0,0,1-.041,2.157,1.576,1.576,0,0,1-2.191.135" transform="translate(-223.13 -203.778)" fill="#1e535a"/>
        <path id="Trazado_1274487" data-name="Trazado 1274487" d="M64.624,174.255a9.437,9.437,0,0,1,.436,3.864l-5.12,0,0-3.872Z" transform="translate(-52.871 -153.702)" fill="#1e535a"/>
        <path id="Trazado_1274488" data-name="Trazado 1274488" d="M176.827,38.038l0-.673a2.015,2.015,0,0,0-.75-1.684,2.063,2.063,0,0,0-1.827-.3l0-2.628,3.868-.013L178.1,38.4Z" transform="translate(-153.694 -28.875)" fill="#1e535a"/>
        <path id="Trazado_1274489" data-name="Trazado 1274489" d="M117.25,178.023l-.192,1.28a8.351,8.351,0,0,1-6.149-6.185l1.27-.167a7.149,7.149,0,0,0,5.071,5.073" transform="translate(-97.829 -152.554)" fill="#1e535a"/>
        <path id="Trazado_1274490" data-name="Trazado 1274490" d="M112.144,95.436l-1.292-.108a8.346,8.346,0,0,1,6.154-6.2l.218,1.273a7.087,7.087,0,0,0-5.08,5.035" transform="translate(-97.779 -78.617)" fill="#1e535a"/>
        <path id="Trazado_1274491" data-name="Trazado 1274491" d="M195.082,179.418l-.167-1.289a7.087,7.087,0,0,0,5.062-5.056l1.29.143a8.424,8.424,0,0,1-6.185,6.2" transform="translate(-171.929 -152.663)" fill="#1e535a"/>
        <path id="Trazado_1274492" data-name="Trazado 1274492" d="M199.986,95.327a7.092,7.092,0,0,0-5.058-5.063l.14-1.294a8.457,8.457,0,0,1,6.21,6.182Z" transform="translate(-171.94 -78.478)" fill="#1e535a"/>
        <path id="Trazado_1274493" data-name="Trazado 1274493" d="M125.153,241.239h-5.184l0-1.293h5.1Z" transform="translate(-105.817 -211.65)" fill="#1e535a"/>
        <path id="Trazado_1274494" data-name="Trazado 1274494" d="M175.522,221.119a.648.648,0,1,1-1.293.041l0-2.5a.731.731,0,0,1,.521-.694c.257-.054.747.168.749.455Z" transform="translate(-153.679 -192.258)" fill="#1e535a"/>
        <path id="Trazado_1274495" data-name="Trazado 1274495" d="M175.506,68.316a.645.645,0,1,1-1.281.151l-.011-2.6a.7.7,0,0,1,.63-.676.673.673,0,0,1,.659.665Z" transform="translate(-153.669 -57.503)" fill="#1e535a"/>
        <path id="Trazado_1274496" data-name="Trazado 1274496" d="M90.321,153.728l-2.583.014a.687.687,0,0,1-.679-.587.663.663,0,0,1,.612-.7l2.559-.01a.741.741,0,0,1,.686.511.666.666,0,0,1-.6.772" transform="translate(-76.789 -134.467)" fill="#1e535a"/>
        <path id="Trazado_1274497" data-name="Trazado 1274497" d="M243.12,153.769l-2.587.017a.661.661,0,0,1-.711-.579.645.645,0,0,1,.646-.714l2.629.006c.267,0,.562.362.582.584a.676.676,0,0,1-.56.686" transform="translate(-211.537 -134.509)" fill="#1e535a"/>
        <rect id="Rectángulo_460841" data-name="Rectángulo 460841" width="1.463" height="2.938" transform="translate(27.492 25.962) rotate(-45.374)" fill="#1e535a"/>
        <path id="Trazado_1274498" data-name="Trazado 1274498" d="M175.648,153.158a.641.641,0,1,1-.641-.641.641.641,0,0,1,.641.641" transform="translate(-153.803 -134.531)" fill="#1e535a"/>
      </g>
    </g>
  </g>
</svg>
