<svg xmlns="http://www.w3.org/2000/svg" xmlns:xlink="http://www.w3.org/1999/xlink" width="96" height="96" viewBox="0 0 96 96">
  <defs>
    <clipPath id="clip-path">
      <rect id="Rectángulo_454829" data-name="Rectángulo 454829" width="96" height="96" fill="#1e535a"/>
    </clipPath>
    <clipPath id="clip-path-2">
      <rect id="Rectángulo_460856" data-name="Rectángulo 460856" width="34" height="36.055" fill="#1e535a"/>
    </clipPath>
  </defs>
  <g id="Grupo_1211399" data-name="Grupo 1211399" transform="translate(-1481 -8562.5)">
    <g id="Grupo_1177591" data-name="Grupo 1177591" transform="translate(1481 8562.5)">
      <g id="Grupo_1177589" data-name="Grupo 1177589" transform="translate(0 0)">
        <g id="Grupo_1177587" data-name="Grupo 1177587" clip-path="url(#clip-path)">
          <path id="Trazado_997422" data-name="Trazado 997422" d="M92.081,42.491a44.136,44.136,0,0,0-9.97-22.967,5.076,5.076,0,0,0-7.142-6.838A44.071,44.071,0,0,0,52.151,3.77a5.077,5.077,0,0,0-9.861.2A44.132,44.132,0,0,0,20.4,13.329a5.079,5.079,0,0,0-7.048,7.1A44.1,44.1,0,0,0,4.112,42.448,5.08,5.08,0,0,0,3.99,52.4a44.082,44.082,0,0,0,8.949,22.468,5.078,5.078,0,0,0,6.9,7.17,44.128,44.128,0,0,0,22.412,9.8,5.078,5.078,0,0,0,9.949.2,44.091,44.091,0,0,0,22.985-9.08,5.077,5.077,0,0,0,7.107-6.874A44.147,44.147,0,0,0,92.2,52.349a5.078,5.078,0,0,0-.119-9.858M77.74,22.024a5.05,5.05,0,0,0,2.812-.851,41.913,41.913,0,0,1,9.25,21.3,5.086,5.086,0,0,0-3.246,2.351l-12.98-4.867c.01-.142.02-.286.02-.433a5.079,5.079,0,0,0-2.151-4.15l5.678-13.4a5.5,5.5,0,0,0,.616.041M75,21.216,69.354,34.523a5.026,5.026,0,0,0-5.594,3.23L40.279,32.344a4.941,4.941,0,0,0-.106-1.011l33.322-11.6A5.1,5.1,0,0,0,75,21.216M47.246,10.165a5.083,5.083,0,0,0,4.989-4.122,41.844,41.844,0,0,1,21.158,8.275,5.054,5.054,0,0,0-.735,2.625,5.335,5.335,0,0,0,.048.671L39.217,29.273a5.1,5.1,0,0,0-.92-.92l8.784-18.2c.056,0,.109.008.165.008M42.3,6.243A5.083,5.083,0,0,0,44.86,9.569L36.248,27.4a5.1,5.1,0,0,0-1.049-.109,5.045,5.045,0,0,0-2.9.91L22.1,19.678A5.052,5.052,0,0,0,21.923,15,41.877,41.877,0,0,1,42.3,6.243M10.041,46.332,31.153,35.442a5.064,5.064,0,0,0,4.006,2.014l7.236,23.129a5.166,5.166,0,0,0-1.12,1.239l-31.3-13.04a5.048,5.048,0,0,0,.187-1.348,5.107,5.107,0,0,0-.124-1.1m4.986-24.391a5.079,5.079,0,0,0,5.673-.484l10.079,8.417a5.068,5.068,0,0,0-.56,3.512L9.07,44.29A5.081,5.081,0,0,0,6.38,42.526a41.859,41.859,0,0,1,8.647-20.585m2.1,50.717a5.067,5.067,0,0,0-2.523.674A41.822,41.822,0,0,1,6.263,52.374,5.087,5.087,0,0,0,8.9,50.783l31.609,13.17a5.45,5.45,0,0,0-.041.611,5.081,5.081,0,0,0,.3,1.718L21.657,75.44a5.081,5.081,0,0,0-4.528-2.782M42.349,89.575a41.919,41.919,0,0,1-20.912-9.149,5.029,5.029,0,0,0,.775-2.686l0-.058L42,68.2A5.082,5.082,0,0,0,43.8,69.329l1.186,17.043a5.082,5.082,0,0,0-2.632,3.2m2.105-29.97-7.081-22.64a5.089,5.089,0,0,0,2.415-2.415L63.459,40a5.052,5.052,0,0,0,.808,2.311L48.032,60.13a5.019,5.019,0,0,0-3.577-.524m7.74,30.167a5.081,5.081,0,0,0-4.948-3.937l-.038,0L46.081,69.62a5.073,5.073,0,0,0,3.106-1.507L72.853,78.551c0,.046-.008.086-.008.132a5.057,5.057,0,0,0,.752,2.65,41.841,41.841,0,0,1-21.4,8.439M73.423,76.334,50.373,66.165a5.052,5.052,0,0,0-.666-4.52L65.893,43.877a5.052,5.052,0,0,0,2.622.735,5.594,5.594,0,0,0,.623-.041l6.05,29.836a5.071,5.071,0,0,0-1.766,1.928m7.292-1.9a5.051,5.051,0,0,0-3.377-.8L71.285,43.788a5.1,5.1,0,0,0,1.6-1.672L85.858,46.98a4.506,4.506,0,0,0-.023.456,5.08,5.08,0,0,0,4.084,4.981,41.876,41.876,0,0,1-9.2,22.017" transform="translate(0 0.001)" fill="#1e535a"/>
        </g>
      </g>
    </g>
    <g id="Elipse_13614" data-name="Elipse 13614" transform="translate(1497.965 8579.5)" fill="#d5f4f8" stroke="#1e535a" stroke-width="3">
      <ellipse cx="31.232" cy="31.233" rx="31.232" ry="31.233" stroke="none"/>
      <ellipse cx="31.232" cy="31.233" rx="29.732" ry="29.733" fill="none"/>
    </g>
    <g id="Grupo_1211431" data-name="Grupo 1211431" transform="translate(1511.965 8592.5)">
      <g id="Grupo_1211430" data-name="Grupo 1211430" clip-path="url(#clip-path-2)">
        <path id="Trazado_1274516" data-name="Trazado 1274516" d="M15.074,101.061A3.108,3.108,0,0,0,13.641,97.7a3.054,3.054,0,0,0-4.231,4.091l1.2,1.274-4.694,2.11L.142,92.274A1.2,1.2,0,0,1,.076,91.3a1.344,1.344,0,0,1,.8-.544l1.416,4.4a1.57,1.57,0,0,0,2.28.026,2.812,2.812,0,0,0,.664-2.251l-.515-3.227a4.178,4.178,0,0,0,1.348-1.29l7.115-3.192a.461.461,0,0,1,.541.161l2.243,5.106a.689.689,0,0,0,.6.258.775.775,0,0,0,.449-.446,2.214,2.214,0,0,1,4.265,1.166,2.041,2.041,0,0,1-1.186,1.384c-1.155.44-2.2-.139-2.537.423a.856.856,0,0,0-.012.67l2.021,4.506a.556.556,0,0,1-.288.728Z" transform="translate(0 -73.797)" fill="#1e535a"/>
        <path id="Trazado_1274517" data-name="Trazado 1274517" d="M121.834,38.784l.507,3.107-.966.523-7.961,3.328-1.992-4.464a3.074,3.074,0,0,0,3.673-2.584,3.033,3.033,0,0,0-1.929-3.411,3.065,3.065,0,0,0-3.781,1.436l-2.114-4.694L112.7,29.8a.669.669,0,0,0,.4-.613.693.693,0,0,0-.458-.535,2.206,2.206,0,0,1-1.5-2.332,2.233,2.233,0,0,1,1.872-1.959,2.161,2.161,0,0,1,2.387,1.415c.32.983-.143,1.924.19,2.331a.8.8,0,0,0,.671.19l5.172-2.154,5.39,12.892a1,1,0,0,1-.033.958,1.22,1.22,0,0,1-.748.421l-1.2-3.721a1.12,1.12,0,0,0-1.12-.74c-1.456,0-2.1,1.464-1.881,2.831" transform="translate(-92.921 -21.078)" fill="#1e535a"/>
        <path id="Trazado_1274518" data-name="Trazado 1274518" d="M162.752,126.582l6.009-2.512-.347.713.78.365a3.532,3.532,0,0,1,2.119-2.282l-.641-3.985a2.422,2.422,0,0,1,.248-1.124c.163-.394.844-.686,1.148-.393l1.853,5.785-1.216,4.455a4.167,4.167,0,0,1-.7,1.137h-8.294a3.242,3.242,0,0,1-.959-2.16" transform="translate(-140.981 -101.561)" fill="#1e535a"/>
        <rect id="Rectángulo_460846" data-name="Rectángulo 460846" width="11.208" height="4.869" transform="translate(1.636 0.819) rotate(-0.164)" fill="#1e535a"/>
        <rect id="Rectángulo_460847" data-name="Rectángulo 460847" width="11.211" height="4.708" transform="translate(21.268 31.106) rotate(-0.405)" fill="#1e535a"/>
        <path id="Trazado_1274519" data-name="Trazado 1274519" d="M12.069,81.382a2.106,2.106,0,0,1-.283,1.444c-.189.3-.8.57-1.071.281L8.845,77.34l1.2-4.428a4.412,4.412,0,0,1,.624-1.059l8.443-.065a3.111,3.111,0,0,1,.767,1.369l-6.7,3a3.159,3.159,0,0,1-1.712,1.451Z" transform="translate(-7.662 -62.185)" fill="#1e535a"/>
        <rect id="Rectángulo_460848" data-name="Rectángulo 460848" width="9.403" height="2.3" transform="translate(2.595 6.527) rotate(-0.33)" fill="#1e535a"/>
        <rect id="Rectángulo_460849" data-name="Rectángulo 460849" width="9.422" height="2.237" transform="translate(22.115 28.024) rotate(-0.226)" fill="#1e535a"/>
        <rect id="Rectángulo_460850" data-name="Rectángulo 460850" width="2.122" height="0.838" transform="matrix(0.026, -1, 1, 0.026, 5.177, 36.033)" fill="#1e535a"/>
        <rect id="Rectángulo_460851" data-name="Rectángulo 460851" width="2.138" height="0.86" transform="matrix(0.46, -0.888, 0.888, 0.46, 31.464, 2.985)" fill="#1e535a"/>
        <rect id="Rectángulo_460852" data-name="Rectángulo 460852" width="0.863" height="2.124" transform="translate(25.454 1.492) rotate(-27.358)" fill="#1e535a"/>
        <rect id="Rectángulo_460853" data-name="Rectángulo 460853" width="2.152" height="0.862" transform="translate(1.727 34.571) rotate(-62.628)" fill="#1e535a"/>
        <rect id="Rectángulo_460854" data-name="Rectángulo 460854" width="0.871" height="2.124" transform="translate(7.739 33.076) rotate(-26.925)" fill="#1e535a"/>
        <rect id="Rectángulo_460855" data-name="Rectángulo 460855" width="2.103" height="0.846" transform="matrix(0.023, -1, 1, 0.023, 28.888, 2.103)" fill="#1e535a"/>
      </g>
    </g>
  </g>
</svg>
