<svg xmlns="http://www.w3.org/2000/svg" xmlns:xlink="http://www.w3.org/1999/xlink" width="84" height="84" viewBox="0 0 84 84">
  <defs>
    <clipPath id="clip-path">
      <rect id="Rectángulo_460212" data-name="Rectángulo 460212" width="61.5" height="61.573" fill="#1e535a"/>
    </clipPath>
  </defs>
  <g id="Grupo_1210236" data-name="Grupo 1210236" transform="translate(0.578 -0.03)">
    <g id="Grupo_1119665" data-name="Grupo 1119665" transform="translate(-0.578 0.03)">
      <rect id="Rectángulo_402006" data-name="Rectángulo 402006" width="84" height="84" rx="5" fill="#a4e7f0"/>
    </g>
    <g id="Grupo_1210261" data-name="Grupo 1210261" transform="translate(11.422 11.03)">
      <g id="Grupo_1210260" data-name="Grupo 1210260" clip-path="url(#clip-path)">
        <path id="Trazado_1272123" data-name="Trazado 1272123" d="M29.752,25.317,18.14,20.511l-.26-4.639c-5.047-.988-8.219-5.734-6.41-10.743a7.9,7.9,0,1,1,8.494,10.58l.075,3.447,11.334,4.812a1.911,1.911,0,0,1,.375.532v6.259l6.711-4.446.184-.36L38.634,19.7c-7.719-1-9.571-11.649-2.355-14.979A7.9,7.9,0,1,1,40.646,19.7l-.179,7.667-8.718,5.84V44.184l20.6-6.342.065-3.255a7.958,7.958,0,0,1-6.123-11.149c2.54-5.861,10.9-6.211,14.089-.717a7.957,7.957,0,0,1-5.944,11.855c-.149.151.112,3.6-.012,4.252a.722.722,0,0,1-.362.545L31.748,46.18v7.257h4.445c1.059,0,1.831,1.978,1.542,2.9H61.5v2H37.735a2.473,2.473,0,0,1-1.8,3,59.582,59.582,0,0,1-9.542.088c-1.979-.147-2.822-1.075-2.623-3.092H0v-2H23.765c-.289-.925.483-2.9,1.542-2.9h4.445V49.354l-22.5-7.07L7,35.647C1.352,34.576-1.791,28.7,1.239,23.563a7.952,7.952,0,0,1,12.823-.969A7.87,7.87,0,0,1,9.079,35.484L9.089,40.9l20.663,6.186ZM22.86,12.255c4.824-4.452,0-12.193-6.166-9.883a5.934,5.934,0,0,0-1.82,9.883c-.11-1.637.012-3.866,2-4.175a2.769,2.769,0,0,1,3.44-4.254c1.587.952,1.48,2.8.733,4.254,1.9.5,1.92,2.547,1.816,4.175M19.384,5.57a.788.788,0,0,0-1.015,1.2c.78.8,1.711-.775,1.015-1.2M43.54,16.246c4-3.253,1.686-9.921-3.379-10.318a5.92,5.92,0,0,0-4.424,10.318c-.087-1.7-.19-3.715,1.816-4.175-.737-1.325-.957-3.171.483-4.141a2.782,2.782,0,0,1,4.4,2.219,6.68,6.68,0,0,1-.711,1.922c.568-.225,1.814,1.26,1.814,1.544ZM39.493,9.371c-.74.184-.767,1.829.479,1.407.858-.29.247-1.588-.479-1.407m-18.63,4.154V10.35c0-.673-3.991-.673-3.991,0v3.175a6.124,6.124,0,0,0,3.991,0m20.681,3.991V14.16l-.272-.272H38.007l-.272.272v3.356a6.391,6.391,0,0,0,3.81,0M57.511,30.941c4.693-4.3.16-11.821-5.948-9.847-4.122,1.332-5.488,7.092-2.038,9.847-.193-1.966.129-3.183,1.8-4.285A2.751,2.751,0,0,1,55.4,22.985c1.22,1.141.82,2.6.3,3.958,1.857.476,1.916,2.383,1.811,4M11.975,32.029a5.922,5.922,0,1,0-7.986,0c-.11-1.637.013-3.866,2-4.175-3.32-5.811,7.011-6.235,4.162-.1,1.874.819,1.956,2.435,1.827,4.275m41.309-7.775a.738.738,0,0,0,.467,1.4.738.738,0,0,0-.467-1.4M8.5,25.344a.788.788,0,0,0-1.015,1.2c.78.8,1.711-.775,1.015-1.2m46.832,3.42H51.7c.059.178-.181.394-.181.454v3.175c1.248.175,2.9.514,3.991-.272v-2.9c0-.06-.24-.275-.181-.454M9.978,33.3V30.124c0-.673-3.991-.673-3.991,0V33.3a6.124,6.124,0,0,0,3.991,0M35.739,55.432H25.761v3.991h9.978Z" transform="translate(0 0)" fill="#1e535a"/>
      </g>
    </g>
  </g>
</svg>
