<svg xmlns="http://www.w3.org/2000/svg" xmlns:xlink="http://www.w3.org/1999/xlink" width="396" height="237.288" viewBox="0 0 396 237.288">
  <defs>
    <clipPath id="clip-path">
      <rect id="Rectángulo_460214" data-name="Rectángulo 460214" width="302.759" height="225.955" fill="none"/>
    </clipPath>
  </defs>
  <g id="Grupo_1210264" data-name="Grupo 1210264" transform="translate(-1017.711 -1846)">
    <path id="Trazado_1272217" data-name="Trazado 1272217" d="M198-3.889C321-81.652,396,43.692,396,102.387S381,207.511,198,208.663,0,161.081,0,102.387,75,73.874,198-3.889Z" transform="translate(1017.711 1874.605)" fill="#ffe79e"/>
    <g id="Grupo_1210263" data-name="Grupo 1210263" transform="translate(1061.952 1857.333)">
      <g id="Grupo_1210262" data-name="Grupo 1210262" clip-path="url(#clip-path)">
        <path id="Trazado_1272124" data-name="Trazado 1272124" d="M155.2,250.355H29.6a4.942,4.942,0,0,1-4.9-4.27L1.921,80,.047,66.345a4.945,4.945,0,0,1,4.9-5.615H130.553A4.945,4.945,0,0,1,135.45,65L137.506,80,160.1,244.74a4.945,4.945,0,0,1-4.9,5.615" transform="translate(0 -39.457)" fill="#f2f0f7"/>
        <path id="Trazado_1272125" data-name="Trazado 1272125" d="M45.01,187.184l-3.727-30.223a3.072,3.072,0,0,1,3.049-3.448H152.514a3.072,3.072,0,0,1,3.049,2.7l3.728,30.223a3.072,3.072,0,0,1-3.049,3.448H48.059a3.072,3.072,0,0,1-3.049-2.7" transform="translate(-26.807 -99.738)" fill="#fff"/>
        <path id="Trazado_1272126" data-name="Trazado 1272126" d="M137.506,80H1.921L.047,66.345a4.945,4.945,0,0,1,4.9-5.615H130.553A4.945,4.945,0,0,1,135.45,65Z" transform="translate(0 -39.457)" fill="#6b6b82"/>
        <path id="Trazado_1272127" data-name="Trazado 1272127" d="M592.825,277.806a48.061,48.061,0,0,0-15.935-6.6V259.852H556.37V271.2a48.109,48.109,0,0,0-15.935,6.6l-8.03-8.028-14.51,14.51,8.031,8.03a48.126,48.126,0,0,0-6.606,15.935H507.968v20.52H519.32a48.01,48.01,0,0,0,6.605,15.934l-8.031,8.031,14.51,14.51,8.028-8.028a48.11,48.11,0,0,0,15.937,6.6v11.35h20.52v-11.35a48.074,48.074,0,0,0,15.937-6.605l8.028,8.028,14.51-14.51-8.031-8.031a48.018,48.018,0,0,0,6.606-15.934h11.352v-20.52H613.939a48.125,48.125,0,0,0-6.605-15.935l8.031-8.03-14.51-14.51ZM580.435,339.2c-23.673,13.354-47.851-10.829-34.489-34.495a18.152,18.152,0,0,1,6.876-6.876c23.665-13.362,47.849,10.816,34.5,34.489a18.143,18.143,0,0,1-6.882,6.882" transform="translate(-330.029 -168.827)" fill="#fff7df"/>
        <path id="Trazado_1272128" data-name="Trazado 1272128" d="M515.322,18.027a31.655,31.655,0,0,0-10.495-4.349V6.2H491.313v7.476a31.692,31.692,0,0,0-10.495,4.349L475.53,12.74,465.974,22.3l5.289,5.289a31.691,31.691,0,0,0-4.35,10.495h-7.476V51.594h7.476a31.627,31.627,0,0,0,4.35,10.495l-5.289,5.289,9.556,9.556,5.287-5.287a31.7,31.7,0,0,0,10.5,4.35v7.475h13.514V76a31.669,31.669,0,0,0,10.5-4.35l5.288,5.287,9.556-9.556-5.289-5.289a31.627,31.627,0,0,0,4.35-10.495H536.7V38.079h-7.476a31.692,31.692,0,0,0-4.35-10.495l5.289-5.289-9.556-9.556Zm-8.159,40.434c-15.591,8.8-31.515-7.132-22.715-22.718a11.95,11.95,0,0,1,4.528-4.528c15.586-8.8,31.514,7.124,22.718,22.715a11.946,11.946,0,0,1-4.532,4.532" transform="translate(-298.498 -4.029)" fill="#fff7df"/>
        <path id="Trazado_1272129" data-name="Trazado 1272129" d="M222.929,302.553a1.024,1.024,0,0,0-1.3-.672c-1.64.55-4.916,1.229-6.477-1.383-2.312-3.878,2.034-5.888,4.053-6.584a1.028,1.028,0,0,0,.651-1.272l-3.238-10.6a1.027,1.027,0,0,1,.68-1.282l28.608-8.805a1.027,1.027,0,0,1,1.284.68l8.805,28.606a1.027,1.027,0,0,1-.68,1.284l-8.174,2.516a1.024,1.024,0,0,0-.719,1.091c.221,1.982.341,6.909-3.691,8.15-3.941,1.213-5.98-2.895-6.7-4.8a1.03,1.03,0,0,0-1.266-.627l-8.054,2.479a1.028,1.028,0,0,1-1.284-.68Z" transform="translate(-139.354 -176.66)" fill="#ffd453"/>
        <path id="Trazado_1272130" data-name="Trazado 1272130" d="M266.454,401.09l-5.343-6.575a1.028,1.028,0,0,1,.15-1.445l6.54-5.314a1.03,1.03,0,0,1,1.409.107c1.38,1.5,4.809,4.548,8.009,1.948,3.275-2.66,1.319-7.184.372-8.939a1.024,1.024,0,0,1,.258-1.281l6.637-5.393a1.027,1.027,0,0,1,1.445.149l18.875,23.228a1.028,1.028,0,0,1-.15,1.445l-23.224,18.871a1.028,1.028,0,0,1-1.447-.151l-6.967-8.611a1.028,1.028,0,0,1,.127-1.423c1.611-1.4,4.888-4.893,1.292-7.625-2.423-1.839-5.206.018-6.521,1.144a1.024,1.024,0,0,1-1.462-.135" transform="translate(-169.495 -242.968)" fill="#ffb851"/>
        <path id="Trazado_1272131" data-name="Trazado 1272131" d="M163.1,453.71,154.3,425.1a1.027,1.027,0,0,1,.68-1.284l8.177-2.517a1.024,1.024,0,0,0,.719-1.091c-.222-1.981-.342-6.9,3.693-8.146,3.938-1.212,5.978,2.893,6.7,4.8a1.03,1.03,0,0,0,1.267.627l8.054-2.479a1.027,1.027,0,0,1,1.284.68l2.492,8.1a1.024,1.024,0,0,0,1.306.672c1.641-.551,4.916-1.232,6.475,1.381,2.313,3.88-2.033,5.891-4.052,6.587a1.028,1.028,0,0,0-.651,1.272l3.237,10.6a1.027,1.027,0,0,1-.68,1.282l-28.608,8.805a1.027,1.027,0,0,1-1.284-.68" transform="translate(-100.217 -267.578)" fill="#69d7e5"/>
        <path id="Trazado_1272132" data-name="Trazado 1272132" d="M118.877,346.56l-3.2-29.758a1.028,1.028,0,0,1,.911-1.132l29.753-3.2a1.027,1.027,0,0,1,1.132.914l1.162,11.019a1.027,1.027,0,0,1-.88,1.125c-2.114.3-6.764,1.446-5.232,5.692,1.035,2.86,4.377,2.818,6.093,2.591a1.025,1.025,0,0,1,1.155.908l.182,1.689.728,6.731a1.027,1.027,0,0,1-.912,1.132l-8.378.9a1.03,1.03,0,0,1-1.124-.856c-.342-2.01-1.563-6.429-5.66-5.988-4.2.452-5.016,5.308-5.175,7.295a1.023,1.023,0,0,1-.914.934l-8.507.915a1.027,1.027,0,0,1-1.131-.911" transform="translate(-75.151 -203.008)" fill="#6cb9ff"/>
        <path id="Trazado_1272133" data-name="Trazado 1272133" d="M399.408,630.552c.089-.935.111-5.784-1.207-7.812h-6.873c-2.389,3.535-15.227,6.115-12.632,7.812Z" transform="translate(-245.817 -404.597)" fill="#3b3638"/>
        <path id="Trazado_1272134" data-name="Trazado 1272134" d="M484.763,630.552c.089-.935.111-5.784-1.207-7.812h-6.873c-2.389,3.535-15.227,6.115-12.632,7.812Z" transform="translate(-301.272 -404.597)" fill="#3b3638"/>
        <path id="Trazado_1272135" data-name="Trazado 1272135" d="M389.209,275.344s3.013,38.992,2.29,56.742a9.5,9.5,0,0,0,.144,2.09c2.555,14.02,3.3,63.884,3.3,63.884,3.806.916,9.331,1.086,12.543,0,0,0,6.846-35.451,4.595-56.942s4.782-38.029,2.266-66.037Z" transform="translate(-252.871 -178.721)" fill="#b6b6ce"/>
        <path id="Trazado_1272136" data-name="Trazado 1272136" d="M415.378,270.391s13.558,53.344,14.832,64.813c4.261,13.051,10.051,57.932,10.051,57.932A27.573,27.573,0,0,0,453,392.152s4.338-25.09.093-45.759a330.6,330.6,0,0,1-6.343-50.484c-.381-7.853.371-13.769-3.459-28.542Z" transform="translate(-269.873 -173.71)" fill="#b6b6ce"/>
        <path id="Trazado_1272137" data-name="Trazado 1272137" d="M429.66,358.778a.175.175,0,0,1-.171-.137c-2.235-10.062-8.666-36.332-11.546-37.051a.175.175,0,0,1,.085-.34c3.679.919,11.474,35.83,11.8,37.316a.175.175,0,0,1-.133.209.177.177,0,0,1-.038,0" transform="translate(-271.453 -208.714)" fill="#3b3638"/>
        <path id="Trazado_1272138" data-name="Trazado 1272138" d="M335.213,125.444,351.6,146.439l.443,22.887s21.714,7.419,43.541,0c0,0-.421-31.4-.73-48.665a16.537,16.537,0,0,0-10.1-14.938l-1.45-.613-2.143-.906h-.007l-14.779.319-1.77.492-6.374,1.772c-3.461.962-5.3,2.6-8.914,6Z" transform="translate(-217.789 -67.701)" fill="#6b6b82"/>
        <path id="Trazado_1272139" data-name="Trazado 1272139" d="M434.111,101.913c-5.033,2.091-10.662,3.756-14.046,3.208a7.161,7.161,0,0,1-4.653-3.3l1.77-.492L431.961,101h0Z" transform="translate(-269.895 -65.623)" fill="#fff"/>
        <path id="Trazado_1272140" data-name="Trazado 1272140" d="M420.465,77.855s.621,2.154,4.425,2.154,10.355-2.473,10.355-2.473c-2.793-3.97-2.387-12.654-2.387-12.654H421.811Z" transform="translate(-273.178 -42.154)" fill="#ba6d50"/>
        <path id="Trazado_1272141" data-name="Trazado 1272141" d="M399.89,32.512s-5.323-1.4-1.15-6.087c4.061-4.564,1.15,6.087,1.15,6.087" transform="translate(-258.025 -16.43)" fill="#3b3638"/>
        <path id="Trazado_1272142" data-name="Trazado 1272142" d="M401.292,33.162c-.137,7.569,2.177,13.149,7.224,13.619,6.089.567,12.827-5.686,12.964-13.255s-4.306-11.9-9.881-12-10.17,4.063-10.307,11.632" transform="translate(-260.718 -13.987)" fill="#ba6d50"/>
        <path id="Trazado_1272143" data-name="Trazado 1272143" d="M451.18,31.043s5.8-10.274,3.316-14.545-7.912,6.016-7.912,6.016-.864.882-.7,3.612c.116,1.917,1.746,3.162,3.374,3.918.569.264,1.92,1,1.92,1" transform="translate(-289.68 -10.045)" fill="#3b3638"/>
        <path id="Trazado_1272144" data-name="Trazado 1272144" d="M451.309,54.23c-.536,1.755.066,3.493,1.345,3.884s2.749-.716,3.285-2.47-.067-3.493-1.345-3.884-2.749.716-3.285,2.47" transform="translate(-293.09 -33.578)" fill="#ba6d50"/>
        <path id="Trazado_1272145" data-name="Trazado 1272145" d="M433.539,48.442c-.1.527-1.123.774-2.282.552s-2.017-.83-1.916-1.356,1.122-.774,2.282-.552,2.017.83,1.916,1.356" transform="translate(-278.939 -30.539)" fill="#3b3638"/>
        <path id="Trazado_1272146" data-name="Trazado 1272146" d="M431.454,56.686c-.126.659-.57,1.127-.992,1.046s-.661-.68-.535-1.339.57-1.127.992-1.046.661.68.535,1.339" transform="translate(-279.304 -35.953)" fill="#3b3638"/>
        <path id="Trazado_1272147" data-name="Trazado 1272147" d="M428.59,55.575c.358-1.439,1.7-1.792,2.625-.6a2.991,2.991,0,0,1,.525.92.085.085,0,0,1-.053.109.087.087,0,0,1-.09-.022c-.525-.436-1.088-1.207-1.8-1.136a2.639,2.639,0,0,0-1.055.8.086.086,0,0,1-.15-.074" transform="translate(-278.455 -35.251)" fill="#3b3638"/>
        <path id="Trazado_1272148" data-name="Trazado 1272148" d="M407.655,43.11c-.1.527-1.123.774-2.282.552s-2.017-.829-1.917-1.356,1.123-.774,2.282-.552c1.654.317,1.953,1.165,1.916,1.356" transform="translate(-262.123 -27.075)" fill="#3b3638"/>
        <path id="Trazado_1272149" data-name="Trazado 1272149" d="M406.032,51.815c-.126.659-.57,1.127-.992,1.046s-.661-.68-.535-1.339.57-1.127.992-1.046.661.68.535,1.339" transform="translate(-262.787 -32.789)" fill="#3b3638"/>
        <path id="Trazado_1272150" data-name="Trazado 1272150" d="M403.168,50.7c.358-1.439,1.7-1.792,2.625-.6a3,3,0,0,1,.525.92.085.085,0,0,1-.053.109.087.087,0,0,1-.09-.022c-.525-.436-1.088-1.207-1.8-1.136a2.641,2.641,0,0,0-1.054.8.086.086,0,0,1-.15-.074" transform="translate(-261.938 -32.086)" fill="#3b3638"/>
        <path id="Trazado_1272151" data-name="Trazado 1272151" d="M416.477,74.731a2.867,2.867,0,0,1-3.237-.016,3.34,3.34,0,0,0-.544-.254.123.123,0,0,0-.156.075,2.185,2.185,0,0,0,3.782.882,1.848,1.848,0,0,0,.332-.548.117.117,0,0,0-.068-.152.122.122,0,0,0-.109.012" transform="translate(-268.028 -48.374)" fill="#91563f"/>
        <path id="Trazado_1272152" data-name="Trazado 1272152" d="M416.634,51.914l-1.713,5.144c-.445,1.01,2.143,1.41,2.492.39.067-.2-.572-5.346-.556-5.523-.009-.111-.191-.12-.223-.011" transform="translate(-269.543 -33.678)" fill="#91563f"/>
        <path id="Trazado_1272153" data-name="Trazado 1272153" d="M410.037,7.657c.827,2.8-1.461,5.947-5.11,7.024s-7.278-.321-8.105-3.123,1.461-5.947,5.11-7.024,7.279.321,8.106,3.123" transform="translate(-257.707 -2.71)" fill="#3b3638"/>
        <path id="Trazado_1272154" data-name="Trazado 1272154" d="M435.32,7.126c-.88,2.384-4.328,3.306-7.7,2.061S422.226,5,423.107,2.615s4.328-3.306,7.7-2.06,5.393,4.187,4.513,6.571" transform="translate(-274.76 0)" fill="#3b3638"/>
        <path id="Trazado_1272155" data-name="Trazado 1272155" d="M438.355,14.513c1.1,1.883-3.175,4.47-7.537,6.572s-8.666,2.215-9.612.25,1.822-5.261,6.184-7.363,9.336-2.252,10.965.541" transform="translate(-273.539 -8.059)" fill="#3b3638"/>
        <path id="Trazado_1272156" data-name="Trazado 1272156" d="M426.233,87.663a.175.175,0,0,1-.026-.348,13.42,13.42,0,0,0,6.072-2.806.175.175,0,0,1,.232.263,13.51,13.51,0,0,1-6.252,2.889l-.026,0" transform="translate(-276.812 -54.877)" fill="#91563f"/>
        <path id="Trazado_1272157" data-name="Trazado 1272157" d="M618.508,630.552c.089-.935.111-5.784-1.207-7.812h-6.873c-2.389,3.535-15.227,6.115-12.632,7.812Z" transform="translate(-388.167 -404.597)" fill="#3b3638"/>
        <path id="Trazado_1272158" data-name="Trazado 1272158" d="M680.443,630.549H659.731c-.577-.377-.391-.8.273-1.265,2.32-1.626,10.5-3.8,12.361-6.548h6.873a10.013,10.013,0,0,1,1.1,4.061,23.058,23.058,0,0,1,.1,3.752" transform="translate(-428.407 -404.594)" fill="#3b3638"/>
        <path id="Trazado_1272159" data-name="Trazado 1272159" d="M621.069,277.325s-1.258,45.571.484,61.817c1.216,11.337,3.933,57.722,3.933,57.722a8.225,8.225,0,0,0,6.873,0s9.078-34.255,6.826-55.746,4.781-38.029,2.265-66.038Z" transform="translate(-403.226 -178.721)" fill="#6b6b82"/>
        <path id="Trazado_1272160" data-name="Trazado 1272160" d="M634.477,276.276s9.408,54.23,9.794,65.763c3.243,13.341,11.91,55.154,11.91,55.154a9.57,9.57,0,0,0,6.873,0s5.814-21.3,3.174-42.236a330.645,330.645,0,0,1-2.435-50.823c.225-7.859-1.326-15.663-7.022-28.546Z" transform="translate(-412.223 -179.051)" fill="#6b6b82"/>
        <path id="Trazado_1272161" data-name="Trazado 1272161" d="M626.206,189.4c-21.827,7.416-39.492,0-39.492,0V166.983l-11.644-9.178a35.186,35.186,0,0,0,4.225-9.931c.147-.725-.007-1.219.21-1.993,1.391-4.932,2.879-11.185,5.507-14.968,2.522-3.622,6.494-4.4,10.74-5.612l.788-.224,1.808-.518,14.782-.319,2.238.942,1.223.518.228.095c6.025,2.543,8.743,4.817,8.859,11.357.063,3.415.119,7.524.175,11.917.007.7.014,1.4.025,2.112.2,17.434.329,38.217.329,38.217" transform="translate(-373.626 -80.719)" fill="#b6b6ce"/>
        <path id="Trazado_1272162" data-name="Trazado 1272162" d="M579.293,191.714l-4.227,9.93,8.775,6.068s1.014-14.182,1.169-15.264Z" transform="translate(-373.623 -124.557)" fill="#f59976"/>
        <path id="Trazado_1272163" data-name="Trazado 1272163" d="M656.411,125.7c-5.444,1.548-12.94,3.457-15.616,3.044a5.253,5.253,0,0,1-4.435-3.668l1.808-.518,14.782-.319,2.238.942Z" transform="translate(-413.446 -80.719)" fill="#fff"/>
        <path id="Trazado_1272164" data-name="Trazado 1272164" d="M631.062,60.949s10.486-1.175,14.373-5.6c0,0-4.249-4.369-4.61-7.654s-5.493-20.912-14.86-17.387-9.909-2.079-12.079,10.577-2.8,19.255-2.8,19.255,10.772,3.111,19.978.814" transform="translate(-397.024 -19.387)" fill="#97614c"/>
        <path id="Trazado_1272165" data-name="Trazado 1272165" d="M641.524,101.088s.621,2.154,4.425,2.154,10.355-2.473,10.355-2.473c-4.081-3.4-2.387-12.654-2.387-12.654H642.87c.225,5.29.864,11.173-1.346,12.973" transform="translate(-416.801 -57.249)" fill="#f59976"/>
        <path id="Trazado_1272166" data-name="Trazado 1272166" d="M621.89,51.953c-.137,7.569,2.177,13.149,7.224,13.619,6.089.567,12.827-5.686,12.964-13.255s-4.521-14.042-10.1-14.143-9.956,6.21-10.093,13.779" transform="translate(-404.041 -24.801)" fill="#f59976"/>
        <path id="Trazado_1272167" data-name="Trazado 1272167" d="M668.459,77.462c-.535,1.755.067,3.493,1.345,3.884s2.749-.716,3.285-2.47-.066-3.493-1.345-3.884-2.749.716-3.285,2.47" transform="translate(-434.174 -48.672)" fill="#f59976"/>
        <path id="Trazado_1272168" data-name="Trazado 1272168" d="M654.474,70.012c-.1.527-1.123.774-2.282.552s-2.017-.829-1.916-1.356,1.122-.774,2.282-.552,2.017.829,1.916,1.356" transform="translate(-422.482 -44.553)" fill="#97614c"/>
        <path id="Trazado_1272169" data-name="Trazado 1272169" d="M652.851,78.717c-.126.659-.57,1.128-.992,1.047s-.661-.68-.535-1.339.57-1.127.992-1.046.661.68.535,1.338" transform="translate(-423.147 -50.267)" fill="#3b3638"/>
        <path id="Trazado_1272170" data-name="Trazado 1272170" d="M649.987,77.606c.358-1.439,1.7-1.792,2.625-.6a3,3,0,0,1,.525.92.086.086,0,0,1-.143.087c-.525-.436-1.088-1.207-1.8-1.136a2.639,2.639,0,0,0-1.055.8.086.086,0,0,1-.15-.074" transform="translate(-422.297 -49.565)" fill="#3b3638"/>
        <path id="Trazado_1272171" data-name="Trazado 1272171" d="M628.715,66.343c-.1.527-1.123.774-2.282.552s-2.017-.83-1.916-1.356,1.122-.774,2.282-.552,2.017.829,1.916,1.356" transform="translate(-405.746 -42.169)" fill="#97614c"/>
        <path id="Trazado_1272172" data-name="Trazado 1272172" d="M627.092,75.048c-.126.659-.57,1.127-.992,1.046s-.661-.68-.535-1.339.57-1.127.992-1.046.661.68.535,1.339" transform="translate(-406.411 -47.883)" fill="#3b3638"/>
        <path id="Trazado_1272173" data-name="Trazado 1272173" d="M624.228,73.937c.358-1.439,1.7-1.792,2.625-.6a2.987,2.987,0,0,1,.525.92.085.085,0,0,1-.052.109.087.087,0,0,1-.09-.022c-.525-.436-1.088-1.207-1.8-1.136a2.64,2.64,0,0,0-1.054.8.086.086,0,0,1-.15-.074" transform="translate(-405.562 -47.181)" fill="#3b3638"/>
        <path id="Trazado_1272174" data-name="Trazado 1272174" d="M637.536,97.964a2.867,2.867,0,0,1-3.237-.016,3.337,3.337,0,0,0-.544-.254.123.123,0,0,0-.156.076,2.185,2.185,0,0,0,3.782.881,1.849,1.849,0,0,0,.332-.548.118.118,0,0,0-.068-.152.121.121,0,0,0-.109.012" transform="translate(-411.651 -63.468)" fill="#db6f42"/>
        <path id="Trazado_1272175" data-name="Trazado 1272175" d="M637.694,75.146l-1.713,5.144c-.444,1.01,2.143,1.41,2.492.39.067-.2-.572-5.346-.556-5.523-.009-.111-.191-.121-.223-.011" transform="translate(-413.167 -48.773)" fill="#db6f42"/>
        <path id="Trazado_1272176" data-name="Trazado 1272176" d="M647.293,110.9a.175.175,0,0,1-.026-.348,13.417,13.417,0,0,0,6.072-2.805.175.175,0,1,1,.232.263,13.507,13.507,0,0,1-6.252,2.889l-.026,0" transform="translate(-420.436 -69.972)" fill="#db6f42"/>
        <path id="Trazado_1272177" data-name="Trazado 1272177" d="M653.436,397.872a.175.175,0,0,1-.171-.139c-.035-.167-3.485-16.776-4.344-23.084-.331-2.43-1.26-10.092-2.158-17.5-1.055-8.706-2.147-17.709-2.283-18.35a.175.175,0,0,1,.135-.207.177.177,0,0,1,.208.135c.139.655,1.183,9.265,2.288,18.38.9,7.409,1.827,15.07,2.158,17.5.858,6.3,4.305,22.893,4.34,23.06a.174.174,0,0,1-.135.207.162.162,0,0,1-.036,0" transform="translate(-418.719 -219.981)" fill="#3b3638"/>
        <path id="Trazado_1272178" data-name="Trazado 1272178" d="M422.763,181.506c7.059,1.937,16.357-6.193,22.454-13.853a.931.931,0,0,0-.61-1.5l-13.791-1.835a3.58,3.58,0,0,1-3.072-4.054l3.05-21.374a3.58,3.58,0,0,1,4.016-3.043l13.849,1.843a.932.932,0,0,0,.979-1.294c-3.92-8.922-11.186-17.354-18.438-18.319-8.207-1.092-19.241,9.509-24.221,18.9l-135.425-20.2c-2.06-10.424-9.293-22.987-17.466-24.309-7.119-1.152-15.532,2.684-21.746,9.688A1.126,1.126,0,0,0,233,104.01l13.671,2.211a3.317,3.317,0,0,1,2.745,3.8l-4.442,27.457a3.316,3.316,0,0,1-3.8,2.744L227.5,138.014a1.125,1.125,0,0,0-1.208,1.562c3.688,8.606,10.463,14.9,17.582,16.05,8.173,1.322,19.64-8.221,24.881-17.464l135.425,20.2s3.566,19.018,18.585,23.139" transform="translate(-146.96 -59.939)" fill="#69d7e5"/>
        <path id="Trazado_1272179" data-name="Trazado 1272179" d="M595.62,250.612c-.513-.171-3.933-1.281-5.13-1.709s-6.649.332-7.068,1.054c-.791,1.359,4.361,1.111,4.532,1.881s-7.646.191-7.646.191-.876,1.1,1.518,2.8c2.334,1.654,2.223,4.348,8.323,2.793,1.468-.374,6.014-.855,6.014-.855Z" transform="translate(-376.927 -161.633)" fill="#f59976"/>
        <path id="Trazado_1272180" data-name="Trazado 1272180" d="M369.533,219.59a14.072,14.072,0,0,1-3.383,1.622l-1.622.5-.006,0-1.282.393-.021.006a13.95,13.95,0,0,1-2.5.56l-.019,0c-.323.089-4.732,1.3-6.734,1.123a2.432,2.432,0,0,1-.513-.094.887.887,0,0,1-.286-.141s-.7-.406,2.92-1.527q.357-.11.679-.215c3.852-1.258,4.1-1.972,3.531-1.885q-.54.081-1.089.16c-3.675.524-7.481.9-8.833.488-.275-.083-.449-.2-.5-.35a.255.255,0,0,1,.057-.249c.394-.5,2.445-.963,4.942-1.456,2.113-.417,4.6-.642,5.21-.694a.218.218,0,0,0,.2-.2c0-.087-.042-.171-.234-.17-2.277.011-10.776,1.065-10.965-.058-.165-.982,2.048-1.058,4.82-1.54.1-.017,5.9-.726,6-.76a.6.6,0,0,0,.161-.078.1.1,0,0,0-.072-.187,31.381,31.381,0,0,1-8.745-.361c-.7-.2-.416-.919.029-1.033a37.716,37.716,0,0,1,7.121-.688c-.783-.227-1.208-.508-1.176-.9.046-.551,1.328-.9,2.182-.838,2.271.155,4.509-.1,5.236-.085a6.677,6.677,0,0,1,4.429,1.837Z" transform="translate(-226.801 -137.044)" fill="#ba6d50"/>
        <path id="Trazado_1272181" data-name="Trazado 1272181" d="M426.079,55.088a4.356,4.356,0,1,1,4.356-4.356,4.361,4.361,0,0,1-4.356,4.356m0-8.362a4.006,4.006,0,1,0,4.006,4.006,4.01,4.01,0,0,0-4.006-4.006" transform="translate(-273.995 -30.131)" fill="#fff"/>
        <path id="Trazado_1272182" data-name="Trazado 1272182" d="M397.268,50.983a4.356,4.356,0,1,1,4.356-4.356,4.361,4.361,0,0,1-4.356,4.356m0-8.361a4.005,4.005,0,1,0,4.006,4.006,4.01,4.01,0,0,0-4.006-4.006" transform="translate(-255.277 -27.464)" fill="#fff"/>
        <path id="Trazado_1272183" data-name="Trazado 1272183" d="M418.825,55.179h-.019l-1.878-.2a.175.175,0,0,1-.155-.193.177.177,0,0,1,.193-.155l1.878.2a.175.175,0,0,1-.019.349" transform="translate(-270.779 -35.491)" fill="#fff"/>
        <path id="Trazado_1272184" data-name="Trazado 1272184" d="M445.748,56.689a.175.175,0,0,1-.091-.325L448,54.941a.175.175,0,0,1,.182.3l-2.341,1.424a.173.173,0,0,1-.091.026" transform="translate(-289.491 -35.678)" fill="#fff"/>
        <path id="Trazado_1272185" data-name="Trazado 1272185" d="M405.714,191.614s28.3,8.1,30.467,2.859,2.983-22.532,2.983-22.532l-15.323-4.068-.949,13.116-17.636,3.8s-1.354,4.864.457,6.82" transform="translate(-262.981 -109.068)" fill="#6b6b82"/>
        <path id="Trazado_1272186" data-name="Trazado 1272186" d="M624.052,224.2s27.989-.439,29.176-4.125c1.74-5.4,3.322-21.425,3.322-21.425l-10.793.762-1.438,12.808-20.809,5.824s-1.269,4.2.542,6.156" transform="translate(-404.816 -129.062)" fill="#f59976"/>
        <path id="Trazado_1272187" data-name="Trazado 1272187" d="M436.7,241.248c-7.766,0-22.466-3.819-23.231-4.02a.175.175,0,1,1,.089-.338c.23.06,23.1,6,27.032,3.319a.175.175,0,0,1,.2.289,7.923,7.923,0,0,1-4.087.75" transform="translate(-268.545 -153.904)" fill="#3b3638"/>
        <path id="Trazado_1272188" data-name="Trazado 1272188" d="M459.887,205.272h-1.966a.175.175,0,1,1,0-.35h1.966a.175.175,0,1,1,0,.35" transform="translate(-297.4 -133.139)" fill="#3b3638"/>
        <path id="Trazado_1272189" data-name="Trazado 1272189" d="M266.148,161.106a4.963,4.963,0,0,1-.578-.034l-5.8-.68a.175.175,0,1,1,.041-.348l5.8.68a4.576,4.576,0,0,0,5.039-3.758l5.607-32.183a4.587,4.587,0,0,0-3.685-5.285l-9.738-1.776a.175.175,0,1,1,.063-.345l9.738,1.776a4.938,4.938,0,0,1,3.967,5.69l-5.607,32.183a4.929,4.929,0,0,1-4.847,4.08" transform="translate(-168.674 -76.259)" fill="#fff"/>
        <path id="Trazado_1272190" data-name="Trazado 1272190" d="M372.856,154.738l-.026,0-34.442-5.153a.174.174,0,0,1-.149-.16c-.005-.075-.573-7.539-3.489-11.25a.175.175,0,1,1,.276-.216c2.793,3.555,3.46,10.219,3.551,11.3l34.3,5.133a.175.175,0,0,1-.026.348" transform="translate(-217.465 -89.587)" fill="#fff"/>
        <path id="Trazado_1272191" data-name="Trazado 1272191" d="M311.662,226.581a.175.175,0,0,1-.1-.321c4.611-3.1,8.94-11.164,8.983-11.246a.175.175,0,1,1,.309.165c-.043.082-4.414,8.228-9.1,11.372a.171.171,0,0,1-.1.03" transform="translate(-202.375 -139.636)" fill="#fff"/>
        <path id="Trazado_1272192" data-name="Trazado 1272192" d="M656.3,56.8s-4.388,5.511-15.392,6.45c0,0,3.414-9.976,3.053-13.637S628.377,45.9,627.807,37.27c0,0,8.873-6.464,13.1-4.972s7.98,23.775,15.392,24.5" transform="translate(-407.889 -20.839)" fill="#97614c"/>
        <path id="Trazado_1272193" data-name="Trazado 1272193" d="M696.175,197.232c-4.48.455-12.257,1.247-12.6,1.289l-.3-2.077c.249-.039,8.638-.893,12.88-1.324q.011,1.046.024,2.112" transform="translate(-443.924 -126.77)" fill="#fff"/>
        <path id="Trazado_1272194" data-name="Trazado 1272194" d="M592.278,186.67l-.3,2.081c-.245-.032-2.35-.345-6.186-.734.229-.732.407-1.224.678-1.993,3.538.361,5.651.622,5.805.646" transform="translate(-380.593 -120.861)" fill="#fff"/>
        <path id="Trazado_1272195" data-name="Trazado 1272195" d="M603.128,176.81l-.025,0a.175.175,0,0,1-.149-.2c.01-.074,1.038-7.379.687-9.024a.175.175,0,0,1,.135-.208.178.178,0,0,1,.208.135c.364,1.706-.64,8.843-.682,9.146a.175.175,0,0,1-.173.151" transform="translate(-391.741 -108.744)" fill="#3b3638"/>
        <path id="Trazado_1272196" data-name="Trazado 1272196" d="M682.045,181.042a.175.175,0,0,1-.174-.157l-.726-6.8a.175.175,0,0,1,.156-.193.179.179,0,0,1,.193.156l.726,6.8a.175.175,0,0,1-.155.193h-.019" transform="translate(-442.542 -112.977)" fill="#3b3638"/>
        <path id="Trazado_1272197" data-name="Trazado 1272197" d="M799.853,241.768l-.026,0-6.77-.983a3.2,3.2,0,0,1-2.706-3.642l4.309-28.731a3.189,3.189,0,0,1,3.513-2.707l8.568.935a.175.175,0,0,1,.155.193.179.179,0,0,1-.193.155l-8.568-.935a2.84,2.84,0,0,0-3.128,2.411L790.7,237.193a2.851,2.851,0,0,0,2.41,3.244l6.77.983a.175.175,0,0,1-.025.349" transform="translate(-513.472 -133.633)" fill="#fff"/>
        <path id="Trazado_1272198" data-name="Trazado 1272198" d="M736.905,212.52l-.03,0-6.916-1.189a.175.175,0,0,1,.06-.346l6.782,1.166c.5-1.1,4-8.538,7.467-10.758a.175.175,0,0,1,.189.295c-3.575,2.292-7.355,10.647-7.393,10.731a.175.175,0,0,1-.16.1" transform="translate(-474.164 -130.826)" fill="#fff"/>
        <path id="Trazado_1272199" data-name="Trazado 1272199" d="M737.6,282.861a.174.174,0,0,1-.133-.062c-2.387-2.813-4.1-9.486-4.348-10.487l-6.394-.875a.175.175,0,1,1,.047-.347l6.513.891a.175.175,0,0,1,.147.133c.018.075,1.827,7.542,4.3,10.459a.175.175,0,0,1-.133.288" transform="translate(-472.06 -176.127)" fill="#fff"/>
        <path id="Trazado_1272200" data-name="Trazado 1272200" d="M647.055,79.33a4.361,4.361,0,0,1-4.356-4.356c0-2.411,1.339-3.739,3.768-3.739,2.4,0,4.944,1.31,4.944,3.739a4.361,4.361,0,0,1-4.356,4.356m-.588-7.744c-2.236,0-3.418,1.172-3.418,3.388a4.006,4.006,0,0,0,8.011,0c0-2.2-2.366-3.388-4.593-3.388" transform="translate(-417.564 -46.282)" fill="#fff"/>
        <path id="Trazado_1272201" data-name="Trazado 1272201" d="M618.245,75.509a4.361,4.361,0,0,1-4.356-4.356c0-2.212,1.669-3.586,4.356-3.586s4.356,1.374,4.356,3.586a4.361,4.361,0,0,1-4.356,4.356m0-7.592c-1.936,0-4.006.85-4.006,3.236a4.006,4.006,0,1,0,8.011,0c0-2.386-2.07-3.236-4.006-3.236" transform="translate(-398.846 -43.899)" fill="#fff"/>
        <path id="Trazado_1272202" data-name="Trazado 1272202" d="M639.711,78.267h-.019l-1.787-.194a.175.175,0,0,1-.156-.193.177.177,0,0,1,.193-.155l1.788.194a.175.175,0,0,1-.019.349" transform="translate(-414.348 -50.497)" fill="#fff"/>
        <path id="Trazado_1272203" data-name="Trazado 1272203" d="M666.724,81.727a.175.175,0,0,1-.034-.347L668.574,81a.175.175,0,1,1,.069.343l-1.885.378a.171.171,0,0,1-.035,0" transform="translate(-433.06 -52.625)" fill="#fff"/>
        <path id="Trazado_1272204" data-name="Trazado 1272204" d="M334.889,425.05a.175.175,0,0,1-.175-.175v-4.949a.175.175,0,0,1,.35,0v4.949a.175.175,0,0,1-.175.175" transform="translate(-217.465 -272.713)" fill="#fff"/>
        <path id="Trazado_1272205" data-name="Trazado 1272205" d="M334.889,444.4a.175.175,0,0,1-.175-.175v-4.949a.175.175,0,0,1,.35,0v4.949a.175.175,0,0,1-.175.175" transform="translate(-217.465 -285.288)" fill="#fff"/>
        <path id="Trazado_1272206" data-name="Trazado 1272206" d="M342.45,436.842H337.5a.175.175,0,1,1,0-.35h4.949a.175.175,0,0,1,0,.35" transform="translate(-219.162 -283.591)" fill="#fff"/>
        <path id="Trazado_1272207" data-name="Trazado 1272207" d="M323.1,436.842h-4.949a.175.175,0,0,1,0-.35H323.1a.175.175,0,1,1,0,.35" transform="translate(-206.587 -283.591)" fill="#fff"/>
        <path id="Trazado_1272208" data-name="Trazado 1272208" d="M171,161.79l-6.421,28.075-5.389-11.253-12.414-1.246Z" transform="translate(-95.359 -105.115)" fill="#b6b6ce"/>
        <path id="Trazado_1272209" data-name="Trazado 1272209" d="M189.148,189.714a.175.175,0,0,1-.158-.1l-4.38-9.145a.175.175,0,1,1,.316-.151l4.163,8.692,6.309-27.586a.175.175,0,1,1,.341.078l-6.421,28.075a.175.175,0,0,1-.151.135h-.02" transform="translate(-119.931 -104.79)" fill="#3b3638"/>
        <path id="Trazado_1272210" data-name="Trazado 1272210" d="M185.476,185.88a.173.173,0,0,1-.1-.032.175.175,0,0,1-.043-.244l7-10.047a.175.175,0,0,1,.287.2l-7,10.047a.174.174,0,0,1-.144.075" transform="translate(-120.391 -114.012)" fill="#fff"/>
        <path id="Trazado_1272211" data-name="Trazado 1272211" d="M213.673,556.655H98.693a.52.52,0,1,1,0-1.041h114.98a.52.52,0,0,1,0,1.041" transform="translate(-63.783 -360.985)" fill="#b6b6ce"/>
        <path id="Trazado_1272212" data-name="Trazado 1272212" d="M226.941,574.686a3.458,3.458,0,1,1-3.458-3.458,3.458,3.458,0,0,1,3.458,3.458" transform="translate(-142.951 -371.129)" fill="#b6b6ce"/>
        <path id="Trazado_1272213" data-name="Trazado 1272213" d="M274.36,574.686a3.458,3.458,0,1,1-3.458-3.458,3.458,3.458,0,0,1,3.458,3.458" transform="translate(-173.76 -371.129)" fill="#b6b6ce"/>
        <path id="Trazado_1272214" data-name="Trazado 1272214" d="M321.779,574.686a3.458,3.458,0,1,1-3.458-3.458,3.458,3.458,0,0,1,3.458,3.458" transform="translate(-204.568 -371.129)" fill="#b6b6ce"/>
        <rect id="Rectángulo_460213" data-name="Rectángulo 460213" width="12.466" height="0.7" transform="matrix(0.529, -0.849, 0.849, 0.529, 16.307, 35.183)" fill="#fff"/>
        <path id="Trazado_1272215" data-name="Trazado 1272215" d="M30.784,82.386l-7.355-3.462,7.355-3.461.3.634-6.008,2.827,6.008,2.828Z" transform="translate(-15.222 -49.029)" fill="#fff"/>
        <path id="Trazado_1272216" data-name="Trazado 1272216" d="M69.322,82.386l-.3-.634,6.008-2.828L69.024,76.1l.3-.634,7.355,3.461Z" transform="translate(-44.845 -49.029)" fill="#fff"/>
      </g>
    </g>
  </g>
</svg>
