<svg xmlns="http://www.w3.org/2000/svg" xmlns:xlink="http://www.w3.org/1999/xlink" width="84" height="84" viewBox="0 0 84 84">
  <defs>
    <clipPath id="clip-path">
      <rect id="Rectángulo_460215" data-name="Rectángulo 460215" width="66.711" height="66.826" fill="#344866"/>
    </clipPath>
  </defs>
  <g id="Grupo_1210217" data-name="Grupo 1210217" transform="translate(0.578 0.041)">
    <g id="Grupo_1119665" data-name="Grupo 1119665" transform="translate(-0.578 -0.041)">
      <rect id="Rectángulo_402006" data-name="Rectángulo 402006" width="84" height="84" rx="5" fill="#a4e7f0"/>
    </g>
    <g id="Grupo_1210266" data-name="Grupo 1210266" transform="translate(8.422 7.959)">
      <g id="Grupo_1210265" data-name="Grupo 1210265" clip-path="url(#clip-path)">
        <path id="Trazado_1272218" data-name="Trazado 1272218" d="M97.809,59.345,60.787,59.4a2.66,2.66,0,0,0-2.07,2.589l.148,37.356a2.679,2.679,0,0,0,2.5,1.737l37.356-.148a2.679,2.679,0,0,0,1.737-2.5l-.148-37.356a2.679,2.679,0,0,0-2.5-1.737m-9.751,4.668h3.918l-4.765,9.319H83.293Zm-24.674,0H82.657L78.21,73.331H63.384Zm32.4,32.4h-32.4V77.991h32.4Zm0-23.086H92.612l3.177-6.354Z" transform="translate(-46.28 -46.775)" fill="#344866"/>
        <path id="Trazado_1272219" data-name="Trazado 1272219" d="M2.171,48.032,3.83,50.905a2.1,2.1,0,0,0,3.628,0l2.127-3.685a2.666,2.666,0,0,0,.484-.722c.014-.058.023-.116.033-.175l.9-1.562A2.094,2.094,0,0,0,9.19,41.621H8L7.99,26.415c1.357-8.3,9.7-5.52,15.582-6.021,3.759-.32,3.563-4.409.638-4.677a80.992,80.992,0,0,0-10.4,0A11.622,11.622,0,0,0,3.341,25.79V41.621H2.1A2.094,2.094,0,0,0,.284,44.763l.822,1.424a5.432,5.432,0,0,0,1.066,1.845" transform="translate(0 -12.256)" fill="#344866"/>
        <path id="Trazado_1272220" data-name="Trazado 1272220" d="M108.118,171.246a2.306,2.306,0,0,0,3.736-1.379c.4-2.108-2.636-3.557-3.5-5.166.876-1.239,3.556-2.884,3.556-4.477A2.483,2.483,0,0,0,109.5,157.9a2.629,2.629,0,0,0-1.484.525,46.459,46.459,0,0,0-4.557,4.55c-.839,1.053-1.264,1.96-.418,3.183a60.151,60.151,0,0,0,5.075,5.092" transform="translate(-80.856 -124.455)" fill="#344866"/>
        <path id="Trazado_1272221" data-name="Trazado 1272221" d="M171.451,164.7c-.865,1.609-3.9,3.057-3.5,5.166a2.306,2.306,0,0,0,3.736,1.38,60.112,60.112,0,0,0,5.075-5.092c.846-1.223.421-2.13-.418-3.183a46.393,46.393,0,0,0-4.557-4.55,2.628,2.628,0,0,0-1.484-.526,2.483,2.483,0,0,0-2.407,2.328c0,1.592,2.68,3.237,3.556,4.477" transform="translate(-132.336 -124.455)" fill="#344866"/>
        <path id="Trazado_1272222" data-name="Trazado 1272222" d="M93.722,92.446c-2.866.473-2.164,4.953.773,4.608,2.987-.351,2.5-5.148-.773-4.608" transform="translate(-72.434 -72.833)" fill="#344866"/>
        <path id="Trazado_1272223" data-name="Trazado 1272223" d="M125.306,92.854c-2.567,1.959.844,5.795,3.115,3.433a2.323,2.323,0,0,0-3.115-3.433" transform="translate(-98.045 -72.767)" fill="#344866"/>
        <path id="Trazado_1272224" data-name="Trazado 1272224" d="M128.584,7.457l3.325,1.92a4.493,4.493,0,0,0,1.119.825,3.669,3.669,0,0,0,.431.07l1.267.732a2.094,2.094,0,0,0,3.142-1.814V8.137l15.661-.008c7.84,1.828,5.11,9.767,5.6,15.575.32,3.759,4.409,3.563,4.677.638a81.031,81.031,0,0,0,0-10.4A11.622,11.622,0,0,0,153.737,3.474H137.868V2.1A2.094,2.094,0,0,0,134.726.283L128.584,3.83a2.094,2.094,0,0,0,0,3.628" transform="translate(-100.525 0)" fill="#344866"/>
        <path id="Trazado_1272225" data-name="Trazado 1272225" d="M50.6,209.473l-6.143-3.547a2.094,2.094,0,0,0-3.142,1.814v1.107l-15.527.015c-8.318-1.364-5.5-9.7-6.02-15.583-.324-3.677-4.4-3.668-4.678-.637a80.8,80.8,0,0,0,0,10.4,11.622,11.622,0,0,0,10.073,10.471H41.313v1.322a2.094,2.094,0,0,0,3.142,1.814L50.6,213.1a2.094,2.094,0,0,0,0-3.628" transform="translate(-11.759 -150.106)" fill="#344866"/>
        <path id="Trazado_1272226" data-name="Trazado 1272226" d="M216.028,135.185l-3.547-6.143a2.1,2.1,0,0,0-3.628,0l-2.05,3.551a3.586,3.586,0,0,0-.659.93c-.024.1-.043.208-.058.312l-.78,1.35a2.094,2.094,0,0,0,1.814,3.142h1.089l.015,15.28c-1.372,8.318-9.68,5.519-15.582,6.021-3.711.316-3.646,4.4-.638,4.677a80.873,80.873,0,0,0,10.4,0,11.622,11.622,0,0,0,10.471-10.073v-15.9h1.34a2.094,2.094,0,0,0,1.814-3.142" transform="translate(-149.601 -100.886)" fill="#344866"/>
      </g>
    </g>
  </g>
</svg>
