<svg xmlns="http://www.w3.org/2000/svg" xmlns:xlink="http://www.w3.org/1999/xlink" width="84" height="84" viewBox="0 0 84 84">
  <defs>
    <clipPath id="clip-path">
      <rect id="Rectángulo_461061" data-name="Rectángulo 461061" width="60" height="59.982" fill="#1e535a"/>
    </clipPath>
  </defs>
  <g id="Grupo_1211567" data-name="Grupo 1211567" transform="translate(0.289 0.137)">
    <g id="Grupo_1119665" data-name="Grupo 1119665" transform="translate(-0.289 -0.137)">
      <rect id="Rectángulo_402006" data-name="Rectángulo 402006" width="84" height="84" rx="5" fill="#a4e7f0"/>
    </g>
    <g id="Grupo_1211667" data-name="Grupo 1211667" transform="translate(11.711 11.863)">
      <g id="Grupo_1211666" data-name="Grupo 1211666" clip-path="url(#clip-path)">
        <path id="Trazado_1275023" data-name="Trazado 1275023" d="M42.538,48.377a12.57,12.57,0,0,1-25.061.06l-1.982-.065-.009,7.747L0,56.123V38.72L6.779,38.7l-.006-6a2.877,2.877,0,0,1,0-5.428l0-6.948L.961,20.314V2.9H14.52v17.41l-5.82.025.009,6.942a2.8,2.8,0,0,1,1.925,2.708A2.939,2.939,0,0,1,8.7,32.739l.011,5.968h6.781V46.43l1.978.018A12.587,12.587,0,0,1,29.025,34.869l0-9.71-9.775-.011A2.953,2.953,0,0,1,16.446,22l-.017-3.467a4.411,4.411,0,0,1,.688-2.1,4.69,4.69,0,0,1-.682-1.968l0-3.855a4.426,4.426,0,0,1,.68-1.9,4.7,4.7,0,0,1-.69-2.166l.024-3.653A2.861,2.861,0,0,1,19.273,0l21.61.012a2.889,2.889,0,0,1,2.684,3.032l0,3.681a4.753,4.753,0,0,1-.678,1.964,4.455,4.455,0,0,1,.684,2.1l-.006,3.669a4.957,4.957,0,0,1-.675,1.981,4.643,4.643,0,0,1,.675,1.907l-.006,4a2.966,2.966,0,0,1-2.981,2.805h-9.6l-.007,9.709a12.6,12.6,0,0,1,11.551,11.55l1.986.029V38.708l6.781,0,.011-5.969a2.945,2.945,0,0,1-1.935-2.6,2.814,2.814,0,0,1,1.923-2.863L51.3,20.33l-5.82-.019V2.9H59.04V20.309l-5.814.015,0,6.944a2.876,2.876,0,0,1,0,5.424l0,6.013,6.778,0V56.118l-15.486,0,0-7.71ZM40.561,7.737a1.033,1.033,0,0,0,1.057-1.032l0-3.8a1,1,0,0,0-1.075-.98l-21.25,0a1.01,1.01,0,0,0-.92.962l0,3.816a1.035,1.035,0,0,0,1.058,1.029ZM12.591,4.825h-9.7V18.378h9.7Zm44.514,0h-9.7V18.378h9.7ZM40.636,15.482a1.055,1.055,0,0,0,.984-1.039l0-3.8a1,1,0,0,0-1.075-.975l-21.251,0a1,1,0,0,0-.918.959l0,3.815a1.044,1.044,0,0,0,1.058,1.035Zm0,7.743a1.068,1.068,0,0,0,.986-1.042l-.007-3.818a.983.983,0,0,0-.941-.953H19.326a1,1,0,0,0-.949.954l0,3.815a1.049,1.049,0,0,0,1.057,1.042ZM8.705,29.982a.965.965,0,1,0-.965.965.965.965,0,0,0,.965-.965m44.519,0a.965.965,0,1,0-.965.965.965.965,0,0,0,.965-.965M32.9,40.616a10.833,10.833,0,0,0-1.59-3.176,2.68,2.68,0,0,0-1.315-.686c-1.176-.065-2.369,2.152-2.913,3.88Zm-7.851,0L26.329,37.4a10.282,10.282,0,0,0-4.462,3.209Zm13.041-.047A10.187,10.187,0,0,0,33.676,37.4l1.3,3.224Zm-24.548.06H1.945v1.926h11.6Zm32.92,1.926h11.6V40.628H46.46ZM24.171,46.447l.39-3.889-4.07.016a14.455,14.455,0,0,0-1.124,3.876Zm9.7,0-.445-3.9-6.877.02-.39,3.885Zm6.764,0a14.223,14.223,0,0,0-1.126-3.873l-4.067-.024.388,3.9ZM13.54,44.492H1.945v9.7h11.6Zm44.515,0H46.46v9.7h11.6ZM24.57,52.241l-.412-3.865-4.791.009a12.977,12.977,0,0,0,1.169,3.867Zm8.9-.008.4-3.85H26.134l.447,3.87Zm6.069,0a18.317,18.317,0,0,0,1.1-3.848H35.827l-.393,3.866Zm-14.528,1.94-3.115.044a9.484,9.484,0,0,0,4.392,3.114Zm7.89.012-5.818.013A11.712,11.712,0,0,0,28.71,57.4a2.482,2.482,0,0,0,1.3.642c1.22.072,2.421-2.244,2.9-3.86m5.149.037-3.075-.042L33.754,57.32a8.974,8.974,0,0,0,4.3-3.1" transform="translate(0 0)" fill="#1e535a"/>
        <rect id="Rectángulo_461051" data-name="Rectángulo 461051" width="5.79" height="1.964" transform="translate(4.85 6.76)" fill="#1e535a"/>
        <rect id="Rectángulo_461052" data-name="Rectángulo 461052" width="5.788" height="1.966" transform="translate(4.85 14.497)" fill="#1e535a"/>
        <rect id="Rectángulo_461053" data-name="Rectángulo 461053" width="5.788" height="1.961" transform="translate(4.85 10.621)" fill="#1e535a"/>
        <rect id="Rectángulo_461054" data-name="Rectángulo 461054" width="5.792" height="1.965" transform="translate(49.359 6.76)" fill="#1e535a"/>
        <rect id="Rectángulo_461055" data-name="Rectángulo 461055" width="5.788" height="1.963" transform="translate(49.362 14.499)" fill="#1e535a"/>
        <rect id="Rectángulo_461056" data-name="Rectángulo 461056" width="5.788" height="1.961" transform="translate(49.362 10.621)" fill="#1e535a"/>
        <rect id="Rectángulo_461057" data-name="Rectángulo 461057" width="7.75" height="1.951" transform="translate(48.385 50.296)" fill="#1e535a"/>
        <rect id="Rectángulo_461058" data-name="Rectángulo 461058" width="7.75" height="1.936" transform="translate(48.385 46.438)" fill="#1e535a"/>
        <rect id="Rectángulo_461059" data-name="Rectángulo 461059" width="7.748" height="1.951" transform="translate(3.867 50.296)" fill="#1e535a"/>
        <rect id="Rectángulo_461060" data-name="Rectángulo 461060" width="7.749" height="1.936" transform="translate(3.867 46.438)" fill="#1e535a"/>
      </g>
    </g>
  </g>
</svg>
