<svg xmlns="http://www.w3.org/2000/svg" xmlns:xlink="http://www.w3.org/1999/xlink" width="85" height="85" viewBox="0 0 85 85">
  <defs>
    <clipPath id="clip-path">
      <rect id="Rectángulo_461121" data-name="Rectángulo 461121" width="55.569" height="63.501" fill="#344866"/>
    </clipPath>
  </defs>
  <g id="Grupo_1211658" data-name="Grupo 1211658" transform="translate(-179.379 -5519.008)">
    <rect id="Rectángulo_402006" data-name="Rectángulo 402006" width="85" height="85" rx="5" transform="translate(179.379 5519.008)" fill="#69d7e5"/>
    <g id="Grupo_1211704" data-name="Grupo 1211704" transform="translate(194.379 5530.008)">
      <g id="Grupo_1211703" data-name="Grupo 1211703" clip-path="url(#clip-path)">
        <path id="Trazado_1275177" data-name="Trazado 1275177" d="M54.7,32.371,47.6,39.5l0,22.891A1,1,0,0,1,46.592,63.5H1.013A.984.984,0,0,1,0,62.546V8.515L8.506,0,46.6,0a.982.982,0,0,1,1,1.1l0,26.814,1.265-1.135a4.06,4.06,0,0,1,4.2-.78,3.892,3.892,0,0,1,2.495,3.275,4.041,4.041,0,0,1-.866,3.1M4.928,59.507a.954.954,0,0,1-.977-.995V12.974c0-.767.538-1.08,1.243-1.08l37.537,0a1.055,1.055,0,0,1,.921,1.045l.01,18.963,1.965-1.92L45.625,2H9.886V8.925a1.09,1.09,0,0,1-.975,1.042L1.978,9.957l0,51.542,43.646.006-.009-19.95L43.65,43.472l0,15.07a.991.991,0,0,1-1.049.966ZM7.921,7.994l-.04-4.6-4.5,4.529ZM5.93,13.871v1.984l19.847,0V13.876Zm21.826,0v1.984l13.92,0V13.876Zm-7.75,8.337a1.073,1.073,0,0,1,1.553-.066l4.2,4.167.026-8.476H5.917l.045,6.512,4.254-4.215a1.1,1.1,0,0,1,1.267-.109l5.346,5.356Zm7.745,7.6H41.676V17.83H27.752ZM25.4,28.782l-4.567-4.549-3.274,3.282a1.091,1.091,0,0,1-1.347.012l-5.3-5.31L5.932,27.158,5.954,29.8H25.686a.956.956,0,0,0-.288-1.022m26.093,3.987,1.587-1.606a2.063,2.063,0,0,0-3.009-2.809l-1.516,1.476Zm-19.126,14.8L47.894,32.044a1.757,1.757,0,0,0-.835-.717L30.806,47.592Zm-6.589-11.9-.013-3.884L5.927,31.8l0,6.911a32.055,32.055,0,0,1,7.242,1.1c3.637-3.017,7.812-3.8,12.6-4.13m3.96,2.012,8.248-.019,3.686-3.708,0-2.164H27.754V43.661l4.191.022,4.006-4.008-6.219-.011Zm4.1,12.718L50.073,34.181a2.717,2.717,0,0,0-.82-.694L33.769,48.968a5.164,5.164,0,0,0,.063,1.436m-12.6-6.735h4.545V37.688c-3.651.23-7.151.715-10.381,2.878a26.6,26.6,0,0,1,5.836,3.1m-3.966-.021A24.365,24.365,0,0,0,5.932,40.7l0,2.983Zm10.63,13.882,13.79-.006-.022-12.083L33.3,53.783l-5.516,2.487a3.484,3.484,0,0,0,.112,1.261M16.973,53.359a6.125,6.125,0,0,0,2.871-4.825.942.942,0,0,1,.924-.889l5,.014-.015-1.99H5.921l.021,11.194a13.574,13.574,0,0,0,3.325-2.539c2.114-2.154,1.276-4.623,2.39-4.705a1.858,1.858,0,0,1,.924.247Zm12.951-7.652-2.192-.058.071,2.16Zm-5.7,11.82c-.252-.419-.507-1.006-.371-1.307l1.914-4.215.013-2.357-4.011-.021a8.427,8.427,0,0,1-4.107,5.621,1.289,1.289,0,0,1-1.746-.149l-3.284-2.634a11.172,11.172,0,0,1-3.948,5.056Zm7.524-5.244-.043-2.653-2.686.006-.777,1.72,1.72,1.753Z" fill="#344866"/>
        <rect id="Rectángulo_461116" data-name="Rectángulo 461116" width="9.967" height="1.993" transform="translate(29.731 23.833)" fill="#344866"/>
        <rect id="Rectángulo_461117" data-name="Rectángulo 461117" width="5.98" height="2.014" transform="translate(33.718 19.824)" fill="#344866"/>
        <rect id="Rectángulo_461118" data-name="Rectángulo 461118" width="1.986" height="2.011" transform="translate(29.731 19.824)" fill="#344866"/>
        <rect id="Rectángulo_461119" data-name="Rectángulo 461119" width="5.984" height="1.983" transform="translate(33.714 33.719)" fill="#344866"/>
        <rect id="Rectángulo_461120" data-name="Rectángulo 461120" width="1.988" height="1.983" transform="translate(29.729 33.719)" fill="#344866"/>
      </g>
    </g>
  </g>
</svg>
