<svg xmlns="http://www.w3.org/2000/svg" xmlns:xlink="http://www.w3.org/1999/xlink" width="187.711" height="121.729" viewBox="0 0 187.711 121.729">
  <defs>
    <clipPath id="clip-path">
      <rect id="Rectángulo_461115" data-name="Rectángulo 461115" width="114.569" height="116.701" fill="none"/>
    </clipPath>
    <clipPath id="clip-path-3">
      <rect id="Rectángulo_461113" data-name="Rectángulo 461113" width="31.394" height="29.781" fill="none"/>
    </clipPath>
  </defs>
  <g id="Grupo_1211742" data-name="Grupo 1211742" transform="translate(-289.711 -5405)">
    <g id="Grupo_1211702" data-name="Grupo 1211702">
      <g id="Grupo_1211644" data-name="Grupo 1211644" transform="translate(0.434 -3463.039)">
        <g id="Grupo_1204518" data-name="Grupo 1204518" transform="translate(289.277 8868.039)">
          <rect id="Rectángulo_455283" data-name="Rectángulo 455283" width="187.711" height="121.729" rx="19" fill="#9ed1ff"/>
        </g>
      </g>
      <g id="Grupo_1211701" data-name="Grupo 1211701" transform="translate(326.711 5408)">
        <g id="Grupo_1211700" data-name="Grupo 1211700" clip-path="url(#clip-path)">
          <g id="Grupo_1211699" data-name="Grupo 1211699" transform="translate(0 0)">
            <g id="Grupo_1211698" data-name="Grupo 1211698" clip-path="url(#clip-path)">
              <path id="Trazado_1275161" data-name="Trazado 1275161" d="M109.207,33.1c-.412-.886-.851-1.764-1.308-2.621A57.285,57.285,0,0,0,57.752,0h-.916A57.284,57.284,0,0,0,6.671,30.474c-.46.858-.9,1.735-1.34,2.678a57.26,57.26,0,0,0,.5,49.31q.663,1.356,1.4,2.678a57.46,57.46,0,0,0,49.574,29.425l.478,0,.444,0a57.468,57.468,0,0,0,49.6-29.425c.49-.88.956-1.77,1.4-2.678a57.232,57.232,0,0,0,.476-49.367M59.972,54.6V35.117H84.817a80.96,80.96,0,0,1,2.9,19.479Zm44.248-19.479a51.13,51.13,0,0,1,4.9,19.479H93.094a87,87,0,0,0-2.708-19.479ZM59.972,29.744V5.579c9.368,1.445,18.023,10.49,23.1,24.165Zm28.81,0a63.624,63.624,0,0,0-5.753-12.46,46.258,46.258,0,0,0-6.082-8.037,52.483,52.483,0,0,1,24.324,20.5ZM59.972,80.472v-20.5H87.716a80.425,80.425,0,0,1-3.2,20.5Zm22.712,5.373c-5.167,13.271-13.5,21.756-22.712,23.148V85.846Zm-5.73,19.469a46.558,46.558,0,0,0,6.075-8.027,62.958,62.958,0,0,0,5.389-11.443h12.193a52.648,52.648,0,0,1-23.658,19.469m13.16-24.843a86.352,86.352,0,0,0,2.98-20.5h16.029a51.07,51.07,0,0,1-5.4,20.5ZM54.6,35.117V54.6H26.856a81.06,81.06,0,0,1,2.9-19.479Zm0-5.373H31.5C36.572,16.065,45.228,7.022,54.6,5.579ZM31.542,17.28a63.4,63.4,0,0,0-5.751,12.464H13.3a52.478,52.478,0,0,1,24.326-20.5,46.175,46.175,0,0,0-6.082,8.033M54.6,85.846v23.148c-9.217-1.392-17.546-9.877-22.712-23.148Zm0-5.373H30.053a80.247,80.247,0,0,1-3.194-20.5H54.6ZM24.183,35.117a87.15,87.15,0,0,0-2.7,19.479H5.446a51.13,51.13,0,0,1,4.9-19.479Zm-2.7,24.855a86.412,86.412,0,0,0,2.976,20.5H10.845a51.092,51.092,0,0,1-5.4-20.5ZM26.15,85.846a62.543,62.543,0,0,0,5.391,11.441,46.2,46.2,0,0,0,6.078,8.029A52.64,52.64,0,0,1,13.955,85.846Z" transform="translate(0 0)" fill="#cfe8ff"/>
              <path id="Trazado_1275162" data-name="Trazado 1275162" d="M21.331,79.691c1.273-6.854,2.839-15.339,3.287-17.345,0-.018,1.447,10.125,3.119,7.329,2.316-3.91,4.713-7.589,3.666-12.365a29.263,29.263,0,0,0-2.524-6.959.6.6,0,0,1-.151-.036c-3.608-1.071-5.357-4.942-6.308-8.285-.295-1.114-.488-2.641-1.342-3.467a4.748,4.748,0,0,0-1.342-1.116,6.65,6.65,0,0,1-1.045-.611c-.067-.056-.139-.085-.194-.129a5.689,5.689,0,0,1-1.548-.341,12.606,12.606,0,0,0-2.074,1.465c-3.4,2.916-5.343,7.345-6.659,11.515C6.775,53.88,6.1,63.672,6.111,63.864A71.318,71.318,0,0,0,4.858,78.456c0,.3,0,.726-.01,1.235Z" transform="translate(4.934 37.01)" fill="#ffc89f"/>
              <path id="Trazado_1275163" data-name="Trazado 1275163" d="M16.394,61.51a69.872,69.872,0,0,1-6.362-2.98,13.8,13.8,0,0,1-3.45-2.375c-.551-.638-1.065-1.269-1.55-1.927-.141,2.016-.184,4.042-.174,6.047,0,.3,0,.726-.01,1.235Z" transform="translate(4.934 55.191)" fill="#ffc89f"/>
              <path id="Trazado_1275164" data-name="Trazado 1275164" d="M45.544,62.346c.446,2.006,2.012,10.488,3.285,17.345H65.31c0-.508-.006-.938,0-1.237a70.575,70.575,0,0,0-1.241-14.59c0-.194-.66-9.984-2.1-14.518-1.35-4.173-3.267-8.6-6.655-11.515a13.286,13.286,0,0,0-2.1-1.465,5.789,5.789,0,0,1-1.534.341,2.387,2.387,0,0,1-.208.129,6.644,6.644,0,0,1-1.035.611,4.983,4.983,0,0,0-1.352,1.116c-.837.825-1.027,2.353-1.342,3.467-.942,3.343-2.684,7.214-6.291,8.285a.562.562,0,0,1-.153.036,29.988,29.988,0,0,0-2.54,6.959c-1.025,4.776,1.37,8.452,3.688,12.365,1.671,2.8,3.1-7.349,3.1-7.329" transform="translate(39.194 37.01)" fill="#ffc89f"/>
              <path id="Trazado_1275165" data-name="Trazado 1275165" d="M60.237,61.843c-.006-.508-.008-.938-.006-1.235.018-2.242-.034-4.477-.194-6.707a64.164,64.164,0,0,1-8.884,3.929c-1.945.722-3.886,1.429-5.866,2-.585.176-1.195.357-1.794.533.091.5.182.989.27,1.477Z" transform="translate(44.267 54.859)" fill="#ffc89f"/>
              <path id="Trazado_1275166" data-name="Trazado 1275166" d="M51.469,49.405c1.2-2.189,2.389-4.393,3.545-6.624,2.232-4.183,4.8-8.3,6.4-12.807A38.558,38.558,0,0,0,62.97,24.4a72.665,72.665,0,0,0-2.613-7.613H52.585l.21-1.368L18.2,16.746c-.157.638-.3,1.265-.436,1.9-.759,3.975-1.36,8-.347,11.971a28.834,28.834,0,0,0,2.718,7.32c1.114,1.907,2.423,3.666,3.606,5.515,1.762,2.744,3.206,5.559,5.176,8.13H50.04c.468-.761,1.053-1.5,1.429-2.177" transform="translate(17.186 15.688)" fill="#462b1a"/>
              <path id="Trazado_1275167" data-name="Trazado 1275167" d="M48.879,39.214a46.327,46.327,0,0,1,.543-15.535H29.633a46.84,46.84,0,0,1,.531,15.535c-7.185,1.673-12.139,5.2-12.139,9.312,0,5.714,9.631,10.369,21.515,10.369,11.856,0,21.485-4.655,21.485-10.369,0-4.11-4.95-7.639-12.147-9.312" transform="translate(18.345 24.1)" fill="#d4a47d"/>
              <g id="Grupo_1211697" data-name="Grupo 1211697" transform="translate(47.979 47.778)" opacity="0.3" style="mix-blend-mode: multiply;isolation: isolate">
                <g id="Grupo_1211696" data-name="Grupo 1211696">
                  <g id="Grupo_1211695" data-name="Grupo 1211695" clip-path="url(#clip-path-3)">
                    <path id="Trazado_1275168" data-name="Trazado 1275168" d="M43.023,39.214a46.327,46.327,0,0,1,.543-15.535H23.778c.393,2.361.686,4.375.809,6.239,2.355,4.74,7.076,5.95,11.241,8.808,1.039.775,2.4,1.951,2.4,3.093.7,4.249-.329,8.9,3.81,10.833,4.477,1.608,8.6.656,12.4-1.459a5.463,5.463,0,0,0,.732-2.667c0-4.11-4.95-7.639-12.147-9.312" transform="translate(-23.779 -23.678)" fill="#a88f7b"/>
                  </g>
                </g>
              </g>
              <path id="Trazado_1275169" data-name="Trazado 1275169" d="M53.741,30.345c0,11.308-7.456,20.458-16.64,20.458-9.219,0-16.679-9.151-16.679-20.458S21.393,6.368,37.1,6.368c16.64,0,16.64,12.67,16.64,23.977" transform="translate(20.785 6.481)" fill="#ffc89f"/>
              <path id="Trazado_1275170" data-name="Trazado 1275170" d="M35.966,6.368c-8.1,0-12.284,3.386-14.429,8.192a10.2,10.2,0,0,1,6.83-1.273c1.762-.68,2.966-.176,3.713.967a13.99,13.99,0,0,1,1.82.773A19.05,19.05,0,0,1,44.172,25.02c1.935,4.251,5.682,18.549-4.233,23.561C28.664,52.161,24.58,43.7,22.043,41.6c2.978,5.525,8.085,9.2,13.923,9.2,9.185,0,16.64-9.151,16.64-20.456s0-23.977-16.64-23.977" transform="translate(21.92 6.481)" fill="#f0b990"/>
              <path id="Trazado_1275171" data-name="Trazado 1275171" d="M24.063,20.386c.541,2.423-.085,4.627-1.447,4.95-1.322.3-2.875-1.408-3.432-3.84s.1-4.657,1.447-4.968,2.873,1.421,3.432,3.858" transform="translate(19.323 16.788)" fill="#ffc89f"/>
              <path id="Trazado_1275172" data-name="Trazado 1275172" d="M35.962,20.386c-.557,2.423.077,4.627,1.429,4.95,1.35.3,2.883-1.408,3.442-3.84s-.089-4.657-1.441-4.968-2.881,1.421-3.43,3.858" transform="translate(36.395 16.788)" fill="#ffc89f"/>
              <path id="Trazado_1275173" data-name="Trazado 1275173" d="M23.847,71.167c.26,1.16,1.6,2.936,2.211,4.6a51.257,51.257,0,0,1,1.9,8.6H77.537a34.537,34.537,0,0,1,1.766-8.6,8.311,8.311,0,0,1,1.733-2.726c.357,1.907-.472,4.705-.052,6.9.313-.155,19.153-7.9,19.011-8.469.016-.182-2.282-12.926-3.721-17.46a35.666,35.666,0,0,0-2.97-6.949c-.087-.167-.155-.3-.218-.438a20.014,20.014,0,0,0-4.976-6.055,21.491,21.491,0,0,0-2.8-1.949C81.777,34,66.748,31.774,66.748,31.774s-.383,12.157-3.293,14.82c-2.335,2.121-6.517,3.2-10.771,3.234-4.249-.036-8.45-1.114-10.785-3.234-2.912-2.663-3.273-14.82-3.273-14.82s-13,1.929-17.664,5.9a24.1,24.1,0,0,0-4.55,2.9,19.517,19.517,0,0,0-4.956,6.055,2.99,2.99,0,0,0-.236.438,36.132,36.132,0,0,0-2.954,6.949C6.823,58.552,4.9,69.938,4.8,70.576c.835.591,17.924,8.8,18.208,8.916.543-2.881.41-6.1.837-8.325" transform="translate(4.886 32.339)" fill="#fff"/>
              <path id="Trazado_1275174" data-name="Trazado 1275174" d="M62.44,63.245c-.856,1.126-1.883,2.153-2.665,3.031a46.882,46.882,0,0,0-5.769,7.014c-1.673,2.835-1.794,1.717-3.432,4.574-.89,2.7-16.572-.077-23.906,3.023,2.817,1.08,4.163,2.387,6.429,3.477H55.281a34.609,34.609,0,0,1,1.766-8.6,8.345,8.345,0,0,1,1.733-2.726c.357,1.907-.47,4.705-.05,6.9.311-.153,19.151-7.9,19.009-8.467.018-.182-2.282-12.926-3.721-17.46a35.684,35.684,0,0,0-2.97-6.951c-.087-.167-.155-.3-.216-.436a19.991,19.991,0,0,0-4.978-6.055,21.354,21.354,0,0,0-2.8-1.949C59.522,34,44.492,31.774,44.492,31.774s-.1,3.158-.591,6.614c.155.1.313.192.468.287,2.072,1.09,4.185,2.113,6.213,3.3A50.972,50.972,0,0,1,60.856,50.16c2.161,2.117,5.8,5.478,4.948,8.941a7.564,7.564,0,0,1-3.364,4.144" transform="translate(27.141 32.339)" fill="#e4e8ed"/>
              <path id="Trazado_1275175" data-name="Trazado 1275175" d="M67.583,30.644c-.767-7.817-2.768-13.959-8.5-19.778-1.255-1.281-9.584-7-17.738-6.477-9.986.63-12.1,6.372-12.1,6.372s-8.953.208-11.725,13.731c-.88,4.3-.88,8.39-1.186,12.752a47.464,47.464,0,0,0,1.186,13.144A31.647,31.647,0,0,0,21.827,61.1c1.568,2.421,11.806,1.505,13.3,3.951-8.947-15.47-9.191-33-6.751-40.789.077.563.165,1.088.228,1.578.174,1.644,5.494-8.105,6.709-9.647.163.107,11.142,9.142,10.49,7.815-.438-.833-1.483-4.72-1.806-5.593,3.2,1.586,6.267,3.416,7.657,5.474,4.393,6.487,6.443,23.16-2.115,42.147-.174.355,13.374-5.494,14.818-9.425a60.03,60.03,0,0,0,3.224-25.971" transform="translate(16.543 4.433)" fill="#7d4e24"/>
              <path id="Trazado_1275176" data-name="Trazado 1275176" d="M30.681,9.019c-.333-.125-.672-.236-1.013-.341A57.968,57.968,0,0,1,41.5,19.851a45.394,45.394,0,0,0-2.45-6.025c1.979.9,3.856,3.057,5.527,4.441A24.493,24.493,0,0,0,34.686,7.49q2.488,2.588,4.986,5.174-2.306-1.447-4.6-2.9,1.286,1.662,2.571,3.323a21.991,21.991,0,0,0-6.957-4.07" transform="translate(30.195 7.623)" fill="#a86f3d"/>
            </g>
          </g>
        </g>
      </g>
    </g>
  </g>
</svg>
