<svg xmlns="http://www.w3.org/2000/svg" xmlns:xlink="http://www.w3.org/1999/xlink" width="96" height="96" viewBox="0 0 96 96">
  <defs>
    <clipPath id="clip-path">
      <rect id="Rectángulo_454829" data-name="Rectángulo 454829" width="96" height="96" fill="#1e535a"/>
    </clipPath>
    <clipPath id="clip-path-2">
      <rect id="Rectángulo_460211" data-name="Rectángulo 460211" width="36" height="36.574" fill="#1e535a"/>
    </clipPath>
  </defs>
  <g id="Grupo_1210233" data-name="Grupo 1210233" transform="translate(-1480.965 -8563)">
    <g id="Grupo_1177591" data-name="Grupo 1177591" transform="translate(1480.965 8563)">
      <g id="Grupo_1177589" data-name="Grupo 1177589" transform="translate(0 0)">
        <g id="Grupo_1177587" data-name="Grupo 1177587" clip-path="url(#clip-path)">
          <path id="Trazado_997422" data-name="Trazado 997422" d="M92.081,42.491a44.136,44.136,0,0,0-9.97-22.967,5.076,5.076,0,0,0-7.142-6.838A44.071,44.071,0,0,0,52.151,3.77a5.077,5.077,0,0,0-9.861.2A44.132,44.132,0,0,0,20.4,13.329a5.079,5.079,0,0,0-7.048,7.1A44.1,44.1,0,0,0,4.112,42.448,5.08,5.08,0,0,0,3.99,52.4a44.082,44.082,0,0,0,8.949,22.468,5.078,5.078,0,0,0,6.9,7.17,44.128,44.128,0,0,0,22.412,9.8,5.078,5.078,0,0,0,9.949.2,44.091,44.091,0,0,0,22.985-9.08,5.077,5.077,0,0,0,7.107-6.874A44.147,44.147,0,0,0,92.2,52.349a5.078,5.078,0,0,0-.119-9.858M77.74,22.024a5.05,5.05,0,0,0,2.812-.851,41.913,41.913,0,0,1,9.25,21.3,5.086,5.086,0,0,0-3.246,2.351l-12.98-4.867c.01-.142.02-.286.02-.433a5.079,5.079,0,0,0-2.151-4.15l5.678-13.4a5.5,5.5,0,0,0,.616.041M75,21.216,69.354,34.523a5.026,5.026,0,0,0-5.594,3.23L40.279,32.344a4.941,4.941,0,0,0-.106-1.011l33.322-11.6A5.1,5.1,0,0,0,75,21.216M47.246,10.165a5.083,5.083,0,0,0,4.989-4.122,41.844,41.844,0,0,1,21.158,8.275,5.054,5.054,0,0,0-.735,2.625,5.335,5.335,0,0,0,.048.671L39.217,29.273a5.1,5.1,0,0,0-.92-.92l8.784-18.2c.056,0,.109.008.165.008M42.3,6.243A5.083,5.083,0,0,0,44.86,9.569L36.248,27.4a5.1,5.1,0,0,0-1.049-.109,5.045,5.045,0,0,0-2.9.91L22.1,19.678A5.052,5.052,0,0,0,21.923,15,41.877,41.877,0,0,1,42.3,6.243M10.041,46.332,31.153,35.442a5.064,5.064,0,0,0,4.006,2.014l7.236,23.129a5.166,5.166,0,0,0-1.12,1.239l-31.3-13.04a5.048,5.048,0,0,0,.187-1.348,5.107,5.107,0,0,0-.124-1.1m4.986-24.391a5.079,5.079,0,0,0,5.673-.484l10.079,8.417a5.068,5.068,0,0,0-.56,3.512L9.07,44.29A5.081,5.081,0,0,0,6.38,42.526a41.859,41.859,0,0,1,8.647-20.585m2.1,50.717a5.067,5.067,0,0,0-2.523.674A41.822,41.822,0,0,1,6.263,52.374,5.087,5.087,0,0,0,8.9,50.783l31.609,13.17a5.45,5.45,0,0,0-.041.611,5.081,5.081,0,0,0,.3,1.718L21.657,75.44a5.081,5.081,0,0,0-4.528-2.782M42.349,89.575a41.919,41.919,0,0,1-20.912-9.149,5.029,5.029,0,0,0,.775-2.686l0-.058L42,68.2A5.082,5.082,0,0,0,43.8,69.329l1.186,17.043a5.082,5.082,0,0,0-2.632,3.2m2.105-29.97-7.081-22.64a5.089,5.089,0,0,0,2.415-2.415L63.459,40a5.052,5.052,0,0,0,.808,2.311L48.032,60.13a5.019,5.019,0,0,0-3.577-.524m7.74,30.167a5.081,5.081,0,0,0-4.948-3.937l-.038,0L46.081,69.62a5.073,5.073,0,0,0,3.106-1.507L72.853,78.551c0,.046-.008.086-.008.132a5.057,5.057,0,0,0,.752,2.65,41.841,41.841,0,0,1-21.4,8.439M73.423,76.334,50.373,66.165a5.052,5.052,0,0,0-.666-4.52L65.893,43.877a5.052,5.052,0,0,0,2.622.735,5.594,5.594,0,0,0,.623-.041l6.05,29.836a5.071,5.071,0,0,0-1.766,1.928m7.292-1.9a5.051,5.051,0,0,0-3.377-.8L71.285,43.788a5.1,5.1,0,0,0,1.6-1.672L85.858,46.98a4.506,4.506,0,0,0-.023.456,5.08,5.08,0,0,0,4.084,4.981,41.876,41.876,0,0,1-9.2,22.017" transform="translate(0 0.001)" fill="#1e535a"/>
        </g>
      </g>
    </g>
    <g id="Elipse_13614" data-name="Elipse 13614" transform="translate(1497.766 8579.268)" fill="#d5f4f8" stroke="#1e535a" stroke-width="3">
      <ellipse cx="31.232" cy="31.233" rx="31.232" ry="31.233" stroke="none"/>
      <ellipse cx="31.232" cy="31.233" rx="29.732" ry="29.733" fill="none"/>
    </g>
    <g id="Grupo_1210259" data-name="Grupo 1210259" transform="translate(1510.965 8592)">
      <g id="Grupo_1210258" data-name="Grupo 1210258" clip-path="url(#clip-path-2)">
        <path id="Trazado_1272120" data-name="Trazado 1272120" d="M8.733,18.779A10.263,10.263,0,1,0,13.4,14.006l-1.667-3.662a3.884,3.884,0,0,0,3.078-2.529c.289-.9-.013-2.327,1.194-2.469a26.921,26.921,0,0,1,4.1.009c1.051.166.827,1.575,1.067,2.374a4.008,4.008,0,0,0,5.209,2.446c.834-.312,1.586-1.367,2.359-1.253.806.118,2.777,2.56,3.463,3.2.345,1.111-.376,1.34-.844,2.143a3.988,3.988,0,0,0,2.215,5.814c.962.26,2.235-.046,2.359,1.3a26,26,0,0,1,0,3.782c-.15,1.271-1.584.96-2.5,1.27a4,4,0,0,0-1.876,6.1c.411.622,1,.766.654,1.778a28.166,28.166,0,0,1-2.712,2.838c-1.32,1.017-1.666-.158-2.66-.675a4.012,4.012,0,0,0-5.726,2.5c-.292,1.184.092,2.114-1.546,2.228a23.857,23.857,0,0,1-3.334,0c-1.377-.157-1.086-1.238-1.329-2.223a3.994,3.994,0,0,0-5.8-2.461c-.96.526-1.287,1.639-2.588.636a28.341,28.341,0,0,1-2.67-2.769c-.5-1.159.618-1.619,1.028-2.541a4.022,4.022,0,0,0-2.291-5.408c-.92-.31-2.354,0-2.5-1.27a25.943,25.943,0,0,1,0-3.89c.136-1.156,1.293-.948,2.1-1.123a4.018,4.018,0,0,0,1.512-.708c.138-.105.622-.663.669-.663Z" transform="translate(0 -4.687)" fill="#1e535a"/>
        <path id="Trazado_1272121" data-name="Trazado 1272121" d="M9.444.017a1.42,1.42,0,0,1,1.34.608l5.26,10.5a1.362,1.362,0,0,1-.585,1.8L4.2,12.985c-1.045-.248-1.171-1.026-.814-1.929C4.748,7.61,7.112,4.154,8.561.7A1.484,1.484,0,0,1,9.444.017m-.01,2.772c-.222.076-.274.384-.3.59a33.879,33.879,0,0,0,0,5c.107.934.98.762,1.106-.008a33.54,33.54,0,0,0,.008-4.99.8.8,0,0,0-.222-.554.859.859,0,0,0-.594-.037m.119,6.992a.777.777,0,0,0,.187,1.536c1-.064.846-1.719-.187-1.536" transform="translate(-2.847 0)" fill="#1e535a"/>
        <path id="Trazado_1272122" data-name="Trazado 1272122" d="M123.455,123.388c-.026-1.424.033-2.854,0-4.278-.011-.553-.371-1.8.11-2.212a8.16,8.16,0,0,1,3.252-.068.253.253,0,0,1,.111.145l.185,6.412h2.775l-4.606,4.333-4.606-4.333Z" transform="translate(-107.285 -103.746)" fill="#1e535a"/>
      </g>
    </g>
  </g>
</svg>
