<svg id="Grupo_1210200" data-name="Grupo 1210200" xmlns="http://www.w3.org/2000/svg" xmlns:xlink="http://www.w3.org/1999/xlink" width="128" height="128" viewBox="0 0 128 128">
  <defs>
    <clipPath id="clip-path">
      <rect id="Rectángulo_454829" data-name="Rectángulo 454829" width="128" height="128" fill="#1e535a"/>
    </clipPath>
    <clipPath id="clip-path-2">
      <rect id="Rectángulo_460734" data-name="Rectángulo 460734" width="45" height="45" fill="#1e535a"/>
    </clipPath>
  </defs>
  <g id="Grupo_1177591" data-name="Grupo 1177591">
    <g id="Grupo_1177589" data-name="Grupo 1177589" transform="translate(0 0)">
      <g id="Grupo_1177587" data-name="Grupo 1177587" clip-path="url(#clip-path)">
        <path id="Trazado_997422" data-name="Trazado 997422" d="M122.774,56.654a58.848,58.848,0,0,0-13.293-30.623,6.768,6.768,0,0,0-9.523-9.118A58.761,58.761,0,0,0,69.535,5.027a6.769,6.769,0,0,0-13.148.267A58.842,58.842,0,0,0,27.2,17.772a6.771,6.771,0,0,0-9.4,9.462A58.794,58.794,0,0,0,5.483,56.6a6.774,6.774,0,0,0-.162,13.266A58.776,58.776,0,0,0,17.252,99.82a6.771,6.771,0,0,0,9.2,9.56,58.838,58.838,0,0,0,29.883,13.07,6.771,6.771,0,0,0,13.266.267,58.788,58.788,0,0,0,30.646-12.107,6.769,6.769,0,0,0,9.476-9.165A58.863,58.863,0,0,0,122.933,69.8a6.771,6.771,0,0,0-.159-13.144m-19.12-27.288a6.733,6.733,0,0,0,3.75-1.135,55.884,55.884,0,0,1,12.333,28.407,6.781,6.781,0,0,0-4.327,3.135L98.1,53.283c.013-.189.027-.382.027-.578a6.772,6.772,0,0,0-2.868-5.533l7.57-17.86a7.335,7.335,0,0,0,.821.054M100,28.288,92.472,46.03a6.7,6.7,0,0,0-7.459,4.307L53.705,43.125a6.588,6.588,0,0,0-.142-1.348L97.992,26.305a6.793,6.793,0,0,0,2,1.983M63,13.553a6.777,6.777,0,0,0,6.651-5.5A55.792,55.792,0,0,1,97.857,19.09a6.739,6.739,0,0,0-.98,3.5,7.114,7.114,0,0,0,.064.9L52.29,39.031A6.8,6.8,0,0,0,51.064,37.8L62.775,13.543c.074,0,.145.01.22.01M56.4,8.324a6.778,6.778,0,0,0,3.409,4.435L48.331,36.538a6.8,6.8,0,0,0-1.4-.145,6.727,6.727,0,0,0-3.861,1.213L29.461,26.238A6.736,6.736,0,0,0,29.231,20,55.836,55.836,0,0,1,56.4,8.324M13.387,61.776l28.15-14.519a6.751,6.751,0,0,0,5.341,2.686l9.648,30.839a6.887,6.887,0,0,0-1.493,1.652L13.3,65.046a6.731,6.731,0,0,0,.25-1.8,6.81,6.81,0,0,0-.166-1.473m6.648-32.521a6.771,6.771,0,0,0,7.564-.645L41.037,39.831a6.758,6.758,0,0,0-.747,4.682l-28.2,14.539A6.774,6.774,0,0,0,8.506,56.7,55.812,55.812,0,0,1,20.036,29.254m2.8,67.623a6.756,6.756,0,0,0-3.365.9A55.762,55.762,0,0,1,8.351,69.832a6.783,6.783,0,0,0,3.517-2.121L54.013,85.27a7.266,7.266,0,0,0-.054.814,6.775,6.775,0,0,0,.405,2.29L28.876,100.587a6.775,6.775,0,0,0-6.037-3.709m33.626,22.556a55.892,55.892,0,0,1-27.883-12.2,6.705,6.705,0,0,0,1.034-3.581l0-.078L56,90.929a6.776,6.776,0,0,0,2.392,1.51l1.581,22.725a6.776,6.776,0,0,0-3.51,4.27m2.807-39.96L49.831,49.287a6.786,6.786,0,0,0,3.219-3.219l31.562,7.266a6.736,6.736,0,0,0,1.078,3.081L64.042,80.173a6.692,6.692,0,0,0-4.77-.7M69.592,119.7a6.774,6.774,0,0,0-6.6-5.25l-.051,0-1.5-21.623a6.764,6.764,0,0,0,4.142-2.01l31.555,13.918c0,.061-.01.115-.01.176a6.743,6.743,0,0,0,1,3.534A55.789,55.789,0,0,1,69.592,119.7M97.9,101.779,67.164,88.22a6.736,6.736,0,0,0-.888-6.027L87.858,58.5a6.736,6.736,0,0,0,3.5.98,7.46,7.46,0,0,0,.831-.054l8.067,39.781a6.761,6.761,0,0,0-2.355,2.571m9.722-2.534a6.735,6.735,0,0,0-4.5-1.064l-8.07-39.8a6.8,6.8,0,0,0,2.135-2.23l17.3,6.486a6.009,6.009,0,0,0-.03.608,6.774,6.774,0,0,0,5.445,6.641A55.835,55.835,0,0,1,107.62,99.246" transform="translate(0 0.001)" fill="#1e535a"/>
      </g>
    </g>
  </g>
  <g id="Elipse_13614" data-name="Elipse 13614" transform="translate(23.745 24.773)" fill="#fff" stroke="#1e535a" stroke-width="3">
    <ellipse cx="39.732" cy="39.733" rx="39.732" ry="39.733" stroke="none"/>
    <ellipse cx="39.732" cy="39.733" rx="38.232" ry="38.233" fill="none"/>
  </g>
  <g id="Grupo_1211010" data-name="Grupo 1211010" transform="translate(41.745 41.773)">
    <g id="Grupo_1211009" data-name="Grupo 1211009" clip-path="url(#clip-path-2)">
      <path id="Trazado_1273350" data-name="Trazado 1273350" d="M45.13,121.841a6.442,6.442,0,0,0-5.121-5.018l2.41-4.794L60.3,94.166l7.44,7.435L49.864,119.466Z" transform="translate(-34.85 -82.033)" fill="#1e535a"/>
      <path id="Trazado_1273351" data-name="Trazado 1273351" d="M0,25.33V20.236a1.478,1.478,0,0,1,1.012-1.443l2.415-1.167a19.323,19.323,0,0,1,2.2-5.159L4.507,10.194a1.337,1.337,0,0,1,.344-1.475L8.6,4.99a1.413,1.413,0,0,1,1.693-.068l1.926.971a19.271,19.271,0,0,1,5.159-2.208L18.731.925A1.406,1.406,0,0,1,19.973.266l5.186,0a1.371,1.371,0,0,1,1.115.654l1.349,2.746,2.109.689L25.5,8.6A14.449,14.449,0,0,0,8.343,25.743C7.323,26.773,6.3,27.707,5.358,28.8c-.426.5-.558,1.229-.958,1.793-.391-.948-.682-1.764-.984-2.727L.836,26.6A1.4,1.4,0,0,1,0,25.33" transform="translate(0 -0.232)" fill="#1e535a"/>
      <path id="Trazado_1273352" data-name="Trazado 1273352" d="M131.466,142.951a19.026,19.026,0,0,1-5.2,2.078l-.8,2.373a1.347,1.347,0,0,1-1.245.944h-5.291a1.346,1.346,0,0,1-1.206-.847l-.809-2.431a20.8,20.8,0,0,1-3.172-1.141,19.652,19.652,0,0,0,1.847-.989c1.058-.945,1.982-1.929,2.988-2.93a14.453,14.453,0,0,0,17.162-17.149l4.243-4.229.8,2.555,2.349.787a1.327,1.327,0,0,1,.944,1.246V128.5a1.363,1.363,0,0,1-1.035,1.288l-2.254.734a19.5,19.5,0,0,1-2.1,5.195l.9,2.692a1.4,1.4,0,0,1-.357,1.481l-3.679,3.672a1.4,1.4,0,0,1-1.409.3Z" transform="translate(-99.08 -103.346)" fill="#1e535a"/>
      <path id="Trazado_1273353" data-name="Trazado 1273353" d="M252.356,13.442l-7.443-7.43L249.5,1.377a5.346,5.346,0,0,1,6.915-.217,5.3,5.3,0,0,1,.586,7.6Z" transform="translate(-213.334 0)" fill="#1e535a"/>
      <path id="Trazado_1273354" data-name="Trazado 1273354" d="M95.288,83.2,82.875,95.613A11.716,11.716,0,0,1,95.288,83.2" transform="translate(-72.172 -72.465)" fill="#1e535a"/>
      <path id="Trazado_1273355" data-name="Trazado 1273355" d="M169.744,182.216,182.158,169.8a11.717,11.717,0,0,1-12.414,12.413" transform="translate(-147.857 -147.925)" fill="#1e535a"/>
      <path id="Trazado_1273356" data-name="Trazado 1273356" d="M219.271,70.93,211.826,63.5l2.4-2.4,7.439,7.432Z" transform="translate(-184.513 -53.225)" fill="#1e535a"/>
      <path id="Trazado_1273357" data-name="Trazado 1273357" d="M15.338,295.056a1.322,1.322,0,0,1-1.533-.286,1.336,1.336,0,0,1-.2-1.511l2.041-4.083a3.882,3.882,0,0,1,3.842,3.8Z" transform="translate(-11.721 -251.919)" fill="#1e535a"/>
    </g>
  </g>
</svg>
