<svg xmlns="http://www.w3.org/2000/svg" xmlns:xlink="http://www.w3.org/1999/xlink" width="138.666" height="138.666" viewBox="0 0 138.666 138.666">
  <defs>
    <clipPath id="clip-path">
      <rect id="Rectángulo_454829" data-name="Rectángulo 454829" width="138.666" height="138.666" fill="#1e535a"/>
    </clipPath>
    <clipPath id="clip-path-2">
      <rect id="Rectángulo_459968" data-name="Rectángulo 459968" width="61.191" height="55.475" fill="#1e535a"/>
    </clipPath>
  </defs>
  <g id="Grupo_1208908" data-name="Grupo 1208908" transform="translate(-1481 -8562.5)">
    <g id="Grupo_1177591" data-name="Grupo 1177591" transform="translate(1481 8562.5)">
      <g id="Grupo_1177589" data-name="Grupo 1177589" transform="translate(0 0)">
        <g id="Grupo_1177587" data-name="Grupo 1177587" clip-path="url(#clip-path)">
          <path id="Trazado_997422" data-name="Trazado 997422" d="M133,61.375A63.752,63.752,0,0,0,118.6,28.2a7.332,7.332,0,0,0-10.316-9.877A63.658,63.658,0,0,0,75.329,5.445a7.333,7.333,0,0,0-14.243.289A63.745,63.745,0,0,0,29.463,19.253,7.336,7.336,0,0,0,19.282,29.5,63.693,63.693,0,0,0,5.94,61.313a7.338,7.338,0,0,0-.176,14.371A63.674,63.674,0,0,0,18.69,108.138a7.335,7.335,0,0,0,9.965,10.357,63.741,63.741,0,0,0,32.373,14.159,7.335,7.335,0,0,0,14.371.289,63.687,63.687,0,0,0,33.2-13.116,7.333,7.333,0,0,0,10.265-9.929,63.768,63.768,0,0,0,14.313-34.283A7.336,7.336,0,0,0,133,61.375M112.291,31.813a7.294,7.294,0,0,0,4.062-1.23,60.541,60.541,0,0,1,13.361,30.774,7.346,7.346,0,0,0-4.688,3.4l-18.748-7.03c.015-.2.029-.414.029-.626A7.336,7.336,0,0,0,103.2,51.1l8.2-19.348a7.946,7.946,0,0,0,.889.059m-3.963-1.167-8.15,19.22a7.26,7.26,0,0,0-8.08,4.666L58.18,46.719a7.137,7.137,0,0,0-.154-1.46L106.158,28.5a7.359,7.359,0,0,0,2.17,2.148M68.244,14.682A7.341,7.341,0,0,0,75.45,8.728,60.441,60.441,0,0,1,106.011,20.68a7.3,7.3,0,0,0-1.061,3.791,7.707,7.707,0,0,0,.07.97L56.647,42.283a7.363,7.363,0,0,0-1.328-1.328L68.006,14.671c.081,0,.157.011.238.011M61.1,9.017A7.343,7.343,0,0,0,64.8,13.822L52.358,39.582a7.362,7.362,0,0,0-1.515-.157,7.288,7.288,0,0,0-4.183,1.314L31.915,28.424a7.3,7.3,0,0,0-.249-6.756A60.489,60.489,0,0,1,61.1,9.017M14.5,66.923,45,51.194A7.314,7.314,0,0,0,50.784,54.1L61.236,87.512a7.461,7.461,0,0,0-1.618,1.79L14.412,70.466a7.292,7.292,0,0,0,.271-1.947,7.377,7.377,0,0,0-.179-1.6m7.2-35.231a7.336,7.336,0,0,0,8.194-.7L44.457,43.15a7.321,7.321,0,0,0-.809,5.072L13.1,63.974a7.339,7.339,0,0,0-3.886-2.547,60.462,60.462,0,0,1,12.49-29.734m3.037,73.258a7.319,7.319,0,0,0-3.645.973A60.409,60.409,0,0,1,9.047,75.651a7.348,7.348,0,0,0,3.81-2.3L58.513,92.376a7.871,7.871,0,0,0-.059.882,7.34,7.34,0,0,0,.439,2.481L31.282,108.969a7.34,7.34,0,0,0-6.54-4.018M61.17,129.385a60.549,60.549,0,0,1-30.206-13.215,7.264,7.264,0,0,0,1.12-3.879l0-.084,28.589-13.7a7.341,7.341,0,0,0,2.591,1.636l1.713,24.618a7.341,7.341,0,0,0-3.8,4.626M64.211,86.1l-10.229-32.7a7.351,7.351,0,0,0,3.488-3.488l34.192,7.872a7.3,7.3,0,0,0,1.167,3.338L69.379,86.853a7.25,7.25,0,0,0-5.167-.758m11.18,43.575a7.338,7.338,0,0,0-7.147-5.687l-.055,0-1.629-23.425a7.328,7.328,0,0,0,4.487-2.177l34.184,15.078c0,.066-.011.124-.011.19a7.3,7.3,0,0,0,1.087,3.828,60.437,60.437,0,0,1-30.916,12.19m30.664-19.411-33.3-14.69a7.3,7.3,0,0,0-.962-6.529L95.179,63.377a7.3,7.3,0,0,0,3.788,1.061,8.082,8.082,0,0,0,.9-.059l8.739,43.1a7.324,7.324,0,0,0-2.551,2.785m10.532-2.745a7.3,7.3,0,0,0-4.878-1.153l-8.743-43.114a7.37,7.37,0,0,0,2.313-2.415l18.737,7.026a6.508,6.508,0,0,0-.033.659,7.338,7.338,0,0,0,5.9,7.195,60.488,60.488,0,0,1-13.3,31.8" transform="translate(0 0.001)" fill="#1e535a"/>
        </g>
      </g>
    </g>
    <g id="Elipse_13614" data-name="Elipse 13614" transform="translate(1505.217 8586.72)" fill="#d5f4f8" stroke="#1e535a" stroke-width="3">
      <ellipse cx="45.113" cy="45.114" rx="45.113" ry="45.114" stroke="none"/>
      <ellipse cx="45.113" cy="45.114" rx="43.613" ry="43.614" fill="none"/>
    </g>
    <g id="Grupo_1208923" data-name="Grupo 1208923" transform="translate(1520.971 8604.096)">
      <rect id="Rectángulo_459966" data-name="Rectángulo 459966" width="2.061" height="55.474" transform="translate(29.142 0.001)" fill="#1e535a"/>
      <rect id="Rectángulo_459967" data-name="Rectángulo 459967" width="61.19" height="2.343" transform="translate(0 27.644)" fill="#1e535a"/>
      <g id="Grupo_1208922" data-name="Grupo 1208922" transform="translate(0 0)">
        <g id="Grupo_1208921" data-name="Grupo 1208921" clip-path="url(#clip-path-2)">
          <path id="Trazado_1271785" data-name="Trazado 1271785" d="M30.732,48.448c-8.7,0-23.558-2.46-25.248-18.94a20.739,20.739,0,0,1,5.06-16.349c4.8-5.388,12.423-8.545,20.92-8.66,15.3-.2,25.3,8.867,27.509,24.894l-2.506.346C54.419,14.9,45.515,6.835,31.5,7.029c-7.789.105-14.738,2.953-19.065,7.812A18.267,18.267,0,0,0,8,29.249c1.413,13.777,13.14,16.669,22.73,16.669,4.545,0,10.759-1.392,14.57-5.3,2.665-2.733,3.958-6.44,3.843-11.019-.139-5.586-1.718-9.828-4.693-12.608-3.825-3.575-9.239-4.127-13.105-3.964A18.494,18.494,0,0,0,18.42,18.7a13.5,13.5,0,0,0-3.294,10.39c.288,3.745,1.622,6.564,3.962,8.377,4.441,3.441,11.166,2.295,11.234,2.282l.131-.023.134,0c.054,0,5.981.137,9.516-3.293a9.422,9.422,0,0,0,2.671-7.061c0-3.409-.986-6.072-2.93-7.916-3.429-3.252-8.806-3.006-8.854-3-.079,0-5.189.218-7.895,3.379a8.05,8.05,0,0,0-1.6,6.452,5.464,5.464,0,0,0,2.047,3.866c2.717,2.124,7.175,1.6,7.22,1.59l.159-.019.161.02a5.113,5.113,0,0,0,3.422-.929,4.678,4.678,0,0,0,1.529-3.365c.39-4.293-1.139-4.441-3.915-4.711-.329-.032-.658-.064-.979-.1a2.228,2.228,0,0,0-2.317,1.149c-.239.753.65,1.774,2.319,2.665l-1.191,2.232c-4.118-2.2-3.847-4.692-3.54-5.662a4.671,4.671,0,0,1,5.042-2.894c.3.037.6.067.91.1,2.711.263,6.808.661,6.189,7.458A7.075,7.075,0,0,1,36.069,34.8a7.61,7.61,0,0,1-5.139,1.469c-.918.094-5.666.433-8.935-2.113a7.974,7.974,0,0,1-3.013-5.565,10.458,10.458,0,0,1,2.2-8.414c3.443-4.007,9.441-4.239,9.7-4.247.229-.01,6.453-.32,10.688,3.68,2.479,2.34,3.735,5.627,3.735,9.767a11.854,11.854,0,0,1-3.451,8.89c-4.037,3.906-10.2,4.02-11.214,4-1.078.173-8.061,1.1-13.086-2.783-2.937-2.27-4.6-5.7-4.948-10.194a16.147,16.147,0,0,1,3.923-12.264A21.064,21.064,0,0,1,31.24,10.5c4.346-.186,10.474.471,14.939,4.644,3.49,3.262,5.338,8.1,5.5,14.394.132,5.287-1.4,9.61-4.562,12.85-5.488,5.626-13.926,6.064-16.382,6.064" transform="translate(-0.839 -0.704)" fill="#1e535a"/>
        </g>
      </g>
    </g>
  </g>
</svg>
