<svg xmlns="http://www.w3.org/2000/svg" xmlns:xlink="http://www.w3.org/1999/xlink" width="85" height="85" viewBox="0 0 85 85">
  <defs>
    <clipPath id="clip-path">
      <rect id="Rectángulo_460175" data-name="Rectángulo 460175" width="63.075" height="64" fill="#344866"/>
    </clipPath>
  </defs>
  <g id="Grupo_1177802" data-name="Grupo 1177802" transform="translate(-179.379 -5519.007)">
    <rect id="Rectángulo_402006" data-name="Rectángulo 402006" width="85" height="85" rx="5" transform="translate(179.379 5519.007)" fill="#69d7e5"/>
    <g id="Grupo_1210225" data-name="Grupo 1210225" transform="translate(190.379 5530.007)">
      <g id="Grupo_1210224" data-name="Grupo 1210224" clip-path="url(#clip-path)">
        <path id="Trazado_1272079" data-name="Trazado 1272079" d="M52.446,6.458h4.81A6.138,6.138,0,0,1,62.8,11.284c-.56,10.879.8,22.6.024,33.379a5.945,5.945,0,0,1-5.761,5.557h-15V55.5h7.074a6.408,6.408,0,0,1,3.194,1.9c.915,1.234,1.855,6.679-.733,6.6l-40.9-.05c-1.839-.408-1.121-5.329-.217-6.549a6.411,6.411,0,0,1,3.195-1.9h7.073V50.22h-15A5.949,5.949,0,0,1,0,44.663L.024,11.284A6.138,6.138,0,0,1,5.572,6.458H23.964C23.41,2.826,25.433.3,29.251,1.265c.732.186,2.258,1.578,2.258,2.269V6.458h3.206c-.2-.51-.672-.93-.492-1.513A20.908,20.908,0,0,1,36.687,2.3c.877-.516,1.475.572,2.557.308a11.486,11.486,0,0,0,1.408-.679c.383-.37.342-1.2.855-1.6.553-.423,3.068-.4,3.722-.141.973.39.765,1.472,1.186,1.832a5.436,5.436,0,0,0,2.117.634c.724-.125.862-.872,1.909-.321a27.545,27.545,0,0,1,2.284,2.242c.351.762-.141,1.2-.28,1.883M44.76,3.582c-.255-.272-.256-1.162-.609-1.371-1.915-.706-1.118.959-2.215,1.565-.207.114-2.655,1.145-2.8,1.168-.823.128-1.293-.579-1.958-.28-1.08.486-.277,1.325-.2,1.9a10.746,10.746,0,0,1-1.509,3.753c-.871.636-1.424.111-1.106,1.962,1.614.135,1.56,1.2,2.015,2.416.13.348.486.677.56.954.3,1.12-1.114,1.956.542,2.846.316.061.792-.443,1.152-.505a15.7,15.7,0,0,1,3.715,1.488c.191.248.354,1.258.608,1.318l1.361-.029a2.723,2.723,0,0,1,.674-1.494c.124-.1,2.727-1.185,2.932-1.235.885-.219,1.386.946,2.271.023.794-.827-.282-1.254-.167-2.036a23.2,23.2,0,0,1,1.567-3.352c.442-.328,1.107-.2,1.232-.844.317-1.639-.922-1.073-1.461-1.65A12.085,12.085,0,0,1,50.7,8.3c-.227-.584-.805-.94-.673-1.7.092-.528.727-.8.362-1.371-.78-1.212-1.27-.36-2.013-.279A23.053,23.053,0,0,1,44.76,3.582M29.434,26.641V3.912c0-.9-3.4-.993-3.4.188V26.641ZM23.964,8.533H5.384a12.41,12.41,0,0,0-1.4.489,3.592,3.592,0,0,0-1.9,2.811L2.075,44.663C2.3,47.145,4.22,48.1,6.507,48.154l50,0c2.272-.172,3.981-1.019,4.244-3.49l-.007-32.829a3.594,3.594,0,0,0-1.905-2.811,12.405,12.405,0,0,0-1.4-.489H53.2c.311.546,1.171.446,1.523,1.026a2.436,2.436,0,0,1,.184.851c.226.234,3.594-.628,3.948,1.239l.014,29.62c.007.669-.639,1-1.231,1.033l-52.263,0-1.312-.574-.1-29.908c-.137-.424,1.007-1.4,1.236-1.4H23.964Zm9.809,0-2.264,0,0,1.888h.751c-.273-1.444.867-1.086,1.512-1.884m-9.809,3.96H6.044V40.222H56.785V12.494l-1.879.008c.253,1.636-1.342,1.31-1.85,1.733a16.451,16.451,0,0,0-.785,1.937c0,.589.808,1.068.516,2.035a27.125,27.125,0,0,1-2.42,2.491c-.867.4-1.526-.546-2.312-.435a15.132,15.132,0,0,0-1.558.712c-.545.444-.388,1.436-1.075,1.755a11.048,11.048,0,0,1-3.079.151c-1.633-.157-1.017-1.527-1.91-2.051-.116-.068-1.574-.587-1.662-.588-.9,0-1.069,1.2-2.55.085a10.706,10.706,0,0,1-2.035-2.312c-.12-.572.541-1.235.541-1.841a8.99,8.99,0,0,0-.677-1.787c-.26-.308-1.163-.362-1.515-.748-.432-.473-.109-1.316-1.026-1.143V28.056A38.3,38.3,0,0,1,28.256,33.3a1.058,1.058,0,0,1-1.283-.191c-.3-.875-3.009-4.716-3.009-5.237Zm4.715,16.224h-1.7c-.155.14.6,1.4.849,1.507ZM40,50.22H22.832v5l.283.283h16.6L40,55.219Zm-26.079,7.4c-2.02.4-2.634,2.424-2.038,4.211h39.07c.618-1.84-.074-3.951-2.2-4.24Z" transform="translate(0 0)" fill="#344866"/>
        <path id="Trazado_1272080" data-name="Trazado 1272080" d="M91.93,12.744c7.745-.456,8.437,11.2.883,11.831-7.894.656-8.668-11.372-.883-11.831m0,2.065c-4.981.493-4.31,8.119.7,7.7,5.1-.43,4.261-8.188-.7-7.7" transform="translate(-48.76 -7.179)" fill="#344866"/>
        <path id="Trazado_1272081" data-name="Trazado 1272081" d="M32.882,33.018H20.573a1.018,1.018,0,1,0,0,2.035H32.882a1.018,1.018,0,0,0,0-2.035" transform="translate(-11.026 -18.618)" fill="#344866"/>
        <path id="Trazado_1272082" data-name="Trazado 1272082" d="M32.882,42.129H20.573a1.018,1.018,0,1,0,0,2.035H32.882a1.018,1.018,0,0,0,0-2.035" transform="translate(-11.026 -23.755)" fill="#344866"/>
        <path id="Trazado_1272083" data-name="Trazado 1272083" d="M32.882,51.685H20.573a1.018,1.018,0,1,0,0,2.035H32.882a1.018,1.018,0,0,0,0-2.035" transform="translate(-11.026 -29.143)" fill="#344866"/>
        <path id="Trazado_1272084" data-name="Trazado 1272084" d="M32.882,61.24H20.573a1.018,1.018,0,1,0,0,2.035H32.882a1.018,1.018,0,0,0,0-2.035" transform="translate(-11.026 -34.531)" fill="#344866"/>
        <path id="Trazado_1272085" data-name="Trazado 1272085" d="M32.882,70.8H20.573a1.018,1.018,0,1,0,0,2.035H32.882a1.018,1.018,0,0,0,0-2.035" transform="translate(-11.026 -39.919)" fill="#344866"/>
        <path id="Trazado_1272086" data-name="Trazado 1272086" d="M100.284,57.6,96.6,69.345a1.018,1.018,0,1,0,1.942.609l3.686-11.743a1.018,1.018,0,0,0-1.942-.61" transform="translate(-54.441 -32.077)" fill="#344866"/>
        <path id="Trazado_1272087" data-name="Trazado 1272087" d="M44.464,81.907H20.573a1.018,1.018,0,0,0,0,2.035H44.464a1.018,1.018,0,0,0,0-2.035" transform="translate(-11.027 -46.185)" fill="#344866"/>
        <path id="Trazado_1272088" data-name="Trazado 1272088" d="M86.077,71.333a1.087,1.087,0,0,1-.771-.319l-4.264-4.265a1.09,1.09,0,0,1,0-1.542l3.925-3.925a1.09,1.09,0,0,1,1.542,1.542l-3.154,3.154,3.493,3.493a1.09,1.09,0,0,1-.771,1.861" transform="translate(-45.517 -34.375)" fill="#344866"/>
        <path id="Trazado_1272089" data-name="Trazado 1272089" d="M111.368,72.222a1.09,1.09,0,0,1-.771-1.861l3.493-3.493-3.154-3.154a1.09,1.09,0,0,1,1.542-1.542L116.4,66.1a1.09,1.09,0,0,1,0,1.542L112.139,71.9a1.087,1.087,0,0,1-.771.319" transform="translate(-62.182 -34.876)" fill="#344866"/>
      </g>
    </g>
  </g>
</svg>
