<svg xmlns="http://www.w3.org/2000/svg" xmlns:xlink="http://www.w3.org/1999/xlink" width="128" height="128" viewBox="0 0 128 128">
  <defs>
    <clipPath id="clip-path">
      <rect id="Rectángulo_454829" data-name="Rectángulo 454829" width="128" height="128" fill="#1e535a"/>
    </clipPath>
    <clipPath id="clip-path-2">
      <rect id="Rectángulo_460737" data-name="Rectángulo 460737" width="47.976" height="48" fill="#1e535a"/>
    </clipPath>
  </defs>
  <g id="Grupo_1210280" data-name="Grupo 1210280" transform="translate(-0.391 0.227)">
    <g id="Grupo_1177591" data-name="Grupo 1177591" transform="translate(0.391 -0.227)">
      <g id="Grupo_1177589" data-name="Grupo 1177589" transform="translate(0 0)">
        <g id="Grupo_1177587" data-name="Grupo 1177587" clip-path="url(#clip-path)">
          <path id="Trazado_997422" data-name="Trazado 997422" d="M122.774,56.654a58.848,58.848,0,0,0-13.293-30.623,6.768,6.768,0,0,0-9.523-9.118A58.761,58.761,0,0,0,69.535,5.027a6.769,6.769,0,0,0-13.148.267A58.842,58.842,0,0,0,27.2,17.772a6.771,6.771,0,0,0-9.4,9.462A58.794,58.794,0,0,0,5.483,56.6a6.774,6.774,0,0,0-.162,13.266A58.776,58.776,0,0,0,17.252,99.82a6.771,6.771,0,0,0,9.2,9.56,58.838,58.838,0,0,0,29.883,13.07,6.771,6.771,0,0,0,13.266.267,58.788,58.788,0,0,0,30.646-12.107,6.769,6.769,0,0,0,9.476-9.165A58.863,58.863,0,0,0,122.933,69.8a6.771,6.771,0,0,0-.159-13.144m-19.12-27.288a6.733,6.733,0,0,0,3.75-1.135,55.884,55.884,0,0,1,12.333,28.407,6.781,6.781,0,0,0-4.327,3.135L98.1,53.283c.013-.189.027-.382.027-.578a6.772,6.772,0,0,0-2.868-5.533l7.57-17.86a7.335,7.335,0,0,0,.821.054M100,28.288,92.472,46.03a6.7,6.7,0,0,0-7.459,4.307L53.705,43.125a6.588,6.588,0,0,0-.142-1.348L97.992,26.305a6.793,6.793,0,0,0,2,1.983M63,13.553a6.777,6.777,0,0,0,6.651-5.5A55.792,55.792,0,0,1,97.857,19.09a6.739,6.739,0,0,0-.98,3.5,7.114,7.114,0,0,0,.064.9L52.29,39.031A6.8,6.8,0,0,0,51.064,37.8L62.775,13.543c.074,0,.145.01.22.01M56.4,8.324a6.778,6.778,0,0,0,3.409,4.435L48.331,36.538a6.8,6.8,0,0,0-1.4-.145,6.727,6.727,0,0,0-3.861,1.213L29.461,26.238A6.736,6.736,0,0,0,29.231,20,55.836,55.836,0,0,1,56.4,8.324M13.387,61.776l28.15-14.519a6.751,6.751,0,0,0,5.341,2.686l9.648,30.839a6.887,6.887,0,0,0-1.493,1.652L13.3,65.046a6.731,6.731,0,0,0,.25-1.8,6.81,6.81,0,0,0-.166-1.473m6.648-32.521a6.771,6.771,0,0,0,7.564-.645L41.037,39.831a6.758,6.758,0,0,0-.747,4.682l-28.2,14.539A6.774,6.774,0,0,0,8.506,56.7,55.812,55.812,0,0,1,20.036,29.254m2.8,67.623a6.756,6.756,0,0,0-3.365.9A55.762,55.762,0,0,1,8.351,69.832a6.783,6.783,0,0,0,3.517-2.121L54.013,85.27a7.266,7.266,0,0,0-.054.814,6.775,6.775,0,0,0,.405,2.29L28.876,100.587a6.775,6.775,0,0,0-6.037-3.709m33.626,22.556a55.892,55.892,0,0,1-27.883-12.2,6.705,6.705,0,0,0,1.034-3.581l0-.078L56,90.929a6.776,6.776,0,0,0,2.392,1.51l1.581,22.725a6.776,6.776,0,0,0-3.51,4.27m2.807-39.96L49.831,49.287a6.786,6.786,0,0,0,3.219-3.219l31.562,7.266a6.736,6.736,0,0,0,1.078,3.081L64.042,80.173a6.692,6.692,0,0,0-4.77-.7M69.592,119.7a6.774,6.774,0,0,0-6.6-5.25l-.051,0-1.5-21.623a6.764,6.764,0,0,0,4.142-2.01l31.555,13.918c0,.061-.01.115-.01.176a6.743,6.743,0,0,0,1,3.534A55.789,55.789,0,0,1,69.592,119.7M97.9,101.779,67.164,88.22a6.736,6.736,0,0,0-.888-6.027L87.858,58.5a6.736,6.736,0,0,0,3.5.98,7.46,7.46,0,0,0,.831-.054l8.067,39.781a6.761,6.761,0,0,0-2.355,2.571m9.722-2.534a6.735,6.735,0,0,0-4.5-1.064l-8.07-39.8a6.8,6.8,0,0,0,2.135-2.23l17.3,6.486a6.009,6.009,0,0,0-.03.608,6.774,6.774,0,0,0,5.445,6.641A55.835,55.835,0,0,1,107.62,99.246" transform="translate(0 0.001)" fill="#1e535a"/>
        </g>
      </g>
    </g>
    <g id="Elipse_13614" data-name="Elipse 13614" transform="translate(24.402 24.359)" fill="#fff" stroke="#1e535a" stroke-width="3">
      <ellipse cx="39.732" cy="39.733" rx="39.732" ry="39.733" stroke="none"/>
      <ellipse cx="39.732" cy="39.733" rx="38.232" ry="38.233" fill="none"/>
    </g>
    <g id="Grupo_1211016" data-name="Grupo 1211016" transform="translate(40.391 39.774)">
      <g id="Grupo_1211015" data-name="Grupo 1211015" clip-path="url(#clip-path-2)">
        <path id="Trazado_1273365" data-name="Trazado 1273365" d="M14.365,46.5A8.7,8.7,0,0,1,10.437,40l-4.174.008A3.149,3.149,0,0,1,2.7,42.337a3.183,3.183,0,0,1-.015-6.289A3.22,3.22,0,0,1,6.292,38.4l4.127.012A8.8,8.8,0,0,1,26.833,34.85l3.248-2.418A8.8,8.8,0,0,1,36.37,21.022l-3.153-5.828c-.214-.4-.5-.633-.439-1.173a2.429,2.429,0,0,0-2.342-2.8H25.523a2.415,2.415,0,0,0-2.343,2.512v2.408a8.782,8.782,0,0,1-3.839-5.729l-3.747,3.2A8.968,8.968,0,0,1,17.571,18.8l4.474,3.482a3.185,3.185,0,0,1,4.479,4.452,3.194,3.194,0,0,1-5.473-3.194l-3.6-2.818a8.968,8.968,0,0,1-3.817,5.813l-.048-2.609A2.433,2.433,0,0,0,11.14,21.6H6.458a2.488,2.488,0,0,0-2.485,2.59l0,2.34a8.783,8.783,0,0,1,4.019-16.09L8,6.292a3.209,3.209,0,1,1,1.6-.019l-.035,4.138a9.012,9.012,0,0,1,4.889,2.066L19.2,8.423A8.792,8.792,0,0,1,36.664,7.414l6.065,2.931a3.2,3.2,0,0,1,4.677,4.273,3.165,3.165,0,0,1-4.013,1.045,3.205,3.205,0,0,1-1.6-3.978L36.772,9.262a8.793,8.793,0,0,1-2.1,5.222L38.063,20.8a8.794,8.794,0,0,1,5.166,16.127l-.1-2.812a2.433,2.433,0,0,0-2.553-2.13L36.025,32a2.452,2.452,0,0,0-2.437,2.517L33.576,36.9a8.305,8.305,0,0,1-2.834-2.967l-3.218,2.411A12.5,12.5,0,0,1,28,39.5l5.935,2.862a3.171,3.171,0,1,1-.945,1.33l-5.237-2.537a8.733,8.733,0,0,1-3.764,5.37l-.014-2.521a2.424,2.424,0,0,0-2.53-2.4l-4.537,0a2.46,2.46,0,0,0-2.527,2.533ZM27.642,3.238a3.159,3.159,0,0,0-2.808,3.6,3.186,3.186,0,0,0,6.321-.795,3.168,3.168,0,0,0-3.513-2.809M8.095,13.7a3.18,3.18,0,1,0,1.41,6.2,3.2,3.2,0,0,0,2.393-3.82,3.163,3.163,0,0,0-3.8-2.382M37.528,24.138a3.186,3.186,0,1,0,3.942,2.238,3.178,3.178,0,0,0-3.942-2.238M18.969,33.621a3.184,3.184,0,1,0,3.4,2.923,3.164,3.164,0,0,0-3.4-2.923" transform="translate(0.001 0)" fill="#1e535a"/>
        <path id="Trazado_1273366" data-name="Trazado 1273366" d="M262.321,248.388a8.532,8.532,0,0,1-6.411.036V245c0-.44.55-.779.964-.774l4.51,0a.907.907,0,0,1,.932.95Z" transform="translate(-220.714 -210.636)" fill="#1e535a"/>
        <path id="Trazado_1273367" data-name="Trazado 1273367" d="M122.685,318.152a8.389,8.389,0,0,1-6.409.037l-.016-3.236a.926.926,0,0,1,.912-.963h4.548a.91.91,0,0,1,.943.951Z" transform="translate(-100.271 -270.806)" fill="#1e535a"/>
        <path id="Trazado_1273368" data-name="Trazado 1273368" d="M186.685,97.179a8.519,8.519,0,0,1-6.4.037l-.008-3.361a.9.9,0,0,1,.9-.833h4.559a.891.891,0,0,1,.928.957Z" transform="translate(-155.481 -80.228)" fill="#1e535a"/>
        <path id="Trazado_1273369" data-name="Trazado 1273369" d="M47.082,172.8a8.648,8.648,0,0,1-6.378.015l-.005-3.339a.929.929,0,0,1,.842-.855h4.7a.884.884,0,0,1,.835.852Z" transform="translate(-35.102 -145.426)" fill="#1e535a"/>
        <path id="Trazado_1273370" data-name="Trazado 1273370" d="M268.873,186.186a1.593,1.593,0,1,1-1.207,2.026,1.561,1.561,0,0,1,1.207-2.026" transform="translate(-230.791 -160.551)" fill="#1e535a"/>
        <path id="Trazado_1273371" data-name="Trazado 1273371" d="M193,35.017a1.6,1.6,0,1,1-.994,2.093A1.592,1.592,0,0,1,193,35.017" transform="translate(-165.506 -30.132)" fill="#1e535a"/>
        <path id="Trazado_1273372" data-name="Trazado 1273372" d="M129,256a1.6,1.6,0,0,1,.985,3.039,1.606,1.606,0,0,1-1.986-.946A1.583,1.583,0,0,1,129,256" transform="translate(-110.296 -220.718)" fill="#1e535a"/>
        <path id="Trazado_1273373" data-name="Trazado 1273373" d="M53.8,110.478a1.579,1.579,0,0,1,1.689,1.421,1.6,1.6,0,1,1-3.183.323,1.585,1.585,0,0,1,1.494-1.744" transform="translate(-45.102 -95.281)" fill="#1e535a"/>
      </g>
    </g>
  </g>
</svg>
