<svg xmlns="http://www.w3.org/2000/svg" xmlns:xlink="http://www.w3.org/1999/xlink" width="85" height="85" viewBox="0 0 85 85">
  <defs>
    <clipPath id="clip-path">
      <rect id="Rectángulo_459938" data-name="Rectángulo 459938" width="74.727" height="74.635" fill="#344866"/>
    </clipPath>
  </defs>
  <g id="Grupo_1208897" data-name="Grupo 1208897" transform="translate(-179.734 -5520.842)">
    <rect id="Rectángulo_402006" data-name="Rectángulo 402006" width="85" height="85" rx="5" transform="translate(179.734 5520.842)" fill="#69d7e5"/>
    <g id="Grupo_1208900" data-name="Grupo 1208900" transform="translate(184.734 5525.842)">
      <g id="Grupo_1208899" data-name="Grupo 1208899" transform="translate(0 0)" clip-path="url(#clip-path)">
        <path id="Trazado_1271747" data-name="Trazado 1271747" d="M31.7,14.128a1.56,1.56,0,0,1,1.651,2.51c-.147.143-3.457,1.664-3.733,1.721-1.108.228-1.528.074-2.059-.83-.38-.648-1.639-3.465-1.545-4.053.249-1.559,2.038-1.612,2.9-.417C34.465-.143,52.481-4.219,63.446,4.939c17.647,14.739,5.062,43.175-17.9,39.717-6.205-.933-8.675-3.464-13.1-7.211a19.9,19.9,0,0,0-18.875-3.916c-1.141.364-4.367,2.416-4.919.551-.626-2.125,3.109-3.1,4.711-3.54,9.789-2.716,15.617.516,22.73,6.467,15.435,12.915,37.537-1.2,31.808-20.473-5-16.828-29.213-18.39-36.2-2.405" transform="translate(2.972 0)" fill="#344866"/>
        <path id="Trazado_1271748" data-name="Trazado 1271748" d="M38.973,5.945a50.183,50.183,0,0,1,7.113.065c1.286.575.492,3.147,1.417,3.932.1.082,1.826,1.036,1.937,1.046.78.075,2.879-1.88,3.939-.722.606,1.266,3.6,5.23,3.375,6.382-.236,1.211-2.572,1.984-2.662,2.607l.023,2.483c1.807,1.593,3.373,1.549,2.066,4.192a40.111,40.111,0,0,1-3.034,4.879c-1.4.637-2.8-1-3.706-.914a22.911,22.911,0,0,0-2.059,1.138c-.808.816.018,3.481-1.441,3.905a45.278,45.278,0,0,1-6.375.05c-2.318-.265-1.112-2.6-1.834-3.726a7.3,7.3,0,0,0-2.385-1.379c-1.166.372-2.614,1.646-3.784.7-1.072-.862-2.433-4.565-3.4-5.816-.436-1.528,2.668-2.365,2.746-3.371.024-.3-.2-.615-.2-.874.008-.492.325-.852.094-1.363-.356-.786-2.6-1.4-2.677-2.693-.034-.54,1.683-3.4,2.1-4.086.318-.525,1.227-2.241,1.682-2.382,1.453-.454,2.856,1.054,3.561.986a21.714,21.714,0,0,0,2.054-1.143c.861-.784.013-3.487,1.448-3.9m14.373,10.2a9.559,9.559,0,0,0-1.484-2.662c-.667-.347-1.674.6-2.3.72-1.211.244-1.351-.549-2.124-.991a22.122,22.122,0,0,1-2.53-1.318c-1.057-.916-.52-2.817-.945-3.118H40.945c-.388.269-.015,2.358-.683,3.061-.2.211-1.768.828-2.229,1.087A13.313,13.313,0,0,1,36.1,14.2c-1.158.241-2.1-1.061-2.907-.8-.407.5-1.654,2.161-1.332,2.758.21.388,1.375.877,1.712,1.3.7.875.093,2.052.1,3.092.008.89.525,1.9.028,2.735-.395.663-2.129.956-1.848,2.074a9.864,9.864,0,0,0,1.337,2.117c.8.186,1.469-.66,2.156-.795,1.114-.22,1.772.764,2.689,1.279.461.259,2.027.875,2.229,1.087.614.646.323,2.6.683,2.847l3.221.094c-.035-.66.044-2.478.479-2.944.183-.2,1.782-.832,2.23-1.084a13.379,13.379,0,0,1,1.937-1.283c1.038-.215,2.357.966,2.91.8l1.635-2.755a5.669,5.669,0,0,1-2.31-1.871A25.392,25.392,0,0,1,51.23,19.9c-.005-.516-.267-1.022-.24-1.491.048-.9,1.573-1.865,2.355-2.265" transform="translate(9.749 2.027)" fill="#344866"/>
        <path id="Trazado_1271749" data-name="Trazado 1271749" d="M16.9,28.019a50.019,50.019,0,0,1,7.116.065c1.285.575.492,3.147,1.414,3.932.1.082,1.827,1.036,1.938,1.046.912.086,2.819-1.873,3.94-.722.606,1.266,3.6,5.23,3.372,6.382-.234,1.211-2.573,1.988-2.66,2.607.393.593-.149,2.164.007,2.468.419.816,2.933,1.391,2.65,3.048a61.034,61.034,0,0,1-2.995,5.365c-1.293,1.788-2.718.119-4.315-.241L25.3,53.1c-.733.777-.012,3.5-1.436,3.909a50.01,50.01,0,0,1-7.114-.066c-1.026-.455-.725-2.326-.9-3.158a5.288,5.288,0,0,0-2.413-1.854c-.944-.028-2.385,1.728-3.829.823-.955-.6-2.676-4.812-3.515-5.912-.458-1.461,2.516-2.358,2.711-3.2.079-.338-.2-.7-.191-1.037.008-.479.31-.959.127-1.372-.343-.777-2.6-1.4-2.681-2.7-.034-.54,1.685-3.4,2.1-4.086.318-.525,1.225-2.241,1.682-2.382,1.454-.454,2.855,1.054,3.562.986a22.057,22.057,0,0,0,2.054-1.143c.859-.784.013-3.487,1.445-3.9m14.38,10.2-1.627-2.74c-1.076-.02-1.842,1.019-2.91.8a15.1,15.1,0,0,1-2.183-1.467,11.631,11.631,0,0,1-1.72-.847c-1.057-.916-.518-2.817-.945-3.118H18.872c-.386.269-.012,2.358-.681,3.061-.2.211-1.77.828-2.227,1.087a13.46,13.46,0,0,1-1.938,1.283c-1.158.241-2.1-1.061-2.909-.8-.407.5-1.654,2.161-1.332,2.758.209.388,1.375.877,1.712,1.3.7.877.092,2.052.1,3.092.009.917.523,1.717.027,2.575-.331.575-1.651,1.24-1.841,1.593-.321.594.91,2.233,1.332,2.758.809.263,1.751-1.041,2.909-.8a13.461,13.461,0,0,1,1.938,1.283c.458.259,2.027.875,2.227,1.087.669.7.295,2.792.681,3.061h3.022l.68-3.064c1.479-.268,3.629-2.582,4.918-2.362.533.092,1.706.931,2.16.8L31.286,46.8a5.66,5.66,0,0,1-2.31-1.871,24.811,24.811,0,0,1,.182-2.957c-.007-.516-.268-1.021-.241-1.491.047-.846,1.551-1.98,2.361-2.26" transform="translate(2.095 9.68)" fill="#344866"/>
        <path id="Trazado_1271750" data-name="Trazado 1271750" d="M40.014,49.945c-2.035.193-2.771-1.648-1-2.821,1.1-.733,4.031-2.144,5.037-.893a28.249,28.249,0,0,1,1.739,4.233c-.093,1.558-2.108,1.778-2.99.551C35.947,66.447,14.6,68.642,4.424,55.058-.122,48.986-1.4,39.91,1.693,32.9c.469-1.061,1.25-2.929,2.68-2.179,1.813.949-.412,4.3-.824,5.959-4.7,18.856,17.772,32.286,31.977,19.571a16.813,16.813,0,0,0,4.488-6.31" transform="translate(0 10.591)" fill="#344866"/>
        <path id="Trazado_1271751" data-name="Trazado 1271751" d="M5.424,26.75a1.458,1.458,0,1,1,0,2.688,1.505,1.505,0,0,1,0-2.688" transform="translate(1.594 9.239)" fill="#344866"/>
        <path id="Trazado_1271752" data-name="Trazado 1271752" d="M39.368,12.93c7.133-.956,7.778,9.828,1,10.212-6.452.368-7.389-9.357-1-10.212m-.011,2.984c-1.782.407-2,3.589.057,4.13,3.694.975,3.816-5.014-.057-4.13" transform="translate(12.143 4.462)" fill="#344866"/>
        <path id="Trazado_1271753" data-name="Trazado 1271753" d="M17.292,35c5.908-.82,8.118,7.613,2.7,9.755C12.7,47.642,9.927,36.027,17.292,35m-.011,2.983c-2.117.485-1.9,4.066.6,4.245,3.22.23,3.022-5.073-.6-4.245" transform="translate(4.492 12.115)" fill="#344866"/>
      </g>
    </g>
  </g>
</svg>
