<svg xmlns="http://www.w3.org/2000/svg" xmlns:xlink="http://www.w3.org/1999/xlink" width="96" height="96" viewBox="0 0 96 96">
  <defs>
    <clipPath id="clip-path">
      <rect id="Rectángulo_454829" data-name="Rectángulo 454829" width="96" height="96" fill="#1e535a"/>
    </clipPath>
    <clipPath id="clip-path-2">
      <rect id="Rectángulo_460210" data-name="Rectángulo 460210" width="36" height="35.931" fill="#1e535a"/>
    </clipPath>
  </defs>
  <g id="Grupo_1210231" data-name="Grupo 1210231" transform="translate(-1481 -8562.5)">
    <g id="Grupo_1177591" data-name="Grupo 1177591" transform="translate(1481 8562.5)">
      <g id="Grupo_1177589" data-name="Grupo 1177589" transform="translate(0 0)">
        <g id="Grupo_1177587" data-name="Grupo 1177587" clip-path="url(#clip-path)">
          <path id="Trazado_997422" data-name="Trazado 997422" d="M92.081,42.491a44.136,44.136,0,0,0-9.97-22.967,5.076,5.076,0,0,0-7.142-6.838A44.071,44.071,0,0,0,52.151,3.77a5.077,5.077,0,0,0-9.861.2A44.132,44.132,0,0,0,20.4,13.329a5.079,5.079,0,0,0-7.048,7.1A44.1,44.1,0,0,0,4.112,42.448,5.08,5.08,0,0,0,3.99,52.4a44.082,44.082,0,0,0,8.949,22.468,5.078,5.078,0,0,0,6.9,7.17,44.128,44.128,0,0,0,22.412,9.8,5.078,5.078,0,0,0,9.949.2,44.091,44.091,0,0,0,22.985-9.08,5.077,5.077,0,0,0,7.107-6.874A44.147,44.147,0,0,0,92.2,52.349a5.078,5.078,0,0,0-.119-9.858M77.74,22.024a5.05,5.05,0,0,0,2.812-.851,41.913,41.913,0,0,1,9.25,21.3,5.086,5.086,0,0,0-3.246,2.351l-12.98-4.867c.01-.142.02-.286.02-.433a5.079,5.079,0,0,0-2.151-4.15l5.678-13.4a5.5,5.5,0,0,0,.616.041M75,21.216,69.354,34.523a5.026,5.026,0,0,0-5.594,3.23L40.279,32.344a4.941,4.941,0,0,0-.106-1.011l33.322-11.6A5.1,5.1,0,0,0,75,21.216M47.246,10.165a5.083,5.083,0,0,0,4.989-4.122,41.844,41.844,0,0,1,21.158,8.275,5.054,5.054,0,0,0-.735,2.625,5.335,5.335,0,0,0,.048.671L39.217,29.273a5.1,5.1,0,0,0-.92-.92l8.784-18.2c.056,0,.109.008.165.008M42.3,6.243A5.083,5.083,0,0,0,44.86,9.569L36.248,27.4a5.1,5.1,0,0,0-1.049-.109,5.045,5.045,0,0,0-2.9.91L22.1,19.678A5.052,5.052,0,0,0,21.923,15,41.877,41.877,0,0,1,42.3,6.243M10.041,46.332,31.153,35.442a5.064,5.064,0,0,0,4.006,2.014l7.236,23.129a5.166,5.166,0,0,0-1.12,1.239l-31.3-13.04a5.048,5.048,0,0,0,.187-1.348,5.107,5.107,0,0,0-.124-1.1m4.986-24.391a5.079,5.079,0,0,0,5.673-.484l10.079,8.417a5.068,5.068,0,0,0-.56,3.512L9.07,44.29A5.081,5.081,0,0,0,6.38,42.526a41.859,41.859,0,0,1,8.647-20.585m2.1,50.717a5.067,5.067,0,0,0-2.523.674A41.822,41.822,0,0,1,6.263,52.374,5.087,5.087,0,0,0,8.9,50.783l31.609,13.17a5.45,5.45,0,0,0-.041.611,5.081,5.081,0,0,0,.3,1.718L21.657,75.44a5.081,5.081,0,0,0-4.528-2.782M42.349,89.575a41.919,41.919,0,0,1-20.912-9.149,5.029,5.029,0,0,0,.775-2.686l0-.058L42,68.2A5.082,5.082,0,0,0,43.8,69.329l1.186,17.043a5.082,5.082,0,0,0-2.632,3.2m2.105-29.97-7.081-22.64a5.089,5.089,0,0,0,2.415-2.415L63.459,40a5.052,5.052,0,0,0,.808,2.311L48.032,60.13a5.019,5.019,0,0,0-3.577-.524m7.74,30.167a5.081,5.081,0,0,0-4.948-3.937l-.038,0L46.081,69.62a5.073,5.073,0,0,0,3.106-1.507L72.853,78.551c0,.046-.008.086-.008.132a5.057,5.057,0,0,0,.752,2.65,41.841,41.841,0,0,1-21.4,8.439M73.423,76.334,50.373,66.165a5.052,5.052,0,0,0-.666-4.52L65.893,43.877a5.052,5.052,0,0,0,2.622.735,5.594,5.594,0,0,0,.623-.041l6.05,29.836a5.071,5.071,0,0,0-1.766,1.928m7.292-1.9a5.051,5.051,0,0,0-3.377-.8L71.285,43.788a5.1,5.1,0,0,0,1.6-1.672L85.858,46.98a4.506,4.506,0,0,0-.023.456,5.08,5.08,0,0,0,4.084,4.981,41.876,41.876,0,0,1-9.2,22.017" transform="translate(0 0.001)" fill="#1e535a"/>
        </g>
      </g>
    </g>
    <g id="Elipse_13614" data-name="Elipse 13614" transform="translate(1497.965 8579)" fill="#d5f4f8" stroke="#1e535a" stroke-width="3">
      <ellipse cx="31.232" cy="31.233" rx="31.232" ry="31.233" stroke="none"/>
      <ellipse cx="31.232" cy="31.233" rx="29.732" ry="29.733" fill="none"/>
    </g>
    <g id="Grupo_1210257" data-name="Grupo 1210257" transform="translate(1510.965 8593)">
      <g id="Grupo_1210256" data-name="Grupo 1210256" clip-path="url(#clip-path-2)">
        <path id="Trazado_1272116" data-name="Trazado 1272116" d="M21.153,189.175a1.041,1.041,0,0,0-.521-1.588l-16.416-.048C-1.595,187.468.309,195.357.26,200.1a4.453,4.453,0,0,0,4.126,4.035c3.092-.214,6.541.275,9.591-.005,5.463-.5,3.732-7.141,4.076-10.817.785-1.38,2.375-2.8,3.1-4.142M10.262,199.256H4.774c-.463,0-.838-.589-.838-1.315s.375-1.315.838-1.315h5.488c.463,0,.838.589.838,1.315s-.375,1.315-.838,1.315m3.6-4.624H5.251a1.315,1.315,0,0,1,0-2.63h8.614a1.315,1.315,0,0,1,0,2.63" transform="translate(0 -168.407)" fill="#1e535a"/>
        <path id="Trazado_1272117" data-name="Trazado 1272117" d="M152.14.156c3.1-.371,6.273.045,9.956-.016a4.459,4.459,0,0,1,3.938,4.018,64.061,64.061,0,0,1,.005,8.469,4.469,4.469,0,0,1-4.233,4.132c-5.067.38-10.6-.3-15.718,0a1.071,1.071,0,0,1-.947-1.672c.505-.936,2.963-3.514,3.124-4.22C148.555,7.275,146.9.782,152.14.156m4.484,3.362a4.244,4.244,0,0,0-1.809.946c-.725.744-1.606,3.092-.044,3.31,1.481.207.925-1.456,1.679-1.98a1.2,1.2,0,0,1,1.714,1.612c-.523.859-1.977.226-2.032,1.548-.067,1.613,2.061,1.04,2.917.459a3.273,3.273,0,0,0-2.426-5.894m-.248,9.533a1.048,1.048,0,0,0,1.6-1.347,1.048,1.048,0,1,0-1.6,1.347" transform="translate(-130.177 0)" fill="#1e535a"/>
        <path id="Trazado_1272118" data-name="Trazado 1272118" d="M9.1,8.153l1.607.38c3.342,1.117,4.918,4.424,4.515,7.832a1.126,1.126,0,0,1-1.171.971,55.123,55.123,0,0,1-10.922,0c-1.492.01-1.25-1.947-1.168-3.012A6.566,6.566,0,0,1,8.083,8.253l-1.4-.591c-4.168-2.5-.532-8.808,3.674-6.53A3.758,3.758,0,0,1,9.1,8.153" transform="translate(-1.705 -0.578)" fill="#1e535a"/>
        <path id="Trazado_1272119" data-name="Trazado 1272119" d="M230.361,187.629a3.791,3.791,0,0,1-.946,6.072l-1.262.419a6.585,6.585,0,0,1,6.226,6.168c.067.952.275,2.767-.971,2.914a80.234,80.234,0,0,1-11.228,0,1.167,1.167,0,0,1-1.045-.791,10.616,10.616,0,0,1,.148-3.176,6.538,6.538,0,0,1,6.053-5.117l-1.122-.356c-5.352-2.693.052-10.073,4.147-6.136" transform="translate(-198.517 -167.473)" fill="#1e535a"/>
      </g>
    </g>
  </g>
</svg>
