<svg xmlns="http://www.w3.org/2000/svg" xmlns:xlink="http://www.w3.org/1999/xlink" width="128" height="128" viewBox="0 0 128 128">
  <defs>
    <clipPath id="clip-path">
      <rect id="Rectángulo_454829" data-name="Rectángulo 454829" width="128" height="128" fill="#1e535a"/>
    </clipPath>
    <clipPath id="clip-path-2">
      <rect id="Rectángulo_460735" data-name="Rectángulo 460735" width="44.988" height="45" fill="#1e535a"/>
    </clipPath>
  </defs>
  <g id="Grupo_1210201" data-name="Grupo 1210201" transform="translate(-0.402 -0.359)">
    <g id="Grupo_1177591" data-name="Grupo 1177591" transform="translate(0.402 0.359)">
      <g id="Grupo_1177589" data-name="Grupo 1177589" transform="translate(0 0)">
        <g id="Grupo_1177587" data-name="Grupo 1177587" clip-path="url(#clip-path)">
          <path id="Trazado_997422" data-name="Trazado 997422" d="M122.774,56.654a58.848,58.848,0,0,0-13.293-30.623,6.768,6.768,0,0,0-9.523-9.118A58.761,58.761,0,0,0,69.535,5.027a6.769,6.769,0,0,0-13.148.267A58.842,58.842,0,0,0,27.2,17.772a6.771,6.771,0,0,0-9.4,9.462A58.794,58.794,0,0,0,5.483,56.6a6.774,6.774,0,0,0-.162,13.266A58.776,58.776,0,0,0,17.252,99.82a6.771,6.771,0,0,0,9.2,9.56,58.838,58.838,0,0,0,29.883,13.07,6.771,6.771,0,0,0,13.266.267,58.788,58.788,0,0,0,30.646-12.107,6.769,6.769,0,0,0,9.476-9.165A58.863,58.863,0,0,0,122.933,69.8a6.771,6.771,0,0,0-.159-13.144m-19.12-27.288a6.733,6.733,0,0,0,3.75-1.135,55.884,55.884,0,0,1,12.333,28.407,6.781,6.781,0,0,0-4.327,3.135L98.1,53.283c.013-.189.027-.382.027-.578a6.772,6.772,0,0,0-2.868-5.533l7.57-17.86a7.335,7.335,0,0,0,.821.054M100,28.288,92.472,46.03a6.7,6.7,0,0,0-7.459,4.307L53.705,43.125a6.588,6.588,0,0,0-.142-1.348L97.992,26.305a6.793,6.793,0,0,0,2,1.983M63,13.553a6.777,6.777,0,0,0,6.651-5.5A55.792,55.792,0,0,1,97.857,19.09a6.739,6.739,0,0,0-.98,3.5,7.114,7.114,0,0,0,.064.9L52.29,39.031A6.8,6.8,0,0,0,51.064,37.8L62.775,13.543c.074,0,.145.01.22.01M56.4,8.324a6.778,6.778,0,0,0,3.409,4.435L48.331,36.538a6.8,6.8,0,0,0-1.4-.145,6.727,6.727,0,0,0-3.861,1.213L29.461,26.238A6.736,6.736,0,0,0,29.231,20,55.836,55.836,0,0,1,56.4,8.324M13.387,61.776l28.15-14.519a6.751,6.751,0,0,0,5.341,2.686l9.648,30.839a6.887,6.887,0,0,0-1.493,1.652L13.3,65.046a6.731,6.731,0,0,0,.25-1.8,6.81,6.81,0,0,0-.166-1.473m6.648-32.521a6.771,6.771,0,0,0,7.564-.645L41.037,39.831a6.758,6.758,0,0,0-.747,4.682l-28.2,14.539A6.774,6.774,0,0,0,8.506,56.7,55.812,55.812,0,0,1,20.036,29.254m2.8,67.623a6.756,6.756,0,0,0-3.365.9A55.762,55.762,0,0,1,8.351,69.832a6.783,6.783,0,0,0,3.517-2.121L54.013,85.27a7.266,7.266,0,0,0-.054.814,6.775,6.775,0,0,0,.405,2.29L28.876,100.587a6.775,6.775,0,0,0-6.037-3.709m33.626,22.556a55.892,55.892,0,0,1-27.883-12.2,6.705,6.705,0,0,0,1.034-3.581l0-.078L56,90.929a6.776,6.776,0,0,0,2.392,1.51l1.581,22.725a6.776,6.776,0,0,0-3.51,4.27m2.807-39.96L49.831,49.287a6.786,6.786,0,0,0,3.219-3.219l31.562,7.266a6.736,6.736,0,0,0,1.078,3.081L64.042,80.173a6.692,6.692,0,0,0-4.77-.7M69.592,119.7a6.774,6.774,0,0,0-6.6-5.25l-.051,0-1.5-21.623a6.764,6.764,0,0,0,4.142-2.01l31.555,13.918c0,.061-.01.115-.01.176a6.743,6.743,0,0,0,1,3.534A55.789,55.789,0,0,1,69.592,119.7M97.9,101.779,67.164,88.22a6.736,6.736,0,0,0-.888-6.027L87.858,58.5a6.736,6.736,0,0,0,3.5.98,7.46,7.46,0,0,0,.831-.054l8.067,39.781a6.761,6.761,0,0,0-2.355,2.571m9.722-2.534a6.735,6.735,0,0,0-4.5-1.064l-8.07-39.8a6.8,6.8,0,0,0,2.135-2.23l17.3,6.486a6.009,6.009,0,0,0-.03.608,6.774,6.774,0,0,0,5.445,6.641A55.835,55.835,0,0,1,107.62,99.246" transform="translate(0 0.001)" fill="#1e535a"/>
        </g>
      </g>
    </g>
    <g id="Elipse_13614" data-name="Elipse 13614" transform="translate(24.056 23.773)" fill="#fff" stroke="#1e535a" stroke-width="3">
      <ellipse cx="39.732" cy="39.733" rx="39.732" ry="39.733" stroke="none"/>
      <ellipse cx="39.732" cy="39.733" rx="38.232" ry="38.233" fill="none"/>
    </g>
    <g id="Grupo_1211012" data-name="Grupo 1211012" transform="translate(41.057 41.773)">
      <g id="Grupo_1211011" data-name="Grupo 1211011" clip-path="url(#clip-path-2)">
        <path id="Trazado_1273358" data-name="Trazado 1273358" d="M44.828,44.987A3.912,3.912,0,0,1,40.9,41.043,5.27,5.27,0,0,0,40.885,30.5l.011-2.65a5.273,5.273,0,0,0,0-10.546l-.01-2.809A5.276,5.276,0,0,0,40.9,3.945,3.906,3.906,0,0,1,44.774.008L73.885,0a4.21,4.21,0,0,1,4.09,3.588l0,22.3a12.229,12.229,0,0,0-12.548-.475A11.814,11.814,0,0,0,63.815,45ZM48.821,9.8l3.138,3.12a1.317,1.317,0,0,0,1.589-.006L58.963,7.5a1.318,1.318,0,0,0-1.724-1.98L52.751,9.981,50.511,7.8a1.292,1.292,0,0,0-1.825.271A1.312,1.312,0,0,0,48.821,9.8m22.417.75a1.341,1.341,0,0,0,1.269-1.336A1.318,1.318,0,0,0,71.293,7.9H63.227a1.328,1.328,0,0,0-.014,2.651ZM48.7,20.366l3.179,3.2a1.276,1.276,0,0,0,1.744-.009l5.286-5.279a1.317,1.317,0,0,0-1.8-1.927L52.749,20.7l-2.112-2.086a1.314,1.314,0,0,0-1.833.048,1.255,1.255,0,0,0-.1,1.706m22.551.9a1.3,1.3,0,0,0,1.254-1.234c.037-.55-.364-1.359-1.057-1.359l-8.387,0c-.688,0-1.128.807-1.087,1.365a1.323,1.323,0,0,0,1.237,1.23ZM51.75,34a1.352,1.352,0,0,0,2-.006l5.206-5.218a1.316,1.316,0,0,0-1.786-1.929L52.75,31.26l-2.1-2.087a1.318,1.318,0,1,0-1.794,1.933Z" transform="translate(-35.613 0.001)" fill="#1e535a"/>
        <path id="Trazado_1273359" data-name="Trazado 1273359" d="M222.55,212.2a9.058,9.058,0,0,1-3.907,10.75,9.231,9.231,0,1,1-5.86-16.965,9.425,9.425,0,0,1,9.767,6.214m-6.259,4.288a1.321,1.321,0,0,0,.064-2.641l-1.366-.03-.057-1.546a1.289,1.289,0,0,0-2.554.133l.033,3.065c.007.695.9,1.057,1.476,1.05Z" transform="translate(-178.077 -179.393)" fill="#1e535a"/>
        <path id="Trazado_1273360" data-name="Trazado 1273360" d="M5.351,56.367l-2.657.024A2.642,2.642,0,0,1,0,53.861a2.611,2.611,0,0,1,2.567-2.742l2.706,0a2.627,2.627,0,0,1,.076,5.252" transform="translate(0 -44.524)" fill="#1e535a"/>
        <path id="Trazado_1273361" data-name="Trazado 1273361" d="M5.466,262.229a22.594,22.594,0,0,1-3.008.011A2.629,2.629,0,0,1,0,259.623a2.576,2.576,0,0,1,2.44-2.61c1.035-.039,2.052-.041,3.086.007a2.553,2.553,0,0,1,2.362,2.6,2.592,2.592,0,0,1-2.427,2.609" transform="translate(-0.004 -223.846)" fill="#1e535a"/>
        <path id="Trazado_1273362" data-name="Trazado 1273362" d="M5.441,159.963c-1.022.05-2,.05-2.956.008A2.6,2.6,0,0,1,.014,157.5,2.543,2.543,0,0,1,2.2,154.788a21.632,21.632,0,0,1,3.458-.006A2.535,2.535,0,0,1,7.9,157.388a2.6,2.6,0,0,1-2.459,2.574" transform="translate(-0.009 -134.766)" fill="#1e535a"/>
      </g>
    </g>
  </g>
</svg>
