<svg xmlns="http://www.w3.org/2000/svg" xmlns:xlink="http://www.w3.org/1999/xlink" width="167.711" height="116" viewBox="0 0 167.711 116">
  <defs>
    <clipPath id="clip-path">
      <rect id="Rectángulo_459936" data-name="Rectángulo 459936" width="167.711" height="116" transform="translate(1141.711 717.037)" fill="#fff" stroke="#707070" stroke-width="1"/>
    </clipPath>
    <clipPath id="clip-path-2">
      <rect id="Rectángulo_459935" data-name="Rectángulo 459935" width="104.897" height="110.665" fill="none"/>
    </clipPath>
  </defs>
  <g id="Enmascarar_grupo_1178547" data-name="Enmascarar grupo 1178547" transform="translate(-1141.711 -717.037)" clip-path="url(#clip-path)">
    <g id="Grupo_1208894" data-name="Grupo 1208894" transform="translate(1173.711 720.037)">
      <g id="Grupo_1208893" data-name="Grupo 1208893" clip-path="url(#clip-path-2)">
        <path id="Trazado_1271724" data-name="Trazado 1271724" d="M17.651,225.655a5.064,5.064,0,0,1-2.447-.982c-.514-.385-2.125-2.277-2.125-2.774V210.63c1.37-.279,2.369,1.753,2.562,2.859.235,1.351-1.3,2.467-.538,4.076a24.841,24.841,0,0,0,3.187,3.367c2.239,1.621,2.555-.289,4.347-.109.184.019,2.5.831,2.618.908.547.356.63,2.936,2.367,3.263a20.625,20.625,0,0,0,5.071-.138c1.721-.537,1.45-2.545,2.022-3.042.1-.087,2.322-.983,2.453-1.006,1.2-.208,1.964.813,2.913.845,1.6.053,4.641-3.521,5.328-4.984l31.2-.159c.915.116.923,1.166,1.467,1.8.824.959,3.129,3.385,4.355,3.345.95-.032,1.718-1.053,2.913-.845.131.023,2.352.919,2.453,1.006.572.5.3,2.505,2.022,3.042a20.625,20.625,0,0,0,5.071.138c1.752-.33,1.719-2.688,2.21-3.18a21.013,21.013,0,0,1,3.024-1.014c1.114,0,1.993,1.152,3.109.807a22.831,22.831,0,0,0,3.762-3.45c1.5-2.074.148-2.255-.12-3.856-.171-1.023.956-3.939,2.389-3.675.093,3.3,1.455,7.1,1.166,10.4l-2.323,4.355-4.554.6H17.977Z" transform="translate(-8.806 -141.817)" fill="#e4e7ea"/>
        <path id="Trazado_1271725" data-name="Trazado 1271725" d="M69.922,87.758V96.25H80.537a21.463,21.463,0,0,1,2.866.726c1.831.658,4.146,2.548,4.657,4.489a40.608,40.608,0,0,1,.089,7.95,1.867,1.867,0,0,1-1,.958c-22.915.53-45.963.178-68.925.178a1.923,1.923,0,0,1-1.533-1.407,34.572,34.572,0,0,1,.243-7.908c.636-1.953,3.117-3.846,5.035-4.437.327-.1,2.233-.549,2.391-.549H34.974V87.758H8.354c-4.085,0-8.514-6.323-8-10.292C1.169,60.672-.738,42.849.338,26.176,1.37,10.194,19.179,17.2,29.769,15.433a28.6,28.6,0,0,1,1.658-6.181A15.731,15.731,0,0,1,52.049,1.276c1.039.435,3.022,2.095,3.678,2.215,1.1.2,3.308-.418,4.882-.321a14.48,14.48,0,0,1,11.885,8.036c.646,1.327.754,3.739,2.311,4.222,6.46.644,13.379-.35,19.789.135,6.5.491,9.557,4.335,9.963,10.614,1.078,16.671-.832,34.5-.017,51.29.462,4.008-3.838,10.292-8,10.292Zm.735-70.3c-.435-.469-.727-2.817-1.05-3.688a11.033,11.033,0,0,0-9.645-7.032c-1.658-.045-3.47.839-4.871.67-1.074-.13-2.554-1.838-3.774-2.458a12.139,12.139,0,0,0-17.229,7.619c-.363,1.394-.29,4.408-.721,5.078-.15.233-2.046,1.161-2.642,1.684a6.814,6.814,0,0,0,3.267,11.924c.107-1.33-.453-3.318.857-4.207.571-.387,1.611-.4,2.083-.857A23.834,23.834,0,0,0,38.1,23.747c.27-1.226-1.189-2.3-.783-3.69a35.976,35.976,0,0,1,3.53-3.67c2.187-1.666,2.506.412,4.331.113a18.02,18.02,0,0,0,2.534-1.09c.639-.615.494-2.11,1.534-2.712,1.11-.644,5.828-.66,6.786.275.589.574.626,1.928,1.156,2.437a10.848,10.848,0,0,0,3.075,1.143c1.018-.065,1.81-1.235,3.03-.742a40.348,40.348,0,0,1,4.035,3.829c1,1.706-.841,2.684-.527,4.107a23.76,23.76,0,0,0,1.166,2.441c.88.854,2.588.195,2.917,2.309.108.7-.363,2.908.47,2.72,5.945-1.336,7.094-9.506,1.953-12.656-.653-.4-2.253-.68-2.647-1.107m-17.11-1.509a6.535,6.535,0,0,0-2.2,0c-.207.131-.377,1.841-1.029,2.4a38.152,38.152,0,0,1-5.681,2.13c-1.031-.114-1.339-1.13-2.658-.348-1.661.985.208,2.169.093,3.4a46.086,46.086,0,0,1-2.541,5.586c-.837.57-1.884.111-1.976,1.643-.124,2.07,1.611,1.152,2.463,2.471.136.211,1.858,4.338,1.932,4.628.385,1.5-1.115,2.4-.476,3.365,1.112,1.673,2.086.272,3.163.154.7-.076,5.6,1.95,5.975,2.488.343.493.508,2.007.905,2.1,3.029.709,1.823-1.356,3.06-2.456a31.966,31.966,0,0,1,5.678-2.132c1.031.114,1.339,1.13,2.658.348,1.668-.99-.289-2.2-.044-3.63a43.109,43.109,0,0,1,2.492-5.358c.835-.569,1.889-.114,1.978-1.645.122-2.106-1.665-1.287-2.469-2.464-.149-.218-1.937-4.624-1.992-4.881-.258-1.195,1.179-2.157.541-3.116-1.113-1.674-2.086-.272-3.163-.154a35.439,35.439,0,0,1-5.275-1.883c-1.208-.611-1.143-2.461-1.436-2.646M25.828,19.168H9.661c-1.607,0-5.389,2.47-5.389,4.083V60.322c1.5.46,2.5-2.035,2.612-3.136.113-1.115-.762-1.8-.685-2.908.049-.717.592-1.155.7-1.941,1.117-7.936-.83-18.559-.033-26.816.2-2.111.972-3.17,3.12-3.413,2.2-.248,14.64.524,15.174-.015.106-.106.482-2.461.667-2.925m74.8,41.154V23.577c0-1.928-3.56-4.409-5.389-4.409H79.067c.185.464.561,2.819.667,2.925.534.539,12.978-.234,15.174.015,2.148.243,2.916,1.3,3.12,3.413.788,8.171-1.125,18.618-.033,26.489.118.851.658,1.249.705,2.26.061,1.287-.742,2.1-.687,2.923.068,1.025,1.152,3.63,2.612,3.129M80.047,26.027c-.271.591-.285,1.835-.69,2.74a10.784,10.784,0,0,1-7.39,6c-1.157.29-3.244-.075-4.152,1.074-.086.109-1.076,2.351-1.088,2.486-.075.837,1.259,2.07.854,3.467a37.59,37.59,0,0,1-3.887,3.978c-1.693,1.088-2.4-.678-3.975-.421a18.058,18.058,0,0,0-2.534,1.09c-.661.636-.531,2.312-1.712,2.861-1,.465-5.583.461-6.443-.262-.727-.611-.724-1.836-1.171-2.422A10.1,10.1,0,0,0,44.91,45.3c-1.668-.11-1.906,1.81-4.065.166a36.094,36.094,0,0,1-3.531-3.671c-.405-1.4.929-2.63.854-3.467-.012-.135-1-2.377-1.088-2.486-.908-1.149-3-.784-4.152-1.074a10.245,10.245,0,0,1-8.08-9.067H10.477V49.543c1.408-.277,2.272.864,3.672.59a21.422,21.422,0,0,0,2.457-1c.5-.575.31-2.306,1.792-2.941a14.414,14.414,0,0,1,4.661-.253c2.822.327,2.1,2.707,2.988,3.3a24.04,24.04,0,0,0,2.59.953c1.341.135,1.979-1.075,3.741-.507a14.09,14.09,0,0,1,3.756,3.756c.56,1.736-.527,2.246-.53,3.446a15.533,15.533,0,0,0,.976,2.885c.528.8,2.9.315,3.272,2.688a15.194,15.194,0,0,1-.226,4.961c-.778,1.816-3.58,1.029-3.674,3.675H68.942c-.094-2.647-2.9-1.859-3.674-3.675a15.194,15.194,0,0,1-.226-4.961c.37-2.373,2.744-1.891,3.272-2.688a15.549,15.549,0,0,0,.976-2.885c0-1.107-1-1.655-.6-3.182a26.519,26.519,0,0,1,3.191-3.668c2.009-1.352,2.965.42,4.651.092,2.879-.558,2.185-1.311,3.231-3,.951-1.535,3.716-1.352,5.361-1.2,3.308.3,2.369,2.62,3.3,3.31a9.946,9.946,0,0,0,3.381.951c.641-.1,1.6-1.029,2.613-.653V25.7c-1.788.219-14.027-.423-14.371.327M20.482,49.587c-.654.227-.651,2.039-1.863,2.709-.295.163-4.23,1.725-4.467,1.766-1.417.246-2.617-1.46-3.7.206-.717,1.1.518,1.895.3,3.2-.038.224-1.477,3.85-1.664,4.242-.887,1.862-3.012.945-2.884,3.03.091,1.48,1.081.973,1.986,1.634a31.116,31.116,0,0,1,2.562,5.3c.245,1.439-1.341,2.37.034,3.537,1.127.956,1.516.014,2.558-.135a27.658,27.658,0,0,1,5.422,1.949c1.5.947.627,2.725,2.661,2.6,1.48-.091.972-1.081,1.634-1.986a31.115,31.115,0,0,1,5.3-2.562c1.44-.245,2.367,1.341,3.535-.034,1.045-1.229-.323-1.679-.186-3.092.061-.63,2.124-5.236,2.623-5.573,1.067-.719,2.087-.188,1.978-1.976-.1-1.628-1.964-.986-2.783-2.469-.172-.312-1.789-4.173-1.823-4.409-.2-1.4,1.525-2.669-.15-3.759-1.043-.678-1.658.271-2.666.349a46.665,46.665,0,0,1-5.2-1.942c-1.354-.892-.746-3.441-3.209-2.584m62.384,0c-.576.2-.65,1.337-1.035,1.9-.541.8-5.123,2.712-6.109,2.563-1.09-.165-1.922-1.269-2.888.214-.678,1.043.271,1.658.349,2.666a46.665,46.665,0,0,1-1.942,5.2c-.913,1.387-2.782.545-2.657,2.6.086,1.421.892.962,1.78,1.513,1.006.624,2.995,5.466,2.765,6.567-.2.945-1.219,1.329.038,2.393,1.128.956,1.515.014,2.557-.135a27.659,27.659,0,0,1,5.422,1.949c1.506.948.626,2.723,2.661,2.6,1.526-.092,1.072-1.128,1.647-1.972a28.826,28.826,0,0,1,5.29-2.576c1.439-.245,2.371,1.341,3.537-.034.956-1.127.014-1.516-.135-2.558A27.658,27.658,0,0,1,96.1,67.061c.947-1.505,2.724-.627,2.6-2.661-.1-1.636-1.99-.99-2.784-2.468-.148-.275-1.723-4.232-1.763-4.469-.243-1.43,1.456-2.6-.206-3.7-1.063-.7-1.4.249-2.328.353a34.438,34.438,0,0,1-5.537-1.947c-1.354-.891-.746-3.441-3.209-2.584M8.844,83.838c.023.006.076.292.327.327H94.745c3.058-.163,5.6-2.048,5.879-5.226a89.713,89.713,0,0,0-.168-10.13c-1.434-.264-2.56,2.652-2.389,3.675.268,1.6,1.619,1.782.12,3.856a22.833,22.833,0,0,1-3.762,3.45c-1.116.345-2-.808-3.109-.807A21.015,21.015,0,0,0,88.291,80c-.491.492-.458,2.85-2.21,3.18a20.624,20.624,0,0,1-5.071-.138C79.289,82.5,79.56,80.493,78.988,80c-.1-.087-2.322-.983-2.453-1.006-1.2-.208-1.963.813-2.913.845-1.226.041-3.531-2.386-4.355-3.345-.544-.633-.552-1.683-1.467-1.8l-31.2.159c-.688,1.464-3.727,5.037-5.328,4.984-.949-.032-1.718-1.053-2.913-.845-.131.023-2.352.919-2.453,1.006-.572.5-.3,2.505-2.022,3.042a20.624,20.624,0,0,1-5.071.138c-1.737-.327-1.82-2.907-2.367-3.263-.117-.077-2.434-.889-2.618-.908-1.792-.179-2.107,1.73-4.347.109A24.84,24.84,0,0,1,6.3,75.748c-.767-1.609.773-2.725.538-4.076-.193-1.106-1.192-3.137-2.562-2.859V80.082c0,.5,1.612,2.389,2.125,2.774a5.064,5.064,0,0,0,2.447.982m56.505,3.919H38.566V96.25c8.911-.193,17.876.258,26.783,0,.327-.009.656.015.981,0l.006-8.3ZM84.62,107.028v-4.736c0-.873-3.994-2.768-5.051-2.461-17.559,1-36.524-1.292-53.918,0a8.879,8.879,0,0,0-3.217.7c-.448.209-2.159,1.471-2.159,1.761v4.736Z" transform="translate(0 0)" fill="#0d0e0d"/>
        <path id="Trazado_1271726" data-name="Trazado 1271726" d="M113.406,103.18a9.947,9.947,0,0,1-3.381-.951c-.931-.69.009-3.006-3.3-3.31-1.645-.151-4.41-.334-5.361,1.2-1.046,1.687-.351,2.44-3.231,3-1.687.327-2.643-1.444-4.651-.092a26.518,26.518,0,0,0-3.191,3.668c-.4,1.527.6,2.075.6,3.182a15.548,15.548,0,0,1-.976,2.885c-.528.8-2.9.315-3.272,2.688a15.194,15.194,0,0,0,.226,4.961c.778,1.816,3.58,1.029,3.674,3.675H57.554c.094-2.647,2.9-1.859,3.674-3.675a15.194,15.194,0,0,0,.226-4.961c-.37-2.373-2.744-1.891-3.272-2.688a15.533,15.533,0,0,1-.976-2.885c0-1.2,1.09-1.71.53-3.446a14.09,14.09,0,0,0-3.756-3.756c-1.762-.568-2.4.642-3.741.507a24.039,24.039,0,0,1-2.59-.953c-.893-.592-.166-2.972-2.988-3.3A14.414,14.414,0,0,0,40,99.18c-1.483.635-1.29,2.366-1.792,2.941a21.42,21.42,0,0,1-2.457,1c-1.4.273-2.264-.867-3.672-.59V78.684H46.449a10.245,10.245,0,0,0,8.08,9.067c1.157.29,3.244-.075,4.152,1.074.086.109,1.076,2.351,1.088,2.486.075.837-1.259,2.07-.854,3.467a36.094,36.094,0,0,0,3.531,3.671c2.159,1.644,2.4-.276,4.065-.166A10.1,10.1,0,0,1,69.46,99.6c.447.586.444,1.81,1.171,2.422.86.722,5.44.727,6.443.262,1.181-.548,1.051-2.224,1.712-2.861a18.06,18.06,0,0,1,2.534-1.09c1.575-.257,2.282,1.509,3.975.421a37.594,37.594,0,0,0,3.887-3.978c.405-1.4-.929-2.63-.854-3.467.012-.135,1-2.377,1.088-2.486.908-1.149,3-.784,4.152-1.074a10.784,10.784,0,0,0,7.39-6c.405-.905.418-2.149.69-2.74l11.76,0Zm-66.729-19.5a2.481,2.481,0,0,0-1.613-.7,48.463,48.463,0,0,0-4.907,1.66c-2.228,1.206-1.36,3.7,1.063,3.676-.723,1.554-4.174,5.933-3.787,7.355a1.906,1.906,0,0,0,3.154.829c.676-.687,3.338-6.375,3.738-6.38,1.12,1.917,3.627,1.629,3.593-.694a33.532,33.532,0,0,0-1.242-5.747m60.2,6.433c-.634-1.53-3.176-6.964-4.791-7.117a2.367,2.367,0,0,0-1.914,1.529c-.267,1.215,3.017,5.761,3.758,7.063.341.851-1.478.257-1.981,1.029-2.059,3.16,6.466,4.971,7.384,4.038.5-.508,1.525-5.8,1.328-6.547-.529-1.993-2.9-1.515-3.785,0m-33.972,25.8c1.169-1.357.458-3.455-1.438-3.267-.9.089-4.935,3.489-5.1,4.425a1.978,1.978,0,0,0,.475,1.8,48,48,0,0,0,3.779,3.4c1.957.906,3.458-.932,2.61-2.767.238-.213,5.364.122,6.376.005,3.192-.37,2.118-3.6,1.3-3.6Z" transform="translate(-21.601 -52.984)" fill="#cce5f7"/>
        <path id="Trazado_1271727" data-name="Trazado 1271727" d="M129.038,24.93c.395.426,1.995.707,2.647,1.107,5.141,3.15,3.992,11.32-1.953,12.656-.833.187-.362-2.022-.47-2.72-.329-2.114-2.036-1.455-2.917-2.309a23.828,23.828,0,0,1-1.166-2.441c-.314-1.423,1.529-2.4.528-4.107a40.386,40.386,0,0,0-4.035-3.829c-1.219-.493-2.012.677-3.03.742a10.843,10.843,0,0,1-3.075-1.143c-.53-.51-.567-1.863-1.156-2.437-.959-.935-5.677-.919-6.787-.275-1.039.6-.895,2.1-1.534,2.712a18.02,18.02,0,0,1-2.534,1.09c-1.825.3-2.144-1.78-4.331-.113a35.947,35.947,0,0,0-3.53,3.67c-.406,1.387,1.053,2.464.783,3.69a23.9,23.9,0,0,1-1.166,2.441c-.472.457-1.511.47-2.083.857-1.309.888-.749,2.876-.857,4.207A6.814,6.814,0,0,1,89.105,26.8c.6-.523,2.493-1.451,2.642-1.684.431-.67.358-3.684.721-5.078a12.139,12.139,0,0,1,17.23-7.619c1.22.62,2.7,2.328,3.773,2.458,1.4.169,3.213-.715,4.871-.67a11.033,11.033,0,0,1,9.645,7.032c.323.871.615,3.219,1.05,3.688" transform="translate(-58.381 -7.475)" fill="#75b7e6"/>
        <path id="Trazado_1271728" data-name="Trazado 1271728" d="M126.422,312.006H62.078V307.27c0-.29,1.71-1.552,2.159-1.761a8.879,8.879,0,0,1,3.217-.7c17.394-1.289,36.358,1,53.918,0,1.057-.307,5.051,1.588,5.051,2.461Z" transform="translate(-41.802 -204.978)" fill="#dde0e3"/>
        <path id="Trazado_1271729" data-name="Trazado 1271729" d="M144.861,268.684v8.492c-8.907.258-17.871-.193-26.783,0v-8.492Z" transform="translate(-79.511 -180.927)" fill="#948997"/>
        <path id="Trazado_1271730" data-name="Trazado 1271730" d="M33.256,151.458c2.462-.857,1.855,1.692,3.208,2.584a46.758,46.758,0,0,0,5.2,1.942c1.008-.079,1.623-1.028,2.666-.349,1.675,1.09-.047,2.359.15,3.76.033.236,1.65,4.1,1.823,4.409.819,1.483,2.684.842,2.783,2.47.109,1.788-.911,1.256-1.978,1.976-.5.337-2.562,4.943-2.623,5.573-.138,1.413,1.231,1.863.186,3.092-1.169,1.374-2.1-.211-3.535.034a31.1,31.1,0,0,0-5.3,2.562c-.661.9-.154,1.894-1.634,1.985-2.033.125-1.156-1.653-2.66-2.6a27.671,27.671,0,0,0-5.422-1.949c-1.042.149-1.431,1.091-2.558.135-1.376-1.166.21-2.1-.034-3.537a31.106,31.106,0,0,0-2.562-5.3c-.9-.661-1.894-.154-1.986-1.634-.128-2.085,2-1.167,2.884-3.03.187-.392,1.626-4.017,1.664-4.242.221-1.3-1.015-2.093-.3-3.195,1.085-1.667,2.285.039,3.7-.207.236-.041,4.172-1.6,4.467-1.766,1.213-.67,1.21-2.482,1.864-2.709m.061,4.617c-13.28.851-12.378,21.033.872,20.842,13.726-.2,13.248-21.747-.872-20.842" transform="translate(-12.773 -101.872)" fill="#fcd05b"/>
        <path id="Trazado_1271731" data-name="Trazado 1271731" d="M224.255,151.458c2.462-.857,1.855,1.693,3.209,2.584A34.449,34.449,0,0,0,233,155.989c.927-.1,1.265-1.055,2.328-.353,1.662,1.1-.037,2.269.206,3.7.04.237,1.615,4.194,1.763,4.469.794,1.478,2.684.832,2.785,2.468.124,2.033-1.652,1.156-2.6,2.66a27.669,27.669,0,0,0-1.949,5.422c.149,1.043,1.091,1.431.135,2.558-1.166,1.376-2.1-.21-3.537.034a28.838,28.838,0,0,0-5.29,2.576c-.576.843-.122,1.879-1.648,1.972-2.035.123-1.155-1.652-2.66-2.6a27.67,27.67,0,0,0-5.422-1.949c-1.043.149-1.43,1.09-2.557.135-1.257-1.065-.235-1.449-.038-2.394.23-1.1-1.759-5.943-2.765-6.567-.887-.551-1.694-.091-1.78-1.513-.125-2.057,1.744-1.216,2.657-2.6a46.764,46.764,0,0,0,1.942-5.2c-.079-1.007-1.028-1.623-.349-2.666.965-1.484,1.8-.379,2.888-.214.986.149,5.568-1.766,6.108-2.563.385-.567.46-1.7,1.036-1.9m.061,4.617c-14.969.959-11.046,24.788,3.913,20.261,11.413-3.453,8.323-21.045-3.913-20.261" transform="translate(-141.388 -101.872)" fill="#fcd05b"/>
        <path id="Trazado_1271732" data-name="Trazado 1271732" d="M130.963,48.629c.294.185.228,2.035,1.436,2.646a35.476,35.476,0,0,0,5.275,1.883c1.077-.118,2.05-1.519,3.163.154.638.96-.8,1.922-.541,3.116.056.258,1.844,4.664,1.992,4.881.8,1.178,2.591.358,2.47,2.464-.089,1.531-1.143,1.076-1.978,1.645a43.112,43.112,0,0,0-2.492,5.358c-.245,1.435,1.712,2.64.044,3.63-1.319.783-1.627-.234-2.658-.348a31.979,31.979,0,0,0-5.679,2.132c-1.237,1.1-.031,3.165-3.06,2.455-.4-.093-.562-1.608-.905-2.1-.375-.537-5.279-2.564-5.975-2.488-1.076.118-2.051,1.519-3.163-.154-.64-.962.861-1.867.476-3.365-.074-.289-1.8-4.417-1.933-4.628-.852-1.319-2.587-.4-2.463-2.471.092-1.533,1.139-1.073,1.976-1.643a46.088,46.088,0,0,0,2.542-5.586c.114-1.233-1.754-2.416-.093-3.4,1.319-.783,1.627.234,2.658.348a38.135,38.135,0,0,0,5.681-2.13c.653-.558.822-2.268,1.03-2.4a6.533,6.533,0,0,1,2.2,0m-1.985,4.616c-15.55,1.422-10.071,25.837,4.862,19.893,10.873-4.328,6.788-20.958-4.862-19.893" transform="translate(-77.416 -32.683)" fill="#fdd05c"/>
        <path id="Trazado_1271733" data-name="Trazado 1271733" d="M34.635,58.684c-.185.464-.561,2.819-.667,2.925-.534.539-12.978-.234-15.174.015-2.148.243-2.916,1.3-3.12,3.413-.8,8.257,1.151,18.88.033,26.816-.111.786-.654,1.224-.7,1.941-.076,1.111.8,1.793.685,2.908-.111,1.1-1.115,3.6-2.612,3.136V62.767c0-1.613,3.782-4.083,5.389-4.083Z" transform="translate(-8.806 -39.517)" fill="#e0e3e6"/>
        <path id="Trazado_1271734" data-name="Trazado 1271734" d="M263.635,99.838c-1.459.5-2.544-2.1-2.612-3.129-.055-.825.748-1.636.687-2.923-.048-1.011-.588-1.409-.705-2.26-1.092-7.871.821-18.318.033-26.489-.2-2.111-.972-3.17-3.12-3.413-2.2-.248-14.64.524-15.174-.015-.106-.106-.482-2.461-.667-2.925h16.168c1.829,0,5.389,2.481,5.389,4.409Z" transform="translate(-163.011 -39.517)" fill="#e0e3e6"/>
        <path id="Trazado_1271735" data-name="Trazado 1271735" d="M245.078,78.909c.344-.749,12.583-.108,14.371-.327v23.843c-1.016-.376-1.972.549-2.613.653l0-24.171Z" transform="translate(-165.031 -52.883)" fill="#adcfea"/>
        <path id="Trazado_1271736" data-name="Trazado 1271736" d="M200.078,268.684l.986.192-.006,8.3c-.325.013-.654-.011-.98,0Z" transform="translate(-134.729 -180.927)" fill="#736775"/>
        <path id="Trazado_1271737" data-name="Trazado 1271737" d="M27.4,257.011c-.251-.035-.3-.321-.327-.327Z" transform="translate(-18.234 -172.846)" fill="#b0b2b7"/>
        <path id="Trazado_1271738" data-name="Trazado 1271738" d="M247.235,99c.885-1.519,3.255-2,3.784,0,.2.743-.828,6.039-1.328,6.547-.918.933-9.444-.878-7.384-4.038.5-.772,2.322-.178,1.981-1.029-.74-1.3-4.025-5.849-3.758-7.063a2.368,2.368,0,0,1,1.914-1.529c1.615.153,4.157,5.587,4.79,7.117" transform="translate(-161.958 -61.871)" fill="#0d0e0d"/>
        <path id="Trazado_1271739" data-name="Trazado 1271739" d="M143.5,185.925h8c.819,0,1.893,3.23-1.3,3.6-1.012.117-6.138-.218-6.376-.005.848,1.836-.653,3.673-2.61,2.767a48,48,0,0,1-3.779-3.4,1.978,1.978,0,0,1-.475-1.8c.162-.936,4.2-4.336,5.1-4.425,1.9-.188,2.608,1.909,1.438,3.266" transform="translate(-92.195 -122.991)" fill="#0c0e0f"/>
        <path id="Trazado_1271740" data-name="Trazado 1271740" d="M57.658,92.535A33.5,33.5,0,0,1,58.9,98.282c.035,2.323-2.472,2.611-3.593.694-.4,0-3.061,5.692-3.738,6.38a1.907,1.907,0,0,1-3.154-.829c-.387-1.422,3.064-5.8,3.787-7.356-2.423.02-3.291-2.471-1.063-3.676a48.491,48.491,0,0,1,4.907-1.66,2.48,2.48,0,0,1,1.613.7" transform="translate(-32.582 -61.839)" fill="#0d0e0d"/>
        <path id="Trazado_1271741" data-name="Trazado 1271741" d="M43.265,165.894c14.12-.905,14.6,20.645.872,20.842-13.251.19-14.152-19.991-.872-20.842m.322,3.579c-9.986.554-7.28,16.53,2.666,13.145,7.326-2.494,5.038-13.572-2.666-13.145" transform="translate(-22.721 -111.691)" fill="#0f0f0a"/>
        <path id="Trazado_1271742" data-name="Trazado 1271742" d="M234.4,165.9c12.235-.784,15.326,16.808,3.913,20.261-14.959,4.526-18.882-19.3-3.913-20.261m.322,3.579a6.8,6.8,0,0,0-5.78,9.525,6.733,6.733,0,0,0,12.529-.463,6.81,6.81,0,0,0-6.749-9.062" transform="translate(-151.475 -111.696)" fill="#0f0f0a"/>
        <path id="Trazado_1271743" data-name="Trazado 1271743" d="M138.648,62.852c11.65-1.065,15.735,15.565,4.862,19.893-14.933,5.944-20.412-18.471-4.862-19.893m.336,3.581c-8.488.608-7.87,13.642.55,13.642,8.971,0,8.84-14.314-.55-13.642" transform="translate(-87.085 -42.29)" fill="#0f0f0a"/>
        <path id="Trazado_1271744" data-name="Trazado 1271744" d="M50.949,176.885c7.7-.427,9.992,10.651,2.666,13.145-9.946,3.385-12.652-12.591-2.666-13.145" transform="translate(-30.082 -119.103)" fill="#e3e7e9"/>
        <path id="Trazado_1271745" data-name="Trazado 1271745" d="M241.794,176.888a6.81,6.81,0,0,1,6.749,9.062,6.733,6.733,0,0,1-12.529.463,6.8,6.8,0,0,1,5.78-9.525" transform="translate(-158.543 -119.105)" fill="#e3e7e9"/>
        <path id="Trazado_1271746" data-name="Trazado 1271746" d="M146.374,73.869c9.39-.672,9.521,13.642.55,13.642-8.42,0-9.038-13.034-.55-13.642" transform="translate(-94.476 -49.726)" fill="#e4e7ea"/>
      </g>
    </g>
  </g>
</svg>
