<svg xmlns="http://www.w3.org/2000/svg" xmlns:xlink="http://www.w3.org/1999/xlink" width="85" height="85" viewBox="0 0 85 85">
  <defs>
    <clipPath id="clip-path">
      <rect id="Rectángulo_460801" data-name="Rectángulo 460801" width="63.163" height="70.333" fill="#344866"/>
    </clipPath>
  </defs>
  <g id="Grupo_1211063" data-name="Grupo 1211063" transform="translate(-179.379 -5519.007)">
    <rect id="Rectángulo_402006" data-name="Rectángulo 402006" width="85" height="85" rx="5" transform="translate(179.379 5519.007)" fill="#69d7e5"/>
    <g id="Grupo_1211065" data-name="Grupo 1211065" transform="translate(190.379 5526.007)">
      <g id="Grupo_1211064" data-name="Grupo 1211064" clip-path="url(#clip-path)">
        <path id="Trazado_1273588" data-name="Trazado 1273588" d="M63.367,40A19.569,19.569,0,1,1,43.8,20.431,19.569,19.569,0,0,1,63.367,40M50.91,32.942a26.917,26.917,0,0,1-.019,5.077,7.105,7.105,0,0,1-2.979,4.834l.034,2.587,6.689,2.287a6.125,6.125,0,0,1,3.185,2.75,17.5,17.5,0,1,0-28.043-.03A6.223,6.223,0,0,1,33.017,47.7l6.655-2.269v-2.62a6.876,6.876,0,0,1-3.032-5.341,34.161,34.161,0,0,1,.03-4.45,7.165,7.165,0,0,1,14.24-.076m-1.964.932a5.153,5.153,0,0,0-5.305-5.208,5.033,5.033,0,0,0-4.9,5.181Zm-.015,2.934a1.087,1.087,0,0,0-.965-.919H39.714a1.051,1.051,0,0,0-1.047,1.19,5.134,5.134,0,0,0,10.264-.271m-3.044,8.869-.066-1.78a10.546,10.546,0,0,1-4.061.008l.02,1.92,2,2Zm-5.32,5.175,1.777-1.6-1.916-1.894-1.373.43Zm6.463.035,1.5-3.078-1.333-.438-1.881,1.866Zm3.479-2.412L47.644,54.29l-3.9-3.589-3.795,3.575-2.872-5.8c-2.53.92-5.443,1.3-5.638,3.9a17.413,17.413,0,0,0,24.677.023c-.052-2.58-3.01-2.97-5.61-3.924" transform="translate(-19.347 -16.314)" fill="#344866"/>
        <path id="Trazado_1273589" data-name="Trazado 1273589" d="M41.41,42.865A23.7,23.7,0,0,1,10.5,7.166l1.51,1.413a21.64,21.64,0,1,0,1.507-1.4L12.158,5.622A23.689,23.689,0,0,1,46.889,37.268L64.9,53.583c2.034,1.843,1.472,5.147-.238,6.9s-5.124,2.4-7,.329ZM59.153,59.412c1.17,1.292,3.309.475,4.136-.475.9-1.033,1.243-2.948.07-4.01L45.647,38.912,43,41.579Z" transform="translate(-3.035 0)" fill="#344866"/>
        <path id="Trazado_1273590" data-name="Trazado 1273590" d="M100.025,275.534l-14.394.005,0-7.275a3.057,3.057,0,0,1,3.083-3.038,5.143,5.143,0,1,1,8.239.01,3.016,3.016,0,0,1,3.065,3.027Zm-4.108-13.4a3.087,3.087,0,1,0-3.087,3.087,3.087,3.087,0,0,0,3.087-3.087m2.064,11.357,0-5.207a1.155,1.155,0,0,0-1.159-1.011l-8.093,0a1.093,1.093,0,0,0-1.039.974l.006,5.244Z" transform="translate(-68.375 -205.207)" fill="#344866"/>
        <path id="Trazado_1273591" data-name="Trazado 1273591" d="M14.4,275.54,0,275.548l.024-7.475a2.991,2.991,0,0,1,3.038-2.836,5.161,5.161,0,0,1,7.508-6.99,5.181,5.181,0,0,1,.764,6.967,3.085,3.085,0,0,1,3.053,3.055Zm-4.111-13.4A3.087,3.087,0,1,0,7.2,265.227a3.087,3.087,0,0,0,3.087-3.087m2.05,11.354.011-5.24a1.164,1.164,0,0,0-1.039-.974H3.03a1.151,1.151,0,0,0-.983,1.176l.013,5.042Z" transform="translate(0 -205.215)" fill="#344866"/>
        <path id="Trazado_1273592" data-name="Trazado 1273592" d="M182.779,267.281l-8.55-.006a1.191,1.191,0,0,0-.943,1l0,5.218,2.054-.007.009,2.048-4.114,0,.053-7.632a3,3,0,0,1,2.972-2.679,5.272,5.272,0,0,1,.68-6.869,5.151,5.151,0,0,1,7.641,6.841,3.162,3.162,0,0,1,3.067,3.275l-.013,7.065-4.1,0,0-2.034,2.039-.021.014-5.236c0-.28-.471-.96-.811-.96m-1.253-5.151a3.087,3.087,0,1,0-3.087,3.087,3.087,3.087,0,0,0,3.087-3.087" transform="translate(-136.732 -205.206)" fill="#344866"/>
        <rect id="Rectángulo_460798" data-name="Rectángulo 460798" width="2.079" height="2.048" transform="translate(40.662 68.282)" fill="#344866"/>
        <rect id="Rectángulo_460799" data-name="Rectángulo 460799" width="2.074" height="2.099" transform="translate(36.744 17.865) rotate(-0.116)" fill="#344866"/>
        <rect id="Rectángulo_460800" data-name="Rectángulo 460800" width="2.098" height="2.068" transform="translate(34.65 13.715)" fill="#344866"/>
      </g>
    </g>
  </g>
</svg>
