<svg xmlns="http://www.w3.org/2000/svg" xmlns:xlink="http://www.w3.org/1999/xlink" width="396.66" height="325.905" viewBox="0 0 396.66 325.905">
  <defs>
    <clipPath id="clip-path">
      <rect id="Rectángulo_461105" data-name="Rectángulo 461105" width="396" height="312.908" fill="none"/>
    </clipPath>
  </defs>
  <g id="Grupo_1211687" data-name="Grupo 1211687" transform="translate(-913.34 -854.336)">
    <g id="Grupo_1211083" data-name="Grupo 1211083" transform="translate(913.34 854.336)">
      <path id="Trazado_1272217" data-name="Trazado 1272217" d="M198.33,5.341c123.205-106.8,198.33,65.351,198.33,145.966S381.635,295.69,198.33,297.272,0,231.921,0,151.307,75.125,112.145,198.33,5.341Z" transform="translate(0 28.605)" fill="#ffe79e"/>
      <g id="Grupo_1211686" data-name="Grupo 1211686" transform="translate(0.66 12.996)">
        <g id="Grupo_1211685" data-name="Grupo 1211685" clip-path="url(#clip-path)">
          <path id="Trazado_1275082" data-name="Trazado 1275082" d="M191.854,282.6c9.861-5.382,8.9-21.813,17.471-29.615,12.589-11.445,33.376,1.353,45.282,7.715,17.865,9.545,34.994,16.249,55.68,15.889,22.431-.39,45.405-10.09,58.593-28.77,9.115-12.912,12.985-28.955,15.124-44.763,7.982-59-11.12-155.941-87.528-144.317-34.942,5.315-65.519,36.193-100.393,30.428-19.557-3.233-35.34-17.476-51.407-29.4C119.985,41.456,87.19,27.363,59.753,40.927,45.006,48.218,34.631,62.293,25.7,76.4,12.324,97.54.468,121.792,3.324,146.845c4.06,35.62,36.135,60.62,67.933,75.288s67.07,24.162,92.625,48.543c7.73,7.375,17.531,16.741,27.163,12.334q.417-.19.809-.405" transform="translate(-1.61 -19.3)" fill="#fff7df"/>
          <path id="Trazado_1275083" data-name="Trazado 1275083" d="M301.992,359.945H149.252a4.707,4.707,0,0,1-4.638-4.773V123.744a4.707,4.707,0,0,1,4.638-4.773h152.74a4.707,4.707,0,0,1,4.638,4.773V355.171a4.707,4.707,0,0,1-4.638,4.773" transform="translate(-80.443 -64.637)" fill="#6b6b82"/>
          <path id="Trazado_1275084" data-name="Trazado 1275084" d="M159.615,356.47V138.744a4.707,4.707,0,0,1,4.638-4.773H303.681a4.707,4.707,0,0,1,4.638,4.773V356.47a4.707,4.707,0,0,1-4.638,4.773H164.253a4.707,4.707,0,0,1-4.638-4.773" transform="translate(-88.787 -72.786)" fill="#fff"/>
          <path id="Trazado_1275085" data-name="Trazado 1275085" d="M309.431,129.484H232.4a6.55,6.55,0,0,1,0-13.1h77.029a6.55,6.55,0,0,1,0,13.1" transform="translate(-125.737 -63.234)" fill="#ffd453"/>
          <path id="Trazado_1275086" data-name="Trazado 1275086" d="M318.131,109.659H246.823a5.579,5.579,0,0,1,5.5-5.657h60.315a5.579,5.579,0,0,1,5.5,5.657" transform="translate(-137.297 -56.504)" fill="#ffd453"/>
          <path id="Trazado_1275087" data-name="Trazado 1275087" d="M397,423.739a.225.225,0,0,1-.222-.228V400.9H371.313a.228.228,0,0,1,0-.457H397a.225.225,0,0,1,.222.228V423.51a.225.225,0,0,1-.222.228" transform="translate(-206.422 -217.557)" fill="#3b3638"/>
          <path id="Trazado_1275088" data-name="Trazado 1275088" d="M425.059,441.416c0,4.429-7.8,8.02-17.412,8.02s-17.413-3.591-17.413-8.02,7.8-8.02,17.413-8.02,17.412,3.591,17.412,8.02" transform="translate(-217.071 -235.463)" fill="#b6b6ce"/>
          <path id="Trazado_1275089" data-name="Trazado 1275089" d="M269.987,443.194h-45.4a.225.225,0,0,1-.222-.228V395.487a.225.225,0,0,1,.222-.228h25.685a.228.228,0,0,1,0,.457H224.813v47.023h44.952V391.131a.222.222,0,1,1,.444,0v51.835a.225.225,0,0,1-.222.228" transform="translate(-124.807 -212.377)" fill="#3b3638"/>
          <path id="Trazado_1275090" data-name="Trazado 1275090" d="M185.628,441.416c0,4.429,7.8,8.02,17.412,8.02s17.413-3.591,17.413-8.02-7.8-8.02-17.413-8.02-17.412,3.591-17.412,8.02" transform="translate(-103.257 -235.463)" fill="#b6b6ce"/>
          <path id="Trazado_1275091" data-name="Trazado 1275091" d="M326.894,533.668a.225.225,0,0,1-.222-.229v-28.81a.222.222,0,1,1,.444,0v28.81a.225.225,0,0,1-.222.229" transform="translate(-181.714 -274.04)" fill="#3b3638"/>
          <path id="Trazado_1275092" data-name="Trazado 1275092" d="M321.184,489.341,297.57,502.42l-23.615-13.08,23.615-13.08Z" transform="translate(-152.39 -258.751)" fill="#69d7e5"/>
          <rect id="Rectángulo_461100" data-name="Rectángulo 461100" width="47.229" height="22.903" transform="translate(121.565 171.658)" fill="#ffd453"/>
          <rect id="Rectángulo_461101" data-name="Rectángulo 461101" width="27.039" height="13.112" transform="translate(131.66 256.781)" fill="#b6b6ce"/>
          <rect id="Rectángulo_461102" data-name="Rectángulo 461102" width="127.583" height="10.453" transform="translate(81.388 110.044)" fill="#f2f0f7"/>
          <rect id="Rectángulo_461103" data-name="Rectángulo 461103" width="127.583" height="10.453" transform="translate(81.388 127.895)" fill="#f2f0f7"/>
          <rect id="Rectángulo_461104" data-name="Rectángulo 461104" width="127.583" height="10.453" transform="translate(81.388 145.746)" fill="#f2f0f7"/>
          <path id="Trazado_1275093" data-name="Trazado 1275093" d="M308.62,116.346H254.855a.228.228,0,0,1,0-.457H308.62a.228.228,0,0,1,0,.457" transform="translate(-141.642 -62.962)" fill="#3b3638"/>
          <path id="Trazado_1275094" data-name="Trazado 1275094" d="M630.393,296.581A51.065,51.065,0,0,0,588.931,275.1c-28.5,0-51.608,23.781-51.608,53.115a54.207,54.207,0,0,0,4.218,21.063l8.993-17.572,13.635,3.18a27,27,0,0,1-.83-6.671c0-14.547,11.458-26.34,25.592-26.34a25.037,25.037,0,0,1,16.161,5.913l-7.689,3.406,6.047,2.8,9.173,4.249L626.56,324.7l7.857-21.6,3.061-8.416.535-1.471Z" transform="translate(-298.89 -149.459)" fill="#ffd453"/>
          <path id="Trazado_1275095" data-name="Trazado 1275095" d="M644.429,355.1l-7.75,20.457-15.862-6.789a26.788,26.788,0,0,1,.158,2.91c0,14.547-11.458,26.339-25.592,26.339a25.078,25.078,0,0,1-16.79-6.456l7.326-4.707-4.049-.68-8.738-1.475-14.339-2.415-6.5,18.648-.525,1.5-2.852,8.194,7.117-4.574A50.913,50.913,0,0,0,595.382,424.8c28.505,0,51.612-23.78,51.612-53.119a54.385,54.385,0,0,0-2.565-16.577" transform="translate(-305.341 -192.925)" fill="#69d7e5"/>
          <path id="Trazado_1275096" data-name="Trazado 1275096" d="M517.228,292.022H472.737a9.539,9.539,0,0,0-9.4,9.674H606.159a9.539,9.539,0,0,0-9.4-9.674H552.269a16.328,16.328,0,0,0-8.577-14.188l34.351-88.2a11.539,11.539,0,0,0-2.433-22.6l-94.619-127.1a12.1,12.1,0,0,0,1.059-4.964,11.687,11.687,0,0,0-11.516-11.851,11.413,11.413,0,0,0-9.481,5.126h-8.085c.761-6.972-.935-12.769-5.111-15.25C440.72,8.75,429.05,15.8,421.792,28.737q-.359.641-.694,1.284c-18.834-6.616-36.673-3.9-43.288,7.9l84.1,49.972c6.615-11.792-.016-29.053-15-42.531q.373-.621.734-1.261a47.772,47.772,0,0,0,2.161-4.363h10.187a11.51,11.51,0,0,0,10.543,7.085,11.216,11.216,0,0,0,1.258-.072l93.785,125.98a11.769,11.769,0,0,0,.311,12.087l-35.53,91.23c-7.552,1.835-13.131,8.293-13.131,15.978m25.268-14.8a18.094,18.094,0,0,0-3.969-1.311l33.63-86.351a10.776,10.776,0,0,0,4.337.366ZM573.98,167.093a10.856,10.856,0,0,0-3.486,1.009L478.058,43.935A11.812,11.812,0,0,0,480.3,41.25ZM473.27,46.48A11.3,11.3,0,0,0,477,44.772l92.307,123.994a11.341,11.341,0,0,0-2.951,2.761Zm93.559,139.6a11.208,11.208,0,0,0,4.07,3.025l-33.717,86.575a18.473,18.473,0,0,0-5.27.057Z" transform="translate(-210.16 -6.388)" fill="#b6b6ce"/>
          <path id="Trazado_1275097" data-name="Trazado 1275097" d="M90.717,204.48a.225.225,0,0,1-.222.228H89.385a.228.228,0,0,1,0-.457h1.109a.225.225,0,0,1,.222.228m-20.081-.228h-2.18a.228.228,0,0,0,0,.457h2.18a.228.228,0,0,0,0-.457m-5.233,0h-2.18a.228.228,0,0,0,0,.457H65.4a.228.228,0,0,0,0-.457m10.465,0h-2.18a.228.228,0,0,0,0,.457h2.18a.228.228,0,0,0,0-.457m5.233,0h-2.18a.228.228,0,0,0,0,.457H81.1a.228.228,0,0,0,0-.457m5.233,0h-2.18a.228.228,0,0,0,0,.457h2.18a.228.228,0,0,0,0-.457m-26.163,0h-.887v-.913a.222.222,0,1,0-.444,0v1.142a.225.225,0,0,0,.222.228H60.17a.228.228,0,0,0,0-.457M59.061,59.769a.225.225,0,0,0,.222-.228V57.287a.222.222,0,1,0-.444,0V59.54a.225.225,0,0,0,.222.228m0,91.959a.225.225,0,0,0,.222-.228v-2.255a.222.222,0,1,0-.444,0V151.5a.225.225,0,0,0,.222.228m0-5.41a.225.225,0,0,0,.222-.228v-2.253a.222.222,0,1,0-.444,0v2.253a.225.225,0,0,0,.222.228m0,21.638a.225.225,0,0,0,.222-.228v-2.254a.222.222,0,1,0-.444,0v2.254a.225.225,0,0,0,.222.228m0,10.819a.226.226,0,0,0,.222-.228v-2.254a.222.222,0,1,0-.444,0v2.254a.226.226,0,0,0,.222.228m0,5.409a.225.225,0,0,0,.222-.228V181.7a.222.222,0,1,0-.444,0v2.254a.225.225,0,0,0,.222.228m0-21.638a.225.225,0,0,0,.222-.228v-2.254a.222.222,0,1,0-.444,0v2.254a.225.225,0,0,0,.222.228m0,27.047a.225.225,0,0,0,.222-.228v-2.254a.222.222,0,1,0-.444,0v2.254a.225.225,0,0,0,.222.228m0-16.228a.225.225,0,0,0,.222-.228v-2.254a.222.222,0,1,0-.444,0v2.254a.225.225,0,0,0,.222.228m0-16.228a.225.225,0,0,0,.222-.228v-2.254a.222.222,0,1,0-.444,0v2.254a.225.225,0,0,0,.222.228m0-70.321a.225.225,0,0,0,.222-.228V84.333a.222.222,0,1,0-.444,0v2.254a.225.225,0,0,0,.222.228m0,5.41A.225.225,0,0,0,59.283,92V89.743a.222.222,0,1,0-.444,0V92a.225.225,0,0,0,.222.228m0-10.819a.225.225,0,0,0,.222-.228V78.924a.222.222,0,1,0-.444,0v2.254a.225.225,0,0,0,.222.228m0-16.228a.225.225,0,0,0,.222-.228V62.7a.222.222,0,1,0-.444,0V64.95a.225.225,0,0,0,.222.228m0,10.819a.225.225,0,0,0,.222-.228V73.515a.222.222,0,1,0-.444,0v2.254a.225.225,0,0,0,.222.228m0,21.637a.225.225,0,0,0,.222-.228V95.152a.222.222,0,1,0-.444,0v2.254a.225.225,0,0,0,.222.228m0-27.047a.225.225,0,0,0,.222-.228V68.105a.222.222,0,1,0-.444,0v2.254a.225.225,0,0,0,.222.228m0,43.275a.225.225,0,0,0,.222-.228V111.38a.222.222,0,1,0-.444,0v2.254a.225.225,0,0,0,.222.228m0,10.819a.225.225,0,0,0,.222-.228V122.2a.222.222,0,1,0-.444,0v2.254a.225.225,0,0,0,.222.228m0,5.409a.225.225,0,0,0,.222-.228v-2.254a.222.222,0,1,0-.444,0v2.254a.225.225,0,0,0,.222.228m0,5.41a.225.225,0,0,0,.222-.228v-2.254a.222.222,0,1,0-.444,0v2.254a.225.225,0,0,0,.222.228m0-27.047a.225.225,0,0,0,.222-.228v-2.254a.222.222,0,1,0-.444,0v2.254a.225.225,0,0,0,.222.228m0-54.093a.225.225,0,0,0,.222-.228V51.877a.222.222,0,1,0-.444,0v2.254a.225.225,0,0,0,.222.228m0,48.684a.225.225,0,0,0,.222-.228v-2.254a.222.222,0,1,0-.444,0v2.254a.225.225,0,0,0,.222.228m0,37.866a.225.225,0,0,0,.222-.228v-2.254a.222.222,0,1,0-.444,0v2.254a.225.225,0,0,0,.222.228m0-21.637a.225.225,0,0,0,.222-.228V116.79a.222.222,0,1,0-.444,0v2.254a.225.225,0,0,0,.222.228m0,75.731a.225.225,0,0,0,.222-.228v-2.254a.222.222,0,1,0-.444,0v2.254a.225.225,0,0,0,.222.228m0,5.409a.225.225,0,0,0,.222-.228V197.93a.222.222,0,1,0-.444,0v2.253a.225.225,0,0,0,.222.228M60.17,47.352H59.061a.225.225,0,0,0-.222.228v1.142a.222.222,0,1,0,.444,0v-.913h.887a.228.228,0,0,0,0-.457m79.038,0h-2.2a.228.228,0,0,0,0,.457h2.2a.228.228,0,0,0,0-.457m-5.269,0h-2.2a.228.228,0,0,0,0,.457h2.2a.228.228,0,0,0,0-.457m10.538,0h-2.2a.228.228,0,0,0,0,.457h2.2a.228.228,0,0,0,0-.457m-15.807,0h-2.2a.228.228,0,0,0,0,.457h2.2a.228.228,0,0,0,0-.457m21.076,0h-2.2a.228.228,0,0,0,0,.457h2.2a.228.228,0,0,0,0-.457m21.077,0h-2.2a.228.228,0,0,0,0,.457h2.2a.228.228,0,0,0,0-.457m-15.807,0h-2.2a.228.228,0,0,0,0,.457h2.2a.228.228,0,0,0,0-.457m10.538,0h-2.2a.228.228,0,0,0,0,.457h2.2a.228.228,0,0,0,0-.457m-42.154,0h-2.2a.228.228,0,0,0,0,.457h2.2a.228.228,0,0,0,0-.457m36.884,0h-2.2a.228.228,0,0,0,0,.457h2.2a.228.228,0,0,0,0-.457m-89.576,0h-2.2a.228.228,0,0,0,0,.457h2.2a.228.228,0,0,0,0-.457m21.077,0h-2.2a.228.228,0,0,0,0,.457h2.2a.228.228,0,0,0,0-.457m-10.538,0h-2.2a.228.228,0,0,0,0,.457h2.2a.228.228,0,0,0,0-.457m5.269,0h-2.2a.228.228,0,0,0,0,.457h2.2a.228.228,0,0,0,0-.457m-10.538,0h-2.2a.228.228,0,0,0,0,.457h2.2a.228.228,0,0,0,0-.457m-10.538,0h-2.2a.228.228,0,0,0,0,.457h2.2a.228.228,0,0,0,0-.457m47.423,0h-2.2a.228.228,0,0,0,0,.457h2.2a.228.228,0,0,0,0-.457m5.269,0h-2.2a.228.228,0,0,0,0,.457h2.2a.228.228,0,0,0,0-.457m-10.538,0h-2.2a.228.228,0,0,0,0,.457h2.2a.228.228,0,0,0,0-.457m-5.269,0h-2.2a.228.228,0,0,0,0,.457h2.2a.228.228,0,0,0,0-.457m-5.269,0h-2.2a.228.228,0,0,0,0,.457h2.2a.228.228,0,0,0,0-.457m77.952,0H173.9a.228.228,0,0,0,0,.457h1.109a.228.228,0,0,0,0-.457" transform="translate(-32.73 -25.726)" fill="#3b3638"/>
          <path id="Trazado_1275098" data-name="Trazado 1275098" d="M325.346,46.833a5.372,5.372,0,1,1,5.218-5.37,5.3,5.3,0,0,1-5.218,5.37m0-10.283a4.915,4.915,0,1,0,4.774,4.913,4.85,4.85,0,0,0-4.774-4.913" transform="translate(-178.074 -19.609)" fill="#3b3638"/>
          <path id="Trazado_1275099" data-name="Trazado 1275099" d="M331.3,45.012A2.32,2.32,0,1,0,328.98,47.4a2.354,2.354,0,0,0,2.319-2.387" transform="translate(-181.708 -23.158)" fill="#76a38e"/>
          <path id="Trazado_1275100" data-name="Trazado 1275100" d="M238.637,10.74a5.3,5.3,0,0,1-5.217-5.37,5.22,5.22,0,1,1,10.435,0,5.3,5.3,0,0,1-5.218,5.37m0-10.283a4.85,4.85,0,0,0-4.774,4.913,4.776,4.776,0,1,0,9.548,0A4.851,4.851,0,0,0,238.637.457" transform="translate(-129.841)" fill="#3b3638"/>
          <path id="Trazado_1275101" data-name="Trazado 1275101" d="M244.589,8.919a2.32,2.32,0,1,0-2.319,2.387,2.354,2.354,0,0,0,2.319-2.387" transform="translate(-133.475 -3.549)" fill="#76a38e"/>
          <path id="Trazado_1275102" data-name="Trazado 1275102" d="M102.669,106.059a5.372,5.372,0,1,1,5.218-5.37,5.3,5.3,0,0,1-5.218,5.37m0-10.283a4.915,4.915,0,1,0,4.774,4.913,4.851,4.851,0,0,0-4.774-4.913" transform="translate(-54.208 -51.787)" fill="#3b3638"/>
          <path id="Trazado_1275103" data-name="Trazado 1275103" d="M108.621,104.238a2.32,2.32,0,1,0-2.319,2.387,2.354,2.354,0,0,0,2.319-2.387" transform="translate(-57.841 -55.335)" fill="#76a38e"/>
          <path id="Trazado_1275104" data-name="Trazado 1275104" d="M5.218,106.059a5.372,5.372,0,0,1,0-10.74,5.372,5.372,0,0,1,0,10.74m0-10.283a4.915,4.915,0,0,0,0,9.826,4.915,4.915,0,0,0,0-9.826" transform="translate(0 -51.787)" fill="#3b3638"/>
          <path id="Trazado_1275105" data-name="Trazado 1275105" d="M11.17,104.238a2.32,2.32,0,1,0-2.319,2.387,2.354,2.354,0,0,0,2.319-2.387" transform="translate(-3.633 -55.335)" fill="#76a38e"/>
          <path id="Trazado_1275106" data-name="Trazado 1275106" d="M164.738,26.373a.225.225,0,0,1-.222-.228V23.862a.222.222,0,1,1,.444,0v2.284a.225.225,0,0,1-.222.228m0-5.48a.225.225,0,0,1-.222-.228V18.381a.222.222,0,1,1,.444,0v2.284a.225.225,0,0,1-.222.228m0-5.48a.225.225,0,0,1-.222-.228V12.9a.222.222,0,1,1,.444,0v2.284a.225.225,0,0,1-.222.228m30.575-3.7h-2.219a.228.228,0,0,1,0-.457h2.219a.228.228,0,0,1,0,.457m-5.325,0h-2.219a.228.228,0,0,1,0-.457h2.219a.228.228,0,0,1,0,.457m-5.325,0h-2.219a.228.228,0,0,1,0-.457h2.219a.228.228,0,0,1,0,.457m-5.325,0H177.12a.228.228,0,0,1,0-.457h2.219a.228.228,0,0,1,0,.457m-5.325,0h-2.219a.228.228,0,0,1,0-.457h2.219a.228.228,0,0,1,0,.457m-5.325,0H166.47a.228.228,0,0,1,0-.457h2.219a.228.228,0,0,1,0,.457" transform="translate(-91.513 -6.116)" fill="#3b3638"/>
          <path id="Trazado_1275107" data-name="Trazado 1275107" d="M55.989,107.034H53.77a.228.228,0,0,1,0-.457h2.219a.228.228,0,0,1,0,.457m-5.325,0H48.445a.228.228,0,0,1,0-.457h2.219a.228.228,0,0,1,0,.457m-5.325,0H43.121a.228.228,0,0,1,0-.457h2.219a.228.228,0,0,1,0,.457m-5.325,0H37.8a.228.228,0,0,1,0-.457h2.219a.228.228,0,0,1,0,.457m-5.325,0H32.471a.228.228,0,0,1,0-.457h2.219a.228.228,0,0,1,0,.457m-5.325,0H27.146a.228.228,0,0,1,0-.457h2.219a.228.228,0,0,1,0,.457m-5.325,0h-1.3a.228.228,0,0,1,0-.457h1.3a.228.228,0,0,1,0,.457" transform="translate(-12.524 -57.903)" fill="#3b3638"/>
          <path id="Trazado_1275108" data-name="Trazado 1275108" d="M410.444,555.108V596.9l40.7,9.85,40.7-9.85V555.108Z" transform="translate(-228.313 -301.589)" fill="#6b6b82"/>
          <path id="Trazado_1275109" data-name="Trazado 1275109" d="M501.888,628.773a.225.225,0,0,1-.222-.228V600.586a.222.222,0,1,1,.444,0v27.958a.225.225,0,0,1-.222.228" transform="translate(-279.056 -326.173)" fill="#fff"/>
          <path id="Trazado_1275110" data-name="Trazado 1275110" d="M428.853,553.241l-23.115,16.715L370.369,561.6l17.783-18.208,40.7-9.85,40.7,9.85,22.621,15.372-38.282,14.246Z" transform="translate(-206.021 -289.871)" fill="#b6b6ce"/>
          <path id="Trazado_1275111" data-name="Trazado 1275111" d="M491.846,543.39l-40.7,9.85-40.7-9.85,40.7-9.85Z" transform="translate(-228.313 -289.871)" fill="#6b6b82"/>
          <path id="Trazado_1275112" data-name="Trazado 1275112" d="M453.06,565.419a.214.214,0,0,1-.051-.006l-38.951-9.426a.229.229,0,0,1-.165-.275.223.223,0,0,1,.267-.17l38.9,9.414,37.867-9.164a.221.221,0,0,1,.266.17.228.228,0,0,1-.165.275l-37.918,9.177a.214.214,0,0,1-.051.006" transform="translate(-230.228 -301.821)" fill="#fff"/>
          <path id="Trazado_1275113" data-name="Trazado 1275113" d="M296.466,655.031c-.448-1.066-1.2-4.571.474-7.214l9.761-2.971c3.027,4.609,19.289,7.973,16,10.185Z" transform="translate(-164.6 -350.343)" fill="#3b3638"/>
          <path id="Trazado_1275114" data-name="Trazado 1275114" d="M273.433,673.031c-.448-1.066-1.194-4.571.475-7.214l9.761-2.971c3.027,4.609,19.289,7.973,16,10.185Z" transform="translate(-151.788 -360.122)" fill="#3b3638"/>
          <path id="Trazado_1275115" data-name="Trazado 1275115" d="M182.456,589.681c-2.153,2.6-5.662,3.213-9.761,2.971,0,0-16.686-5.786-29.326-25.869,0,0-37.841,31.743-45.29,33.075-21.93,3.922-30.448-10.987-22.758-40.109l28.03,1.836s25.945-19.087,38.209-18.25,40.9,46.346,40.9,46.346" transform="translate(-40.355 -295.178)" fill="#ffbd63"/>
          <path id="Trazado_1275116" data-name="Trazado 1275116" d="M254,495.354s8.073-2.711,9.877-2.711,8.28-.667,8.317.306-6.389,3.5-7.887,4.556c-.873.615,10.528,7.249,10.528,7.249s-5.289,1.516-8.038,1.428-10.306-1.96-10.306-1.96Z" transform="translate(-141.287 -267.53)" fill="#f59976"/>
          <path id="Trazado_1275117" data-name="Trazado 1275117" d="M114.1,485.862s-40.731,13.286-50.71,12.184c0,0-10.2-35.573,3.08-72.988,1.791-5.044,12.04-3.951,12.04-3.951l18.721.416s10.578,4.241,12.92,13.313c2.31,8.947,10.15,24.485,10.15,24.485l26.089-4.674s4.024,9.2,3.079,12.74l-35.166,14.938Z" transform="translate(-33.181 -228.732)" fill="#69d7e5"/>
          <path id="Trazado_1275118" data-name="Trazado 1275118" d="M202.013,563.2c-2.182-2.525-6.819-5.7-8.777-6.21-3.047-.788-5.515-.315-10.87.438l.2-3.536s11.305-2.279,14.612-.438c2.876,1.608,6.026,7.874,4.832,9.745" transform="translate(-101.443 -300.303)" fill="#f59976"/>
          <path id="Trazado_1275119" data-name="Trazado 1275119" d="M169.264,607.673c-2.153,2.6-5.662,3.213-9.761,2.971,0,0-16.906-5.7-29.546-25.778,0,0-26.072,24.771-37.881,25.24-16.693.664-27.057-5.562-24.48-35.844l39.955-9.809s14.313-3.9,20.6-3.037c12.184,1.667,41.116,46.255,41.116,46.255" transform="translate(-37.383 -304.949)" fill="#ffbd63"/>
          <path id="Trazado_1275120" data-name="Trazado 1275120" d="M219.562,607.628a.22.22,0,0,1-.185-.1c-.288-.445-29.015-44.521-40.96-46.156-6.173-.844-20.368,2.992-20.511,3.031a.222.222,0,0,1-.272-.162.23.23,0,0,1,.158-.28c.586-.159,14.427-3.9,20.683-3.042,12.143,1.661,40.087,44.53,41.271,46.354a.233.233,0,0,1-.062.317.215.215,0,0,1-.123.038" transform="translate(-87.682 -304.677)" fill="#3b3638"/>
          <path id="Trazado_1275121" data-name="Trazado 1275121" d="M152.517,374.515c-2.32-10.97.172-28.311-3.445-34.977-6.342-11.685-15.806,35.291-8.235,36.709,0,0,14.731,12.693,11.68-1.733" transform="translate(-76.781 -183.457)" fill="#97614c"/>
          <path id="Trazado_1275122" data-name="Trazado 1275122" d="M120.881,402.017s-.787,2.808-5.605,2.808-13.117-3.225-13.117-3.225c3.538-5.176,3.024-16.5,3.024-16.5h13.994c-.285,6.9-1.094,14.567,1.7,16.914" transform="translate(-56.826 -209.225)" fill="#f59976"/>
          <path id="Trazado_1275123" data-name="Trazado 1275123" d="M131.913,353.127c.173,9.868-2.758,17.143-9.151,17.756-7.713.74-16.249-7.413-16.422-17.281s5.726-18.308,12.788-18.439,12.612,8.1,12.785,17.964" transform="translate(-59.15 -182.092)" fill="#f59976"/>
          <path id="Trazado_1275124" data-name="Trazado 1275124" d="M79.321,350.331c3.926-6.338,6.937-21.919,14.622-25.236,2.445-1.055,4.3.04,4.6,1.637,0,0,5.677-4.485,9.768-.379,10.149,10.187,5.039,18.421,5.039,18.421s-1.549-5.275-3.834-6.492-4.658-.73-6.586-2.434a38.4,38.4,0,0,1-3.223-3.2,8.073,8.073,0,0,1-2.839,7.478c-2.752,2.13-6.9,3.938-6.862,8.074,0,0,4.12,19.99-4.092,20.537-17.62,1.173-14.612-5.47-6.6-18.411" transform="translate(-40.583 -176.366)" fill="#97614c"/>
          <path id="Trazado_1275125" data-name="Trazado 1275125" d="M109.391,375.225c.678,2.288-.084,4.555-1.7,5.063s-3.483-.933-4.161-3.221.084-4.555,1.7-5.063,3.483.933,4.161,3.221" transform="translate(-57.449 -202.054)" fill="#f59976"/>
          <path id="Trazado_1275126" data-name="Trazado 1275126" d="M123.588,367.437c.128.687,1.422,1.009,2.891.72s2.556-1.081,2.427-1.768-1.422-1.009-2.891-.72-2.555,1.081-2.427,1.768" transform="translate(-68.741 -198.609)" fill="#97614c"/>
          <path id="Trazado_1275127" data-name="Trazado 1275127" d="M130.078,376.114c.16.859.722,1.47,1.256,1.364s.837-.887.678-1.746-.722-1.47-1.256-1.364-.837.887-.678,1.746" transform="translate(-72.333 -203.387)" fill="#3b3638"/>
          <path id="Trazado_1275128" data-name="Trazado 1275128" d="M130.874,374.994c-.454-1.876-2.154-2.336-3.325-.78a3.939,3.939,0,0,0-.665,1.2.112.112,0,0,0,.067.142.108.108,0,0,0,.114-.028c.665-.568,1.378-1.574,2.283-1.481a3.355,3.355,0,0,1,1.336,1.044.11.11,0,0,0,.19-.1" transform="translate(-70.577 -202.8)" fill="#3b3638"/>
          <path id="Trazado_1275129" data-name="Trazado 1275129" d="M149.347,363.768c.128.687,1.422,1.009,2.891.72s2.556-1.082,2.427-1.768-1.422-1.009-2.891-.72-2.555,1.081-2.427,1.768" transform="translate(-83.07 -196.616)" fill="#97614c"/>
          <path id="Trazado_1275130" data-name="Trazado 1275130" d="M155.837,372.445c.16.859.722,1.47,1.256,1.364s.837-.887.678-1.746-.722-1.47-1.256-1.364-.837.887-.678,1.746" transform="translate(-86.662 -201.394)" fill="#3b3638"/>
          <path id="Trazado_1275131" data-name="Trazado 1275131" d="M156.633,371.325c-.454-1.876-2.154-2.336-3.325-.78a3.941,3.941,0,0,0-.665,1.2.113.113,0,0,0,.067.142.107.107,0,0,0,.114-.028c.665-.568,1.378-1.574,2.283-1.481a3.355,3.355,0,0,1,1.336,1.044.11.11,0,0,0,.19-.1" transform="translate(-84.905 -200.806)" fill="#3b3638"/>
          <path id="Trazado_1275132" data-name="Trazado 1275132" d="M140.743,395.036a3.547,3.547,0,0,0,4.1-.021,4.176,4.176,0,0,1,.69-.331.154.154,0,0,1,.2.1,2.74,2.74,0,0,1-4.791,1.149,2.424,2.424,0,0,1-.421-.714.154.154,0,0,1,.086-.2.149.149,0,0,1,.138.016" transform="translate(-78.159 -214.426)" fill="#db6f42"/>
          <path id="Trazado_1275133" data-name="Trazado 1275133" d="M143.664,372.159l2.17,6.706c.563,1.317-2.714,1.838-3.157.509-.085-.256.726-6.97.7-7.2.012-.145.242-.158.282-.015" transform="translate(-79.362 -202.138)" fill="#db6f42"/>
          <path id="Trazado_1275134" data-name="Trazado 1275134" d="M128.2,408.854l-.033,0a16.876,16.876,0,0,1-7.919-3.766.234.234,0,0,1-.02-.323.218.218,0,0,1,.313-.02,16.74,16.74,0,0,0,7.691,3.657.228.228,0,0,1,.186.26.224.224,0,0,1-.219.194" transform="translate(-66.845 -219.864)" fill="#db6f42"/>
          <path id="Trazado_1275135" data-name="Trazado 1275135" d="M123.013,375.708a5.681,5.681,0,1,1,5.518-5.679,5.607,5.607,0,0,1-5.518,5.679m0-10.9a5.224,5.224,0,1,0,5.075,5.222,5.156,5.156,0,0,0-5.075-5.222" transform="translate(-65.358 -197.95)" fill="#fff"/>
          <path id="Trazado_1275136" data-name="Trazado 1275136" d="M151.823,371.6a5.681,5.681,0,1,1,5.518-5.679,5.607,5.607,0,0,1-5.518,5.679m0-10.9a5.224,5.224,0,1,0,5.074,5.222,5.156,5.156,0,0,0-5.074-5.222" transform="translate(-81.383 -195.721)" fill="#fff"/>
          <path id="Trazado_1275137" data-name="Trazado 1275137" d="M141.177,373.322a.224.224,0,0,1-.22-.2.227.227,0,0,1,.2-.252l2.379-.265a.228.228,0,0,1,.047.454l-2.378.265h-.024" transform="translate(-78.407 -202.433)" fill="#fff"/>
          <path id="Trazado_1275138" data-name="Trazado 1275138" d="M114.347,374.766a.219.219,0,0,1-.138-.05l-2.7-2.224a.233.233,0,0,1-.035-.321.218.218,0,0,1,.312-.036l2.7,2.223a.233.233,0,0,1,.035.321.219.219,0,0,1-.174.086" transform="translate(-61.979 -202.153)" fill="#fff"/>
          <path id="Trazado_1275139" data-name="Trazado 1275139" d="M126.709,316.106c-3.526-.158-1.064-4.755-1.4-6.639-.628-3.471-6.282-4.95-8.566-2.236-2.821,3.353.984,7.043,3.327,9.14,1.355,2.387,3.991,1.086,6.643-.265" transform="translate(-64.381 -166.155)" fill="#97614c"/>
          <path id="Trazado_1275140" data-name="Trazado 1275140" d="M92.06,437.316a.225.225,0,0,1-.222-.221c-.221-7.3-5.561-8.8-5.788-8.858a.23.23,0,0,1-.16-.278.221.221,0,0,1,.27-.164c.059.016,5.89,1.639,6.122,9.286a.226.226,0,0,1-.215.236Z" transform="translate(-47.773 -232.415)" fill="#3b3638"/>
          <path id="Trazado_1275141" data-name="Trazado 1275141" d="M138.6,509.2a.231.231,0,0,1-.039,0l-23.427-4.307a.224.224,0,0,1-.174-.161l-9.115-32.26a.229.229,0,0,1,.151-.283.22.22,0,0,1,.275.155l9.077,32.124,23.292,4.282a.228.228,0,0,1,.179.265.224.224,0,0,1-.218.188" transform="translate(-58.872 -256.53)" fill="#3b3638"/>
          <path id="Trazado_1275142" data-name="Trazado 1275142" d="M80.247,536.241a.215.215,0,0,1-.092-.021c-2.531-1.184-12.328-28.412-13.436-31.512a.23.23,0,0,1,.131-.293.22.22,0,0,1,.284.135c3,8.377,11.206,30.32,13.2,31.255a.231.231,0,0,1,.11.3.222.222,0,0,1-.2.134" transform="translate(-37.105 -274.04)" fill="#3b3638"/>
          <path id="Trazado_1275143" data-name="Trazado 1275143" d="M173.007,498.32a.224.224,0,0,1-.22-.2c-.048-.376-4.8-37.642-5.1-41.143a.222.222,0,1,1,.442-.04c.3,3.491,5.047,40.747,5.095,41.123a.228.228,0,0,1-.191.256l-.029,0" transform="translate(-93.279 -248.14)" fill="#3b3638"/>
          <path id="Trazado_1275144" data-name="Trazado 1275144" d="M200.84,508.091a.213.213,0,0,1-.108-.029l-2.348-1.356a.232.232,0,0,1-.086-.311.218.218,0,0,1,.3-.088l2.348,1.356a.233.233,0,0,1,.086.311.221.221,0,0,1-.194.116" transform="translate(-110.289 -275.06)" fill="#3b3638"/>
          <path id="Trazado_1275145" data-name="Trazado 1275145" d="M250.137,172.412h15.277v15.723H250.137Zm26.545,15.723h15.277V172.412H276.682Zm26.545,0H318.5V172.412H303.227Zm-22.652-18.56-.84-.913-.714.7,2.141,2.328,2.141-2.328-.714-.7-1,1.087a10.593,10.593,0,0,0-21.144,1.2h.984a9.606,9.606,0,0,1,19.147-1.374m26.545,0-.84-.913-.714.7,2.141,2.328,2.141-2.328-.714-.7-1,1.087a10.593,10.593,0,0,0-21.144,1.2h.984a9.606,9.606,0,0,1,19.147-1.374" transform="translate(-139.141 -86.947)" fill="#b6b6ce"/>
        </g>
      </g>
    </g>
  </g>
</svg>
