<svg xmlns="http://www.w3.org/2000/svg" xmlns:xlink="http://www.w3.org/1999/xlink" width="187.711" height="121.729" viewBox="0 0 187.711 121.729">
  <defs>
    <clipPath id="clip-path">
      <rect id="Rectángulo_460733" data-name="Rectángulo 460733" width="139.126" height="104" fill="none"/>
    </clipPath>
    <clipPath id="clip-path-2">
      <rect id="Rectángulo_460732" data-name="Rectángulo 460732" width="139.126" height="103.999" fill="none"/>
    </clipPath>
    <clipPath id="clip-path-3">
      <rect id="Rectángulo_460703" data-name="Rectángulo 460703" width="72.448" height="45.662" fill="none"/>
    </clipPath>
    <clipPath id="clip-path-4">
      <rect id="Rectángulo_460731" data-name="Rectángulo 460731" width="14.408" height="28.56" fill="none"/>
    </clipPath>
  </defs>
  <g id="Grupo_1211732" data-name="Grupo 1211732" transform="translate(-289.711 -3343)">
    <g id="Grupo_1210720" data-name="Grupo 1210720" transform="translate(0.434 -5525.039)">
      <g id="Grupo_1204518" data-name="Grupo 1204518" transform="translate(289.277 8868.039)">
        <rect id="Rectángulo_455283" data-name="Rectángulo 455283" width="187.711" height="121.729" rx="19" fill="#9ed1ff"/>
      </g>
    </g>
    <g id="Grupo_1211008" data-name="Grupo 1211008" transform="translate(313.711 3352)">
      <g id="Grupo_1211007" data-name="Grupo 1211007" clip-path="url(#clip-path)">
        <rect id="Rectángulo_460694" data-name="Rectángulo 460694" width="1.259" height="0.884" transform="translate(18.93 81.073) rotate(-89.237)" fill="#fff"/>
        <path id="Trazado_1273267" data-name="Trazado 1273267" d="M43.695,59.99H41.23V59.1h2.465Zm-4.93,0H36.3V59.1h2.465Zm-4.93,0H31.373V59.1h2.463Zm-4.931,0H26.441V59.1H28.9Zm-4.928,0H21.512V59.1h2.465Zm-4.93,0H16.582V59.1h2.465Zm-4.931,0H11.351l-.081-.466.875-.123-.433.061-.005-.355,2.408,0ZM11.2,57l0-.993,0-1.471.886,0,0,1.468,0,.99Zm.9-4.918-.884-.008.025-2.46.884.008Z" transform="translate(7.655 33.92)" fill="#fff"/>
        <path id="Trazado_1273268" data-name="Trazado 1273268" d="M33.615,56.471h-1.7v-.884h.815v-.822h.884Z" transform="translate(21.818 37.438)" fill="#fff"/>
        <path id="Trazado_1273269" data-name="Trazado 1273269" d="M32.4,71.106h.886V68.515H32.4Zm0-5.18h.886V63.334H32.4Zm0-5.18h.886V58.154H32.4Zm0-5.18h.886V52.975H32.4Zm0-5.18h.886V47.793H32.4Zm0-5.18h.886V42.613H32.4Zm0-5.18h.886V37.434H32.4Zm0-5.18h.886V32.253H32.4Zm0-5.18h.886V27.073H32.4Z" transform="translate(22.149 18.507)" fill="#fff"/>
        <path id="Trazado_1273270" data-name="Trazado 1273270" d="M33.284,26.226H32.4v-1.7h1.705v.884h-.822Z" transform="translate(22.149 16.763)" fill="#fff"/>
        <path id="Trazado_1273271" data-name="Trazado 1273271" d="M34.988,25.406h2.653v-.884H34.988Zm5.305,0h2.653v-.884H40.293Zm5.305,0h2.653v-.884H45.6Zm5.305,0h2.652v-.884H50.9Zm5.3,0H58.86v-.884H56.206Z" transform="translate(23.918 16.763)" fill="#fff"/>
        <path id="Trazado_1273272" data-name="Trazado 1273272" d="M52.447,25.739h-1.7v-.884h.82v-.822h.884Z" transform="translate(34.688 16.43)" fill="#fff"/>
        <path id="Trazado_1273273" data-name="Trazado 1273273" d="M51.23,31.815h.884V29.273H51.23Zm0-5.084h.884V24.189H51.23Zm0-5.086h.884V19.1H51.23Zm0-5.084h.884V14.018H51.23Zm0-5.086h.884V8.932H51.23Z" transform="translate(35.021 6.106)" fill="#fff"/>
        <path id="Trazado_1273274" data-name="Trazado 1273274" d="M52.114,8.115H51.23V6.41h1.705V7.3h-.822Z" transform="translate(35.021 4.382)" fill="#fff"/>
        <path id="Trazado_1273275" data-name="Trazado 1273275" d="M53.814,7.295h2.647V6.409H53.814Zm5.292,0h2.647V6.409H59.106Zm5.293,0h2.647V6.409H64.4Zm5.293,0h2.645V6.409H69.692Zm5.293,0H77.63V6.409H74.985Zm5.29,0h2.647V6.409H80.275Z" transform="translate(36.787 4.381)" fill="#fff"/>
        <path id="Trazado_1273276" data-name="Trazado 1273276" d="M74.38,8.115H73.5V7.3h-.822V6.41H74.38Z" transform="translate(49.681 4.382)" fill="#fff"/>
        <path id="Trazado_1273277" data-name="Trazado 1273277" d="M73.163,18.041h.886V15.086h-.886Zm0-5.909h.886V9.177h-.886Z" transform="translate(50.014 6.273)" fill="#fff"/>
        <rect id="Rectángulo_460695" data-name="Rectángulo 460695" width="0.886" height="1.264" transform="translate(123.177 27.268)" fill="#fff"/>
        <rect id="Rectángulo_460696" data-name="Rectángulo 460696" width="0.884" height="1.264" transform="translate(122.221 49.007)" fill="#fff"/>
        <path id="Trazado_1273278" data-name="Trazado 1273278" d="M72.6,59.752h.884V57.174H72.6Zm0-5.157h.884V52.017H72.6Zm0-5.155h.884V46.861H72.6Zm0-5.159h.884V41.7H72.6Zm0-5.157h.884V36.547H72.6Zm0-5.155h.884V31.39H72.6Z" transform="translate(49.626 21.458)" fill="#fff"/>
        <path id="Trazado_1273279" data-name="Trazado 1273279" d="M73.812,51.474H72.107V50.59h.822v-.822h.884Z" transform="translate(49.292 34.022)" fill="#fff"/>
        <path id="Trazado_1273280" data-name="Trazado 1273280" d="M66.245,51.141h2.466v-.886H66.245Zm4.936,0h2.466v-.886H71.181Z" transform="translate(45.285 34.354)" fill="#fff"/>
        <rect id="Rectángulo_460697" data-name="Rectángulo 460697" width="1.263" height="0.886" transform="translate(107.799 84.61)" fill="#fff"/>
        <rect id="Rectángulo_460698" data-name="Rectángulo 460698" width="0.884" height="1.264" transform="translate(70.95 66.856)" fill="#fff"/>
        <path id="Trazado_1273281" data-name="Trazado 1273281" d="M42.142,68.864h.884v-2.45h-.884Zm0-4.9h.884v-2.45h-.884Zm0-4.9h.884v-2.45h-.884Zm0-4.9h.884v-2.45h-.884Zm0-4.9h.884v-2.45h-.884Zm0-4.9h.884v-2.45h-.884Z" transform="translate(28.808 28.654)" fill="#fff"/>
        <path id="Trazado_1273282" data-name="Trazado 1273282" d="M43.847,61.082H42.141V59.377h.884V60.2h.822Z" transform="translate(28.808 40.59)" fill="#fff"/>
        <path id="Trazado_1273283" data-name="Trazado 1273283" d="M44.528,60.75h2.313v-.886H44.528Zm4.628,0h2.313v-.886H49.156Zm4.627,0H56.1v-.886H53.783Zm4.627,0h2.312v-.886H58.409Zm4.627,0h2.313v-.886H63.036Z" transform="translate(30.439 40.923)" fill="#fff"/>
        <path id="Trazado_1273284" data-name="Trazado 1273284" d="M59.975,61.081H58.269V60.2h.822v-.82h.884Z" transform="translate(39.833 40.591)" fill="#fff"/>
        <path id="Trazado_1273285" data-name="Trazado 1273285" d="M58.757,60.678h.886V58.593h-.886Zm0-4.165h.886V54.428h-.886Z" transform="translate(40.166 37.207)" fill="#fff"/>
        <rect id="Rectángulo_460699" data-name="Rectángulo 460699" width="0.886" height="1.259" transform="translate(98.923 88.297)" fill="#fff"/>
        <rect id="Rectángulo_460700" data-name="Rectángulo 460700" width="0.886" height="1.263" transform="translate(17.403 44.636)" fill="#fff"/>
        <path id="Trazado_1273286" data-name="Trazado 1273286" d="M10.337,40.392h.886V37.867h-.886Zm0-5.049h.886V32.818h-.886Zm0-5.052h.886V27.767h-.886Zm0-5.051h.886V22.715h-.886Zm0-5.049h.886V17.665h-.886Zm0-5.052h.886V12.615h-.886Zm0-5.051h.886V7.562h-.886Zm0-5.049h.886V2.513h-.886Z" transform="translate(7.066 1.718)" fill="#fff"/>
        <path id="Trazado_1273287" data-name="Trazado 1273287" d="M10.337,0V1.7h.886V.886h.818V0Z" transform="translate(7.066)" fill="#fff"/>
        <path id="Trazado_1273288" data-name="Trazado 1273288" d="M12.811.885h2.461V0H12.811Zm4.921,0h2.461V0H17.732Zm4.923,0h2.461V0H22.655Zm4.921,0h2.461V0H27.576Zm4.921,0h2.461V0H32.5Zm4.923,0h2.461V0H37.42Zm4.923,0H44.8V0H42.343Zm4.921,0h2.461V0H47.264Zm4.921,0h2.461V0H52.185Zm4.921,0h2.461V0H57.107Zm4.923,0h2.461V0H62.029Z" transform="translate(8.758 -0.001)" fill="#fff"/>
        <path id="Trazado_1273289" data-name="Trazado 1273289" d="M44.969,0V.886h.822V1.7h.882V0Z" transform="translate(30.74)" fill="#fff"/>
        <path id="Trazado_1273290" data-name="Trazado 1273290" d="M45.456,10.917h.884V8.161h-.884Zm0-5.512h.884V2.649h-.884Z" transform="translate(31.074 1.811)" fill="#fff"/>
        <path id="Trazado_1273291" data-name="Trazado 1273291" d="M46.674,10.9H44.968v-.884h.822V9.2h.884Z" transform="translate(30.74 6.287)" fill="#fff"/>
        <path id="Trazado_1273292" data-name="Trazado 1273292" d="M37.116,10.567h2.2V9.683h-2.2Zm4.406,0h2.2V9.683h-2.2Zm4.408,0h2.2V9.683h-2.2Z" transform="translate(25.372 6.619)" fill="#fff"/>
        <rect id="Rectángulo_460701" data-name="Rectángulo 460701" width="1.264" height="0.884" transform="translate(59.022 16.303)" fill="#fff"/>
        <g id="Grupo_1211006" data-name="Grupo 1211006" transform="translate(0 0.001)">
          <g id="Grupo_1211005" data-name="Grupo 1211005" clip-path="url(#clip-path-2)">
            <path id="Trazado_1273293" data-name="Trazado 1273293" d="M51.322,59.129A14.077,14.077,0,1,0,37.247,73.2,14.075,14.075,0,0,0,51.322,59.129" transform="translate(15.838 30.797)" fill="#ebf0f5"/>
            <path id="Trazado_1273294" data-name="Trazado 1273294" d="M50.471,59.129A14.076,14.076,0,1,0,36.395,73.2,14.077,14.077,0,0,0,50.471,59.129" transform="translate(15.258 30.797)" fill="#fff"/>
            <path id="Trazado_1273295" data-name="Trazado 1273295" d="M44.338,57.9l-.269-2.923L41.826,54.8a7.433,7.433,0,0,0-.662-1.384l1.29-1.791-2.121-2.069-1.812,1.266a7.741,7.741,0,0,0-1.434-.652L36.9,48.01l-2.983-.249-.552,2.1a7.739,7.739,0,0,0-1.544.407l-1.546-1.527-.072.049-2.377,1.638.948,1.948a7.82,7.82,0,0,0-.909,1.291l-2.189-.2-.768,2.835,2.019.9a7.412,7.412,0,0,0,.148,1.551l-1.82,1.236,1.274,2.655,2.157-.586A7.635,7.635,0,0,0,29.8,63.139l-.588,2.115,2.714,1.234,1.281-1.825a7.859,7.859,0,0,0,1.54.12l.944,2.01,2.889-.766L38.476,64.9l-.109-1.084c.214-.125.428-.253.633-.394s.424-.31.621-.478l2.047.95,1.711-2.408L41.76,59.92a7.333,7.333,0,0,0,.392-1.456Zm-7,3.2a4.958,4.958,0,0,1-.626.359,4.831,4.831,0,0,1-6.022-1.492,4.622,4.622,0,0,1,1.157-6.517,4.939,4.939,0,0,1,.583-.338,4.825,4.825,0,0,1,6.064,1.473A4.618,4.618,0,0,1,37.336,61.1" transform="translate(17.029 32.649)" fill="#1e535a"/>
            <path id="Trazado_1273296" data-name="Trazado 1273296" d="M94.066,28.735A14.076,14.076,0,1,0,79.99,42.81,14.077,14.077,0,0,0,94.066,28.735" transform="translate(45.059 10.021)" fill="#ebf0f5"/>
            <path id="Trazado_1273297" data-name="Trazado 1273297" d="M93.216,28.735A14.075,14.075,0,1,0,79.141,42.81,14.074,14.074,0,0,0,93.216,28.735" transform="translate(44.479 10.021)" fill="#fff"/>
            <path id="Trazado_1273298" data-name="Trazado 1273298" d="M81.951,22.642v3.214H79.744V22.642a2.727,2.727,0,0,0-2.722-2.719H74.915a2.725,2.725,0,0,0-2.722,2.719v3.214H69.984V22.642a4.936,4.936,0,0,1,4.931-4.93h2.106c.136,0,.271.008.4.02a4.934,4.934,0,0,1,4.526,4.909" transform="translate(47.841 12.107)" fill="#14b0bf"/>
            <path id="Trazado_1273299" data-name="Trazado 1273299" d="M81.641,21.768H70.883a1.58,1.58,0,0,0-.916.29,1.6,1.6,0,0,0-.69,1.313v7.835a1.606,1.606,0,0,0,1.606,1.6H81.641a1.615,1.615,0,0,0,1.6-1.6V23.371a1.6,1.6,0,0,0-1.6-1.6" transform="translate(47.358 14.88)" fill="#14b0bf"/>
            <path id="Trazado_1273300" data-name="Trazado 1273300" d="M80.558,22.215H71.121a1.229,1.229,0,0,0-1.227,1.227v6.42a1.229,1.229,0,0,0,1.227,1.227h9.437a1.229,1.229,0,0,0,1.227-1.227v-6.42a1.229,1.229,0,0,0-1.227-1.227" transform="translate(47.78 15.185)" fill="#2dd"/>
            <path id="Trazado_1273301" data-name="Trazado 1273301" d="M74.969,25.37a1.038,1.038,0,0,0-2.076,0,1.021,1.021,0,0,0,.439.827v2.049h1.2V26.2a1.017,1.017,0,0,0,.439-.825" transform="translate(49.83 16.633)" fill="#16405e"/>
            <path id="Trazado_1273302" data-name="Trazado 1273302" d="M100.263,13.932V63.268a1.8,1.8,0,0,1-1.795,1.791H22.016a1.8,1.8,0,0,1-1.793-1.791V13.932a1.8,1.8,0,0,1,1.793-1.795H98.468a1.8,1.8,0,0,1,1.795,1.795" transform="translate(13.824 8.296)" fill="#1a222b"/>
            <path id="Trazado_1273303" data-name="Trazado 1273303" d="M98.255,13.932V63.268a1.8,1.8,0,0,1-1.795,1.791H20.01a1.8,1.8,0,0,1-1.793-1.791V13.932a1.8,1.8,0,0,1,1.793-1.795H96.461a1.8,1.8,0,0,1,1.795,1.795" transform="translate(12.453 8.296)" fill="#2c3540"/>
            <path id="Rectángulo_460702" data-name="Rectángulo 460702" d="M1.053,0H73.168a1.053,1.053,0,0,1,1.053,1.053v45.33a1.052,1.052,0,0,1-1.052,1.052H1.052A1.052,1.052,0,0,1,0,46.383V1.053A1.053,1.053,0,0,1,1.053,0Z" transform="translate(33.577 23.178)" fill="#e4e8ed"/>
            <g id="Grupo_1211001" data-name="Grupo 1211001" transform="translate(33.577 23.179)" opacity="0.3" style="mix-blend-mode: screen;isolation: isolate">
              <g id="Grupo_1211000" data-name="Grupo 1211000">
                <g id="Grupo_1210999" data-name="Grupo 1210999" clip-path="url(#clip-path-3)">
                  <path id="Trazado_1273304" data-name="Trazado 1273304" d="M19.944,59.431V15.539a1.775,1.775,0,0,1,1.771-1.771H92.393Z" transform="translate(-19.944 -13.768)" fill="#fff"/>
                </g>
              </g>
            </g>
            <path id="Trazado_1273305" data-name="Trazado 1273305" d="M57.591,43.571H.453v1.037a7.867,7.867,0,0,0,7.866,7.862H105.91a7.867,7.867,0,0,0,7.867-7.862V43.571Z" transform="translate(0.31 29.784)" fill="#1a222b"/>
            <path id="Trazado_1273306" data-name="Trazado 1273306" d="M28.6,43.571H0v1.037a7.865,7.865,0,0,0,7.866,7.862H76.917a7.866,7.866,0,0,0,7.866-7.862V43.571Z" transform="translate(0 29.784)" fill="#1a222b"/>
            <path id="Trazado_1273307" data-name="Trazado 1273307" d="M79.714,54.113A14.077,14.077,0,1,0,65.638,68.187,14.077,14.077,0,0,0,79.714,54.113" transform="translate(35.247 27.368)" fill="#ebf0f5"/>
            <path id="Trazado_1273308" data-name="Trazado 1273308" d="M78.862,54.113A14.075,14.075,0,1,0,64.787,68.187,14.075,14.075,0,0,0,78.862,54.113" transform="translate(34.667 27.368)" fill="#fff"/>
            <path id="Rectángulo_460704" data-name="Rectángulo 460704" d="M.453,0H17.668a.453.453,0,0,1,.453.453V12.466a.452.452,0,0,1-.452.452H.452A.452.452,0,0,1,0,12.466V.453A.453.453,0,0,1,.453,0Z" transform="translate(90.393 76.607)" fill="#97b0cc"/>
            <path id="Trazado_1273309" data-name="Trazado 1273309" d="M68.625,56.153H54.365v-9.13H70.214v7.541Z" transform="translate(37.164 32.144)" fill="#fefeff"/>
            <path id="Rectángulo_460705" data-name="Rectángulo 460705" d="M.451,0H17.669a.452.452,0,0,1,.452.452V3.176a.452.452,0,0,1-.452.452H.452A.452.452,0,0,1,0,3.176V.451A.451.451,0,0,1,.451,0Z" transform="translate(90.393 74.31)" fill="#ff4140"/>
            <rect id="Rectángulo_460706" data-name="Rectángulo 460706" width="1.66" height="1.663" transform="translate(92.371 81.907)" fill="#97b0cc"/>
            <rect id="Rectángulo_460707" data-name="Rectángulo 460707" width="1.662" height="1.663" transform="translate(94.453 81.907)" fill="#ffb851"/>
            <rect id="Rectángulo_460708" data-name="Rectángulo 460708" width="1.662" height="1.663" transform="translate(96.539 81.907)" fill="#97b0cc"/>
            <rect id="Rectángulo_460709" data-name="Rectángulo 460709" width="1.66" height="1.663" transform="translate(98.624 81.907)" fill="#ffb851"/>
            <rect id="Rectángulo_460710" data-name="Rectángulo 460710" width="1.662" height="1.663" transform="translate(100.706 81.907)" fill="#97b0cc"/>
            <rect id="Rectángulo_460711" data-name="Rectángulo 460711" width="1.662" height="1.663" transform="translate(102.79 81.907)" fill="#ffb851"/>
            <rect id="Rectángulo_460712" data-name="Rectángulo 460712" width="1.662" height="1.663" transform="translate(104.875 81.907)" fill="#ff4140"/>
            <rect id="Rectángulo_460713" data-name="Rectángulo 460713" width="1.66" height="1.662" transform="translate(98.624 79.924)" fill="#97b0cc"/>
            <rect id="Rectángulo_460714" data-name="Rectángulo 460714" width="1.662" height="1.662" transform="translate(100.706 79.924)" fill="#97b0cc"/>
            <rect id="Rectángulo_460715" data-name="Rectángulo 460715" width="1.662" height="1.662" transform="translate(102.79 79.924)" fill="#ffb851"/>
            <rect id="Rectángulo_460716" data-name="Rectángulo 460716" width="1.662" height="1.662" transform="translate(104.875 79.924)" fill="#ffb851"/>
            <rect id="Rectángulo_460717" data-name="Rectángulo 460717" width="1.66" height="1.66" transform="translate(92.371 83.894)" fill="#97b0cc"/>
            <rect id="Rectángulo_460718" data-name="Rectángulo 460718" width="1.662" height="1.66" transform="translate(94.453 83.894)" fill="#97b0cc"/>
            <rect id="Rectángulo_460719" data-name="Rectángulo 460719" width="1.662" height="1.66" transform="translate(96.539 83.894)" fill="#97b0cc"/>
            <rect id="Rectángulo_460720" data-name="Rectángulo 460720" width="1.66" height="1.66" transform="translate(98.624 83.894)" fill="#97b0cc"/>
            <rect id="Rectángulo_460721" data-name="Rectángulo 460721" width="1.662" height="1.66" transform="translate(100.706 83.894)" fill="#97b0cc"/>
            <rect id="Rectángulo_460722" data-name="Rectángulo 460722" width="1.662" height="1.66" transform="translate(102.79 83.894)" fill="#ffb851"/>
            <rect id="Rectángulo_460723" data-name="Rectángulo 460723" width="1.662" height="1.66" transform="translate(104.875 83.894)" fill="#ffb851"/>
            <rect id="Rectángulo_460724" data-name="Rectángulo 460724" width="1.66" height="1.66" transform="translate(92.371 85.879)" fill="#97b0cc"/>
            <rect id="Rectángulo_460725" data-name="Rectángulo 460725" width="1.662" height="1.66" transform="translate(94.453 85.879)" fill="#97b0cc"/>
            <rect id="Rectángulo_460726" data-name="Rectángulo 460726" width="1.662" height="1.66" transform="translate(96.539 85.879)" fill="#ffb851"/>
            <rect id="Rectángulo_460727" data-name="Rectángulo 460727" width="1.66" height="1.66" transform="translate(98.624 85.879)" fill="#97b0cc"/>
            <rect id="Rectángulo_460728" data-name="Rectángulo 460728" width="1.662" height="1.66" transform="translate(100.706 85.879)" fill="#97b0cc"/>
            <path id="Trazado_1273310" data-name="Trazado 1273310" d="M62.835,51.5h1.589l-1.589,1.589Z" transform="translate(42.954 35.206)" fill="#d9dee3"/>
            <path id="Trazado_1273311" data-name="Trazado 1273311" d="M71.051,44.138h-16.6a.763.763,0,0,0-.763.759v2.869H71.812V44.9a.762.762,0,0,0-.761-.759" transform="translate(36.702 30.172)" fill="#ffb851"/>
            <rect id="Rectángulo_460729" data-name="Rectángulo 460729" width="1.889" height="3.036" rx="0.451" transform="translate(93.087 73.439)" fill="#16405e"/>
            <path id="Rectángulo_460730" data-name="Rectángulo 460730" d="M.451,0h.986a.452.452,0,0,1,.452.452V2.586a.45.45,0,0,1-.45.45H.451A.451.451,0,0,1,0,2.585V.451A.451.451,0,0,1,.451,0Z" transform="translate(103.53 73.439)" fill="#16405e"/>
            <path id="Trazado_1273312" data-name="Trazado 1273312" d="M31.117,39.2A14.075,14.075,0,1,0,17.044,53.276,14.076,14.076,0,0,0,31.117,39.2" transform="translate(2.028 17.175)" fill="#ebf0f5"/>
            <path id="Trazado_1273313" data-name="Trazado 1273313" d="M30.27,39.2A14.077,14.077,0,1,0,16.193,53.276,14.078,14.078,0,0,0,30.27,39.2" transform="translate(1.446 17.175)" fill="#fff"/>
            <path id="Trazado_1273314" data-name="Trazado 1273314" d="M20.962,36.2A10.482,10.482,0,0,0,10.6,27.262v2.145a8.335,8.335,0,0,1,0,16.669v2.145A10.477,10.477,0,0,0,20.962,36.2" transform="translate(7.245 18.636)" fill="#6cb9ff"/>
            <path id="Trazado_1273315" data-name="Trazado 1273315" d="M6.611,38.971a8.331,8.331,0,0,1,7.014-9.47,8.46,8.46,0,0,1,1.229-.093V27.263a10.029,10.029,0,0,0-1.546.116A10.478,10.478,0,0,0,14.854,48.22V46.076a8.336,8.336,0,0,1-8.243-7.1" transform="translate(2.99 18.636)" fill="#6cb9ff"/>
            <path id="Trazado_1273316" data-name="Trazado 1273316" d="M16.719,35.959a6.174,6.174,0,0,1-6.12,7.1v2.147a8.247,8.247,0,0,0,1.229-.093A8.334,8.334,0,0,0,10.6,28.536v2.147a6.187,6.187,0,0,1,6.12,5.276" transform="translate(7.245 19.507)" fill="#fefeff"/>
            <path id="Trazado_1273317" data-name="Trazado 1273317" d="M5.74,38.1a8.336,8.336,0,0,0,8.243,7.1V43.06a6.188,6.188,0,0,1-.913-12.309,6,6,0,0,1,.913-.069V28.537a8.46,8.46,0,0,0-1.229.093A8.331,8.331,0,0,0,5.74,38.1" transform="translate(3.861 19.507)" fill="#fefeff"/>
            <path id="Trazado_1273318" data-name="Trazado 1273318" d="M9.6,36.524a3.548,3.548,0,0,1,2.985-4.034,3.956,3.956,0,0,1,.525-.037V29.811a6,6,0,0,0-.914.069,6.188,6.188,0,0,0,.914,12.309V39.547A3.545,3.545,0,0,1,9.6,36.524" transform="translate(4.732 20.378)" fill="#6cb9ff"/>
            <path id="Trazado_1273319" data-name="Trazado 1273319" d="M16.719,35.087a6.187,6.187,0,0,0-6.12-5.276v2.64a3.548,3.548,0,0,1,.522,7.058,3.232,3.232,0,0,1-.522.039v2.64a6.174,6.174,0,0,0,6.12-7.1" transform="translate(7.245 20.378)" fill="#6cb9ff"/>
            <path id="Trazado_1273320" data-name="Trazado 1273320" d="M12.394,34.661A1.808,1.808,0,0,1,10.6,36.742v1.734a3.435,3.435,0,0,0,.522-.039A3.548,3.548,0,0,0,10.6,31.38v1.732a1.818,1.818,0,0,1,1.795,1.549" transform="translate(7.245 21.451)" fill="#fefeff"/>
            <path id="Trazado_1273321" data-name="Trazado 1273321" d="M8.531,35.451a3.545,3.545,0,0,0,3.51,3.024V36.742a1.816,1.816,0,0,1-.269-3.611,2.051,2.051,0,0,1,.269-.019V31.38a3.955,3.955,0,0,0-.525.037,3.548,3.548,0,0,0-2.985,4.034" transform="translate(5.805 21.451)" fill="#fefeff"/>
            <path id="Trazado_1273322" data-name="Trazado 1273322" d="M11.068,32.428a1.816,1.816,0,0,0,.268,3.611v-3.63a2.043,2.043,0,0,0-.268.019" transform="translate(6.508 22.154)" fill="#6cb9ff"/>
            <path id="Trazado_1273323" data-name="Trazado 1273323" d="M12.394,33.958A1.818,1.818,0,0,0,10.6,32.409v3.63a1.8,1.8,0,0,0,.266-.019,1.816,1.816,0,0,0,1.529-2.062" transform="translate(7.245 22.154)" fill="#9ed1ff"/>
            <path id="Trazado_1273324" data-name="Trazado 1273324" d="M15.823,35.523l-1.438-.987-1.263.419,1.4.963Z" transform="translate(8.97 23.608)" fill="#f4cd25"/>
            <path id="Trazado_1273325" data-name="Trazado 1273325" d="M19.074,36.9,16.5,35.123l-2.269.758,2.51,1.727Z" transform="translate(9.726 24.009)" fill="#f4cd25"/>
            <path id="Trazado_1273326" data-name="Trazado 1273326" d="M16.527,40.295l-2.578-1.776-.1-2.389,2.509,1.727Z" transform="translate(9.465 24.697)" fill="#f4cd25"/>
            <path id="Trazado_1273327" data-name="Trazado 1273327" d="M14.264,37.712l-1.438-.987-.057-1.333,1.4.963Z" transform="translate(8.729 24.193)" fill="#f4cd25"/>
            <path id="Trazado_1273328" data-name="Trazado 1273328" d="M20.494,40.364a.609.609,0,0,0-.157-.849l-9.149-6.263a.52.52,0,0,0-.753.178.543.543,0,0,0,.1.766l9.1,6.322a.607.607,0,0,0,.849-.155" transform="translate(7.052 22.667)" fill="#1e2d4f"/>
            <path id="Trazado_1273329" data-name="Trazado 1273329" d="M49.95,16.234A14.076,14.076,0,1,0,35.876,30.307,14.075,14.075,0,0,0,49.95,16.234" transform="translate(14.902 1.474)" fill="#ebf0f5"/>
            <path id="Trazado_1273330" data-name="Trazado 1273330" d="M49.1,16.234A14.077,14.077,0,1,0,35.025,30.307,14.077,14.077,0,0,0,49.1,16.234" transform="translate(14.32 1.474)" fill="#fff"/>
            <path id="Trazado_1273331" data-name="Trazado 1273331" d="M42.911,10.612,33.252,4.14l-9.691,6.529v.007l9.666,6.531Z" transform="translate(16.107 2.83)" fill="#d9a60f"/>
            <path id="Trazado_1273332" data-name="Trazado 1273332" d="M32.062,5.168H25.291V19.483l.682.722.818-.867.822.867.82-.867.823.867.818-.867.822.867.822-.867.345.365.473.5.822-.867.82.867L35,19.338l.82.867.822-.867.82.867.822-.867.6.636V5.168Z" transform="translate(17.289 3.532)" fill="#ebf0f5"/>
            <path id="Trazado_1273333" data-name="Trazado 1273333" d="M32.171,7.2h1.5V5.9H27.361V7.2h4.81Z" transform="translate(18.704 4.031)" fill="#97b0cc"/>
            <path id="Trazado_1273334" data-name="Trazado 1273334" d="M36.24,7.208H25.674v1.3H37.661v-1.3Z" transform="translate(17.551 4.927)" fill="#97b0cc"/>
            <path id="Trazado_1273335" data-name="Trazado 1273335" d="M34.819,8.583H25.674v1.3H37.66v-1.3h-2.84Z" transform="translate(17.551 5.867)" fill="#97b0cc"/>
            <path id="Trazado_1273336" data-name="Trazado 1273336" d="M34.819,9.947H25.674v1.3H37.66v-1.3h-2.84Z" transform="translate(17.551 6.799)" fill="#97b0cc"/>
            <path id="Trazado_1273337" data-name="Trazado 1273337" d="M38.991,21.125V7.987l0,0L29.3,14.58Z" transform="translate(20.032 5.457)" fill="#ebb515"/>
            <path id="Trazado_1273338" data-name="Trazado 1273338" d="M23.562,8.023V21.135l9.666-6.581Z" transform="translate(16.107 5.484)" fill="#f4cd25"/>
            <path id="Trazado_1273339" data-name="Trazado 1273339" d="M23.562,18.465v.03h9.666V11.884Z" transform="translate(16.107 8.123)" fill="#d9a60f"/>
            <path id="Trazado_1273340" data-name="Trazado 1273340" d="M38.991,18.431,29.3,11.883V18.5h9.687Z" transform="translate(20.032 8.123)" fill="#d9a60f"/>
            <path id="Trazado_1273341" data-name="Trazado 1273341" d="M32.377,42.382l.387.37,1.628,1.542.613.583c.123.109.357.047.532-.15l.182-.205.4-.443.795-.892.212-.237.086-.1h.005L39.5,40.295l.2-.217,1.78-1.993.286-.325a.326.326,0,0,0,.05-.438l-.444-.421L39.74,35.358l-.184-.175a.335.335,0,0,0-.438.071l-.456.456-.832.825-1.12,1.116-1.732,1.722-.7.7-.317.317-.847.847-.426.419-.2.194c-.18.184-.231.424-.114.535" transform="translate(22.09 24.013)" fill="#1a222b"/>
            <path id="Trazado_1273342" data-name="Trazado 1273342" d="M31.243,41.443l.65.615L33.521,43.6l.867.822c.108.1.349.027.534-.168l.231-.244,1.593-1.679.076-.084c.182-.192.244-.434.138-.535l-.071-.067-.8-.763-1.626-1.546-.574-.535-.071-.072c-.106-.1-.347-.025-.53.17l-.076.077-.685.726-1.138,1.2c-.184.2-.247.436-.14.54" transform="translate(21.322 26.444)" fill="#4f5f70"/>
            <path id="Trazado_1273343" data-name="Trazado 1273343" d="M22.807,55.214l1.131,1.074,1.626,1.544h0l1.386,1.318c.185.172.677-.054,1.089-.507L41.234,44.311l1.032-1.163c.308-.34.429-.741.266-.892l-.01-.01L42.268,42l-.817-.771-.035-.034-1.593-1.51-.032-.032-.552-.522-.256-.242-.012-.012c-.158-.152-.549-.017-.869.306l-.007.01L23.25,54.1c-.428.439-.628.939-.443,1.115" transform="translate(15.544 26.534)" fill="#cc2221"/>
            <path id="Trazado_1273344" data-name="Trazado 1273344" d="M33.295,39.49l.545.519,1.625,1.542.78.737.212-.237.088-.1h0L38.829,39.4l.2-.217.1-.12-.466-.441-.227-.216-1.628-1.54-.444-.421-.318.315L34.31,38.48l-.7.694Z" transform="translate(22.76 24.91)" fill="#4f5f70"/>
            <path id="Trazado_1273345" data-name="Trazado 1273345" d="M33.283,38.878l.389.375.535.505,1.63,1.542.278.263.495.47.391.374a.4.4,0,0,0,.54-.108l1.737-1.837c.17-.178.21-.424.079-.544l-.466-.443-.7-.665-1.626-1.544-.455-.431,0,0-.466-.443a.4.4,0,0,0-.542.106l-1.123,1.185-.616.653a.393.393,0,0,0-.074.542" transform="translate(22.698 24.831)" fill="#cc2221"/>
            <path id="Trazado_1273346" data-name="Trazado 1273346" d="M23.451,55.946l1.626,1.546h0L40.929,40.856l-1.591-1.508-.034-.034Z" transform="translate(16.031 26.874)" fill="#ff4140"/>
            <path id="Trazado_1273347" data-name="Trazado 1273347" d="M36.267,39.729c-.051-.168-.1-.34-.138-.508-.069-.268-.131-.54-.182-.815-.04-.185-.076-.377-.1-.569-.007-.044-.013-.088-.017-.131a.146.146,0,0,1-.007-.044,15.765,15.765,0,0,1-.152-3.15v0c.008-.18.024-.359.04-.54s.029-.352.052-.527a15.678,15.678,0,0,1,.4-2.121c.062-.234.126-.471.2-.707s.163-.5.256-.748c.15-.4.308-.8.49-1.177.027-.062.054-.125.084-.185.059-.125.12-.244.18-.364.032-.061.064-.125.1-.185a15.259,15.259,0,0,1,.847-1.424c.035-.049.067-.1.1-.141.049-.074.1-.143.15-.214s.086-.12.128-.177a1.581,1.581,0,0,1,.136-.18,15.573,15.573,0,0,1,2.046-2.241,15.79,15.79,0,0,1,11.972-4.024,15.651,15.651,0,0,1,2.421.4,15.823,15.823,0,0,1,9.413,6.625c.02.034.045.067.067.1.077.12.152.237.224.355.12.2.237.4.35.6.029.049.057.1.083.152.106.192.207.384.3.588.027.045.052.1.077.152.125.263.244.534.355.806.1.227.18.455.263.685.118.327.224.66.322.992a15.845,15.845,0,0,1,.6,4.172v.1c.005.148,0,.293,0,.436s-.008.3-.017.441c-.005.057-.007.109-.012.165s-.005.1-.007.145c-.007.076-.012.152-.019.231-.005.056-.012.111-.019.167-.049.5-.116.992-.212,1.477-.059.311-.128.623-.205.926-.008.027-.015.052-.022.077a15.064,15.064,0,0,1-.682,2.037c-.02.057-.045.113-.071.167v0l-.007.012c0,.008,0,.01-.007.017-.052.123-.1.247-.16.369-.029.066-.062.133-.093.2-.019.03-.032.061-.049.093-.13.269-.266.535-.412.795-.165.3-.342.593-.529.879-.14.221-.29.434-.439.645-.118.165-.236.325-.36.483-.027.039-.057.072-.084.108l-.012.019q-.364.455-.756.882c-.051.057-.1.109-.153.16-.029.035-.056.062-.086.1-.093.1-.187.192-.286.286a15.35,15.35,0,0,1-1.421,1.242c-.192.157-.392.3-.6.446a.522.522,0,0,1-.062.044,3.448,3.448,0,0,1-.249.173c-.35.232-.709.448-1.072.657a.158.158,0,0,0-.037.02c-.066.035-.131.074-.2.106-.224.123-.455.237-.684.347-.062.03-.128.062-.2.091s-.125.059-.189.088q-.538.242-1.1.439c-.111.044-.222.081-.333.116l-.02.005-.3.1c-.116.034-.232.069-.35.1-.039.013-.083.022-.118.037-.062.013-.128.032-.192.049-.084.022-.17.044-.256.069-.066.012-.135.029-.194.044-.46.106-.928.192-1.4.254a.164.164,0,0,1-.045.008h-.017c-.14.017-.281.035-.428.052-.086.008-.17.019-.254.022v0c-.067.005-.131.012-.194.019-.187.013-.375.024-.567.034-.209.007-.414.012-.621.012h-.2c-.163,0-.332-.008-.5-.015-.187-.01-.372-.02-.556-.034-.051,0-.1-.008-.148-.01L50.1,51.1c-.3-.027-.6-.062-.894-.1-.438-.061-.864-.143-1.286-.237-.217-.054-.431-.106-.643-.163a.408.408,0,0,1-.059-.019c-.322-.088-.636-.187-.948-.293-.042-.019-.084-.03-.126-.047h0a.141.141,0,0,0-.042-.01c-.059-.025-.12-.047-.18-.074s-.113-.04-.17-.064c-.327-.126-.646-.261-.963-.409a1,1,0,0,1-.113-.056c-.069-.03-.14-.064-.207-.1-.051-.03-.1-.05-.155-.079-.3-.153-.589-.311-.875-.48l-.291-.177c-.049-.03-.094-.057-.14-.088-.273-.177-.544-.357-.8-.547-.057-.04-.116-.081-.173-.123-.03-.027-.064-.047-.093-.069-.044-.034-.086-.069-.128-.1-.185-.14-.364-.286-.544-.436-.061-.052-.126-.106-.187-.163-.029-.024-.056-.049-.084-.072l-.157-.145c-.027-.02-.054-.047-.077-.067a.493.493,0,0,1-.042-.042c-.229-.207-.451-.426-.665-.653l-.221-.232c-.035-.037-.072-.077-.108-.118-.207-.229-.406-.465-.6-.709-.066-.084-.131-.165-.2-.251-.034-.039-.066-.086-.1-.123-.187-.251-.367-.5-.539-.763-.04-.061-.079-.125-.118-.18-.017-.032-.04-.062-.057-.089l-.007-.012c-.025-.039-.052-.084-.077-.125-.044-.074-.091-.146-.135-.222-.062-.1-.123-.207-.18-.31q-.126-.215-.242-.434c-.061-.114-.116-.229-.175-.342-.047-.1-.1-.2-.143-.3-.14-.3-.269-.593-.389-.9a13.571,13.571,0,0,1-.5-1.446m.254,6.492a19.13,19.13,0,0,0,1.69,2c.123.128.253.259.38.386a18.749,18.749,0,0,0,1.7,1.461c.239.185.478.355.727.527.146.1.29.2.438.29a17.733,17.733,0,0,0,1.594.919c.5.258,1.017.492,1.544.707a19.017,19.017,0,0,0,2.509.8c.1.02.19.045.286.064.143.034.286.064.431.094q.54.1,1.091.185l.034.007c.214.029.431.052.65.076.1.01.194.019.29.025.052.005.1.007.153.013.3.022.594.039.891.049.084,0,.173.007.259.007h.338c.317,0,.63-.008.946-.022.022,0,.044,0,.067-.005.136-.008.269-.02.407-.03.034,0,.067-.005.1-.007.072-.007.148-.012.217-.02.461-.04.918-.106,1.364-.178.025-.007.05-.012.077-.017.138-.024.281-.052.416-.076.067-.017.14-.029.2-.047a1.951,1.951,0,0,0,.2-.042h.012c.461-.106.918-.226,1.365-.364.064-.019.125-.037.187-.059.143-.044.286-.093.426-.138.069-.027.136-.047.2-.071.185-.064.365-.133.545-.207.083-.032.168-.062.251-.1.158-.066.315-.135.47-.2.359-.16.709-.325,1.054-.508.224-.114.446-.237.665-.365a17.033,17.033,0,0,0,1.594-1.029c.04-.027.081-.059.12-.086v-.005c.163-.118.32-.236.478-.359a17.456,17.456,0,0,0,1.423-1.237c.136-.13.266-.258.4-.394.047-.045.089-.093.138-.138A18.278,18.278,0,0,0,66.1,46.678c.158-.2.311-.406.463-.616.38-.535.736-1.1,1.064-1.673.131-.237.259-.475.38-.719a18.227,18.227,0,0,0,.842-1.94c.1-.274.2-.551.286-.833.081-.264.16-.53.231-.8.066-.242.125-.485.175-.731a18.514,18.514,0,0,0,.38-2.45,18.908,18.908,0,0,0-.04-3.616c-.035-.311-.076-.623-.128-.934-.067-.414-.15-.83-.241-1.234l0,0c-.007-.029-.01-.047-.019-.074a18.586,18.586,0,0,0-8.713-11.736,18.485,18.485,0,0,0-17.747-.456,18.544,18.544,0,0,0-7.936,7.862c-.189.359-.367.722-.53,1.1-.059.13-.114.263-.167.4a18.243,18.243,0,0,0-1.211,4.361c-.056.382-.106.766-.136,1.157-.017.18-.029.36-.039.54-.012.16-.019.323-.024.487-.005.205-.008.412-.008.62,0,.451.017.907.054,1.355a18.12,18.12,0,0,0,.259,1.993c.1.559.232,1.109.389,1.65a18.58,18.58,0,0,0,2.842,5.839" transform="translate(22.543 11.5)" fill="#4f5f70"/>
            <path id="Trazado_1273348" data-name="Trazado 1273348" d="M35.5,40.47h0q.1.263.207.525c.034.084.069.165.1.249.131.3.274.6.421.886a16.333,16.333,0,0,0,12.206,8.79q.48.068.96.114c.057,0,.111.008.165.01.409.032.815.047,1.221.045a15.037,15.037,0,0,0,1.657-.079,16.41,16.41,0,0,0,1.889-.3c.525-.114,1.04-.259,1.546-.423.136-.045.271-.089.406-.14a16.117,16.117,0,0,0,4-2.091A16.352,16.352,0,0,0,66.1,40.488c.108-.285.21-.572.3-.869a15.38,15.38,0,0,0,.559-2.421v0q.078-.477.12-.966c.005-.039.008-.072.012-.1.005-.059.008-.113.012-.17.017-.182.029-.357.034-.535a16.247,16.247,0,0,0-.786-5.787v0c-.024-.064-.044-.13-.067-.2v0c-.047-.135-.1-.273-.143-.411-.118-.3-.237-.609-.374-.909-.035-.089-.079-.184-.12-.276a.178.178,0,0,1-.025-.051c-.066-.136-.133-.271-.2-.407-.152-.3-.313-.6-.487-.892A16.328,16.328,0,0,0,37.4,25.349c-.03.044-.062.093-.1.141a15.292,15.292,0,0,0-.886,1.455c-.045.079-.086.157-.13.239a17.054,17.054,0,0,0-.722,1.6,16.561,16.561,0,0,0-1.046,4.524,16.374,16.374,0,0,0,.643,6.18c.1.33.21.655.335.976M51.4,19.015h0c.13.008.259.015.389.03A15.224,15.224,0,0,1,62.6,24.959c.241.308.465.625.677.95l.019.03c.163.244.317.5.461.753.029.047.056.1.086.15.133.236.261.482.38.731a15.211,15.211,0,0,1,1.514,5.576c.024.318.035.638.039.961,0,.094,0,.185,0,.281,0,.152,0,.3-.01.451-.007.254-.025.507-.045.766a15.037,15.037,0,0,1-.354,2.2,13.7,13.7,0,0,1-.433,1.5,13.3,13.3,0,0,1-.581,1.426,11.247,11.247,0,0,1-.577,1.126c-.135.244-.279.473-.423.7A15.462,15.462,0,0,1,60.439,45.9c-.333.285-.67.552-1.029.808-.084.062-.173.123-.261.189-.4.274-.81.529-1.234.764q-.6.333-1.217.611c-.4.177-.8.333-1.207.476-.146.052-.29.1-.431.141-.323.1-.641.19-.97.269a15.1,15.1,0,0,1-4.532.406c-.133-.007-.269-.019-.4-.027a15.28,15.28,0,0,1-8.573-3.564c-.251-.214-.492-.433-.729-.662a15.378,15.378,0,0,1-3.621-5.4q-.184-.457-.335-.933c-.04-.126-.082-.258-.118-.387l0,0c-.024-.089-.056-.177-.072-.268v0c-.088-.306-.16-.615-.229-.929a15.308,15.308,0,0,1-.251-4.413,15.191,15.191,0,0,1,2.332-6.9c.184-.291.379-.571.583-.847.047-.071.1-.136.146-.205h0a15.291,15.291,0,0,1,13.107-6" transform="translate(23.554 12.54)" fill="#243242"/>
            <g id="Grupo_1211004" data-name="Grupo 1211004" transform="translate(74.318 32.361)" opacity="0.34">
              <g id="Grupo_1211003" data-name="Grupo 1211003">
                <g id="Grupo_1211002" data-name="Grupo 1211002" clip-path="url(#clip-path-4)">
                  <path id="Trazado_1273349" data-name="Trazado 1273349" d="M57.367,39.315a14.194,14.194,0,0,0,.694-9.332c-.929-3.286-2.413-6.317-5.263-8.292A14.317,14.317,0,0,0,48.54,19.7,13.927,13.927,0,0,0,46.3,19.27a10.007,10.007,0,0,1-2.153-.049,16.779,16.779,0,0,1,6.776,4.773,11.718,11.718,0,0,1,2.01,9.967,11.113,11.113,0,0,1-2.33,4.6c-1.254,1.455-3.12,2.049-4.377,3.433a5.366,5.366,0,0,0-1.566,3.221c-.205,3.68,4.206,2.642,6.206,1.509a15.4,15.4,0,0,0,6.505-7.411" transform="translate(-44.143 -19.222)" fill="#f0f1f1"/>
                </g>
              </g>
            </g>
          </g>
        </g>
      </g>
    </g>
  </g>
</svg>
