<svg xmlns="http://www.w3.org/2000/svg" xmlns:xlink="http://www.w3.org/1999/xlink" width="157" height="108" viewBox="0 0 157 108">
  <defs>
    <clipPath id="clip-path">
      <rect id="Rectángulo_460206" data-name="Rectángulo 460206" width="157" height="108" transform="translate(1141.422 717.339)" fill="#fff" stroke="#707070" stroke-width="1"/>
    </clipPath>
    <clipPath id="clip-path-2">
      <rect id="Rectángulo_460231" data-name="Rectángulo 460231" width="101.888" height="101" fill="none"/>
    </clipPath>
  </defs>
  <g id="Enmascarar_grupo_1178552" data-name="Enmascarar grupo 1178552" transform="translate(-1141.422 -717.339)" clip-path="url(#clip-path)">
    <g id="Grupo_1210271" data-name="Grupo 1210271" transform="translate(1168.978 720.839)">
      <path id="Trazado_1272308" data-name="Trazado 1272308" d="M0,0H14.423V7.563H0Z" transform="translate(38.993 83.943)" fill="#6cb9ff"/>
      <g id="Grupo_1210270" data-name="Grupo 1210270">
        <g id="Grupo_1210269" data-name="Grupo 1210269" clip-path="url(#clip-path-2)">
          <rect id="Rectángulo_460230" data-name="Rectángulo 460230" width="89.115" height="63.638" transform="translate(1.943 20.833)" fill="#cfe8ff"/>
          <rect id="Rectángulo_460232" data-name="Rectángulo 460232" width="79" height="51" transform="translate(6.444 26.5)" fill="#fff7df"/>
          <path id="Trazado_1272296" data-name="Trazado 1272296" d="M69.07,10.03l-2.941.1c-.6.743-.335,1.837-1.011,2.551a29.914,29.914,0,0,1-4.546,2.011c-1.061.173-1.815-.558-2.648-1.1l-2.4,2.184c1.886,1.919.735,4.723-.443,6.754-1,1.717-1.865.748-2.614,1.244-.539.357-.214,2.665-.248,3.4,2.576-.625,4.76,4.646,4.367,6.346-.188.813-1.145,1.188-.754,2.223.046.123,1.783,1.329,1.859,1.863,2.679-2.447,4.56-.262,7.359.555l.964,2.712,3.114-.145c.444-.322.089-1.631.885-2.381a31.359,31.359,0,0,1,4.366-1.885c1.529-.261,2.558,1.214,3.045.993l2.029-2.134c.122-.631-1.1-1.478-1.115-2.323a34.445,34.445,0,0,1,1.792-4.718c.8-1.185,1.858-.6,2.947-1.261l-.057-3.043c-.722-.4-2.043-.217-2.631-.783a37.175,37.175,0,0,1-1.965-4.594c-.184-1.12.467-1.708,1.034-2.584l-2.23-2.437c-.544-.094-1.321,1.278-2.6,1.158-.25-.023-4.432-1.778-4.623-1.939-.587-.493-.55-2.074-.938-2.773" transform="translate(-36.673 -7.053)" fill="#ffb851"/>
          <path id="Trazado_1272307" data-name="Trazado 1272307" d="M15.48,59c3.3-4.833,11.8-11.667,11.8-11.667L30.444,46V44s-7.833-14,2.5-24.667,26.333,0,26.333,0S72.611,30.667,60.444,46s-25.5,3.167-25.5,3.167l-3.333,1v2.5L20.111,64.5S12.183,63.833,15.48,59Z" fill="#69d7e5"/>
          <path id="Trazado_1272295" data-name="Trazado 1272295" d="M120.651,309.475H95.5a7.388,7.388,0,0,0-7.388,7.388h39.4v-.528a6.86,6.86,0,0,0-6.86-6.86" transform="translate(-61.958 -217.616)" fill="#cfe8ff"/>
          <path id="Trazado_1272297" data-name="Trazado 1272297" d="M136.227,79.311a13.984,13.984,0,1,1-13.984-13.984,13.983,13.983,0,0,1,13.984,13.984" transform="translate(-76.126 -45.937)" fill="#ffd453"/>
          <path id="Trazado_1272298" data-name="Trazado 1272298" d="M246.848,194.327l-2.941.1c-.6.743-.335,1.837-1.011,2.551a29.912,29.912,0,0,1-4.546,2.011c-1.061.173-1.815-.558-2.648-1.1l-2.4,2.184c1.886,1.919.735,4.723-.444,6.754-1,1.717-1.865.748-2.614,1.244-.539.357-.213,2.665-.248,3.4,2.576-.625,4.76,4.646,4.367,6.346-.188.813-1.145,1.188-.754,2.223.046.123,1.783,1.329,1.859,1.863,2.679-2.447,4.56-.262,7.359.555l.964,2.712,3.114-.145c.444-.322.089-1.631.885-2.381a31.358,31.358,0,0,1,4.366-1.885c1.529-.262,2.558,1.214,3.045.993l2.029-2.134c.122-.631-1.1-1.478-1.115-2.323a34.446,34.446,0,0,1,1.792-4.718c.8-1.185,1.858-.6,2.946-1.261l-.057-3.043c-.722-.4-2.043-.217-2.631-.783A37.22,37.22,0,0,1,256.2,202.9c-.184-1.12.467-1.708,1.034-2.584l-2.23-2.437c-.544-.094-1.321,1.278-2.6,1.158-.25-.023-4.431-1.778-4.623-1.94-.587-.493-.549-2.074-.938-2.773" transform="translate(-161.683 -136.647)" fill="#ffb851"/>
          <path id="Trazado_1272299" data-name="Trazado 1272299" d="M64.258,50.516a4.33,4.33,0,0,1-.891,3.414A115.553,115.553,0,0,1,52.1,65.218C47.013,69.1,40.1,62.979,44.814,57.045A106.258,106.258,0,0,1,55.5,46.364c1.506-1.1,3.735-.486,3.731-1.925,0-.792-1.925-4.261-2.312-5.73-.251-.952-.485-1.947-.644-2.918-.117-.717.156-2.017-.171-2.5a6.945,6.945,0,0,0-2.369-.883c-.954.089-1.586,1.546-3.145,1.07a27.9,27.9,0,0,1-4.269-4.06c-1.138-1.979.875-2.55.664-4.2-.416-3.24-3.489-1.817-4.041-3.7a35.33,35.33,0,0,1,0-6.11c.476-1.622,2.964-1.237,3.236-1.579a8.731,8.731,0,0,0,.852-2.623c-.082-1.13-1.534-1.654-.913-3.288a24.986,24.986,0,0,1,3.738-4c2.261-1.6,2.653.873,4.6.458,2.956-.63,1.649-2.753,3.107-3.738C58.775-.176,63-.209,64.236.527c1.765,1.048.506,3.444,3.516,3.931,1.846.3,1.987-2.149,4.621-.49A19.683,19.683,0,0,1,76,7.762c.667,2.1-2.305,3.281-.175,5.51a20.074,20.074,0,1,1-4.746,39.474c-2.439-.63-4.394-2.227-6.825-2.231m-1.5-47.476L59.7,3.066c-.744.252-.172,1.982-1.562,2.89a41.789,41.789,0,0,1-4.413,1.8c-.918.005-1.883-1.318-2.611-1.134L49.153,8.579c-.2.781.941,1.431,1.1,2.095.157.64-1.486,4.708-2.02,5.27-.853.9-2.251.6-2.549,1.013l-.126,3.284c1.1-.019,2.275.075,2.929,1.078.2.3,1.8,4.2,1.815,4.436.087,1.245-1.37,1.759-1.153,2.59l1.96,1.95c.758.2,1.383-.793,2.31-.875,1.237-.111,1.936.725,3.117.618.792-2.888-.175-2.279-1.782-3.707C43.7,16.5,59.127.68,69.306,12.672c.382.45.5,1.045.874,1.5l2.39-.462c-.7-2.131-.945-3.142.464-5.044L70.877,6.62c-.855-.218-1.5,1.21-2.532,1.108-.263-.026-4.421-1.722-4.664-1.9-.816-.585-.8-1.861-.918-2.791m4.762,12.448c-1.026-2.8-4.095-4.326-6.985-4.161-7.4.42-9.194,10.439-2.658,13.654,2.184-3.917,5.346-7.862,9.643-9.493m7.058.68C63.7,17.264,56.907,27.843,59.724,38.283c.579,2.145,2.6,4.624,2.393,6.657-.131,1.289-1.449,2.349-.085,3.233.534.346,1.591-.5,2.4-.6,2.51-.312,4.969,1.83,7.593,2.446A17.219,17.219,0,0,0,92.118,26.666a17.531,17.531,0,0,0-17.537-10.5M57.873,48.216,46.308,59.724c-.948,2.491,1.274,4.919,3.69,3.4L61.3,51.557Z" transform="translate(-30.108 0)" fill="#161615"/>
          <path id="Trazado_1272300" data-name="Trazado 1272300" d="M4.024,69.923c-.757.139-1.437,1.459-1.356,2.207l.153,56.282,1.336,1.336,61.907.129c1.263.178,1.193,2.676,0,2.676H54.631v5.64H61.31a10.123,10.123,0,0,1,3.56,1.783c1.919,1.795,3.628,7.652-.281,7.73-11.927-.773-25.048.98-36.832,0-1.45-.121-2.4-.3-2.5-1.98a7.825,7.825,0,0,1,2.51-6.046,11.566,11.566,0,0,1,3.265-1.484h6.678v-5.64H3.133c-.918,0-3.305-2.51-3.123-3.7L.035,70.684a5.312,5.312,0,0,1,1.908-2.841c1.578-1.017,8.746-1.771,9.066.465.221.441-.425,1.616-.753,1.616a47.4,47.4,0,0,0-6.233,0m47.64,62.629H40.681v5.64H51.663Zm12.466,12.17a3.941,3.941,0,0,0-2.662-3.422l-30.416-.123a4.037,4.037,0,0,0-2.837,3.545Z" transform="translate(0 -47.009)" fill="#161615"/>
          <path id="Trazado_1272301" data-name="Trazado 1272301" d="M252.921,198.593c.577.408,2.389.047,2.979,1.324a21.064,21.064,0,0,1,.064,6.453c-.622,1.5-2.766.947-3.476,2.163-1.507,2.583.33,2.4.513,4.336.125,1.324-3.17,4.889-4.287,5.249-2.278.733-3.307-2.261-5.775-.137-.937.806-.356,3-2.466,3.471a18.979,18.979,0,0,1-5.65-.161c-1.281-.545-1.267-2.144-1.627-3.272l-2.208-.894c-1.09-.1-1.925,2.124-4.242.665A24.962,24.962,0,0,1,223,213.81c-.576-1.813,1.02-2.518,1.047-3.424,0-.124-.778-2.235-.852-2.335-.566-.763-3.048.14-3.517-2.489-.539-3.022-.584-7.122,3.435-6.96l.9-2.24c.194-1.247-1.982-2.165-.857-4.1a33.689,33.689,0,0,1,4.313-4.021c1.483-.561,2.518,1.1,3.268,1.113a17.33,17.33,0,0,0,2.047-.819c1.07-.74.622-3.183,2.416-3.521a24.743,24.743,0,0,1,6.007.212c1.635.756.222,3.372,3.265,3.877,2.13.354,2.326-2.053,4.8-.365a24.767,24.767,0,0,1,3.507,3.627c.823,1.822-.824,2.576-.84,3.767a9.183,9.183,0,0,0,.981,2.463m-13.463-10.878-2.941.1c-.6.743-.335,1.837-1.011,2.551a29.913,29.913,0,0,1-4.546,2.011c-1.061.173-1.815-.558-2.648-1.1l-2.4,2.184c1.886,1.919.735,4.723-.444,6.754-1,1.717-1.865.748-2.614,1.244-.539.357-.213,2.665-.248,3.4,2.576-.625,4.76,4.646,4.367,6.346-.188.813-1.145,1.188-.754,2.223.046.123,1.783,1.329,1.859,1.863,2.679-2.447,4.56-.262,7.359.555l.964,2.712,3.114-.145c.444-.322.089-1.631.885-2.38a31.356,31.356,0,0,1,4.366-1.885c1.529-.262,2.558,1.214,3.045.993l2.029-2.134c.122-.631-1.1-1.478-1.115-2.323a34.442,34.442,0,0,1,1.792-4.718c.8-1.185,1.857-.6,2.946-1.261l-.057-3.043c-.722-.4-2.043-.217-2.631-.783a37.219,37.219,0,0,1-1.965-4.594c-.184-1.12.467-1.708,1.034-2.584l-2.23-2.437c-.544-.094-1.321,1.278-2.6,1.158-.25-.023-4.431-1.778-4.623-1.94-.587-.493-.549-2.074-.938-2.773" transform="translate(-154.294 -130.034)" fill="#161615"/>
          <path id="Trazado_1272302" data-name="Trazado 1272302" d="M21.024,88.662V134.67H74.9c1.929,0,2.319,3.368-.284,2.98l-56.058-.287a2,2,0,0,1-.5-.764V86.733c0-.222.721-.672,1.047-.734a44.068,44.068,0,0,1,6.465.049c1.6.488.7,2.614.058,2.614Z" transform="translate(-12.697 -60.406)" fill="#161615"/>
          <path id="Trazado_1272303" data-name="Trazado 1272303" d="M241.546,71.221c-.134-.755-1.008-2.019-1.915-1.944l-22.269.007c-2.53-1.286-1.17-2.775,1.169-2.972,4.993-.421,16.2-.546,21.053.044,1.713.208,4.634,1.733,4.634,3.677v32.353c0,.94-2.671.94-2.671,0Z" transform="translate(-151.89 -46.378)" fill="#161615"/>
          <path id="Trazado_1272304" data-name="Trazado 1272304" d="M243.766,88.868h-15.88c-.94,0-.94-2.671,0-2.671h18.106l.748,1.627-.012,23.746c-.375,1.936-2.962,1.216-2.962.006Z" transform="translate(-159.749 -60.612)" fill="#161615"/>
          <path id="Trazado_1272305" data-name="Trazado 1272305" d="M128.83,63.462c15.294,15.31-8.984,37.852-23.04,21.407-12.943-15.143,9.117-35.344,23.04-21.407M115.8,61.95c-15.037,1.928-14.116,25.388,1.756,25.634,17.928.278,16.912-28.028-1.756-25.634" transform="translate(-71.631 -41.335)" fill="#161615"/>
          <path id="Trazado_1272306" data-name="Trazado 1272306" d="M258.013,212.409c13.729-.519,13.714,21.521-.983,20.112-11.87-1.138-11.556-19.637.983-20.112m-.605,2.983c-8.88.946-7.927,14.4.807,14.4,10.084,0,9.353-15.478-.807-14.4" transform="translate(-174.643 -149.355)" fill="#161615"/>
        </g>
      </g>
    </g>
  </g>
</svg>
