<svg xmlns="http://www.w3.org/2000/svg" xmlns:xlink="http://www.w3.org/1999/xlink" width="96" height="96" viewBox="0 0 96 96">
  <defs>
    <clipPath id="clip-path">
      <rect id="Rectángulo_454829" data-name="Rectángulo 454829" width="96" height="96" fill="#1e535a"/>
    </clipPath>
    <clipPath id="clip-path-2">
      <rect id="Rectángulo_460812" data-name="Rectángulo 460812" width="29.38" height="38" fill="#1e535a"/>
    </clipPath>
  </defs>
  <g id="Grupo_1210232" data-name="Grupo 1210232" transform="translate(-1481 -8562.5)">
    <g id="Grupo_1177591" data-name="Grupo 1177591" transform="translate(1481 8562.5)">
      <g id="Grupo_1177589" data-name="Grupo 1177589" transform="translate(0 0)">
        <g id="Grupo_1177587" data-name="Grupo 1177587" clip-path="url(#clip-path)">
          <path id="Trazado_997422" data-name="Trazado 997422" d="M92.081,42.491a44.136,44.136,0,0,0-9.97-22.967,5.076,5.076,0,0,0-7.142-6.838A44.071,44.071,0,0,0,52.151,3.77a5.077,5.077,0,0,0-9.861.2A44.132,44.132,0,0,0,20.4,13.329a5.079,5.079,0,0,0-7.048,7.1A44.1,44.1,0,0,0,4.112,42.448,5.08,5.08,0,0,0,3.99,52.4a44.082,44.082,0,0,0,8.949,22.468,5.078,5.078,0,0,0,6.9,7.17,44.128,44.128,0,0,0,22.412,9.8,5.078,5.078,0,0,0,9.949.2,44.091,44.091,0,0,0,22.985-9.08,5.077,5.077,0,0,0,7.107-6.874A44.147,44.147,0,0,0,92.2,52.349a5.078,5.078,0,0,0-.119-9.858M77.74,22.024a5.05,5.05,0,0,0,2.812-.851,41.913,41.913,0,0,1,9.25,21.3,5.086,5.086,0,0,0-3.246,2.351l-12.98-4.867c.01-.142.02-.286.02-.433a5.079,5.079,0,0,0-2.151-4.15l5.678-13.4a5.5,5.5,0,0,0,.616.041M75,21.216,69.354,34.523a5.026,5.026,0,0,0-5.594,3.23L40.279,32.344a4.941,4.941,0,0,0-.106-1.011l33.322-11.6A5.1,5.1,0,0,0,75,21.216M47.246,10.165a5.083,5.083,0,0,0,4.989-4.122,41.844,41.844,0,0,1,21.158,8.275,5.054,5.054,0,0,0-.735,2.625,5.335,5.335,0,0,0,.048.671L39.217,29.273a5.1,5.1,0,0,0-.92-.92l8.784-18.2c.056,0,.109.008.165.008M42.3,6.243A5.083,5.083,0,0,0,44.86,9.569L36.248,27.4a5.1,5.1,0,0,0-1.049-.109,5.045,5.045,0,0,0-2.9.91L22.1,19.678A5.052,5.052,0,0,0,21.923,15,41.877,41.877,0,0,1,42.3,6.243M10.041,46.332,31.153,35.442a5.064,5.064,0,0,0,4.006,2.014l7.236,23.129a5.166,5.166,0,0,0-1.12,1.239l-31.3-13.04a5.048,5.048,0,0,0,.187-1.348,5.107,5.107,0,0,0-.124-1.1m4.986-24.391a5.079,5.079,0,0,0,5.673-.484l10.079,8.417a5.068,5.068,0,0,0-.56,3.512L9.07,44.29A5.081,5.081,0,0,0,6.38,42.526a41.859,41.859,0,0,1,8.647-20.585m2.1,50.717a5.067,5.067,0,0,0-2.523.674A41.822,41.822,0,0,1,6.263,52.374,5.087,5.087,0,0,0,8.9,50.783l31.609,13.17a5.45,5.45,0,0,0-.041.611,5.081,5.081,0,0,0,.3,1.718L21.657,75.44a5.081,5.081,0,0,0-4.528-2.782M42.349,89.575a41.919,41.919,0,0,1-20.912-9.149,5.029,5.029,0,0,0,.775-2.686l0-.058L42,68.2A5.082,5.082,0,0,0,43.8,69.329l1.186,17.043a5.082,5.082,0,0,0-2.632,3.2m2.105-29.97-7.081-22.64a5.089,5.089,0,0,0,2.415-2.415L63.459,40a5.052,5.052,0,0,0,.808,2.311L48.032,60.13a5.019,5.019,0,0,0-3.577-.524m7.74,30.167a5.081,5.081,0,0,0-4.948-3.937l-.038,0L46.081,69.62a5.073,5.073,0,0,0,3.106-1.507L72.853,78.551c0,.046-.008.086-.008.132a5.057,5.057,0,0,0,.752,2.65,41.841,41.841,0,0,1-21.4,8.439M73.423,76.334,50.373,66.165a5.052,5.052,0,0,0-.666-4.52L65.893,43.877a5.052,5.052,0,0,0,2.622.735,5.594,5.594,0,0,0,.623-.041l6.05,29.836a5.071,5.071,0,0,0-1.766,1.928m7.292-1.9a5.051,5.051,0,0,0-3.377-.8L71.285,43.788a5.1,5.1,0,0,0,1.6-1.672L85.858,46.98a4.506,4.506,0,0,0-.023.456,5.08,5.08,0,0,0,4.084,4.981,41.876,41.876,0,0,1-9.2,22.017" transform="translate(0 0.001)" fill="#1e535a"/>
        </g>
      </g>
    </g>
    <g id="Elipse_13614" data-name="Elipse 13614" transform="translate(1497.965 8579)" fill="#d5f4f8" stroke="#1e535a" stroke-width="3">
      <ellipse cx="31.232" cy="31.233" rx="31.232" ry="31.233" stroke="none"/>
      <ellipse cx="31.232" cy="31.233" rx="29.732" ry="29.733" fill="none"/>
    </g>
    <g id="Grupo_1211078" data-name="Grupo 1211078" transform="translate(1514.965 8591)">
      <g id="Grupo_1211077" data-name="Grupo 1211077" clip-path="url(#clip-path-2)">
        <path id="Trazado_1273616" data-name="Trazado 1273616" d="M76.744,17.807l.02,11.5a1.49,1.49,0,0,1-1.555,1.323,1.633,1.633,0,0,1-1.653-1.39V17.984c-.077-.127-.229-.292-.334-.3s-.255.155-.351.293l.044,25.357a1.934,1.934,0,0,1-3.866.014l0-14.361-.826-.022-.009,14.491A1.864,1.864,0,0,1,66.268,45.2a1.886,1.886,0,0,1-1.912-1.757L64.343,18.03l-3.124,4.746a1.628,1.628,0,0,1-1.549.729,1.578,1.578,0,0,1-1.371-1.06l-1.994-6.608a1.552,1.552,0,0,1,.559-1.622l.015-1.928a1.668,1.668,0,0,0-.91.225l-1.6,1a.648.648,0,0,1-.471.06,1.282,1.282,0,0,1-.3-.41l0-4.7.3-.336c.23-.258,1.554.83,2.454,1.258,1.393.184,3.341-.269,3.334.431l-.023,2.247a1.8,1.8,0,0,1-1.044.237l.015,1.766a2.353,2.353,0,0,1,.747.93l.994,3.264,1.372-2.067a3.69,3.69,0,0,1,2.935-1.665l2.935-.022.621,1.261L67.5,17.1c.4,1.671.611,3.2,1.146,4.936.551-1.726.8-3.266,1.207-4.935l-.725-1.368.628-1.234,3.435.02a3.552,3.552,0,0,1,3.556,3.286" transform="translate(-47.384 -7.202)" fill="#1e535a"/>
        <path id="Trazado_1273617" data-name="Trazado 1273617" d="M161.375,3.537a3.327,3.327,0,0,1-6.641,0,3.327,3.327,0,0,1,6.641,0" transform="translate(-136.781 -0.374)" fill="#1e535a"/>
        <path id="Trazado_1273618" data-name="Trazado 1273618" d="M1.028,49.9a.765.765,0,0,1-.864-.282c-.148-.252-.057-.769.289-.853l3.612-.882a.706.706,0,0,1,.759.509.679.679,0,0,1-.513.709Z" transform="translate(-0.084 -42.661)" fill="#1e535a"/>
        <path id="Trazado_1273619" data-name="Trazado 1273619" d="M3.946,2.034.6,1.239A.643.643,0,0,1,.063.495.678.678,0,0,1,.846.017L4.374.866a.681.681,0,0,1,.394.766.711.711,0,0,1-.823.4" transform="translate(-0.047 -0.001)" fill="#1e535a"/>
        <path id="Trazado_1273620" data-name="Trazado 1273620" d="M4.157,29.093.588,29.1A.7.7,0,0,1,0,28.479a.641.641,0,0,1,.709-.616l3.268,0a.724.724,0,0,1,.764.521.676.676,0,0,1-.586.715" transform="translate(0 -24.824)" fill="#1e535a"/>
      </g>
    </g>
  </g>
</svg>
