<svg xmlns="http://www.w3.org/2000/svg" xmlns:xlink="http://www.w3.org/1999/xlink" width="603.422" height="312.408" viewBox="0 0 603.422 312.408">
  <defs>
    <clipPath id="clip-path">
      <rect id="Rectángulo_460693" data-name="Rectángulo 460693" width="478.989" height="312.408" fill="none"/>
    </clipPath>
    <clipPath id="clip-path-3">
      <rect id="Rectángulo_460600" data-name="Rectángulo 460600" width="129.997" height="63.065" fill="none"/>
    </clipPath>
    <clipPath id="clip-path-4">
      <rect id="Rectángulo_460599" data-name="Rectángulo 460599" width="91.585" height="24.227" fill="none"/>
    </clipPath>
    <clipPath id="clip-path-5">
      <rect id="Rectángulo_460608" data-name="Rectángulo 460608" width="151.153" height="103.769" fill="none"/>
    </clipPath>
    <clipPath id="clip-path-6">
      <rect id="Rectángulo_460687" data-name="Rectángulo 460687" width="28.155" height="34.084" fill="none"/>
    </clipPath>
    <clipPath id="clip-path-7">
      <rect id="Rectángulo_460689" data-name="Rectángulo 460689" width="28.155" height="37.074" fill="none"/>
    </clipPath>
  </defs>
  <g id="Grupo_1210264" data-name="Grupo 1210264" transform="translate(-1017.422 -1845.691)">
    <path id="Trazado_1272217" data-name="Trazado 1272217" d="M301.711,3.93c187.427-102.364,301.711,62.635,301.711,139.9s-22.857,138.382-301.711,139.9S0,221.092,0,143.828,114.284,106.294,301.711,3.93Z" transform="translate(1017.422 1874.296)" fill="#ffe79e"/>
    <g id="Grupo_1210998" data-name="Grupo 1210998" transform="translate(1080.422 1845.692)">
      <g id="Grupo_1210997" data-name="Grupo 1210997" clip-path="url(#clip-path)">
        <g id="Grupo_1210996" data-name="Grupo 1210996">
          <g id="Grupo_1210995" data-name="Grupo 1210995" clip-path="url(#clip-path)">
            <path id="Trazado_1273050" data-name="Trazado 1273050" d="M226.895,0h0C109.557,0,14.437,97.164,14.437,217.021v47.9H439.352v-47.9C439.352,97.164,344.231,0,226.895,0" transform="translate(0.899)" fill="#d5f4f8"/>
            <g id="Grupo_1210979" data-name="Grupo 1210979" transform="translate(259.997 113.893)" opacity="0.49">
              <g id="Grupo_1210978" data-name="Grupo 1210978">
                <g id="Grupo_1210977" data-name="Grupo 1210977" clip-path="url(#clip-path-3)">
                  <path id="Rectángulo_460595" data-name="Rectángulo 460595" d="M7.883,0H122.112A7.884,7.884,0,0,1,130,7.884v47.3a7.883,7.883,0,0,1-7.883,7.883H7.883A7.883,7.883,0,0,1,0,55.182V7.883A7.883,7.883,0,0,1,7.883,0Z" transform="translate(0 0)" fill="#fdfdfd"/>
                  <path id="Trazado_1273051" data-name="Trazado 1273051" d="M366.42,105.838a7.66,7.66,0,0,1,7.577,7.74v45.956a7.66,7.66,0,0,1-7.577,7.741H253.172a7.661,7.661,0,0,1-7.577-7.741V113.578a7.661,7.661,0,0,1,7.577-7.74Zm0-1.628H253.172A9.282,9.282,0,0,0,244,113.578v45.956a9.282,9.282,0,0,0,9.171,9.369H366.42a9.282,9.282,0,0,0,9.171-9.369V113.578a9.282,9.282,0,0,0-9.171-9.368" transform="translate(-244.798 -105.024)" fill="#87b5ff"/>
                  <g id="Grupo_1210976" data-name="Grupo 1210976" transform="translate(19.206 25.513)" opacity="0.52">
                    <g id="Grupo_1210975" data-name="Grupo 1210975">
                      <g id="Grupo_1210974" data-name="Grupo 1210974" clip-path="url(#clip-path-4)">
                        <rect id="Rectángulo_460596" data-name="Rectángulo 460596" width="91.585" height="3.85" transform="translate(0 -0.001)" fill="#a7bfd9"/>
                        <rect id="Rectángulo_460597" data-name="Rectángulo 460597" width="91.585" height="3.849" transform="translate(0 10.189)" fill="#a7bfd9"/>
                        <rect id="Rectángulo_460598" data-name="Rectángulo 460598" width="91.585" height="3.85" transform="translate(0 20.377)" fill="#a7bfd9"/>
                      </g>
                    </g>
                  </g>
                  <path id="Trazado_1273052" data-name="Trazado 1273052" d="M373.9,118.608V113.45a7.661,7.661,0,0,0-7.577-7.74H253.079a7.66,7.66,0,0,0-7.577,7.74v5.158Z" transform="translate(-244.704 -104.896)" fill="#a5d9f5"/>
                  <path id="Trazado_1273053" data-name="Trazado 1273053" d="M259.28,111.917a3.291,3.291,0,1,1-3.29-3.361,3.326,3.326,0,0,1,3.29,3.361" transform="translate(-244.256 -104.654)" fill="#fefefe"/>
                  <path id="Trazado_1273054" data-name="Trazado 1273054" d="M271.486,111.917a3.291,3.291,0,1,1-3.29-3.361,3.326,3.326,0,0,1,3.29,3.361" transform="translate(-243.496 -104.654)" fill="#fefefe"/>
                  <path id="Trazado_1273055" data-name="Trazado 1273055" d="M283.693,111.917a3.291,3.291,0,1,1-3.29-3.361,3.326,3.326,0,0,1,3.29,3.361" transform="translate(-242.735 -104.654)" fill="#fefefe"/>
                </g>
              </g>
            </g>
            <g id="Grupo_1210982" data-name="Grupo 1210982" transform="translate(54.436 92.542)" opacity="0.49">
              <g id="Grupo_1210981" data-name="Grupo 1210981">
                <g id="Grupo_1210980" data-name="Grupo 1210980" clip-path="url(#clip-path-5)">
                  <path id="Rectángulo_460601" data-name="Rectángulo 460601" d="M4.717,0H146.436a4.717,4.717,0,0,1,4.717,4.717V99.052a4.716,4.716,0,0,1-4.716,4.716H4.717A4.717,4.717,0,0,1,0,99.051V4.717A4.717,4.717,0,0,1,4.717,0Z" transform="translate(0 0.001)" fill="#fff"/>
                  <path id="Trazado_1273056" data-name="Trazado 1273056" d="M197.42,85.93a4.473,4.473,0,0,1,4.424,4.519v93.532a4.473,4.473,0,0,1-4.424,4.519H56.289a4.473,4.473,0,0,1-4.424-4.519V90.449a4.473,4.473,0,0,1,4.424-4.519Zm0-1.2H56.289a5.665,5.665,0,0,0-5.6,5.717v93.532a5.664,5.664,0,0,0,5.6,5.716H197.42a5.664,5.664,0,0,0,5.6-5.716V90.449a5.665,5.665,0,0,0-5.6-5.717" transform="translate(-51.278 -85.33)" fill="#a7bfd9"/>
                  <path id="Trazado_1273057" data-name="Trazado 1273057" d="M201.776,95.151v-4.8a4.472,4.472,0,0,0-4.424-4.519H56.22A4.472,4.472,0,0,0,51.8,90.355v4.8Z" transform="translate(-51.209 -85.236)" fill="#a5d9f5"/>
                  <path id="Trazado_1273058" data-name="Trazado 1273058" d="M59.1,90.273a1.816,1.816,0,1,1-1.815-1.854A1.835,1.835,0,0,1,59.1,90.273" transform="translate(-50.98 -85.016)" fill="#fefefe"/>
                  <path id="Trazado_1273059" data-name="Trazado 1273059" d="M65.841,90.273a1.816,1.816,0,1,1-1.815-1.854,1.835,1.835,0,0,1,1.815,1.854" transform="translate(-50.56 -85.016)" fill="#fefefe"/>
                  <path id="Trazado_1273060" data-name="Trazado 1273060" d="M72.578,90.273a1.816,1.816,0,1,1-1.815-1.854,1.835,1.835,0,0,1,1.815,1.854" transform="translate(-50.141 -85.016)" fill="#fefefe"/>
                  <rect id="Rectángulo_460602" data-name="Rectángulo 460602" width="114.623" height="2.911" transform="translate(18.806 24.275)" fill="#a7bfd9"/>
                  <rect id="Rectángulo_460603" data-name="Rectángulo 460603" width="114.623" height="2.911" transform="translate(18.806 36.356)" fill="#a7bfd9"/>
                  <rect id="Rectángulo_460604" data-name="Rectángulo 460604" width="114.623" height="2.911" transform="translate(18.806 48.437)" fill="#a7bfd9"/>
                  <rect id="Rectángulo_460605" data-name="Rectángulo 460605" width="114.623" height="2.911" transform="translate(18.806 60.518)" fill="#a7bfd9"/>
                  <rect id="Rectángulo_460606" data-name="Rectángulo 460606" width="114.623" height="2.911" transform="translate(18.806 72.598)" fill="#a7bfd9"/>
                  <rect id="Rectángulo_460607" data-name="Rectángulo 460607" width="114.623" height="2.911" transform="translate(18.806 84.679)" fill="#a7bfd9"/>
                </g>
              </g>
            </g>
            <rect id="Rectángulo_460609" data-name="Rectángulo 460609" width="50.825" height="28.213" transform="translate(67.187 253.541)" fill="#2c5b94"/>
            <path id="Rectángulo_460610" data-name="Rectángulo 460610" d="M11.093,0H174.106A11.093,11.093,0,0,1,185.2,11.093V127.485a11.094,11.094,0,0,1-11.094,11.094H11.093A11.093,11.093,0,0,1,0,127.486V11.093A11.093,11.093,0,0,1,11.093,0Z" transform="translate(0 131.663)" fill="#5181ba"/>
            <path id="Trazado_1273061" data-name="Trazado 1273061" d="M171.274,252.926H13.181a7.287,7.287,0,0,1-7.209-7.364V134.672a7.287,7.287,0,0,1,7.209-7.364H171.274a7.287,7.287,0,0,1,7.208,7.364V245.563a7.287,7.287,0,0,1-7.208,7.364" transform="translate(0.372 10.835)" fill="#d4e5f8"/>
            <path id="Trazado_1273062" data-name="Trazado 1273062" d="M135.66,266.707H44.225A1.593,1.593,0,0,1,42.65,265.1v-3.835a1.593,1.593,0,0,1,1.575-1.609H135.66a1.593,1.593,0,0,1,1.575,1.609V265.1a1.593,1.593,0,0,1-1.575,1.609" transform="translate(2.657 22.1)" fill="#5181ba"/>
            <path id="Trazado_1273063" data-name="Trazado 1273063" d="M157.5,137.391H21.651a7.292,7.292,0,0,0-7.213,7.369V238.1a7.293,7.293,0,0,0,7.213,7.369H157.5a7.294,7.294,0,0,0,7.214-7.369V144.76a7.293,7.293,0,0,0-7.214-7.369" transform="translate(0.899 11.694)" fill="#a7bfd9"/>
            <path id="Trazado_1273064" data-name="Trazado 1273064" d="M159.5,243.467H23.651a7.292,7.292,0,0,1-7.213-7.369V142.759a7.293,7.293,0,0,1,7.213-7.369H159.5a7.294,7.294,0,0,1,7.214,7.369V236.1a7.293,7.293,0,0,1-7.214,7.369" transform="translate(1.024 11.523)" fill="#fefefe"/>
            <path id="Trazado_1273065" data-name="Trazado 1273065" d="M166.713,144.357v-1.6a7.291,7.291,0,0,0-7.214-7.369H23.651a7.291,7.291,0,0,0-7.214,7.369v1.6Z" transform="translate(1.024 11.523)" fill="#a5d9f5"/>
            <path id="Trazado_1273066" data-name="Trazado 1273066" d="M26.875,139.664a1.771,1.771,0,1,1-1.771-1.809,1.79,1.79,0,0,1,1.771,1.809" transform="translate(1.454 11.733)" fill="#fefefe"/>
            <path id="Trazado_1273067" data-name="Trazado 1273067" d="M33.833,139.664a1.771,1.771,0,1,1-1.771-1.809,1.79,1.79,0,0,1,1.771,1.809" transform="translate(1.887 11.733)" fill="#fefefe"/>
            <path id="Trazado_1273068" data-name="Trazado 1273068" d="M40.791,139.664a1.771,1.771,0,1,1-1.771-1.809,1.79,1.79,0,0,1,1.771,1.809" transform="translate(2.32 11.733)" fill="#fefefe"/>
            <path id="Trazado_1273069" data-name="Trazado 1273069" d="M133.572,156.823H86.881l-10.074-5.649a4.957,4.957,0,0,0-2.425-.636H46.792a3.332,3.332,0,0,0-3.3,3.367v52.109h90.472l3.549-44.823a4.01,4.01,0,0,0-3.945-4.369" transform="translate(2.71 12.813)" fill="#e6b027"/>
            <path id="Trazado_1273070" data-name="Trazado 1273070" d="M130.218,197.892H50.763a2.383,2.383,0,0,1-2.3-2.163L45.678,164.77a2.145,2.145,0,0,1,2.045-2.482h85.535a2.144,2.144,0,0,1,2.045,2.482l-2.783,30.959a2.382,2.382,0,0,1-2.3,2.163" transform="translate(2.845 13.813)" fill="#fcfffd"/>
            <path id="Trazado_1273071" data-name="Trazado 1273071" d="M133.312,202.282H48.243a2.552,2.552,0,0,1-2.463-2.315L42.8,166.82a2.3,2.3,0,0,1,2.189-2.657h91.577a2.3,2.3,0,0,1,2.19,2.657l-2.981,33.147a2.55,2.55,0,0,1-2.463,2.315" transform="translate(2.665 13.972)" fill="#fcfffd"/>
            <path id="Trazado_1273072" data-name="Trazado 1273072" d="M135.822,206.355H46.046a2.692,2.692,0,0,1-2.6-2.443L40.3,168.932a2.423,2.423,0,0,1,2.31-2.8h96.645a2.423,2.423,0,0,1,2.311,2.8l-3.144,34.981a2.692,2.692,0,0,1-2.6,2.443" transform="translate(2.51 14.14)" fill="#fcfffd"/>
            <path id="Trazado_1273073" data-name="Trazado 1273073" d="M41.828,168.164H139.8a4.438,4.438,0,0,1,4.349,4.982l-5.795,51.573a3.084,3.084,0,0,1-3.039,2.769h-89a3.084,3.084,0,0,1-3.04-2.769l-5.794-51.573a4.438,4.438,0,0,1,4.349-4.982" transform="translate(2.333 14.313)" fill="#fdc22c"/>
            <rect id="Rectángulo_460611" data-name="Rectángulo 460611" width="50.825" height="28.213" transform="translate(340.102 253.541)" fill="#2c5b94"/>
            <path id="Rectángulo_460612" data-name="Rectángulo 460612" d="M11.093,0H174.106A11.093,11.093,0,0,1,185.2,11.093V127.485a11.094,11.094,0,0,1-11.094,11.094H11.093A11.093,11.093,0,0,1,0,127.486V11.093A11.093,11.093,0,0,1,11.093,0Z" transform="translate(272.916 131.663)" fill="#5181ba"/>
            <path id="Trazado_1273074" data-name="Trazado 1273074" d="M428.186,252.926H270.093a7.287,7.287,0,0,1-7.209-7.364V134.672a7.287,7.287,0,0,1,7.209-7.364H428.186a7.287,7.287,0,0,1,7.208,7.364V245.563a7.287,7.287,0,0,1-7.208,7.364" transform="translate(16.376 10.835)" fill="#d4e5f8"/>
            <path id="Trazado_1273075" data-name="Trazado 1273075" d="M392.572,266.707H301.137a1.593,1.593,0,0,1-1.575-1.609v-3.835a1.593,1.593,0,0,1,1.575-1.609h91.435a1.593,1.593,0,0,1,1.575,1.609V265.1a1.593,1.593,0,0,1-1.575,1.609" transform="translate(18.661 22.1)" fill="#5181ba"/>
            <path id="Trazado_1273076" data-name="Trazado 1273076" d="M414.411,137.391H278.562a7.292,7.292,0,0,0-7.213,7.369V238.1a7.293,7.293,0,0,0,7.213,7.369H414.411a7.294,7.294,0,0,0,7.214-7.369V144.76a7.293,7.293,0,0,0-7.214-7.369" transform="translate(16.903 11.694)" fill="#a7bfd9"/>
            <path id="Trazado_1273077" data-name="Trazado 1273077" d="M416.411,243.467H280.562a7.292,7.292,0,0,1-7.213-7.369V142.759a7.293,7.293,0,0,1,7.213-7.369H416.411a7.293,7.293,0,0,1,7.214,7.369V236.1a7.293,7.293,0,0,1-7.214,7.369" transform="translate(17.028 11.523)" fill="#fefefe"/>
            <path id="Trazado_1273078" data-name="Trazado 1273078" d="M423.625,144.357v-1.6a7.291,7.291,0,0,0-7.214-7.369H280.563a7.291,7.291,0,0,0-7.214,7.369v1.6Z" transform="translate(17.028 11.523)" fill="#a5d9f5"/>
            <path id="Trazado_1273079" data-name="Trazado 1273079" d="M283.786,139.664a1.771,1.771,0,1,1-1.771-1.809,1.79,1.79,0,0,1,1.771,1.809" transform="translate(17.457 11.733)" fill="#fefefe"/>
            <path id="Trazado_1273080" data-name="Trazado 1273080" d="M290.745,139.664a1.771,1.771,0,1,1-1.771-1.809,1.79,1.79,0,0,1,1.771,1.809" transform="translate(17.891 11.733)" fill="#fefefe"/>
            <path id="Trazado_1273081" data-name="Trazado 1273081" d="M297.7,139.664a1.771,1.771,0,1,1-1.771-1.809,1.79,1.79,0,0,1,1.771,1.809" transform="translate(18.324 11.733)" fill="#fefefe"/>
            <path id="Trazado_1273082" data-name="Trazado 1273082" d="M390.484,156.823H343.793l-10.074-5.649a4.957,4.957,0,0,0-2.425-.636H303.7a3.332,3.332,0,0,0-3.3,3.367v52.109H390.88l3.549-44.823a4.01,4.01,0,0,0-3.945-4.369" transform="translate(18.714 12.813)" fill="#e6b027"/>
            <path id="Trazado_1273083" data-name="Trazado 1273083" d="M387.13,197.892H307.674a2.382,2.382,0,0,1-2.3-2.163L302.59,164.77a2.145,2.145,0,0,1,2.045-2.482h85.535a2.144,2.144,0,0,1,2.045,2.482l-2.783,30.959a2.382,2.382,0,0,1-2.3,2.163" transform="translate(18.849 13.813)" fill="#fcfffd"/>
            <path id="Trazado_1273084" data-name="Trazado 1273084" d="M390.224,202.282H305.156a2.552,2.552,0,0,1-2.465-2.315l-2.98-33.147a2.3,2.3,0,0,1,2.189-2.657h91.578a2.3,2.3,0,0,1,2.189,2.657l-2.981,33.147a2.55,2.55,0,0,1-2.463,2.315" transform="translate(18.669 13.972)" fill="#fcfffd"/>
            <path id="Trazado_1273085" data-name="Trazado 1273085" d="M392.734,206.355H302.958a2.692,2.692,0,0,1-2.6-2.443l-3.144-34.981a2.423,2.423,0,0,1,2.31-2.8h96.645a2.423,2.423,0,0,1,2.311,2.8l-3.144,34.981a2.692,2.692,0,0,1-2.6,2.443" transform="translate(18.514 14.14)" fill="#fcfffd"/>
            <path id="Trazado_1273086" data-name="Trazado 1273086" d="M298.74,168.164h97.97a4.439,4.439,0,0,1,4.35,4.982l-5.795,51.573a3.084,3.084,0,0,1-3.039,2.769h-89a3.084,3.084,0,0,1-3.04-2.769l-5.794-51.573a4.438,4.438,0,0,1,4.349-4.982" transform="translate(18.337 14.313)" fill="#fdc22c"/>
            <path id="Trazado_1273194" data-name="Trazado 1273194" d="M0,0,47.683-.4l-.548,64.16-47.683.4Z" transform="matrix(0.446, -0.895, 0.895, 0.446, 63.918, 144.069)" fill="#fee79b"/>
            <path id="Trazado_1273195" data-name="Trazado 1273195" d="M0,0,36.862-.311l-.017,2.018L-.017,2.018Z" transform="matrix(0.446, -0.895, 0.895, 0.446, 71.526, 141.871)" fill="#d4b498"/>
            <path id="Trazado_1273196" data-name="Trazado 1273196" d="M0,0,36.862-.311l-.017,2.018L-.017,2.018Z" transform="matrix(0.446, -0.895, 0.895, 0.446, 75.4, 143.844)" fill="#d4b498"/>
            <path id="Trazado_1273197" data-name="Trazado 1273197" d="M0,0,24.5-.207l-.017,2.018-24.5.207Z" transform="translate(79.274 145.817) rotate(-63.507)" fill="#d4b498"/>
            <path id="Trazado_1273198" data-name="Trazado 1273198" d="M0,0,36.862-.311l-.017,2.018L-.017,2.018Z" transform="matrix(0.446, -0.895, 0.895, 0.446, 83.148, 147.789)" fill="#d4b498"/>
            <path id="Trazado_1273199" data-name="Trazado 1273199" d="M0,0,36.862-.311l-.017,2.018L-.017,2.018Z" transform="matrix(0.446, -0.895, 0.895, 0.446, 87.022, 149.76)" fill="#d4b498"/>
            <path id="Trazado_1273200" data-name="Trazado 1273200" d="M0,0,23.877-.2,23.86,1.817l-23.877.2Z" transform="matrix(0.446, -0.895, 0.895, 0.446, 90.896, 151.733)" fill="#d4b498"/>
            <path id="Trazado_1273201" data-name="Trazado 1273201" d="M0,0,36.862-.311l-.017,2.018L-.017,2.018Z" transform="matrix(0.446, -0.895, 0.895, 0.446, 94.77, 153.705)" fill="#d4b498"/>
            <path id="Trazado_1273202" data-name="Trazado 1273202" d="M0,0,23.877-.2,23.86,1.817l-23.877.2Z" transform="matrix(0.446, -0.895, 0.895, 0.446, 98.644, 155.677)" fill="#d4b498"/>
            <path id="Trazado_1273203" data-name="Trazado 1273203" d="M0,0,36.862-.311l-.017,2.018L-.017,2.018Z" transform="matrix(0.446, -0.895, 0.895, 0.446, 102.518, 157.649)" fill="#d4b498"/>
            <path id="Trazado_1273204" data-name="Trazado 1273204" d="M0,0,36.862-.311l-.017,2.018L-.017,2.018Z" transform="matrix(0.446, -0.895, 0.895, 0.446, 106.392, 159.622)" fill="#d4b498"/>
            <path id="Trazado_1273205" data-name="Trazado 1273205" d="M0,0,25.075-.211l-.017,2.018L-.017,2.018Z" transform="translate(110.266 161.595) rotate(-63.509)" fill="#d4b498"/>
            <path id="Trazado_1273206" data-name="Trazado 1273206" d="M0,0,36.862-.311l-.017,2.018L-.017,2.018Z" transform="matrix(0.446, -0.895, 0.895, 0.446, 114.14, 163.566)" fill="#d4b498"/>
            <path id="Trazado_1273207" data-name="Trazado 1273207" d="M0,0,25.075-.211l-.017,2.018L-.017,2.018Z" transform="translate(118.014 165.54) rotate(-63.509)" fill="#d4b498"/>
            <path id="Trazado_1273208" data-name="Trazado 1273208" d="M0,0,47.1-.421l-.574,64.95-47.1.421Z" transform="translate(118.44 54.09) rotate(-28.353)" fill="#fee79b"/>
            <path id="Trazado_1273209" data-name="Trazado 1273209" d="M0,0,36.414-.325,36.4,1.717-.018,2.043Z" transform="translate(125.898 56.768) rotate(-28.352)" fill="#d4b498"/>
            <path id="Trazado_1273210" data-name="Trazado 1273210" d="M0,0,36.414-.325,36.4,1.717-.018,2.043Z" transform="translate(127.955 60.659) rotate(-28.352)" fill="#d4b498"/>
            <path id="Trazado_1273211" data-name="Trazado 1273211" d="M0,0,24.206-.216l-.018,2.043L-.018,2.043Z" transform="matrix(0.88, -0.475, 0.475, 0.88, 130.01, 64.55)" fill="#d4b498"/>
            <path id="Trazado_1273212" data-name="Trazado 1273212" d="M0,0,36.414-.325,36.4,1.718-.018,2.043Z" transform="matrix(0.88, -0.475, 0.475, 0.88, 132.066, 68.441)" fill="#d4b498"/>
            <path id="Trazado_1273213" data-name="Trazado 1273213" d="M0,0,36.414-.325,36.4,1.717-.018,2.043Z" transform="translate(134.121 72.332) rotate(-28.352)" fill="#d4b498"/>
            <path id="Trazado_1273214" data-name="Trazado 1273214" d="M0,0,23.587-.211l-.018,2.043L-.018,2.043Z" transform="matrix(0.88, -0.475, 0.475, 0.88, 136.177, 76.224)" fill="#d4b498"/>
            <path id="Trazado_1273215" data-name="Trazado 1273215" d="M0,0,36.414-.325,36.4,1.718-.018,2.043Z" transform="matrix(0.88, -0.475, 0.475, 0.88, 138.232, 80.114)" fill="#d4b498"/>
            <path id="Trazado_1273216" data-name="Trazado 1273216" d="M0,0,23.587-.211l-.018,2.043L-.018,2.043Z" transform="matrix(0.88, -0.475, 0.475, 0.88, 140.288, 84.006)" fill="#d4b498"/>
            <path id="Trazado_1273217" data-name="Trazado 1273217" d="M0,0,36.414-.325,36.4,1.717-.018,2.043Z" transform="matrix(0.88, -0.475, 0.475, 0.88, 142.343, 87.896)" fill="#d4b498"/>
            <path id="Trazado_1273218" data-name="Trazado 1273218" d="M0,0,36.414-.325,36.4,1.718-.018,2.043Z" transform="translate(144.399 91.788) rotate(-28.354)" fill="#d4b498"/>
            <path id="Trazado_1273219" data-name="Trazado 1273219" d="M0,0,24.77-.221l-.018,2.043-24.77.221Z" transform="matrix(0.88, -0.475, 0.475, 0.88, 146.455, 95.678)" fill="#d4b498"/>
            <path id="Trazado_1273220" data-name="Trazado 1273220" d="M0,0,36.414-.325,36.4,1.718-.018,2.043Z" transform="matrix(0.88, -0.475, 0.475, 0.88, 148.51, 99.569)" fill="#d4b498"/>
            <path id="Trazado_1273221" data-name="Trazado 1273221" d="M0,0,24.77-.221l-.018,2.043-24.77.221Z" transform="matrix(0.88, -0.475, 0.475, 0.88, 150.566, 103.46)" fill="#d4b498"/>
            <path id="Trazado_1273222" data-name="Trazado 1273222" d="M0,0,65.24-.161l-.118,46.89-65.24.161Z" transform="translate(206.17 77.39) rotate(-83.197)" fill="#fee79b"/>
            <path id="Trazado_1273223" data-name="Trazado 1273223" d="M0,0,2.052-.005,1.961,36.244l-2.052.005Z" transform="translate(218.087 21.206) rotate(-83.197)" fill="#d4b498"/>
            <path id="Trazado_1273224" data-name="Trazado 1273224" d="M0,0,2.052-.005,1.96,36.244l-2.052.005Z" transform="translate(217.575 25.596) rotate(-83.197)" fill="#d4b498"/>
            <path id="Trazado_1273225" data-name="Trazado 1273225" d="M0,0,2.053-.005l-.061,24.1L-.061,24.1Z" transform="translate(217.062 29.987) rotate(-83.198)" fill="#d4b498"/>
            <path id="Trazado_1273226" data-name="Trazado 1273226" d="M0,0,2.052-.005,1.96,36.244l-2.052.005Z" transform="translate(216.549 34.377) rotate(-83.197)" fill="#d4b498"/>
            <path id="Trazado_1273227" data-name="Trazado 1273227" d="M0,0,2.052-.005,1.96,36.244l-2.052.005Z" transform="translate(216.037 38.767) rotate(-83.197)" fill="#d4b498"/>
            <path id="Trazado_1273228" data-name="Trazado 1273228" d="M0,0,2.053-.005l-.059,23.48-2.053.005Z" transform="translate(215.524 43.158) rotate(-83.198)" fill="#d4b498"/>
            <path id="Trazado_1273229" data-name="Trazado 1273229" d="M0,0,2.052-.005,1.961,36.244l-2.052.005Z" transform="translate(215.011 47.548) rotate(-83.197)" fill="#d4b498"/>
            <path id="Trazado_1273230" data-name="Trazado 1273230" d="M0,0,2.053-.005l-.059,23.48-2.053.005Z" transform="translate(214.498 51.939) rotate(-83.198)" fill="#d4b498"/>
            <path id="Trazado_1273231" data-name="Trazado 1273231" d="M0,0,2.052-.005,1.961,36.244l-2.052.005Z" transform="translate(213.986 56.328) rotate(-83.197)" fill="#d4b498"/>
            <path id="Trazado_1273232" data-name="Trazado 1273232" d="M0,0,2.052-.005,1.96,36.244l-2.052.005Z" transform="translate(213.473 60.719) rotate(-83.197)" fill="#d4b498"/>
            <path id="Trazado_1273233" data-name="Trazado 1273233" d="M0,0,2.052-.005,1.989,24.653l-2.052.005Z" transform="translate(212.96 65.109) rotate(-83.197)" fill="#d4b498"/>
            <path id="Trazado_1273234" data-name="Trazado 1273234" d="M0,0,2.052-.005,1.961,36.244l-2.052.005Z" transform="translate(212.448 69.499) rotate(-83.197)" fill="#d4b498"/>
            <path id="Trazado_1273235" data-name="Trazado 1273235" d="M0,0,2.052-.005,1.99,24.653l-2.052.005Z" transform="translate(211.934 73.89) rotate(-83.197)" fill="#d4b498"/>
            <path id="Trazado_1273236" data-name="Trazado 1273236" d="M0,0,64.646-.682l-.5,47.326L-.5,47.326Z" transform="matrix(0.669, -0.744, 0.744, 0.669, 272.33, 83.241)" fill="#fee79b"/>
            <path id="Trazado_1273237" data-name="Trazado 1273237" d="M0,0,2.033-.021,1.646,36.565l-2.033.021Z" transform="translate(313.744 44.314) rotate(-48.042)" fill="#d4b498"/>
            <path id="Trazado_1273238" data-name="Trazado 1273238" d="M0,0,2.034-.021,1.647,36.565l-2.034.021Z" transform="translate(310.85 47.602) rotate(-48.042)" fill="#d4b498"/>
            <path id="Trazado_1273239" data-name="Trazado 1273239" d="M0,0,2.033-.021,1.776,24.3l-2.033.021Z" transform="translate(307.956 50.891) rotate(-48.042)" fill="#d4b498"/>
            <path id="Trazado_1273240" data-name="Trazado 1273240" d="M0,0,2.034-.021,1.647,36.565l-2.034.021Z" transform="translate(305.062 54.178) rotate(-48.042)" fill="#d4b498"/>
            <path id="Trazado_1273241" data-name="Trazado 1273241" d="M0,0,2.034-.021,1.647,36.565l-2.034.021Z" transform="translate(302.168 57.466) rotate(-48.042)" fill="#d4b498"/>
            <path id="Trazado_1273242" data-name="Trazado 1273242" d="M0,0,2.034-.021l-.251,23.7L-.251,23.7Z" transform="matrix(0.669, -0.744, 0.744, 0.669, 299.274, 60.755)" fill="#d4b498"/>
            <path id="Trazado_1273243" data-name="Trazado 1273243" d="M0,0,2.034-.021,1.647,36.565l-2.034.021Z" transform="translate(296.38 64.042) rotate(-48.042)" fill="#d4b498"/>
            <path id="Trazado_1273244" data-name="Trazado 1273244" d="M0,0,2.034-.021l-.251,23.7L-.251,23.7Z" transform="matrix(0.669, -0.744, 0.744, 0.669, 293.486, 67.331)" fill="#d4b498"/>
            <path id="Trazado_1273245" data-name="Trazado 1273245" d="M0,0,2.033-.021,1.646,36.565l-2.033.021Z" transform="translate(290.592 70.618) rotate(-48.042)" fill="#d4b498"/>
            <path id="Trazado_1273246" data-name="Trazado 1273246" d="M0,0,2.034-.021,1.647,36.565l-2.034.021Z" transform="translate(287.698 73.906) rotate(-48.042)" fill="#d4b498"/>
            <path id="Trazado_1273247" data-name="Trazado 1273247" d="M0,0,2.033-.021,1.77,24.866l-2.033.021Z" transform="translate(284.805 77.194) rotate(-48.041)" fill="#d4b498"/>
            <path id="Trazado_1273248" data-name="Trazado 1273248" d="M0,0,2.034-.021,1.647,36.565l-2.034.021Z" transform="translate(281.91 80.482) rotate(-48.042)" fill="#d4b498"/>
            <path id="Trazado_1273249" data-name="Trazado 1273249" d="M0,0,2.033-.021,1.77,24.866l-2.033.021Z" transform="translate(279.017 83.77) rotate(-48.041)" fill="#d4b498"/>
            <path id="Trazado_1273250" data-name="Trazado 1273250" d="M0,0,64.025-.413l-.3,47.782L-.3,47.782Z" transform="translate(317.809 123.563) rotate(-18.508)" fill="#fee79b"/>
            <path id="Trazado_1273251" data-name="Trazado 1273251" d="M0,0,2.014-.013,1.78,36.925l-2.014.013Z" transform="translate(372.627 110.548) rotate(-18.508)" fill="#d4b498"/>
            <path id="Trazado_1273252" data-name="Trazado 1273252" d="M0,0,2.014-.013,1.78,36.925l-2.014.013Z" transform="translate(368.522 111.952) rotate(-18.508)" fill="#d4b498"/>
            <path id="Trazado_1273253" data-name="Trazado 1273253" d="M0,0,2.014-.013,1.858,24.542l-2.014.013Z" transform="translate(364.417 113.355) rotate(-18.509)" fill="#d4b498"/>
            <path id="Trazado_1273254" data-name="Trazado 1273254" d="M0,0,2.014-.013,1.78,36.925l-2.014.013Z" transform="translate(360.313 114.759) rotate(-18.508)" fill="#d4b498"/>
            <path id="Trazado_1273255" data-name="Trazado 1273255" d="M0,0,2.014-.013,1.78,36.925l-2.014.013Z" transform="translate(356.209 116.162) rotate(-18.508)" fill="#d4b498"/>
            <path id="Trazado_1273256" data-name="Trazado 1273256" d="M0,0,2.014-.013,1.862,23.913l-2.014.013Z" transform="translate(352.105 117.566) rotate(-18.507)" fill="#d4b498"/>
            <path id="Trazado_1273257" data-name="Trazado 1273257" d="M0,0,2.014-.013,1.78,36.925l-2.014.013Z" transform="translate(348 118.97) rotate(-18.508)" fill="#d4b498"/>
            <path id="Trazado_1273258" data-name="Trazado 1273258" d="M0,0,2.014-.013,1.862,23.913l-2.014.013Z" transform="translate(343.895 120.373) rotate(-18.507)" fill="#d4b498"/>
            <path id="Trazado_1273259" data-name="Trazado 1273259" d="M0,0,2.014-.013,1.78,36.925l-2.014.013Z" transform="translate(339.79 121.776) rotate(-18.508)" fill="#d4b498"/>
            <path id="Trazado_1273260" data-name="Trazado 1273260" d="M0,0,2.014-.013,1.78,36.925l-2.014.013Z" transform="translate(335.686 123.18) rotate(-18.508)" fill="#d4b498"/>
            <path id="Trazado_1273261" data-name="Trazado 1273261" d="M0,0,2.014-.013,1.855,25.113l-2.014.013Z" transform="translate(331.581 124.584) rotate(-18.508)" fill="#d4b498"/>
            <path id="Trazado_1273262" data-name="Trazado 1273262" d="M0,0,2.014-.013,1.78,36.925l-2.014.013Z" transform="translate(327.477 125.987) rotate(-18.508)" fill="#d4b498"/>
            <path id="Trazado_1273263" data-name="Trazado 1273263" d="M0,0,2.014-.013,1.855,25.113l-2.014.013Z" transform="translate(323.372 127.391) rotate(-18.508)" fill="#d4b498"/>
            <path id="Trazado_1273087" data-name="Trazado 1273087" d="M144.776,136.562c12.91-25.9,41.161-43.868,73.934-43.868,33.113,0,61.609,18.344,74.33,44.676" transform="translate(9.019 7.889)" fill="none" stroke="#1e535a" stroke-miterlimit="10" stroke-width="6.398"/>
            <path id="Trazado_1273088" data-name="Trazado 1273088" d="M135.11,127.775l20.536,10.864L138.438,146.9Z" transform="translate(8.416 10.875)" fill="#1e535a"/>
            <path id="Trazado_1273089" data-name="Trazado 1273089" d="M295.215,127.775l-20.536,10.864,17.208,8.257Z" transform="translate(17.111 10.875)" fill="#1e535a"/>
            <path id="Trazado_1273264" data-name="Trazado 1273264" d="M0,0,28.239-.033l0,2.709L0,2.709Z" transform="translate(462.938 269.743) rotate(-86.763)" fill="#666488"/>
            <path id="Trazado_1273265" data-name="Trazado 1273265" d="M0,0,28.239-.033l0,2.919L0,2.919Z" transform="translate(461.481 269.658) rotate(-86.766)" fill="#9692c6"/>
            <path id="Trazado_1273090" data-name="Trazado 1273090" d="M424.187,228.831l.436-26.9c.971-2.484,3.472-2.635,4.6-2.635h21.145a2.23,2.23,0,0,1,2.188,2.485l-2.915,28.205a2.242,2.242,0,0,1-1.345,1.84l-2.937.547,1.234-1.059H426.376a2.231,2.231,0,0,1-2.189-2.485" transform="translate(26.423 16.963)" fill="#ce6a77"/>
            <path id="Trazado_1273091" data-name="Trazado 1273091" d="M424.024,232.291h21.144a2.218,2.218,0,0,0,2.189-2.013l2.845-27.521a2.232,2.232,0,0,0-2.189-2.485H426.869a2.219,2.219,0,0,0-2.189,2.013l-2.845,27.521a2.232,2.232,0,0,0,2.189,2.485" transform="translate(26.277 17.046)" fill="#bd4d5c"/>
            <path id="Trazado_1273092" data-name="Trazado 1273092" d="M418.349,245.847v7.443l-17.8-3.06V245.8Z" transform="translate(24.952 20.921)" fill="#bd4d5c"/>
            <path id="Trazado_1273093" data-name="Trazado 1273093" d="M452.763,280.953c0,4.553-17.554,8.245-39.209,8.245s-39.209-3.692-39.209-8.245,17.554-8.245,39.209-8.245,39.209,3.692,39.209,8.245" transform="translate(23.319 23.211)" fill="#d2dce0"/>
            <path id="Trazado_1273094" data-name="Trazado 1273094" d="M425.116,229.433c-.389-.061-.548-.067-.8-.1a57.041,57.041,0,0,0-18.966,1.819c-5.211,1.369-14.033,5.94-18.137,8.13-3.634,1.939-3.562,7.511-4,14.95-.135,2.283.683,18.185.515,25.06.679-.128,1.8.008,2.906-.175.638-.106,2.6-9.875,4.154-13.946a23.1,23.1,0,0,0,.745-11.762c-.441-2.1-.78-4.927,1.73-5.533,11.957-2.883,20.43-5.706,29.563-6.4.888-4.529,1.431-7.515,2.295-12.049" transform="translate(23.871 19.506)" fill="#de856c"/>
            <path id="Trazado_1273095" data-name="Trazado 1273095" d="M377.369,278.531l10.239-.03a.884.884,0,0,0,.875-.893l0-1.871c-.026-.788-.095-1.667-.835-1.812,0,0-2.466.231-3.508.467-1.357.306-2.025.486-3.758.884-2.571.589-3.644.968-3.859,1.758-.3,1.087.173,1.374.841,1.5" transform="translate(23.45 23.314)" fill="#752056"/>
            <path id="Trazado_1273096" data-name="Trazado 1273096" d="M430.872,232.446c-.39-.061-.549-.067-.8-.1a57.049,57.049,0,0,0-18.967,1.819c-5.211,1.369-14.032,5.94-18.137,8.13-3.633,1.939-3.561,7.511-4,14.95-.136,2.283.683,18.186.514,25.06.679-.128,1.8.008,2.908-.175.637-.106,2.6-9.875,4.154-13.946a23.128,23.128,0,0,0,.745-11.762c-.442-2.1-.781-4.926,1.729-5.533,11.958-2.883,20.43-5.706,29.564-6.4.888-4.529,1.43-7.516,2.295-12.049" transform="translate(24.229 19.762)" fill="#ffb39f"/>
            <path id="Trazado_1273097" data-name="Trazado 1273097" d="M383.246,282.091l10.225-.546a.886.886,0,0,0,.831-.935l-.085-1.87c-.064-.785-.174-1.659-.922-1.768,0,0-2.452.355-3.481.642-1.339.373-2,.588-3.711,1.072-2.54.718-3.593,1.151-3.77,1.95-.244,1.1.24,1.364.914,1.454" transform="translate(23.813 23.574)" fill="#9f2b74"/>
            <path id="Trazado_1273098" data-name="Trazado 1273098" d="M417.344,223.493s-2.088,7.306-5.972,8.881c0,0,21.892,8.767,23.061,6.409,0,0-3.188-13.856-3.667-21.788Z" transform="translate(25.626 18.469)" fill="#9f3a79"/>
            <path id="Trazado_1273099" data-name="Trazado 1273099" d="M431.72,230.92c6.933,4.607,8.747,19.381-13.023,16.3,0,0-8.478,1.1-14.342,5.518a25.981,25.981,0,0,1-9.391-17.981,40.026,40.026,0,0,1,17.362-4.93c13.052-.6,19.393,1.095,19.393,1.095" transform="translate(24.604 19.55)" fill="#9f3a79"/>
            <path id="Trazado_1273100" data-name="Trazado 1273100" d="M423.284,201.554c.018,3.5-.022,6.931-.149,10.428-.067,1.748-.155,3.5-.31,5.3-.08.9-.175,1.813-.328,2.793a16.135,16.135,0,0,1-.335,1.623c-.044.157-.076.3-.15.5l-.1.286-.052.142c-.043.105-.112.257-.174.379a4.205,4.205,0,0,1-.372.594c-.1.129-.221.276-.318.379a5.876,5.876,0,0,1-.533.5,9.51,9.51,0,0,1-1.569,1.012c-.462.244-.9.447-1.329.638-.857.377-1.688.7-2.514,1-1.652.6-3.282,1.13-4.913,1.633-3.248,1-6.534,1.9-9.718,2.79l-1.533-4.983c3.207-1.125,6.326-2.2,9.416-3.378,1.537-.587,3.064-1.193,4.525-1.837.73-.322,1.445-.655,2.1-1,.327-.17.642-.345.913-.513a2.975,2.975,0,0,0,.528-.385.277.277,0,0,0-.075.062,1.247,1.247,0,0,0-.115.135,2.035,2.035,0,0,0-.205.322,2.255,2.255,0,0,0-.106.235l0-.01v-.017l.019-.114c.04-.2.084-.557.119-.9.067-.714.106-1.506.127-2.308.042-1.611.029-3.276-.009-4.944-.078-3.335-.241-6.735-.459-10.063Z" transform="translate(24.848 17.155)" fill="#de856c"/>
            <path id="Trazado_1273101" data-name="Trazado 1273101" d="M395.86,228.37a2.12,2.12,0,0,0-.485.15,5.9,5.9,0,0,0-.576.276,8.317,8.317,0,0,0-1.118.752,13.736,13.736,0,0,0-2.007,1.975.508.508,0,0,1-.727.06.536.536,0,0,1-.1-.687,15.069,15.069,0,0,1,1.891-2.431,9.817,9.817,0,0,1,1.191-1.057,7.4,7.4,0,0,1,.692-.455,3.772,3.772,0,0,1,.869-.388l.117-.036a.917.917,0,0,1,1.144.634.943.943,0,0,1-.62,1.169.91.91,0,0,1-.272.039" transform="translate(24.342 19.277)" fill="#de856c"/>
            <path id="Trazado_1273102" data-name="Trazado 1273102" d="M396.747,227.3a5.373,5.373,0,0,0-1.405.244,6.727,6.727,0,0,0-1.405.6,7.831,7.831,0,0,0-2.355,2.068l-.006.008a.508.508,0,0,1-.723.088.534.534,0,0,1-.119-.689,9.141,9.141,0,0,1,2.446-2.7,8.309,8.309,0,0,1,1.612-.921,6.9,6.9,0,0,1,1.867-.539.91.91,0,0,1,1.018.8.924.924,0,0,1-.78,1.04.947.947,0,0,1-.111.008Z" transform="translate(24.335 19.188)" fill="#de856c"/>
            <path id="Trazado_1273103" data-name="Trazado 1273103" d="M397.683,229.223a1.578,1.578,0,0,1-.381.145l-.2.054-.38.11c-.25.078-.5.162-.746.258a12.642,12.642,0,0,0-1.452.672,15.856,15.856,0,0,0-2.685,1.86.509.509,0,0,1-.727-.061.541.541,0,0,1,.02-.7,17.224,17.224,0,0,1,2.655-2.332,14.29,14.29,0,0,1,1.53-.936c.266-.142.539-.271.815-.395l.416-.175.2-.08c.045-.014.158-.077.015,0a.893.893,0,0,1,1.236.323.934.934,0,0,1-.317,1.264" transform="translate(24.356 19.364)" fill="#de856c"/>
            <path id="Trazado_1273104" data-name="Trazado 1273104" d="M398.5,229.748a8.634,8.634,0,0,0-3.2,1.206,21.185,21.185,0,0,0-2.966,2.162l0,0a.509.509,0,0,1-.726-.068.537.537,0,0,1,.028-.7,22.571,22.571,0,0,1,2.9-2.608,10.262,10.262,0,0,1,3.646-1.806l.01,0a.9.9,0,0,1,1.088.688.925.925,0,0,1-.673,1.111c-.032.008-.065.013-.1.017" transform="translate(24.387 19.398)" fill="#de856c"/>
            <path id="Trazado_1273105" data-name="Trazado 1273105" d="M401.551,228.695c1.358-1.242.441-4.4.441-4.4a18,18,0,0,0-8.453,2.265l.77,1.818a4.608,4.608,0,0,0,1.492,2.092c.979.665,4.468-.606,5.749-1.777" transform="translate(24.515 19.091)" fill="#de856c"/>
            <path id="Trazado_1273106" data-name="Trazado 1273106" d="M396.472,230.815a24.534,24.534,0,0,0,2.23-1.473,11.555,11.555,0,0,0,.983-.828,2.11,2.11,0,0,0,.557-.741.94.94,0,1,1,1.777.484l-.1.189a3.658,3.658,0,0,1-1.21,1.349,13.2,13.2,0,0,1-1.241.787,25.482,25.482,0,0,1-2.544,1.22.533.533,0,0,1-.7-.3.552.552,0,0,1,.229-.679Z" transform="translate(24.68 19.309)" fill="#de856c"/>
            <path id="Trazado_1273107" data-name="Trazado 1273107" d="M409.029,181.412s1.965,15.924,5.446,17.708c7.424,3.808,17.735,1.163,20.36-5.723.876-2.3-5.462-6.7-6.36-11.4-1.009-5.276-19.446-.585-19.446-.585" transform="translate(25.48 15.277)" fill="#6278bf"/>
            <path id="Trazado_1273108" data-name="Trazado 1273108" d="M419.071,196.9l9.679.547a3.031,3.031,0,0,1,2.118,1.064c2.8,3.241,2.46,6.376,1.889,10-.6,3.8-2.349,6.888-2.16,10.928a24.418,24.418,0,0,0,2.411,8.692s-2.588,1.484-9.155,1.113-9.591-2.133-9.591-2.133l-.329-22.437a25.16,25.16,0,0,1,2.477-6.418,2.95,2.95,0,0,1,2.661-1.356" transform="translate(25.785 16.758)" fill="#7460c9"/>
            <path id="Trazado_1273109" data-name="Trazado 1273109" d="M422.623,212.467a3.947,3.947,0,0,1-3.5-2.21,3.63,3.63,0,0,0,3.5,3.065,3.815,3.815,0,0,0,3.607-2.805,4.245,4.245,0,0,1-3.6,1.95" transform="translate(26.109 17.896)" fill="#5c44a8"/>
            <path id="Trazado_1273110" data-name="Trazado 1273110" d="M414.711,202.576l-2.626,4.9a1.464,1.464,0,0,0,.063,1.5l2.85,4.554,3.78-3.113Z" transform="translate(25.659 17.242)" fill="#7460c9"/>
            <path id="Trazado_1273111" data-name="Trazado 1273111" d="M425.474,198.225l-2.254-7.053-6.121,2.042,2.268,7.048Z" transform="translate(25.983 16.271)" fill="#de856c"/>
            <path id="Trazado_1273112" data-name="Trazado 1273112" d="M425.342,197.708c.189.592-1.024,1.53-2.711,2.092s-3.207.538-3.4-.055,1.024-1.53,2.71-2.092,3.208-.538,3.4.055" transform="translate(26.114 16.788)" fill="#de856c"/>
            <path id="Trazado_1273113" data-name="Trazado 1273113" d="M413.527,195.111c1.583,2.885,4.57,3.734,9.709.395a6.819,6.819,0,0,0,3.378-4.65l-1.329-12.5a2.746,2.746,0,0,0-3.535-2.036l-12.308,4.1a2.8,2.8,0,0,0-1.894,2.5,2.856,2.856,0,0,0,.2,1.233s5.776,10.936,5.78,10.946" transform="translate(25.387 14.996)" fill="#ffac91"/>
            <path id="Trazado_1273114" data-name="Trazado 1273114" d="M421.6,173.727s7.26,1,6.845,11.747c-.082,2.138-2.688,5.229-2.688,5.229Z" transform="translate(26.263 14.786)" fill="#6278bf"/>
            <path id="Trazado_1273115" data-name="Trazado 1273115" d="M409.33,180.811s8.111,5.041,15.854.034c0,0,4.327-.926.853-5.693s-12.18-4.5-14.344.372c-1.76,3.963-2.363,5.287-2.363,5.287" transform="translate(25.499 14.615)" fill="#6278bf"/>
            <path id="Trazado_1273116" data-name="Trazado 1273116" d="M406.141,182.374c.115-4,2.42-7.155,7.783-9.395,0,0,5.282,13.03-3.367,14.212-2.661.364-4.495-2.076-4.416-4.817" transform="translate(25.3 14.723)" fill="#6278bf"/>
            <path id="Trazado_1273117" data-name="Trazado 1273117" d="M425.658,182.639a2.546,2.546,0,0,0-2.99-1.948c-1.128.32.779,5.777,2.143,4.859a2.6,2.6,0,0,0,.848-2.911" transform="translate(26.308 15.372)" fill="#ffac91"/>
            <path id="Trazado_1273118" data-name="Trazado 1273118" d="M419.588,181.2l2.687-1.43,1.246,2.844c.8,2.152.407,2.2.38,2.2-1.48.527-3.87-2.46-4.313-3.619" transform="translate(26.138 15.3)" fill="#6278bf"/>
            <path id="Trazado_1273119" data-name="Trazado 1273119" d="M371.755,215.356l1.649-1.318,2.826-.125,23.972-1.055,7.127,21.859-26.8,1.18-6.725-20.63Z" transform="translate(23.158 18.117)" fill="#8147b5"/>
            <path id="Trazado_1273120" data-name="Trazado 1273120" d="M378.881,237.112l26.8-1.18-7.126-21.859-26.8,1.18Z" transform="translate(23.158 18.22)" fill="#a06dce"/>
            <path id="Trazado_1273121" data-name="Trazado 1273121" d="M385.451,220.548s1.069.026,1.345,1.5" transform="translate(24.011 18.771)" fill="none" stroke="#c7f5ec" stroke-linecap="round" stroke-linejoin="round" stroke-width="0.401"/>
            <path id="Trazado_1273122" data-name="Trazado 1273122" d="M385.445,223.145a1.887,1.887,0,0,0,1.857,1.519,1.335,1.335,0,0,0,1.263-1.649,1.887,1.887,0,0,0-1.856-1.519,1.335,1.335,0,0,0-1.264,1.649" transform="translate(24.009 18.852)" fill="#c7f5ec"/>
            <path id="Trazado_1273123" data-name="Trazado 1273123" d="M386.124,225.851a1.65,1.65,0,0,0-1.259-1.278,2.328,2.328,0,0,1,2.175-1.618,3.378,3.378,0,0,1,3.323,2.719,2.39,2.39,0,0,1-2.263,2.953,3.3,3.3,0,0,1-2.741-1.414,1.154,1.154,0,0,0,.765-1.362" transform="translate(23.975 18.976)" fill="#c7f5ec"/>
            <path id="Trazado_1273266" data-name="Trazado 1273266" d="M0,0,17.076-.016l0,3.077L0,3.077Z" transform="matrix(0.999, -0.043, 0.043, 0.999, 427.847, 251.116)" fill="#8147b5"/>
            <path id="Trazado_1273124" data-name="Trazado 1273124" d="M434.224,202.98l-4.914,21.628-.051.221a2.756,2.756,0,0,1-2.105,2.1L416.3,229.208l-5.418,1.159c-1.786.39-3.647.788-5.327,1.2l-.074.018a2.006,2.006,0,0,1-2.418-1.519,2.063,2.063,0,0,1,1.33-2.424c1.873-.624,3.6-1.139,5.388-1.688l5.327-1.607,10.658-3.172-2.156,2.319,3.279-21.95a3.748,3.748,0,0,1,4.258-3.2,3.807,3.807,0,0,1,3.131,4.349c-.014.094-.034.2-.054.288" transform="translate(25.105 16.878)" fill="#ffac91"/>
            <path id="Trazado_1273125" data-name="Trazado 1273125" d="M401.072,222.63a6.437,6.437,0,0,1,1.09.341,6.012,6.012,0,0,1,1.036.55,4.738,4.738,0,0,1,1.718,2.023l.113.255a1.475,1.475,0,0,1-.714,1.937,1.42,1.42,0,0,1-1.9-.729,1.5,1.5,0,0,1-.124-.715,2.329,2.329,0,0,0-.386-1.369,4.427,4.427,0,0,0-.534-.692,5.868,5.868,0,0,0-.67-.6l-.058-.044a.543.543,0,0,1-.1-.751.519.519,0,0,1,.53-.2" transform="translate(24.945 18.948)" fill="#ffac91"/>
            <path id="Trazado_1273126" data-name="Trazado 1273126" d="M404.8,225.084a2.4,2.4,0,0,1,1.516,1.3c.256.556.552,2.1-.069,2.5a7.524,7.524,0,0,1-5.6.842c-1.212-.175-1.644-.257-1.463-1.426a15.425,15.425,0,0,1,.449-2.052,1.71,1.71,0,0,1,1.382-1.143,8.881,8.881,0,0,1,3.782-.022" transform="translate(24.864 19.14)" fill="#ffac91"/>
            <path id="Trazado_1273127" data-name="Trazado 1273127" d="M401.929,226.78a29.779,29.779,0,0,1-3.135-.039q-1.549-.093-3.083-.324a.594.594,0,0,1,.118-1.181q1.491.077,2.983.021a28.9,28.9,0,0,0,2.936-.251l.02,0a.878.878,0,0,1,.988.76.891.891,0,0,1-.744,1.01c-.028,0-.056.007-.084.008" transform="translate(24.619 19.15)" fill="#ffac91"/>
            <path id="Trazado_1273128" data-name="Trazado 1273128" d="M401.14,227.98a15.6,15.6,0,0,1-1.8.037c-.59-.017-1.176-.066-1.76-.14a15.845,15.845,0,0,1-3.441-.813.6.6,0,0,1-.357-.756.579.579,0,0,1,.69-.38l.014,0a14.562,14.562,0,0,0,3.211.463c.544.021,1.086.018,1.627-.014a13.974,13.974,0,0,0,1.58-.169l.022,0a.878.878,0,0,1,1.009.731.892.892,0,0,1-.717,1.03c-.024,0-.051.008-.074.01" transform="translate(24.528 19.228)" fill="#ffac91"/>
            <path id="Trazado_1273129" data-name="Trazado 1273129" d="M400.266,229.322a13.819,13.819,0,0,1-1.636-.186c-.526-.088-1.045-.2-1.558-.322a24.752,24.752,0,0,1-3.009-.956.6.6,0,0,1-.336-.766.584.584,0,0,1,.7-.36,23.266,23.266,0,0,0,2.918.624c.49.069.98.124,1.469.156a12.144,12.144,0,0,0,1.42.026h.022a.894.894,0,0,1,.095,1.785c-.029,0-.058,0-.086,0" transform="translate(24.524 19.296)" fill="#ffac91"/>
            <path id="Trazado_1273130" data-name="Trazado 1273130" d="M402.317,229.064a13.3,13.3,0,0,1-1.844.214,14.415,14.415,0,0,1-1.824-.024,9.651,9.651,0,0,1-3.569-.938.6.6,0,0,1-.268-.793.577.577,0,0,1,.73-.294l.018.007a8.36,8.36,0,0,0,3.144.534,12.97,12.97,0,0,0,1.625-.119,12.011,12.011,0,0,0,1.569-.318l.022-.007a.872.872,0,0,1,1.077.621.9.9,0,0,1-.608,1.1c-.023.007-.049.013-.073.017" transform="translate(24.591 19.337)" fill="#ffac91"/>
            <path id="Trazado_1273131" data-name="Trazado 1273131" d="M412.763,280.718a2.34,2.34,0,1,0,2.339-2.389,2.365,2.365,0,0,0-2.339,2.389" transform="translate(25.712 23.689)" fill="#666488"/>
            <line id="Línea_3257" data-name="Línea 3257" y2="5.18" transform="translate(440.76 299.227)" fill="none" stroke="#666488" stroke-linecap="round" stroke-linejoin="round" stroke-width="2.352"/>
            <path id="Trazado_1273132" data-name="Trazado 1273132" d="M435.166,280.718a2.34,2.34,0,1,0,2.339-2.389,2.365,2.365,0,0,0-2.339,2.389" transform="translate(27.108 23.689)" fill="#666488"/>
            <line id="Línea_3258" data-name="Línea 3258" y2="5.18" transform="translate(464.558 299.227)" fill="none" stroke="#666488" stroke-linecap="round" stroke-linejoin="round" stroke-width="2.352"/>
            <path id="Trazado_1273133" data-name="Trazado 1273133" d="M428.1,248.831l-.73,28.22a1.041,1.041,0,0,1-2.081,0l-.73-28.22a1.771,1.771,0,1,1,3.541-.1c0,.03,0,.066,0,.1" transform="translate(26.447 21.02)" fill="#9692c6"/>
            <line id="Línea_3259" data-name="Línea 3259" x2="23.799" transform="translate(440.815 299.227)" fill="none" stroke="#9692c6" stroke-linecap="round" stroke-linejoin="round" stroke-width="2.352"/>
            <path id="Trazado_1273134" data-name="Trazado 1273134" d="M424.02,280.718a2.34,2.34,0,1,0,2.339-2.389,2.365,2.365,0,0,0-2.339,2.389" transform="translate(26.414 23.689)" fill="#9692c6"/>
            <line id="Línea_3260" data-name="Línea 3260" y2="4.937" transform="translate(452.773 299.227)" fill="none" stroke="#9692c6" stroke-linecap="round" stroke-linejoin="round" stroke-width="2.352"/>
            <path id="Trazado_1273135" data-name="Trazado 1273135" d="M417.306,253.286l29.873-1.276v-6.167H417.306Z" transform="translate(25.995 20.924)" fill="#ce6a77"/>
            <path id="Rectángulo_460686" data-name="Rectángulo 460686" d="M5.008,0H17a5.009,5.009,0,0,1,5.009,5.009V18.68A5.009,5.009,0,0,1,17,23.689H5.008A5.008,5.008,0,0,1,0,18.681V5.008A5.008,5.008,0,0,1,5.008,0Z" transform="translate(449.96 247.77)" fill="none" stroke="#ce6a77" stroke-miterlimit="10" stroke-width="2.352"/>
            <g id="Grupo_1210985" data-name="Grupo 1210985" transform="translate(386.036 191.95)" opacity="0.64">
              <g id="Grupo_1210984" data-name="Grupo 1210984">
                <g id="Grupo_1210983" data-name="Grupo 1210983" clip-path="url(#clip-path-6)">
                  <path id="Trazado_1273136" data-name="Trazado 1273136" d="M388.4,209.1l-8.145-6.706,5.71-3.45Z" transform="translate(-362.349 -175.017)" fill="#db698b"/>
                  <path id="Trazado_1273137" data-name="Trazado 1273137" d="M391.554,191.274a14.081,14.081,0,1,1-14.078-14.38,14.231,14.231,0,0,1,14.078,14.38" transform="translate(-363.399 -176.894)" fill="#db698b"/>
                  <path id="Trazado_1273138" data-name="Trazado 1273138" d="M384.772,188.235a3.837,3.837,0,0,0-7.671,0,3.838,3.838,0,0,0-7.672,0s-.357,4.62,7.672,10.055c8.028-5.434,7.671-10.055,7.671-10.055" transform="translate(-363.024 -176.246)" fill="#fff"/>
                </g>
              </g>
            </g>
            <path id="Trazado_1273139" data-name="Trazado 1273139" d="M240.937,270.91c0,3.23-11.932,5.85-26.651,5.85s-26.651-2.619-26.651-5.85,11.932-5.85,26.651-5.85,26.651,2.619,26.651,5.85" transform="translate(11.688 22.56)" fill="#d2dce0"/>
            <path id="Trazado_1273140" data-name="Trazado 1273140" d="M218.643,208.459c.828,6.524-5.006,24.959-6.78,32.247a68.369,68.369,0,0,1,2.657,18.372s-1.331,9.946-1.329,11.653l-3.495-.117c-.139-1.692-4.755-22.733-6.44-30.744-1.261-5.994.955-19.715,3.478-32.424,5.818-1.076,11.327-3.567,11.908,1.013" transform="translate(12.639 17.516)" fill="#e3a5a2"/>
            <path id="Trazado_1273141" data-name="Trazado 1273141" d="M209.857,265.53l-3.84,1.282a48.65,48.65,0,0,0-4.762,1.335c-.735.249-1.2.879-.826,1.453a.884.884,0,0,0,.624.394l11.562-.017a.815.815,0,0,0,.877-.736l0-.637h0V265.53Z" transform="translate(12.477 22.6)" fill="#8c3878"/>
            <path id="Trazado_1273142" data-name="Trazado 1273142" d="M224.922,209.99c.88,2.678,1.239,8.984,1.2,13.96-.054,6.365-4.117,14.106-4.1,21.958,3.825,4.777,3.138,10.174,3.117,14.536,0,0-.013,11.728.014,13.435l-3.507.52c-.163-1.691-5.339-18.592-7.873-27.743-2.24-8.095-4.979-27.066-2.795-38.758,5.865.769,8.1,1.163,13.947,2.092" transform="translate(13.093 17.695)" fill="#ffb9b6"/>
            <path id="Trazado_1273143" data-name="Trazado 1273143" d="M225.887,202.125s5.463,10.748,1.878,25.792c-3.727,1.522-20.586,1.024-24.557-3.553,0,0-.012-12.359,3.788-20.7Z" transform="translate(12.659 17.203)" fill="#8577ce"/>
            <path id="Trazado_1273144" data-name="Trazado 1273144" d="M221.375,268.367l-3.636,1.335a49.242,49.242,0,0,0-4.744,1.4c-.732.259-1.193.9-.805,1.466a.882.882,0,0,0,.629.384l11.56-.184a.819.819,0,0,0,.868-.75l-.007-.637h0l-.044-3.073Z" transform="translate(13.209 22.837)" fill="#8c3878"/>
            <path id="Trazado_1273145" data-name="Trazado 1273145" d="M213.378,179.762l-10.045,11.065-.293.322a2.694,2.694,0,0,1-1.985.885h-.006c-.858-.012-1.512-.064-2.241-.123-.712-.058-1.413-.131-2.112-.211-1.395-.162-2.774-.364-4.144-.586-2.74-.451-5.445-1-8.123-1.628a2.186,2.186,0,0,1-1.606-2.616,2.146,2.146,0,0,1,2.326-1.681c2.65.3,5.3.527,7.939.652,1.318.06,2.634.1,3.938.1.65,0,1.3-.009,1.94-.031.62-.021,1.32-.054,1.813-.109h0l-2.278,1.208,7.963-12.71a4.334,4.334,0,0,1,6.063-1.36,4.542,4.542,0,0,1,1.331,6.193,4.858,4.858,0,0,1-.479.632" transform="translate(11.385 14.659)" fill="#e3a5a2"/>
            <path id="Trazado_1273146" data-name="Trazado 1273146" d="M210.489,167.593c-2.519.777-4.394,3.925-5.223,5.383l-4.683,8.732c1.49.962,2.956,1.972,4.428,2.978q1.326.907,2.642,1.816l7.31-11.488-1.967-7.473Z" transform="translate(12.495 14.26)" fill="#cf8655"/>
            <path id="Trazado_1273147" data-name="Trazado 1273147" d="M181.388,186.986a1.644,1.644,0,0,0-.462-.009,5.228,5.228,0,0,0-.611.082,7.846,7.846,0,0,0-1.264.369,13.321,13.321,0,0,0-2.471,1.264.616.616,0,0,1-.862-.2.649.649,0,0,1,.115-.82,14.879,14.879,0,0,1,2.489-1.834,9.9,9.9,0,0,1,1.451-.7,7.314,7.314,0,0,1,.806-.251,3.757,3.757,0,0,1,.987-.133l.735,0a1.313,1.313,0,0,1,.014,2.626,1.277,1.277,0,0,1-.927-.4" transform="translate(10.94 15.725)" fill="#e3a5a2"/>
            <path id="Trazado_1273148" data-name="Trazado 1273148" d="M182.509,186.191a5.057,5.057,0,0,0-1.36-.188,6.607,6.607,0,0,0-1.484.139,7.593,7.593,0,0,0-2.8,1.242l-.012.008a.616.616,0,0,1-.867-.165.646.646,0,0,1,.092-.83,9.117,9.117,0,0,1,3.122-1.94,8.449,8.449,0,0,1,1.831-.444,6.993,6.993,0,0,1,2,.008,1.119,1.119,0,0,1,.923,1.275,1.1,1.1,0,0,1-1.248.943,1.2,1.2,0,0,1-.169-.04Z" transform="translate(10.956 15.656)" fill="#e3a5a2"/>
            <path id="Trazado_1273149" data-name="Trazado 1273149" d="M182.951,188.3a1.721,1.721,0,0,1-.447.034l-.206-.01-.389-.011c-.258,0-.516,0-.777.022a12.063,12.063,0,0,0-1.563.2,15.5,15.5,0,0,0-3.082.957l-.005,0a.622.622,0,0,1-.817-.344.647.647,0,0,1,.259-.8,17.114,17.114,0,0,1,3.2-1.516,13.788,13.788,0,0,1,1.742-.48c.3-.063.6-.114.9-.155l.453-.053.216-.022c.042,0,.18-.033-.026.007a1.09,1.09,0,0,1,1.327.807,1.118,1.118,0,0,1-.791,1.356" transform="translate(10.94 15.839)" fill="#e3a5a2"/>
            <path id="Trazado_1273150" data-name="Trazado 1273150" d="M183.527,189.028a8.346,8.346,0,0,0-3.343.183,20.626,20.626,0,0,0-3.438,1.167l-.007,0a.62.62,0,0,1-.816-.343.645.645,0,0,1,.267-.8,22.318,22.318,0,0,1,3.508-1.71,10.279,10.279,0,0,1,4.059-.723h.02a1.12,1.12,0,0,1-.105,2.237c-.047,0-.1-.01-.144-.017" transform="translate(10.956 15.899)" fill="#e3a5a2"/>
            <path id="Trazado_1273151" data-name="Trazado 1273151" d="M186.737,188.693c1.647-.8,1.642-4.089,1.642-4.089a17.9,17.9,0,0,0-8.734-.275s.234,1.962.235,1.966a4.67,4.67,0,0,0,.851,2.438c.754.92,4.453.713,6.006-.041" transform="translate(11.191 15.654)" fill="#e3a5a2"/>
            <path id="Trazado_1273152" data-name="Trazado 1273152" d="M181.289,189.292a23.928,23.928,0,0,0,2.524-.8,10.943,10.943,0,0,0,1.146-.522c.334-.169.678-.459.656-.507a1.623,1.623,0,0,1,.808-2.121,1.564,1.564,0,0,1,2.077.826,1.635,1.635,0,0,1-.308,1.764l-.851.9a3.69,3.69,0,0,1-1.619.985,12.635,12.635,0,0,1-1.432.382,25.025,25.025,0,0,1-2.8.4.652.652,0,0,1-.7-.6.66.66,0,0,1,.487-.7Z" transform="translate(11.262 15.763)" fill="#e3a5a2"/>
            <path id="Trazado_1273153" data-name="Trazado 1273153" d="M226.433,159.706c-3.652-2.9.513-5.595.513-5.595l-8.408-3.482s-6.845,7.393-9.492,8.565-7.114,5.949-.454,9.325a7.5,7.5,0,0,0,6.964.34,24.339,24.339,0,0,0,3.93.721,9.324,9.324,0,0,0,1.859-.113,11.393,11.393,0,0,0,2.158.5c6.027.834,6.581-7.351,2.929-10.256" transform="translate(12.777 12.82)" fill="#5e7cff"/>
            <path id="Trazado_1273154" data-name="Trazado 1273154" d="M223.6,173.284c-1.113-4.892-2.725-6.724-7.228-6.733-1.853,0-3.707-.015-5.559-.023a2.657,2.657,0,0,0-.5.04,4.584,4.584,0,0,0-3.9,4.478,3.318,3.318,0,0,1-.036.562A41.187,41.187,0,0,1,204.057,179c-.517,1.328-1.371,4.883,1.385,7.386a2.981,2.981,0,0,1,1,2.141c.137,6.169,1.426,10.839.45,16.194a2.885,2.885,0,0,0,2.251,3.343c6.481,1.309,9.3,1.3,14.938.265,1.516-.277,2.9-1.818,2.31-3.271-4.948-12.289-2.011-28.344-2.791-31.775" transform="translate(12.678 14.174)" fill="#f29e64"/>
            <path id="Trazado_1273155" data-name="Trazado 1273155" d="M217.483,168.025s-4.293,4.09-5.325,3.433c-.584-.371-.813-3.478-.813-3.478a15.145,15.145,0,0,0-.206-7.214c.731-1.647,5.137-1.986,6.393.23a25.8,25.8,0,0,0-.049,7.028" transform="translate(13.153 13.57)" fill="#e3a5a2"/>
            <path id="Trazado_1273156" data-name="Trazado 1273156" d="M222.961,158.531s.619,2.2-3.492,3.661l3-5.933Z" transform="translate(13.672 13.3)" fill="#5e7cff"/>
            <path id="Trazado_1273157" data-name="Trazado 1273157" d="M207.931,148.93s-3.568,6.552-.207,10.651l1.25-.244Z" transform="translate(12.85 12.676)" fill="#5e7cff"/>
            <path id="Trazado_1273158" data-name="Trazado 1273158" d="M206.077,155.743c.323,1.349,1.18,2.293,1.916,2.108s1.071-1.425.749-2.774-1.181-2.293-1.917-2.108-1.071,1.426-.748,2.774" transform="translate(12.83 13.018)" fill="#e3a5a2"/>
            <path id="Trazado_1273159" data-name="Trazado 1273159" d="M208.822,150.737s.319,6.026-.958,6.06c-1.881.051-2.363-4.493-1.463-6.868Z" transform="translate(12.83 12.761)" fill="#5e7cff"/>
            <path id="Trazado_1273160" data-name="Trazado 1273160" d="M223.5,148.416a9.262,9.262,0,0,0-7.255-4.263c-.1,0-.2,0-.306,0s-.205-.021-.3-.025c-2.981-.127-4.112-.352-6.06,1.915-2.514,2.925-1.836,8.843-1.912,10.72-.219,5.322.158,9.158,5,9.341,5.07.192,10.332-3.127,10.86-8.642.18-1.871,1.021-7.493-.023-9.043" transform="translate(12.933 12.261)" fill="#ffb9b6"/>
            <path id="Trazado_1273161" data-name="Trazado 1273161" d="M223.284,148.268s4.219,1.96,3.636,7.667c-.253,2.476-2.195,4.32-5.711,3.854Z" transform="translate(13.78 12.619)" fill="#5e7cff"/>
            <path id="Trazado_1273162" data-name="Trazado 1273162" d="M212.168,141.773a11.406,11.406,0,0,1,2.881-.49c2.849-.184,5.98-.113,8.345,1.64,4.653,3.444,5.413,10.337,1.391,15.343-.5.3-6.219-.105-9.274-1.857-2.611-1.5-4.583-5.384-3.784-7.526-2.571.445-3.246.639-1.806-2.154,1.073-2.081,0,0,.1-2.553a2.7,2.7,0,0,1,2.15-2.4" transform="translate(13.03 12.019)" fill="#5e7cff"/>
            <path id="Trazado_1273163" data-name="Trazado 1273163" d="M210.946,142.5s4.658-5.588,11.67-1.157c2.827,1.787,5.7,6.173,3.935,9.509Z" transform="translate(13.141 11.885)" fill="#5e7cff"/>
            <path id="Trazado_1273164" data-name="Trazado 1273164" d="M213.242,146.039s-.2,6.119-5.511,6.9c0,0-5.242-2.944-2.576-8.122,1.245-2.419,3.2-3,6.2-2.528Z" transform="translate(12.733 12.098)" fill="#5e7cff"/>
            <path id="Trazado_1273165" data-name="Trazado 1273165" d="M224.065,157.193c-.509,1.552-1.61,2.575-2.457,2.285s-1.12-1.783-.611-3.336,1.609-2.575,2.456-2.285,1.12,1.784.612,3.336" transform="translate(13.751 13.091)" fill="#ffb9b6"/>
            <path id="Trazado_1273166" data-name="Trazado 1273166" d="M221.2,156.047s1.791,3.023-.058,3.291a3.634,3.634,0,0,1-3.646-4.395Z" transform="translate(13.545 13.188)" fill="#5e7cff"/>
            <path id="Trazado_1273167" data-name="Trazado 1273167" d="M146.054,169.5l2.052-1.5h32.319l7.468,26.692H155.575L148.526,169.5Z" transform="translate(9.098 14.299)" fill="#614eb5"/>
            <path id="Trazado_1273168" data-name="Trazado 1273168" d="M153.523,196.079h32.319l-7.468-26.692h-32.32Z" transform="translate(9.098 14.417)" fill="#8577ce"/>
            <path id="Trazado_1273169" data-name="Trazado 1273169" d="M163.651,176.509s-1.1.136-.675,1.8" transform="translate(10.146 15.023)" fill="none" stroke="#c7e5f5" stroke-linecap="round" stroke-linejoin="round" stroke-width="0.483"/>
            <path id="Trazado_1273170" data-name="Trazado 1273170" d="M165.054,179.423a1.347,1.347,0,0,1-1.224,1.849,2.327,2.327,0,0,1-2.095-1.767,1.349,1.349,0,0,1,1.179-1.834,2.311,2.311,0,0,1,2.139,1.751" transform="translate(10.071 15.122)" fill="#c7e5f5"/>
            <path id="Trazado_1273171" data-name="Trazado 1273171" d="M165.809,182.576a1.194,1.194,0,0,1,.728-1.548,4.029,4.029,0,0,0-3.136-1.7c-1.617.039-2.544,1.482-2.11,3.234a4.388,4.388,0,0,0,3.773,3.3,2.171,2.171,0,0,0,2.285-1.72,2.272,2.272,0,0,1-1.54-1.567" transform="translate(10.041 15.263)" fill="#c7e5f5"/>
            <rect id="Rectángulo_460688" data-name="Rectángulo 460688" width="20.574" height="3.708" transform="translate(193.903 206.788)" fill="#614eb5"/>
            <path id="Trazado_1273172" data-name="Trazado 1273172" d="M222.3,179.077l-9.643,18.318-.183.346a2.958,2.958,0,0,1-2.478,1.588l-12.169.528-6.077.288c-2,.1-4.092.2-5.986.343l-.085.007a2.223,2.223,0,0,1-2.363-2.081,2.252,2.252,0,0,1,1.86-2.393c2.139-.342,4.1-.59,6.137-.866l6.057-.789,12.11-1.531-2.661,1.933,6.734-19.629a4.77,4.77,0,0,1,6.11-3,4.925,4.925,0,0,1,2.938,6.242,5.464,5.464,0,0,1-.3.7" transform="translate(11.419 14.627)" fill="#ffb9b6"/>
            <path id="Trazado_1273173" data-name="Trazado 1273173" d="M182.031,190.614a7.158,7.158,0,0,1,1.124.564,6.743,6.743,0,0,1,1.03.783,5.263,5.263,0,0,1,1.516,2.5l.079.3a1.613,1.613,0,0,1-1.108,1.975,1.572,1.572,0,0,1-1.932-1.132,1.668,1.668,0,0,1-.012-.8,2.564,2.564,0,0,0-.184-1.555,4.858,4.858,0,0,0-.461-.846,6.159,6.159,0,0,0-.624-.774l-.055-.06a.6.6,0,0,1,.017-.833.57.57,0,0,1,.61-.124" transform="translate(11.29 16.22)" fill="#ffb9b6"/>
            <path id="Trazado_1273174" data-name="Trazado 1273174" d="M185.679,193.911A2.659,2.659,0,0,1,187.1,195.6c.183.649.239,2.377-.5,2.7a8.266,8.266,0,0,1-6.22-.091c-1.284-.407-1.739-.574-1.342-1.809a17.072,17.072,0,0,1,.84-2.146,1.864,1.864,0,0,1,1.7-.992,9.76,9.76,0,0,1,4.108.654" transform="translate(11.144 16.449)" fill="#ffb9b6"/>
            <path id="Trazado_1273175" data-name="Trazado 1273175" d="M182.241,195.269a33.41,33.41,0,0,1-3.4-.6q-1.665-.379-3.29-.906a.655.655,0,0,1-.416-.819.645.645,0,0,1,.748-.441q1.6.35,3.233.557a31.9,31.9,0,0,0,3.23.255h.021a.982.982,0,0,1-.038,1.964c-.031,0-.063,0-.092-.007" transform="translate(10.908 16.383)" fill="#ffb9b6"/>
            <path id="Trazado_1273176" data-name="Trazado 1273176" d="M181.172,196.456a17.262,17.262,0,0,1-1.963-.283c-.636-.125-1.265-.283-1.887-.468a17.572,17.572,0,0,1-3.595-1.5.66.66,0,0,1-.256-.885.632.632,0,0,1,.814-.288l.015.007a16.1,16.1,0,0,0,3.4,1.08c.585.119,1.176.214,1.768.277a15.758,15.758,0,0,0,1.744.1h.024a.982.982,0,0,1,.015,1.964c-.028,0-.056,0-.084,0" transform="translate(10.801 16.425)" fill="#ffb9b6"/>
            <path id="Trazado_1273177" data-name="Trazado 1273177" d="M179.991,197.755a15.012,15.012,0,0,1-1.743-.495c-.556-.19-1.1-.4-1.636-.628a27.582,27.582,0,0,1-3.1-1.577.661.661,0,0,1-.234-.892.64.64,0,0,1,.823-.266,25.741,25.741,0,0,0,3.059,1.2c.519.164,1.043.31,1.568.434a13.557,13.557,0,0,0,1.536.282l.024,0a.977.977,0,0,1,.854,1.081.967.967,0,0,1-1.058.872.889.889,0,0,1-.093-.015" transform="translate(10.789 16.498)" fill="#ffb9b6"/>
            <path id="Trazado_1273178" data-name="Trazado 1273178" d="M182.259,197.84a14.648,14.648,0,0,1-2.037-.1,15.94,15.94,0,0,1-1.976-.353,10.662,10.662,0,0,1-3.712-1.657.661.661,0,0,1-.154-.909.631.631,0,0,1,.842-.188l.018.011a9.267,9.267,0,0,0,3.321,1.143,14.389,14.389,0,0,0,1.785.162,13.049,13.049,0,0,0,1.756-.064l.025,0a.966.966,0,0,1,1.062.867.977.977,0,0,1-.848,1.085c-.028,0-.056,0-.083.005" transform="translate(10.855 16.558)" fill="#ffb9b6"/>
            <path id="Trazado_1273179" data-name="Trazado 1273179" d="M217.449,188.471l-9.632-1.936,3.6-12.162s1.224-5.844,4.738-5.669c2.519.126,10.941,3.972,1.293,19.766" transform="translate(12.946 14.359)" fill="#f29e64"/>
            <path id="Trazado_1273180" data-name="Trazado 1273180" d="M211.129,174.827c-.357,1.925-.858,3.8-1.4,5.674-.274.932-.561,1.861-.881,2.78s-.646,1.835-1.035,2.732c.163-.967.39-1.914.621-2.86s.5-1.882.775-2.813c.565-1.861,1.169-3.709,1.915-5.513" transform="translate(12.946 14.88)" fill="#b85d25"/>
            <path id="Trazado_1273181" data-name="Trazado 1273181" d="M216.884,188.214c.32-.651.645-1.29.919-1.958.3-.649.576-1.311.826-1.98a36.233,36.233,0,0,0,1.294-4.067,24.394,24.394,0,0,0,.65-4.2,20.9,20.9,0,0,0-.248-4.287,13.144,13.144,0,0,1,.823,4.3,17.085,17.085,0,0,1-.485,4.382,21.131,21.131,0,0,1-1.483,4.129,18.465,18.465,0,0,1-2.3,3.688" transform="translate(13.51 14.615)" fill="#b85d25"/>
            <g id="Grupo_1210988" data-name="Grupo 1210988" transform="translate(216.656 113.559)" opacity="0.64">
              <g id="Grupo_1210987" data-name="Grupo 1210987">
                <g id="Grupo_1210986" data-name="Grupo 1210986" clip-path="url(#clip-path-7)">
                  <path id="Trazado_1273182" data-name="Trazado 1273182" d="M212.515,139.634l5.579-9.039-6.5-1.375Z" transform="translate(-203.475 -102.561)" fill="#db698b"/>
                  <path id="Trazado_1273183" data-name="Trazado 1273183" d="M203.952,119.032a14.081,14.081,0,1,0,14.078-14.38,14.231,14.231,0,0,0-14.078,14.38" transform="translate(-203.951 -104.652)" fill="#db698b"/>
                  <path id="Trazado_1273184" data-name="Trazado 1273184" d="M225.352,116.129a8.052,8.052,0,1,1-15.353,0,8.034,8.034,0,0,1,15.353,0" transform="translate(-203.598 -104.157)" fill="#fff"/>
                  <path id="Trazado_1273185" data-name="Trazado 1273185" d="M221.395,120.252a3.629,3.629,0,0,1-1.75,1.432,5.841,5.841,0,0,1-2.207.442,5.713,5.713,0,0,1-2.215-.418,3.571,3.571,0,0,1-1.761-1.438.182.182,0,0,1,.062-.25.174.174,0,0,1,.194.007l.007.007a5.263,5.263,0,0,0,1.788.778,8.489,8.489,0,0,0,1.925.234,8.212,8.212,0,0,0,1.933-.209,5.058,5.058,0,0,0,1.8-.785l.007,0a.147.147,0,0,1,.208.035.156.156,0,0,1,.007.169" transform="translate(-203.36 -103.346)" fill="#db698b"/>
                  <path id="Trazado_1273186" data-name="Trazado 1273186" d="M221.269,116.657a.721.721,0,1,1-.7-.9.819.819,0,0,1,.7.9" transform="translate(-202.959 -103.707)" fill="#db698b"/>
                  <path id="Trazado_1273187" data-name="Trazado 1273187" d="M214.617,116.657a.721.721,0,1,1-.7-.9.819.819,0,0,1,.7.9" transform="translate(-203.374 -103.707)" fill="#db698b"/>
                </g>
              </g>
            </g>
          </g>
        </g>
      </g>
    </g>
  </g>
</svg>
