<svg xmlns="http://www.w3.org/2000/svg" xmlns:xlink="http://www.w3.org/1999/xlink" width="187.711" height="121.729" viewBox="0 0 187.711 121.729">
  <defs>
    <clipPath id="clip-path">
      <rect id="Rectángulo_460992" data-name="Rectángulo 460992" width="150.321" height="104.372" fill="none"/>
    </clipPath>
    <clipPath id="clip-path-2">
      <rect id="Rectángulo_460991" data-name="Rectángulo 460991" width="150.321" height="104.373" fill="none"/>
    </clipPath>
    <clipPath id="clip-path-3">
      <rect id="Rectángulo_460990" data-name="Rectángulo 460990" width="25.386" height="22.592" fill="none"/>
    </clipPath>
  </defs>
  <g id="Grupo_1211736" data-name="Grupo 1211736" transform="translate(-289.711 -3473)">
    <g id="Grupo_1211552" data-name="Grupo 1211552" transform="translate(0.434 -5395.039)">
      <g id="Grupo_1204518" data-name="Grupo 1204518" transform="translate(289.277 8868.039)">
        <rect id="Rectángulo_455283" data-name="Rectángulo 455283" width="187.711" height="121.729" rx="19" fill="#9ed1ff"/>
      </g>
    </g>
    <g id="Grupo_1211563" data-name="Grupo 1211563" transform="translate(308.711 3482)">
      <g id="Grupo_1211562" data-name="Grupo 1211562" clip-path="url(#clip-path)">
        <rect id="Rectángulo_460983" data-name="Rectángulo 460983" width="77.53" height="59.791" transform="translate(76.833 76.352) rotate(-78.998)" fill="#c5d5e6"/>
        <rect id="Rectángulo_460984" data-name="Rectángulo 460984" width="77.531" height="59.791" transform="matrix(0.191, -0.982, 0.982, 0.191, 75.029, 76.105)" fill="#e4e8ed"/>
        <rect id="Rectángulo_460985" data-name="Rectángulo 460985" width="59.791" height="77.529" transform="translate(66.968 13.892) rotate(-12.224)" fill="#f2f6fa"/>
        <rect id="Rectángulo_460986" data-name="Rectángulo 460986" width="59.792" height="77.53" transform="matrix(0.977, -0.212, 0.212, 0.977, 65.392, 14.221)" fill="#fff"/>
        <g id="Grupo_1211561" data-name="Grupo 1211561" transform="translate(0 0)">
          <g id="Grupo_1211560" data-name="Grupo 1211560" clip-path="url(#clip-path-2)">
            <path id="Trazado_1274919" data-name="Trazado 1274919" d="M99.929,51.787l.131-42.329-56.7-.173A2.28,2.28,0,0,0,41.8,9.9l0,.008a2.272,2.272,0,0,0-.744,1.675l-.232,75.453,60.265.186a4.039,4.039,0,0,0,.467-.267c2.424-1.358,3.083-4.53,3.094-7.593l.062-20.314Z" transform="translate(23.564 5.36)" fill="#ffb851"/>
            <path id="Trazado_1274920" data-name="Trazado 1274920" d="M98.714,51.787l.129-42.329-56.7-.173a2.28,2.28,0,0,0-1.566.615l0,.008a2.272,2.272,0,0,0-.744,1.675L39.61,87.036l60.263.186a4.062,4.062,0,0,0,.468-.267c2.426-1.358,3.083-4.53,3.093-7.593l.065-20.314Z" transform="translate(22.863 5.36)" fill="#ffd453"/>
            <rect id="Rectángulo_460987" data-name="Rectángulo 460987" width="56.646" height="7.285" transform="translate(107.562 83.792) rotate(-89.823)" fill="#fff"/>
            <rect id="Rectángulo_460988" data-name="Rectángulo 460988" width="30.787" height="3.896" transform="translate(8.806 73.52)" fill="#c5d5e6"/>
            <path id="Trazado_1274921" data-name="Trazado 1274921" d="M47.432,63.236H23.554v4.635H71.306V63.236Z" transform="translate(13.596 36.5)" fill="#1a222b"/>
            <path id="Trazado_1274922" data-name="Trazado 1274922" d="M41.253,43.01H28.561v31.9H53.946V43.01Z" transform="translate(16.486 24.826)" fill="#10151a"/>
            <path id="Trazado_1274923" data-name="Trazado 1274923" d="M37.3,63.236H13.425v4.635h47.75V63.236Z" transform="translate(7.749 36.5)" fill="#2c3540"/>
            <path id="Trazado_1274924" data-name="Trazado 1274924" d="M34.529,43.01H21.835v31.9H47.22V43.01Z" transform="translate(12.603 24.826)" fill="#1a222b"/>
            <g id="Grupo_1211559" data-name="Grupo 1211559" transform="translate(34.438 67.835)" opacity="0.5" style="mix-blend-mode: multiply;isolation: isolate">
              <g id="Grupo_1211558" data-name="Grupo 1211558">
                <g id="Grupo_1211557" data-name="Grupo 1211557" clip-path="url(#clip-path-3)">
                  <rect id="Rectángulo_460989" data-name="Rectángulo 460989" width="25.387" height="22.592" transform="translate(0)" fill="#2c3540"/>
                </g>
              </g>
            </g>
            <path id="Trazado_1274925" data-name="Trazado 1274925" d="M100.294,15.244V75.455a2.2,2.2,0,0,1-2.188,2.189H4.8a2.2,2.2,0,0,1-2.192-2.189V15.244A2.2,2.2,0,0,1,4.8,13.055h93.3a2.194,2.194,0,0,1,2.188,2.189" transform="translate(1.508 7.536)" fill="#1a222b"/>
            <path id="Trazado_1274926" data-name="Trazado 1274926" d="M97.683,15.244V75.455a2.2,2.2,0,0,1-2.194,2.189H2.19A2.2,2.2,0,0,1,0,75.455V15.244A2.193,2.193,0,0,1,2.19,13.055h93.3a2.2,2.2,0,0,1,2.194,2.189" transform="translate(0.001 7.536)" fill="#2c3540"/>
            <path id="Trazado_1274927" data-name="Trazado 1274927" d="M92.834,70.907a2.175,2.175,0,0,1-2.161,2.167H4.413a2.172,2.172,0,0,1-2.164-2.167V17.335a2.163,2.163,0,0,1,2.164-2.154h86.26a2.166,2.166,0,0,1,2.161,2.154Z" transform="translate(1.298 8.763)" fill="#a4e7f0"/>
            <path id="Trazado_1274928" data-name="Trazado 1274928" d="M40.407,21.6c.673-.009,1.063.192,1.126.71a.841.841,0,0,1-.894.926,19.237,19.237,0,0,0-12.872,4.916l2.151,2.164a1.1,1.1,0,0,1,.244.721,1.145,1.145,0,0,1-.632.64L19.378,34.216a1.211,1.211,0,0,1-.781-.147,1.037,1.037,0,0,1-.267-.781l2.561-10.257a1.12,1.12,0,0,1,.541-.607,1.041,1.041,0,0,1,.853.259L24.313,24.7a24.377,24.377,0,0,1,40.736,19.62.932.932,0,0,1-.662.856c-.3.1-1-.3-.972-.721a22.751,22.751,0,0,0-38.07-18.486c-.36.331-1,.885-1.47.5-.587-.478-1.106-1.027-1.757-1.642l-1.86,7.495,7.478-1.88-1.722-1.784a.888.888,0,0,1,.069-1.177A21.087,21.087,0,0,1,40.407,21.6" transform="translate(10.575 10.588)" fill="#1e535a"/>
            <path id="Trazado_1274929" data-name="Trazado 1274929" d="M41.283,54.222a19.5,19.5,0,0,0,13.132-4.951l-2.151-2.159a1.026,1.026,0,0,1-.244-.726,1.776,1.776,0,0,1,.528-.607L62.8,43.219a1.723,1.723,0,0,1,.779.134,1.019,1.019,0,0,1,.27.787L61.288,54.4a1.11,1.11,0,0,1-.536.614,1.047,1.047,0,0,1-.778-.189l-2.106-2.091A24.377,24.377,0,0,1,17.129,33.11a.911.911,0,0,1,.666-.85c.3-.1,1,.29.97.714A22.751,22.751,0,0,0,56.838,51.46c.358-.33,1.017-.918,1.467-.5l1.754,1.64,1.871-7.482-7.5,1.863,1.746,1.789a.925.925,0,0,1,0,1.1,21.093,21.093,0,0,1-14.64,5.959.873.873,0,0,1-.9-.719c-.049-.285.244-.893.647-.893" transform="translate(9.853 18.612)" fill="#1e535a"/>
            <path id="Trazado_1274930" data-name="Trazado 1274930" d="M44.566,37.619c-5.279,3.5-18.225,1.973-18.218-1.992l.009-5.221a2.718,2.718,0,0,1,1.5-2.055c3.131-1.863,8.418-1.957,12.089-1.429,2.222.32,5.848,1.49,5.864,3.356l.041,5.2a2.632,2.632,0,0,1-1.289,2.137m-14.3-3.68a.878.878,0,0,1-.527-1.06.827.827,0,0,1,.885-.508,21.193,21.193,0,0,0,10.783.013c1.158-.309,2.784-1.027,2.807-1.754s-1.639-1.473-2.785-1.771a21.124,21.124,0,0,0-10.662,0A6.589,6.589,0,0,0,27.982,30.3l-.011,5.443a5.166,5.166,0,0,0,2.167,1.325,20.3,20.3,0,0,0,12.029-.044,3.444,3.444,0,0,0,1.97-1.307,16.106,16.106,0,0,0,.076-2.683c-4.153,2-9.515,2.077-13.947.907" transform="translate(15.208 15.379)" fill="#1e535a"/>
            <path id="Trazado_1274931" data-name="Trazado 1274931" d="M43.549,39.9c1.186-.655.342-1.935,1.022-2.355a1.217,1.217,0,0,1,.972,0c.536.372.631,2.375-.681,3.38A7.664,7.664,0,0,1,42.415,42.2a22.244,22.244,0,0,1-12.6,0,7.728,7.728,0,0,1-2.448-1.268c-1.3-.989-1.225-3-.68-3.375a1.194,1.194,0,0,1,.97-.008c.685.456-.161,1.714,1.025,2.361,3.845,2.1,11.056,2.1,14.867,0" transform="translate(15.189 21.612)" fill="#1e535a"/>
            <path id="Trazado_1274932" data-name="Trazado 1274932" d="M43.471,36.864c1.394-.754.2-2.531,1.585-2.538.538,0,.82.467.842,1.028a2.842,2.842,0,0,1-1.183,2.606c-3.855,2.746-13.375,2.736-17.206,0a2.845,2.845,0,0,1-1.184-2.607c.024-.566.3-1.028.847-1.033a.872.872,0,0,1,.814,1.041,1.382,1.382,0,0,0,.768,1.5,11.983,11.983,0,0,0,4.064,1.287c3.4.461,7.673.331,10.652-1.282" transform="translate(15.193 19.812)" fill="#1e535a"/>
          </g>
        </g>
      </g>
    </g>
  </g>
</svg>
