<svg xmlns="http://www.w3.org/2000/svg" xmlns:xlink="http://www.w3.org/1999/xlink" width="96" height="96" viewBox="0 0 96 96">
  <defs>
    <clipPath id="clip-path">
      <rect id="Rectángulo_454829" data-name="Rectángulo 454829" width="96" height="96" fill="#1e535a"/>
    </clipPath>
    <clipPath id="clip-path-2">
      <rect id="Rectángulo_460807" data-name="Rectángulo 460807" width="33.506" height="36" fill="#1e535a"/>
    </clipPath>
  </defs>
  <g id="Grupo_1211070" data-name="Grupo 1211070" transform="translate(-1480.965 -8563)">
    <g id="Grupo_1177591" data-name="Grupo 1177591" transform="translate(1480.965 8563)">
      <g id="Grupo_1177589" data-name="Grupo 1177589" transform="translate(0 0)">
        <g id="Grupo_1177587" data-name="Grupo 1177587" clip-path="url(#clip-path)">
          <path id="Trazado_997422" data-name="Trazado 997422" d="M92.081,42.491a44.136,44.136,0,0,0-9.97-22.967,5.076,5.076,0,0,0-7.142-6.838A44.071,44.071,0,0,0,52.151,3.77a5.077,5.077,0,0,0-9.861.2A44.132,44.132,0,0,0,20.4,13.329a5.079,5.079,0,0,0-7.048,7.1A44.1,44.1,0,0,0,4.112,42.448,5.08,5.08,0,0,0,3.99,52.4a44.082,44.082,0,0,0,8.949,22.468,5.078,5.078,0,0,0,6.9,7.17,44.128,44.128,0,0,0,22.412,9.8,5.078,5.078,0,0,0,9.949.2,44.091,44.091,0,0,0,22.985-9.08,5.077,5.077,0,0,0,7.107-6.874A44.147,44.147,0,0,0,92.2,52.349a5.078,5.078,0,0,0-.119-9.858M77.74,22.024a5.05,5.05,0,0,0,2.812-.851,41.913,41.913,0,0,1,9.25,21.3,5.086,5.086,0,0,0-3.246,2.351l-12.98-4.867c.01-.142.02-.286.02-.433a5.079,5.079,0,0,0-2.151-4.15l5.678-13.4a5.5,5.5,0,0,0,.616.041M75,21.216,69.354,34.523a5.026,5.026,0,0,0-5.594,3.23L40.279,32.344a4.941,4.941,0,0,0-.106-1.011l33.322-11.6A5.1,5.1,0,0,0,75,21.216M47.246,10.165a5.083,5.083,0,0,0,4.989-4.122,41.844,41.844,0,0,1,21.158,8.275,5.054,5.054,0,0,0-.735,2.625,5.335,5.335,0,0,0,.048.671L39.217,29.273a5.1,5.1,0,0,0-.92-.92l8.784-18.2c.056,0,.109.008.165.008M42.3,6.243A5.083,5.083,0,0,0,44.86,9.569L36.248,27.4a5.1,5.1,0,0,0-1.049-.109,5.045,5.045,0,0,0-2.9.91L22.1,19.678A5.052,5.052,0,0,0,21.923,15,41.877,41.877,0,0,1,42.3,6.243M10.041,46.332,31.153,35.442a5.064,5.064,0,0,0,4.006,2.014l7.236,23.129a5.166,5.166,0,0,0-1.12,1.239l-31.3-13.04a5.048,5.048,0,0,0,.187-1.348,5.107,5.107,0,0,0-.124-1.1m4.986-24.391a5.079,5.079,0,0,0,5.673-.484l10.079,8.417a5.068,5.068,0,0,0-.56,3.512L9.07,44.29A5.081,5.081,0,0,0,6.38,42.526a41.859,41.859,0,0,1,8.647-20.585m2.1,50.717a5.067,5.067,0,0,0-2.523.674A41.822,41.822,0,0,1,6.263,52.374,5.087,5.087,0,0,0,8.9,50.783l31.609,13.17a5.45,5.45,0,0,0-.041.611,5.081,5.081,0,0,0,.3,1.718L21.657,75.44a5.081,5.081,0,0,0-4.528-2.782M42.349,89.575a41.919,41.919,0,0,1-20.912-9.149,5.029,5.029,0,0,0,.775-2.686l0-.058L42,68.2A5.082,5.082,0,0,0,43.8,69.329l1.186,17.043a5.082,5.082,0,0,0-2.632,3.2m2.105-29.97-7.081-22.64a5.089,5.089,0,0,0,2.415-2.415L63.459,40a5.052,5.052,0,0,0,.808,2.311L48.032,60.13a5.019,5.019,0,0,0-3.577-.524m7.74,30.167a5.081,5.081,0,0,0-4.948-3.937l-.038,0L46.081,69.62a5.073,5.073,0,0,0,3.106-1.507L72.853,78.551c0,.046-.008.086-.008.132a5.057,5.057,0,0,0,.752,2.65,41.841,41.841,0,0,1-21.4,8.439M73.423,76.334,50.373,66.165a5.052,5.052,0,0,0-.666-4.52L65.893,43.877a5.052,5.052,0,0,0,2.622.735,5.594,5.594,0,0,0,.623-.041l6.05,29.836a5.071,5.071,0,0,0-1.766,1.928m7.292-1.9a5.051,5.051,0,0,0-3.377-.8L71.285,43.788a5.1,5.1,0,0,0,1.6-1.672L85.858,46.98a4.506,4.506,0,0,0-.023.456,5.08,5.08,0,0,0,4.084,4.981,41.876,41.876,0,0,1-9.2,22.017" transform="translate(0 0.001)" fill="#1e535a"/>
        </g>
      </g>
    </g>
    <g id="Elipse_13614" data-name="Elipse 13614" transform="translate(1497.965 8579)" fill="#d5f4f8" stroke="#1e535a" stroke-width="3">
      <ellipse cx="31.232" cy="31.233" rx="31.232" ry="31.233" stroke="none"/>
      <ellipse cx="31.232" cy="31.233" rx="29.732" ry="29.733" fill="none"/>
    </g>
    <g id="Grupo_1211072" data-name="Grupo 1211072" transform="translate(1511.965 8592)">
      <g id="Grupo_1211071" data-name="Grupo 1211071" clip-path="url(#clip-path-2)">
        <path id="Trazado_1273593" data-name="Trazado 1273593" d="M43.11,5.355l0,3.038,13.114,7.639h-27.4L41.941,8.393l0-7.737A.624.624,0,0,1,42.42.008.574.574,0,0,1,43.1.541l.02.886,5.094,0L46.87,3.4,48.208,5.35Zm1.27,6.7a1.858,1.858,0,1,0-1.858,1.858,1.858,1.858,0,0,0,1.858-1.858" transform="translate(-25.766 0)" fill="#1e535a"/>
        <path id="Trazado_1273594" data-name="Trazado 1273594" d="M111.43,291.345l-10.969,0a.938.938,0,0,1-.583-.229c-.707-.825,1.482-5.463,6.043-5.462a6.381,6.381,0,0,1,6.188,4.839.684.684,0,0,1-.68.849" transform="translate(-89.164 -255.348)" fill="#1e535a"/>
        <path id="Trazado_1273595" data-name="Trazado 1273595" d="M216.116,291.329c.275-1.35-.461-2.655-1.247-3.84a6.393,6.393,0,0,1,10.7,2.991.993.993,0,0,1-.168.638.965.965,0,0,1-.6.213Z" transform="translate(-192.071 -255.332)" fill="#1e535a"/>
        <path id="Trazado_1273596" data-name="Trazado 1273596" d="M9.482,291.332H.682a.68.68,0,0,1-.67-.757,6.324,6.324,0,0,1,4.228-4.617,6.389,6.389,0,0,1,6.48,1.536c-.735,1.1-1.556,2.487-1.237,3.837" transform="translate(0 -255.335)" fill="#1e535a"/>
        <rect id="Rectángulo_460806" data-name="Rectángulo 460806" width="29.469" height="1.162" transform="translate(2.023 17.199)" fill="#1e535a"/>
        <path id="Trazado_1273597" data-name="Trazado 1273597" d="M133.956,221.219a3.229,3.229,0,1,1-3.229-3.229,3.229,3.229,0,0,1,3.229,3.229" transform="translate(-113.97 -194.861)" fill="#1e535a"/>
        <path id="Trazado_1273598" data-name="Trazado 1273598" d="M34.6,221.244a3.229,3.229,0,1,1-3.229-3.229,3.229,3.229,0,0,1,3.229,3.229" transform="translate(-25.158 -194.883)" fill="#1e535a"/>
        <path id="Trazado_1273599" data-name="Trazado 1273599" d="M233.309,221.239a3.229,3.229,0,1,1-3.229-3.229,3.229,3.229,0,0,1,3.229,3.229" transform="translate(-202.781 -194.878)" fill="#1e535a"/>
        <path id="Trazado_1273600" data-name="Trazado 1273600" d="M47.583,186.6a5.012,5.012,0,0,0-2.935.021l-.011-2.694,2.949,0Z" transform="translate(-39.901 -164.406)" fill="#1e535a"/>
        <path id="Trazado_1273601" data-name="Trazado 1273601" d="M246.379,186.609a5.04,5.04,0,0,0-2.941.011v-2.693l2.947,0Z" transform="translate(-217.608 -164.411)" fill="#1e535a"/>
        <path id="Trazado_1273602" data-name="Trazado 1273602" d="M147.042,186.584a5.135,5.135,0,0,0-2.927.01l0-2.69h2.933Z" transform="translate(-128.822 -164.391)" fill="#1e535a"/>
      </g>
    </g>
  </g>
</svg>
