<svg xmlns="http://www.w3.org/2000/svg" xmlns:xlink="http://www.w3.org/1999/xlink" width="96" height="96" viewBox="0 0 96 96">
  <defs>
    <clipPath id="clip-path">
      <rect id="Rectángulo_454829" data-name="Rectángulo 454829" width="96" height="96" fill="#1e535a"/>
    </clipPath>
    <clipPath id="clip-path-2">
      <rect id="Rectángulo_460813" data-name="Rectángulo 460813" width="35.252" height="36.095" fill="#1e535a"/>
    </clipPath>
  </defs>
  <g id="Grupo_1211069" data-name="Grupo 1211069" transform="translate(-1481 -8562.5)">
    <g id="Grupo_1177591" data-name="Grupo 1177591" transform="translate(1481 8562.5)">
      <g id="Grupo_1177589" data-name="Grupo 1177589" transform="translate(0 0)">
        <g id="Grupo_1177587" data-name="Grupo 1177587" clip-path="url(#clip-path)">
          <path id="Trazado_997422" data-name="Trazado 997422" d="M92.081,42.491a44.136,44.136,0,0,0-9.97-22.967,5.076,5.076,0,0,0-7.142-6.838A44.071,44.071,0,0,0,52.151,3.77a5.077,5.077,0,0,0-9.861.2A44.132,44.132,0,0,0,20.4,13.329a5.079,5.079,0,0,0-7.048,7.1A44.1,44.1,0,0,0,4.112,42.448,5.08,5.08,0,0,0,3.99,52.4a44.082,44.082,0,0,0,8.949,22.468,5.078,5.078,0,0,0,6.9,7.17,44.128,44.128,0,0,0,22.412,9.8,5.078,5.078,0,0,0,9.949.2,44.091,44.091,0,0,0,22.985-9.08,5.077,5.077,0,0,0,7.107-6.874A44.147,44.147,0,0,0,92.2,52.349a5.078,5.078,0,0,0-.119-9.858M77.74,22.024a5.05,5.05,0,0,0,2.812-.851,41.913,41.913,0,0,1,9.25,21.3,5.086,5.086,0,0,0-3.246,2.351l-12.98-4.867c.01-.142.02-.286.02-.433a5.079,5.079,0,0,0-2.151-4.15l5.678-13.4a5.5,5.5,0,0,0,.616.041M75,21.216,69.354,34.523a5.026,5.026,0,0,0-5.594,3.23L40.279,32.344a4.941,4.941,0,0,0-.106-1.011l33.322-11.6A5.1,5.1,0,0,0,75,21.216M47.246,10.165a5.083,5.083,0,0,0,4.989-4.122,41.844,41.844,0,0,1,21.158,8.275,5.054,5.054,0,0,0-.735,2.625,5.335,5.335,0,0,0,.048.671L39.217,29.273a5.1,5.1,0,0,0-.92-.92l8.784-18.2c.056,0,.109.008.165.008M42.3,6.243A5.083,5.083,0,0,0,44.86,9.569L36.248,27.4a5.1,5.1,0,0,0-1.049-.109,5.045,5.045,0,0,0-2.9.91L22.1,19.678A5.052,5.052,0,0,0,21.923,15,41.877,41.877,0,0,1,42.3,6.243M10.041,46.332,31.153,35.442a5.064,5.064,0,0,0,4.006,2.014l7.236,23.129a5.166,5.166,0,0,0-1.12,1.239l-31.3-13.04a5.048,5.048,0,0,0,.187-1.348,5.107,5.107,0,0,0-.124-1.1m4.986-24.391a5.079,5.079,0,0,0,5.673-.484l10.079,8.417a5.068,5.068,0,0,0-.56,3.512L9.07,44.29A5.081,5.081,0,0,0,6.38,42.526a41.859,41.859,0,0,1,8.647-20.585m2.1,50.717a5.067,5.067,0,0,0-2.523.674A41.822,41.822,0,0,1,6.263,52.374,5.087,5.087,0,0,0,8.9,50.783l31.609,13.17a5.45,5.45,0,0,0-.041.611,5.081,5.081,0,0,0,.3,1.718L21.657,75.44a5.081,5.081,0,0,0-4.528-2.782M42.349,89.575a41.919,41.919,0,0,1-20.912-9.149,5.029,5.029,0,0,0,.775-2.686l0-.058L42,68.2A5.082,5.082,0,0,0,43.8,69.329l1.186,17.043a5.082,5.082,0,0,0-2.632,3.2m2.105-29.97-7.081-22.64a5.089,5.089,0,0,0,2.415-2.415L63.459,40a5.052,5.052,0,0,0,.808,2.311L48.032,60.13a5.019,5.019,0,0,0-3.577-.524m7.74,30.167a5.081,5.081,0,0,0-4.948-3.937l-.038,0L46.081,69.62a5.073,5.073,0,0,0,3.106-1.507L72.853,78.551c0,.046-.008.086-.008.132a5.057,5.057,0,0,0,.752,2.65,41.841,41.841,0,0,1-21.4,8.439M73.423,76.334,50.373,66.165a5.052,5.052,0,0,0-.666-4.52L65.893,43.877a5.052,5.052,0,0,0,2.622.735,5.594,5.594,0,0,0,.623-.041l6.05,29.836a5.071,5.071,0,0,0-1.766,1.928m7.292-1.9a5.051,5.051,0,0,0-3.377-.8L71.285,43.788a5.1,5.1,0,0,0,1.6-1.672L85.858,46.98a4.506,4.506,0,0,0-.023.456,5.08,5.08,0,0,0,4.084,4.981,41.876,41.876,0,0,1-9.2,22.017" transform="translate(0 0.001)" fill="#1e535a"/>
        </g>
      </g>
    </g>
    <g id="Elipse_13614" data-name="Elipse 13614" transform="translate(1497.965 8579)" fill="#d5f4f8" stroke="#1e535a" stroke-width="3">
      <ellipse cx="31.232" cy="31.233" rx="31.232" ry="31.233" stroke="none"/>
      <ellipse cx="31.232" cy="31.233" rx="29.732" ry="29.733" fill="none"/>
    </g>
    <g id="Grupo_1211080" data-name="Grupo 1211080" transform="translate(1511.965 8592)">
      <g id="Grupo_1211079" data-name="Grupo 1211079" clip-path="url(#clip-path-2)">
        <path id="Trazado_1273621" data-name="Trazado 1273621" d="M52.807,138.007a3.193,3.193,0,0,0,2.256-.076,4.83,4.83,0,0,0,3-2.529c.456-1.175.047-2.778,1.613-3.344l6.467,6.44c.676.342,1.849,1.235,1.856,2.057a1.18,1.18,0,0,1-1.737,1.077L62.3,137.676c-.573-.355-1.031.18-.763.763l3.415,3.526c.937,1.329-.675,2.575-1.847,1.522l-3.691-3.793c-.585-.421-1.131.117-.759.759l3.531,3.735a1.193,1.193,0,0,1-1.845,1.411c-.829-.547-3.824-4.33-4.46-4.417-.53-.073-.741.483-.481.9l3.485,3.674a.866.866,0,0,1-1.345,1.02c-2.5-2.268-4.734-5.183-7.23-7.413a19.14,19.14,0,0,0-2.7-1.968l3.145-9.248a12.993,12.993,0,0,0,4.22.209c-.408.618-1.206,1.105-1.627,1.68a5.9,5.9,0,0,0-.543,1.084Z" transform="translate(-41.201 -110.892)" fill="#1e535a"/>
        <path id="Trazado_1273622" data-name="Trazado 1273622" d="M94.259,119.944a2.756,2.756,0,0,1,.54-.87,26.283,26.283,0,0,1,4.353-3.782c2.421-1.085,5.342,1.01,7.834,1.036l.127.09,3.312,9.482a3.241,3.241,0,0,1-2.863.589l-7.17-7.039c-.658-.429-1.848.862-2.21,1.381-.681.977-.424,1.712-.775,2.7a3.692,3.692,0,0,1-3.149,2.111Z" transform="translate(-81.568 -99.5)" fill="#1e535a"/>
        <path id="Trazado_1273623" data-name="Trazado 1273623" d="M0,100.9c.063-.2,1.6-.359,1.9-.379a16.572,16.572,0,0,1,5.37.594c.318.091,1.753.548,1.829.78L4.915,114.375c-.026.116-.352.243-.414.243H.163L0,114.456Z" transform="translate(0 -86.962)" fill="#1e535a"/>
        <path id="Trazado_1273624" data-name="Trazado 1273624" d="M198.853,114.618c-.1-.014-.372-.12-.414-.243l-4.183-12.483a6.935,6.935,0,0,1,1.916-.8,16.409,16.409,0,0,1,5.282-.573,5.373,5.373,0,0,1,1.9.379v13.558l-.163.163c-1.341-.139-3.046.187-4.339,0" transform="translate(-168.103 -86.961)" fill="#1e535a"/>
        <path id="Trazado_1273625" data-name="Trazado 1273625" d="M104.718,65.447H95.064V62.464a6.731,6.731,0,0,1,.712-1.674c.175-.247,1.146-1.2,1.405-1.2a4.132,4.132,0,0,0,4.9.349c.221-.114.343-.394.6-.332a5.775,5.775,0,0,1,1.322,1.185,6.731,6.731,0,0,1,.712,1.674Z" transform="translate(-82.265 -51.565)" fill="#1e535a"/>
        <path id="Trazado_1273626" data-name="Trazado 1273626" d="M35.448,49.727v-3.2A4.611,4.611,0,0,1,37.5,43.8a4.262,4.262,0,0,0,4.264.691c.48-.187.8-.545,1.274-.678.567.417,1.19.781,1.4,1.507A5.284,5.284,0,0,0,42.552,48.1a7.325,7.325,0,0,1-.325,1.628Z" transform="translate(-30.675 -37.906)" fill="#1e535a"/>
        <path id="Trazado_1273627" data-name="Trazado 1273627" d="M168.564,49.727h-6.779l-.146-.179a5.194,5.194,0,0,0-2.07-4.224c.212-.725.836-1.089,1.4-1.507.476.133.794.491,1.274.678a4.238,4.238,0,0,0,4.264-.691,4.611,4.611,0,0,1,2.056,2.723Z" transform="translate(-138.084 -37.906)" fill="#1e535a"/>
        <path id="Trazado_1273628" data-name="Trazado 1273628" d="M52.206.1c3.775-.348,4.247,5.235.827,5.71A2.889,2.889,0,1,1,52.206.1" transform="translate(-42.901 -0.073)" fill="#1e535a"/>
        <path id="Trazado_1273629" data-name="Trazado 1273629" d="M171.883.024c3.774-.445,4.374,5.238.938,5.712a2.9,2.9,0,1,1-.938-5.712" transform="translate(-146.527 0)" fill="#1e535a"/>
        <path id="Trazado_1273630" data-name="Trazado 1273630" d="M112,16.046c4.056-.586,4.62,5.333.828,5.709-3.812.377-4.322-5.2-.828-5.709" transform="translate(-94.89 -13.85)" fill="#1e535a"/>
      </g>
    </g>
  </g>
</svg>
