<svg id="Grupo_1210197" data-name="Grupo 1210197" xmlns="http://www.w3.org/2000/svg" xmlns:xlink="http://www.w3.org/1999/xlink" width="128" height="128" viewBox="0 0 128 128">
  <defs>
    <clipPath id="clip-path">
      <rect id="Rectángulo_454829" data-name="Rectángulo 454829" width="128" height="128" fill="#1e535a"/>
    </clipPath>
    <clipPath id="clip-path-2">
      <rect id="Rectángulo_460147" data-name="Rectángulo 460147" width="37.391" height="50" fill="#1e535a"/>
    </clipPath>
  </defs>
  <g id="Grupo_1177591" data-name="Grupo 1177591">
    <g id="Grupo_1177589" data-name="Grupo 1177589" transform="translate(0 0)">
      <g id="Grupo_1177587" data-name="Grupo 1177587" clip-path="url(#clip-path)">
        <path id="Trazado_997422" data-name="Trazado 997422" d="M122.774,56.654a58.848,58.848,0,0,0-13.293-30.623,6.768,6.768,0,0,0-9.523-9.118A58.761,58.761,0,0,0,69.535,5.027a6.769,6.769,0,0,0-13.148.267A58.842,58.842,0,0,0,27.2,17.772a6.771,6.771,0,0,0-9.4,9.462A58.794,58.794,0,0,0,5.483,56.6a6.774,6.774,0,0,0-.162,13.266A58.776,58.776,0,0,0,17.252,99.82a6.771,6.771,0,0,0,9.2,9.56,58.838,58.838,0,0,0,29.883,13.07,6.771,6.771,0,0,0,13.266.267,58.788,58.788,0,0,0,30.646-12.107,6.769,6.769,0,0,0,9.476-9.165A58.863,58.863,0,0,0,122.933,69.8a6.771,6.771,0,0,0-.159-13.144m-19.12-27.288a6.733,6.733,0,0,0,3.75-1.135,55.884,55.884,0,0,1,12.333,28.407,6.781,6.781,0,0,0-4.327,3.135L98.1,53.283c.013-.189.027-.382.027-.578a6.772,6.772,0,0,0-2.868-5.533l7.57-17.86a7.335,7.335,0,0,0,.821.054M100,28.288,92.472,46.03a6.7,6.7,0,0,0-7.459,4.307L53.705,43.125a6.588,6.588,0,0,0-.142-1.348L97.992,26.305a6.793,6.793,0,0,0,2,1.983M63,13.553a6.777,6.777,0,0,0,6.651-5.5A55.792,55.792,0,0,1,97.857,19.09a6.739,6.739,0,0,0-.98,3.5,7.114,7.114,0,0,0,.064.9L52.29,39.031A6.8,6.8,0,0,0,51.064,37.8L62.775,13.543c.074,0,.145.01.22.01M56.4,8.324a6.778,6.778,0,0,0,3.409,4.435L48.331,36.538a6.8,6.8,0,0,0-1.4-.145,6.727,6.727,0,0,0-3.861,1.213L29.461,26.238A6.736,6.736,0,0,0,29.231,20,55.836,55.836,0,0,1,56.4,8.324M13.387,61.776l28.15-14.519a6.751,6.751,0,0,0,5.341,2.686l9.648,30.839a6.887,6.887,0,0,0-1.493,1.652L13.3,65.046a6.731,6.731,0,0,0,.25-1.8,6.81,6.81,0,0,0-.166-1.473m6.648-32.521a6.771,6.771,0,0,0,7.564-.645L41.037,39.831a6.758,6.758,0,0,0-.747,4.682l-28.2,14.539A6.774,6.774,0,0,0,8.506,56.7,55.812,55.812,0,0,1,20.036,29.254m2.8,67.623a6.756,6.756,0,0,0-3.365.9A55.762,55.762,0,0,1,8.351,69.832a6.783,6.783,0,0,0,3.517-2.121L54.013,85.27a7.266,7.266,0,0,0-.054.814,6.775,6.775,0,0,0,.405,2.29L28.876,100.587a6.775,6.775,0,0,0-6.037-3.709m33.626,22.556a55.892,55.892,0,0,1-27.883-12.2,6.705,6.705,0,0,0,1.034-3.581l0-.078L56,90.929a6.776,6.776,0,0,0,2.392,1.51l1.581,22.725a6.776,6.776,0,0,0-3.51,4.27m2.807-39.96L49.831,49.287a6.786,6.786,0,0,0,3.219-3.219l31.562,7.266a6.736,6.736,0,0,0,1.078,3.081L64.042,80.173a6.692,6.692,0,0,0-4.77-.7M69.592,119.7a6.774,6.774,0,0,0-6.6-5.25l-.051,0-1.5-21.623a6.764,6.764,0,0,0,4.142-2.01l31.555,13.918c0,.061-.01.115-.01.176a6.743,6.743,0,0,0,1,3.534A55.789,55.789,0,0,1,69.592,119.7M97.9,101.779,67.164,88.22a6.736,6.736,0,0,0-.888-6.027L87.858,58.5a6.736,6.736,0,0,0,3.5.98,7.46,7.46,0,0,0,.831-.054l8.067,39.781a6.761,6.761,0,0,0-2.355,2.571m9.722-2.534a6.735,6.735,0,0,0-4.5-1.064l-8.07-39.8a6.8,6.8,0,0,0,2.135-2.23l17.3,6.486a6.009,6.009,0,0,0-.03.608,6.774,6.774,0,0,0,5.445,6.641A55.835,55.835,0,0,1,107.62,99.246" transform="translate(0 0.001)" fill="#1e535a"/>
      </g>
    </g>
  </g>
  <g id="Elipse_13614" data-name="Elipse 13614" transform="translate(24.172 24.268)" fill="#fff" stroke="#1e535a" stroke-width="3">
    <ellipse cx="39.732" cy="39.733" rx="39.732" ry="39.733" stroke="none"/>
    <ellipse cx="39.732" cy="39.733" rx="38.232" ry="38.233" fill="none"/>
  </g>
  <g id="Grupo_1210207" data-name="Grupo 1210207" transform="translate(45.172 38.359)">
    <g id="Grupo_1210206" data-name="Grupo 1210206" clip-path="url(#clip-path-2)">
      <path id="Trazado_1272000" data-name="Trazado 1272000" d="M37.369,39.117H27.42a2.573,2.573,0,0,0-.93,1.074V50H3.943C2.308,50,.056,47.748.005,46.06L0,4.109A4.65,4.65,0,0,1,3.156.251c9.9-.5,19.911-.069,29.852-.221,1.631-.145,4.361,2.064,4.361,3.656ZM19.855,3.664A1.549,1.549,0,0,0,17.171,4.89a7.719,7.719,0,0,0-5.48,4.183c-.2.408-.475,1.535-.591,1.7-.272.381-1.728.166-1.8,1.649-.077,1.644,1.566,1.486,1.742,1.733s.409,1.321.626,1.777a8.167,8.167,0,0,0,3.556,3.6c.408.2,1.712.53,1.82.614.205.159.115.564.205.8a1.57,1.57,0,0,0,1.9.887c1.2-.411.912-1.477,1.179-1.684.124-.1,1.018-.255,1.33-.388a8.094,8.094,0,0,0,4.047-3.827c.217-.458.441-1.516.626-1.777.159-.224,1.74-.1,1.735-1.592,0-1.6-1.5-1.376-1.791-1.789-.117-.163-.394-1.291-.591-1.7A7.731,7.731,0,0,0,20.2,4.889a1.535,1.535,0,0,0-.35-1.225M7.265,25.118a1.549,1.549,0,0,0-.208,2.867h23.26a1.552,1.552,0,0,0,0-2.789Zm.29,6.16A1.567,1.567,0,0,0,7.661,34.4l16.333-.136a1.569,1.569,0,0,0-.121-2.907Zm-.29,6.295c-1.8.879-1.242,2.913.685,3.12,4.357-.318,9.313.425,13.6,0,2.144-.213,2.5-2.4.566-3.139Z" transform="translate(0 0)" fill="#1e535a"/>
      <path id="Trazado_1272001" data-name="Trazado 1272001" d="M213.915,294.246a1.33,1.33,0,0,1-.426,1.22c-.653.837-6.145,6.268-6.8,6.516a1.4,1.4,0,0,1-.65.137v-7.659l.215-.215Z" transform="translate(-176.546 -252.124)" fill="#1e535a"/>
      <path id="Trazado_1272002" data-name="Trazado 1272002" d="M103.041,56.906c.047.034.055.365.26.567a1.664,1.664,0,0,0,2.225,0c.4-.392-.022-.809.925-.47.688.246,2.659,2.131,2.263,2.752-.127.2-.65.313-.828.754a1.523,1.523,0,0,0,.873,2.133c-.162,1.35-1.485,2.4-2.655,2.967l-.188-.045a1.611,1.611,0,0,0-3.006,0c-.53.339-3.111-2.056-2.843-2.922a1.57,1.57,0,0,0,.873-2.133c-.233-.572-1.042-.548-.834-1.186.219-.672,2.254-2.916,2.935-2.417" transform="translate(-85.726 -48.698)" fill="#1e535a"/>
    </g>
  </g>
</svg>
