<svg xmlns="http://www.w3.org/2000/svg" xmlns:xlink="http://www.w3.org/1999/xlink" width="85" height="85" viewBox="0 0 85 85">
  <defs>
    <clipPath id="clip-path">
      <rect id="Rectángulo_460993" data-name="Rectángulo 460993" width="69.5" height="69.453" fill="#344866"/>
    </clipPath>
  </defs>
  <g id="Grupo_1211564" data-name="Grupo 1211564" transform="translate(0.578 0.031)">
    <path id="Sustracción_110" data-name="Sustracción 110" d="M0,0H85V85H0Z" transform="translate(-0.578 -0.031)" fill="#69d7e5"/>
    <g id="Grupo_1211566" data-name="Grupo 1211566" transform="translate(7.422 7.97)">
      <g id="Grupo_1211565" data-name="Grupo 1211565" clip-path="url(#clip-path)">
        <path id="Trazado_1274933" data-name="Trazado 1274933" d="M41.578,47.836,40.872,45.7a1.846,1.846,0,0,1,.382-1.843l2.619-2.623a1.936,1.936,0,0,1,1.653-.416l2.283.743,1.5-.623L50.4,38.78a1.969,1.969,0,0,1,1.327-.835l3.867-.006a1.871,1.871,0,0,1,1.564,1.045L58.1,40.9l1.524.67,2.18-.761,1.458.158V10.462l-46.863,0a1.147,1.147,0,0,1-1.1-.834,1.089,1.089,0,0,1,.927-1.211l47.007,0,.029-4.642A1.773,1.773,0,0,0,61.476,2H3.833a1.727,1.727,0,0,0-1.8,1.6L2,8.407l9.7.014c.345,0,.807.555.877.855.078.337-.32,1.163-.745,1.164l-9.824.037.006,42.631a1.789,1.789,0,0,0,1.953,1.709L15.339,54.8a1.1,1.1,0,0,1,1.188.861,1.037,1.037,0,0,1-1.071,1.192L3.5,56.819A3.652,3.652,0,0,1,0,53.136L.005,3.609A3.671,3.671,0,0,1,3.806,0L61.883.019a3.705,3.705,0,0,1,3.408,3.769L65.3,43.07c.7.5,1.578,1.339,1.365,2.069L65.895,47.8l.547,1.448,2.124,1.093a1.941,1.941,0,0,1,.934,1.584l0,3.663a1.907,1.907,0,0,1-.852,1.449l-2.157,1.1-.613,1.55.745,2.181a1.933,1.933,0,0,1-.325,1.579l-3.07,3.008c-.894.876-2.769-.945-4.314-.341-1.624.636-1.6,3.324-2.956,3.326l-4.381.006c-1.473,0-1.474-2.7-2.973-3.316-1.873-.773-3.17,1.662-5.024-.216L41.3,63.612a1.881,1.881,0,0,1-.455-1.826l.729-2.189-.666-1.516-2.486-1.23H20.385a1.148,1.148,0,0,1-1.086-.818c-.1-.438.279-1.219.842-1.219l17.787-.007.035-3.071a1.847,1.847,0,0,1,1.1-1.5l1.878-.937ZM55.393,67.465c1.046-2.7,1.587-2.834,4.159-3.732l2.768.843,2.266-2.269L63.8,59.678c-.08-.266.765-2.864,1.674-3.323l2.018-1.019-.03-3.291A15.93,15.93,0,0,1,64.948,50.7c-1.327-2.422-1.428-2.947-.346-5.5l-2.34-2.363c-.832.226-1.814.842-2.738.743a6.081,6.081,0,0,1-2.768-1.156c-.685-.571-.937-1.65-1.39-2.431L52.033,40c-.98,2.566-1.617,2.894-4.236,3.678l-2.61-.837-2.342,2.337.823,2.613c-.747,2.6-1.1,3.274-3.677,4.233l-.021,3.292,2.523,1.336c1.187,2.448,1.535,2.932.331,5.564l2.344,2.355,2.784-.86,2.791,1.2,1.322,2.552Z" transform="translate(0 0)" fill="#344866"/>
        <path id="Trazado_1274934" data-name="Trazado 1274934" d="M159.88,98.956a2.313,2.313,0,0,1-2.177,2.222l-5.8.02a1.388,1.388,0,0,1,.436,1.668,1.074,1.074,0,0,1-1.53.2l-2.148-2.12a1.193,1.193,0,0,1-.034-1.435l2.25-2.228a1.061,1.061,0,0,1,1.493.281c.229.5.088.988-.469,1.591l5.927,0,.086-4.4a2.283,2.283,0,0,1,2.17-1.886l5.122-.043.008-4.236-5.379-.015a2.967,2.967,0,0,1-2.89-2.575V76.44a2.972,2.972,0,0,1,2.883-2.57l5.047-.016a1.155,1.155,0,0,1,1.054.886,1.08,1.08,0,0,1-1.056,1.171l-5.452.041A2.052,2.052,0,0,0,159,78.1l12.5,0a5.382,5.382,0,0,0-.086-1.715c-.185-.79-1.962-.134-2.571-.835a1.247,1.247,0,0,1-.06-1.225,1.766,1.766,0,0,1,1.222-.495,3.227,3.227,0,0,1,3.6,3.2l-.017,8.572a3.053,3.053,0,0,1-2.95,2.95l-3.38.038-.064,4.366c-.017,1.153-1.344,1.918-2.335,1.921l-4.926.015Zm10.635-12.378a1.156,1.156,0,0,0,1.035-1.028l-.013-5.411-12.641.006,0,5.261a1.176,1.176,0,0,0,1.18,1.164Z" transform="translate(-118.852 -59.123)" fill="#344866"/>
        <path id="Trazado_1274935" data-name="Trazado 1274935" d="M75.871,82.079a1.132,1.132,0,0,1-1.649.077,1.392,1.392,0,0,1,.24-1.727L69.6,80.4l.007,5.292a3.081,3.081,0,0,1-2.977,3.135l-10.56.024a3.139,3.139,0,0,1-3.186-2.979l0-8.8A3.023,3.023,0,0,1,55.7,74.155l11.128.024c2.073,0,3.14,2.179,2.718,4.166l4.93.016A1.532,1.532,0,0,1,74.2,76.6a1.1,1.1,0,0,1,1.642.038l2.019,2.042a1.2,1.2,0,0,1-.019,1.4Zm-8.4-3.718c.321-.578.186-1.928-.52-2.151L55.459,76.2a2.158,2.158,0,0,0-.482,2.158Zm-.936,8.482a1.222,1.222,0,0,0,1.07-1.173l-.026-5.265-12.667,0,0,5.261a1.169,1.169,0,0,0,1.19,1.165Z" transform="translate(-42.354 -59.388)" fill="#344866"/>
        <path id="Trazado_1274936" data-name="Trazado 1274936" d="M66.824,194.739l-11.171.006a3.286,3.286,0,0,1-2.834-2.766v-9.167a3.058,3.058,0,0,1,2.823-2.759l10.94-.005a3.036,3.036,0,0,1,2.978,3.152l0,8.383a3.134,3.134,0,0,1-2.73,3.156m.7-10.521c.156-1.406-.087-1.775-.809-2.178l-11.159.07c-.787,0-.875,1.531-.617,2.12Zm-.914,8.432a1.092,1.092,0,0,0,.922-.886l.008-5.5H54.86l-.007,5.506a1.19,1.19,0,0,0,.964.885Z" transform="translate(-42.3 -144.195)" fill="#344866"/>
        <path id="Trazado_1274937" data-name="Trazado 1274937" d="M256.09,22.133a1.017,1.017,0,1,1-1.018-1.018,1.018,1.018,0,0,1,1.018,1.018" transform="translate(-203.465 -16.91)" fill="#344866"/>
        <path id="Trazado_1274938" data-name="Trazado 1274938" d="M277.284,22.137a1.016,1.016,0,1,1-1.016-1.016,1.016,1.016,0,0,1,1.016,1.016" transform="translate(-220.44 -16.915)" fill="#344866"/>
        <path id="Trazado_1274939" data-name="Trazado 1274939" d="M298.46,22.128a1.013,1.013,0,1,1-1.013-1.013,1.013,1.013,0,0,1,1.013,1.013" transform="translate(-237.405 -16.91)" fill="#344866"/>
        <path id="Trazado_1274940" data-name="Trazado 1274940" d="M247.584,240.211a7.34,7.34,0,1,1-7.339-7.34,7.34,7.34,0,0,1,7.339,7.34m-2.1,1.077a5.338,5.338,0,1,0-10.471,0Zm-1.121,2.078-8.338-.01a5.035,5.035,0,0,0,4.177,2.154,4.629,4.629,0,0,0,4.162-2.144" transform="translate(-186.526 -186.499)" fill="#344866"/>
      </g>
    </g>
  </g>
</svg>
