<svg xmlns="http://www.w3.org/2000/svg" xmlns:xlink="http://www.w3.org/1999/xlink" width="279.462" height="234" viewBox="0 0 279.462 234">
  <defs>
    <clipPath id="clip-path">
      <rect id="Rectángulo_460228" data-name="Rectángulo 460228" width="279.462" height="234" fill="none"/>
    </clipPath>
  </defs>
  <g id="Grupo_1210268" data-name="Grupo 1210268" transform="translate(0 0)">
    <g id="Grupo_1210267" data-name="Grupo 1210267" transform="translate(0 0)" clip-path="url(#clip-path)">
      <path id="Trazado_1272227" data-name="Trazado 1272227" d="M241.649,221.155a42.268,42.268,0,0,0,14.972-10.97c29.03-34.4,33.722-110.426-5.542-138.734C214.8,45.3,169.124,57.539,129.215,45.867c-10.851-3.173-20.844-9.618-31.282-14.029-10.146-4.289-21.1-8.816-32.169-6.818C44,28.949,25.807,44.493,15.267,65.426,3.58,88.635-1.93,117.958.607,144.855c3.479,36.9,20.288,49.684,44.7,70.61,27.59,23.65,63.672,24.343,97.036,21.125,30.859-2.977,70.6-2.26,99.308-15.436" transform="translate(0 -15.663)" fill="#ffe79e"/>
      <path id="Trazado_1272228" data-name="Trazado 1272228" d="M62.354,203.48H279.848a3.649,3.649,0,0,1,3.636,3.662V352.59a3.649,3.649,0,0,1-3.636,3.662H62.354a3.649,3.649,0,0,1-3.636-3.662V207.142a3.649,3.649,0,0,1,3.636-3.662" transform="translate(-45.1 -129.91)" fill="#6b6b82"/>
      <path id="Trazado_1272229" data-name="Trazado 1272229" d="M285.458,354.528V214.142a3.649,3.649,0,0,0-3.636-3.662H69.354a3.649,3.649,0,0,0-3.636,3.662V354.528a3.649,3.649,0,0,0,3.636,3.662H281.822a3.649,3.649,0,0,0,3.636-3.662" transform="translate(-49.587 -134.38)" fill="#cfe8ff"/>
      <path id="Trazado_1272230" data-name="Trazado 1272230" d="M20.783,626.02h252a7.631,7.631,0,0,1-7.6,7.658H28.387a7.631,7.631,0,0,1-7.6-7.658" transform="translate(-20.783 -399.678)" fill="#6b6b82"/>
      <path id="Trazado_1272231" data-name="Trazado 1272231" d="M452.97,361.606H345.654a3.905,3.905,0,0,0-3.891,3.919v79.7a3.9,3.9,0,0,0,3.891,3.919H452.97a3.9,3.9,0,0,0,3.891-3.919v-79.7a3.905,3.905,0,0,0-3.891-3.919" transform="translate(-320.085 -230.865)" fill="#fff"/>
      <path id="Trazado_1272232" data-name="Trazado 1272232" d="M358.588,403.665H459.537a1.62,1.62,0,0,0,1.614-1.626V374.063a1.62,1.62,0,0,0-1.614-1.626H358.588a1.62,1.62,0,0,0-1.614,1.626v27.976a1.62,1.62,0,0,0,1.614,1.626" transform="translate(-329.836 -237.78)" fill="#f2f0f7"/>
      <path id="Trazado_1272233" data-name="Trazado 1272233" d="M555.974,512h30.091a1.62,1.62,0,0,0,1.614-1.626V467.824a1.62,1.62,0,0,0-1.614-1.626H555.974a1.62,1.62,0,0,0-1.614,1.626v42.554A1.62,1.62,0,0,0,555.974,512" transform="translate(-527.222 -297.641)" fill="#f2f0f7"/>
      <path id="Trazado_1272234" data-name="Trazado 1272234" d="M358.588,512H423.83a1.62,1.62,0,0,0,1.614-1.626V467.824a1.62,1.62,0,0,0-1.614-1.626H358.588a1.62,1.62,0,0,0-1.614,1.626v42.554A1.62,1.62,0,0,0,358.588,512" transform="translate(-294.129 -297.641)" fill="#f2f0f7"/>
      <path id="Trazado_1272235" data-name="Trazado 1272235" d="M562.513,611.782c.092-.965.113-5.97-1.237-8.063h-7.044c-2.448,3.648-15.6,6.312-12.945,8.063Z" transform="translate(-497.272 -385.441)" fill="#3b3638"/>
      <path id="Trazado_1272236" data-name="Trazado 1272236" d="M377.678,611.782c-.091-.965-.113-5.97,1.237-8.063h7.043c2.449,3.648,15.6,6.312,12.945,8.063Z" transform="translate(-275.36 -385.441)" fill="#3b3638"/>
      <path id="Trazado_1272237" data-name="Trazado 1272237" d="M320.833,139.324l2.8,20.183,17.324,1.028v5.552l-29.02,8.957Z" transform="translate(-193.473 -88.951)" fill="#a4e7f0"/>
      <path id="Trazado_1272238" data-name="Trazado 1272238" d="M442.226,395.047c1.362-13.592,5.372-53.333,6.724-63.629,2.267-17.26.986-54.416.986-54.416l-34.8-.622s-16.526,67.59-19.467,75.041c-2.294,5.816-11.67,31.905-13.36,43.092a19.91,19.91,0,0,0,12.576.51c2.881-6.547,13.234-23.972,16.536-35.364l15.666-38.013c.52,6.925.238,13.595.273,15.276.13,6.213-2.595,34.2,1.571,58.871a25.032,25.032,0,0,0,13.3-.747" transform="translate(-328.075 -176.453)" fill="#b6b6ce"/>
      <path id="Trazado_1272239" data-name="Trazado 1272239" d="M414.755,116.376a14.418,14.418,0,0,0-10.671-11.963l-4.032-1.033h-14.8l-4.445,1.477a15.064,15.064,0,0,0-10.278,14.09c-.25,16.873-.926,48.225-2.538,53.125,0,0,29.182,6.119,43.911,0Z" transform="translate(-287.394 -66.002)" fill="#a4e7f0"/>
      <path id="Trazado_1272240" data-name="Trazado 1272240" d="M382.318,24.795c0,2.481,2.62,4.492,5.852,4.492s5.852-2.011,5.852-4.492S391.4,20.3,388.17,20.3s-5.852,2.011-5.852,4.492" transform="translate(-271.805 -12.962)" fill="#97614c"/>
      <path id="Trazado_1272241" data-name="Trazado 1272241" d="M429.668,47.986a6.01,6.01,0,1,0,6.01-6.053,6.032,6.032,0,0,0-6.01,6.053" transform="translate(-336.469 -26.772)" fill="#97614c"/>
      <path id="Trazado_1272242" data-name="Trazado 1272242" d="M411.6,65.831s.7,10.837-2.649,13.576c0,0,8.716,5.2,14.8,0l-.3-5.3Z" transform="translate(-311.092 -42.029)" fill="#f59976"/>
      <path id="Trazado_1272243" data-name="Trazado 1272243" d="M409.464,30.5c.372,7.7-1.8,13.458-6.884,14.093-6.138.767-13.144-5.391-13.516-13.094s3.987-13.263,9.621-13.538c4.659-.228,8.731,3.229,10.21,8.79a17.963,17.963,0,0,1,.569,3.749" transform="translate(-289.701 -11.458)" fill="#f59976"/>
      <path id="Trazado_1272244" data-name="Trazado 1272244" d="M429.741,27.659c-.871,2.958,1.536,6.285,5.376,7.433s7.66-.319,8.532-3.276-1.536-6.285-5.376-7.433-7.66.319-8.532,3.276" transform="translate(-338.57 -15.318)" fill="#97614c"/>
      <path id="Trazado_1272245" data-name="Trazado 1272245" d="M443.374,54.372c.6,1.77.041,3.56-1.24,4s-2.8-.643-3.4-2.413-.041-3.56,1.24-4,2.8.643,3.4,2.413" transform="translate(-341.564 -33.111)" fill="#f59976"/>
      <path id="Trazado_1272246" data-name="Trazado 1272246" d="M415.7,46.971c.119.533,1.159.753,2.324.491s2.014-.907,1.9-1.441-1.159-.753-2.324-.491-2.014.907-1.9,1.441" transform="translate(-309.686 -28.998)" fill="#97614c"/>
      <path id="Trazado_1272247" data-name="Trazado 1272247" d="M415.7,55.884c.148.667.611,1.13,1.035,1.035s.648-.713.5-1.38-.611-1.13-1.035-1.035-.647.713-.5,1.38" transform="translate(-307.028 -34.79)" fill="#3b3638"/>
      <path id="Trazado_1272248" data-name="Trazado 1272248" d="M418.19,54.9c-.8-.793-1.229-1.145-2.162-.269-.242.215-.477.46-.72.7a.087.087,0,0,1-.144-.087c.295-1.037,1.629-2.458,2.617-1.384.171.185.855,1.23.408,1.038" transform="translate(-307.912 -34.142)" fill="#3b3638"/>
      <path id="Trazado_1272249" data-name="Trazado 1272249" d="M392.026,41.4c.119.534,1.159.753,2.324.491s2.014-.907,1.9-1.44-1.159-.753-2.324-.491-2.014.908-1.9,1.441" transform="translate(-277.521 -25.441)" fill="#97614c"/>
      <path id="Trazado_1272250" data-name="Trazado 1272250" d="M392.03,50.313c.148.667.611,1.13,1.035,1.035s.648-.713.5-1.38-.611-1.13-1.035-1.035-.647.713-.5,1.38" transform="translate(-274.863 -31.233)" fill="#3b3638"/>
      <path id="Trazado_1272251" data-name="Trazado 1272251" d="M394.524,49.331c-.8-.793-1.229-1.145-2.162-.269-.242.215-.477.46-.72.7a.087.087,0,0,1-.144-.088c.295-1.037,1.62-2.45,2.617-1.384.162.173.855,1.23.408,1.038" transform="translate(-275.749 -30.59)" fill="#3b3638"/>
      <path id="Trazado_1272252" data-name="Trazado 1272252" d="M399,73.326a2.884,2.884,0,0,0,3.273-.117,3.407,3.407,0,0,1,.542-.275.123.123,0,0,1,.16.072,2.2,2.2,0,0,1-3.8,1.015,1.888,1.888,0,0,1-.353-.547.121.121,0,0,1,.064-.157.123.123,0,0,1,.111.009" transform="translate(-286.68 -46.559)" fill="#db6f42"/>
      <path id="Trazado_1272253" data-name="Trazado 1272253" d="M401.959,50.908l1.891,5.185c.481,1.015-2.123,1.5-2.508.475-.074-.2.414-5.461.392-5.641.006-.114.19-.129.225-.018" transform="translate(-288.518 -32.454)" fill="#db6f42"/>
      <path id="Trazado_1272254" data-name="Trazado 1272254" d="M389.608,8.87a3.564,3.564,0,0,1,2.59-3.434c.2-2.49,2.6-4.459,5.537-4.459a6.2,6.2,0,0,1,2.828.672c1.908-2.148,5.922-2.228,9.4-.057,3.77,2.353,5.478,6.453,3.814,9.157s-6.07,2.989-9.84.636c-.212-.133-.415-.272-.614-.415.078,1.749-.967,4.221-7.717,3.792-2.805-.178-3.814-1.255-3.725-2.564a3.567,3.567,0,0,1-2.273-3.329" transform="translate(-294.815 0)" fill="#97614c"/>
      <path id="Trazado_1272255" data-name="Trazado 1272255" d="M419.622,84.69a.169.169,0,0,0,.007-.338,12.572,12.572,0,0,1-8.137-3.9.167.167,0,0,0-.236-.017.17.17,0,0,0-.017.239,12.929,12.929,0,0,0,8.375,4.018h.007" transform="translate(-307.94 -51.326)" fill="#db6f42"/>
      <path id="Trazado_1272256" data-name="Trazado 1272256" d="M146.712,50.509h41.509A6.3,6.3,0,0,1,194.5,56.83V82.959a6.3,6.3,0,0,1-6.276,6.321H162.957c-5,4.63-13.083,11.914-13.083,11.914l3.687-11.914h-6.849a6.3,6.3,0,0,1-6.276-6.321V56.83a6.3,6.3,0,0,1,6.276-6.321" transform="translate(14.551 -32.247)" fill="#fff"/>
      <path id="Trazado_1272257" data-name="Trazado 1272257" d="M168.562,93.806h33.68a1.191,1.191,0,0,0,1.187-1.2V70a1.191,1.191,0,0,0-1.187-1.2h-33.68a1.191,1.191,0,0,0-1.187,1.2V92.61a1.191,1.191,0,0,0,1.187,1.2" transform="translate(-4.051 -43.925)" fill="#ffbd63"/>
      <path id="Trazado_1272258" data-name="Trazado 1272258" d="M187.462,85.888a1.913,1.913,0,0,0,1.221-.437l15.587-12.86a.182.182,0,0,0,.025-.255.179.179,0,0,0-.252-.025l-15.587,12.86a1.563,1.563,0,0,1-1.987,0l-15.586-12.86a.179.179,0,0,0-.253.025.182.182,0,0,0,.026.255l15.587,12.86a1.913,1.913,0,0,0,1.22.437" transform="translate(-6.111 -46.14)" fill="#3b3638"/>
      <path id="Trazado_1272259" data-name="Trazado 1272259" d="M184.494,118.5a.181.181,0,0,0,.1-.33l-13.644-9.463a.179.179,0,0,0-.25.046.181.181,0,0,0,.046.251l13.644,9.464a.178.178,0,0,0,.1.032" transform="translate(13.521 -69.382)" fill="#3b3638"/>
      <path id="Trazado_1272260" data-name="Trazado 1272260" d="M226.414,118.5a.175.175,0,0,0,.1-.032L240.16,109a.181.181,0,0,0,.046-.251.178.178,0,0,0-.249-.046l-13.645,9.463a.181.181,0,0,0,.1.33" transform="translate(-61.989 -69.381)" fill="#3b3638"/>
      <path id="Trazado_1272261" data-name="Trazado 1272261" d="M187.9,77.2a.18.18,0,0,0,.179-.181V56.444a6.42,6.42,0,0,0-6.389-6.435H140.116a.181.181,0,0,0,0,.362H181.69a6.059,6.059,0,0,1,6.031,6.074V77.015a.18.18,0,0,0,.18.181" transform="translate(21.148 -31.928)" fill="#3b3638"/>
      <path id="Trazado_1272262" data-name="Trazado 1272262" d="M263.883,162.165c2.3-.087,10.586-2.225,10.586-2.225s9.536-4.514,9.063-6.171c-.221-.774-6.047,1.743-7.126,2.28,0,0,.468-1.519-2.015-1.492a36.231,36.231,0,0,1-5.388-.333c-1.945-.315-6.3,2.973-6.3,2.973Z" transform="translate(-118.392 -98.078)" fill="#f59976"/>
      <path id="Trazado_1272263" data-name="Trazado 1272263" d="M366.018,158.114l-26.148,9.8L323.69,157.743l-9.032,11.706s22.89,13.3,26.8,12.037,25.908-15.753,25.908-15.753-.771-3.666-1.348-7.619" transform="translate(-220.86 -100.71)" fill="#a4e7f0"/>
      <path id="Trazado_1272264" data-name="Trazado 1272264" d="M135.74,218.382l18.714,18.848V359.313H71.633V218.382Z" transform="translate(79.293 -139.425)" fill="#fff"/>
      <path id="Trazado_1272265" data-name="Trazado 1272265" d="M71.313,237.092H90.026a.181.181,0,0,0,0-.362H71.492V218.063a.18.18,0,1,0-.359,0v18.848a.18.18,0,0,0,.179.181" transform="translate(143.721 -139.105)" fill="#3b3638"/>
      <rect id="Rectángulo_460216" data-name="Rectángulo 460216" width="9.168" height="36.735" transform="translate(217.892 176.822)" fill="#69d7e5"/>
      <rect id="Rectángulo_460217" data-name="Rectángulo 460217" width="9.168" height="12.847" transform="translate(217.892 176.822)" fill="#ffd453"/>
      <rect id="Rectángulo_460218" data-name="Rectángulo 460218" width="9.168" height="33.387" transform="translate(202.745 180.17)" fill="#69d7e5"/>
      <rect id="Rectángulo_460219" data-name="Rectángulo 460219" width="9.168" height="11.676" transform="translate(202.745 180.17)" fill="#ffd453"/>
      <rect id="Rectángulo_460220" data-name="Rectángulo 460220" width="9.168" height="28.706" transform="translate(187.598 184.851)" fill="#69d7e5"/>
      <rect id="Rectángulo_460221" data-name="Rectángulo 460221" width="9.168" height="10.039" transform="translate(187.598 184.852)" fill="#ffd453"/>
      <rect id="Rectángulo_460222" data-name="Rectángulo 460222" width="9.168" height="23.888" transform="translate(172.45 189.669)" fill="#69d7e5"/>
      <rect id="Rectángulo_460223" data-name="Rectángulo 460223" width="9.168" height="8.354" transform="translate(172.45 189.67)" fill="#ffd453"/>
      <rect id="Rectángulo_460224" data-name="Rectángulo 460224" width="9.168" height="19.711" transform="translate(157.303 193.846)" fill="#69d7e5"/>
      <rect id="Rectángulo_460225" data-name="Rectángulo 460225" width="9.168" height="6.893" transform="translate(157.303 193.846)" fill="#ffd453"/>
      <path id="Trazado_1272266" data-name="Trazado 1272266" d="M97.179,572.577a.8.8,0,0,1-.536-.183,1.146,1.146,0,0,1-.325-.482,1.841,1.841,0,0,1-.11-.644,1.922,1.922,0,0,1,.11-.658,1.085,1.085,0,0,1,.332-.485.833.833,0,0,1,.543-.18.82.82,0,0,1,.539.18,1.1,1.1,0,0,1,.328.482,1.885,1.885,0,0,1,.111.654,1.806,1.806,0,0,1-.114.651,1.156,1.156,0,0,1-.332.482.819.819,0,0,1-.546.183m.014-.381a.455.455,0,0,0,.435-.266,1.445,1.445,0,0,0,.136-.662,1.409,1.409,0,0,0-.146-.68.471.471,0,0,0-.439-.27.449.449,0,0,0-.433.273,1.531,1.531,0,0,0-.132.669,1.371,1.371,0,0,0,.146.673.467.467,0,0,0,.432.262m-.093,2.862a.2.2,0,0,1-.14-.054.18.18,0,0,1-.061-.14.215.215,0,0,1,.036-.115l3.056-4.674a.188.188,0,0,1,.157-.093.211.211,0,0,1,.139.05.177.177,0,0,1,.061.144.22.22,0,0,1-.036.115l-3.056,4.674a.186.186,0,0,1-.157.094m3.02.043a.812.812,0,0,1-.536-.183,1.113,1.113,0,0,1-.332-.482,1.834,1.834,0,0,1-.111-.644,1.857,1.857,0,0,1,.115-.662,1.112,1.112,0,0,1,.335-.482.833.833,0,0,1,.543-.18.819.819,0,0,1,.539.18,1.077,1.077,0,0,1,.325.482,1.943,1.943,0,0,1,.107.654,1.815,1.815,0,0,1-.114.647,1.156,1.156,0,0,1-.332.486.808.808,0,0,1-.539.183m.014-.381a.456.456,0,0,0,.436-.266,1.448,1.448,0,0,0,.136-.662,1.417,1.417,0,0,0-.146-.68.472.472,0,0,0-.439-.27.454.454,0,0,0-.436.273,1.494,1.494,0,0,0-.136.669,1.345,1.345,0,0,0,.15.672.475.475,0,0,0,.435.263" transform="translate(123.819 -363.878)" fill="#fff"/>
      <path id="Trazado_1272267" data-name="Trazado 1272267" d="M139.374,572.577a.8.8,0,0,1-.536-.183,1.146,1.146,0,0,1-.325-.482,1.841,1.841,0,0,1-.11-.644,1.922,1.922,0,0,1,.11-.658,1.085,1.085,0,0,1,.332-.485.834.834,0,0,1,.543-.18.82.82,0,0,1,.539.18,1.1,1.1,0,0,1,.328.482,1.885,1.885,0,0,1,.111.654,1.806,1.806,0,0,1-.114.651,1.156,1.156,0,0,1-.332.482.819.819,0,0,1-.546.183m.014-.381a.455.455,0,0,0,.435-.266,1.445,1.445,0,0,0,.136-.662,1.409,1.409,0,0,0-.146-.68.471.471,0,0,0-.439-.27.449.449,0,0,0-.433.273,1.531,1.531,0,0,0-.132.669,1.371,1.371,0,0,0,.146.673.467.467,0,0,0,.432.262m-.093,2.862a.2.2,0,0,1-.14-.054.18.18,0,0,1-.061-.14.215.215,0,0,1,.036-.115l3.056-4.674a.188.188,0,0,1,.157-.093.211.211,0,0,1,.139.05.177.177,0,0,1,.061.144.22.22,0,0,1-.036.115l-3.056,4.674a.187.187,0,0,1-.157.094m3.02.043a.812.812,0,0,1-.536-.183,1.113,1.113,0,0,1-.332-.482,1.833,1.833,0,0,1-.111-.644,1.857,1.857,0,0,1,.115-.662,1.112,1.112,0,0,1,.335-.482.833.833,0,0,1,.543-.18.819.819,0,0,1,.539.18,1.077,1.077,0,0,1,.325.482,1.943,1.943,0,0,1,.107.654,1.814,1.814,0,0,1-.114.647,1.156,1.156,0,0,1-.332.486.808.808,0,0,1-.539.183m.014-.381a.456.456,0,0,0,.436-.266,1.447,1.447,0,0,0,.136-.662,1.417,1.417,0,0,0-.146-.68.472.472,0,0,0-.439-.27.454.454,0,0,0-.436.273,1.494,1.494,0,0,0-.136.669,1.345,1.345,0,0,0,.15.672.475.475,0,0,0,.435.263" transform="translate(66.477 -363.878)" fill="#fff"/>
      <path id="Trazado_1272268" data-name="Trazado 1272268" d="M181.569,572.577a.8.8,0,0,1-.536-.183,1.146,1.146,0,0,1-.325-.482,1.841,1.841,0,0,1-.111-.644,1.922,1.922,0,0,1,.111-.658,1.086,1.086,0,0,1,.332-.485.834.834,0,0,1,.543-.18.819.819,0,0,1,.539.18,1.1,1.1,0,0,1,.328.482,1.885,1.885,0,0,1,.111.654,1.806,1.806,0,0,1-.114.651,1.156,1.156,0,0,1-.332.482.819.819,0,0,1-.546.183m.014-.381a.455.455,0,0,0,.435-.266,1.445,1.445,0,0,0,.136-.662,1.409,1.409,0,0,0-.146-.68.471.471,0,0,0-.439-.27.449.449,0,0,0-.433.273,1.531,1.531,0,0,0-.132.669,1.375,1.375,0,0,0,.146.673.468.468,0,0,0,.432.262m-.093,2.862a.2.2,0,0,1-.14-.054.18.18,0,0,1-.061-.14.215.215,0,0,1,.036-.115l3.056-4.674a.188.188,0,0,1,.157-.093.212.212,0,0,1,.139.05.177.177,0,0,1,.061.144.22.22,0,0,1-.036.115l-3.056,4.674a.186.186,0,0,1-.157.094m3.02.043a.812.812,0,0,1-.536-.183,1.113,1.113,0,0,1-.332-.482,1.834,1.834,0,0,1-.111-.644,1.856,1.856,0,0,1,.115-.662,1.112,1.112,0,0,1,.335-.482.833.833,0,0,1,.543-.18.819.819,0,0,1,.539.18,1.077,1.077,0,0,1,.325.482,1.943,1.943,0,0,1,.107.654,1.814,1.814,0,0,1-.114.647,1.156,1.156,0,0,1-.332.486.808.808,0,0,1-.539.183m.014-.381a.456.456,0,0,0,.436-.266,1.447,1.447,0,0,0,.136-.662,1.417,1.417,0,0,0-.146-.68.472.472,0,0,0-.439-.27.455.455,0,0,0-.436.273,1.5,1.5,0,0,0-.136.669,1.345,1.345,0,0,0,.15.672.475.475,0,0,0,.435.263" transform="translate(9.134 -363.878)" fill="#fff"/>
      <path id="Trazado_1272269" data-name="Trazado 1272269" d="M223.766,572.577a.8.8,0,0,1-.536-.183,1.146,1.146,0,0,1-.325-.482,1.841,1.841,0,0,1-.11-.644,1.922,1.922,0,0,1,.11-.658,1.085,1.085,0,0,1,.332-.485.834.834,0,0,1,.543-.18.82.82,0,0,1,.539.18,1.1,1.1,0,0,1,.328.482,1.885,1.885,0,0,1,.111.654,1.807,1.807,0,0,1-.114.651,1.156,1.156,0,0,1-.332.482.819.819,0,0,1-.546.183m.014-.381a.455.455,0,0,0,.435-.266,1.445,1.445,0,0,0,.136-.662,1.409,1.409,0,0,0-.146-.68.471.471,0,0,0-.439-.27.449.449,0,0,0-.433.273,1.531,1.531,0,0,0-.132.669,1.371,1.371,0,0,0,.146.673.467.467,0,0,0,.432.262m-.093,2.862a.2.2,0,0,1-.14-.054.18.18,0,0,1-.061-.14.215.215,0,0,1,.036-.115l3.056-4.674a.188.188,0,0,1,.157-.093.211.211,0,0,1,.139.05.177.177,0,0,1,.061.144.22.22,0,0,1-.036.115l-3.056,4.674a.186.186,0,0,1-.157.094m3.02.043a.812.812,0,0,1-.536-.183,1.113,1.113,0,0,1-.332-.482,1.833,1.833,0,0,1-.111-.644,1.857,1.857,0,0,1,.115-.662,1.112,1.112,0,0,1,.335-.482.834.834,0,0,1,.543-.18.819.819,0,0,1,.539.18,1.077,1.077,0,0,1,.325.482,1.943,1.943,0,0,1,.107.654,1.814,1.814,0,0,1-.114.647,1.155,1.155,0,0,1-.332.486.808.808,0,0,1-.539.183m.014-.381a.456.456,0,0,0,.436-.266,1.448,1.448,0,0,0,.136-.662,1.417,1.417,0,0,0-.146-.68.472.472,0,0,0-.439-.27.454.454,0,0,0-.436.273,1.494,1.494,0,0,0-.136.669,1.345,1.345,0,0,0,.15.672.475.475,0,0,0,.435.263" transform="translate(-48.21 -363.878)" fill="#fff"/>
      <path id="Trazado_1272270" data-name="Trazado 1272270" d="M265.961,572.577a.8.8,0,0,1-.536-.183,1.146,1.146,0,0,1-.325-.482,1.841,1.841,0,0,1-.11-.644,1.922,1.922,0,0,1,.11-.658,1.085,1.085,0,0,1,.332-.485.834.834,0,0,1,.543-.18.82.82,0,0,1,.539.18,1.1,1.1,0,0,1,.328.482,1.886,1.886,0,0,1,.111.654,1.808,1.808,0,0,1-.114.651,1.156,1.156,0,0,1-.332.482.819.819,0,0,1-.546.183m.014-.381a.456.456,0,0,0,.436-.266,1.446,1.446,0,0,0,.136-.662,1.408,1.408,0,0,0-.147-.68.471.471,0,0,0-.439-.27.448.448,0,0,0-.432.273,1.526,1.526,0,0,0-.132.669,1.371,1.371,0,0,0,.146.673.467.467,0,0,0,.432.262m-.093,2.862a.206.206,0,0,1-.14-.054.18.18,0,0,1-.061-.14.215.215,0,0,1,.036-.115l3.056-4.674a.186.186,0,0,1,.157-.093.211.211,0,0,1,.139.05.177.177,0,0,1,.061.144.217.217,0,0,1-.036.115l-3.056,4.674a.187.187,0,0,1-.157.094m3.02.043a.812.812,0,0,1-.536-.183,1.114,1.114,0,0,1-.332-.482,1.834,1.834,0,0,1-.111-.644,1.857,1.857,0,0,1,.115-.662,1.113,1.113,0,0,1,.335-.482.833.833,0,0,1,.543-.18.819.819,0,0,1,.539.18,1.076,1.076,0,0,1,.325.482,1.942,1.942,0,0,1,.107.654,1.813,1.813,0,0,1-.114.647,1.156,1.156,0,0,1-.332.486.807.807,0,0,1-.539.183m.014-.381a.456.456,0,0,0,.436-.266,1.449,1.449,0,0,0,.136-.662,1.417,1.417,0,0,0-.146-.68.472.472,0,0,0-.439-.27.454.454,0,0,0-.436.273,1.493,1.493,0,0,0-.136.669,1.345,1.345,0,0,0,.15.672.475.475,0,0,0,.435.263" transform="translate(-105.552 -363.878)" fill="#fff"/>
      <path id="Trazado_1272271" data-name="Trazado 1272271" d="M243.332,413.456H237.15a15.911,15.911,0,0,1,15.107-15.324v6.229a9.718,9.718,0,0,0-8.925,9.1" transform="translate(-77.927 -254.185)" fill="#ffd453"/>
      <path id="Trazado_1272272" data-name="Trazado 1272272" d="M206.765,423.834a9.754,9.754,0,0,0,.737-19.475v-6.229a15.967,15.967,0,1,1-16.572,16.808h6.19a9.711,9.711,0,0,0,9.645,8.895" transform="translate(-31.699 -254.184)" fill="#69d7e5"/>
      <path id="Trazado_1272273" data-name="Trazado 1272273" d="M226.267,434.451a1.2,1.2,0,0,1-.807-.276,1.721,1.721,0,0,1-.49-.726,2.772,2.772,0,0,1-.167-.97,2.9,2.9,0,0,1,.167-.991,1.635,1.635,0,0,1,.5-.731,1.255,1.255,0,0,1,.817-.271,1.233,1.233,0,0,1,.812.271,1.661,1.661,0,0,1,.5.726,2.858,2.858,0,0,1,.167.986,2.717,2.717,0,0,1-.172.98,1.739,1.739,0,0,1-.5.726,1.236,1.236,0,0,1-.823.276m.022-.574a.685.685,0,0,0,.656-.4,2.176,2.176,0,0,0,.2-1,2.126,2.126,0,0,0-.221-1.023.71.71,0,0,0-.661-.406.674.674,0,0,0-.651.411,2.3,2.3,0,0,0-.2,1.008,2.063,2.063,0,0,0,.22,1.013.7.7,0,0,0,.651.4m-.14,4.311a.306.306,0,0,1-.21-.081.27.27,0,0,1-.092-.212.328.328,0,0,1,.053-.173l4.6-7.041a.283.283,0,0,1,.237-.141.32.32,0,0,1,.21.076.265.265,0,0,1,.092.217.326.326,0,0,1-.053.174l-4.6,7.041a.282.282,0,0,1-.237.141m4.549.065a1.224,1.224,0,0,1-.807-.276,1.677,1.677,0,0,1-.5-.726,2.759,2.759,0,0,1-.167-.969,2.792,2.792,0,0,1,.172-1,1.677,1.677,0,0,1,.506-.726,1.253,1.253,0,0,1,.817-.271,1.233,1.233,0,0,1,.812.271,1.619,1.619,0,0,1,.489.726,2.926,2.926,0,0,1,.161.986,2.737,2.737,0,0,1-.172.975,1.737,1.737,0,0,1-.5.731,1.218,1.218,0,0,1-.812.276m.022-.574a.686.686,0,0,0,.656-.4,2.179,2.179,0,0,0,.2-1,2.131,2.131,0,0,0-.22-1.024.71.71,0,0,0-.662-.406.684.684,0,0,0-.656.411,2.249,2.249,0,0,0-.2,1.008,2.025,2.025,0,0,0,.226,1.013.716.716,0,0,0,.656.4" transform="translate(-53.421 -274.841)" fill="#6b6b82"/>
      <rect id="Rectángulo_460226" data-name="Rectángulo 460226" width="33.776" height="18.386" transform="translate(194.952 105.077)" fill="#b6b6ce"/>
      <path id="Trazado_1272294" data-name="Trazado 1272294" d="M0,.041,12.843,0l0,.719L0,.76Z" transform="matrix(0.529, -0.849, 0.849, 0.529, 208.704, 119.52)" fill="#6b6b82"/>
      <path id="Trazado_1272274" data-name="Trazado 1272274" d="M100.522,312.8l7.537-3.573-7.537-3.572-.306.654,6.157,2.918-6.157,2.918Z" transform="translate(115.427 -195.141)" fill="#6b6b82"/>
      <path id="Trazado_1272275" data-name="Trazado 1272275" d="M150.791,312.8l.306-.654-6.157-2.918L151.1,306.3l-.306-.654-7.537,3.572Z" transform="translate(56.94 -195.141)" fill="#6b6b82"/>
      <path id="Trazado_1272276" data-name="Trazado 1272276" d="M73.295,625.881H284.653a.181.181,0,0,0,0-.362H73.295a.181.181,0,0,0,0,.362" transform="translate(-51.617 -399.359)" fill="#3b3638"/>
      <path id="Trazado_1272277" data-name="Trazado 1272277" d="M193.082,282.565h31.63a2.16,2.16,0,0,0,2.152-2.168V230.983a2.16,2.16,0,0,0-2.152-2.168h-31.63a2.16,2.16,0,0,0-2.152,2.168V280.4a2.16,2.16,0,0,0,2.152,2.168" transform="translate(-35.944 -146.086)" fill="#f2f0f7"/>
      <path id="Trazado_1272278" data-name="Trazado 1272278" d="M81.514,357.832h33.507a1.069,1.069,0,0,0,0-2.138H81.514a1.069,1.069,0,0,0,0,2.138" transform="translate(114.499 -227.09)" fill="#f2f0f7"/>
      <path id="Trazado_1272279" data-name="Trazado 1272279" d="M81.514,371.574h33.507a1.069,1.069,0,0,0,0-2.138H81.514a1.069,1.069,0,0,0,0,2.138" transform="translate(114.499 -235.864)" fill="#f2f0f7"/>
      <path id="Trazado_1272280" data-name="Trazado 1272280" d="M81.514,385.316h33.507a1.069,1.069,0,0,0,0-2.137H81.514a1.069,1.069,0,0,0,0,2.137" transform="translate(114.499 -244.638)" fill="#f2f0f7"/>
      <path id="Trazado_1272281" data-name="Trazado 1272281" d="M81.514,399.057h33.507a1.069,1.069,0,0,0,0-2.137H81.514a1.069,1.069,0,0,0,0,2.137" transform="translate(114.499 -253.41)" fill="#f2f0f7"/>
      <path id="Trazado_1272282" data-name="Trazado 1272282" d="M81.514,412.8h33.507a1.069,1.069,0,0,0,0-2.138H81.514a1.069,1.069,0,0,0,0,2.138" transform="translate(114.499 -262.184)" fill="#f2f0f7"/>
      <path id="Trazado_1272283" data-name="Trazado 1272283" d="M81.514,426.541h33.507a1.069,1.069,0,0,0,0-2.138H81.514a1.069,1.069,0,0,0,0,2.138" transform="translate(114.499 -270.957)" fill="#f2f0f7"/>
      <path id="Trazado_1272284" data-name="Trazado 1272284" d="M81.514,440.282h33.507a1.069,1.069,0,0,0,0-2.137H81.514a1.069,1.069,0,0,0,0,2.137" transform="translate(114.499 -279.731)" fill="#f2f0f7"/>
      <path id="Trazado_1272285" data-name="Trazado 1272285" d="M81.514,454.024h33.507a1.069,1.069,0,0,0,0-2.137H81.514a1.069,1.069,0,0,0,0,2.137" transform="translate(114.499 -288.504)" fill="#f2f0f7"/>
      <path id="Trazado_1272286" data-name="Trazado 1272286" d="M81.514,467.767h33.507a1.069,1.069,0,0,0,0-2.138H81.514a1.069,1.069,0,0,0,0,2.138" transform="translate(114.499 -297.278)" fill="#f2f0f7"/>
      <path id="Trazado_1272287" data-name="Trazado 1272287" d="M394.29,200.525c2.373,0,9.306-4.717,9.611-4.926a.181.181,0,0,0,.048-.251.179.179,0,0,0-.249-.048c-2.638,1.8-8.036,5.138-9.594,4.848-.818-.15-5.555-2.9-10.57-5.818-9.564-5.559-15.9-9.167-16.782-8.721a.181.181,0,0,0-.08.243.179.179,0,0,0,.241.081c.8-.38,10.213,5.091,16.442,8.711,5.262,3.058,9.806,5.7,10.686,5.86a1.359,1.359,0,0,0,.248.021" transform="translate(-276.14 -118.478)" fill="#3b3638"/>
      <path id="Trazado_1272288" data-name="Trazado 1272288" d="M387.842,159.606h.018l9.705-.968a.181.181,0,0,0,.161-.2.183.183,0,0,0-.2-.162l-9.636.96-16.328-12.162a.179.179,0,0,0-.251.038.182.182,0,0,0,.038.253l16.383,12.2a.178.178,0,0,0,.107.035" transform="translate(-271.547 -93.877)" fill="#3b3638"/>
      <path id="Trazado_1272289" data-name="Trazado 1272289" d="M461.845,125.118a.175.175,0,0,0,.1-.034.181.181,0,0,0,.041-.252c-.148-.209-3.664-5.121-6-5.784a.181.181,0,0,0-.1.348c2.219.628,5.773,5.6,5.809,5.646a.179.179,0,0,0,.146.076" transform="translate(-366.171 -76.001)" fill="#3b3638"/>
      <path id="Trazado_1272290" data-name="Trazado 1272290" d="M371.868,222.742a.18.18,0,0,0,.179-.171l.112-2.185a.181.181,0,0,0-.17-.19.17.17,0,0,0-.188.171l-.112,2.185a.18.18,0,0,0,.17.19h.009" transform="translate(-246.126 -140.582)" fill="#3b3638"/>
      <path id="Trazado_1272291" data-name="Trazado 1272291" d="M375.189,155.94a.18.18,0,0,0,.179-.181v-8.537a.179.179,0,1,0-.359,0v8.537a.18.18,0,0,0,.18.181" transform="translate(-250.527 -93.877)" fill="#3b3638"/>
      <path id="Trazado_1272292" data-name="Trazado 1272292" d="M273.541,195.15c1.3-.093,6.835,3.01,6.835,3.01H269.953c.14.771,5.626.769,5.626,1.609s-4.516.922-5.906.922-6.971-1.062-6.971-1.062v-3.452s9.542-.933,10.839-1.026" transform="translate(-115.219 -124.591)" fill="#f59976"/>
      <path id="Trazado_1272293" data-name="Trazado 1272293" d="M407.8,355.837a.179.179,0,0,0,.16-.1l8.127-16.039a8.145,8.145,0,0,1,3.25-3.413l1.6-.906a.181.181,0,0,0,.068-.246.178.178,0,0,0-.244-.069l-1.6.906a8.5,8.5,0,0,0-3.394,3.564l-8.126,16.039a.18.18,0,0,0,.16.263" transform="translate(-307.884 -213.905)" fill="#3b3638"/>
    </g>
  </g>
</svg>
