<svg xmlns="http://www.w3.org/2000/svg" xmlns:xlink="http://www.w3.org/1999/xlink" width="96" height="96" viewBox="0 0 96 96">
  <defs>
    <clipPath id="clip-path">
      <rect id="Rectángulo_454829" data-name="Rectángulo 454829" width="96" height="96" fill="#1e535a"/>
    </clipPath>
    <clipPath id="clip-path-2">
      <rect id="Rectángulo_460810" data-name="Rectángulo 460810" width="34.855" height="42.102" fill="#1e535a"/>
    </clipPath>
  </defs>
  <g id="Grupo_1210233" data-name="Grupo 1210233" transform="translate(-1480.965 -8563)">
    <g id="Grupo_1177591" data-name="Grupo 1177591" transform="translate(1480.965 8563)">
      <g id="Grupo_1177589" data-name="Grupo 1177589" transform="translate(0 0)">
        <g id="Grupo_1177587" data-name="Grupo 1177587" clip-path="url(#clip-path)">
          <path id="Trazado_997422" data-name="Trazado 997422" d="M92.081,42.491a44.136,44.136,0,0,0-9.97-22.967,5.076,5.076,0,0,0-7.142-6.838A44.071,44.071,0,0,0,52.151,3.77a5.077,5.077,0,0,0-9.861.2A44.132,44.132,0,0,0,20.4,13.329a5.079,5.079,0,0,0-7.048,7.1A44.1,44.1,0,0,0,4.112,42.448,5.08,5.08,0,0,0,3.99,52.4a44.082,44.082,0,0,0,8.949,22.468,5.078,5.078,0,0,0,6.9,7.17,44.128,44.128,0,0,0,22.412,9.8,5.078,5.078,0,0,0,9.949.2,44.091,44.091,0,0,0,22.985-9.08,5.077,5.077,0,0,0,7.107-6.874A44.147,44.147,0,0,0,92.2,52.349a5.078,5.078,0,0,0-.119-9.858M77.74,22.024a5.05,5.05,0,0,0,2.812-.851,41.913,41.913,0,0,1,9.25,21.3,5.086,5.086,0,0,0-3.246,2.351l-12.98-4.867c.01-.142.02-.286.02-.433a5.079,5.079,0,0,0-2.151-4.15l5.678-13.4a5.5,5.5,0,0,0,.616.041M75,21.216,69.354,34.523a5.026,5.026,0,0,0-5.594,3.23L40.279,32.344a4.941,4.941,0,0,0-.106-1.011l33.322-11.6A5.1,5.1,0,0,0,75,21.216M47.246,10.165a5.083,5.083,0,0,0,4.989-4.122,41.844,41.844,0,0,1,21.158,8.275,5.054,5.054,0,0,0-.735,2.625,5.335,5.335,0,0,0,.048.671L39.217,29.273a5.1,5.1,0,0,0-.92-.92l8.784-18.2c.056,0,.109.008.165.008M42.3,6.243A5.083,5.083,0,0,0,44.86,9.569L36.248,27.4a5.1,5.1,0,0,0-1.049-.109,5.045,5.045,0,0,0-2.9.91L22.1,19.678A5.052,5.052,0,0,0,21.923,15,41.877,41.877,0,0,1,42.3,6.243M10.041,46.332,31.153,35.442a5.064,5.064,0,0,0,4.006,2.014l7.236,23.129a5.166,5.166,0,0,0-1.12,1.239l-31.3-13.04a5.048,5.048,0,0,0,.187-1.348,5.107,5.107,0,0,0-.124-1.1m4.986-24.391a5.079,5.079,0,0,0,5.673-.484l10.079,8.417a5.068,5.068,0,0,0-.56,3.512L9.07,44.29A5.081,5.081,0,0,0,6.38,42.526a41.859,41.859,0,0,1,8.647-20.585m2.1,50.717a5.067,5.067,0,0,0-2.523.674A41.822,41.822,0,0,1,6.263,52.374,5.087,5.087,0,0,0,8.9,50.783l31.609,13.17a5.45,5.45,0,0,0-.041.611,5.081,5.081,0,0,0,.3,1.718L21.657,75.44a5.081,5.081,0,0,0-4.528-2.782M42.349,89.575a41.919,41.919,0,0,1-20.912-9.149,5.029,5.029,0,0,0,.775-2.686l0-.058L42,68.2A5.082,5.082,0,0,0,43.8,69.329l1.186,17.043a5.082,5.082,0,0,0-2.632,3.2m2.105-29.97-7.081-22.64a5.089,5.089,0,0,0,2.415-2.415L63.459,40a5.052,5.052,0,0,0,.808,2.311L48.032,60.13a5.019,5.019,0,0,0-3.577-.524m7.74,30.167a5.081,5.081,0,0,0-4.948-3.937l-.038,0L46.081,69.62a5.073,5.073,0,0,0,3.106-1.507L72.853,78.551c0,.046-.008.086-.008.132a5.057,5.057,0,0,0,.752,2.65,41.841,41.841,0,0,1-21.4,8.439M73.423,76.334,50.373,66.165a5.052,5.052,0,0,0-.666-4.52L65.893,43.877a5.052,5.052,0,0,0,2.622.735,5.594,5.594,0,0,0,.623-.041l6.05,29.836a5.071,5.071,0,0,0-1.766,1.928m7.292-1.9a5.051,5.051,0,0,0-3.377-.8L71.285,43.788a5.1,5.1,0,0,0,1.6-1.672L85.858,46.98a4.506,4.506,0,0,0-.023.456,5.08,5.08,0,0,0,4.084,4.981,41.876,41.876,0,0,1-9.2,22.017" transform="translate(0 0.001)" fill="#1e535a"/>
        </g>
      </g>
    </g>
    <g id="Elipse_13614" data-name="Elipse 13614" transform="translate(1497.965 8579)" fill="#d5f4f8" stroke="#1e535a" stroke-width="3">
      <ellipse cx="31.232" cy="31.233" rx="31.232" ry="31.233" stroke="none"/>
      <ellipse cx="31.232" cy="31.233" rx="29.732" ry="29.733" fill="none"/>
    </g>
    <g id="Grupo_1211074" data-name="Grupo 1211074" transform="translate(1511.965 8589)">
      <g id="Grupo_1211073" data-name="Grupo 1211073" clip-path="url(#clip-path-2)">
        <path id="Trazado_1273603" data-name="Trazado 1273603" d="M36.863,26.841a13.066,13.066,0,1,0-21.3-10.529,13.216,13.216,0,0,0,4.833,10.554l-6.2.027,1.716-3.152a25.443,25.443,0,0,1-1.254-3.014l-2.738-.92-.011-6.2,2.744-.946a29.7,29.7,0,0,1,1.248-3L14.62,7.095,19.013,2.7,21.564,3.97C22.6,3.5,23.56,3.1,24.609,2.7L25.515,0l6.2,0,.91,2.706a29.146,29.146,0,0,1,3,1.275l2.6-1.279L42.62,7.093,41.336,9.665a26.388,26.388,0,0,1,1.251,3l2.734.939v6.2l-2.7.9a28.151,28.151,0,0,1-1.276,3l1.281,2.6-4.366,4.373c.349-.911.73-1.515.414-2.354a2.4,2.4,0,0,0-1.8-1.49" transform="translate(-10.466)" fill="#1e535a"/>
        <path id="Trazado_1273604" data-name="Trazado 1273604" d="M88,73.488l-1.91.011a.978.978,0,0,1-.551-.318l.006-4.041-1.484.008a2.847,2.847,0,0,0-2.85,2.779l-.03,4.025,2.931,2.935L84.1,82.2l-1.829.017a8.689,8.689,0,1,1,9.514-.025l-1.877.025L89.9,78.867l2.9-2.881V72.044a2.9,2.9,0,0,0-2.865-2.9l-1.483-.019.006,3.845a.541.541,0,0,1-.459.513" transform="translate(-68.846 -58.247)" fill="#1e535a"/>
        <path id="Trazado_1273605" data-name="Trazado 1273605" d="M41.7,214.563l.01,9.11-3.341.025-2.183-2.183-6.1,0-.008-7.975,7.546-.006,2.92-2.913,9.066,0a.723.723,0,0,1,.792.705.793.793,0,0,1-.821.762H42.1l-3.106,3.095,1.018,1.019Z" transform="translate(-26.447 -185.201)" fill="#1e535a"/>
        <path id="Trazado_1273606" data-name="Trazado 1273606" d="M72.374,61.546a10.148,10.148,0,1,0-12.263.58L59.06,63.179a11.607,11.607,0,1,1,14.056-.35,4.008,4.008,0,0,0-.741-1.283" transform="translate(-47.709 -37.078)" fill="#1e535a"/>
        <path id="Trazado_1273607" data-name="Trazado 1273607" d="M121.6,102.355a1.372,1.372,0,0,1,1.457,1.4l.014,3.325-2.492,2.488h-3.759l-2.469-2.452-.007-3.361a1.428,1.428,0,0,1,1.457-1.43l0,3.215,1.133,1.121h3.524l1.147-1.141Z" transform="translate(-100.542 -89.974)" fill="#1e535a"/>
        <path id="Trazado_1273608" data-name="Trazado 1273608" d="M140.34,242.61a2.156,2.156,0,0,0,.877,3.485,5.076,5.076,0,0,1-.08,1.331,1.4,1.4,0,0,1-1.584.972,1.43,1.43,0,0,1-1.234-1.361l-.007-12.412,1.592.016a2.29,2.29,0,0,0,.406,2.151,2.258,2.258,0,0,0,.027,2.912,2.181,2.181,0,0,0,0,2.906" transform="translate(-121.622 -206.311)" fill="#1e535a"/>
        <rect id="Rectángulo_460808" data-name="Rectángulo 460808" width="2.17" height="11.625" transform="translate(0 26.863)" fill="#1e535a"/>
        <path id="Trazado_1273609" data-name="Trazado 1273609" d="M169.188,236.231l-5.828.015a.869.869,0,0,1-.743-.551c-.087-.3.122-.9.509-.9l6.158-.01c.283,0,.544.456.556.692s-.277.755-.652.756" transform="translate(-142.976 -206.451)" fill="#1e535a"/>
        <path id="Trazado_1273610" data-name="Trazado 1273610" d="M169,308.4l-5.672,0a.789.789,0,0,1-.768-.661.741.741,0,0,1,.638-.783l6.035,0c.348,0,.6.5.566.755a.767.767,0,0,1-.8.687" transform="translate(-142.941 -269.91)" fill="#1e535a"/>
        <path id="Trazado_1273611" data-name="Trazado 1273611" d="M169.155,260.114l-5.932.013a.773.773,0,0,1-.659-.769.744.744,0,0,1,.761-.7l5.682,0a.794.794,0,0,1,.791.617c.057.269-.19.841-.643.842" transform="translate(-142.946 -227.442)" fill="#1e535a"/>
        <path id="Trazado_1273612" data-name="Trazado 1273612" d="M169.154,284.338l-5.934.012a.8.8,0,0,1-.655-.654.707.707,0,0,1,.642-.782l5.8-.007a.742.742,0,0,1,.791.6c.058.266-.184.835-.643.836" transform="translate(-142.946 -248.767)" fill="#1e535a"/>
        <rect id="Rectángulo_460809" data-name="Rectángulo 460809" width="2.91" height="2.907" transform="translate(16.693 21.047)" fill="#1e535a"/>
      </g>
    </g>
  </g>
</svg>
