<svg xmlns="http://www.w3.org/2000/svg" xmlns:xlink="http://www.w3.org/1999/xlink" width="128" height="128" viewBox="0 0 128 128">
  <defs>
    <clipPath id="clip-path">
      <rect id="Rectángulo_454829" data-name="Rectángulo 454829" width="128" height="128" fill="#1e535a"/>
    </clipPath>
    <clipPath id="clip-path-2">
      <rect id="Rectángulo_461125" data-name="Rectángulo 461125" width="50" height="44.351" fill="#1e535a"/>
    </clipPath>
  </defs>
  <g id="Grupo_1210201" data-name="Grupo 1210201" transform="translate(-0.402 -0.359)">
    <g id="Grupo_1177591" data-name="Grupo 1177591" transform="translate(0.402 0.359)">
      <g id="Grupo_1177589" data-name="Grupo 1177589" transform="translate(0 0)">
        <g id="Grupo_1177587" data-name="Grupo 1177587" clip-path="url(#clip-path)">
          <path id="Trazado_997422" data-name="Trazado 997422" d="M122.774,56.654a58.848,58.848,0,0,0-13.293-30.623,6.768,6.768,0,0,0-9.523-9.118A58.761,58.761,0,0,0,69.535,5.027a6.769,6.769,0,0,0-13.148.267A58.842,58.842,0,0,0,27.2,17.772a6.771,6.771,0,0,0-9.4,9.462A58.794,58.794,0,0,0,5.483,56.6a6.774,6.774,0,0,0-.162,13.266A58.776,58.776,0,0,0,17.252,99.82a6.771,6.771,0,0,0,9.2,9.56,58.838,58.838,0,0,0,29.883,13.07,6.771,6.771,0,0,0,13.266.267,58.788,58.788,0,0,0,30.646-12.107,6.769,6.769,0,0,0,9.476-9.165A58.863,58.863,0,0,0,122.933,69.8a6.771,6.771,0,0,0-.159-13.144m-19.12-27.288a6.733,6.733,0,0,0,3.75-1.135,55.884,55.884,0,0,1,12.333,28.407,6.781,6.781,0,0,0-4.327,3.135L98.1,53.283c.013-.189.027-.382.027-.578a6.772,6.772,0,0,0-2.868-5.533l7.57-17.86a7.335,7.335,0,0,0,.821.054M100,28.288,92.472,46.03a6.7,6.7,0,0,0-7.459,4.307L53.705,43.125a6.588,6.588,0,0,0-.142-1.348L97.992,26.305a6.793,6.793,0,0,0,2,1.983M63,13.553a6.777,6.777,0,0,0,6.651-5.5A55.792,55.792,0,0,1,97.857,19.09a6.739,6.739,0,0,0-.98,3.5,7.114,7.114,0,0,0,.064.9L52.29,39.031A6.8,6.8,0,0,0,51.064,37.8L62.775,13.543c.074,0,.145.01.22.01M56.4,8.324a6.778,6.778,0,0,0,3.409,4.435L48.331,36.538a6.8,6.8,0,0,0-1.4-.145,6.727,6.727,0,0,0-3.861,1.213L29.461,26.238A6.736,6.736,0,0,0,29.231,20,55.836,55.836,0,0,1,56.4,8.324M13.387,61.776l28.15-14.519a6.751,6.751,0,0,0,5.341,2.686l9.648,30.839a6.887,6.887,0,0,0-1.493,1.652L13.3,65.046a6.731,6.731,0,0,0,.25-1.8,6.81,6.81,0,0,0-.166-1.473m6.648-32.521a6.771,6.771,0,0,0,7.564-.645L41.037,39.831a6.758,6.758,0,0,0-.747,4.682l-28.2,14.539A6.774,6.774,0,0,0,8.506,56.7,55.812,55.812,0,0,1,20.036,29.254m2.8,67.623a6.756,6.756,0,0,0-3.365.9A55.762,55.762,0,0,1,8.351,69.832a6.783,6.783,0,0,0,3.517-2.121L54.013,85.27a7.266,7.266,0,0,0-.054.814,6.775,6.775,0,0,0,.405,2.29L28.876,100.587a6.775,6.775,0,0,0-6.037-3.709m33.626,22.556a55.892,55.892,0,0,1-27.883-12.2,6.705,6.705,0,0,0,1.034-3.581l0-.078L56,90.929a6.776,6.776,0,0,0,2.392,1.51l1.581,22.725a6.776,6.776,0,0,0-3.51,4.27m2.807-39.96L49.831,49.287a6.786,6.786,0,0,0,3.219-3.219l31.562,7.266a6.736,6.736,0,0,0,1.078,3.081L64.042,80.173a6.692,6.692,0,0,0-4.77-.7M69.592,119.7a6.774,6.774,0,0,0-6.6-5.25l-.051,0-1.5-21.623a6.764,6.764,0,0,0,4.142-2.01l31.555,13.918c0,.061-.01.115-.01.176a6.743,6.743,0,0,0,1,3.534A55.789,55.789,0,0,1,69.592,119.7M97.9,101.779,67.164,88.22a6.736,6.736,0,0,0-.888-6.027L87.858,58.5a6.736,6.736,0,0,0,3.5.98,7.46,7.46,0,0,0,.831-.054l8.067,39.781a6.761,6.761,0,0,0-2.355,2.571m9.722-2.534a6.735,6.735,0,0,0-4.5-1.064l-8.07-39.8a6.8,6.8,0,0,0,2.135-2.23l17.3,6.486a6.009,6.009,0,0,0-.03.608,6.774,6.774,0,0,0,5.445,6.641A55.835,55.835,0,0,1,107.62,99.246" transform="translate(0 0.001)" fill="#1e535a"/>
        </g>
      </g>
    </g>
    <g id="Elipse_13614" data-name="Elipse 13614" transform="translate(24.702 24.359)" fill="#fff" stroke="#1e535a" stroke-width="3">
      <ellipse cx="39.732" cy="39.733" rx="39.732" ry="39.733" stroke="none"/>
      <ellipse cx="39.732" cy="39.733" rx="38.232" ry="38.233" fill="none"/>
    </g>
    <g id="Grupo_1211713" data-name="Grupo 1211713" transform="translate(38.702 41.359)">
      <g id="Grupo_1211712" data-name="Grupo 1211712" clip-path="url(#clip-path-2)">
        <path id="Trazado_1275195" data-name="Trazado 1275195" d="M2.583,48.258l.028-1.087a2.444,2.444,0,0,1,2.4-2.433l34.663,0-7.469,13.9-.676,6.207a2.527,2.527,0,0,0,1.037,2.39,2.354,2.354,0,0,0,2.69-.009l4.92-4.013,9.364-17.344A2.178,2.178,0,0,1,50,47.213l-.011,29.052c0,1.025-.982,1.675-1.691,2.007l-.068,1.494a2.331,2.331,0,0,1-2.27,2.179L5.175,81.95A2.454,2.454,0,0,1,2.6,79.4l0-5.066A2.465,2.465,0,1,1,2.5,69.409l.1-.112L2.59,67.6A2.4,2.4,0,0,1,0,65.2a2.454,2.454,0,0,1,2.5-2.514l.1-.123-.007-2.1A2.456,2.456,0,0,1,0,57.947a2.385,2.385,0,0,1,2.48-2.417l.109-.039v-2.22A2.432,2.432,0,0,1,.005,50.722a2.39,2.39,0,0,1,2.513-2.374Zm.092.09-.074.076L2.58,49.639a1.218,1.218,0,0,0-1.263,1.088,1.161,1.161,0,0,0,1.277,1.21V49.661l1.436,0c1.523,0,.852,1.779,1.833,1.809a.779.779,0,0,0,.669-.657A2.448,2.448,0,0,0,4.041,48.34ZM36.052,69.637a3.18,3.18,0,0,1-1.722,4.181,9.521,9.521,0,0,1-3.58.757c-4.3.038-10.232-1.657-12.993-5.012a4.452,4.452,0,0,1,.446-6.309,8.985,8.985,0,0,1,4.074-1.875c2.643-.594,5.553-1.769,7.087-4a2.821,2.821,0,0,0-.639-3.929c-1.239-.941-2.92-1.658-3.121-.737-.241,1.1,1.682.84,2.748,2.264a1.747,1.747,0,0,1-.454,2.207,10.764,10.764,0,0,1-5.4,2.781,11.279,11.279,0,0,0-5.033,2.205A5.746,5.746,0,0,0,16.36,69.85c3.465,5.156,13.835,7.616,18.808,5.026a4.464,4.464,0,0,0,2.14-5.612c-.144-.429-.468-.774-.9-.621a.771.771,0,0,0-.36.994M2.732,55.526l-.134.128-.006,1.224a1.062,1.062,0,0,0-1.269,1.084,1.049,1.049,0,0,0,1.272,1.1V56.878l1.612,0c1.249,0,.775,1.755,1.641,1.79a.869.869,0,0,0,.649-.546,2.333,2.333,0,0,0-2.133-2.574Zm-.045,7.138-.093.054-.037,1.334A1.113,1.113,0,1,0,2.6,66.26L2.59,64.02l1.557.019c1.316.016.763,1.73,1.719,1.778a.749.749,0,0,0,.665-.7,2.469,2.469,0,0,0-2.494-2.451Zm-.011,6.72a1.682,1.682,0,0,0-.047.189l-.1,1.188a1.129,1.129,0,1,0,.065,2.247V70.74l1.584.018c1.274.015.727,1.74,1.689,1.794a.734.734,0,0,0,.663-.705,2.445,2.445,0,0,0-2.35-2.429ZM46.914,79.711l-.006-1.31H5.025a4.079,4.079,0,0,1-1.131-.3l-.007,1.183c0,.465.295,1.306.965,1.306l40.942,0c.579,0,1.123-.3,1.12-.884" transform="translate(0 -37.599)" fill="#1e535a"/>
        <path id="Trazado_1275196" data-name="Trazado 1275196" d="M223.345,29.864l5,2.848L219.69,48.845l-5-2.848Z" transform="translate(-180.445 -25.1)" fill="#1e535a"/>
        <path id="Trazado_1275197" data-name="Trazado 1275197" d="M278.1,6.46l-4.917-2.806.985-1.943A2.887,2.887,0,0,1,278.129.33a3,3,0,0,1,1.083,4.108Z" transform="translate(-229.612 0)" fill="#1e535a"/>
        <path id="Trazado_1275198" data-name="Trazado 1275198" d="M209.51,144.973a1.156,1.156,0,0,1-.781.086,1.3,1.3,0,0,1-.334-.687l.6-5.344,4.548,2.61Z" transform="translate(-175.154 -116.852)" fill="#1e535a"/>
      </g>
    </g>
  </g>
</svg>
