<svg xmlns="http://www.w3.org/2000/svg" xmlns:xlink="http://www.w3.org/1999/xlink" width="69" height="69" viewBox="0 0 69 69">
  <defs>
    <clipPath id="clip-path">
      <rect id="Rectángulo_460817" data-name="Rectángulo 460817" width="37.726" height="42" fill="#fff"/>
    </clipPath>
  </defs>
  <g id="Grupo_1209938" data-name="Grupo 1209938" transform="translate(-616.567 -749.862)">
    <circle id="Elipse_13676" data-name="Elipse 13676" cx="34.5" cy="34.5" r="34.5" transform="translate(616.567 749.862)" fill="#1e535a"/>
    <g id="Grupo_1211386" data-name="Grupo 1211386" transform="translate(632.567 763.862)">
      <g id="Grupo_1211385" data-name="Grupo 1211385" clip-path="url(#clip-path)">
        <path id="Trazado_1274463" data-name="Trazado 1274463" d="M37.679,36.02a6.171,6.171,0,0,1-6.206,5.967L6.349,42A6.224,6.224,0,0,1,0,36.069L0,5.919A6.129,6.129,0,0,1,6.05.027L23.05,0l0,10.678A6.283,6.283,0,0,0,29.3,16.8l8.424,0ZM14.9,10.464A2,2,0,0,0,16.73,8.306a2,2,0,0,0-1.856-1.952l-4.631,0A2.049,2.049,0,0,0,8.368,8.7a2.17,2.17,0,0,0,2.315,1.821ZM18.852,18.9a2.09,2.09,0,0,0,2.087-2.1,2.03,2.03,0,0,0-1.89-2.065l-8.933.017a2.028,2.028,0,0,0-1.762,2.189,2.064,2.064,0,0,0,1.906,1.941ZM12.786,32.182l2.99,2.837a2.146,2.146,0,0,0,3.108.012l6.13-6.126a2.182,2.182,0,0,0,.154-3.061,2.1,2.1,0,0,0-2.9-.26L17.18,30.643c-.688-.683-1.294-1.356-2-1.935a2.053,2.053,0,0,0-2.825.458,2.209,2.209,0,0,0,.429,3.016" transform="translate(0)" fill="#fff"/>
        <path id="Trazado_1274464" data-name="Trazado 1274464" d="M198.763,20.406l-7.979.021a2.195,2.195,0,0,1-2.244-2.376l.05-8.923,8.608,8.547a6.139,6.139,0,0,1,1.565,2.731" transform="translate(-161.329 -7.811)" fill="#fff"/>
      </g>
    </g>
  </g>
</svg>
