<svg xmlns="http://www.w3.org/2000/svg" xmlns:xlink="http://www.w3.org/1999/xlink" width="96" height="96" viewBox="0 0 96 96">
  <defs>
    <clipPath id="clip-path">
      <rect id="Rectángulo_454829" data-name="Rectángulo 454829" width="96" height="96" fill="#1e535a"/>
    </clipPath>
    <clipPath id="clip-path-2">
      <rect id="Rectángulo_460843" data-name="Rectángulo 460843" width="31.767" height="36" fill="#1e535a"/>
    </clipPath>
  </defs>
  <g id="Grupo_1211397" data-name="Grupo 1211397" transform="translate(-1481 -8562.5)">
    <g id="Grupo_1177591" data-name="Grupo 1177591" transform="translate(1481 8562.5)">
      <g id="Grupo_1177589" data-name="Grupo 1177589" transform="translate(0 0)">
        <g id="Grupo_1177587" data-name="Grupo 1177587" clip-path="url(#clip-path)">
          <path id="Trazado_997422" data-name="Trazado 997422" d="M92.081,42.491a44.136,44.136,0,0,0-9.97-22.967,5.076,5.076,0,0,0-7.142-6.838A44.071,44.071,0,0,0,52.151,3.77a5.077,5.077,0,0,0-9.861.2A44.132,44.132,0,0,0,20.4,13.329a5.079,5.079,0,0,0-7.048,7.1A44.1,44.1,0,0,0,4.112,42.448,5.08,5.08,0,0,0,3.99,52.4a44.082,44.082,0,0,0,8.949,22.468,5.078,5.078,0,0,0,6.9,7.17,44.128,44.128,0,0,0,22.412,9.8,5.078,5.078,0,0,0,9.949.2,44.091,44.091,0,0,0,22.985-9.08,5.077,5.077,0,0,0,7.107-6.874A44.147,44.147,0,0,0,92.2,52.349a5.078,5.078,0,0,0-.119-9.858M77.74,22.024a5.05,5.05,0,0,0,2.812-.851,41.913,41.913,0,0,1,9.25,21.3,5.086,5.086,0,0,0-3.246,2.351l-12.98-4.867c.01-.142.02-.286.02-.433a5.079,5.079,0,0,0-2.151-4.15l5.678-13.4a5.5,5.5,0,0,0,.616.041M75,21.216,69.354,34.523a5.026,5.026,0,0,0-5.594,3.23L40.279,32.344a4.941,4.941,0,0,0-.106-1.011l33.322-11.6A5.1,5.1,0,0,0,75,21.216M47.246,10.165a5.083,5.083,0,0,0,4.989-4.122,41.844,41.844,0,0,1,21.158,8.275,5.054,5.054,0,0,0-.735,2.625,5.335,5.335,0,0,0,.048.671L39.217,29.273a5.1,5.1,0,0,0-.92-.92l8.784-18.2c.056,0,.109.008.165.008M42.3,6.243A5.083,5.083,0,0,0,44.86,9.569L36.248,27.4a5.1,5.1,0,0,0-1.049-.109,5.045,5.045,0,0,0-2.9.91L22.1,19.678A5.052,5.052,0,0,0,21.923,15,41.877,41.877,0,0,1,42.3,6.243M10.041,46.332,31.153,35.442a5.064,5.064,0,0,0,4.006,2.014l7.236,23.129a5.166,5.166,0,0,0-1.12,1.239l-31.3-13.04a5.048,5.048,0,0,0,.187-1.348,5.107,5.107,0,0,0-.124-1.1m4.986-24.391a5.079,5.079,0,0,0,5.673-.484l10.079,8.417a5.068,5.068,0,0,0-.56,3.512L9.07,44.29A5.081,5.081,0,0,0,6.38,42.526a41.859,41.859,0,0,1,8.647-20.585m2.1,50.717a5.067,5.067,0,0,0-2.523.674A41.822,41.822,0,0,1,6.263,52.374,5.087,5.087,0,0,0,8.9,50.783l31.609,13.17a5.45,5.45,0,0,0-.041.611,5.081,5.081,0,0,0,.3,1.718L21.657,75.44a5.081,5.081,0,0,0-4.528-2.782M42.349,89.575a41.919,41.919,0,0,1-20.912-9.149,5.029,5.029,0,0,0,.775-2.686l0-.058L42,68.2A5.082,5.082,0,0,0,43.8,69.329l1.186,17.043a5.082,5.082,0,0,0-2.632,3.2m2.105-29.97-7.081-22.64a5.089,5.089,0,0,0,2.415-2.415L63.459,40a5.052,5.052,0,0,0,.808,2.311L48.032,60.13a5.019,5.019,0,0,0-3.577-.524m7.74,30.167a5.081,5.081,0,0,0-4.948-3.937l-.038,0L46.081,69.62a5.073,5.073,0,0,0,3.106-1.507L72.853,78.551c0,.046-.008.086-.008.132a5.057,5.057,0,0,0,.752,2.65,41.841,41.841,0,0,1-21.4,8.439M73.423,76.334,50.373,66.165a5.052,5.052,0,0,0-.666-4.52L65.893,43.877a5.052,5.052,0,0,0,2.622.735,5.594,5.594,0,0,0,.623-.041l6.05,29.836a5.071,5.071,0,0,0-1.766,1.928m7.292-1.9a5.051,5.051,0,0,0-3.377-.8L71.285,43.788a5.1,5.1,0,0,0,1.6-1.672L85.858,46.98a4.506,4.506,0,0,0-.023.456,5.08,5.08,0,0,0,4.084,4.981,41.876,41.876,0,0,1-9.2,22.017" transform="translate(0 0.001)" fill="#1e535a"/>
        </g>
      </g>
    </g>
    <g id="Elipse_13614" data-name="Elipse 13614" transform="translate(1497.965 8579.5)" fill="#d5f4f8" stroke="#1e535a" stroke-width="3">
      <ellipse cx="31.232" cy="31.233" rx="31.232" ry="31.233" stroke="none"/>
      <ellipse cx="31.232" cy="31.233" rx="29.732" ry="29.733" fill="none"/>
    </g>
    <g id="Grupo_1211425" data-name="Grupo 1211425" transform="translate(1512.965 8592.5)">
      <g id="Grupo_1211424" data-name="Grupo 1211424" clip-path="url(#clip-path-2)">
        <path id="Trazado_1274499" data-name="Trazado 1274499" d="M50.854,49.161l.019,22.3a.533.533,0,0,1-.507.533H27.133c-.2,0-.513-.223-.513-.416l0-20.05a6.931,6.931,0,0,0,8.115-10.48l8.018.023a2.1,2.1,0,0,1,1.837,2.185l-.009,3.5a.528.528,0,0,0,.489.515l3.814.034a2.094,2.094,0,0,1,1.971,1.847M35.676,60.146a.733.733,0,0,0,.654-.609l0-5.277a.63.63,0,0,0-.574-.529l-5.334.007c-.255,0-.526.354-.526.619v5.2a.728.728,0,0,0,.665.589Zm11.87-3.931a.7.7,0,0,0,.712-.675.781.781,0,0,0-.6-.681l-9.073.013c-.316,0-.6.555-.535.785a.818.818,0,0,0,.756.563Zm.072,2.746a.706.706,0,0,0,.637-.7.749.749,0,0,0-.623-.64l-8.9,0a.67.67,0,0,0-.043,1.339ZM35.754,69.1a.8.8,0,0,0,.578-.58l0-5.276a.711.711,0,0,0-.578-.559H30.547a.688.688,0,0,0-.652.66l0,5.195a.8.8,0,0,0,.577.562ZM47.6,65.2a.707.707,0,0,0,.657-.671.77.77,0,0,0-.6-.683l-8.968,0a.726.726,0,0,0-.647.683.768.768,0,0,0,.664.664Zm.011,2.749a.706.706,0,0,0,.634-.806.726.726,0,0,0-.717-.538l-8.926.007a.689.689,0,0,0-.556.74.867.867,0,0,0,.64.6Z" transform="translate(-23.342 -36)" fill="#1e535a"/>
        <path id="Trazado_1274500" data-name="Trazado 1274500" d="M84.779,30.944l-2.642,0,0-17.6a2.834,2.834,0,0,0-.71-1.945l-6.5-6.526a3.092,3.092,0,0,0-2.2-1l-8.972-.008a7.224,7.224,0,0,0-2.782-1.478L60.95.524A.552.552,0,0,1,61.535,0l15.629.02a1.987,1.987,0,0,1,1.73,1.821l.021,3.868c0,.188.248.5.438.5l3.848.031a2.12,2.12,0,0,1,1.99,1.8l.023,22.385a.553.553,0,0,1-.435.519" transform="translate(-53.446 -0.001)" fill="#1e535a"/>
        <path id="Trazado_1274501" data-name="Trazado 1274501" d="M11.49,32.712a5.745,5.745,0,1,1-5.745-5.745,5.745,5.745,0,0,1,5.745,5.745M7.445,30.465a1.7,1.7,0,1,0-1.7,1.7,1.7,1.7,0,0,0,1.7-1.7m2.1,4.433a4.343,4.343,0,0,0-7.612.019A4.458,4.458,0,0,0,5.8,37.124,4.409,4.409,0,0,0,9.549,34.9" transform="translate(0 -23.647)" fill="#1e535a"/>
        <path id="Trazado_1274502" data-name="Trazado 1274502" d="M216,13.78V10.946l-.094-1.018,3.842,3.846Z" transform="translate(-189.328 -8.706)" fill="#1e535a"/>
        <path id="Trazado_1274503" data-name="Trazado 1274503" d="M184.541,63.493l-2.576.054.009-2.636Z" transform="translate(-159.563 -53.413)" fill="#1e535a"/>
        <path id="Trazado_1274504" data-name="Trazado 1274504" d="M62.931,231.834l-.769-1.309a.772.772,0,0,1,.179-.86.744.744,0,0,1,1,.18l.3.536,1.592-1.59a.806.806,0,0,1,.812-.075c.244.132.46.669.239.894l-2.27,2.315a.677.677,0,0,1-1.081-.09" transform="translate(-54.452 -200.492)" fill="#1e535a"/>
        <path id="Trazado_1274505" data-name="Trazado 1274505" d="M63.787,159.015c-.689.69-1.323-.512-1.842-1.628-.189-.405.28-.84.6-.825.442.021.668.254.882.862l1.631-1.6a.74.74,0,0,1,.882-.03.7.7,0,0,1,.069.994Z" transform="translate(-54.28 -136.498)" fill="#1e535a"/>
      </g>
    </g>
  </g>
</svg>
