<svg xmlns="http://www.w3.org/2000/svg" xmlns:xlink="http://www.w3.org/1999/xlink" width="69" height="69" viewBox="0 0 69 69">
  <defs>
    <clipPath id="clip-path">
      <rect id="Rectángulo_460818" data-name="Rectángulo 460818" width="42" height="42.003" fill="#fff"/>
    </clipPath>
  </defs>
  <g id="Grupo_1211389" data-name="Grupo 1211389" transform="translate(-617.567 -749.862)">
    <circle id="Elipse_13676" data-name="Elipse 13676" cx="34.5" cy="34.5" r="34.5" transform="translate(617.567 749.862)" fill="#1e535a"/>
    <g id="Grupo_1211388" data-name="Grupo 1211388" transform="translate(631.566 762.862)">
      <g id="Grupo_1211387" data-name="Grupo 1211387" clip-path="url(#clip-path)">
        <path id="Trazado_1274465" data-name="Trazado 1274465" d="M84.285,33.852,65.694,15.265a1.258,1.258,0,0,1-.016-1.757l1.754-1.747a3.3,3.3,0,0,1,4.36-.126,5.406,5.406,0,0,1,6.286-.6A3.524,3.524,0,0,1,81.89,9.6L85.1,3.769A7.589,7.589,0,0,1,93.108.119a7.721,7.721,0,0,1,6.161,5.855,7.625,7.625,0,0,1-3.284,8.207l-6.1,3.385a3.519,3.519,0,0,1-1.448,3.793,5.46,5.46,0,0,1-.608,6.316,3.231,3.231,0,0,1-.018,4.233L85.89,33.842a1.189,1.189,0,0,1-1.6.01M87.3,18.128l-6-5.988c-.344-.343-1.064.3-1.225.665l6.615,6.608c.41-.261.979-.921.613-1.285M69.668,13.216l-1.15,1.15L85.1,30.952l1.15-1.15Z" transform="translate(-57.465 0.001)" fill="#fff"/>
        <path id="Trazado_1274466" data-name="Trazado 1274466" d="M18.379,205.439a9.19,9.19,0,1,1-9.19-9.19,9.19,9.19,0,0,1,9.19,9.19m-13.469.852,1.942,2.448a1.442,1.442,0,0,0,1.154.64,1.449,1.449,0,0,0,1.137-.654l3.693-5.089a1.311,1.311,0,0,0-1.969-1.728L7.943,205.9l-.923-1.184a1.348,1.348,0,0,0-1.895-.325,1.3,1.3,0,0,0-.215,1.9" transform="translate(0 -172.626)" fill="#fff"/>
      </g>
    </g>
  </g>
</svg>
