<svg xmlns="http://www.w3.org/2000/svg" xmlns:xlink="http://www.w3.org/1999/xlink" width="96" height="96" viewBox="0 0 96 96">
  <defs>
    <clipPath id="clip-path">
      <rect id="Rectángulo_454829" data-name="Rectángulo 454829" width="96" height="96" fill="#1e535a"/>
    </clipPath>
    <clipPath id="clip-path-2">
      <rect id="Rectángulo_460845" data-name="Rectángulo 460845" width="36" height="35.059" fill="#1e535a"/>
    </clipPath>
  </defs>
  <g id="Grupo_1211400" data-name="Grupo 1211400" transform="translate(-1481 -8562.5)">
    <g id="Grupo_1177591" data-name="Grupo 1177591" transform="translate(1481 8562.5)">
      <g id="Grupo_1177589" data-name="Grupo 1177589" transform="translate(0 0)">
        <g id="Grupo_1177587" data-name="Grupo 1177587" clip-path="url(#clip-path)">
          <path id="Trazado_997422" data-name="Trazado 997422" d="M92.081,42.491a44.136,44.136,0,0,0-9.97-22.967,5.076,5.076,0,0,0-7.142-6.838A44.071,44.071,0,0,0,52.151,3.77a5.077,5.077,0,0,0-9.861.2A44.132,44.132,0,0,0,20.4,13.329a5.079,5.079,0,0,0-7.048,7.1A44.1,44.1,0,0,0,4.112,42.448,5.08,5.08,0,0,0,3.99,52.4a44.082,44.082,0,0,0,8.949,22.468,5.078,5.078,0,0,0,6.9,7.17,44.128,44.128,0,0,0,22.412,9.8,5.078,5.078,0,0,0,9.949.2,44.091,44.091,0,0,0,22.985-9.08,5.077,5.077,0,0,0,7.107-6.874A44.147,44.147,0,0,0,92.2,52.349a5.078,5.078,0,0,0-.119-9.858M77.74,22.024a5.05,5.05,0,0,0,2.812-.851,41.913,41.913,0,0,1,9.25,21.3,5.086,5.086,0,0,0-3.246,2.351l-12.98-4.867c.01-.142.02-.286.02-.433a5.079,5.079,0,0,0-2.151-4.15l5.678-13.4a5.5,5.5,0,0,0,.616.041M75,21.216,69.354,34.523a5.026,5.026,0,0,0-5.594,3.23L40.279,32.344a4.941,4.941,0,0,0-.106-1.011l33.322-11.6A5.1,5.1,0,0,0,75,21.216M47.246,10.165a5.083,5.083,0,0,0,4.989-4.122,41.844,41.844,0,0,1,21.158,8.275,5.054,5.054,0,0,0-.735,2.625,5.335,5.335,0,0,0,.048.671L39.217,29.273a5.1,5.1,0,0,0-.92-.92l8.784-18.2c.056,0,.109.008.165.008M42.3,6.243A5.083,5.083,0,0,0,44.86,9.569L36.248,27.4a5.1,5.1,0,0,0-1.049-.109,5.045,5.045,0,0,0-2.9.91L22.1,19.678A5.052,5.052,0,0,0,21.923,15,41.877,41.877,0,0,1,42.3,6.243M10.041,46.332,31.153,35.442a5.064,5.064,0,0,0,4.006,2.014l7.236,23.129a5.166,5.166,0,0,0-1.12,1.239l-31.3-13.04a5.048,5.048,0,0,0,.187-1.348,5.107,5.107,0,0,0-.124-1.1m4.986-24.391a5.079,5.079,0,0,0,5.673-.484l10.079,8.417a5.068,5.068,0,0,0-.56,3.512L9.07,44.29A5.081,5.081,0,0,0,6.38,42.526a41.859,41.859,0,0,1,8.647-20.585m2.1,50.717a5.067,5.067,0,0,0-2.523.674A41.822,41.822,0,0,1,6.263,52.374,5.087,5.087,0,0,0,8.9,50.783l31.609,13.17a5.45,5.45,0,0,0-.041.611,5.081,5.081,0,0,0,.3,1.718L21.657,75.44a5.081,5.081,0,0,0-4.528-2.782M42.349,89.575a41.919,41.919,0,0,1-20.912-9.149,5.029,5.029,0,0,0,.775-2.686l0-.058L42,68.2A5.082,5.082,0,0,0,43.8,69.329l1.186,17.043a5.082,5.082,0,0,0-2.632,3.2m2.105-29.97-7.081-22.64a5.089,5.089,0,0,0,2.415-2.415L63.459,40a5.052,5.052,0,0,0,.808,2.311L48.032,60.13a5.019,5.019,0,0,0-3.577-.524m7.74,30.167a5.081,5.081,0,0,0-4.948-3.937l-.038,0L46.081,69.62a5.073,5.073,0,0,0,3.106-1.507L72.853,78.551c0,.046-.008.086-.008.132a5.057,5.057,0,0,0,.752,2.65,41.841,41.841,0,0,1-21.4,8.439M73.423,76.334,50.373,66.165a5.052,5.052,0,0,0-.666-4.52L65.893,43.877a5.052,5.052,0,0,0,2.622.735,5.594,5.594,0,0,0,.623-.041l6.05,29.836a5.071,5.071,0,0,0-1.766,1.928m7.292-1.9a5.051,5.051,0,0,0-3.377-.8L71.285,43.788a5.1,5.1,0,0,0,1.6-1.672L85.858,46.98a4.506,4.506,0,0,0-.023.456,5.08,5.08,0,0,0,4.084,4.981,41.876,41.876,0,0,1-9.2,22.017" transform="translate(0 0.001)" fill="#1e535a"/>
        </g>
      </g>
    </g>
    <g id="Elipse_13614" data-name="Elipse 13614" transform="translate(1497.965 8579.5)" fill="#d5f4f8" stroke="#1e535a" stroke-width="3">
      <ellipse cx="31.232" cy="31.233" rx="31.232" ry="31.233" stroke="none"/>
      <ellipse cx="31.232" cy="31.233" rx="29.732" ry="29.733" fill="none"/>
    </g>
    <g id="Grupo_1211429" data-name="Grupo 1211429" transform="translate(1510.965 8592.5)">
      <g id="Grupo_1211428" data-name="Grupo 1211428" transform="translate(0 1)" clip-path="url(#clip-path-2)">
        <path id="Trazado_1274512" data-name="Trazado 1274512" d="M108.643,40.184a2.1,2.1,0,0,1,.947.026l11.213,5a1.181,1.181,0,0,1,.662,1.051c.618,6.726-3.79,14.432-8.742,18.669a27.821,27.821,0,0,1-3,2.362c-.708.354-1.065.155-1.653-.212-6.435-4.007-11.265-12.046-11.5-19.668-.023-.729-.128-1.627.536-2.1Zm.257,12.759c-.194.133-1.186-1.079-1.426-1.255-1.39-1.021-2.794.374-1.884,1.656.193.272,2.61,2.677,2.813,2.782.889.458,1.4-.059,1.872-.725a50.007,50.007,0,0,0,3.556-5.92,1.245,1.245,0,0,0-1.966-1.51Z" transform="translate(-85.524 -35.56)" fill="#1e535a"/>
        <path id="Trazado_1274513" data-name="Trazado 1274513" d="M.983,120.434c2.108.135,4.656-.27,6.712-.029A1.265,1.265,0,0,1,8.78,121.49a35.672,35.672,0,0,1,0,5.257,1.243,1.243,0,0,1-1.2,1.087,44.913,44.913,0,0,1-6.4,0A1.266,1.266,0,0,1,.1,126.747a35.689,35.689,0,0,1,0-5.257,1.134,1.134,0,0,1,.885-1.056m4.907,1.254c-.517.119-1.929,1.914-2.079,1.915-.987-1.47-3.154-.438-2.25,1.224A8.631,8.631,0,0,0,3.3,126.51a1.316,1.316,0,0,0,1.354-.234,23.887,23.887,0,0,0,2.7-2.78,1.235,1.235,0,0,0-1.467-1.809" transform="translate(-0.001 -106.589)" fill="#1e535a"/>
        <path id="Trazado_1274514" data-name="Trazado 1274514" d="M8.418,240.383a1.675,1.675,0,0,1,.381.818,35.725,35.725,0,0,1,0,5.257,1.243,1.243,0,0,1-1.2,1.087,44.9,44.9,0,0,1-6.4,0,1.265,1.265,0,0,1-1.085-1.085,35.657,35.657,0,0,1,0-5.146,1.139,1.139,0,0,1,1.2-1.2,45.023,45.023,0,0,1,6.4,0,1.5,1.5,0,0,1,.7.267M5.908,241.4c-.517.12-1.929,1.914-2.079,1.914-.988-1.453-3.165-.466-2.25,1.224a8.977,8.977,0,0,0,1.469,1.5,1.351,1.351,0,0,0,1.36.142,27.267,27.267,0,0,0,2.883-2.825A1.244,1.244,0,0,0,5.908,241.4" transform="translate(-0.019 -212.6)" fill="#1e535a"/>
        <path id="Trazado_1274515" data-name="Trazado 1274515" d="M8.4,7.276a1.5,1.5,0,0,1-.7.267,45.343,45.343,0,0,1-6.4,0A1.16,1.16,0,0,1,.1,6.458,35.725,35.725,0,0,1,.1,1.2,1.265,1.265,0,0,1,1.182.116a44.914,44.914,0,0,1,6.4,0A1.243,1.243,0,0,1,8.779,1.2a35.709,35.709,0,0,1,0,5.257,1.676,1.676,0,0,1-.381.818M5.889,1.4C5.372,1.518,3.96,3.313,3.81,3.313c-1.233-1.631-3.4-.159-2,1.546.738.9,1.678,1.936,2.846,1.128a26.469,26.469,0,0,0,2.8-2.906A1.266,1.266,0,0,0,5.889,1.4" transform="translate(0 0)" fill="#1e535a"/>
      </g>
    </g>
  </g>
</svg>
